<svg xmlns="http://www.w3.org/2000/svg" viewBox="0 0 600 536"><path fill="none" d="M0 0h600v536H0zm343.125 45.438-3.169.029c-21.39.2-42.772.472-64.155 1.037-16.88.444-33.756.649-50.64.777l-3.822.03q-13.638.1-27.276.189l-19.566.132c-10.013.07-20.027.167-30.04.274q-10.102.105-20.202.1c-3.963.003-7.925.033-11.888.07q-2.687.018-5.375-.003C92.342 47.966 82.197 51.093 71 61c-2.082 2.57-2.082 2.57-3.812 5.125l-1.77 2.57c-1.966 3.195-2.543 5.698-2.544 9.376l-.008 2.523.007 2.774-.005 2.95c-.004 3.285 0 6.57.003 9.855q-.002 3.536-.006 7.07-.005 8.67 0 17.34.003 7.125 0 14.251v2.062l-.001 4.153c-.005 14.632 0 29.265.006 43.897l.001 2.272.001 2.274q.005 11.315.006 22.63c.025 135.975.025 135.975.544 203.154l.045 6.117q.081 11.292.186 22.583.03 3.23.056 6.46c.3 35.692.3 35.692 5.291 42.564l2.313 3.188c3.046 3.187 5.979 5.433 9.687 7.812h2l1 3c5.345 3.756 9.564 4.125 16.006 4.131l2.148.007q3.582.006 7.162.002l5.172.01q7.122.011 14.242.01 7.674.005 15.348.016 16.785.02 33.57.024l20.949.012q28.988.019 57.974.026h7.506l7.539.002h3.777q30.317.009 60.632.046 31.106.035 62.211.037 17.473-.001 34.946.025 14.874.023 29.748.012 7.592-.008 15.185.011 6.945.019 13.891 0 2.518-.004 5.035.01c2.276.01 4.551.003 6.827-.01 1.266.002 2.531.002 3.835.003 3.555-.403 5.49-1.185 8.297-3.374v-2l2.688-.75c6.18-2.332 8.796-5.542 11.515-11.348 1.816-4.335 1.938-8.115 1.925-12.74l.005-2.455q.004-4.104-.002-8.208l.003-5.91q.003-8.13-.009-16.262-.005-5.187-.008-10.373c-.033-55.871-.465-111.74-.934-167.609q-.131-15.682-.253-31.363-.162-20.721-.33-41.442-.064-7.707-.124-15.415c-.103-13.038-.222-26.077-.368-39.115q-.114-10.71-.157-21.42-.039-8.482-.12-16.963c-.032-3.394-.055-6.787-.057-10.18-.006-3.751-.042-7.5-.086-11.25l.017-3.348c-.2-11.542-5.682-18.813-13.584-26.732-6.941-6.493-13.625-8.583-22.957-8.473l-2.588-.007c-2.84-.003-5.68.016-8.521.035q-3.062.004-6.125.004c-5.53.005-11.061.03-16.592.058-4.639.021-9.278.032-13.917.043-34.1.081-68.198.339-102.296.66" id="svg-layer-0" style="pointer-events: all; fill: none;"/><path fill="#BD8C6F" d="M298 114c2.146 2.72 3.77 5.404 5.313 8.5 7.392 13.715 16.898 26.303 27.687 37.5a239 239 0 0 1 5 6l-1 2-5-2 4 3-3 3h3l-.125 3.313C334 179 334 179 336 182l4-4-1 12h2l1-4 1 6h-2l2 3 2-1 1.313 2.438C348 199 348 199 351 200l1 2 3 .5 3 .5 1 2 3-4 2 6h-4l-1 5h4c1.75 1.5 1.75 1.5 3 3l-2-4 9-1v2h-3v3l2 1 1 2 1-2h4v2h3l-1 4h5l1 2c1.89.527 1.89.527 4.25.938 3.787.788 6.736 1.504 9.75 4.062 1.187 2.812 1.187 2.812 2 6l1.125 3.375L404 241l1-4v2l3 1 1 1v-5l2.188 2.438c2.967 2.704 4.065 2.853 7.812 3.562 2 3.048 2 3.048 2 5l2-2c2 4.75 2 4.75 2 7a156 156 0 0 0 2 5h2v-3h2l1 2 3.25-.125c3.407.114 4.957.338 7.75 2.125v7l2-2 4 2v-2l3 1-1 4 2.25.813c3.552 1.533 6.028 3.465 8.75 6.187l-1 2a76 76 0 0 0 1 5l-2.75-.312c-3.25.312-3.25.312-5.625 2.625C452 287 452 287 452 290l-2-1c-.366 4.273.592 6.488 3 10l-3.187 2.375L445 305l-3.074 2.309c-7.937 6-15.504 12.27-22.551 19.316-2.72 2.72-5.597 5.21-8.504 7.727A97 97 0 0 0 405 340v-2l-4 1c1-2 1-2 4-3l-2-3-3 4v-5c-1 3-1 3-1 6h-3l-1 7h-2v2l-5 1-1-4v6h-3l-2 1c-.625 2.062-.625 2.062-1 4l-4 1-1 4-.375-2.437L375 355l-2-1 2 5h-2v2h-2l-2 6-1-4-3 1 1 2-1.937.313L362 367l-1 3h-2l-.937 2.875C357 376 357 376 356 378h-3l-1-1v3l-5-1-3 7h-3v5h-3v-4h-2l1 5c-2.332 1.206-4.496 2.165-7 3v6l-3-1v-4l-3 1c-.91 2.287-1.458 4.583-2.059 6.969C321 406 321 406 318.902 406.78L317 407l-1-4-6 1 2 7-2 1 2 2c-1.75 1.125-1.75 1.125-4 2-2.25-.875-2.25-.875-4-2l-2 2-3-2-1 3-2-3-2 1v3c-3.456-1.152-4.198-1.911-6-5-.187-2.75-.187-2.75 0-5h-2l-2-2v8h-2c-2.125-4.625-2.125-4.625-1-8l1-4-9-1 1-9-4 2 1 5-6-1c-1.125-7.625-1.125-7.625 0-11l-2-2 2-3-3-1v2h-4v-6h2l1-2h-4l-1 4-2-1 1-5h-3l-.312 1.938L251 377l-3 1c.75-4.75.75-4.75 3-7l-1-2 1-2-4-1v2l2 1-4 1-2-4-3 1c-1.46-2.647-2-3.894-2-7l-6 1v-2h2l.438-2.375C235 354 235 354 236 352h-4l-1 3h-2l-2-3a179 179 0 0 0-4-2c-1.75-1.625-1.75-1.625-3-3l-3 1 1-4h-1l-2 2c-2.625-.375-2.625-.375-5-1v-2l-3-1c-.687-2.062-.687-2.062-1-4l-6-1-1-4-5-1v-2l-1.687.625c-2.973.482-4.633-.36-7.313-1.625v-2l-3-1v-4c-1.937.375-1.937.375-4 1l-1 2-.75-2.875c-1.25-3.125-1.25-3.125-3-4.437C171 317 171 317 167.875 316.5 165 316 165 316 163 314l1-1.75c1-2.25 1-2.25 1-6.25h-3v3l-4 2 2-5h-7l-1-2 1-3-5 1v-4l-3-1c-.95-2.066-.95-2.066-1.687-4.562l-.762-2.504L142 288h2l-1-5-3 1 1-4h-3l1-3h4v-5l3 1v2h4v-2l-3-1 2.375-.187L152 271c1.313-2.562 1.313-2.562 2-5l3 1 1-2-2-1 2-1c.73-2.314 1.401-4.648 2-7h2v4h4l1-3 4 1-1-5 4-1-1-3 3-1 4 8 1-8h2l-1.125-2.25c-.875-2.75-.875-2.75-.25-5 1.669-2.124 2.744-2.4 5.375-2.75v2h-3l1 3c1.875-.25 1.875-.25 4-1 1.25-2.062 1.25-2.062 2-4l1 2 2-6 3 1 2-4h3l.875 1.938C204 235 204 235 206 236l-3-4h2c.826-2.892 1-4.887 1-8 2.266-2.735 3.601-3.867 7-5l3 1v-4l4 2v-5h4v-4l6 2 2-10 4 2 1-2h3v-7h3v-3l4-1 1-4 6 1v-2h2l1-7h2l-1-6c5.75.875 5.75.875 8 2l-1-4c4.75-3 4.75-3 7-3v-2l-4 1v-2l1.875-1.812c2.299-2.367 3.069-4.095 4.125-7.188l2-5 6 2v2l6 1-2-3v-3h2c-.375-1.938-.375-1.938-1-4l-2-1a100 100 0 0 1-3-4h5l-1-3c7.75-1 7.75-1 10-1v-8l3-1v-2l-1.812.625C295 126 295 126 292 124v-2l5-1z" id="svg-layer-1" style="pointer-events: all;"/><path fill="#49372F" d="M405.322 44.946q21.776-.16 43.553-.232 6.91-.024 13.823-.073 8.12-.056 16.24-.06 2.978-.007 5.955-.034c2.72-.025 5.438-.024 8.157-.017l2.364-.039c9.738.092 16.46 4.683 23.356 11.204 2.86 2.956 5.054 5.81 7.23 9.305l1.598 2.463c2.036 5.136 1.872 9.96 1.895 15.44l.05 3.599c.042 3.244.071 6.488.095 9.733.027 3.444.072 6.888.114 10.333.077 6.41.138 12.822.193 19.234.05 5.74.11 11.481.172 17.222.155 14.274.277 28.55.388 42.824l.11 13.704q.17 20.767.331 41.536.123 15.662.254 31.324c.282 33.638.534 67.277.73 100.916q.057 9.753.122 19.507c.092 13.761.174 27.522.218 41.283.019 5.719.044 11.437.086 17.155q.056 7.872.06 15.743.008 2.85.035 5.703c.174 18.283.174 18.283-4.451 25.281l-1.875 2.875c-2.496 2.496-4.874 3.782-8.125 5.125h-2l-.812 1.938C514 510 514 510 511 511a168 168 0 0 1-6.883.129l-2.145.005c-2.39.005-4.779.002-7.168 0l-5.17.007q-7.123.008-14.248.004c-5.117 0-10.233.006-15.35.01q-15.045.012-30.089.012-12.225 0-24.449.006-34.632.014-69.264.012h-7.554q-30.325.002-60.651.023-31.113.023-62.225.02-17.477-.001-34.955.014-14.88.014-29.759.005-7.596-.007-15.191.005-6.949.011-13.898-.002-2.519-.003-5.037.005a359559685332464.5 359559685332464.5 0 0 0-10.667-.006c-5.13-.388-9.079-2.357-13.297-5.249v-2l-2.187-.687c-3.399-1.586-5.265-3.574-7.813-6.313l-2.625-2.375c-4.54-5.018-5.74-10.078-6.043-16.706-.033-.686-.065-1.372-.1-2.078-.412-9.507-.47-19.026-.548-28.54l-.064-6.8c-.064-7.048-.117-14.096-.168-21.144l-.044-6.127c-.463-63.188-.605-126.38-.683-189.57l-.011-9.008-.003-2.251c-.014-11.292-.04-22.583-.07-33.874q-.055-19.545-.059-39.09c-.002-6.779-.01-13.558-.035-20.337q-.034-9.435-.018-18.872 0-3.443-.02-6.884c-.017-3.125-.01-6.25.003-9.375l-.033-2.73c.084-8.224 3.142-14.43 8.623-20.509 7.867-7.171 17.187-12.152 27.876-12.224l2.362-.05c2.615-.052 5.229-.082 7.844-.112l5.687-.099c6.376-.106 12.752-.178 19.129-.245l3.438-.037c20.185-.218 40.371-.355 60.557-.49q13.583-.09 27.165-.192l3.816-.029c16.454-.13 32.898-.38 49.346-.815 21.599-.57 43.199-.8 64.803-1l3.229-.03c16.016-.147 32.032-.27 48.049-.382q5.46-.038 10.919-.079m58.308 24.453c-18.175.435-36.349.724-54.528.882l-3.285.03q-13.266.113-26.53.215-11.594.09-23.185.193l-3.222.028c-20.966.192-41.922.656-62.88 1.253v5l3 1c-1.504 6.392-1.504 6.392-3.937 9.375-1.968 2.504-2.526 3.79-3.375 6.75-1.534 5.127-4.273 9.189-7.262 13.59C277 110 277 110 277 112l-3 1c-.95 2.504-.95 2.504-1.687 5.563l-.762 3.066L271 124l-9 1 2-10 4-1-1-3-6-1 5-13c5 1 5 1 8 3l-.105-2.414C273.627 87.122 273.627 87.122 277 82c2.004-3.286 3.609-6.41 5-10-46.362-.124-92.719-.017-139.079.406q-5.33.048-10.661.091-8.421.071-16.842.156-3.121.03-6.243.056-4.273.037-8.545.086l-2.538.017c-3.279.042-5.96.144-9.092 1.188-1.17 2.338-1.125 3.696-1.126 6.301l-.008 2.755.007 3.05-.005 3.227c-.004 3.599 0 7.198.003 10.797l-.006 7.727q-.005 9.48 0 18.96.003 7.81.001 15.62v2.262l-.001 4.556q-.004 21.483.006 42.966.006 17.988-.001 35.976C87.84 305.763 88.064 383.32 89 483c3.347 1.788 5.56 2.246 9.38 2.234l3.309.004 3.616-.027 3.82-.004q4.111-.005 8.222-.026c4.343-.022 8.685-.03 13.028-.037q10.319-.018 20.636-.057 18.436-.066 36.873-.1 6.462-.012 12.922-.04 3.063-.013 6.126-.02 3.716-.007 7.43-.03c6.09-.008 12.043.259 18.1.876 3.835.343 7.649.36 11.498.34l2.487.001q4.002-.002 8.002-.016l5.603-.005q7.32-.006 14.643-.024 7.49-.014 14.983-.02 14.661-.016 29.322-.049l1-6c.553 2.076 1 3.844 1 6 4.292.029 8.583.047 12.875.063l3.707.025 3.535.01 3.27.016C347 486 347 486 349 485c2.203-.26 4.413-.46 6.625-.625l3.602-.29c3.773-.085 3.773-.085 7.169.4 5.994.786 12.005.662 18.04.66l4.039.01q5.451.014 10.902.012 3.407.001 6.814.006 11.89.014 23.78.012 11.082.001 22.164.026 9.525.019 19.05.018 5.685-.002 11.37.013 5.338.014 10.675.003c1.93-.002 3.861.006 5.791.015l3.471-.013 3.022.002C508 485 508 485 511 483c.929-2.786 1.124-4.437 1.123-7.312l.006-2.683-.009-2.95.003-3.133q0-5.22-.01-10.44l.001-7.464q0-8.049-.008-16.098-.011-11.642-.012-23.285-.004-18.895-.019-37.79-.014-18.345-.02-36.69v-2.283l-.005-11.337q-.015-43.77-.045-87.54l-.002-2.683-.002-2.32L512 224l-1-2c-1.2-10.77-1.285-21.669-1.552-32.494-.366-14.53-.366-14.53-1.448-21.506h-1v-37h1c.029-3.458.047-6.917.063-10.375l.025-2.984.01-2.852.016-2.634C508 110 508 110 507 108q.486-2.004 1-4l-1-1a152 152 0 0 1-.43-6.3l-.222-3.901a906 906 0 0 1-.322-6.162c-.098-1.98-.214-3.959-.33-5.938l-.188-3.599c-.54-3.297-1.164-4.757-3.508-7.1-3.528-1.176-6.688-1.126-10.357-1.092l-2.269.011c-8.583.06-17.163.272-25.744.48" id="svg-layer-2" style="pointer-events: all;"/><path fill="#CDC2BD" d="M358.313 70.938q3.614.008 7.228.013 8.73.017 17.459.049v1l-42 1 1 3h8l1 2-3 1c2.007 3.01 2.839 3.63 6 5l-5 2c2.4 12.25 8.737 22.04 16 32l1.328 2.777c1.857 3.58 4.104 6.65 6.61 9.785l1.446 1.825C379.606 138.888 385.24 144.975 391 151l1.926 2.05c4.946 5.136 10.525 9.49 16.074 13.95l5.438 4.5c12.044 9.828 24.779 18.67 37.562 27.5l2.125 1.476c6.756 4.68 13.592 9.09 20.813 13.024l1.79.99c4.351 2.296 8.504 3.463 13.272 4.51 1.938-19.305 3.24-38.538 2.963-57.95a83.5 83.5 0 0 1 .841-12.825c.435-4.937.002-9.91-.241-14.85-.379-8.917-.697-17.825-.75-26.75l-.04-2.733c-.007-4.418.137-7.877 2.227-11.892 1.988 1.516 1.988 1.516 4 4 .269 2.73.332 5.046.188 7.75-.256 8.927-.256 8.927.312 12.5.438 3.285.534 6.26.5 9.563-.05 4.991.25 9.85.781 14.812C501 143 501 143 501 147q-.037-8.457-.055-16.913-.008-2.87-.02-5.74c-.106-23.726-.106-23.726 1.604-31.865.437-2.305.587-4.35.569-6.689l-.01-2.275-.026-2.33-.013-2.39Q503.029 75.9 503 73h1c1.083 13.123 1.313 26.242 1.535 39.402l.13 7.37q.192 11.039.364 22.077l.101 6.259c1.15 70.629 1.079 141.256.87 211.892l-2-1a129 129 0 0 1-1-6l-1-2-3 6h-1l-1-11 4-1 1-5-5 1v-2c-10.05.51-16.606 3.641-24.396 9.749a190 190 0 0 1-4.842 3.634c-4.37 3.21-8.648 6.45-12.7 10.055-2.807 2.349-4.746 3.253-8.062 4.562-1.18 1.113-2.352 2.238-3.46 3.422-1.862 1.909-3.847 3.633-5.853 5.39-4.773 4.272-9.34 8.728-13.875 13.25l-2.014 2.002c-11.687 11.722-11.687 11.722-15.048 17.748-2.535 4.27-5.902 7.472-9.456 10.908-4.051 3.947-7.596 8.182-11.122 12.608-2.1 2.584-4.29 5.036-6.547 7.485-8.288 9.113-15.754 18.97-22.625 29.187l-1.57 2.18c-3.472 5.028-3.472 5.028-3.243 9.32L354 483c-6.657 3.724-12.952 3.347-20.437 3.188l-3.663-.042A982 982 0 0 1 321 486l.063-2.437C321 481 321 481 320 480l-1 6q-16.144.035-32.287.052-7.497.007-14.994.023-7.247.016-14.492.02-2.754.003-5.508.01c-25.521.073-25.521.073-31.719-3.105-3.402-.366-6.782-.504-10.2-.656L207 482l-1-2-2.379.07c-6.03.104-10.814-.362-16.621-2.07-3.75.375-3.75.375-7 1h-3l-1-3a420 420 0 0 1 27.617-1.316l3.707-.063q5.775-.096 11.551-.183l7.902-.131q9.611-.16 19.223-.307c.194-9.275-3.54-14.015-9.25-20.875l-1.66-2.027A634 634 0 0 0 230 445l-1.57-1.87c-4.93-5.763-10.248-11.135-15.608-16.493-1.56-1.563-3.113-3.134-4.666-4.705-5.664-5.695-11.464-10.98-17.754-15.995-2.99-2.41-5.747-4.975-8.527-7.625-4.16-3.915-8.418-7.257-13.328-10.19L167 387v-2l-1.73-.812c-2.36-1.235-4.421-2.635-6.583-4.188-10.288-7.253-20.665-14.128-31.562-20.437l-2.628-1.54c-7.807-4.456-14.569-6.748-23.497-8.023l-1 26h-1l-.184-3.867-.254-5.008-.119-2.55c-.02-.404-.02-.404-.127-2.442l-.11-2.254C98 358 98 358 97 356l-1.375 2L94 360h-2l-1-6-3 4V247h2v-23l3-1 3 2v-3c3.007-.898 4.48-.944 7.75-.562 9.352.17 19.289-6.74 26.25-12.438l5.07-2.047c3.112-1.537 5.661-3.697 8.352-5.871a324 324 0 0 1 7.286-5.686c9.958-7.59 19.557-15.561 28.99-23.792l1.822-1.588c.58-.508 1.161-1.015 1.76-1.537a247 247 0 0 1 5.107-4.245C191 162 191 162 192 160h2l.676-1.707c1.72-2.98 3.9-4.744 6.512-6.98 4.27-3.786 7.858-7.574 11.18-12.208 2.013-2.596 4.286-4.805 6.632-7.105 6.713-6.916 12.595-13.893 17.938-21.906 1.866-2.8 3.82-5.507 5.812-8.219 4.089-5.81 7.007-12.145 9.25-18.875h-5a88 88 0 0 1-1-5l1-1-3-2c10.33-5.855 26.451-3.1 38-3q-.942 2.178-1.895 4.352l-1.065 2.447c-1.097 2.323-2.43 4.207-4.04 6.201-1.095 3.285-1.1 5.737-1.062 9.188l.027 3.292L274 100l-1.75-1.5C270 97 270 97 266 97l-1.066 3.027q-.746 1.957-1.497 3.91l-.689 1.999c-.752 1.904-.752 1.904-2.748 5.064-3.715.941-3.715.941-7 1l-.297 2.23c-1.57 10.244-1.57 10.244-5.703 13.77h-4l-.742 2.188c-1.816 4.06-4.663 6.992-7.578 10.312-1.886 2.806-2.046 4.193-1.68 7.5l3 1v2l3 1c-1.375 1.5-1.375 1.5-3 3h-2v-2h-4v-2c-7.284 2.284-7.284 2.284-9.937 4.938C219 158 219 158 218.688 160c-1.115 3.241-3.849 4.212-6.688 6a134 134 0 0 0-3.875 3.125l-1.805 1.508C205 172 205 172 205 174l6 3-1 3h-5l-1-4c-3.88.575-6.148 2.379-9 5l-1 3-3.437.875L187 186l-.848 2.383c-1.943 4.414-6.154 5.195-10.402 6.992-3.23 1.909-3.65 3.14-4.75 6.625l-2 1c-.625 2.063-.625 2.063-1 4l-2.082.297-2.73.453-2.708.422c-3.063 1.023-3.84 2.09-5.48 4.828l-.836 2.14c-1.733 2.768-3.68 2.887-6.789 3.61l-3.04.734L142 220v2c-1.531 1.508-1.531 1.508-3.5 3.125l-1.969 1.633L135 228l2.117.367 2.758.508 2.742.492C145 230 145 230 147 232a70 70 0 0 0 9-1l2.863-.46c7.303-1.523 7.303-1.523 9.7-4.446a144 144 0 0 0 2.285-4.32c1.864-2.87 4.94-2.879 8.152-3.774 2.641-2.093 5.049-4.356 7.492-6.676 2.847-2.638 5.846-4.897 9.012-7.133C197 203 197 203 198 201l2.5-.75L203 199l1-6-13 1-1-3q2.988-.57 6-1l1 1c14.75 1.028 14.75 1.028 21-3 3.03-3.616 3.324-6.36 3-11h2v2c6.827-2.59 9.09-5.237 12.488-11.613 1.569-2.477 2.785-3.516 5.262-5.012 2.212-1.348 3.084-1.907 3.96-4.379.138-.72.274-1.441.415-2.184L246 152c2.438-1.125 2.438-1.125 5-2a199 199 0 0 0 3-6 156 156 0 0 1 3.625-3.812c3.803-4.14 4.464-7.668 4.375-13.188l3.813-.5c2.629-.645 3.822-.938 5.316-3.238.744-2.07 1.329-4.13 1.871-6.262a600 600 0 0 1 2-5h2l.781-2.129c1.78-4.193 4.197-7.951 6.563-11.836 1.62-2.97 2.596-5.833 3.656-9.035 1.254-1.941 1.254-1.941 2.563-3.562 2.094-2.773 3.116-4.903 3.437-8.438l-2-1q2.216-.54 4.438-1.062l2.496-.598L301 74c1.518 1.518 1.41 3.145 1.75 5.25 1.253 6.472 3.174 12.904 6.25 18.75l2 1c3.073 1.537 3.454 3.858 4.625 7 2.197 5.822 2.197 5.822 4.375 8a70 70 0 0 1 1.625 4.625c.26.817.52 1.635.79 2.477L323 123l5 1 .734 2.957 1.016 3.856.984 3.832c1.34 3.549 2.161 4.399 5.266 6.355a201 201 0 0 1 3 6c1.945 2.724 3.747 4.8 6.375 6.875 2.774 2.246 4.873 4.66 7.148 7.39 2.696 3.166 5.707 6.008 8.727 8.86C363 172 363 172 364 175c1.594 1.027 1.594 1.027 3.5 1.938 3.418 1.81 3.418 1.81 4.188 4.187L372 183a88 88 0 0 0 4 2l2.188 2.25c2.99 2.923 6.05 4.9 9.628 7.027C390 196 390 196 391.836 198.973c2.957 4.137 6.588 5.443 11.12 7.304 4.75 2.12 5.835 4.175 8.044 8.723 2.918 1.898 2.918 1.898 6.188 3.375l3.292 1.523L423 221v-6l1.563.5c5.527 1.134 10.923.4 16.437-.5l-2 6-1.687-.437L435 220l-2.375-.625c-3.085-.44-5.59-.01-8.625.625l1 6 2.375.563c4.335 1.718 7.7 4.143 11.453 6.878C441 235 441 235 443 236v2l2.188.75C448 240 448 240 450.25 242c3.27 2.378 5.809 2.743 9.762 3.215L462 246l.875 2.3c1.537 3.687 4.114 5.032 7.438 6.95l1.724 1.063c3.336 1.991 6.194 2.944 9.963 3.687 2.168 1.788 3.358 3.655 5 6v3l-4 1v-2h-4l-1 2 2 1c-3.69 1.367-5.481.558-9-1a412 412 0 0 1-7.402-3.781C461 265 461 265 458.14 264.14c-3.934-1.429-7.031-3.518-10.454-5.891l-4.003-2.727-1.93-1.325a393 393 0 0 0-6.504-4.323c-4.068-2.714-8.017-5.577-11.957-8.473a618 618 0 0 0-7.68-5.523c-14.32-10.194-14.32-10.194-20.562-16-2.36-2.163-4.815-4.175-7.301-6.191-4.688-3.805-9.306-7.681-13.902-11.595a505 505 0 0 0-10.66-8.78c-4.022-3.27-7.702-6.71-11.305-10.43-1.825-1.825-3.719-3.476-5.695-5.133-5.55-4.774-10.323-10.298-15.188-15.75l-1.906-2.094C316.263 145.622 304.985 129.486 297 112c-3.393 1.411-4.955 2.907-7 5.938l-1.832 2.703a445 445 0 0 0-4.867 7.718c-6.103 9.877-12.49 19.119-19.947 28.02-1.962 2.349-3.871 4.739-5.791 7.121-10.711 13.016-21.625 25.744-34.489 36.703-2.476 2.145-4.861 4.38-7.262 6.61C209.82 212.274 203.499 217.164 197 222l-2.848 2.125c-5.63 4.148-11.385 8.071-17.222 11.922-3.607 2.404-7.146 4.895-10.676 7.41C159.618 248 159.618 248 157 248l-1 3c-2.117 1.578-2.117 1.578-4.875 3.25l-3.035 1.867L145 258q-2.661 1.68-5.312 3.375l-2.735 1.738q-3.209 2.05-6.406 4.117l-1.8 1.163q-1.797 1.162-3.594 2.326c-4.406 2.84-8.892 5.513-13.458 8.09L110 280v2c2.09 1.48 2.09 1.48 4.938 3.188 3.592 2.215 6.983 4.453 10.25 7.125 5.927 4.735 12.449 8.553 18.905 12.513 4.337 2.67 8.626 5.416 12.907 8.174l2.25 1.445c6.468 4.228 12.596 8.887 18.75 13.555q2.062 1.533 4.125 3.063c2.95 2.207 5.823 4.496 8.688 6.812 4.46 3.6 9.059 6.962 13.742 10.266 2.371 1.803 4.372 3.726 6.445 5.859 1.686 1.474 3.4 2.907 5.121 4.34 2.398 2.119 4.616 4.397 6.879 6.66q2.894 2.67 5.813 5.313c6.938 6.327 13.488 12.816 19.601 19.953C250 392 250 392 252.563 394c2.806 2.302 4.604 4.817 6.718 7.746 1.867 2.449 3.88 4.68 5.969 6.942 3.476 3.803 6.695 7.716 9.813 11.812l1.274 1.674q1.832 2.412 3.663 4.826c4.653 6.076 9.447 11.637 15.02 16.895C297 446 297 446 298.512 448.699 300 451 300 451 302.187 451.812L304 452c4.304-4.73 8.327-9.641 12.25-14.687a422 422 0 0 1 12.885-15.74c3.34-3.905 6.485-7.92 9.525-12.061L340 408h2l.73-2.187c1.445-3.202 3.195-5.245 5.582-7.813l2.438-2.637c2.376-2.496 4.813-4.926 7.25-7.363l2-2.5c2.16-2.7 4.542-5.077 7-7.5q3.941-3.902 7.875-7.812l2.066-2.042c4.036-4.016 7.873-8.13 11.557-12.47 1.959-2.185 4.173-3.899 6.502-5.676 5.061-4.898 9.789-10.116 14.56-15.293l1.944-2.09 1.744-1.887c4.79-4.73 4.79-4.73 7.752-4.73l.68-1.695C425.978 316.8 435.073 310.987 442 306l3.813-2.937c4.028-3.032 8.267-5.677 12.542-8.344 2.271-1.476 4.351-3.023 6.457-4.719 3.588-2.765 7.468-4.842 11.5-6.875l1.853-.941c2.815-1.38 4.658-2.184 7.835-2.184l-1.062-2.312C484 275 484 275 485 272c3.063-1.187 3.063-1.187 6-2v-2h8l-1-3-2-.937-2-1.063c-.625-2.063-.625-2.063-1-4l-2-1v-2h10l-1-6-1.906-.48c-6.71-1.83-13.921-3.87-17.656-10.145-1.624-2.682-3.1-3.715-6.024-4.816-8.518-1.971-17.706-1.712-26.414-1.559v-3c3.735-.575 7.213-1 11-1l1-2h-2l-1-4h-4c-1.926-1.758-1.926-1.758-4-4-14.39-11.195-14.39-11.195-22-15l-1 4-5 1-1-4 3-2c-1.287-3.352-2.651-6.264-5-9-3.368-1.08-6.484-1.17-10-1l-.25-2.75c-.879-3.809-1.671-4.9-4.75-7.25l-3.5-1.375c-5.014-2.328-6.602-5.56-8.75-10.5L390 169l-6.055-.488C382 168 382 168 380 165c-4.38.52-8.688 1.057-13 2v-4h10c-.621-4.616-.621-4.616-2-7-2.102-1.11-2.102-1.11-4.562-2-2.461-.91-2.461-.91-4.438-2-.687-3.438-.687-3.438-1-7-3.564-3.644-6.21-5.084-11-7l-1-11h-9l-1.312-4.125c-1.281-3.812-2.61-7.411-4.688-10.875l-3-1c-1.188-2.563-1.188-2.563-2-5l-.937 3.313A170 170 0 0 1 330 116h-2l.032-1.697c.041-2.538.067-5.077.093-7.615l.05-2.67.02-2.569.032-2.364C328 97 328 97 326 94a84 84 0 0 1-1.562-4.437c-.25-.762-.498-1.524-.754-2.31A108 108 0 0 1 322 81l-6 1v7h-3l.188-3.062C312.973 81.426 311.87 79.052 310 75v-3c16.115-.96 32.173-1.122 48.313-1.062M123 233l-2.23.406c-3.228.716-4.548 1.274-6.457 4.031L113 240c-2.969 2.859-6.355 3.971-10.195 5.254C101 246 101 246 99 248c-.23 2.863-.23 2.863-.187 6.313l.019 3.425A45.3 45.3 0 0 0 100 266c5.055-1.362 9.233-2.985 13.5-6.062 3.155-2.259 5.549-3.357 9.375-4 3.896-.66 3.896-.66 6.188-3.438.937-2.5.937-2.5.937-4.5l1.723-.262c5.161-.939 8.65-2.315 12.77-5.562 1.723-1.344 3.51-2.297 5.507-3.176l-1-5h-9v-2c-5.921-1.53-11.111-.186-17 1m-33 24v45h2l1-3 2 1q-.212-5.062-.437-10.125l-.12-2.883c-.17-3.767-.348-7.426-.974-11.148-.62-3.76-.576-7.417-.531-11.219l.013-2.23q.02-2.698.049-5.395zm391.063 41.75-2.59.984c-2.753 1.41-4.37 3.015-6.473 5.266-4.519 4.009-8.695 7.076-14.437 9.063-4.37 1.55-4.37 1.55-6.188 5.187L451 322h-2l-.723 1.945C447 326 447 326 444.941 326.617l-2.378.258c-4.313.777-4.313.777-6.625 4C435 334 435 334 435 338l-1.687-.168c-2.77-.023-4.706.188-7.313 1.168-2.312 2.656-4.118 5.461-6.02 8.422-2.084 2.714-3.003 3.368-6.23 4.203C410 353 410 353 408.926 355.02l-.863 2.418c-1.511 4.23-1.511 4.23-4.231 5.863q-2.409.93-4.836 1.812C397 366 397 366 395.438 368.438c-.442 2.584-.588 4.946-.438 7.562l-1.828.191c-6.374.977-6.374.977-8.66 3.36-1.97 3.345-2.512 5.548-2.512 9.449l-2.117.77-2.758 1.043-2.742 1.019C372 393 372 393 370 396c-.125 3.188-.125 3.188 0 6h-2v4l-3.75.188c-3.296.42-4.105.682-6.687 3C356 412 356 412 355.75 415c-.75 3-.75 3-2.477 4.352q-2.15 1.274-4.332 2.492c-3.48 2.073-4.69 4.404-5.941 8.156-1.523 1.395-1.523 1.395-3.375 2.813-3.34 2.75-4.777 5.25-6.625 9.187-1.468 1.831-3.007 3.564-4.598 5.29-2.76 3.366-3.402 5.275-3.402 9.71l-2.875.313C319 458 319 458 317 461c-.23 3.32-.23 3.32-.187 7.125l.019 3.82C317 475 317 475 318 476c4 .27 7.616-.008 10.93-2.383 3.041-3.245 4.014-5.03 4.445-9.555L333 461l3.375.125C340 461 340 461 342 459c1.951-3.8 2.124-5.912 1-10l-1-5 1.563 1.5c3.325 2.046 5.6 1.919 9.437 1.5 2.616-1.831 2.97-2.91 4-6 .067-1.394.085-2.792.063-4.187L357 433l-4-2 2.125.938c3.093 1.143 5.57 1.924 8.875 2.062 2.747-1.77 4.531-3.063 6-6 .069-1.373.085-2.75.063-4.125L370 420l1.828-.043c6.526-.39 6.526-.39 9.735-3.207 1.52-2.909 1.806-4.523 1.437-7.75h-2v-4l2.012.176c7.204.368 7.204.368 11.05-2.301 2.105-3.123 2.772-5.133 2.938-8.875l-1-2h-2v-2l3.188 1c3.216.844 5.54 1.374 8.812 1 2.421-2.421 2.528-3.801 3.125-7.125L410 380l11-3c1.05-4.199.728-6.794 0-11l3.188.125c4.545-.149 7.274-.693 10.625-3.812C436 360 436 360 436 353h-15l1-2 2.247.048c3.355.062 6.71.101 10.065.14l3.538.076 3.388.029 3.127.048C447 351 447 351 448.815 349.609c1.41-1.914 1.878-3.478 2.373-5.796L452 340l10-2v-2h2c1.46-2.647 2-3.894 2-7l3.188-.187c3.812-.813 3.812-.813 6.25-3.25 3.403-3.404 5.89-3.692 10.562-4.563l.188-2.875L487 315c2.563-1.375 2.563-1.375 5-2v-2l1.938-.875C496 309 496 309 497 307c2.563-.625 2.563-.625 5-1v-6h-12l-1-3c-3.174 0-5.003.603-7.937 1.75M100 302c-1.953 14.12-1.953 14.12 1 20 3.125 1.563 3.125 1.563 6 2v2l7 1v2c4.313 4.083 8.87 6.73 14.188 9.313l2.154 1.087c5.263 2.6 5.263 2.6 8.658 2.6l.207 2.332c.793 2.668.793 2.668 2.867 4.18l2.613 1.175 2.731 1.262C150 352 150 352 153.5 353c2.5 1 2.5 1 3.563 3.375L158 359c4.79 4.79 11.62 7.873 18 10l.848 2.328c1.513 3.508 3.345 4.474 6.59 6.422l2.933 1.797C189 381 189 381 192 382l1.75 3.313c2.304 4.297 4.79 5.776 9.25 7.687 2.125-.125 2.125-.125 4-1l2.75-1.062L212 390v2h-2c-1.584 3.167-1.42 5.515-1 9 3.182 2.871 5.473 3.902 9.688 4.688C222 407 222 407 222.968 409.016q.72 2.42 1.368 4.859C225 416 225 416 226.812 417.938 229 419 229 419 231.938 419.563c3.688 1.73 3.861 2.686 5.438 6.312 2.172 4.946 4.02 6.207 8.914 8.145 1.711.98 1.711.98 2.774 4.355L250 442c2.912 3.278 5.835 5.612 10 7 .633 1.855.633 1.855 1.125 4.188 1.536 5.198 4.297 7.077 8.816 9.816C272 464 272 464 274 464l-.562 2.813C273 470 273 470 274 473c3.195 2.414 5.993 4.384 10 5l-4 1v6c2 .043 4 .04 6 0 2.927-2.927 2.667-10.056 3-14-.296-3.004-.954-5.123-2-8l-.687-2.375c-2.163-2.677-5.069-2.904-8.313-3.625l.563-3.312C279 450 279 450 278 447l-1.953-.805C274 445 274 445 272.953 442.18l-.703-3.305-.734-3.32L271 433l-3.875.625c-2.18.352-2.18.352-4.125.375l-2-2 1-1c.25-2.875.25-2.875 0-6-1.437-1.687-1.437-1.687-3-3l-1-3-6-1-2 5c-1-3-1-3-.937-6.812.014-3.816-.225-6.752-2.063-10.188-3.375-1.75-3.375-1.75-7-3a171 171 0 0 1-4-2v-8c-3.118-1.848-5.381-2.543-9-2-2.312 2-2.312 2-4 4l-3-4 4-1c-.437-4.807-2.345-8.839-6-12-3.019-.865-5.87-1.048-9-1l-1 4-5-3 6-2c.125-6.75.125-6.75-1-9-2.398-.45-2.398-.45-5.375-.687l-2.96-.262C197 366 197 366 194 367l-1-2 4-1-3-9-4.125-.375c-3.847-.42-7.246-1.23-10.875-2.625l.125-2.812C179 346 179 346 177 343c-3.625-.687-3.625-.687-7-1l1 7 3 1-1 3h-6l-1-4h2c.367-5.498.367-5.498-1.187-7.625L165 340l-2.562-2.187C160 336 160 336 158 336l-1 5-3-1-1-3 4-1v-7c-5.823-1.968-10.834-3.402-17-3l-.187-2.187c-1.259-4.357-3.882-6.702-7.782-8.946A169 169 0 0 0 126 312a564 564 0 0 1-4-2l-1.437 1.5c-3.767 2.205-7.298 1.746-11.563 1.5v-1l9-3c-.25-2.375-.25-2.375-1-5-2.563-1.794-3.831-2-7-2v-2c-3.904 0-6.38.684-10 2" id="svg-layer-3" style="pointer-events: all;"/><path fill="#BD8C6F" d="m400 87 1 3h2l2 2 1-2c4 4.75 4 4.75 4 7l2-2v-3h2v3l7-1v2l3-4 2 3 1.875-.562C430 94 430 94 432 95l1 1 3-4 1 2 2-3 1 4 1-3h9v2h-2l3 3v-2h3l1-3h4l1 2 2-4 1 5a574594172983909.4 574594172983909.4 0 0 0 9.766 1.953C476 97 476 97 478.296 95.047L480 93h2l2 3c2.563.188 2.563.188 5 0h1l2-2q.234 14.659.443 29.318.096 6.81.205 13.622c.556 34.73.556 34.73.067 48.962l-.073 2.803c-.115 2.49-.115 2.49-.642 6.295l-3 2v4l2 1c1.323 6.175.691 10.962-1 17-7.002-.38-11.78-2.594-17.812-6.062l-2.687-1.514c-5.498-3.143-10.717-6.481-15.747-10.338-3.443-2.608-6.997-5.03-10.567-7.461-30.448-20.863-30.448-20.863-31.917-26.355L411 165l-1 2-.75-2.312c-1.378-2.963-2.678-3.802-5.25-5.688v-3l-2.75-.25c-3.65-.842-4.884-1.929-7.25-4.75l1-1-2.312-.625c-4.194-2.146-5.094-5.637-6.563-9.937-1.466-3.177-3.603-5.039-6.125-7.438-3-3.62-3-3.62-3-6h-2c-1.423-3.823-2.24-6.913-2-11h-2c-2.87-3.214-3.699-5.952-4.312-10.125C366 103 366 103 363.938 101.75L362 101l6-3v2h4l1-2 7 1-1-3 1.938-.875C383 94 383 94 384 92l1 4c2-2 2-2 3-4h12zM184 83q3.156-.04 6.313-.062l3.55-.036C197 83 197 83 200 84c2.061.069 4.125.085 6.188.063l3.292-.028L212 84v1h-6v3h2l4 12h3v2l4 1-1 5h6l-3 1-.375 3.438L220 116l-2 1 2 1v2h-2l-.25 3.375c-.75 3.625-.75 3.625-2.562 5q-2.173.622-4.375 1.125L209 130l-1 2c1.937.563 1.937.563 4 1l1-1a100 100 0 0 1 5 0l-2 5h-2l-.637 1.594c-1.931 3.409-4.505 6.058-7.175 8.906l-1.58 1.723c-3.014 3.242-6.127 6.028-9.608 8.777l-1 2h-2l-.807 1.818c-1.227 2.243-2.35 3.454-4.283 5.1l-1.859 1.598-1.988 1.672c-.68.578-1.358 1.157-2.057 1.753C175.4 176.706 169.72 181.374 164 186l-4.023 3.3-4.29 3.512-2.03 1.672A137 137 0 0 1 142 203a336 336 0 0 0-5.973 4.828c-2.494 1.442-4.193 1.388-7.027 1.172v-5l-2.312.063c-3.164-.074-5.026-.45-7.376-2.625L118 200l-1 4h-2l-1 3-.246-1.89C113 203 113 203 111.152 201.952l-2.215-.703-2.222-.734L105 200v-5l6-2 .375 1.938L112 197l2 1v-2h-2v-3l-2.875-.937C106 191 106 191 104 190v-3h6c-3-2-3-2-6-2v-3l6-2c-1-2-1-2-3-4l-1-3h3l1-2h2l1-4h-3l-1-2v2h-2c-2.092-4.43-2.092-4.43-1.625-7.312L106 158h-2q-.293-3.812-.562-7.625l-.17-2.16c-.293-4.252-.163-8.01.732-12.215l1 4h4v-2l-2-1v-5l2 1v3c1-3 1-3 1-6l-4-1-1-5 3 1 1-3h-2v-5l4 2 1-4h6l1-4h9v-2l-3-1h3l-2-4h3l-1-1h-1v-5l3 1c2.125-6.75 2.125-6.75 1-9l2.313.563C136 91 136 91 139 90l1-3h11l-7-1v-2l24 1v1l-5 1 3 1 2-1 .688 1.938C170 91 170 91 172.625 91.75L175 92l2-7 7-1zM488 339h8q.037 6.244.055 12.488.008 2.121.02 4.242c.013 2.04.018 4.081.023 6.122l.016 3.713C496 369 496 369 495.406 372.358L495 375q1.499 1.501 3 3c.434 3.398.434 3.398.438 7.375l.058 3.96c-.563 4.162-1.703 5.63-4.496 8.665l-1 3 3 1v69l-5-1v-3l-3-1-1-2-3-1v-3l-7 2-1 4 2 1-7 1v2l6 1v1l-5 1v1h-34l-1-5-2 2-.078-2.117-.172-2.758-.14-2.742C434 461 434 461 431.952 459.68L430 459l-2 4-2-1-2 6-1-3-3 1c-1-3-1-3-1-5l-5 1v8h-2c-2-2-2-2-3-4 0 3 0 3 1 5 2.063.625 2.063.625 4 1v2l-24 1v-4l-1 3h-6l.938-2.25c1.062-2.75 1.062-2.75 1.5-5L386 465l3-1h-3a129 129 0 0 1-1-6l1-1-1-2 3-1-.105-2.555-.082-3.32-.106-3.305L388 442l3-2v-4l2-1c1.103-2.74 1.987-5.528 2.902-8.336 1.065-2.585 1.982-3.891 4.098-5.664l1 2 .188-2.187c1.074-3.72 2.87-5.36 5.812-7.813h3v2h2l-.312-2.125c.454-4.182 2.477-5.827 5.312-8.875l2 2v-3c3 0 3 0 5 1v-2l-3-1 1-3 4 2v-5l3-1c.357-1.327.687-2.662 1-4 1.383-1.86 1.383-1.86 3.125-3.75l1.902-2.09L437 382q2.67-3.113 5.324-6.238A31.8 31.8 0 0 1 448 371h2l.625-2.75c1.695-4.007 3.65-5.145 7.375-7.25v2l2.188-.5c2.676-.476 5.101-.577 7.812-.5v2c2-1.375 2-1.375 4-3v-2l2-1 1-3 2 1-1 3 2 1h-2l1 3 2-1 3-1-.062-3.312C482 354 482 354 483 351h3l-.75-1.75L485 347c1.875-2.062 1.875-2.062 4-4l1-3z" id="svg-layer-4" style="pointer-events: all;"/><path fill="#A97860" d="m295 111 3 1c1.354 6.277 1.354 6.277-.437 9.938L296 124l-1-2h-3v2l7 1v2l-2 2v7l-2 2-2-1c-2.008.281-4.01.61-6 1v2l-4 1 3 1 1 2h1v5h-2l2 6-6-1v-2l-5-1-.375 1.938L276 155l-2 1c-1.175 2.626-2.09 5.27-3 8h-3l4 1v2c-4.385 3-4.385 3-7 3l1 4h-4v-2l-3 1v5h-2l.625 2.25c.42 3.073-.006 4.178-1.625 6.75v-2h-2v2l-6-1-1 4-4 1v3h-3l.813 2.188c.187 2.812.187 2.812-2 5.687C236 204 236 204 233.688 203.813L232 203l.125 2.313C232 208 232 208 230 211c-2.169-.506-4-1-6-2l1 7-2-3h-2l-1 8-3-1c-.687-2.062-.687-2.062-1-4v4l-2.875.375C210 221 210 221 208 223l-1 2h-2v2l2 1-3 5h2v3h-4v-5h-3l-1 5-4-2-1 6h-3v3l-6 1v-4h3v-2l-4 1c-.865 3.46-.909 5.592 0 9l-1 3a299 299 0 0 0-1 6c-3.861-2.574-3.943-4.61-5-9l-2 2v2l-4 1 1 5h-4l-1 2h-4v-4c-2 1-2 1-2.598 2.742l-.464 2.133c-.548 2.452-1.14 4.732-1.938 7.125l-3-2-.75 2.438C152 271 152 271 149.875 271.813L148 272l2 1v2h-4v-2h-2l-1 4-1.937.375L139 278l-1 2h3l-1 4 4-2v9q.47 3.005 1 6l4 1-1 4 5-1v4l7 1v3h2v-3l4-1c.125 2.875.125 2.875 0 6l-2 2 1 2c2.285.633 2.285.633 5.063 1.125l2.785.508L175 317l.375 1.875C176 321 176 321 178 323c2.125-.375 2.125-.375 4-1l.375 1.938L183 326l2 1v2l1.934.148 2.504.227 2.496.21L194 330l1 2h5v5l1.813-.625C204 336 204 336 207 338q.514 1.995 1 4c1.313 1.813 1.313 1.813 3 3 2.063-.125 2.063-.125 4-1l2-3 2 4-2 3 4-2 1.188 1.813c2.019 2.437 4.114 3.583 6.812 5.187v2h2l1-4 4 1c-1.875 6.875-1.875 6.875-3 8h5l3 6h2l2 3h3l-1-3 4 1 1 5-3 2v3l1-2h2v-2h3v5c1-1 1-1 2-3h4l-1 3v1l-2 1v3h4v-2l4 1-2 3 2 4-2 3 3 1-2 1 1 2-1 2h5l-1-5 6-2-1 9 8 2v12c1-1 1-1 1.098-2.848l-.036-2.214L283 405h3v3h2l.313 2.875C289 414 289 414 292 416l2 2 1-7 3 4 3-1h10l-2-3h3l-1-1.812C310 407 310 407 310 404l6-1 1 3c1.906-.219 1.906-.219 4-1 .906-2.031.906-2.031 1.5-4.5s.594-2.469 1.5-4.5c2.094-.781 2.094-.781 4-1v5c1-2 1-2 2-5l2-1-3-2h8l-1-5h2v4h3v-5h3l.375-2.312C345 381 345 381 347 378l5 2v-3l-2-1h3v2h3v-4h2l.375-2.375c.84-3.53 3.109-5.109 5.625-7.625l4-1c2.687-.875 2.687-.875 5-2 1.044-3.133.934-3.99 0-7l4 2c3.923-2.354 4.839-4.645 6-9l3 3 1-6 2 1v2h4l.586-1.934.789-2.503.773-2.497C396 338 396 338 398 337v-6l3 1v3l3-3 2 5-3 1h2c-.56 3.44-1.51 4.767-4.25 6.875-2.429 1.965-4.221 3.69-6.25 6.125-1.934 2.32-3.584 3.991-5.875 5.875-3.212 2.669-5.829 5.589-8.523 8.77-3.182 3.566-6.597 6.892-10.015 10.23-2.324 2.286-4.271 4.401-6.087 7.125h-2l-.687 1.625c-2.877 5.205-7.144 9.206-11.313 13.375a419 419 0 0 0-5.203 5.926 326 326 0 0 1-3.344 3.804c-5.872 6.585-11.354 13.493-16.899 20.352a1737 1737 0 0 1-8.491 10.375 305 305 0 0 0-4.25 5.367l-2.125 2.738-1.864 2.442c-1.841 2.015-3.318 2.973-5.824 3.996-3.572-3.464-6.876-7.087-10.129-10.852a261 261 0 0 0-3.71-4.171c-4.601-5.062-8.828-10.34-13.015-15.742-3.5-4.488-7.216-8.716-11.064-12.91C255 399.184 255 399.184 255 396l-1.762-.773c-5.48-3.004-9.637-8.478-13.675-13.164-5.967-6.9-12.266-12.972-19.567-18.438-1.84-1.498-3.227-2.951-4.684-4.812-2.5-3.042-5.021-4.688-8.312-6.813l-2.227-2.281c-3.166-3.105-6.54-5.596-10.148-8.156-3.87-2.758-7.647-5.53-11.227-8.66-2.968-2.595-6.089-4.753-9.398-6.903a603 603 0 0 1-5.75-4.375c-4.328-3.263-8.673-6.189-13.36-8.902-4.604-2.744-9.075-5.693-13.565-8.618a639 639 0 0 0-12.262-7.793c-4.532-2.862-8.664-6.079-12.774-9.515-2.329-1.828-4.722-3.327-7.289-4.797 1.186-3.557 1.868-3.798 5.016-5.602l2.524-1.472 2.71-1.551c7.204-4.212 14.122-8.58 20.922-13.418 2.674-1.85 5.39-3.515 8.203-5.144 3.657-2.135 6.671-4.504 9.809-7.329 2.025-1.655 4.114-2.923 6.379-4.234 5.008-2.901 9.65-6.186 14.332-9.577 3.178-2.301 6.372-4.54 9.667-6.673 9.29-6.135 17.809-13.138 25.961-20.703a245 245 0 0 1 6.415-5.734C234.541 188.676 246.76 176.175 258 162l2.648-3.305c8.217-10.302 16.162-20.749 22.774-32.168 3.299-5.283 7.164-11.113 11.578-15.527" id="svg-layer-5" style="pointer-events: all;"/><path fill="#BD8C6F" d="M121 359v2l5 1v-3c14.534 5.324 28.832 16.564 41 26l-1 2-7-4v2l2.438.75C164 387 164 387 164.813 389.125L165 391h3v3c1.12 2.559 2.441 4.662 4 7v3h2l1-4 1 2a78 78 0 0 0 5 2l1-2v4l1.938.375L186 407l1 2 1-1q1.987-1.025 4-2c11.262 10.414 22.22 21.089 33 32l-2 3c-2.438-1.187-2.438-1.187-5-3-.812-2.687-.812-2.687-1-5h-2v-2l-2.312.125C210 431 210 431 207 429v4l5-1-1.125 3.188c-.918 3.998-.789 5.303 1.125 8.812l-4 2-1-4h-3v2l3-1 .375 3.438L208 450l2 1c.625 2.063.625 2.063 1 4-3 0-3 0-5-1v-2h-2v-2c-3.35 1.117-3.793 1.747-5.687 4.563l-1.325 1.94L196 458l-4-2 1 7h-6l1-4-4-1-1 2-2-6h-3l-1-3v5l2 1h-3v2h-4l-1-2v7l-3 1-1 2-4-2 1-4c-1.875.313-1.875.313-4 1l-2 3c-4 0-4 0-6-1v-4l-2.812.625C146 461 146 461 143 459h2l-2-2-2 1-3-3v3l-6-2 4-2-5-1v2l-2-1 2-5-3-1-1 2-7-7-3 1-3-1 2 3-3 4-3-1 1-2c.402-4.62-.14-6.453-3-10-.348-1.664-.684-3.33-1-5l-2-1 .125-3.5c.016-4.445-.907-8.237-2.125-12.5h2l-.254-1.977c-.566-4.858-1.063-9.233.254-14.023l2-2c.195-2.531.195-2.531.125-5.5l-.055-2.969L107 386v-2q-.467-2.07-1-4.125l-.562-2.195L105 376h-2v-2h2l-.559-1.734c-.723-3.712.538-6.664 1.559-10.266a852 852 0 0 1 5.25-1.5l2.953-.844C117 359 117 359 121 359" id="svg-layer-6" style="pointer-events: all;"/><path fill="#A97860" d="M101 350c9.174-.816 17.361 3.247 25 8v4l-1.652-.508c-5.352-1.445-9.158-1.488-14.5 0C108 362 108 362 106 362l-1 12h-2v2h2c1.257 2.906 2 4.796 2 8l2 1-.5 2c-.426 2.555-.479 4.568-.375 7.125L108 398l-1.496 1.293c-2.4 2.724-1.789 5.367-1.692 8.894l.083 3.856L105 415h-2l1.5 3.5c1.155 3.036 1.668 5.443 1.563 8.688-.06 3.636.336 5.61 1.937 8.812h2v4l2 1v7h2l1-3-2-3 2-1v2l4 1 1-2 2 3q1.987 1.025 4 2l1 2 4-1v5h6l-1 3h-2l4 2v-3l1.813 1c2.187 1 2.187 1 5.187 1l1 3 6-1 1 5 3-1v2l2.25-2.562L161 460c2.313.188 2.313.188 4 1l-2 4c1.813.625 1.813.625 4 1l3-2c.188-3.625.188-3.625 0-7l2-1v3h4c1.231-3.694.644-6.206 0-10l2-1v6h3l1.438 1.938c1.787 2.359 2.699 2.667 5.562 3.062l-1 4 3-1v2l2-1v-7l4 1v-2l4-4v-2h5l-1 3h2v2l4 1-2-2v-3l-2-1h2l-2-5h-2v-2h3l1-2v6l3-3-2-2q.43-3.51 1-7l-1-1h-2v-4l8 2v2h2l1 5h4l1 2h4c2.262 2.203 2.262 2.203 4.688 5.25l1.3 1.625A566 566 0 0 1 237 452l2.617 3.293c6.914 8.891 6.914 8.891 7.383 13.707-.437 2.812-.437 2.812-1 5-3.826 1.275-7.42 1.14-11.407 1.13l-2.61.005q-4.313.004-8.624-.002l-6.106.003q-6.457.001-12.913-.006-8.044-.006-16.09.004c-29.428.027-58.831-.381-88.25-1.134-.667-13.61-1.154-27.183-1.133-40.809l-.003-4.773q-.002-4.939.006-9.878.006-6.213-.004-12.427c-.017-14.784-.013-29.56.58-44.336l.117-2.98c.306-6.535.306-6.535 1.437-8.797" id="svg-layer-7" style="pointer-events: all;"/><path fill="#E1D4BE" d="M260 72v1l-2.555.184-3.32.254c-1.09.08-2.181.162-3.305.246C248 74 248 74 246 75l2 3v4c-2.875.125-2.875.125-6 0l-2-2v2L99 83l1-3h-2l1 11h-2l2 3c.246 2.144.246 2.144.24 4.675l.009 2.91-.022 3.189v3.36c0 3.676-.016 7.351-.032 11.026l-.008 7.64q-.012 9.039-.043 18.077c-.022 6.851-.033 13.702-.043 20.554q-.031 20.276-.095 40.55Q99 207.992 99 210v11l-3 1v3l2 1-2 2-1.875-2C92 224 92 224 90 224l.563 3.625c.747 6.488.036 12.897-.563 19.375h-1l.007-2.738q.04-17.756.055-35.512l.004-2.914c.022-23.417-.032-46.83-.324-70.246l-.037-2.953q-.177-14.15-.396-28.297-.078-5.197-.152-10.393-.054-3.568-.118-7.135l-.06-4.255-.061-3.713C88 76 88 76 89 74c3.984-1.328 7.823-1.178 11.98-1.205l2.801-.03q4.633-.046 9.266-.081l6.542-.064q8.769-.082 17.538-.152 5.413-.045 10.826-.095c37.35-.335 74.696-.522 112.047-.373" id="svg-layer-8" style="pointer-events: all;"/><path fill="#544037" d="M320 95c5.507.49 5.507.49 7.684 2.742 1.535 2.634 1.66 4.11 1.566 7.133l-.078 2.64A61.4 61.4 0 0 1 328 116h2l.148-1.898.227-2.477c.07-.812.14-1.624.21-2.46C331 107 331 107 333 105c2 2 2 2 2 6l1.875.313C339 112 339 112 341 115c.313 3.063.313 3.063 0 6l-3 2 1.453 1.23c2.686 3.073 2.46 6.821 2.547 10.77-.437 3.563-.437 3.563-1 6l2.625-1.5c3.61-1.605 5.492-2.16 9.375-1.5 2.875 2.5 2.875 2.5 5 5v-2c5.75 1.75 5.75 1.75 8 4 .125 3.625.125 3.625 0 7l1.898.55 2.477.762 2.46.739C375 155 375 155 377 158v5h-10v4l3.688-1.5c3.216-1.195 5.85-2.111 9.312-1.5l2 3h3.75c2.18.172 2.18.172 4.25 1 1.508 2.328 1.508 2.328 2.875 5.25 2.674 5.71 5.207 7.283 10.91 9.633C406 184 406 184 408.125 187.187 409 190 409 190 409 192l1.863.043c2.466.145 4.736.368 7.137.957 1.938 2.313 1.938 2.313 3 5 1.225 2.521 1.993 3.993 4 6-4.903 1.988-9.484 2.374-14.707 2.656L408 207l-1 2c-6.327-1.74-12.265-4.293-15.875-9.926-2.36-3.413-4.468-4.886-8-7.012-4.385-2.787-7.793-5.39-10.941-9.519-1.989-2.592-3.81-4.337-6.684-5.918-2.908-1.89-3.82-3.631-5.5-6.625l-2.187-2.187L356 166v-2l-1.785-.762c-2.491-1.393-3.838-2.859-5.652-5.05-2.025-2.398-4.028-4.653-6.25-6.875-2.869-2.869-5.532-5.703-7.313-9.375-1-1.938-1-1.938-2.984-3.668-2.52-2.838-2.78-4.79-3.266-8.52-.15-1.078-.3-2.155-.453-3.266L328 124l-2.395.133L323 124c-1.996-2.514-2.945-4.831-3.937-7.875-.885-2.601-1.769-4.392-3.188-6.687-1.805-3.31-2.318-4.781-1.875-8.438h6z" id="svg-layer-9" style="pointer-events: all;"/><path fill="#AA7960" d="M431.693 81.815c5.428 0 10.855-.014 16.282-.031q6.345-.015 12.689-.013 3.005 0 6.01-.013c2.779-.01 5.556-.007 8.334 0 .406-.004.406-.004 2.459-.018l2.307.013 1.973-.002c3.155.349 6.201 1.377 9.253 2.249v16l-2-4-5 1-2-4h-2l-1 3h-2l-1 4v-3l-1.687.105c-5.86.208-9.943-.762-15.313-3.105v-2h-4l-1 4-3-1 1 3-4-2v-2h2v-2l-1.687.563c-2.712.513-4.657.101-7.313-.563l1 3h-2l-1-3-1.437 1.438C435 96 435 96 432 97v-2l-3.375.625L425 96l-2-2-2 3-1-2h-6v-3 4l-4 1-1.812-2.5L406 92h-3v-2l-2 1c-.625 2.062-.625 2.062-1 4v-3l-12 1-1 3h-2l-2-2c-1.5 1.375-1.5 1.375-3 3v2l-7-1-1 3-5-2-3 3 1.313 1.25c1.745 1.81 3.213 3.715 4.687 5.75h-2l1.5 1.875C371 113 371 113 371 115h2l2 9h2v2l2 1v2c1.023 1.727 1.023 1.727 2.375 3.625l1.336 1.914L384 136h2l.375 2.375C387 141 387 141 389 143c.625 2.625.625 2.625 1 5l6 1v3c2.626 1.845 4.951 2.984 8 4q1.026 1.988 2 4l3 2 2 3 2 1-1 3c-16.614-7.524-30.355-25.722-41-40l-1.832-2.336c-3.011-3.857-5.453-7.803-7.75-12.121-1.704-3.057-3.594-5.97-5.48-8.918-3.381-5.472-6.844-11.199-7.938-17.625.54-2.246.54-2.246 2-4 6.515-1.418 13.166-1.363 19.805-1.55l2.128-.064c19.916-.576 39.838-.573 59.76-.571" id="svg-layer-10" style="pointer-events: all;"/><path fill="#574238" d="M158 336c8.561 4.122 8.561 4.122 10 7 .04 2 .043 4 0 6h-2l1 4h6l1-3-3-1-1-7c3.375.313 3.375.313 7 1 2.29 3.435 2.178 4.985 2 9 5.028 1.934 9.673 2.516 15 3l3 9-4 1 1 2 3.625-.562c3.661-.456 6.772-.405 10.375.562 1.478 2.957 1.06 5.742 1 9l-6 2 5 3 1-4c3.2-.178 5.948-.02 9 1 2.698 2.645 4.636 5.472 6 9-.352 2.293-.352 2.293-1 4h-3l3 4 1.563-2.062C227 391 227 391 230.625 391.188 234 392 234 392 236 393v8c2.53 1.316 4.909 2.313 7.625 3.25C247 406 247 406 248.438 408.688c.658 3.88.698 7.38.562 11.312l-2 1v-2h-9v7l-4-6-3.437-.937C227 418 227 418 225.188 416.313 224 414 224 414 223.375 410.438 222 407 222 407 220.015 405.988c-2.326-.718-4.665-1.354-7.015-1.988-2.562-1.25-2.562-1.25-4-3-.522-5.955-.522-5.955 1-9h2v-2l-2.25.938c-6.044 2.335-6.044 2.335-8.785 1.277-5.67-3.573-5.67-3.573-7.34-7.215-2.222-4.103-5.031-4.896-9.176-6.777-3.29-1.642-5.135-3.386-7.449-6.223l-1-3c-2.21-1.004-2.21-1.004-5-2q-2.835-1.426-5.625-2.937l-2.852-1.528c-2.268-1.38-3.89-2.46-5.523-4.535l-.395-2.059C156 354 156 354 153.925 352.84l-2.613-.902c-3.94-1.431-7.605-2.987-11.312-4.938.875-6.75.875-6.75 2-9 10.558.779 10.558.779 15 3z" id="svg-layer-11" style="pointer-events: all;"/><path fill="#DFD2BE" d="M91 353h1v7h2l2-6c3.353 3.51 3.47 6.785 3.512 11.414l.054 2.335c.056 2.625.09 5.25.121 7.876l.102 5.63c.514 31.575.296 63.167.211 94.745h-4v2l1.875-.562C100 477 100 477 102 478c1.54.07 3.083.085 4.625.063l2.477-.028L111 478l1-2c2.653-.315 5.213-.514 7.875-.625l2.223-.117c22.528-1.15 45.341-.258 67.902-.258v1h-14l4 1v2l2.117-.437 2.758-.563 2.742-.562C190 477 190 477 192 477v2l2.957-.07 3.856-.055 3.832-.07C206 479 206 479 209 481c1.996.379 1.996.379 4.438.563l2.89.218c7.888.47 15.779.856 23.672 1.219v1q-21.884.198-43.767.391-10.167.09-20.334.182c-14.01.127-28.022.248-42.033.352q-8.991.065-17.982.154-4.461.041-8.922.064c-1.88.013-3.76.035-5.64.058l-5.973.034c-2.553-.255-4.106-1.042-6.349-2.235q-.07-24.983-.104-49.964a14315 14315 0 0 0-.047-23.198q-.03-10.107-.037-20.214-.003-5.354-.023-10.707c-.017-3.98-.017-7.96-.016-11.94l-.022-3.605.008-3.272-.005-2.855C89 355 89 355 91 353" id="svg-layer-12" style="pointer-events: all;"/><path fill="#A8775F" d="m103.094 82.88 2.793.006 6.586.016 3.493.005c3.699.005 7.398.018 11.097.03q3.75.008 7.501.014 9.218.017 18.436.049l-2 2c-3.625-.375-3.625-.375-7-1 2.674.891 5.237 1.477 8 2l-1 2-2.3-.14-3.012-.11-2.989-.14C140 88 140 88 138.145 90.015L137 92l-5-1v4c-1 2.25-1 2.25-2 4h-2v3l2-1c-.875 3.875-.875 3.875-2 5a100 100 0 0 0 0 5c-3.325 1.108-5.622.845-9 0l-1 4-6 1-1 3-3-1-1 4h2l-1 4-3-2 1 5 5 1v6h-2l-1-3-1 4 3 1-1 3-4-1c-1.326 5.967-1.088 11.926-1 18h2c1.046 3.137 1 5.724 1 9h2l-1-3 2-1v4h3v5l-3-1-1 3 1 1-1 2 2 1-1 3-6 1v3l4-1v2l3 1c-3.01.934-3.867 1.044-7 0v3l10 3-2 1v2h2v2l-5-2v-2h-2l-1 6 5 2 1-2c2 3.75 2 3.75 2 6 1.892-2.386 3.024-4.072 4-7 3 1 3 1 4.375 2.5 2.094 1.933 3.847 2.125 6.625 2.5l1 6c-7.153 6.094-16.044 12.224-25.715 12.069l-2.437-.03L100 222q-.035-26.963-.052-53.927-.007-12.519-.023-25.038-.015-10.907-.02-21.814 0-5.78-.01-11.558a4760 4760 0 0 1-.008-10.866q-.002-2.957-.011-5.915l.004-3.523-.003-3.08c.16-2.957.266-3.23 3.217-3.4" id="svg-layer-13" style="pointer-events: all;"/><path fill="#AA7960" d="M329 165c7.14 2.311 11.48 6.09 16.602 11.488 2.624 2.748 5.392 5.206 8.277 7.672 2.546 2.209 5.017 4.493 7.496 6.778 4.171 3.805 8.451 7.378 12.89 10.863 3.333 2.68 6.564 5.465 9.798 8.262 4.511 3.894 9.062 7.687 13.804 11.3 2.37 1.819 4.687 3.694 7.008 5.575 10.409 8.346 21.407 15.99 32.535 23.343a746 746 0 0 1 5.961 4C456.44 263.114 469.273 271.213 484 277c-.247 1.85-.247 1.85-1 4-1.762 1.293-1.762 1.293-4.043 2.402l-2.506 1.26-2.639 1.276c-5.89 2.884-10.92 5.674-15.812 10.062-3 2-3 2-5.062 1.938-1.938-.938-1.938-.938-3.25-3.25-.708-2.765-.663-4.055.312-6.688h1l2-4h2l1-3h5l-.5-2.375C460 276 460 276 460 274l-5-2v-2l-4-2v-4l-2-1v2l-1.812-.625C445 264 445 264 442 266c-.125-5.75-.125-5.75 1-8l-3 1-2-2c-3.125-.125-3.125-.125-6 0l-1-3h-2v3h-2l-4-7h2l-3-3-1 3-2-4 1-1c-2.202-2.202-3.09-2.295-6-3-3-2-3-2-4-5l-1 4-4-2-1 2-2-1a519 519 0 0 1-1-5c-1.1-4.907-1.1-4.907-3-7-3.116-1.109-6.122-1.75-9.383-2.297L386 225l-1-3h-5l1-4h-3v-2h-4l-1 3c-3-3.625-3-3.625-3-7h3v-2c-2.437.375-2.437.375-5 1l-1 2v-2l-2 1 1 3-3-1v-2h-4l1-5 3-1-1-4-3 4-1-3h-7v-3l-1.812-.25c-2.785-.955-3.621-2.321-5.188-4.75l-2 1-1-4h2l-1-3-3 1v-11l-3 4c-1.562-1.562-1.562-1.562-3-4 .313-3.75.313-3.75 1-7h-3l1-3-3-2z" id="svg-layer-14" style="pointer-events: all;"/><path fill="#E0D2BE" d="M485.008 68.94q3.664-.068 7.328-.106l3.728-.052c2.873.213 4.516.706 6.936 2.218.197 3.437.38 6.875.563 10.313l.17 2.958.146 2.842.143 2.619C504 92 504 92 503 95c-1.363 12.949-1.119 26-1.062 39q.008 3.07.013 6.14.017 7.43.049 14.86h-1c-1.125-7.75-1.125-7.75 0-10l-2-1 1-3c-.121-2.094-.121-2.094-.437-4.5-.407-3.573-.612-7.03-.563-10.625.068-6.018-.35-11.982-.781-17.98-.224-3.983-.254-7.908-.219-11.895l-2-1 .07-1.871.055-2.567.07-2.496c-.26-4.08-1.308-8.075-2.195-12.066h-25l3 3 1-2 2.137.465c2.897.541 5.74.85 8.676 1.097l2.957.254L489 79v1c-8.95 1.185-17.813 1.081-26.82 1.018-14.463-.095-28.911-.038-43.368.42l-3.89.119a506 506 0 0 0-18.25.94c-7.664.532-15.323.834-23 1.06q-3.396.105-6.791.224-2.192.068-4.385.133l-3.932.124c-3.347-.036-6.32-.213-9.564-1.038-1.375-2.562-1.375-2.562-2-5l3-1-3.937-.375c-2.215-.21-2.215-.21-4.063-.625l-1-2c-2.062-.625-2.062-.625-4-1v-1q27.918-.59 55.836-1.173 12.966-.271 25.93-.545 11.313-.24 22.625-.475 5.979-.124 11.958-.251c8.412-.18 16.823-.35 25.235-.496q3.212-.056 6.424-.12" id="svg-layer-15" style="pointer-events: all;"/><path fill="#4F3C33" d="M427 204c4.372 1.245 7.3 2.742 10.75 5.688 4.301 3.588 8.744 6.777 13.414 9.867L453 221v2h4l1 4h2l-1 3h-11v3l1.695-.254c8.783-1.115 19.2-1.821 27.305 2.254 1 1.938 1 1.938 1 4-1.645 2.468-2.803 2.95-5.687 3.688L470 243c1.5 2.063 1.5 2.063 4 4 3.865.156 7.358-.786 11-2 2.595.544 5.08 1.153 7.625 1.875l2.102.566c5.126 1.412 5.126 1.412 6.273 2.559.04 2 .043 4 0 6h-10v2l3 1v4l5 2v3c-6.666-.17-11.881-1.523-17-6v-2l-2.812-.062c-6.397-.866-12.706-5.456-17.188-9.938v-4l-3.875-.062c-6.089-.64-10.654-3.896-15.125-7.938v-2l-2.062-.687c-3.09-1.38-5.472-3.07-8.16-5.094C431 229 431 229 427.624 227.563 425 226 425 226 424.125 222.813L424 220c1.433-.39 2.872-.762 4.313-1.125l2.425-.633C433 218 433 218 436 220h3l1-4c-.892.095-1.784.19-2.703.29-.585.054-.585.054-3.547.335l-3.516.352c-3.173.023-4.617-.28-7.234-1.977v6c-5.635-.856-9.726-3.277-14-7-1.504-2.357-2.188-4.292-3-7 4.537-1.452 8.18-2.235 13-2l2 4c2.438-.812 2.438-.812 5-2z" id="svg-layer-16" style="pointer-events: all;"/><path fill="#574137" d="M383 395h1l-1 9h8v1h-10v4h2c-.61 6.475-.61 6.475-2.25 8.688-2.2 1.65-3.712 1.802-6.437 2l-2.45.199L370 420l.25 3.688c-.011 3.216-.255 4.32-1.875 7.25-2.92 2.535-4.518 3.062-8.375 3.062-2.875-1.437-2.875-1.437-5-3l-1 1 3 1c.274 5.384.375 8.545-3 13-1 1-1 1-4.312 1.25-3.786-.257-5.018-.687-7.688-3.25l.438 2.188L343 449l.75 2.438c.347 3.557-.964 5.54-2.75 8.562-1 1-1 1-4.562 1.063L333 461l.375 3.063c-.431 4.525-1.404 6.309-4.445 9.554-3.314 2.375-6.93 2.653-10.93 2.383-1.93-1.93-1.262-5.247-1.312-7.812l-.114-3.77C317 461 317 461 318.77 458.551 321 457 321 457 325 457l.125-2.5c1.029-4.116 2.787-6.358 5.398-9.625C332 443 332 443 333.5 440.438c2.385-3.877 5.36-8.368 9.5-10.438l1.313-2.812c2.111-3.99 4.551-6.456 8.875-7.938 2.707-1.867 2.67-4.235 3.34-7.344.472-1.906.472-1.906 1.597-3.844 3.115-1.765 6.332-1.772 9.875-2.062v-4h2v3c3.51-.263 6.722-.68 10-2 1.862-2.676 2.267-4.753 3-8" id="svg-layer-17" style="pointer-events: all;"/><path fill="#D0B9A9" d="M496 339h2v2l5-1 1 3c-1.375 1.5-1.375 1.5-3 3h-2l1 10 2-6c2.523 1.974 2.993 2.967 3.688 6.188L506 359h1l1-20h1q.037 6.78.055 13.562.008 2.308.02 4.615c.013 2.21.018 4.419.023 6.628l.015 2.09c0 4.877 0 4.877-1.113 7.105a139 139 0 0 0-.19 6.228l-.05 3.98-.02 2.14q-.033 3.342-.077 6.684-.088 7.14-.163 14.28-.101 9.308-.219 18.614l-.028 2.27c-.155 11.95-.534 23.874-1.253 35.804-1.746-3.216-2.204-5.32-2-9l-2 1c-.379 2.8-.379 2.8-.562 6.313-.395 7.198-.395 7.198-1.438 10.687h-2v2h-24v-1l3.578-.184 4.672-.253 2.355-.12 2.286-.127 2.094-.11C491 472 491 472 495 471v-69l-2-1c.637-4.713.637-4.713 2.52-6.2 2.304-2.802 1.914-5.838 1.855-9.3l.035-2.05c-.025-4.185-.544-5.6-3.41-8.45.254-2.012.612-4.01 1-6 .15-4.832.023-9.669-.04-14.502-.04-5.29.102-10.288 1.04-15.498" id="svg-layer-18" style="pointer-events: all;"/><path fill="#A8775F" d="M197 83h55c-2.818 16.905-20.16 40.101-34 50-2.625.25-2.625.25-5 0h-3l-2-1 1-3 3.438-.75L216 127c1.438-3.625 1.438-3.625 2-7h2v-2l-4-1 4-1 1-7-4-1 1-5-4-1 1-2-4 1c-3.429-8.429-3.429-8.429-3-13h-2v-3l-6-1-1 3v-3z" id="svg-layer-19" style="pointer-events: all;"/><path fill="#544036" d="m260 109 8 3v2l-4 1-2 10h8c-2.36 2.36-3.779 2.491-7 3l-.062 3.5c-.577 4.805-2.882 7.153-6.168 10.54-1.715 1.899-2.764 3.618-3.895 5.898C251 151 251 151 248.25 151.938L246 152l.125 3.563c-.378 3.116-.963 4.268-3.172 6.562-3.987 2.997-6.718 4.814-11.766 5.063-3.411-1.272-5.615-2.616-8.187-5.188v-2l-4-2c1.152-2.468 2.048-4.048 4-6 2.323-.4 4.657-.74 7-1v2h4v2l4-3-2-1v-2l-4-1c-.558-3.765.01-5.015 2.152-8.262a213 213 0 0 1 2.786-3.425C241.95 130.1 241.95 130.1 243 128l1.875-.375c2.902-.854 3.515-2.088 5.125-4.625.95-2.797.95-2.797 1.688-5.75l.761-2.984L253 112l7-1z" id="svg-layer-20" style="pointer-events: all;"/><path fill="#A97860" d="M404 414v3l-2 2 1 2h-2l1 3-2 1-1-2-.875 2.438C397 428 397 428 395 429a192 192 0 0 0-2 7c-1.684 4.842-1.684 4.842-4 6l.07 2.555.055 3.32.07 3.305C389 454 389 454 387 456l2 2h-4l1 6h3l-1 2-2-1 1 5h-2l-1 3 5 1-1-3 3-1-1 5c-8.318 1.59-16.628 2.53-25.056 3.302-4.04.376-7.983.779-11.944 1.698 2.71-22.983 35.215-50.523 51-66" id="svg-layer-21" style="pointer-events: all;"/><path fill="#544036" d="M203.375 175.188 205 176v4l1.938-.5c4.457-.728 9.922-1.57 14.062.5.306 3.371.413 5.354-1.437 8.25-6.529 4.458-14.922 4.248-22.563 3.75q-2.505-.472-5-1h-2l1 2h13v6c-3 2-3 2-6 2-.235.583-.47 1.165-.71 1.766-1.582 2.74-3.384 4.104-5.915 5.984l-2.477 1.86L187 212c-4.875-2.75-4.875-2.75-6-5h-13l1-5h2l.625-2.809c1.765-4.096 3.32-4.582 7.375-6.254 5.708-2.366 5.708-2.366 7.375-5.62L187 185l7-1 .125-1.687c1.498-3.96 4.838-7.474 9.25-7.125" id="svg-layer-22" style="pointer-events: all;"/><path fill="#574137" d="m435 334 1 3 1.637-.492c6.748-1.45 14.634-1.003 21.363.492l1 2-8 1-.586 2.152-.789 2.786-.773 2.777C449 350 449 350 447 351a113 113 0 0 1-5.664.098l-3.399-.01-3.562-.026-3.586-.013q-4.395-.018-8.789-.049l-1 2h15c0 7 0 7-1.5 9.875-4.099 3.484-8.214 3.125-13.5 3.125l-1 2h-11l-1 2-1-2c-1.848-.633-1.848-.633-4.062-1.125l-2.223-.508L399 366c2-2 2-2 4.938-3.125 3.375-2.066 3.419-2.284 4.375-5.812 1.151-3.77 1.151-3.77 3.62-5.122l2.317-.816c4.38-1.547 5.857-3.36 8.25-7.312 2.86-4.584 2.86-4.584 5.934-5.684 2.239-.227 4.324-.302 6.566-.129z" id="svg-layer-23" style="pointer-events: all;"/><path fill="#DFD2BF" d="m495 474-3 1c-.625 1.938-.625 1.938-1 4l-1 2c-7.75.125-7.75.125-10-1l-1 2-3-1v2H359v-1l23-1v-5q5.406-.251 10.813-.5l3.103-.145 2.979-.136 2.745-.127c5.165-.201 5.165-.201 7.145.904 2.986 1.353 5.39 1.16 8.652 1.067 4.068-.109 7.591.09 11.563.937 2.313-.437 2.313-.437 4-1v-2h7l-2 1 2 3 7-2v-3c16.084-.897 31.92-1.01 48 0" id="svg-layer-24" style="pointer-events: all;"/><path fill="#604A3F" d="M122 310c13.469 6.251 13.469 6.251 17 11 .813 2.813.813 2.813 1 5l2.875-.187c4.968-.031 9.463 1.611 14.125 3.187v7l-1.937.875C153 338 153 338 152 340l-10-2-2 8-1-4-1.96-.227c-4.246-1.08-7.824-3.077-11.665-5.148-.763-.4-1.526-.8-2.312-1.21-6.615-3.529-6.615-3.529-9.063-6.415v-2l-4-1 2.5-2.062c2.5-2.938 2.5-2.938 2.813-6.75L115 314l2.938-1.437C121 311 121 311 122 310" id="svg-layer-25" style="pointer-events: all;"/><path fill="#D0C2BB" d="M508 371h1c.899 26.71 1.09 53.403 1.063 80.125l-.003 2.464q-.018 15.206-.06 30.411c-3.389 1.694-7.228.995-10.945.879l-2.682-.072q-4.249-.116-8.498-.245l-5.754-.158q-7.06-.195-14.121-.404l2-2c3.125.375 3.125.375 6 1v-2c7.622-1.034 7.622-1.034 10.813-.75L489 480l1.438-2.437C492 475 492 475 495.188 474.188L498 474v-2h2l1-17 3-1 1 6c.867-11.585 1.136-23.169 1.281-34.781l.03-2.28q.116-9.432.215-18.865.076-7.092.166-14.185.038-3.301.068-6.604l.05-4.01.039-3.536C507 373 507 373 508 371" id="svg-layer-26" style="pointer-events: all;"/><path fill="#523E34" d="m272 436 .297 1.898.453 2.477.422 2.46c1.065 2.785 2.214 2.938 4.828 4.165.912 3.86 1.261 6.216 0 10l1.68.48c5.901 1.901 5.901 1.901 7.757 4.645L288 465l.395 1.973c.95 5.926.271 11.275-1.395 17.027-1 1-1 1-4.062 1.063L280 485v-6l4-1-3.312-1.375c-2.51-1.041-4.385-2.09-6.688-3.625-1.35-6.3-1.35-6.3 0-9l-2.062-.687c-7.342-3.28-7.342-3.28-9.938-6.313-.772-3.114-.803-5.892 0-9 1.352-1.773 1.352-1.773 3-3h3l-2-1.687c-2-2.313-2-2.313-2.25-5.063L264 436c3.094-.994 4.903-.878 8 0" id="svg-layer-27" style="pointer-events: all;"/><path fill="#876350" d="M510 246h2q.07 36.717.104 73.433.014 17.048.047 34.094.03 14.853.037 29.707.003 7.869.023 15.738.02 7.399.015 14.798 0 2.722.012 5.445c.01 2.47.008 4.938.003 7.407l.017 2.2c-.03 4.95-.03 4.95-2.258 7.178-.856-17.143-1.28-34.277-1.562-51.437l-.131-7.49q-.159-9.037-.307-18.073h-1v-87h2z" id="svg-layer-28" style="pointer-events: all;"/><path fill="#60483D" d="M115 243c1.97 0 3.94-.001 5.91-.02 5.208.05 9.172.416 13.09 4.02l-1.875.125L130 248a127 127 0 0 0-2 6c-2.872 1.914-3.895 2.264-7.125 2.75-4.736.953-7.847 3.059-11.723 5.852-2.978 1.935-5.698 2.663-9.152 3.398-1.729-17.071-1.729-17.071.238-19.578 2.011-1.623 3.75-2.362 6.2-3.172l2.308-.797c2.508-.504 3.832-.17 6.254.547" id="svg-layer-29" style="pointer-events: all;"/><path fill="#9A7966" d="M507 168h1c1.215 7.838 1.305 15.71 1.5 23.625.722 28.818.722 28.818 2.5 32.375v3l.035 3.941.028 4.621.025 2.366c.025 5.846.025 5.846-1.088 8.072a205 205 0 0 0-.205 7.938l-.03 2.484q-.047 4.074-.081 8.148l-.063 5.642q-.082 7.433-.153 14.865-.077 7.58-.161 15.161-.162 14.88-.307 29.762h-1v-58h-3q-.034-20.118-.052-40.237-.007-9.34-.023-18.681-.016-9.006-.02-18.012-.003-3.445-.01-6.89a4014 4014 0 0 1-.009-9.611l-.01-2.908.004-2.63-.003-2.3C506 169 506 169 507 168" id="svg-layer-30" style="pointer-events: all;"/><path fill="#62493D" d="M409 375v3h5l-1.93.688C410 380 410 380 409.242 382.313l-.367 2.687c-.685 4.81-.685 4.81-2.875 7-4.106-.331-8.038-.844-12-2v2h2l1 5-1.875-2c-6.588-4.216-15.66-1.89-23.125-1 1-2 1-2 3.066-2.852l2.497-.773c.826-.26 1.652-.52 2.503-.79L382 389l.313-2.687c.744-3.59 1.387-5.463 3.687-8.313 2.712-.875 4.971-1.414 7.75-1.812l2.094-.366c4.43-.728 8.67-.934 13.156-.822" id="svg-layer-31" style="pointer-events: all;"/><path fill="#574238" d="m252 418 6 1 1 3 1.563 1.313c2.115 2.483 1.639 4.526 1.437 7.687v2l1 1c1.848-.121 1.848-.121 4.063-.437L271 433l-1 3h-6v5l4 2v2l-5 1-1 6-2-3-2.812-1.375c-3.55-1.81-5.675-3.538-8.188-6.625l-.5-3.187L248 435c-2.562-1.375-2.562-1.375-5-2l1.953-.71C247 431 247 431 247.61 428.835l.141-2.461.172-2.477L248 422l2 1z" id="svg-layer-32" style="pointer-events: all;"/><path fill="#634B3F" d="M218 158c3.724.931 5.58 1.444 7.938 4.563C228 165 228 165 231.75 165.813L235 166c0 4.508-2.069 7.64-5 11-2.42 1.235-4.275 1.573-7 2v-2h-2l1 6-1-3-2.082-.113-2.73-.2-2.708-.175c-2.836-.585-3.635-1.359-5.48-3.512-2.187-1.187-2.187-1.187-4-2 1.518-3.829 3.793-5.733 7-8.25l2.688-2.14C216 162 216 162 218 162z" id="svg-layer-33" style="pointer-events: all;"/><path fill="#4A3830" d="M140 232v2h9l1 5-2.152 1.277-2.786 1.66-2.777 1.653C140 245 140 245 139 246c-6.525.237-6.525.237-9-1-4.756-.874-9.27-1.07-14.082-.937C114 244 114 244 112 243l2-4 .785-2.035c2.012-3.254 4.938-3.43 8.48-4.367 5.67-1.24 11.051-2.248 16.735-.598" id="svg-layer-34" style="pointer-events: all;"/><path fill="#493830" d="M479 314c2.333.038 4.667.046 7 0v7l-1.863.55c-.809.252-1.617.504-2.45.762l-2.425.739c-2.262.949-2.262.949-3.7 2.605C474 327 474 327 471.302 326.856l-2.988-.668-3.012-.645L463 325l1-6-4 1-1 4-8 1c0-6.951 0-6.951 2.355-9.422 7.553-4.444 17.399-3.305 25.645-1.578" id="svg-layer-35" style="pointer-events: all;"/><path fill="#A8775F" d="M490 340v5l-4 2v4l-1.437 1.313C483 354 483 354 482.5 357.5s-.5 3.5-2.062 5.438c-.475.35-.95.7-1.438 1.062l-4-2 .563-2.937L476 356l-1-1-1 4h-2l1 3-5 2v-2l-1.68.473-2.195.59-2.18.597C460 364 460 364 458 363c.692-4.998 3.951-6.713 7.766-9.629A918 918 0 0 1 469 351l1.959-1.44a563 563 0 0 1 6.353-4.56l2.065-1.494c6.06-4.212 6.06-4.212 10.623-3.506" id="svg-layer-36" style="pointer-events: all;"/><path fill="#48362F" d="m160 219 11 1c-.95 3.8-1.624 5.947-4 9-3.145 1.363-3.145 1.363-6.812 2.313l-3.645.988c-3.33.657-6.164.99-9.543.699l-2-2c-2.602-.633-2.602-.633-5.625-1.125l-3.04-.508L134 229a367 367 0 0 1 2.813-3.437c.26-.32.26-.32 1.582-1.934 2.272-2.306 4.167-2.608 7.347-2.762l3.133.008 3.117-.008c2.783.123 5.3.504 8.008 1.133z" id="svg-layer-37" style="pointer-events: all;"/><path fill="#A8775F" d="M432 457c3.136 3.398 3 5.512 3 10l3 2v5h-24v-2h-10l2-1 1-3v3l2-1-2-4 5 2v2h2l-.625-3.875c-.352-2.18-.352-2.18-.375-4.125l2-2h4c2 2 2 2 2 5 1.938-.375 1.938-.375 4-1l1-2h2l.875-1.937C430 458 430 458 432 457" id="svg-layer-38" style="pointer-events: all;"/><path fill="#5B4439" d="M290 72h20c3.088 6.737 4.614 10.737 3 18h3v8c-3.426 1.142-4.673 1.374-8 0a47.6 47.6 0 0 1-3.25-7.625l-.773-2.121C302.42 83.842 301.512 79.648 301 75l-7 2v5l-.312-1.937L293 78l-3-1z" id="svg-layer-39" style="pointer-events: all;"/><path fill="#47362E" d="M182 207v2l4 1c-.245 3.306-1.277 4.29-3.625 6.75-3.362 2.668-6.119 2.676-10.375 2.25l-1-3h-16c0-5 0-5 1.934-7.262 4.096-2.322 7.49-2.442 12.129-2.55l2.431-.116c3.74-.146 6.885-.11 10.506.928" id="svg-layer-40" style="pointer-events: all;"/><path fill="#46362E" d="M465 328c.125 5.75.125 5.75-1 8h-2v2c-6.625.125-6.625.125-10-1-2.739-.07-5.45-.094-8.187-.062l-2.272.013q-2.77.02-5.541.049c-.25-5.625-.25-5.625 2-9 2.313-.477 2.313-.477 5-.625 16.241-.991 16.241-.991 22 .625" id="svg-layer-41" style="pointer-events: all;"/><path fill="#46352E" d="M384.602 391.84c6.75-.23 6.75-.23 9.668 1.523C396 395 396 395 396.438 397.438c-.524 3.063-1.282 4.336-3.438 6.562-2.48.39-2.48.39-5.187.25l-2.731-.11L383 404v-7l-3 7-10 1c-.484-8.354-.484-8.354 1.5-11 4.303-1.721 8.541-1.88 13.102-2.16" id="svg-layer-42" style="pointer-events: all;"/><path fill="#4B3930" d="M397 366c6.41-.251 6.41-.251 9.344 1 3.15 1.186 5.614 1.199 8.969 1.125l3.238-.055L421 368c1.125 5.625 1.125 5.625 0 9-2.525 1.262-4.312 1.099-7.125 1.063l-2.758-.028L409 378v-3l-14 1c.875-7.75.875-7.75 2-10" id="svg-layer-43" style="pointer-events: all;"/><path fill="#4A3830" d="M489 297c1 3 1 3 0 6l6-1v5h-2v3c-7.207 2.402-15.59.972-23 0v-4c2.313-1.562 2.313-1.562 5-3l1.418-1.484c1.789-1.714 3.26-2.373 5.582-3.204l2.063-.761C486 297 486 297 489 297" id="svg-layer-44" style="pointer-events: all;"/><path fill="#AA7961" d="M159 383c7.766 2.912 14.025 6.45 20.188 12q1.77 1.563 3.542 3.125l1.674 1.484c2.143 1.868 4.358 3.638 6.596 5.391l-2 5-3-1-1-2-3-1-1-2a101 101 0 0 0-6-2l-1 2h-2c-1.074-2.005-1.95-3.77-2.437-6-.707-2.511-1.834-4.064-3.563-6h-2v-5l-5-2z" id="svg-layer-45" style="pointer-events: all;"/><path fill="#7A5E4E" d="M341 118h1l2 9h9c1.148 2.296 1.308 4.077 1.563 6.625l.253 2.477L355 138l7 3-1 2-3-2v2c-2-1-2-1-3.25-2.562C353 139 353 139 350 138.688c-3 .312-3 .312-6 2.312h-3l.07-1.977c.106-5.11-.05-9.227-2.07-14.023l-5-1 6-3z" id="svg-layer-46" style="pointer-events: all;"/><path fill="#A97860" d="M481.063 459.938 484 460v3l4 1v2h5v3l2 1v2c-4.355 1.195-8.634 1.421-13.125 1.688l-2.496.181c-2.123.127-4.252.137-6.379.131-2.139-2.139-2.427-3.133-3-6l6-2 .438-2.437c.778-3.547.778-3.547 4.625-3.625" id="svg-layer-47" style="pointer-events: all;"/><path fill="#554036" d="M110 300v2l2.313.313c2.885.738 3.949 1.308 5.687 3.687v3l-9 3v2l-10-1 1-11c3.62-1.316 6.096-2 10-2" id="svg-layer-48" style="pointer-events: all;"/><path fill="#775B4D" d="M322 81c2.627 4.91 4.64 9.563 6 15l.625 2.438L329 100l-1.187-1.437c-2.221-1.915-3.947-2.176-6.813-2.563l-1 5-7 2-1-3-3-2h7v-8l-3-1h3v-7c2-1 2-1 6-1" id="svg-layer-49" style="pointer-events: all;"/><path fill="#D0B9A9" d="M492 99h1q.468 10.62.91 21.24.151 3.608.31 7.216c.154 3.47.298 6.94.44 10.411.05 1.064.098 2.128.148 3.224.224 5.689.12 11.154-.571 16.808-.334 2.96-.294 5.875-.237 8.851.047 6.576-.144 13.118-.437 19.688l-.12 2.797A173 173 0 0 1 492 205l-1-3-3-1c.375-2.437.375-2.437 1-5l2-1c1.01-20.088 1.126-40.128 1.069-60.235q-.014-6.075-.02-12.152Q492.033 110.807 492 99" id="svg-layer-50" style="pointer-events: all;"/><path fill="#A97860" d="M437 380c0 3.758-.921 4.327-3.437 7-2.306 2.46-3.483 3.76-4.563 7l-2 1c-.625 2.563-.625 2.563-1 5l-4-1v2l2 1v2h-3c-1.687 2-1.687 2-3 4l-1-2c-3.254 2.834-4.52 4.686-5 9l-8-1a194 194 0 0 1 12.492-13.59l1.79-1.786q2.794-2.783 5.593-5.562l3.82-3.806q4.65-4.632 9.305-9.256" id="svg-layer-51" style="pointer-events: all;"/><path fill="#CFBAAD" d="M98 80h2c.991 3.295 1.11 6.25 1.082 9.682l-.021 3.51-.04 3.838q-.016 2.025-.028 4.051-.042 5.494-.094 10.989c-.034 3.829-.062 7.658-.092 11.487q-.085 10.875-.18 21.748-.107 12.381-.203 24.762A71037 71037 0 0 1 100 221l-2-1V90l-.562-3.562C97 83 97 83 98 80" id="svg-layer-52" style="pointer-events: all;"/><path fill="#CFBAAC" d="M395 476h-13l1 6-2.124.06c-3.188.096-6.376.205-9.563.315-1.103.03-2.206.062-3.342.094l-3.233.117-2.967.095c-2.904.334-5.094 1.185-7.771 2.319-2.812.125-2.812.125-5 0l4-3-1-5 1 3 1.906-.937c4.167-1.432 8.22-1.704 12.594-2.063 7.08-.626 13.987-1.469 20.969-2.828C391 474 391 474 395 476" id="svg-layer-53" style="pointer-events: all;"/><path fill="#493830" d="m100 312 3 .438c2.787.403 5.577.744 8.375 1.062C115 314 115 314 116 315c.427 3.754.245 5.583-1.687 8.875C112 326 112 326 109.25 326.313L107 326v-2l-6-2z" id="svg-layer-54" style="pointer-events: all;"/><path fill="#CFC0B9" d="M395 474h52l1 4h-7l-1 2-3-4-1.687.938C431.476 478.7 428.215 479 424 479v-2l-3.36.254-4.39.308-2.21.17c-3.59.245-6.59.265-10.04-.732v-2h-9z" id="svg-layer-55" style="pointer-events: all;"/><path fill="#D2C6BF" d="M495 76c1.801 7.66 2.793 13.832-1 21l-2 2c-1.067-4.556-1.001-8.729-.84-13.379-.167-2.734-.764-4.294-2.16-6.621l-3.105.035-4.082.028-2.042.025c-3.725.018-7.15-.195-10.771-1.088v-2c3.77-.197 7.541-.38 11.313-.562l3.248-.17 3.115-.147 2.872-.143C492 75 492 75 495 76" id="svg-layer-56" style="pointer-events: all;"/><path fill="#CEC2BD" d="M88 94h1q.2 12.25.391 24.497.09 5.694.182 11.388c.506 30.905.583 61.772-.073 92.678l-.145 7.208Q89.183 238.386 89 247h-1zM240 80c3 1 3 1 7 3H102v-1h138z" id="svg-layer-57" style="pointer-events: all;"/><path fill="#E4D6BF" d="M90 257h3l-.035 3.797-.028 4.953-.025 2.5-.01 2.422-.016 2.222C93 275 93 275 93.506 277.02c.691 2.77.5 5.482.463 8.319.057 4.904.569 9.78 1.031 14.66h-3v2h-2z" id="svg-layer-58" style="pointer-events: all;"/><path fill="#CFB9AA" d="M458 264c4.173.522 7.325 2.096 10.996 4.012 2.588 1.276 5.244 2.16 8.004 2.988l2-4 4 1v2c1.5-1.375 1.5-1.375 3-3v-2l7 2c-1.187 2.438-1.187 2.438-3 5-2.687.813-2.687.813-5 1l1 7h-2v-3l-1.8-.445c-8.921-2.414-17.267-6.339-24.2-12.555" id="svg-layer-59" style="pointer-events: all;"/><path fill="#A8775F" d="M153 83h31l1 2h-8l.188 2.875L177 91l-3 2c-3.181-.979-6.03-2.515-9-4l-3-1-1-2c-1.848-.414-1.848-.414-4.062-.625L153 85z" id="svg-layer-60" style="pointer-events: all;"/><path fill="#8B6753" d="M504 74h1l.168 2.63q.31 4.826.632 9.65l.27 4.179q.193 3 .395 6.002l.238 3.65C507 103 507 103 508 105l-.5 1.813c-.5 2.187-.5 2.187-.035 4.273.721 3.928.64 7.743.598 11.727l-.014 2.388q-.02 2.9-.049 5.799h-1l-1 32h-1z" id="svg-layer-61" style="pointer-events: all;"/><path fill="#D0C2BB" d="M363 483h105v1c-25.187.64-50.367 1.104-75.562 1.125l-3.276.008q-4.614.007-9.228 0l-2.744.006c-4.836-.018-9.42-.325-14.19-1.139z" id="svg-layer-62" style="pointer-events: all;"/><path fill="#967462" d="m154 213 1 3h16l1 2c2.563.625 2.563.625 5 1v1c-5.5 1.303-10.47.71-16 0l-1 2h-18v-2l2.371-.77 3.066-1.042 3.06-1.02L153 216z" id="svg-layer-63" style="pointer-events: all;"/><path fill="#47362E" d="M247 419c1.85 5.14 2.215 7.955 0 13-5.377.478-5.377.478-7.875-1.437-1.674-3.814-1.362-7.459-1.125-11.563 3.069-1.534 5.7-.55 9 0" id="svg-layer-64" style="pointer-events: all;"/><path fill="#CFB9AB" d="M461.273 79.768q3.54-.019 7.08-.051c3.347-.03 6.694-.04 10.042-.045l3.067-.037 2.834.009 2.47-.011c2.75.452 4.153 1.564 6.234 3.367-3.571 1.19-5.314.64-9 0a234 234 0 0 0-8.025-.205l-2.367-.03q-3.848-.046-7.694-.081l-5.355-.063q-7.027-.082-14.056-.153-7.179-.077-14.358-.161Q418.073 82.145 404 82v-1c19.085-.795 38.172-1.15 57.273-1.232" id="svg-layer-65" style="pointer-events: all;"/><path fill="#D0B9A9" d="m449 365 3 1-1.585 1.369c-8.9 7.838-17.182 16.288-25.54 24.693l-4.633 4.647Q414.617 402.351 409 408c0-3.608.56-3.961 2.973-6.484l1.955-2.063 2.135-2.203 2.177-2.277C438.258 374.128 438.258 374.128 448 366z" id="svg-layer-66" style="pointer-events: all;"/><path fill="#CFBFB7" d="M100 474h47v1q-3.906.251-7.812.5l-2.237.145c-4.276.27-8.48.363-12.763.293-2.662-.01-4.909.182-7.563.625C114 477 114 477 112 476l-1 3c-10.558.185-10.558.185-15-1v-2h4z" id="svg-layer-67" style="pointer-events: all;"/><path fill="#947260" d="M460 319h4l-1 6 2.75-.187c3.54.204 4.7.833 7.25 3.187l-7 1-1 3v-4q-3.687-.29-7.375-.562l-2.117-.17c-5.281-.381-5.281-.381-7.508.732-2.672.134-5.323.043-8 0v-1l3.375-.25c3.625-.75 3.625-.75 5.063-2.812.185-.64.37-1.28.562-1.938h2v3l8-2z" id="svg-layer-68" style="pointer-events: all;"/><path fill="#A08373" d="M478 236a91 91 0 0 1 4 4v2l2.875.813C488 244 488 244 490 247l-3.125-.625c-4.056-.392-6.111.287-9.875 1.625-2.312-.25-2.312-.25-4-1l-1-2c-1.848-.414-1.848-.414-4.062-.625L464 244v-1l2.3-.262c8.22-1.162 8.22-1.162 10.887-4.363z" id="svg-layer-69" style="pointer-events: all;"/><path fill="#8F6E5D" d="m469 307 1 3h22v3c-5.557 2.403-11.043 2.436-17 2l-1-1a123 123 0 0 0-5.562-.562l-3.067-.254L463 313z" id="svg-layer-70" style="pointer-events: all;"/><path fill="#876350" d="M510 436h2q.074 9.317.11 18.634.015 3.17.04 6.34c.025 3.037.036 6.072.045 9.108l.032 2.87v2.668l.014 2.349C512 480 512 480 510 483z" id="svg-layer-71" style="pointer-events: all;"/><path fill="#A97860" d="m449 367 3 1-2 1v2l-2.75 1.75c-3.648 2.526-5.031 4.496-7.25 8.25l-3-2z" id="svg-layer-72" style="pointer-events: all;"/><path fill="#8F6E5D" d="M491 300c2.602-.293 2.602-.293 5.625-.187l3.04.082L502 300v6l-2.312.25c-3.212.896-3.982 1.966-5.688 4.75l-2-1 1-3h2v-5l-6 1z" id="svg-layer-73" style="pointer-events: all;"/></svg>