<svg xmlns="http://www.w3.org/2000/svg" viewBox="0 0 560 536"><path fill="#F1E4CE" d="M210.578 36.964c31.938-.445 31.938-.445 47.422 2.036 7.075 1.087 14.035 1.183 21.188 1.188l3.521.037 3.396.005 3.068.013C292 40 292 40 294.312 39.024c3.84-1.463 7.51-1.494 11.59-1.641l2.751-.114c11.956-.439 23.92-.42 35.882-.4 3.997.007 7.994 0 11.99-.006 12.905-.003 25.793.131 38.69.582 1.113.04 2.227.078 3.374.118 5.247.204 10.465.504 15.695.963 4.674.41 9.263.603 13.954.607l2.183.004c2.297.002 4.594-.005 6.892-.012l2.394-.003a699 699 0 0 0 34.457-.892c4.508-.225 9.01-.373 13.524-.417l3.449-.043c2.88.231 4.532.535 6.863 2.23.875 3.5.875 3.5 1 7l-2 2a111 111 0 0 0-1.062 7c-.845 6.815-.845 6.815-1.938 9-.425 2.73-.796 5.445-1.125 8.188l-.3 2.251c-.451 3.723-.559 6.671-.005 10.424C493 89 493 89 491 92l1 2-4-1q-.722-5.906-1.437-11.812l-.409-3.334A578 578 0 0 1 484 57h-2v-2l-17-1v-1c-8.76-1.004-17.439-1.151-26.25-1.125l-4.008-.012-3.883.004-3.485.004c-3.517.134-6.901.573-10.374 1.129v1h-14l-2 13h-2v3h-7v-3h-2c-1.845 13.933-2.314 27.682-2.26 41.729.01 3.426 0 6.852-.013 10.279q0 3.312.007 6.625l-.012 3.059c.04 6.067.753 11.431 2.278 17.308 1.725.494 3.455.97 5.188 1.438l2.917.808c12.56 2.431 25.513 1.909 38.25 1.884q4.962-.005 9.924.007c12.276.003 24.475-.276 36.721-1.137l.843-3.632.503-2.164q.515-2.231 1.017-4.465c.905-3.753 1.57-6.316 4.637-8.739l2-3c1.901 7.13 2.224 13.637 2 21h2l1 2 1-5h3v8c1.129-3.387 1.113-5.93 1.098-9.5l-.005-1.987q-.006-2.136-.018-4.272-.019-3.396-.024-6.79c-.013-5.628-.037-11.257-.061-16.885q-.03-7.119-.046-14.239-.01-3.318-.032-6.638C501.838 72.487 501.838 72.487 505 63h4q.303 16.562.563 33.125l.038 2.457c.38 24.496.515 48.936-.601 73.418h-2l1 5-6-1v5h4l-1 3 1 1c3.014 5.796 3.512 10.713 3.655 17.188l.098 3.036c.1 3.259.176 6.517.247 9.776l.078 3.242c.196 8.25.328 16.5.45 24.75l.061 4.037c.522 34.146.73 68.295.928 102.444q.053 8.97.11 17.943c.24 37.194.462 74.388.373 111.584-4.478 2.239-10.647 1.185-15.562 1.188l-3.792.037c-6.88.01-13.004-.4-19.646-2.225v-4q-13.222.055-26.443.184c-4.093.04-8.185.072-12.278.087-3.949.015-7.897.05-11.846.097q-2.261.023-4.522.024c-2.11.002-4.219.03-6.328.062l-3.64.027c-3.634.64-3.898 1.621-5.943 4.519-2.423.605-2.423.605-5.308.742l-3.256.167a623 623 0 0 1-17.502.224l-3.983.003q-4.15.002-8.302-.006-5.23-.006-10.46.004c-24.42.034-24.42.034-36.529-.517l-2.33-.092c-5.087-.282-5.087-.282-7.33-2.525l1.375-2.187c2.778-4.809 3.972-9.127 4.75-14.625l.508-3.52L314 454h4l-1 9c3-1 3-1 4.25-3.125.933-3.575.455-6.28-.25-9.875h2c5.714-20.454 3.216-45.483 3.25-66.437l.015-3.855c.05-15.253-.41-30.308-1.836-45.497-.405-4.428-.512-8.767-.429-13.211h-2v-2h-2v3l-7 1c-2.146-6.296-2.553-12.368-3-19h-12c-.797-3.19-1.263-6.002-1.562-9.25l-.254-2.703L296 290c-7.402-.129-14.64.203-22 1l-1 3-7-3-.078 1.793c-.39 5.432-1.219 8.055-4.922 12.207-1.25 3.313-1.25 3.313-2 6-3.335-1.112-4.637-2.474-7-5-5.277 5.277-5.598 13.195-6.125 20.25l-.223 2.621q-.225 2.673-.433 5.347-.225 2.85-.476 5.697C243.746 351.26 243.36 362.62 243 374l-.075 2.202c-.279 9.115.235 18.206.768 27.303.116 1.989.224 3.979.332 5.968.502 7.877 1.57 15.368 3.245 23.062 1.15 5.455 1.924 10.95 2.73 16.465v-14c2 1 2 1 4 4l2-1c2.78 7.84 5.432 15.583 5 24h2l1 4 1.863.184 2.45.253 2.425.247C273 467 273 467 276 468v2l1.938.875C280 472 280 472 281 474l-8 1v2c-7.5 2.812-14.901 3.15-22.808 3.145l-2.552.01q-4.146.013-8.292.013l-5.83.01q-6.106.009-12.213.007c-5.17 0-10.34.014-15.51.031q-6.025.015-12.05.013-2.854 0-5.71.013c-9.287.035-18.475-.098-27.713-1.131l-2.164-.235c-4.905-.623-4.905-.623-7.158-2.876l1-1c-2.812-1.406-5.14-1.12-8.286-1.114h-1.951c-2.132 0-4.264.009-6.396.016l-4.43.005q-5.835.006-11.67.024-5.952.014-11.904.02-11.68.016-23.363.049l-1 4c-7.285 2.269-14.653 2.63-22.22 3.06q-3.355.196-6.708.415c-7.99.485-7.99.485-11.072.525-1.661-1.661-1.132-3.634-1.139-5.92l-.016-3.248-.003-3.615-.015-3.806a5097 5097 0 0 1-.028-10.513q-.013-5.662-.034-11.326-.036-11.123-.062-22.244-.032-13.005-.074-26.009-.071-23.28-.132-46.56-.058-22.455-.125-44.912l-.008-2.775-.033-11.052q-.076-25.425-.147-50.852l-.008-2.572a78090 78090 0 0 1-.149-58.72q-.023-11.167-.063-22.335-.02-6.119-.031-12.238-.007-2.67-.019-5.338c-.043-9.304.128-18.548.727-27.835.459-7.12.451-14.209.386-21.345l-.018-4.071q-.037-8.494-.105-16.987a2349 2349 0 0 1-.055-10.508c-.009-1.963-.03-3.925-.05-5.888l-.01-3.585-.023-3.153C42 42 42 42 44 39a66 66 0 0 1 7.813-.687l2.1-.104c11.36-.501 22.63-.139 33.967.647 19.182 1.306 37.864 1.35 57.054.069 21.854-1.442 43.75-1.652 65.644-1.961M261 51l-1 4-9 1v6l-2 1c-2.58 4.516-4.199 8.95-4.598 14.14l-.24 3-.225 3.11-.236 2.969c-.253 3.259-.476 6.52-.701 9.781l-.272 3.397c-1.023 14.277-.95 28.589-.968 42.895a1528 1528 0 0 1-.041 9.156c-.258 35.401-.258 35.401 4.281 52.552h2l1 14h3v-6l1.313 1.5C255 215 255 215 258 215v8l3 1 .148 2.668.227 3.52c.07 1.148.14 2.297.21 3.48.39 3.132 1.096 5.485 2.415 8.332h6l.875 1.938C272 246 272 246 274 247c2.247.124 4.5.176 6.75.188l3.672.042c3.595-.231 6.286-.781 9.578-2.23 2.491-3.737 2.207-5.745 2.125-10.187l-.055-3.856L296 228l3.25.688c3.75.312 3.75.312 5.852-.758 2.573-2.616 3.1-4.956 4.023-8.493l.992-3.785c3.217-13.308 3.217-13.308 2.883-19.652l5 1v12c3-2 3-2 3.879-4.605 6.52-34.168 4.641-69.836 2.656-104.356l-.117-2.105C323.564 83.72 323.564 83.72 320 80c-1.12 3.36-1.252 6.214-1.437 9.75-.335 5.051-.699 9.535-2.563 14.25l-2 1-.12-2.528C313.06 85.995 311.94 70.083 308 54c-5.75-1-5.75-1-8-1h-5v-2c-6.415-2.31-12.48-2.299-19.25-2.25l-3.297-.023c-.52 0-.52 0-3.156.007l-2.864.007C264 49 264 49 261 51M89 51v2l-2.738.184-3.575.254c-1.171.08-2.343.162-3.55.246C76 54 76 54 73 55v9h-2l-.375 3.625c-.26 2.51-.646 4.423-1.639 6.76-1.437 5.268-1.231 10.36-1.181 15.795l.008 3.539c.011 3.719.037 7.437.062 11.156q.016 3.789.027 7.578.034 9.273.098 18.547h3l.078 3.21q.085 2.083.172 4.165l.043 2.117c.098 2.031.098 2.031.707 5.508 10.146 7.325 29.565 5.411 41.388 5.281 2.873-.031 5.746-.04 8.62-.047 28.878-.12 28.878-.12 30.992-2.234 2.347-.397 4.703-.744 7.063-1.062l3.91-.536L167 147c3.856-29.727 6.702-62.94-2-92l-1.758.07c-4.856.113-8.671-.195-13.242-2.07v-1c-6.819-1.044-13.484-1.13-20.375-1.098l-3.53.005c-3.699.005-7.397.018-11.095.03q-3.776.008-7.55.014-9.225.017-18.45.049M58.415 64.26C55.936 67.308 56.224 71.214 56 75l-.197 3.047c-.936 16.245-.84 32.16.923 48.342a159 159 0 0 1 .462 5.238c.17 2.135.48 4.258.812 6.373l3 2v-2l3-1 1-8h-2l.007-2.416q.03-11.258.045-22.514.007-5.788.023-11.575.016-5.583.02-11.166.003-2.132.01-4.265c.008-1.987.008-3.975.009-5.962l.006-3.432C63 65 63 65 62 63c-2 0-2 0-3.585 1.26M236 74c-7.25 12.857-4.155 36.051-4.133 50.707q0 2.438-.003 4.874-.002 5.053.006 10.106.006 6.42-.004 12.842a5387 5387 0 0 0 0 10.025q0 2.366-.002 4.732c-.011 9.28.254 18.467 1.136 27.714l4 1c1.327-12.99 1.033-25.954.879-38.992l-.072-7.204q-.094-9.415-.202-18.83-.105-9.633-.2-19.267Q237.21 92.853 237 74zm-57 5-1 5h-2c-.927 2.78-1.122 4.42-1.114 7.288v2.608l.016 2.803.005 2.88c.005 3.036.018 6.072.03 9.109q.008 3.086.014 6.173.017 7.57.049 15.139l3 1c4.067-4.067 2.089-17.021 2.098-22.703-.003-3.516-.019-7.031-.036-10.547q-.008-2.736-.013-5.473Q180.032 85.64 180 79zm198 4c-.942 4.78-1.16 9.43-1.168 14.285l-.01 2.36q-.007 2.457-.007 4.914c-.002 2.5-.02 4.998-.04 7.498q-.005 2.396-.005 4.79l-.022 2.252c.018 4.079.435 7.23 2.252 10.901h1c.959-8.268 1.156-16.485 1.13-24.8q-.005-3.139.007-6.278 0-2.02-.004-4.04l-.004-3.643A41.7 41.7 0 0 0 379 83zm-42 34c-2.006 14.781-2.105 29.728-2.187 44.625l-.04 3.864-.003 3.613-.013 3.229C333 175 333 175 335 178c3.182-3.182 2.125-11.606 2.139-15.805l-.006-2.949.003-3.088q0-3.219-.006-6.437-.005-4.914.007-9.828 0-3.135-.004-6.272l.006-2.955c-.016-4.67-.172-9.073-1.139-13.666zM88 157v3c10.068 2.014 19.81 2.28 30.04 2.206 2.588-.019 5.176-.02 7.765-.02 8.444-.019 16.8-.154 25.195-1.186.563-1.938.563-1.938 1-4-1.964-1.964-5.728-1.279-8.418-1.352l-2.307-.071q-3.73-.11-7.463-.202l-2.543-.068C97.45 154.427 97.45 154.427 88 157m319-1 1 4c4.243.807 8.24 1.122 12.556 1.114h3.882l4.148-.016 4.279-.005q5.608-.006 11.215-.024 5.732-.014 11.463-.02 11.229-.016 22.457-.049l1-3h-4v-2c-22.691-1.665-45.292-.861-68 0m-38.058 57.636c-4.307.533-8.622.955-12.942 1.364v2l3.797.113q2.476.099 4.953.2l2.5.068c7.545.335 7.545.335 10.75 3.619l-8.934 1.789c-3.083.618-6.165 1.23-9.253 1.82l-2.688.516-2.367.445C353 226 353 226 352 227h-6l-1 1c-2.703.54-5.419.965-8.14 1.402-2.861.598-5.266 1.246-7.86 2.598a110 110 0 0 0-2 7l-3 2v2l-2.082.113-2.73.2-2.708.175c-2.859.59-3.764 1.185-5.48 3.512-2.103 6.751-2.147 13.016-1.973 20.059C309 270 309 270 308 272c.375 3 .375 3 2 6 3.889 1.597 7.824 2 12 2l.188 3.25c.812 3.75.812 3.75 2.687 6.063 3.823 2.064 7.33 2.666 11.602 3.292C339 293 339 293 342 294l-.25 3.313c.25 3.687.25 3.687 1.863 5.32 4.95 2.836 10.835 3.35 16.387 4.367l3.246.598c23.893 4.027 48.597 2.917 72.692 1.527l2.131-.119c13.603-.775 26.773-2.391 39.931-6.006l1-4c-3.929 0-7.199 1.003-11 2l1-6 2.047-.332 2.703-.48 2.672-.458c2.85-.807 4.451-1.675 6.578-3.73 1.739-4.3 1.428-9.425 1.719-14.004C485 273 485 273 486 270c.877-14.472-1.038-28.687-3-43-4.324-1.09-8.643-2.172-13-3.125l-2.312-.508L466 223l-1-6 11 1v-2c-26.654-14.606-78.034-6.024-107.058-2.364m-253.067-.698-2.437.131c-14.23.785-14.23.785-20.438 1.931 3.62 1.989 7.044 2.699 11.074 3.438L106 219l1 2c-1.05 1.457-1.05 1.457-3 3-3.355.512-3.355.512-7.187.688l-3.856.199L90 225l-1 5-4 1v8l-13 2c-.663 3.977-1.127 7.138-1.133 11.055l-.006 2.84.014 2.98.01 3.078c.172 25.374.172 25.374 3.115 30.047 3.04 1.145 3.04 1.145 6.625 1.813l3.602.707L87 294c.52 2.023 1 3.996 1.313 6.063.952 2.685 2.303 3.415 4.687 4.937 16.751 5.002 35.716 4.363 53 4.313l2.98-.008a787 787 0 0 0 31.31-.739l2.502-.105c11.305-.557 22.892-1.589 33.208-6.461v-7h2v2c4.268-.167 6.474-.568 9.813-3.312 3.361-4.501 3.599-10.26 4.187-15.688l3.063.125c4.115-.13 7.15-.492 10.937-2.125 4.872-8.26 1.741-21.931 1-31-4.457-1.953-8.687-2.664-13.477-3.34-2.734-.715-3.767-1.497-5.523-3.66l1-1c.232-1.515.412-3.038.563-4.562l.253-2.504L230 228q-2.437-.04-4.875-.062l-2.742-.036C220 228 220 228 218 229v-2l-3.543-.621-4.644-.816-2.33-.409c-3.838-.675-7.667-1.366-11.483-2.154l1-4 13-1 1-3c-31.82-2.807-63.217-3.804-95.125-2.062M495 237c-1.737 3.016-2.25 5.177-2.243 8.645l-.01 2.77.023 2.968v3.062q.006 3.2.024 6.4c.018 3.275.02 6.549.02 9.823q.007 3.107.018 6.215l.023 5.73.011 2.427C493 287 493 287 494 289l3-1c3.857-7.715 2.152-19.76 2.125-28.187l.012-3.655c-.007-6.472-.269-12.744-1.137-19.158zm-436 6c-3.01 3.01-2.088 11.771-2.125 15.875.044 5.746.496 11.416 1.125 17.125h4c2.619-2.619 1.186-10.165 1.188-13.687l.037-3.592.005-3.483.013-3.186C62.98 248.765 62.16 246.075 61 243zm58 69-1 2c4.25 3.62 8.293 4.065 13.738 4.316l2.71.128c.945.04 1.89.078 2.864.118l2.985.125q4.35.17 8.703.313l2.252.075c11.678.334 23.153-.803 34.748-2.075l1-3h3v-2zm249 0 2 6c12.365 1.68 24.499 2.291 36.973 2.206 2.816-.019 5.632-.02 8.449-.02q2.719-.008 5.437-.018l2.52-.003c4.322-.036 8.36-.353 12.621-1.165a100 100 0 0 1 5 0c3.785.046 7.28-.217 11-1l-1-5zm-130 19c-2.463 2.463-2.34 3.41-2.59 6.816l-.222 3.009c-1.012 17.086-1.286 34.188-1.313 51.3l-.008 2.314c-.064 23.766-.064 23.766 3.133 28.561h2c1.188-9.378 1.164-18.717 1.168-28.152l.01-5.25q.009-5.47.007-10.94c0-4.676.014-9.352.031-14.029q.015-5.406.013-10.811 0-2.588.013-5.176c.01-2.403.007-4.805 0-7.208.004-.356.004-.356.018-2.158-.023-3.658-.171-5.143-2.26-8.276m99 8c-.983 2.95-1.193 5.092-1.312 8.177l-.125 3.209-.118 3.485-.127 3.634c-.398 12.303-.47 24.6-.448 36.908q.005 5.56-.007 11.12 0 3.595.004 7.19l-.006 3.298c.02 6.386.366 12.639 1.139 18.979 1.928-1.608 2.898-2.588 3.507-5.058.627-9.062.638-18.112.626-27.192q0-2.622.003-5.245.002-5.461-.006-10.922-.006-7.003.004-14.006.005-5.4 0-10.798 0-2.584.002-5.168.003-3.596-.007-7.193l.007-2.153c-.014-3.038-.167-5.358-1.136-8.265zm79 18v3c5.238 1.073 10.278 1.145 15.598 1.133l2.763.003q2.88 0 5.761-.006 4.401-.005 8.802.007 2.805 0 5.611-.004l2.649.006c4.07-.016 7.846-.116 11.816-1.139l1-3c-5.148-1.047-10.083-1.145-15.309-1.133l-2.681-.003q-2.798 0-5.595.006-4.26.005-8.519-.007-2.727 0-5.455.004l-2.55-.006c-4.735.019-9.221.35-13.891 1.139m-320 1v2c7.458.796 14.814 1.16 22.313 1.125l3.093-.006c10.546-.058 21.066-.539 31.594-1.119l1-3q-11.425-.037-22.852-.055-3.887-.008-7.775-.02c-3.723-.013-7.447-.018-11.17-.023l-3.517-.015h-3.275l-2.88-.007c-2.329.11-4.303.46-6.531 1.12m308 11-2 15-10-1c-1.765 3.53-1.41 7.772-1.605 11.678-.294 5.221-.294 5.221-1.395 6.322a58 58 0 0 0-.161 4.082l-.03 2.634-.012 2.882-.017 2.974q-.014 3.139-.02 6.278c-.01 3.147-.04 6.294-.072 9.441-.06 11.61.557 22.399 3.312 33.709l2.47.697q2.915.824 5.83 1.647c2.7.656 2.7.656 5.7.656l1 2c6.053 1.09 12.04 1.147 18.176 1.133l2.923.003q3.057 0 6.114-.006 4.578-.005 9.156.007c9.402.003 18.783-.098 28.174-.582.756-.04 1.512-.078 2.292-.118 4.425-.257 8.807-.589 13.165-1.437 1-2 1-2 .938-5 .062-3 .062-3 2.062-5 2.51 1.255 2.871 2.5 4 5h3c2.264-3.396 2.53-5.551 3.063-9.562.842-6.249.842-6.249 1.937-8.438.07-1.874.084-3.75.063-5.625l-.028-3.04L500 433h2q.075-6.135.11-12.268.015-2.08.04-4.16c.1-8.072-.082-15.724-2.15-23.572l-.781-3.129-.719-2.433-.719-2.504C497 383 497 383 495 382l-3 2a74 74 0 0 0-.687 8.125l-.104 2.285A497 497 0 0 0 491 400h-3l-.332-2.676c-.903-6.83-2.033-13.338-4.082-19.922-.621-2.546-.613-4.792-.586-7.402-6.434-6.434-30.809-3.184-40.1-3.191-34.498.057-34.498.057-40.9 2.191m-285.946-1.92a1520 1520 0 0 0-11.492.295l-3.552.093-3.319.118-2.9.095C92 368 92 368 86 370l-1 13H72c-1.476 9.698-2.376 19.226-2.633 29.034a708 708 0 0 1-.197 6.093c-.241 7.62-.074 15.104.606 22.7.238 3.365.228 6.676.162 10.048 0 9.67 0 9.67 2.062 14.125 4.69 2.797 9.62 3.262 15 3l2 1c25.827 2.976 52.663 1.758 78-4 1.186-5.177 1.353-10.335 1.621-15.625.36-3.2 1.153-5.436 2.379-8.375v-4l2 2-1 2h2l.375 2.313C175 446 175 446 177 449h2c1.924-6.563 2.42-12.743 2.625-19.562l.113-3.23c.465-14.131.167-28.101-.738-42.208l-5 1v2l-7-2-2-15c-17.07-3.562-33.573-3.27-50.946-2.92M56 386c-1.232 3.697-1.148 7.088-1.125 10.938l.01 2.546c.064 8.577.232 17.154.434 25.728q.055 2.393.102 4.786c.171 8.484.402 16.743 2.579 25.002h4c2.396-7.01 1.917-13.278 1.296-20.598a772 772 0 0 1-.784-10.347l-.149-2.08c-.478-7.043-.508-14.057-.376-21.11.078-4.756-.174-9.174-.987-13.865z" id="svg-layer-0" style="pointer-events: all;"/><path fill="#433629" d="M371.285 6.879q10.874-.003 21.747-.008 24.965-.013 49.931-.005 7.647.001 15.293-.002 8.857-.004 17.713.005 3.21 0 6.422-.002c32.827-.03 32.827-.03 40.582 6.895 7.835 8.19 7.404 17.748 7.643 28.55l.114 4.37c.443 18.1.42 36.206.415 54.311 0 5.227.006 10.454.01 15.68q.012 15.278.012 30.554 0 12.418.006 24.836.014 35.302.012 70.603v7.655q.002 30.82.023 61.639.023 31.737.02 63.475-.001 17.782.014 35.565.014 15.111.005 30.221-.007 7.701.005 15.402.011 7.056-.002 14.113-.003 2.544.005 5.087c.08 25.997.08 25.997-4.255 32.177-9.91 5.14-23.975 3.146-34.868 3.14l-5.749.01q-7.869.01-15.738.01-8.497.005-16.996.016-18.567.02-37.134.024-11.6.005-23.2.012a155826 155826 0 0 1-80.935.028h-2.091q-33.552.007-67.104.043-35.514.038-71.027.04-19.342-.001-38.686.025-16.47.023-32.94.012-8.396-.008-16.793.011a3177 3177 0 0 1-15.399 0q-2.772-.004-5.545.01c-27.541.121-27.541.121-35.795-5.381-2.655-8.532-2.339-17.925-2.41-26.772l-.057-4.572c-.053-4.3-.091-8.601-.127-12.902q-.036-4.265-.08-8.528c-.676-69.484-.476-138.978-.455-208.464q.006-22.804-.001-45.61a113920 113920 0 0 1-.004-59.428v-2.846q.002-9.795-.002-19.59-.005-11.908.003-23.818.005-6.04 0-12.079C23.86 71.593 23.896 61.797 24 52l.02-2.05c.045-4.652.133-9.303.238-13.954l.041-3.542c.217-7.544 1.06-15.256 6.2-21.183 6.56-5.558 19.94-3.579 28.123-3.59l4.71-.03c4.31-.028 8.62-.043 12.931-.056 4.705-.016 9.41-.043 14.114-.068q13.968-.07 27.938-.117 11.453-.04 22.905-.09c76.688-.332 153.377-.422 230.065-.441M67.521 34.448l-3.074.059q-4.11.082-8.217.182l-2.317.05C49.859 34.85 45.983 35.23 42 36c-1.231 4.786-1.136 9.456-1.12 14.36l-.002 2.886q.001 4.823.011 9.645l.001 6.982q.003 8.628.016 17.258a19049 19049 0 0 1 .016 16.477l.001 2.113c.013 18.448.04 36.897.07 55.345l.019 12.379a104809 104809 0 0 0 .313 142.42q.06 22.22.102 44.44.047 23.205.116 46.41.039 12.88.06 25.759.017 10.815.056 21.63.022 5.496.025 10.99c.002 3.961.019 7.922.038 11.884l-.006 3.505.022 3.207.007 2.762c.285 2.846.997 4.985 2.255 7.548 6.004 3.165 14.457 2.27 21.037 2.227h3.551c3.847 0 7.694-.016 11.54-.032l8.034-.008q9.465-.011 18.932-.043c7.19-.022 14.38-.033 21.57-.043q22.168-.033 44.336-.101v-2h74v-1c19.107-.983 38.18-1.15 57.306-1.134q6.157.002 12.316-.002 10.334-.003 20.667.006 11.822.006 23.645-.002 10.277-.007 20.555-.003 6.082.003 12.165-.001c19.475-.014 38.886.284 58.346 1.136l-17 1v1q12.233.035 24.464.052 5.681.007 11.362.023 5.496.016 10.99.02 2.086.003 4.168.01c22.232.084 22.232.084 27.016-3.105.372-2.507.372-2.507.367-5.753l.017-3.746-.028-4.164q.001-2.203.007-4.407c.005-4.078-.01-8.156-.026-12.234-.015-4.451-.013-8.903-.013-13.355-.004-8.863-.024-17.727-.05-26.59a13641 13641 0 0 1-.046-25.004l-.007-6.38a46463 46463 0 0 0-.234-94.57C512.745 218.555 512.452 141.31 512 36c-4.858-1.564-8.926-2.25-14.078-2.249l-2.061-.008c-2.273-.006-4.545.002-6.818.01q-2.474-.002-4.947-.008c-4.528-.006-9.056 0-13.585.008-4.887.007-9.775.002-14.663-.002q-14.378-.006-28.757.01c-11.205.01-22.41.01-33.615.01q-30.074.001-60.147.023a76558 76558 0 0 1-61.645.02h-3.587q-33.184 0-66.37.015-10 .004-20 .004c-83.43.005-83.43.005-114.206.615" id="svg-layer-1" style="pointer-events: all;"/><path fill="none" d="M0 0h560v536H0zm138.041 7.334q-11.407.048-22.814.087-13.785.048-27.568.122-6.942.038-13.883.06-6.307.02-12.613.064-2.26.014-4.522.017c-24.925.041-24.925.041-30.453 5.254C24 16 24 16 24 19c-2.332 1.206-4.496 2.165-7 3-1.316 2.45-1.316 2.45-2.562 5.688l-1.254 3.136c-3.428 10.731-3.437 22.127-3.282 33.27q.033 4.395.055 8.789l.015 2.273c.05 8.19-.045 16.375-.156 24.563l-.06 4.552q-.06 4.68-.127 9.36-.086 6.3-.165 12.6c-.206 16.183-.423 32.367-.748 48.55-.803 40.398-.684 80.78-.358 121.182l.05 6.219c.234 29.71.558 59.42 1.069 89.127l.056 3.402c.22 13.154.572 26.294 1.12 39.439.266 6.415.454 12.825.558 19.245l.086 4.763c.041 2.352.079 4.703.104 7.054.16 13.638 1.069 25.99 8.599 37.788l1.688 3.063L23 508h2l1 3c3.905 3.787 9.399 7 15 7v2c9.761 1.187 19.501 1.14 29.315 1.127l5.567.005q7.62.005 15.237-.001 8.229-.003 16.456.004 16.106.005 32.21 0a68230 68230 0 0 1 37.513 0q34.474.004 68.947-.005 31.461-.007 62.922 0a197894 197894 0 0 0 78.273.004h3.747q13.076-.002 26.15.002 15.93.005 31.86-.003 8.128-.005 16.256 0 7.44.004 14.879-.004 2.693-.001 5.384.002 3.66.004 7.318-.005l2.11.007c7.919-.03 15.186-.547 21.856-5.133 1.438-1.527 1.438-1.527 2.688-3.125 2.45-3.046 3.787-3.541 7.312-4.875 1.764-2.604 2-3.808 2-7h2l1.313-1.937L534 497l2.5-.25c2.5-.75 2.5-.75 4.25-3.937 3.383-10.697 2.396-23.019 2.377-34.115l.005-4.478q.005-6.093-.001-12.187-.003-6.597.004-13.194.005-12.91 0-25.823-.003-10.524-.001-21.046v-3.037l.001-6.11q.004-28.63-.006-57.26-.005-24.433.001-48.867a128106 128106 0 0 0 .004-63.053v-3.035q-.002-10.46.002-20.92.005-12.822-.003-25.646-.005-6.511 0-13.024c.013-18.355-.148-36.697-.586-55.047l-.06-2.605C541.623 47.03 541.623 47.03 537 36h-4l-2-8h-2l.25-2.625c-.477-6.436-4.735-10.077-9.371-14.078-10.645-7.348-28.287-4.44-40.643-4.426l-6.635-.006q-9.055-.005-18.111 0-7.725.003-15.449 0c-16.062-.006-32.125 0-48.188.007q-10.872.005-21.744.007c-77.023.02-154.045.119-231.068.455" id="svg-layer-2" style="pointer-events: all; fill: none;"/><path fill="#A57757" d="m275.688 48.813 3.263-.038c5.75-.01 10.628.263 16.049 2.225v2h2.375c3.674 0 6.995.369 10.625 1 4.14 16.903 5.177 33.68 6 51 2-1 2-1 3.063-3.687 1.336-4.965 1.374-10.092 1.593-15.204C319 83 319 83 321 80c1.774 3.095 2.332 5.576 2.598 9.121l.238 3.05.226 3.266.25 3.406c.242 3.385.468 6.77.688 10.157l.184 2.744c4.508 69.49 4.508 69.49-4.184 95.256l-3 2v-12l-5-1-.25 3.938c-.503 5.083-1.528 9.972-2.687 14.937l-.515 2.234c-1.682 7-1.682 7-3.548 9.891-3.751 2.13-5.903 1.954-10 1l-.043 2.52-.144 3.292-.106 3.27C295 240 295 240 292.695 241.867c-7.803 3.28-17.653.414-25.695-.867-3.969-9.575-3.969-9.575-5.062-14.062L261 224l-3-1v-8l-1.875-.375C254 214 254 214 252 212v6h-3l-1-14h-2q-.724-3.5-1.437-7l-.409-1.965-.4-1.972-.365-1.778c-1.41-8.289-1.552-16.384-1.557-24.781l-.01-4.302q-.009-4.522-.007-9.046 0-4.526-.02-9.053c-.075-16.407.12-32.756 1.092-49.138l.118-2.068c1.3-22.203 1.3-22.203 4.995-25.897l.5-2.062L249 63l2-1v-6l9-1 .875-2.437c2.458-5.598 9.513-3.747 14.813-3.75" id="svg-layer-3" style="pointer-events: all;"/><path fill="#A57756" d="M388.958 212.751c3.34.407 6.683.372 10.042.347l2.185-.005c2.272-.005 4.543-.018 6.815-.03q2.33-.008 4.66-.014 5.67-.017 11.34-.049v2h9l-6-1v-1h15v3l3.254-.035 4.308-.028 2.135-.025c4.543-.02 8.82.34 13.303 1.088l1 6 3.21.621 4.165.816 2.117.409c5.281 1.04 5.281 1.04 7.508 2.154.502 2.123.502 2.123.852 4.934l.391 3.132.382 3.371.397 3.411c2.56 23.404 2.56 23.404-.022 31.152-.201 2.143-.363 4.29-.5 6.438-.619 9.71-.619 9.71-3.234 12.238-2.541 1.485-4.623 2.017-7.516 2.512l-2.703.48L469 295l-.375 1.898c-.652 2.582-1.348 4.762-2.625 7.102-3.066 1.269-4.82 1.722-8 2l-2.172.32c-9.536 1.32-20.615 1.75-29.828-1.32l-2 1c-2.81.1-5.593.14-8.402.133l-2.526.003q-2.647 0-5.293-.006-4.053-.005-8.105.007-2.57 0-5.139-.004l-2.453.006c-3.283-.014-5.945-.093-9.082-1.139h-3v2a2017 2017 0 0 1-11.812-.875l-3.393-.238-3.252-.254-3-.222C356 305 356 305 353 303v-2l-7 1-1-4 10 1v-2l-2.3-.805-3.012-1.07-2.989-1.055C344 293 344 293 341 291a177 177 0 0 0-7-1c-2.94-.588-5.477-1.347-8-3-.75-2.125-.75-2.125-1-4l3-1v-4l-3.125-.437c-9.19-1.334-9.19-1.334-12.875-2.563l1-2-2-1c-1.654-4.962-1.622-10.01-.062-15 1.062-2 1.062-2 2.062-3v-3c0-3 0-3 1-4a92 92 0 0 1 5.063-.062l2.785.027L324 247l1-5 2.047-.402 2.703-.536 2.672-.527c2.21-.459 4.393-.968 6.578-1.535l.008-1.863c.12-2.499.337-4.72.992-7.137 3.993-3.064 7.117-3.109 12-3l3-2c2.021-.487 2.021-.487 4.309-.816l2.513-.377 2.615-.37q2.562-.374 5.122-.753l2.29-.327c2.088-.347 4.106-.814 6.151-1.357-3.814-3.909-8.121-3.547-13.25-3.687l-2.547-.104A625 625 0 0 0 356 217v-2c4.332-.536 8.665-1.051 13-1.562l3.7-.46 3.613-.42 3.3-.396c3.219-.154 6.161.133 9.345.59M290.625 289.438l3.04.308L296 290c2.08 4.674 2.171 7.95 2 13l12 1 3 18h7v-3h2v2h2c2.822 21.286 3.288 42.488 3.25 63.938l-.003 3.938c-.025 14.403-.212 28.755-1.247 43.124h-1l-.312 3.875c-.176 2.18-.176 2.18-.688 4.125-3 2-3 2-6 2l-.875 2.313C316 447 316 447 314 450l3 1-3 1 .125 3.625c-.027 3.841-.31 6.909-2.125 10.375-3.062 1.25-3.062 1.25-6 2l-1 2c-4.458.196-8.916.38-13.375.563l-3.852.17-3.671.146-3.396.143C278 471 278 471 276 470v-2l-12-2-1-4h-2l-.332-2.633c-.827-6.008-1.544-11.07-4.668-16.367-.687-2.375-.687-2.375-1-4h-3l-1-1v12l-2-1c-.527-2.414-.527-2.414-.937-5.625a177 177 0 0 0-2.555-14.371c-1.617-7.777-2.265-15.51-2.696-23.442l-.241-4.137c-.52-9.158-.857-18.254-.571-27.425l.059-2.624c1.02-44.533 1.02-44.533 4.941-52.376l9 1-.25-2.437c.436-6.21 3.257-11.81 7.25-16.563l1-2h2c1.383-.456 2.757-.94 4.125-1.437 3.135-1.084 6.012-1.8 9.313-2.125C283 295 283 295 285 293v-2l-2-1c2.728-1.364 4.61-.878 7.625-.562M107 217q12.387-.035 24.775-.052 5.752-.007 11.504-.023 5.554-.016 11.107-.02 2.116-.003 4.233-.01c1.98-.008 3.959-.008 5.938-.009l3.412-.006c2.796.11 5.313.481 8.031 1.12-2 2-2 2-5 3l2.484.228c30.112 2.794 30.112 2.794 44.516 5.772v2l2.625-.5c3.187-.472 6.16-.577 9.375-.5q-.212 2.22-.437 4.438l-.247 2.496C229 237 229 237 228 238c2.49 3.067 4.526 3.52 8.375 4.063 3.83.554 7.074 1.38 10.625 2.937 2.104 25.737 2.104 25.737-1 31-4.684 2.02-8.945 2.206-14 2l-2 11c-4.412 1.47-7.483 2.369-12 1l-2 3c-3.036 1.923-4.219 2-8 2l-1 4-1.937.375L203 300l-1 2 2.188-1c2.829-1.006 4.841-1.17 7.812-1v2c-9.9 5.85-27.343 3.18-38.598 3.203l-2.92.009q-7.638.022-15.276.028c-5.22.006-10.44.03-15.66.058-4.054.019-8.108.024-12.161.026q-2.886.004-5.77.024c-10.655.068-20.336-.228-30.615-3.348l1-4 7 1v2h3v-2l-2.012-.734C94.994 296.37 91.055 294.564 87 291l-3-1c-2.293-3.258-2.165-6.111-2-10v-3l-5-1q.212-2.938.438-5.875c.08-1.09.162-2.181.246-3.305C78 264 78 264 79 262h-2c-.09-4.39-.095-8.475.688-12.812C78 246 78 246 75 242l10-3v-8l4-1 1-5 2.922-.184 3.828-.254c1.253-.08 2.506-.162 3.797-.246 3.453-.316 3.453-.316 5.406-.82 3.968-.961 8.135-.902 12.203-1.101 5.493-.298 5.493-.298 7.86-.954 3.235-.72 6.46-.273 9.734-.004l2.113.159q2.57.195 5.137.404v-2l-1.728.016q-3.855.029-7.71.047l-2.72.025-2.588.01-2.396.016C124 220 124 220 123 219a226 226 0 0 0-8.062-.562l-2.3-.131q-2.818-.159-5.638-.307z" id="svg-layer-4" style="pointer-events: all;"/><path fill="#D7C8B4" d="m30 10 2 1-1.875 2.625c-3.338 5.301-4.371 9.848-4.534 16.071l-.058 2.036a921 921 0 0 0-.15 6.95l-.056 2.55c-.641 29.6-.473 59.22-.462 88.824q.003 9.468.001 18.938v2.763l-.001 5.566q-.004 25.95.006 51.9.006 21.922-.001 43.846c-.046 148.759-.046 148.759.486 202.655q.039 4.203.073 8.406.053 6.309.134 12.619.027 2.199.044 4.398c.07 8.476.716 16.537 2.393 24.853l2.615.668 6.174 1.578c5.842 1.372 11.374 1.898 17.368 1.877l2.45.004q4.074.002 8.147-.007 2.948 0 5.894.003 8.103.002 16.206-.007 8.736-.005 17.473-.002 15.137 0 30.275-.008 21.888-.011 43.774-.012 35.51-.004 71.019-.019 34.496-.014 68.993-.02h2.148l64.863-.013h2.02Q454.21 510.026 521 510c0 2 0 2-2.062 4.438-7.488 6.531-16.423 6.72-25.904 6.688l-2.315.004c-2.551.004-5.102 0-7.653-.003l-5.553.005q-7.62.005-15.24-.001-8.222-.003-16.444.004-16.105.005-32.209 0-13.09-.003-26.18-.001h-3.764l-7.568.001q-34.482.004-68.963-.005-31.461-.007-62.921 0a197800 197800 0 0 1-78.262.004h-3.75q-13.07-.002-26.14.002-15.936.005-31.87-.003-8.129-.005-16.257 0-7.445.004-14.891-.004-2.689-.001-5.378.002c-8.936.01-17.79-.05-26.676-1.131v-2l-3.625-.75C33.303 516.246 30.388 514.5 27 512l-2-1v-3h-2c-1.434-2.145-1.434-2.145-3-5l-1.535-2.762-1.527-2.925-1.536-2.887c-3.176-7.76-3.705-15.72-3.78-24.024-.01-.496-.01-.496-.052-3.006a2199 2199 0 0 1-.133-9.459q-.067-4.648-.142-9.298-.046-2.873-.08-5.745c-.106-7.238-.394-14.464-.698-21.696-.51-12.32-.82-24.636-1.04-36.964l-.062-3.308c-.515-27.886-.798-55.774-1.024-83.664l-.05-6.112c-.317-38.419-.377-76.812.375-115.226.418-21.368.6-42.739.814-64.11l.132-12.769.183-17.66.105-10.25c.038-3.962.051-7.92.017-11.882l-.016-2.307a1449 1449 0 0 0-.067-6.16C10.178 41.172 12.098 30.39 17 22c2.53-2.048 3.769-3 7-3l.188-1.687c1.146-3.263 3.306-5 5.812-7.313" id="svg-layer-5" style="pointer-events: all;"/><path fill="#A57757" d="M123.856 366.913c14.8-.3 28.631.058 43.144 3.087l2 15 7 2 1-3h4c.975 15.194 1.157 30.22.625 45.438l-.093 3.088c-.23 5.776-.904 10.923-2.532 16.474-3-1-3-1-5-4v-4l-2-1 1-2-2-1-.437 3.375C170 444 170 444 169 446c-.232 2.713-.42 5.408-.562 8.125l-.131 2.285A1637 1637 0 0 0 168 462c-4.22 1.253-8.34 2.34-12.687 3.063l-2.762.472c-10.112 1.324-20.262 1.72-30.446 2.023-2.261.068-4.523.145-6.785.223q-2.163.068-4.328.133l-3.926.124C104 468 104 468 102 467a75 75 0 0 0-4.035-.465l-2.455-.236q-2.532-.233-5.063-.461C78.098 464.643 78.098 464.643 74 463c-1.496-2.223-1.496-2.223-2-5l-.598-3.059-.465-3.378-.472-3.31c-1.257-10.733-1.606-21.362-1.223-32.157a714 714 0 0 0 .178-6.086c.276-9.124 1.208-17.99 2.58-27.01h13l1-13c4.607-1.536 7.111-2.264 11.691-2.414 1.096-.04 2.19-.078 3.32-.118l3.552-.093 3.716-.108c5.192-.139 10.384-.237 15.577-.354M89 51q11.103-.037 22.205-.055 3.774-.008 7.547-.02 5.437-.017 10.873-.023l3.388-.015c5.743 0 11.332.049 16.987 1.113l1 2c2.398.414 2.398.414 5.375.625l2.96.227c1.887.105 3.776.148 5.665.148 3.136 11.53 4.675 22.316 4.813 34.25l.09 4.627c.312 17.855-.816 35.394-2.903 53.123l-3.027.402-3.91.536-3.903.527C153 149 153 149 152 150c-10.855 1.394-21.942 1.218-32.866 1.24-2.865.01-5.73.041-8.595.072-30.935.178-30.935.178-38.539-5.312a47.6 47.6 0 0 1-.75-7.625l-.09-2.14c-.07-1.745-.118-3.49-.16-5.235h-3q-.074-11.157-.11-22.314-.016-3.795-.04-7.59c-.025-3.638-.036-7.277-.045-10.916l-.032-3.42c0-5.336.105-9.768 2.227-14.76.414-2.336.414-2.336.625-4.375L71 64h2v-9c3.315-1.105 6.204-1.321 9.688-1.562l3.574-.254L89 53zM482 369c.99 2.972 1.467 5.72 1.938 8.813.523 3.259 1.06 6.183 2.125 9.312 1.146 3.515 1.349 6.868 1.652 10.54.328 2.686 1.169 4.88 2.285 7.335v3h2l1-5 2 1-.035 1.922c-.065 6.74.203 13.416.598 20.14.405 7.075.486 13.902-.563 20.938l-2.812.563C489 449 489 449 487.25 452.125c-1.38 3.88-2.335 7.864-3.25 11.875q-3.562.476-7.125.938l-1.957.263c-14.434 1.856-28.768 1.925-43.293 1.861q-3.012-.008-6.023-.013Q418.3 467.032 411 467v-2l-3.312.063C404 465 404 465 401 464l-.437-3.437C400 457 400 457 399 456a75 75 0 0 1-.062-4.562l.027-2.504L399 447h-6l2 11-3 1-.367-1.828-.508-2.422-.492-2.39C390 450 390 450 388.976 448.13c-1.093-2.385-1.224-3.958-1.219-6.569l-.01-2.643.023-2.844v-2.969q.006-3.118.024-6.236c.018-3.132.02-6.263.02-9.394.053-31.342.053-31.342 3.186-34.475 3.054.033 5.969.567 9 1l2-15c22.459-7.486 56.882-2.551 80 0" id="svg-layer-6" style="pointer-events: all;"/><path fill="#A57857" d="m438.75 50.875 3.883-.012c8.168.009 16.234.382 24.367 1.137v1l15 2v2h2c4.442 21.205 5.48 42.372 6 64l.137 3.957c-.148 3.297-.829 5.82-1.95 8.918l-1.097 3.102L486 140a883 883 0 0 0-1.75 5.25L483 149l-7 1 4-1v-4l-2 1-3-1-1 2h-2v-2h-2v2h-23v3l1.547-.527c3.323-.64 6.336-.316 9.703-.036l3.828.31L465 150v1q-10.626.112-21.252.165-3.617.022-7.235.061c-3.46.037-6.92.054-10.38.067l-3.283.047h-3.033l-2.678.02L415 151c-2-3-2-3-2-7l-3.375.625L406 145l-2-2 .125-2.375C404 138 404 138 402.313 135.75c-2.514-1.902-4.212-2.405-7.313-2.75l-2-8 .07 2.117.055 2.758.07 2.742C393 135 393 135 391 137c-3-2-3-2-4-5a70 70 0 0 1-.145-4.31l-.02-2.633-.003-2.85-.01-2.966q-.007-3.12-.007-6.242c-.002-3.13-.02-6.258-.04-9.388-.074-26.713-.074-26.713 3.225-36.611h2v3h7v-3h2l2-13 12-1v-1c7.93-1.09 15.752-1.149 23.75-1.125" id="svg-layer-7" style="pointer-events: all;"/><path fill="#D5C5B1" d="M530 28h1l2 8h4c2.666 6.237 3.663 11.8 4.149 18.543l.24 3.05c.805 10.899 1.071 21.795 1.228 32.72l.056 3.397c.549 33.582.474 67.172.462 100.757q-.003 10.065-.001 20.131v2.935l.001 5.907q.004 27.388-.006 54.778-.005 23.438.001 46.874a118859 118859 0 0 1 .004 60.662v2.903q-.002 10.07.002 20.14.005 12.241-.003 24.486-.005 6.23 0 12.461.004 5.715-.004 11.428-.002 3.016.005 6.034c-.054 25.363-.054 25.363-4.134 32.794-2.438.75-2.438.75-5 1l-4 4zm4 212c-1.179 12.358-1.135 24.669-1.114 37.07v6.922q.001 9.34.013 18.679c.006 6.52.006 13.042.008 19.563q.004 16.398.018 32.798.014 16.881.02 33.761v2.107l.005 10.466q.016 43.317.05 86.634l2-1v-8h2q.361-9.228.71-18.457.277-7.277.58-14.555c.482-11.997.808-23.98.835-35.988l.014-3.472-.006-3.216-.004-2.824c-.12-2.31-.552-4.26-1.129-6.488a70 70 0 0 1 1-4v-4h-2l1-2a69 69 0 0 0 .133-4.402l.006-2.685-.014-2.85-.008-2.878c-.123-18.191-.123-18.191-2.117-20.185-.124-2.284-.178-4.57-.205-6.858l-.03-2.18a2385 2385 0 0 1-.081-7.216l-.063-5.08q-.066-5.367-.124-10.736-.073-6.727-.158-13.456c-.271-21.825-.405-43.647-.339-65.474z" id="svg-layer-8" style="pointer-events: all;"/><path fill="#D6C7B3" d="M84 474c6.002-.218 11.192.494 17 2v3l-19 1v2l-17 2c11.086.129 11.086.129 16.527-.465 17.277-1.823 34.936-1.768 52.286-1.223l3.451.105c5.647.215 11.253.521 16.877 1.066 21.052 1.978 42.078 1.784 63.202 1.713 4.069-.011 8.137-.01 12.206-.01q5.94-.001 11.88-.013l5.614-.006c8.862-.008 17.653-.031 26.478-.941 4.549-.415 9.102-.37 13.666-.351l2.729-.012c4.952.007 9.87.167 14.812.496 9.444.625 18.85.804 28.311.809l4.74.01q4.927.009 9.856.007 4.974 0 9.948.02c17.82.073 35.4-.095 53.142-1.98 5.557-.549 11.133-.737 16.712-.913l3.683-.118c18.326-.492 36.493.85 54.747 2.333 6.288.503 12.579.863 18.88 1.131 5.044.238 5.044.238 7.253 1.342l-1 5-2.391-.001a543716 543716 0 0 0-158.516-.054h-3.44q-27.3-.008-54.598-.022-28.17-.014-56.34-.017-15.755 0-31.511-.012c-47.471-.033-94.926.143-142.391.956A916 916 0 0 1 43 493c-1.094-4.135-1.071-7.723-1-12l2.902-.152q5.38-.287 10.758-.593 2.318-.13 4.637-.25c2.235-.116 4.469-.243 6.703-.372l2.062-.101c4.894-.296 9.285-1.033 13.938-2.532z" id="svg-layer-9" style="pointer-events: all;"/><path fill="#D7C8B4" d="m59.5 34.875 3.031-.012c5.244.007 10.412.188 15.637.637 11.193.859 22.425.648 33.644.625l3.739-.003c17.767-.015 35.518-.261 53.28-.692 18.4-.438 36.797-.545 55.203-.553q3.308-.004 6.615-.01c4.122-.007 8.244-.004 12.367 0l3.758-.006 3.47.01 3.017.002c2.683.124 5.118.563 7.739 1.127 2.025.09 4.052.13 6.078.133l3.52.004 3.652-.012 3.605.012 3.536-.004 3.188-.004a86 86 0 0 0 7.605-.63c4.448-.504 8.817-.64 13.29-.626l2.433-.005c2.664-.004 5.328 0 7.992.003l5.764-.006q7.8-.005 15.601 0c5.457.003 10.913 0 16.37 0q13.749-.004 27.498.005 15.86.007 31.719-.002 13.646-.007 27.292-.003 8.138.003 16.274-.001 7.657-.004 15.316.005 2.798 0 5.595-.002c27.348-.03 27.348-.03 33.672 3.133v97c-2-2-2-2-2.24-4.898l.013-3.755v-2.07c0-2.262.016-4.523.032-6.785l.008-4.7c.008-4.126.028-8.252.05-12.379.02-4.209.03-8.418.04-12.628.02-8.262.055-16.523.097-24.785h-4c-2.904 18.784-2.127 38.019-2.069 56.973q.014 5.602.02 11.205.016 10.911.049 21.822h-2c-.981-3.053-.981-4.947 0-8h-3v7l-2-4h-2c-1.262-2.525-1.099-4.312-1.062-7.125l.027-2.758L493 136h1v9c9.485-9.485 5.107-38.269 5.125-51.375l.008-2.625q.008-3.762 0-7.523l.006-2.274c-.024-5.56-.368-10.889-2.139-16.203h-2l-1 24c-3-3-3-3-3.11-5.602l.36-3.023.363-3.242L492 74l.23-2.508c.398-4.309 1.164-8.331 2.301-12.504.5-2.123.75-4.194.969-6.363C496 49 496 49 498 47c.125-3.625.125-3.625 0-7-3.115-.913-5.907-1.129-9.148-1.133l-3.051-.004-3.176.012-3.059-.012c-5.435.007-10.804.2-16.222.637-7.714.595-15.39.651-23.122.63-2.351-.005-4.703 0-7.054.007q-2.307 0-4.613-.004l-2.066.006c-5.14-.024-10.21-.435-15.328-.886-5.31-.425-10.624-.623-15.946-.808l-3.643-.127c-13.006-.417-26.008-.47-39.02-.448q-5.014.005-10.029-.004c-12.211-.018-24.418.012-36.62.517l-2.553.092c-4.26.21-7.395.844-11.35 2.525-2.748.259-2.748.259-5.719.266l-3.306.012-3.475-.028-3.557-.014c-6.811-.071-13.3-.378-19.988-1.702-9.593-1.733-19.364-1.694-29.08-1.659l-2.063.005c-29.082.075-58.217.292-87.227 2.45-18.204 1.342-36.161.49-54.355-.618-22.368-1.345-22.368-1.345-30.73-.15-3.225.404-5.4.31-8.5-.562-1.245 3.734-1.232 7.274-1.316 11.168l-.063 2.408q-.097 3.805-.184 7.611l-.13 5.163Q42.147 71.674 42 78h-1q-.037-7.767-.055-15.533-.008-2.64-.02-5.282-.017-3.801-.023-7.603l-.015-2.374c0-3.864.169-7.453 1.113-11.208 5.823-1.256 11.575-1.147 17.5-1.125" id="svg-layer-10" style="pointer-events: all;"/><path fill="#A47756" d="M92 474h50l1 5c25.72 1.72 51.315 2.267 77.09 2.137 4.64-.02 9.282-.03 13.924-.04q13.492-.031 26.986-.097v1l-35 2v2c-50.977.39-50.977.39-67.746-1.212-25.04-2.343-53.443-4.438-78.337-.272-2.483.412-4.715.6-7.222.582l-2.265-.01-2.305-.026-2.375-.013q-2.875-.02-5.75-.049c3.774-2.342 7.805-2.69 12.125-3.187l2.207-.288c5.409-.654 5.409-.654 7.668.475v-2c6.342-1.153 12.567-1.095 19-1v-3l-9-1z" id="svg-layer-11" style="pointer-events: all;"/><path fill="#D7C8B4" d="M510 135h1c1.014 8.803 1.137 17.533 1.114 26.385v4.557q-.001 6.135-.013 12.27c-.006 4.287-.006 8.574-.008 12.86q-.005 12.155-.021 24.31-.015 13.845-.022 27.692-.016 28.462-.05 56.926h-1a2301 2301 0 0 1-1.254-48.023l-.063-3.996q-.155-9.997-.29-19.996c-.43-30.246-.43-30.246-1.393-35.985l-2-1a88 88 0 0 1-1-5c-1-2-1-2-3-3h3l1-2h-4v-5h3v-11h1v12l1-5h2l-.016-3.289q-.026-6.019-.039-12.037-.008-2.609-.02-5.218c-.013-2.494-.018-4.989-.023-7.483l-.015-2.37c0-1.869.051-3.736.113-5.603z" id="svg-layer-12" style="pointer-events: all;"/><path fill="#906B50" d="m292.688 476.563 2.748-.067c6.24.019 10.183 1.34 15.564 4.504l-1 3-2.93.076q-5.47.144-10.937.296-2.35.065-4.701.125c-14.701.381-14.701.381-21.307 1.034-8.602.793-17.245.574-25.875.531q-2.664-.008-5.328-.013-6.461-.017-12.922-.049v-2l-1.95.527c-4.026.624-7.812.33-11.863.036l-2.388-.159q-2.9-.195-5.799-.404v-1l3.51-.076q6.564-.144 13.128-.296 2.82-.065 5.638-.125c33.956-.735 33.956-.735 35.724-2.503 10.153-2.2 20.302-3.317 30.688-3.437" id="svg-layer-13" style="pointer-events: all;"/><path fill="#D7C8B4" d="M411.47 473.886h2.01c2.197 0 4.394.009 6.59.016l4.565.005q6.013.006 12.025.024 6.132.014 12.266.02 12.038.016 24.074.049v4c7.809 1.067 15.501 1.15 23.375 1.125l3.848.012 3.675-.004 3.334-.004C510 479 510 479 513 478l-1 5c-14.697.193-29.018-.56-43.592-2.503-21.496-2.862-41.436-2.648-62.986-.477l-2.193.214q-2.986.296-5.971.604c-2.778.138-4.66.056-7.258-.838 1.74-1.74 4.194-1.372 6.563-1.562l3.066-.254L402 478l1-3c2.856-1.428 5.277-1.12 8.47-1.114" id="svg-layer-14" style="pointer-events: all;"/><path fill="#A67958" d="M535 352h2c2.05 29.901 2.05 29.901 0 34h2c.125 7.625.125 7.625-1 11l1 1c.101 1.577.13 3.158.133 4.738l.006 3.122-.014 3.452-.008 3.588c-.112 22.028-.607 44.121-2.117 66.1h-2z" id="svg-layer-15" style="pointer-events: all;"/><path fill="#916B50" d="M151 156c.563 1.938.563 1.938 1 4-4.446 4.446-19.982 2.173-26.195 2.186h-2.583c-2.585.001-5.169.02-7.753.039-9.37.03-18.25-.38-27.469-2.225v-3c19.453-5.295 43.006-1.706 63-1" id="svg-layer-16" style="pointer-events: all;"/><path fill="#D9CAB6" d="M495 382c3.12 2.536 3.742 4.955 4.625 8.813l.727 3.082c1.149 5.502 1.77 10.619 1.746 16.253l-.005 1.993c-.005 2.078-.018 4.156-.03 6.234q-.009 2.127-.014 4.254-.017 5.186-.049 10.371h-2l.07 2.055c.18 9.288-.856 18.516-5.07 26.945-1.875-.25-1.875-.25-4-1a90 90 0 0 1-2-4l-3-1c1.75-6.75 1.75-6.75 4-9 2.125.375 2.125.375 4 1 .196 4.219-.198 7.17-2 11l2-1c1.888-5.985 2.412-11.692 2.625-17.937l.11-2.925c.281-8.455.396-16.913.44-25.373q.012-2.184.034-4.37c.064-7.377.102-14.315-2.209-21.395h-1l-.076 1.804q-.176 4.035-.361 8.071l-.12 2.84-.127 2.715-.11 2.507C493 406 493 406 492 408h-2l-2-7 3-1 .113-3.43q.098-2.222.2-4.445c.01-.373.01-.373.068-2.262.097-1.963.35-3.916.619-5.863z" id="svg-layer-17" style="pointer-events: all;"/><path fill="#D7C8B4" d="M313 467c-.955 2.455-1.92 4.843-3.125 7.188C309 476 309 476 309 478l11 1v1q-3.124.079-6.25.125l-3.516.07C307 480 307 480 305.081 479.007c-3.808-1.842-7.984-1.343-12.144-1.32l-3.011.007c-5.965.08-11.582.597-17.426 1.743-15.819 3.082-32.44 2.34-48.5 2.563v-2l3.054-.06q5.676-.117 11.35-.257 2.445-.057 4.888-.105c22.903-.45 22.903-.45 29.708-5.578a299 299 0 0 1 6-1l1-2c3.313-.908 6.441-1.12 9.863-1.098l2.686.01 2.764.026 2.822.013q3.433.018 6.865.049l1-3c2.944-1.178 3.9-1.033 7 0" id="svg-layer-18" style="pointer-events: all;"/><path fill="#5B4F3F" d="M171 492v1l-6 1h7l1 2H53v-1l33-2v-1c28.376-1.072 56.62-.848 85 0" id="svg-layer-19" style="pointer-events: all;"/><path fill="#956D51" d="M72 241h6v3l1 3a100 100 0 0 1-.375 6l-.273 3.188C78 259 78 259 77 262h2q-.212 2.657-.437 5.313l-.247 2.988C78 273 78 273 77 276l5-1c1.125 1.688 1.125 1.688 2 4-.875 2.75-.875 2.75-2 5h-2l1 6c-2.875-.687-2.875-.687-6-2-4.556-9.095-4.18-20.016-4.187-29.937l-.003-3.016c.036-4.787.195-9.342 1.19-14.047" id="svg-layer-20" style="pointer-events: all;"/><path fill="#D7C8B4" d="M60 63h2c1.384 2.769 1.12 5.004 1.114 8.102v3.882l-.016 4.211-.005 4.296q-.006 5.658-.024 11.314-.014 5.771-.02 11.543Q63.033 117.673 63 129l2 1-1 7-3 1-1 2c-2.803-2.803-2.683-5.72-3.062-9.5l-.248-2.38c-1.482-15.382-2.014-30.867-1.377-46.308l.104-2.696C56.06 66.941 56.06 66.941 60 63m1 4c-.862 3.774-1.172 7.352-1.281 11.219l-.114 3.574L59.5 85.5q-.104 3.64-.219 7.281l-.092 3.252c-.175 2.752-.623 5.275-1.189 7.967-.935 25.098-.935 25.098 3 31 1-1 1-1 1.12-3.664l-.006-3.6v-1.98c0-2.17-.009-4.34-.016-6.51l-.005-4.502q-.006-5.936-.024-11.871-.014-6.052-.02-12.105Q62.033 78.884 62 67zM236 74h1v59h-1l-1-20v81h2v2l-4-1c-.84-10.574-1.15-21.057-1.133-31.66q0-2.344-.003-4.688-.002-4.883.006-9.764.006-6.153-.004-12.306C231.8 81 231.8 81 236 74M511 300h2v178h-1c-1.02-36.246-1.128-72.474-1.072-108.73q.016-11.37.022-22.74.015-23.265.05-46.53" id="svg-layer-21" style="pointer-events: all;"/><path fill="#89664C" d="m236 335 2 1q.035 14.904.052 29.808.007 6.921.023 13.841.016 6.683.02 13.364.003 2.546.01 5.093.01 3.572.009 7.144l.01 2.117c-.008 3.981-.359 7.726-1.124 11.633h-2c-.857-3.713-1.131-7.154-1.145-10.96l-.02-3.573-.003-3.842-.01-3.988q-.009-4.181-.007-8.362c0-3.536-.014-7.07-.031-10.606q-.015-4.124-.013-8.247c-.001-1.926-.012-3.851-.023-5.777.018-7.1.563-13.83 1.823-20.82.404-2.662.507-5.139.429-7.825" id="svg-layer-22" style="pointer-events: all;"/><path fill="#997052" d="M371 314h76c-2.9 1.934-3.897 2.301-7.187 2.625L436 317v1c-21.403 1.553-43.915 2.69-65-2z" id="svg-layer-23" style="pointer-events: all;"/><path fill="#8F6A4F" d="m319.96 481.751 2.529.022h2.66c2.912 0 5.823.016 8.734.032l6.045.008c5.31.008 10.62.028 15.93.05 5.416.02 10.832.03 16.247.04 10.632.02 21.264.055 31.895.097v1l-2.047.148-2.703.227c-.882.07-1.763.14-2.672.21-2.578.415-2.578.415-4.395 1.427-2.71 1.226-4.716 1.229-7.686 1.215h-3.336l-3.583-.032-3.682-.008a3175 3175 0 0 1-11.646-.062q-3.947-.016-7.895-.027-9.677-.034-19.355-.098v-1l-23-1c2.607-2.607 4.41-2.236 7.96-2.249" id="svg-layer-24" style="pointer-events: all;"/><path fill="#926C50" d="m407.684 210.797 3.048-.021q4.853-.023 9.705-.026l3.325-.005c42.64-.004 42.64-.004 52.238 5.255l-1 2-33-2v-3l-9 1 1 2c-7.39.147-14.644-.292-22-1v-1l-1.988.032a1668 1668 0 0 1-8.887.093c-1.033.017-2.065.034-3.129.05l-2.988.02-2.761.032C390 214 390 214 388 212c6.592-.838 13.041-1.172 19.684-1.203" id="svg-layer-25" style="pointer-events: all;"/><path fill="#D6C7B3" d="m56 386 5 1c1.071 6.026 1.1 11.89 1 18l-3-4c-.132 15.369.154 30.653 1 46h4l-3 9-3-1c-2.13-9.279-2.433-18.47-2.625-27.937l-.113-4.682c-.197-8.46-.353-16.92-.387-25.381l-.014-2.402c.01-3.14.138-5.595 1.139-8.598" id="svg-layer-26" style="pointer-events: all;"/><path fill="#9B7153" d="M335 345h1c1.13 7.23 1.145 14.353 1.133 21.66l.003 3.951q.002 4.122-.006 8.243-.006 5.257.004 10.516c.004 3.368.001 6.735-.001 10.103l.006 3.791c-.032 11.858-.032 11.858-1.139 16.736l-2 1c-.97-5.68-1.146-11.173-1.133-16.93l-.003-2.874q0-3.009.006-6.016.005-4.515-.007-9.032c-.005-13.755.046-27.524 2.137-41.148" id="svg-layer-27" style="pointer-events: all;"/><path fill="#946D51" d="M228 34h181v1l-1.724.013q-20.81.155-41.619.326-10.064.084-20.126.158-9.716.072-19.433.156-3.702.03-7.404.056-5.196.037-10.391.086l-3.076.017c-5.16.053-10.202.304-15.322.964-2.84.334-5.657.354-8.514.357l-3.536.004-3.605-.012-3.652.012-3.52-.004-3.175-.004c-2.755-.122-5.206-.585-7.903-1.129a198 198 0 0 0-6.613-.316l-3.78-.127-3.92-.12-3.978-.13Q232.854 35.148 228 35z" id="svg-layer-28" style="pointer-events: all;"/><path fill="#C6AD95" d="m119.018 311.918 2.685.06 3.034.061 3.298.082 3.359.072q5.334.116 10.668.245l7.213.158q8.863.195 17.725.404v2l-3 2-1 2c-10.176.09-20.337.16-30.5-.437l-2.08-.12c-9.495-.618-9.495-.618-12.732-3.505L116 313c1-1 1-1 3.018-1.082" id="svg-layer-29" style="pointer-events: all;"/><path fill="#976F51" d="M235 104h1q.396 11.268.782 22.536.179 5.236.364 10.471c1.485 42.139 1.485 42.139-.146 56.993h-2c-1.19-8.427-1.146-16.821-1.133-25.312l-.003-4.74q-.002-4.947.006-9.894.006-6.309-.004-12.618a5126 5126 0 0 1 0-9.775q0-2.325-.002-4.65c-.01-7.732.053-15.342 1.136-23.011" id="svg-layer-30" style="pointer-events: all;"/><path fill="#997052" d="m430.441 355.867 2.685-.003q2.794 0 5.59.006 4.262.005 8.524-.007 2.726 0 5.451.004l2.558-.006c4.363.017 8.454.265 12.751 1.139l-1 3c-4.814 1.24-9.531 1.144-14.465 1.133l-2.76.003q-2.884 0-5.767-.006-4.397-.005-8.795.007-2.808 0-5.615-.004l-2.643.006c-4.432-.017-8.592-.245-12.955-1.139v-3c5.522-.933 10.847-1.146 16.441-1.133" id="svg-layer-31" style="pointer-events: all;"/><path fill="#D9CAB6" d="M387 401h1l.025 1.681q.13 8.663.292 17.325.058 3.233.105 6.466c.046 3.098.104 6.196.164 9.294l.035 2.92.06 2.729.04 2.396c.31 2.436 1.119 4.043 2.279 6.189.414 2.36.414 2.36.625 4.75l.227 2.422L392 459l2-1-1-11h6l.184 1.934.253 2.503.247 2.497C400 456 400 456 401 457q.062 3.5 0 7l10 1v2l2 1h-9v-2l-2.555-.402-3.32-.536-3.305-.527C392 464 392 464 390 463c-3.982-12.979-3.353-26.59-3.187-40q.022-3.214.04-6.43c.033-5.19.085-10.38.147-15.57" id="svg-layer-32" style="pointer-events: all;"/><path fill="#9F7455" d="M179 79h1q.037 8.002.055 16.003.008 2.715.02 5.43c.112 23.771.112 23.771-1.075 29.567l-2 1c-2-2-2-2-2.247-3.815l.004-2.22-.01-2.518.023-2.724v-2.795q.006-2.93.024-5.858c.018-2.992.02-5.983.02-8.974l.018-5.686.003-2.718.02-2.528.011-2.222C175 87 175 87 176 84h2z" id="svg-layer-33" style="pointer-events: all;"/><path fill="#D7C8B4" d="M324 285h2l1 2c2.961.673 5.65 1.008 8.688.938C338 288 338 288 341 290c4.89 2.972 9.6 5.105 15 7v3l2 1-1.703-.434a293 293 0 0 0-7.047-1.628l-2.422-.536L345 298l1 4 3.313-.687L353 301l1.293 1.426c2.636 2.43 5.19 2.183 8.71 2.453l2.059.174c2.166.183 4.333.348 6.5.51q3.257.247 6.512.52c1.966.163 3.933.313 5.9.462C387 307 387 307 389 309c-19.758.365-19.758.365-29-2q-5.449-1.063-10.898-2.121c-4.973-1.41-4.973-1.41-7.102-3.879-.25-3.687-.25-3.687 0-7l-3.395-.734-4.418-1.016-2.236-.477c-3.37-.793-5.556-1.353-7.963-3.914L323 286z" id="svg-layer-34" style="pointer-events: all;"/><path fill="#986F52" d="M533 288h2c.578 31.478 1.1 62.953 1.125 94.438l.008 3.453q.007 4.834 0 9.668l.006 2.823c-.02 5.612-.264 11.068-1.139 16.618l-2 1z" id="svg-layer-35" style="pointer-events: all;"/><path fill="#A67857" d="M495 65h2c3.791 5.687 3.14 12.591 3.098 19.215l-.005 2.593c-.005 2.71-.018 5.42-.03 8.13q-.009 2.77-.014 5.54-.017 6.762-.049 13.522h-1l-1-14-1 28h-1l-1-12h-1q-.037-10.171-.055-20.343a4422 4422 0 0 0-.02-6.923 4285 4285 0 0 1-.023-9.941l-.015-3.135v-2.911l-.007-2.564C494 68 494 68 495 65" id="svg-layer-36" style="pointer-events: all;"/><path fill="#A17454" d="m150.375 211.813 2.092-.002c11.16.008 22.27.425 33.408 1.126l2.092.132c7.694.495 15.369 1.091 23.033 1.931l-1 3h-14v-2l-67-1v-2c7.152-1.132 14.152-1.196 21.375-1.187" id="svg-layer-37" style="pointer-events: all;"/><path fill="#8F6A4F" d="M432 491c43.215-.19 43.215-.19 59.813.438l3.202.118c5.06.22 9.988.615 14.985 1.444v1c-9.598.812-19.078 1.137-28.71 1.098l-4.044-.005q-5.243-.006-10.485-.024-5.38-.014-10.761-.02-10.5-.016-21-.049v-1l17-1-3.812.063c-5.433.008-10.789-.498-16.188-1.063z" id="svg-layer-38" style="pointer-events: all;"/><path fill="#A57756" d="M476.27 480.473c3.886.549 7.752.867 11.668 1.09l2.198.128c7.623.409 15.234.401 22.864.309v10l-2-1 1-4-3.361-.168q-6.218-.312-12.435-.632l-5.365-.27q-3.873-.195-7.745-.395l-2.394-.117c-3.653-.192-7.263-.458-10.891-.932-3.301-.421-6.518-.676-9.84-.802l-3.203-.127-3.266-.12-3.36-.13q-4.07-.159-8.14-.307l-1-2 1.88.016q4.216.029 8.433.046l2.958.026 2.842.01 2.619.016c15.578-.78 15.578-.78 16.538-.641" id="svg-layer-39" style="pointer-events: all;"/><path fill="#936D51" d="M498 80h1q.075 11.502.11 23.004.016 3.909.04 7.819c.025 3.755.037 7.511.045 11.267l.032 3.505c0 6.432-.298 12.24-2.227 18.405l-3 1c-.224-20.34.441-40.67 1-61h1l1 15z" id="svg-layer-40" style="pointer-events: all;"/><path fill="#9B7153" d="M103.411 356.886h3.275l3.517.016 22.797.05q9.5.016 19 .048l-1 3c-11.563.637-23.106 1.103-34.687 1.125l-2.926.014c-6.51-.014-12.915-.448-19.387-1.139v-2c3.203-.95 6.076-1.121 9.411-1.114" id="svg-layer-41" style="pointer-events: all;"/><path fill="#A57756" d="M308 480q18.332-.07 36.665-.104 8.511-.014 17.023-.047 8.208-.032 16.417-.039 3.137-.005 6.275-.021c2.921-.015 5.843-.017 8.764-.016l2.642-.022c5.986.02 5.986.02 8.214 2.249-29.34.757-58.65 1.136-88 1l20 1-1 2c-12.048.119-23.982-.138-36-1v-1l2.371-.148 3.067-.227c1.009-.07 2.018-.14 3.058-.21.413-.07.413-.07 2.504-.415l1-2z" id="svg-layer-42" style="pointer-events: all;"/><path fill="#D2C0AB" d="M335 117h1c1.17 5.555 1.145 10.973 1.133 16.621l.003 3.085q0 3.221-.006 6.443-.005 4.911.007 9.822 0 3.138-.004 6.275l.006 2.949c-.017 5.024-.088 9.88-1.139 14.805l-2 1c-1.07-3.21-1.13-5.525-1.133-8.898l-.006-3.613.014-3.864.008-3.94c.066-13.596.287-27.198 2.117-40.685" id="svg-layer-43" style="pointer-events: all;"/><path fill="#D7C8B4" d="M494 89q.254 7.23.482 14.46.08 2.453.166 4.907c.587 16.735.587 16.735-.648 24.633l-3-3-2 1q-.149-7.766-.22-15.533-.03-2.641-.082-5.282a621 621 0 0 1-.089-7.603l-.062-2.374c-.002-3.848.304-5.978 2.415-9.244C493 89 493 89 494 89M218 289l1 2 11-2c-1.265 3.794-2.7 4.8-6 7-3.312.75-3.312.75-6 1v-2l4-1-6 1v7c-5.362 2.556-10.326 3.825-16.187 4.688l-2.515.385c-6.454.934-12.777 1.278-19.298.927l1-2c2.712-.487 2.712-.487 6.3-.816 1.288-.125 2.575-.25 3.901-.377l4.112-.37q3.994-.372 7.988-.753l3.599-.327c2.47-.284 4.718-.668 7.1-1.357v-2l-10 2 1-3 4-1 1-3c1.777-.844 1.777-.844 3.938-1.5 3.482-1.062 3.904-1.263 6.062-4.5" id="svg-layer-44" style="pointer-events: all;"/><path fill="#997052" d="M465 479v2c-3.075 1.025-5.196 1.133-8.418 1.145l-3.357.02-3.627.003-3.725.01q-3.903.007-7.805.007c-3.986 0-7.971.02-11.957.04q-3.787.005-7.576.005l-3.62.022-3.368-.01-2.96.005c-2.665-.254-4.304-.887-6.587-2.247 21.44-2.853 41.562-4.11 63-1M61 67h1v67l-2 1c-1.001-4.308-1.322-8.597-1.562-13l-.127-2.26c-.889-16.988-.889-16.988.18-22.077.518-2.708.698-5.253.79-8.007l.114-3.027.105-3.129q.104-3.078.219-6.156l.092-2.744c.19-2.605.622-5.053 1.189-7.6" id="svg-layer-45" style="pointer-events: all;"/><path fill="#D9CAB6" d="M485 456c1.04 3.38 1.157 6.474 1 10-3.16 3.16-11.943 2.327-16.426 2.559-.407.02-.407.02-2.467.128-10.76.502-21.525.42-32.295.375q-3.195-.008-6.388-.013-7.712-.017-15.424-.049v-2l3.61-.06c22.52-.387 44.954-.826 67.39-2.94l-.062-2.875C484 458 484 458 485 456" id="svg-layer-46" style="pointer-events: all;"/><path fill="#9F7354" d="M61 399c.793 4.144 1.08 7.973 1 12.188-.096 11.945.511 23.879 1 35.812l-3 1c-1.516-1.516-1.214-2.913-1.316-5.031l-.128-2.613-.118-2.856-.13-2.922C57.852 423.055 57.907 411.53 58 400c2-1 2-1 3-1" id="svg-layer-47" style="pointer-events: all;"/><path fill="#D7C8B4" d="m366 312 83 1 1 5c-6.068 1.084-10.101.79-16-1v-1l10-1-73-1v2l2.266.148 2.984.227c.975.07 1.95.14 2.953.21 2.693.4 4.467 1.05 6.797 2.415-3.246 1.623-6.638.547-10.125.063l-2.285-.303q-2.796-.373-5.59-.76z" id="svg-layer-48" style="pointer-events: all;"/><path fill="#976F52" d="M106 304h88c-8.333 4.166-18.707 3.151-27.879 3.133l-3.31.003q-3.444 0-6.89-.006-5.176-.005-10.353.007c-12.889.003-25.706-.283-38.568-1.137z" id="svg-layer-49" style="pointer-events: all;"/><path fill="#CEB9A3" d="M59 243h2c1.611 4.254 2.24 7.733 2.195 12.273l-.02 3.497-.05 3.605-.027 3.676Q63.062 270.526 63 275l-4 2c-3.364-3.364-2.084-13.594-2.125-18.125.127-13.877.127-13.877 2.125-15.875" id="svg-layer-50" style="pointer-events: all;"/><path fill="#D7C8B4" d="M72 276h1l.262 2.336.425 3.039.387 3.023C75 287 75 287 77.582 288.352L80 289v-5h3l1 6 1.691.313c3.652 1.087 6.589 3.264 9.774 5.312 2.562 1.39 4.666 1.964 7.535 2.375l-1 3h-3v-2h-7l-1 3 24 4v1c-18.003.61-18.003.61-24.883-3.883C88 301 88 301 87.875 297.875L88 295c-3.803-2.535-7.027-2.64-11.504-3.145C74 291 74 291 72.668 288.758c-.682-2.814-.87-5.182-.793-8.07l.055-2.676zM167 462v3c-20.638 4.69-40.882 5.31-62 5v-2c2.762-1.38 5.071-1.181 8.16-1.246l3.82-.096 2.022-.046c11.764-.282 23.347-.852 34.998-2.612l3.906-.574q4.552-.684 9.094-1.426M377 83h2c1.005 7.484 1.15 14.83 1.125 22.375l.012 3.5c-.008 7.097-.352 14.071-1.137 21.125-2-1-2-1-2.617-2.82-.625-3.56-.525-7.14-.516-10.743l-.003-2.51q0-2.622.006-5.244.005-4.01-.007-8.019 0-2.55.004-5.102l-.006-2.418c.015-3.551.183-6.727 1.139-10.144" id="svg-layer-51" style="pointer-events: all;"/><path fill="#8E694F" d="m534 415 2 1c.206 49.759.206 49.759-1 71l-2 1q-.034-14.055-.052-28.111-.007-6.525-.023-13.052-.016-6.293-.02-12.585a2190 2190 0 0 0-.01-4.812q-.01-3.36-.009-6.717l-.006-3.87C533 416 533 416 534 415" id="svg-layer-52" style="pointer-events: all;"/><path fill="#906B50" d="M324 429h1q.04 4.094.063 8.188l.025 2.33c.017 3.967-.102 7.608-1.088 11.482l-3-1 1.063 1.625c1.25 3.168.77 5.112-.063 8.375l-2 3h-3v-9h-4c2.151-8.439 2.151-8.439 5-12 3.188-1.312 3.188-1.312 6-2z" id="svg-layer-53" style="pointer-events: all;"/><path fill="#86644B" d="M132 215q11.631-.034 23.262-.052 5.4-.007 10.801-.023 5.213-.016 10.427-.02 2.955-.005 5.909-.018h3.64l3.202-.007c2.426.105 4.445.42 6.759 1.12v2c-21.347.202-42.664-.385-64-1z" id="svg-layer-54" style="pointer-events: all;"/><path fill="#926C50" d="M407 157c6.766-.114 13.288.12 20 1v1h41l-8-1v-1q3.625-.04 7.25-.062l2.066-.026c3.377-.016 6.457.032 9.684 1.088l-1 3q-12.36.035-24.723.052-5.74.007-11.48.023-5.544.016-11.088.02-2.111.003-4.222.01c-1.977.008-3.954.008-5.93.009l-3.406.006c-3.13-.12-6.076-.535-9.151-1.12z" id="svg-layer-55" style="pointer-events: all;"/><path fill="#8C684E" d="m178.658 491.978 2.249.03c2.435.032 4.87.073 7.304.113l5.086.072q6.673.094 13.346.202 6.818.104 13.634.2 13.362.195 26.723.405v1q-18.031.259-36.062.5l-2.686.036c-28.752.383-57.497.612-86.252.464v-1l3.852-.076q7.095-.142 14.19-.296 3.068-.065 6.134-.125 4.416-.088 8.832-.187l2.756-.05 2.608-.06 2.274-.048c2.354-.158 2.354-.158 5.165-.67 3.643-.558 7.175-.579 10.847-.51" id="svg-layer-56" style="pointer-events: all;"/><path fill="#D9C8B3" d="m387 132 4 4 1.688-1.062c2.85-1.156 4.397-.748 7.312.062l-1 9h4v4l-2 2c-9.94-2.413-9.94-2.413-12.398-6.094-1.318-3.914-2.003-7.764-1.602-11.906" id="svg-layer-57" style="pointer-events: all;"/><path fill="#D7C8B4" d="M295 230h1c.108 1.915.186 3.833.25 5.75l.14 3.234c-.39 3.016-.39 3.016-2.109 5.36-2.553 1.854-3.912 2.227-7.031 2.406l-2.648.156L282 247l-2.29.156c-3.224.145-5.355.039-8.21-1.531C270 244 270 244 270 242h-6c-2.037-4.074-2.026-6.59-1-11l2 1c.633 2.066.633 2.066 1.125 4.563l.508 2.503L267 241c3.75.226 7.5.428 11.25.625l3.223.195 3.105.157 2.857.158c2.752-.145 4.29-.595 6.565-2.135.61-2.383.61-2.383.75-5.125l.172-2.758zM495 237h3c1.032 7.626 1.15 15.123 1.125 22.813l.012 3.619c-.023 20.897-.023 20.897-3.137 25.568h-2c-1.502-3.003-1.093-5.79-1.062-9.125l.027-3.883L493 273l.938 1.938C495 277 495 277 496 278c.797-6.585 1.108-13.123 1.125-19.75l.014-2.146c-.013-4.465-.412-8.698-1.139-13.104h-1l-1 21h-1c-.058-3.75-.094-7.5-.125-11.25-.017-1.063-.034-2.127-.05-3.223l-.02-3.105-.032-2.857c.236-2.665.87-4.284 2.227-6.565" id="svg-layer-58" style="pointer-events: all;"/><path fill="#906A50" d="m495 397 2 1q.113 10.86.165 21.722.022 3.692.061 7.382c.037 3.548.054 7.095.067 10.642.015 1.091.03 2.182.047 3.306.001 6.539-.8 11.903-3.34 17.948h-2l.43-1.988c2.868-15.148 2.516-29.9 1.698-45.23-.492-10.69-.492-10.69.872-14.782" id="svg-layer-59" style="pointer-events: all;"/><path fill="#926C50" d="m392 124 2 1 .813 3.438c1.187 3.562 1.187 3.562 3.812 5L401 134v2l4 2v5c2.763.597 5.16 1 8 1l1 6c-4.824.193-8.496-.243-13-2l2-4h-4c-.125-6.75-.125-6.75 1-9l-8-1z" id="svg-layer-60" style="pointer-events: all;"/><path fill="#D7C8B4" d="M139 473c1.77-.081 3.541-.14 5.313-.187l2.988-.106c2.699.293 2.699.293 4.554 1.742C153 476 153 476 153 477a422 422 0 0 0 34 3c-3.27 1.96-5.55 2.199-9.332 2.012l-3.15-.14-3.33-.185-3.396-.166q-3.356-.168-6.71-.352a907 907 0 0 0-7.926-.396c-10.447-.555-10.447-.555-14.156-2.773l3-1v-2z" id="svg-layer-61" style="pointer-events: all;"/><path fill="#A67857" d="m495 242 2 1c1.03 5.087 1.16 10.085 1.125 15.25l-.01 2.245c-.15 16.058-.15 16.058-3.115 20.505-2.388-7.109-2.106-13.962-1.779-21.366.092-2.09.166-4.181.238-6.273.396-10.216.396-10.216 1.541-11.361" id="svg-layer-62" style="pointer-events: all;"/><path fill="#D7C8B4" d="M100 217c3.813.138 7.625.287 11.438.438l3.298.119 3.135.127 2.904.11C123 218 123 218 124 219c1.413.156 2.834.25 4.254.316l2.588.127 2.72.12 2.733.13q3.352.16 6.705.307v2l-3.395-.035-4.417-.028-2.237-.025c-3.25-.015-5.845.053-8.951 1.088a80 80 0 0 1-4.23.316l-2.432.127-2.525.12-2.561.13q-3.126.158-6.252.307l1-4-7-2z" id="svg-layer-63" style="pointer-events: all;"/><path fill="#936D51" d="M274 290c1.437-.081 2.874-.14 4.313-.187l2.425-.106c2.74.355 3.554 1.187 5.262 3.293-1.635 1.953-2.556 2.906-5.086 3.441l-2.289.122c-3.586.279-6.314.976-9.625 2.437h-3l-1 2c-.125-6.625-.125-6.625 1-10 4.75-.125 4.75-.125 7 1z" id="svg-layer-64" style="pointer-events: all;"/><path fill="#DCCDB8" d="m341 230-1 9c-3.664 1.648-6.812 2.336-10.812 2.625l-2.958.227L324 242l1.46-1.281C327 239 327 239 327.626 235.5 329 232 329 232 331.02 230.844c6.112-2.133 6.112-2.133 9.98-.844" id="svg-layer-65" style="pointer-events: all;"/><path fill="#D7C8B4" d="m115 306 63 1v1c-6.677.86-13.186 1.147-19.914 1.133l-3.072.003q-3.195 0-6.389-.006-4.871-.005-9.742.007-3.117 0-6.235-.004l-2.92.006c-5.018-.017-9.782-.281-14.728-1.139z" id="svg-layer-66" style="pointer-events: all;"/><path fill="#8D694F" d="m475 144 1.875.563C479 145 479 145 481 144l-1 5c-3.606 1.128-6.971 1.114-10.734 1.098l-3.926-.01-4.09-.025q-2.069-.008-4.137-.014A3875 3875 0 0 1 447 150v-3c6.68-1.272 16.846-3.077 23 0v-2h2v2h2z" id="svg-layer-67" style="pointer-events: all;"/><path fill="#906B50" d="M110 34q11.517-.038 23.035-.055 3.9-.008 7.801-.02c16.75-.055 33.436.195 50.164 1.075v1h-81z" id="svg-layer-68" style="pointer-events: all;"/><path fill="#966E51" d="M388 304v1q7.608.037 15.216.055 2.588.008 5.177.02c2.48.013 4.96.018 7.439.023l2.34.015c3.211 0 5.758-.09 8.828-1.113 4.047.45 8.018 1.155 12 2v1c-6.094.89-12.006 1.147-18.16 1.133l-2.875.003q-2.991 0-5.983-.006-4.558-.005-9.117.007-2.919 0-5.838-.004l-2.73.006c-4.873-.018-9.493-.317-14.297-1.139v-2c2.928-.976 4.956-1.082 8-1" id="svg-layer-69" style="pointer-events: all;"/><path fill="#946D51" d="M129 213v2h3v2q-7.366.075-14.734.11-2.505.016-5.01.04c-2.404.025-4.806.036-7.21.045l-2.257.032c-3.758 0-6.6-.123-9.789-2.227 12.06-1.384 23.854-2.305 36-2M507 35l5 1v110h-1l-1-108-3-1z" id="svg-layer-70" style="pointer-events: all;"/><path fill="#DECFBB" d="M251 305c2.881 1.44 4.686 2.51 6.438 5.25.756 3.699-.199 6.238-1.438 9.75-6.75.125-6.75.125-9-1l-1 2c-.219-3.919.42-6.643 1.938-10.25l1.09-2.64C250 306 250 306 251 305" id="svg-layer-71" style="pointer-events: all;"/><path fill="#A47756" d="M106.79 34.758c6.473.488 12.972.344 19.46.304q2.159-.008 4.316-.013Q135.783 35.032 141 35l1 2q-11.579.038-23.157.055-3.93.008-7.861.02-5.682.017-11.365.023l-3.493.015c-8.08 0-16.073-.442-24.124-1.113v-1c4.083-.2 8.166-.383 12.25-.562l3.453-.17c6.458-.276 12.658-.14 19.087.49" id="svg-layer-72" style="pointer-events: all;"/><path fill="#D7C8B4" d="m186.875 217.875 2.953.027q3.586.036 7.172.098l-1 5 3 1q-5.955-.354-11.908-.745-2.026-.13-4.054-.25c-1.939-.115-3.877-.243-5.815-.372l-3.54-.222L171 222l-1-2c5.634-2.41 10.869-2.23 16.875-2.125M71 450h1l1 11c7.545 2.515 14.407 3.552 22.324 4.123l2.473.217 2.23.168c2.414.602 3.385 1.62 4.973 3.492q-4.125.04-8.25.063l-2.355.025-2.286.01-2.094.016c-2.123-.12-3.97-.544-6.015-1.114-2.291-.508-4.585-1.005-6.879-1.5C75 466 75 466 72 465a508 508 0 0 1-1.062-5.25l-.598-2.953c-.324-2.665-.195-4.286.66-6.797M188 312v2h-3l-1 3c-5.13.684-10.198 1.124-15.375 1.25l-3.023.078C163 318 163 318 161.148 316.484L160 315h7v-2c6.968-1.327 13.93-1.088 21-1M475 156v1c-55.036 1.7-55.036 1.7-68 0v-1c22.708-.861 45.309-1.665 68 0" id="svg-layer-73" style="pointer-events: all;"/><path fill="#63503E" d="m449.75 156.875 2.687-.014c5.27.013 10.37.202 15.563 1.139l1 2h-43l1-2c7.329-1.53 15.294-1.098 22.75-1.125" id="svg-layer-74" style="pointer-events: all;"/><path fill="#A57756" d="M404 481h36l1 2-2.46.076q-5.55.176-11.103.361l-3.869.12-3.76.127-3.443.11c-3.497.214-6.9.693-10.365 1.206-2.145.063-4.292.087-6.437.063l-3.184-.028L394 485l-1-2h11z" id="svg-layer-75" style="pointer-events: all;"/><path fill="#D7C8B4" d="M335 339h2c1.16 3.481 1.12 6.185 1.114 9.858v2.1c0 2.289-.009 4.577-.016 6.866l-.005 4.763q-.006 6.266-.024 12.532-.014 6.394-.02 12.79-.016 12.545-.049 25.091h-1l-1-60-2-1a701 701 0 0 1-.062-4.812l-.036-2.708C334 342 334 342 335 339" id="svg-layer-76" style="pointer-events: all;"/><path fill="#8E6A4F" d="m59.867 491.867 2.18-.003q2.268 0 4.534.006 3.422.005 6.845-.007c7.583-.003 15.038.193 22.574 1.137v1c-12.413.625-24.82 1.111-37.25 1.188l-3.08.039-2.873.003-2.52.013c-2.493-.266-4.122-.994-6.277-2.243 5.335-.748 10.468-1.128 15.867-1.133" id="svg-layer-77" style="pointer-events: all;"/><path fill="#D7C8B4" d="m467 298 1 3 10-3 1 4c-9.237 5.11-20.623 5.558-30.937 6.188l-3.573.248c-5.175.348-10.3.605-15.49.564 2.65-2.65 4.115-2.353 7.82-2.562l3.563-.227 3.742-.211c14.665-.842 14.665-.842 21.875-3zM310 269l1 3c2.063 1.188 2.063 1.188 4 2v1l2.563.375c3.59.653 6.945 1.577 10.437 2.625l1 5h-4l-1 2-2-2v-3l-2.117-.184-2.758-.253-2.742-.247C312 279 312 279 310 278a129 129 0 0 1-2-7zM233 373h1l1 46h2v4l-3-1c-4.449-8.898-2.105-24.84-2.125-34.5l-.014-3.96.006-3.696.004-3.338C232 374 232 374 233 373" id="svg-layer-78" style="pointer-events: all;"/><path fill="#946D51" d="M451 34q11.481-.075 22.961-.11 3.909-.016 7.817-.04c3.738-.025 7.476-.036 11.214-.045l3.548-.032 6.17-.014C505 34 505 34 507 36h-56z" id="svg-layer-79" style="pointer-events: all;"/><path fill="#A57757" d="m494 385 2 1c1.686 5.399 2.281 10.342 2.195 16l-.008 2.185c-.011 2.272-.036 4.543-.062 6.815q-.016 2.33-.027 4.66-.035 5.67-.098 11.34h-1l-1-29-2 5h-1q-.04-4.22-.062-8.437l-.026-2.432c-.009-2.044.036-4.088.088-6.131z" id="svg-layer-80" style="pointer-events: all;"/><path fill="#946D51" d="M409 34h42l-1 2h-41z" id="svg-layer-81" style="pointer-events: all;"/><path fill="#D7C8B4" d="m320 479 70 1v1h-70zM236 331c2 3 2 3 1.688 5.836L237 340c-2.014 10.981-2.578 21.86-3 33l-2-1q.18-6.162.372-12.323.065-2.09.125-4.18c.629-21.623.629-21.623 3.503-24.497" id="svg-layer-82" style="pointer-events: all;"/><path fill="#DCCDB8" d="m324 242 1 2-1 3-10 1-1 6 4 1-2.375.25c-2.625.75-2.625.75-3.937 2.813L310 260c-1.173-4.71-.929-8.134.5-12.75 2.103-3.155 4.059-3.485 7.688-4.375 1.93-.334 3.867-.64 5.812-.875" id="svg-layer-83" style="pointer-events: all;"/><path fill="#D7C8B4" d="M187 480h37c-2 2-2 2-5.44 2.227q-2.205-.001-4.412-.032l-2.345-.008c-2.476-.011-4.952-.037-7.428-.062q-2.515-.016-5.031-.027-6.173-.035-12.344-.098zM386 318h48v1c-5.892.855-11.583 1.134-17.531 1.098l-2.656-.005c-2.771-.005-5.542-.018-8.313-.03q-2.835-.008-5.672-.014-6.915-.017-13.828-.049zM389 308h40v1c-8.743 1.011-17.393 1.12-26.187 1.063q-2.022-.008-4.042-.014-4.885-.018-9.771-.049zM41 78h2c.104 14.037.184 28.003-1 42h-1z" id="svg-layer-84" style="pointer-events: all;"/><path fill="#986F52" d="M534 240h1c.206 34.902.206 34.902-1 48h-1a4773 4773 0 0 1-.055-13.757q-.008-2.33-.02-4.66c-.055-9.918.195-19.696 1.075-29.583" id="svg-layer-85" style="pointer-events: all;"/><path fill="#D7C8B4" d="M337 413h1c-.08 3.105-.194 6.209-.312 9.313l-.069 2.67-.107 2.568-.08 2.364c-.525 2.534-1.473 3.454-3.432 5.085-.854-7.028-1.121-13.923-1-21h1l1 6z" id="svg-layer-86" style="pointer-events: all;"/></svg>