<svg xmlns="http://www.w3.org/2000/svg" viewBox="0 0 536 560"><path fill="none" d="M0 0h536v560H0zm44.758 53.086c-8.092 8.81-7.913 17.725-7.885 29.224l-.005 3.038c-.004 3.347 0 6.694.003 10.041l-.006 7.246q-.005 8.85 0 17.698.003 7.273 0 14.545v2.108l-.001 4.249c-.005 14.934 0 29.869.006 44.803l.001 2.315.007 25.41c.025 138.794.025 138.794.544 206.678l.045 6.192q.081 11.4.186 22.802.03 3.263.056 6.527c.268 32.283.268 32.283 9.041 40.913l1.86 1.68C50 500 50 500 50 502c6.885 3.959 13.668 4.123 21.44 4.134l2.144.007q3.536.009 7.072.006l5.137.011q7.045.014 14.089.017 7.602.007 15.205.022c12.23.02 24.462.03 36.693.039l17.284.015a112777 112777 0 0 0 72.352.044l3.74.002c20.01.008 40.021.033 60.032.066q30.821.049 61.642.054c11.536.002 23.071.011 34.607.036q14.73.034 29.458.02c5.01-.004 10.02-.002 15.029.017q6.881.026 13.762.001a580 580 0 0 1 4.974.014c8.633.058 15.618-.22 23.34-4.505 3.062-.75 3.062-.75 5-1l.813-2.5c1.187-3.5 1.187-3.5 2.739-6.765 2.386-6.405 1.849-13.262 1.804-19.996q.001-2.332.007-4.665a2446 2446 0 0 0-.026-12.729c-.015-4.536-.013-9.073-.013-13.61q-.008-13.193-.05-26.387-.029-10.697-.043-21.395c-.09-68.45-.451-136.896-1.13-205.342q-.135-14.028-.24-28.055-.101-12.992-.22-25.983-.066-7.31-.12-14.617c-.409-56.407-.409-56.407-10.834-67.831-7.264-6.696-14.827-8.25-24.542-8.25l-2.025-.005c-2.237-.004-4.475 0-6.712.003l-4.863-.005q-6.68-.005-13.36.001c-4.805.003-9.609-.001-14.412-.004q-14.12-.005-28.237 0-11.48.003-22.959.001h-3.3l-6.636-.001q-31.133-.004-62.264.006-26.696.006-53.39-.001a152143 152143 0 0 0-71.917-.003q-11.455 0-22.912-.003-13.976-.005-27.95.003-7.127.005-14.253 0-6.534-.004-13.067.004-2.355.001-4.708-.002c-32.635-.046-32.635-.046-43.422 10.217" id="svg-layer-0" style="pointer-events: all; fill: none;"/><path fill="#566385" d="M251.75 66.938c4.544.825 8.652 1.162 13.25 1.062l2 1c.525 2.105.941 4.237 1.313 6.375 3.53 18.855 8.923 35.92 18.708 52.478 2.342 3.966 4.417 8 6.416 12.147 3.642 7.399 7.96 14.175 12.563 21l1.777 2.645c12.328 17.954 26.36 35.331 44.595 47.572 2.43 1.65 4.809 3.356 7.19 5.076 5.585 3.913 11.43 7.181 17.438 10.394l3.078 1.682c6.175 3.329 12.358 6.169 18.922 8.631l5.219 2.035q2.64 1.015 5.281 2.028l2.645 1.025c5.16 1.976 10.301 3.688 15.646 5.101 2.209.811 2.209.811 4.236 2.332 2.129 1.596 3.553 2.069 6.141 2.577l2.435.487 2.584.477 2.66.513c8.339 1.559 16.714 2.594 25.153 3.425 1.063 3.781 1.063 3.781.5 5.75-.5 2.25-.5 2.25.125 5.563.639 4.315-.057 8.32-.875 12.562l-.369 2.02c-1.01 4.857-1.01 4.857-4.381 7.105-2.74.368-5.436.648-8.187.875-12.492 1.233-23.823 3.77-35.153 9.371-2.804 1.38-5.649 2.602-8.539 3.79-9.46 3.89-18.416 8.019-27.144 13.367a147 147 0 0 1-13.414 7.284c-5.995 2.933-11.21 6.354-16.563 10.313a750 750 0 0 1-3.375 2.348c-6.677 4.642-12.848 9.402-18.734 15.035C333 354 333 354 331 354l-.75 1.703c-1.462 2.687-3.242 4.738-5.25 7.047-25.674 31.105-38.748 74.464-39.622 114.397l-.07 2.537-.037 2.236c-.308 2.366-1.1 4.015-2.271 6.08l2 1q-3.657.04-7.312.063l-2.092.025c-3.144.015-5.59-.086-8.596-1.088l-.262-3.05c-2.447-25.635-11.543-50.33-23.675-72.947a386 386 0 0 1-3.5-6.808c-4.558-8.952-9.26-17.325-15.563-25.195l-1.887-2.426c-5.094-6.478-10.415-12.774-15.784-19.025a910 910 0 0 1-3.645-4.283C197.325 348.092 191.502 342.934 185 338l-1.99-1.53c-9.542-7.288-19.045-13.546-29.973-18.533a338 338 0 0 1-6.428-3.058q-2.21-1.065-4.422-2.129l-1.99-.962c-10.805-5.102-22-8.137-33.572-10.913q-3.237-.78-6.472-1.57-2.91-.708-5.822-1.407c-2.907-.784-5.55-1.767-8.331-2.898-7.406-1.91-15.046-2.722-22.625-3.625L52 290v-32l12.125-.75c18.133-1.283 34.968-4.016 51.954-10.536C128.763 242 128.763 242 133 242v-2l1.738-.523c46.982-15.542 79.94-59.833 101.364-102.348 7.729-15.921 15.677-34.234 18.085-51.879.723-5.16.723-5.16 1.813-6.25a59 59 0 0 0 .063-4.062L256 71l-2.59-.367-3.347-.508-3.34-.492L244 69l-1-2c3.5-1.167 5.164-.759 8.75-.062" id="svg-layer-1" style="pointer-events: all;"/><path fill="#54607F" d="M54 300c7.178.296 13.81.6 20.547 3.184 3.172 1.055 6.356 1.635 9.64 2.253 6.337 1.208 12.445 2.81 18.633 4.649 2.8.805 5.583 1.492 8.43 2.101C115 313 115 313 117 314c3.692 1.154 3.692 1.154 6 0 2.063.162 2.063.162 4.57.559l2.715.42 2.84.459 2.863.447q3.507.55 7.012 1.115v1h-14l3.55 1.32c12.388 4.669 23.585 10.05 34.45 17.68l2.652 1.84c19.897 14.092 36.61 32.616 49.118 53.488a286 286 0 0 0 5.117 8.156c8.57 13.258 15.961 26.355 21.031 41.344a142 142 0 0 0 3.144 8.297c1.484 3.622 2.74 7.273 3.938 11 1.141 3.522 2.356 6.75 4.125 10 2.307 4.35 3.431 8.977 3.875 13.875l-1 3h11c-2 2-2 2-4.372 2.244-.5 0-.5 0-3.036-.008l-3.48.005-3.836-.026q-2.013-.004-4.026-.005a2353 2353 0 0 1-10.952-.044q-3.42-.02-6.842-.034-11.933-.051-23.865-.134c-7.416-.05-14.832-.075-22.249-.088a3600 3600 0 0 1-19.095-.09c-3.803-.026-7.605-.045-11.408-.045a916 916 0 0 1-10.733-.066c-1.937-.017-3.875-.01-5.812-.001-9.472-.15-9.472-.15-12.57-3.098-1.783-2.7-2.393-4.221-2.537-7.423l-.144-2.394L125 475h-3l-1 2-2-5h-8l2 1-1 4v-2l-5 1-1-3h-2v2c-2.169-.506-4-1-6-2l.473 2.484.59 3.266.597 3.234C100 485 100 485 99 489H82l3-1v-3l-1.875-.312C81 484 81 484 79 481v-3h-2l-2-2c-3.125-.125-3.125-.125-6 0l-.312 2.125c-.782 3.266-2.109 5.922-3.688 8.875l-3-1 1-8-2-1v-4l-4 1v-2l4-1-1-8-4-1 3 3h-4v22l14 1v1c-1.89.305-3.788.567-5.687.813l-3.2.457C57 490 57 490 54.16 488.219c-3.166-4.718-2.979-8.962-3.035-14.531l-.102-3.053c-.105-4.058-.138-7.883.478-11.905.817-6.42.613-12.884.58-19.344l-.009-4.418q-.01-4.736-.027-9.471c-.019-4.992-.028-9.984-.036-14.976q-.037-21.285-.105-42.572-.037-11.772-.052-23.543-.01-7.444-.044-14.89-.016-4.624-.016-9.25a860 860 0 0 0-.017-4.29c-.012-1.952-.01-3.903-.009-5.854l-.01-3.31c.242-2.794.798-4.439 2.244-6.812" id="svg-layer-2" style="pointer-events: all;"/><path fill="#566384" d="m473 300-6 3 2.442 1.128C472 306 472 306 472.752 308.646l.174 3.31.225 3.903q.083 2.197.161 4.395l.217 4.723c1.104 26.622.603 53.321.471 79.96-.044 9.071-.085 18.142-.107 27.213a3276 3276 0 0 1-.068 13.547q-.011 3.554-.02 7.107l-.032 3.173c0 6.517.658 12.689 1.796 19.108.574 3.882 1.184 8.3-.569 11.915-5.397 3.586-10.344 3.422-16.586 3.363l-3.078.002a967 967 0 0 1-6.43-.029 1058 1058 0 0 0-9.789-.014q-3.133-.007-6.265-.021l-2.934.003c-5.639-.059-10.505-.705-15.918-2.304-1.15-4.028-.963-6.281 1-10l2-1-3-2 1-4-3-1-1 3-3-1-1-4-3-1-1 2h-5l-1 20c-36.71.858-73.286 1.055-110 0v-1h6l.043-2.644c.417-10.738 2.818-20.243 5.957-30.481l1.506-5.023a2198 2198 0 0 1 3.053-10.083 632 632 0 0 0 3.233-11.011c4.447-15.635 9.82-29.803 18.208-43.758l1.09-1.835C333.78 370.4 344.751 356.645 357 348h2v-2a145 145 0 0 1 7.25-5l2.066-1.367c5.096-3.345 9.844-5.775 15.684-7.633v-2c3.287-1.758 6.58-3.505 9.875-5.25l2.781-1.488C412.298 315 412.298 315 418 315l1-3a89 89 0 0 1 7.813-3.5l2.358-.938c9.777-3.809 19.479-5.756 29.829-7.312l2.792-.425 2.646-.372 2.37-.339c2.286-.119 4.015.215 6.192.886m-40 177-1 3-3 1c0 4 0 4 1 7h12v-6l-5-1-1-4z" id="svg-layer-3" style="pointer-events: all;"/><path fill="#556283" d="M202.346 68.931q6.56.014 13.117.02 12.769.016 25.537.049c1.181 3.543.922 5.97.625 9.688-.1 1.243-.199 2.487-.3 3.769-.355 3.865-.787 7.7-1.325 11.543l-2-2-.62 1.958C229.36 118.957 218.83 142.26 204 164l-1.48 2.208C195.407 176.803 187.673 186.637 179 196l-1.793 1.947c-8.074 8.67-16.309 15.757-26.419 21.927-1.708 1.076-3.356 2.246-4.999 3.419-11.961 8.414-25.774 12.771-39.582 17.277a70 70 0 0 0-7.602 2.985c-4.69 1.88-9.324 2.726-14.293 3.57l-2.72.512c-6.662 1.158-13.27 1.613-20.013 1.917l-2.799.133q-3.39.16-6.78.313a57811 57811 0 0 1-.052-47.42q-.007-11.015-.023-22.031c-.088-56.71-.088-56.71.516-77.877l.06-2.12c.668-22.89.668-22.89 2.499-26.552 1.992-.29 3.987-.573 5.992-.754C63 73 63 73 66 72c2.46-.23 4.897-.404 7.363-.531l2.359-.126c12.477-.607 24.976-.675 37.466-.843a9126 9126 0 0 0 19.097-.277 616 616 0 0 0 21.645-.75c16.123-.81 32.278-.584 48.416-.542" id="svg-layer-4" style="pointer-events: all;"/><path fill="#566385" d="m279 69 2 1c1.869-.089 3.734-.244 5.596-.43 7.96-.678 15.887-.71 23.868-.7q2.416-.001 4.833-.005 6.506-.005 13.01 0c4.558.003 9.117 0 13.675 0q11.473-.004 22.945.005 13.233.007 26.467-.002 11.401-.007 22.803-.003 6.793.003 13.586-.001 6.384-.004 12.767.005 2.333 0 4.666-.002C464.14 68.843 464.14 68.843 469 70l1 2 3 1c.196 83.431.196 83.431-.406 121.833l-.091 6.066c-.591 38.876-.591 38.876-3.503 48.101-11.107-.194-20.546-2.512-31-6l-2.368-.774C412.672 234.677 390.322 225.17 370 212l-2.508-1.605c-20.58-13.755-38.783-32.351-50.656-54.086-1.706-3.074-3.532-5.998-5.461-8.934-3.601-5.574-6.498-11.403-9.375-17.375q-1.183-2.377-2.375-4.75c-.4-.806-.802-1.611-1.215-2.441a706 706 0 0 0-3.289-6.461A269 269 0 0 1 283 89l-1 1c.498 2.427 1.06 4.793 1.688 7.188l.551 2.165c1.529 5.931 3.237 11.8 5.027 17.659.689 2.804.883 5.118.734 7.988-2.666-2.32-3.693-4.337-4.79-7.676l-.913-2.76-.922-2.876-.945-2.842c-2.219-6.785-3.563-12.938-3.528-20.12l.01-3.496.026-3.605.013-3.676q.018-4.474.049-8.949" id="svg-layer-5" style="pointer-events: all;"/><path fill="#1B1D22" d="m48.82 54.805 3.305.07 3.32.055L58 55l1 3h2l1 2 5-2v5l3.783-.007q17.615-.03 35.229-.045 9.056-.007 18.113-.023 8.734-.016 17.467-.02 3.338-.003 6.677-.01 4.662-.01 9.324-.009l2.812-.01 2.558.004 2.23-.003C167 63 167 63 169 64a99 99 0 0 0 5.27.027l3.193-.037q3.332-.052 6.664-.117l3.205-.033 2.929-.051c2.934.226 5.08.984 7.739 2.211v1l-2.026.041q-24.427.499-48.852 1.029-11.812.257-23.625.497-10.297.21-20.595.438-5.45.121-10.901.228c-4.06.078-8.12.17-12.18.265l-3.637.063C70.402 69.706 65.478 70.144 60 72c-2.938.125-2.938.125-5 0-1.482 5.314-2.248 9.916-2.234 15.473l-.003 2.145c0 2.349.013 4.697.026 7.046l.004 5.084q.005 5.466.026 10.93c.023 5.793.03 11.587.037 17.38q.018 13.8.057 27.598.066 24.567.1 49.134.013 8.587.04 17.173c.053 16.945.04 33.878-.492 50.816l-.119 3.872c-.314 8.754-.314 8.754-.954 11.721-.65 3.498-.626 6.941-.615 10.485l-.005 2.378c-.004 2.626 0 5.252.003 7.878l-.006 5.653q-.005 7.673 0 15.347c.003 5.352 0 10.704 0 16.056q-.004 13.483.005 26.965.007 15.59-.002 31.18-.007 13.382-.003 26.765.003 7.993-.001 15.988-.004 7.515.005 15.03 0 2.76-.002 5.518-.002 3.765.006 7.528l-.007 2.21c.014 3.675.259 7.073 1.134 10.647 7.012.812 14.03 1.463 21.063 2.063l3.2.275q3.87.332 7.737.662l1-3 2.823-.013q34.109-.155 68.216-.326 16.495-.083 32.99-.158 14.388-.065 28.775-.14 7.609-.04 15.217-.072 7.183-.03 14.365-.071 2.616-.014 5.231-.023c9.371-.033 18.684-.278 28.038-.853 6.402-.38 12.765-.418 19.178-.29l3.487.054q5.603.092 11.203.197l7.918.131q8.257.138 16.515.288 9.46.17 18.919.325 9.207.152 18.414.313l7.738.131c12.506.211 24.998.445 37.487 1.18 5.171.3 10.306.365 15.486.327v-1l44-1-1 5 2.313-1c2.687-1 2.687-1 5.687-1l1-5-2-1 .48-2.91c.64-4.503.746-8.981.836-13.524l.063-2.66q.096-4.171.183-8.344l.131-5.685q.16-6.938.307-13.877h1l1-14-2-1h2l-.007-2.21c-.132-45.97.042-91.938.397-137.907q.056-7.396.107-14.793.071-10.062.156-20.124.03-3.759.056-7.518.037-5.156.086-10.313l.017-3.094.03-2.79.02-2.43C492 221 492 221 493 220c.23-1.347.412-2.704.563-4.062L494 212c2.205 3.308 2.26 4.364 2.303 8.217l.05 3.246.026 3.54.051 3.712c.054 3.95.094 7.898.132 11.847q.079 6.634.165 13.267.038 2.894.073 5.787c.107 7.919.295 15.829.565 23.744.736 21.587.834 43.167.873 64.765l.013 5.852q.029 13.705.041 27.41.016 15.7.077 31.399.044 12.25.048 24.499c.002 4.85.011 9.698.036 14.547q.035 6.806.018 13.613 0 2.486.02 4.97c.062 8.027.072 15.217-3.535 22.605-.957 1.982-1.496 3.834-1.956 5.98-3.287.8-4.71 1.097-8 0l-3.016 1.406c-4.805 2.208-9.517 2.071-14.73 2.106l-3.064.054c-3.21.054-6.418.088-9.627.122q-3.277.05-6.553.103-8.005.126-16.01.209v1a293875 293875 0 0 1-118.097.055h-2.527q-20.028.008-40.057.022-20.681.014-41.362.017-11.562 0-23.123.012c-30.363.028-60.718-.04-91.077-.55l-3.622-.059c-12.064-.202-24.125-.478-36.182-.907l-2.904-.087c-11.626-.457-20.868-2.122-29.436-10.394-3.951-5.166-4.988-9.97-4.985-16.377l-.011-2.123c-.01-2.342.003-4.683.016-7.025l-.01-5.095c-.009-4.662.001-9.324.014-13.987.011-5.03.005-10.06 0-15.09-.005-9.853.005-19.706.02-29.559.018-11.475.02-22.95.02-34.425q.005-30.717.042-61.432.035-29.8.04-59.6l.001-3.707.002-7.393v-3.683l.001-3.674q.007-28.403.028-56.804l.01-20.582q.006-16.329.027-32.657.011-7.46.012-14.92.002-6.832.016-13.666.003-2.467.002-4.936C38.846 63.247 38.846 63.247 44 57c2-2 2-2 4.82-2.195" id="svg-layer-6" style="pointer-events: all;"/><path fill="#2F343F" d="M478 46c5.526 3.235 11.73 7.915 13.7 14.25L492 62l-4 1-1-2v10l-1-2-2 1 .016 2.894c.142 28.715-.334 57.4-1.016 86.106h-1a159588 159588 0 0 1-.573-46.482 47919 47919 0 0 1-.242-19.667q-.048-3.82-.093-7.643l-.03-2.413a585 585 0 0 1-.04-10.944l.027-3.759.041-3.228c-.086-2.74-.465-5.2-1.09-7.864h-2v3c-3.333 2.5-4.733 3-9 3v5l3 1c-3.547 1.182-6.343 1.12-10.089 1.114h-2.201c-2.441 0-4.882-.009-7.324-.016l-5.243-.005q-5.652-.005-11.305-.018-8.945-.019-17.89-.024c-13.746-.012-27.492-.034-41.237-.056q-18.867-.031-37.735-.048-8.884-.008-17.767-.029-5.543-.01-11.087-.013a2413 2413 0 0 1-5.12-.01c-8.394-.027-16.657.05-25.002 1.105v-2h-2l-1 2-3.75.125-2.11.07C269 71 269 71 267.239 70.027c-3.318-1.523-6.709-1.457-10.3-1.59-7.583-.319-7.583-.319-10.938-1.437h-3l-1 5-1-3-2.363.092a1267 1267 0 0 1-57.176.87c-10.215-.06-20.38.195-30.587.646-14.172.608-28.354.745-42.536.944-24.208.347-24.208.347-34.592.854l-2.072.088c-3.46.195-6.64.704-9.97 1.606C58 75 58 75 55 74c-.909 10.957-1.293 21.888-1.562 32.875l-.131 5.012Q53.148 117.943 53 124h-1q-.074-9.42-.11-18.842-.016-3.202-.04-6.404c-.025-3.075-.037-6.15-.045-9.227l-.032-2.873c0-5.249.245-9.755 2.227-14.654 2.511-.837 4.469-1.228 7.063-1.5C65 70 65 70 67 69a99 99 0 0 1 5.176-.234l3.323-.08 3.662-.075 3.843-.089q5.224-.119 10.45-.23 5.457-.117 10.914-.243 10.338-.234 20.676-.457 11.767-.256 23.535-.523Q172.79 66.526 197 66c-2.745-.714-5.274-1.166-8.11-1.316l-2.285-.127-2.355-.12-2.402-.13Q178.923 64.149 176 64l-1 2v-2l-3.437.563L168 65l-1-1c-2.998-.09-5.972-.115-8.97-.098l-2.853.005q-3.077.006-6.155.018-4.866.019-9.731.024c-8.06.013-16.119.038-24.178.061q-10.203.03-20.406.046-4.801.01-9.604.032l-5.874.01-2.711.015h-2.481l-2.156.007C70 64 70 64 67 63c-.687-2.063-.687-2.063-1-4l-5 2v-3h-2l-1-2c-11.057-.782-11.057-.782-14.562 2.125L42 61l-1.75 3.313L39 67c-.821-2.33-1.171-3.546-.285-5.895C42.102 55.792 46.075 51.911 51 48l2 3c4.392.795 9.164.01 13.574-.48 16.046-1.635 32.303-1.601 48.418-1.579l2.32.002c23.457.017 46.912.284 70.366.52q9.225.092 18.449.182Q224.064 49.82 242 50v2l1.56-.496c3.206-.662 6.22-.597 9.495-.566l4.271.025 2.252.019c11.003.086 21.991.103 32.985-.42l2.548-.119c3.65-.193 7.225-.486 10.854-.953 6.026-.677 12.039-.645 18.097-.651l3.887-.015q5.252-.019 10.504-.024 3.303-.005 6.607-.012 10.401-.02 20.802-.027 11.882-.007 23.765-.05a5556 5556 0 0 1 18.516-.034c3.662-.001 7.323-.006 10.985-.025 48.075-.226 48.075-.226 61.872 5.348v-3l-3-2z" id="svg-layer-7" style="pointer-events: all;"/><path fill="#E8E7DC" d="M243 68c9.41.964 9.41.964 14 2 .055 1.375.093 2.75.125 4.125l.07 2.32C256.96 79.532 256 82.075 255 85q-.527 3.12-1 6.25c-3.056 16.986-10.87 33.735-19.002 48.873a288 288 0 0 0-3.072 5.99C224.51 160.738 215.613 174.483 205 187q-1.275 1.55-2.547 3.102A237 237 0 0 1 183 211l-1.941 1.852C169.927 222.998 157.699 230.827 144 237l-1.883.883c-3.36 1.53-5.346 2.117-9.117 2.117v2c-6.187 2.062-6.187 2.062-8.198 2.726a566 566 0 0 0-11.841 4.06c-19.863 6.99-39 8.857-59.961 10.214-.7-3.153-1-5.727-1-9l2.285-.212c25.425-2.407 25.425-2.407 35.903-4.726l2.04-.44c4.367-1.04 8.251-2.676 12.32-4.554 5.52-2.404 11.305-4.164 17.013-6.068 18.867-6.41 36.505-17.787 50.439-32l2.621-2.516c10.123-9.8 18.425-20.91 26.379-32.484l1.304-1.88c14.291-20.756 25.14-43.302 32.694-67.31 1.79-5.599 1.79-5.599 4.002-7.81-.317 12.386-2.156 23.948-5 36h-2l-5 14h-3l-1.031 2.133c-2.866 5.837-5.873 11.507-9.156 17.117-2.799 4.792-5.119 9.456-6.813 14.75l-2-1 1 3c6.886-9.934 13.055-20.089 18.775-30.736a527 527 0 0 1 3.678-6.659c8.844-15.942 11.996-28.367 11.594-46.582C239.9 83.96 240.434 75.698 243 68" id="svg-layer-8" style="pointer-events: all;"/><path fill="#EBEADE" d="M470 289v3h4l-1 7-2.516.38c-30.58 4.677-30.58 4.677-42.484 9.62l-2.848 1.133C419.19 312.62 419.19 312.62 418 315a174 174 0 0 1-7.625 3.125 161 161 0 0 0-19.727 9.385C386.18 330 386.18 330 384 330v2l-2.812 1.063c-6.444 2.756-12.491 6.726-17.899 11.16C361 346 361 346 359 346v2a82 82 0 0 1-4.5 3.625c-23.674 18.586-37.747 46.268-46 74.688l-1.398 4.705a1905 1905 0 0 0-2.781 9.462c-1.034 3.549-2.088 7.09-3.154 10.63-7.313 24.331-7.313 24.331-8.167 36.89h-10l1-4c.098-1.378.154-2.76.176-4.14.812-31.906 8.57-63.921 23.512-92.235l1.294-2.453c4.071-7.544 8.797-14.388 14.018-21.172l2.125-2.836c11.671-15.182 29.28-26.967 46.012-35.96a413 413 0 0 0 11.3-6.352c11.257-6.549 22.447-12.224 34.55-17.014 2.854-1.188 5.575-2.616 8.325-4.026C438.899 291.439 455.1 289 470 289m-128.834 61.556-1.478 1.507c-.25.25-.25.25-1.509 1.52-3.512 3.595-6.38 7.262-9.179 11.417l-1.828 1.73c-2.822 2.949-4.85 6.18-6.985 9.645l-1.324 2.137C314.81 385.144 311.287 391.956 308 399l-1.143 2.217c-3.93 7.956-5.995 16.17-8.024 24.762a777 777 0 0 1-1.79 7.351c-2.076 8.548-3.733 16.84-4.043 25.67 2.408-3.612 3.104-7.15 4.063-11.312 8.222-33.96 19.187-63.19 42.027-90.172 2.846-3.372 5.39-6.896 7.91-10.516-2.872 0-3.886 1.625-5.834 3.556" id="svg-layer-9" style="pointer-events: all;"/><path fill="#2E333D" d="M490 147h1l.06 2.43c.095 3.628.205 7.255.315 10.882.03 1.263.062 2.526.094 3.827l.117 3.662.095 3.38C492 174 492 174 494 177l-1 2a141 141 0 0 0-.133 6.363l-.004 3.877.007 2.026q.005 3.042-.007 6.084l.004 3.888.004 3.564c.116 2.868.522 5.403 1.129 8.198.216 6.161.216 6.161-.498 8.934-.548 2.254-.638 4.24-.653 6.558l-.026 2.72-.012 2.972-.026 3.16q-.037 5.225-.066 10.449l-.055 7.395q-.06 7.89-.11 15.78c-.08 12.356-.174 24.711-.269 37.067l-.062 8.276c-.202 26.978-.507 53.954-.886 80.93l-.153 11.232-.029 2.116c-.198 15.137-.2 30.273-.155 45.411h-1q-.251 6.625-.5 13.25l-.145 3.8-.136 3.653-.127 3.364A222 222 0 0 0 489 487c-.187 2.625-.187 2.625-1 5-2.89 1.597-4.69 2-8 2l1-5-2.062.5c-3.354.57-6.542.567-9.938.5l1-2 1.875-.312c3.069-.993 3.7-2.91 5.125-5.688l6 2c1.167-8.67 1.097-17.274 1-26l-2-1 1 7-5 2c-5.676-6.681-4.132-16.72-4.022-25.05l.03-3.196c.032-3.452.073-6.904.113-10.356l.072-7.22q.094-9.465.202-18.93.104-9.672.2-19.346.195-18.951.405-37.902h2l1 23c.766-8.09 1.127-16.03 1.063-24.152l-.012-3.343q-.019-5.222-.051-10.442-.04-6.92-.062-13.84l-.026-3.189-.01-2.975-.016-2.602c.12-2.573.547-4.948 1.114-7.457l-5-1v-5l1 2c4 0 4 0 6-1v4l3-1 3 1-1-3a88 88 0 0 1-.13-4.9l-.009-3.032.006-3.295-.003-3.44q0-3.629.006-7.257.005-5.415-.007-10.83c-.003-12.125.199-24.208.751-36.32.395-9.069.553-18.132.667-27.207l.03-2.253q.129-10.355.241-20.711.065-5.743.14-11.485.038-3.216.068-6.43l.05-3.881.039-3.425C489 148 489 148 490 147" id="svg-layer-10" style="pointer-events: all;"/><path fill="#E5E4DA" d="M52 290c7.414-.183 14.322.433 21.625 1.688l3.2.54c7.296 1.295 14.139 3.11 21.14 5.499 3.816 1.266 7.678 2.137 11.603 2.997 11.72 2.572 22.474 6.418 33.432 11.276l2.526 1.111c10.109 4.49 19.53 9.32 28.474 15.889l1.846 1.324c12.606 9.045 24.303 18.574 33.916 30.84 2.028 2.57 4.124 5.047 6.268 7.519C228.645 383.292 237.42 398.75 246 416l1.212 2.388C257.688 439.042 268.915 464.325 267 488h-8l-.078-1.836c-.456-6.736-2.207-12.027-4.922-18.164a659 659 0 0 1-2.062-5.125l-.91-2.258a437 437 0 0 1-5.571-14.992c-5.67-16.053-12.967-30.325-22.18-44.616a303 303 0 0 1-3.75-6.08c-6.845-11.3-14.284-22.245-23.933-31.37-1.74-1.702-3.279-3.508-4.844-5.372-7.884-9.055-16.802-15.923-26.99-22.108a273 273 0 0 1-5.12-3.243c-6.975-4.456-13.915-7.89-21.64-10.836q-2.877-1.154-5.75-2.312-2.124-.846-4.25-1.688v-1h8a763 763 0 0 0-6.25-1.062l-3.516-.598c-3.234-.34-3.234-.34-5.406.226-2.569.61-3.501-.327-5.828-1.566-2.805-.914-5.652-1.67-8.5-2.437l-2.44-.666Q99.532 309.941 96 309l-3.43-.922c-5.957-1.548-11.88-2.69-17.976-3.55C72 304 72 304 70.172 303.011c-3.319-1.546-6.822-1.749-10.422-2.137l-2.258-.262Q54.747 300.3 52 300zm145 63c.438 4.93 1.484 7.055 5.125 10.375 9.404 8.912 16.207 18.502 22.578 29.754L226 395h2l.332 2.227c.705 2.925 1.693 4.66 3.356 7.148 3.129 4.991 5.257 10.126 7.307 15.623 1.072 2.843 1.829 4.826 4.005 7.002.72-6.868-1.736-11.674-4.75-17.75l-1.496-3.056c-6.84-13.692-14.42-26.414-25.14-37.397-3.645-3.9-6.666-8.14-9.739-12.496C200 354 200 354 197 353" id="svg-layer-11" style="pointer-events: all;"/><path fill="#E2E1D8" d="m267 69 3.188.563c3.436.394 5.52.205 8.812-.563 1.08 14.303 1.08 14.303.875 20.688-.07 11.885 5.095 23.304 9.125 34.312-.663-7.177-2.59-13.575-4.828-20.402C282.322 97.729 281.38 92.14 281 86c3.764 4.14 5.414 8.206 7.25 13.375 2.751 7.408 6.01 14.262 9.84 21.164 1.767 3.201 3.42 6.431 5.035 9.711 4.535 9.13 9.48 17.922 14.887 26.566a295 295 0 0 1 3.633 5.961C342.035 196.562 377.19 218.66 413 233l2.233.897a315 315 0 0 0 11.66 4.357q2.256.8 4.503 1.625c10.717 3.924 21.019 6.913 32.384 8.235 6.044.71 6.044.71 8.22 2.886l-1 2h2l-1 5c-36.79-3.79-36.79-3.79-42-9-2.014-.713-2.014-.713-4.469-1.379-5.468-1.564-10.73-3.503-16.031-5.559l-2.645-1.013A1597 1597 0 0 1 399 238l-2.628-1.013c-5.062-1.978-9.845-4.145-14.622-6.737l-1.9-1.03A928 928 0 0 1 374 226l-1.96-1.082c-5.978-3.313-11.75-6.553-17.04-10.918q-2.84-2.1-5.687-4.187c-5.75-4.301-11.09-8.892-16.313-13.813l-1.79-1.629c-5.598-5.293-10.173-11.483-14.843-17.585a1076 1076 0 0 0-3.863-5.009c-3.998-5.225-7.695-10.472-10.984-16.172-1.726-2.958-3.562-5.837-5.395-8.73-4.154-6.737-7.658-13.711-11.112-20.827a251 251 0 0 0-3.118-6.06C277.12 110.898 273.678 101.906 271 92l-.594-2.145C268.48 82.851 266.745 76.337 267 69" id="svg-layer-12" style="pointer-events: all;"/><path fill="#1A1B1F" d="M478 57h2c1.643 3.612 2.25 6.417 2.247 10.376l.013 3.237-.017 3.528.006 3.749q.003 5.107-.013 10.216c-.01 3.616-.007 7.232-.006 10.848 0 6.953-.012 13.905-.027 20.858q-.018 8.37-.026 16.74c-.038 41.005-.122 82.01-1.03 123.007a488 488 0 0 0-.073 16.526l.038 3.5q.043 3.287.126 6.574l.037 2.946.058 2.581c-.406 2.823-1.477 4.194-3.333 6.314v-3h-2l-.375-2.937L475 289l-2-1 .219-1.992c1.143-11.714 2.317-24.496-.88-35.965-.339-2.043-.339-2.043.127-4.132.705-3.843.712-7.638.74-11.532l.03-2.616q.045-4.315.08-8.63l.064-6.13q.082-8.235.152-16.47.045-5.099.095-10.198c.375-39.446.504-78.888.373-118.335l-2.445-.844L469 70c-.875-2.5-.875-2.5-1-5 1.41-2.82 3.079-2.981 6-4a91 91 0 0 1 4-1zM274.063 43.438l3.16.246c3.212.366 5.884.87 8.777 2.316v-2h21l1 2-14 1 5.317-.007q24.828-.03 49.657-.045 12.764-.007 25.527-.023 11.13-.015 22.261-.02 5.89 0 11.777-.01 5.554-.011 11.108-.008 2.986-.002 5.973-.011c7.184.008 14.24.319 21.38 1.124-2 2-2 2-4.352 2.243l-3.009-.01-3.449.005-3.803-.027-3.991-.004q-4.306-.005-8.613-.026c-4.548-.022-9.097-.03-13.645-.037q-10.81-.018-21.621-.057-19.305-.066-38.612-.1a5935 5935 0 0 1-13.533-.04q-4.238-.016-8.474-.024-2.866-.009-5.733-.025c-6.545-.009-12.988.233-19.505.855-4.504.418-9.016.618-13.535.81l-3.018.128c-13.363.508-26.736.398-40.107.309v-2q-29.405-.035-58.81-.052-13.656-.007-27.313-.023-11.917-.015-23.833-.02-6.297 0-12.594-.01C76.563 49.821 76.563 49.821 62 52c-1.645.06-3.292.088-4.937.063l-2.34-.028L53 52l-1-3c5.491-3.295 11.927-3.126 18.163-3.205l2.058-.03q3.347-.046 6.693-.081l4.73-.063q4.96-.066 9.92-.124 6.261-.073 12.522-.158c32.245-.428 32.245-.428 45.087-.273 3.225.023 5.742-.038 8.827-1.066 1.58-.093 3.163-.13 4.746-.133l2.787-.004 2.905.012 2.892-.012 2.791.004 2.545.004c2.252.124 4.16.565 6.334 1.129a600491935195906.4 600491935195906.4 0 0 1 10.068.137c2.855-.006 5.571-.064 8.375-.632 2.498-.493 4.782-.661 7.325-.71l2.783-.06 2.98-.051 3.114-.063q3.262-.066 6.526-.124 4.935-.09 9.868-.19c29.39-.579 29.39-.579 38.024.13" id="svg-layer-13" style="pointer-events: all;"/><path fill="#383F55" d="M484 124h1c1.502 7.922 2.335 15.011 1 23h3q.036 12.848.052 25.694.007 5.97.023 11.94c.045 15.753.032 31.464-.716 47.203-.59 13.07-.466 26.146-.421 39.226q.008 3.948.013 7.896.017 9.52.049 19.041h-6l.48-2.076c.58-3.266.734-6.393.836-9.71l.064-1.969q.096-3.153.183-6.308l.128-4.33c.312-10.87.427-21.732.309-32.607h-2l1-3c.225-2.226.408-4.456.563-6.687l.253-3.575L484 225l-2-1 .035-2.437c.071-9.263-.232-18.481-.68-27.733-.487-10.461-.425-20.714.391-31.158.49-7.072.622-14.16.806-21.246q.08-2.934.167-5.867l.092-3.46c.17-2.798.56-5.372 1.189-8.099" id="svg-layer-14" style="pointer-events: all;"/><path fill="#2F343F" d="M267 43q39.077-.07 78.155-.104 18.145-.014 36.29-.047 15.816-.03 31.633-.037 8.373-.003 16.746-.023a4993 4993 0 0 1 15.771-.015q2.89 0 5.78-.012c2.637-.01 5.274-.008 7.912-.003l2.29-.017c5.232.029 10.46.498 15.423 2.258l1 2-12-1 2 2H280v-1l25-2c-8.375.063-8.375.063-11.01.09-5.768.021-5.768.021-7.99-1.09v2l-1.875-.562C282 45 282 45 280 46v-2h-13z" id="svg-layer-15" style="pointer-events: all;"/><path fill="#353B4A" d="m486 60 3 2 2-1 2 1c4.237 14.455 3.139 30.456 3.098 45.371l-.005 6.057q-.006 7.893-.024 15.786-.014 8.085-.02 16.17-.016 15.81-.049 31.616h-1l-1-9-2 7h-1l-1-27h-1l-.031-2.353q-.15-11.096-.308-22.191-.083-5.7-.158-11.403C487.957 70.798 487.957 70.798 486 60" id="svg-layer-16" style="pointer-events: all;"/><path fill="#424A5D" d="M39 65h1l-1 273c-2.432-2.432-2.25-3.02-2.252-6.35l-.015-2.785.004-6.338c-.008-3.626-.002-7.251.004-10.877q-.004-3.885-.01-7.77c-.01-6.32-.007-12.64-.002-18.96q.008-7.707.003-15.413v-2.214l-.003-4.45q-.006-20.894.012-41.786.013-17.923-.002-35.846a34258 34258 0 0 1-.007-46.049l.001-2.206q.003-7.693-.006-15.385-.008-10.363.01-20.726.004-3.806-.002-7.61c-.006-3.462.001-6.923.011-10.384l-.013-3.047c.03-5.33.509-9.762 2.267-14.804" id="svg-layer-17" style="pointer-events: all;"/><path fill="#384056" d="M110 471q2.187-.079 4.375-.125l2.46-.07C119 471 119 471 121 473l1 2h3l.297 1.793.453 2.394.422 2.356C127 484 127 484 131 489H99v-4a438 438 0 0 0-.5-6.25l-.281-3.266L98 473l6 2v-2l4-1v3l4-1-2-1z" id="svg-layer-18" style="pointer-events: all;"/><path fill="#4E566E" d="M487 66h1c1.17 16.34 1.12 32.674 1.069 49.045q-.014 5.423-.02 10.844-.016 10.555-.049 21.111h-3c-1-3-1-3-.5-6.25.52-3.893.342-6.924-.5-10.75l-2-1V70l3-1z" id="svg-layer-19" style="pointer-events: all;"/><path fill="#556181" d="m345 347 2 1-1.398 1.512c-26.717 29.41-40.17 62.148-49.056 100.486-.822 3.485-1.538 5.99-3.546 9.002.44-9.11 2.094-17.605 4.313-26.437l.896-3.698c5.398-21.932 5.398-21.932 10.791-31.865q.905-1.872 1.79-3.754c3.396-7.094 7.042-13.876 11.397-20.433l1.224-1.852c2.54-3.73 5.325-6.82 8.589-9.961a494 494 0 0 0 4.563-5.062c2.731-3.073 5.503-6.057 8.437-8.938" id="svg-layer-20" style="pointer-events: all;"/><path fill="#323847" d="M469 70c4.875.875 4.875.875 6 2 .1 1.679.128 3.362.13 5.044l.009 3.34-.006 3.73.004 3.952q.003 5.47-.008 10.94-.006 3.452-.007 6.905c-.026 45.698-.6 91.394-1.122 137.089h-2q-.035-31.697-.052-63.395-.007-14.718-.023-29.436a28343 28343 0 0 1-.02-25.658q0-6.792-.01-13.584-.011-6.396-.008-12.792 0-2.345-.006-4.688a1778 1778 0 0 1-.001-6.417l-.003-3.623c.127-3.53.562-6.922 1.123-10.407l-4-1z" id="svg-layer-21" style="pointer-events: all;"/><path fill="#2F343F" d="m98.676 42.902 7.14.005q9.34.006 18.678.024 9.552.014 19.106.02 18.7.016 37.4.049v1l-1.988.076q-4.444.176-8.887.361l-3.129.12-2.988.127-2.761.11C159 45 159 45 157 46a294 294 0 0 1-9.36.04c-15.037-.076-30.07.088-45.105.277q-4.818.06-9.634.105-5.925.056-11.848.136-2.222.028-4.444.045c-8.38.07-16.41.524-24.609 2.397 3.061-3.741 6.917-4.666 11.562-5.41 11.69-.88 23.4-.715 35.114-.688" id="svg-layer-22" style="pointer-events: all;"/><path fill="#363E51" d="M404 466h3l2 3-1 3h3l1-2 4 1-1 4 3 2-5 6h5v1h-5l1 3c6.427 2.314 13.04 2.387 19.805 2.656C437 490 437 490 439 492c-10.397.105-20.643.025-31-1l1-3c-.278-2.34-.605-4.676-1-7h-2l-.437-2.25c-.465-2.27-.982-4.508-1.563-6.75l-4 1-.148 3.027-.227 3.91-.21 3.903c-.138 1.043-.274 2.086-.415 3.16l-2 1v-19c2.49-1.245 3.41-.777 6 0z" id="svg-layer-23" style="pointer-events: all;"/><path fill="#1A1B1F" d="m475 298 5 1q.035 11.815.052 23.63.007 5.488.023 10.975.016 5.31.02 10.621.005 2.98.018 5.962c0 7.656-.335 15.194-1.113 22.812h-1c-.909-6.4-1.272-12.733-1.5-19.191l-.123-3.221a6517 6517 0 0 1-.377-10.15q-.245-6.66-.5-13.317l-.12-3.216a479 479 0 0 0-1.294-21.323C474 300 474 300 475 298" id="svg-layer-24" style="pointer-events: all;"/><path fill="#545F7E" d="M197 353c3.425 1.142 3.878 1.852 5.938 4.688 2.646 3.533 5.409 6.884 8.332 10.186C224.247 382.603 243.793 406.789 243 427c-2.87-3.369-4.299-7.029-5.812-11.125-2.178-5.708-4.695-10.81-8.086-15.922C228 398 228 398 228 395l-3-1a95 95 0 0 1-3.812-6.562c-4.743-8.61-9.934-15.654-17.243-22.31-5.737-5.4-5.737-5.4-6.945-9.628z" id="svg-layer-25" style="pointer-events: all;"/><path fill="#373E53" d="m51 288 2 1-1 11 4 2-3 2c-.366 2.575-.366 2.575-.354 5.901l-.008 3.811.037 4.205q.004 2.205.004 4.41.005 4.755.034 9.511c.031 5.013.042 10.026.05 15.039.014 7.93.043 15.861.077 23.792.062 14.195.1 28.391.132 42.587q.018 7.475.054 14.949.019 4.653.032 9.306.008 2.157.02 4.314c.013 1.964.017 3.928.022 5.893l.015 3.33c-.108 2.766-.485 5.262-1.115 7.952h-1q-.231-33.222-.443-66.444-.098-15.425-.205-30.849-.095-13.438-.177-26.877-.044-7.12-.096-14.241a7184 7184 0 0 1-.086-13.388q-.014-2.463-.035-4.928-.026-3.35-.04-6.699l-.025-3.796C50 289 50 289 51 288" id="svg-layer-26" style="pointer-events: all;"/><path fill="#303644" d="M404 472c2 2 2 2 2.125 5.625L406 481h2l2 8c-4.036 1.919-7.178 2.22-11.626 2.135l-1.953-.028a904 904 0 0 1-6.347-.13q-2.208-.04-4.418-.076c-3.865-.067-7.73-.146-11.594-.227-3.949-.081-7.897-.15-11.845-.22q-11.61-.211-23.217-.454v-1l58-1c1.048-4.193 1.73-8.37 2.402-12.637L400 473c2-1 2-1 4-1" id="svg-layer-27" style="pointer-events: all;"/><path fill="#5D6A8A" d="m232 123 1 3h2c-1.701 6.185-4.821 11.59-7.875 17.188l-1.736 3.19c-3.822 6.949-7.8 13.778-12.014 20.497l-1.503 2.41-1.411 2.207-1.225 1.918C208 175 208 175 205 177l-1-4 3-1c1.105-2.266 1.105-2.266 2.188-5.25 1.885-4.812 4.092-9.02 6.875-13.375 3.365-5.274 5.909-10.464 7.937-16.375l2 3z" id="svg-layer-28" style="pointer-events: all;"/><path fill="#EEECE0" d="M77 476v2h2l1.313 2.938C82 484 82 484 85 485v3c-3.33 1.11-5.872 1.133-9.375 1.125l-3.398.008A42.2 42.2 0 0 1 64 488a525 525 0 0 1 2.313-5.937l1.3-3.34c2.312-4.54 4.96-3.8 9.387-2.723" id="svg-layer-29" style="pointer-events: all;"/><path fill="#384056" d="M474 339h1l-.006 1.815q-.066 21.912-.098 43.823-.014 10.596-.047 21.193-.032 10.23-.039 20.463-.005 3.897-.021 7.796c-.015 3.647-.017 7.295-.016 10.943l-.022 3.234c.016 5.714.486 10.965 1.795 16.533.723 3.502.704 6.631.454 10.2l-2 3c-2.574-13.695-2.28-27.441-2.236-41.325.01-3.404.007-6.808.007-10.213q.002-8.544.023-17.09.023-9.884.02-19.767.001-10.552.016-21.106.003-3.036.003-6.073.004-5.63.022-11.26l-.002-3.402.013-3.075.005-2.687C473 340 473 340 474 339" id="svg-layer-30" style="pointer-events: all;"/><path fill="#33394A" d="m482 457 3 1c.102 9.063.07 17.982-1 27-5.75-.875-5.75-.875-8-2q-.08-3.937-.125-7.875l-.05-2.262c-.018-1.955.072-3.91.175-5.863 2.139-2.139 3.133-2.427 6-3z" id="svg-layer-31" style="pointer-events: all;"/><path fill="#2E333D" d="M91 489h168v1l-168 1zM481 241h3c1.065 17.403.856 34.59 0 52l-3 1q-.255-7.223-.482-14.447-.08-2.445-.166-4.89c-.401-11.292-.217-22.395.648-33.663" id="svg-layer-32" style="pointer-events: all;"/><path fill="#EEECE0" d="m55 461 5 2 1 8-4 1v2l4-1c2.257 4.514 2.08 8.063 2 13l1 2-9-1q-.334-3.78-.625-7.562l-.195-2.135c-.361-4.893.379-8.563 1.82-13.303z" id="svg-layer-33" style="pointer-events: all;"/><path fill="#1B1D22" d="M493 124h1c.806 29.34 1.14 58.65 1 88-3.229-3.46-3.365-5.977-3.328-10.629l.015-3.885.032-2.013c.031-2.032.04-4.064.047-6.096.08-9.913.08-9.913 1.234-13.377.088-1.703.118-3.409.114-5.114v-3.154l-.016-3.4-.005-3.485c-.005-3.678-.018-7.356-.03-11.035q-.009-3.737-.014-7.474-.017-9.169-.049-18.338" id="svg-layer-34" style="pointer-events: all;"/><path fill="#373E4F" d="M473 253h1c.797 6.585 1.108 13.123 1.125 19.75l.014 2.146c-.01 3.45-.214 6.626-.71 10.057L474 288l1 1c.072 1.52.084 3.042.063 4.563l-.028 2.503L475 298l-2 1 1-7h-4v-3h-5l4-1q.546-4.53 1.063-9.062l.314-2.569c.566-5.053.366-9.315-.377-14.369.559-2.652.559-2.652 1.438-4.937l.87-2.34z" id="svg-layer-35" style="pointer-events: all;"/><path fill="#56607B" d="M51 500c1.863.421 3.715.89 5.563 1.375 6.383 1.41 12.5 1.974 19.027 2.191l3.12.117c13.759.484 27.525.673 41.29.88q4.1.063 8.2.13 9.9.159 19.8.307v1q-16.17.07-32.339.104-7.509.014-15.018.047-7.256.032-14.51.039-2.76.005-5.52.021c-24.062.137-24.062.137-30.613-5.211z" id="svg-layer-36" style="pointer-events: all;"/><path fill="#323848" d="m474 298 2 2h-2l1 3c.212 2.796.376 5.575.5 8.375l.12 2.5q.13 2.655.25 5.314.203 4.368.415 8.737.364 7.537.715 15.074l-2 1v-5h-2l-2-33-5-2c1.503-3.007 4.042-3.583 7-5z" id="svg-layer-37" style="pointer-events: all;"/><path fill="#1A1B1F" d="M462 45q3.438.212 6.875.438c1.276.08 2.552.162 3.867.246C476 46 476 46 478 47v2l1.938.813C482 51 482 51 483 54c-3.735 1.245-4.454.451-8-1a114 114 0 0 0-6.613-.852l-3.78-.39-3.92-.383-3.978-.406Q451.855 50.475 447 50v-2l19-1z" id="svg-layer-38" style="pointer-events: all;"/><path fill="#424A5D" d="M38 338h1v136h-1z" id="svg-layer-39" style="pointer-events: all;"/><path fill="#353B4A" d="M495 177h2v97h-1q-.26-13.562-.5-27.125l-.036-2.025c-.4-22.618-.605-45.228-.464-67.85" id="svg-layer-40" style="pointer-events: all;"/><path fill="#2F343F" d="M50 381h1l.031 3.1q.149 14.58.308 29.163.083 7.494.158 14.988.073 7.256.156 14.51.03 2.745.056 5.488c.057 5.919.157 11.834.291 17.751l.048 2.65c.053 2.607.133 5.21.222 7.816l.039 2.38c.207 4.972 1.176 7.617 4.691 11.154h-5c-2.006-5.83-2.275-11.02-2.227-17.158v-3.018c0-3.273.016-6.547.032-9.82l.008-6.83c.008-5.98.028-11.959.05-17.938.02-6.107.03-12.213.04-18.32Q49.934 398.958 50 381" id="svg-layer-41" style="pointer-events: all;"/><path fill="#373F54" d="M472 160h1v93h-2c-2.21-3.515-2.098-5.987-1.687-10.062l.3-3.16c.206-2.006.413-4.012.632-6.015.817-8.015.973-16.006 1.071-24.056l.063-4.325q.082-5.634.153-11.269.077-5.772.161-11.545.16-11.283.307-22.568" id="svg-layer-42" style="pointer-events: all;"/><path fill="#313642" d="m485 500 2 2c-6.518 3.875-11.379 4.561-18.887 4.426l-3.09-.01c-3.238-.016-6.474-.06-9.71-.103q-3.28-.018-6.557-.03a4147 4147 0 0 1-6.268-.045l-2.96-.022-2.773-.039-2.423-.03c-2.515-.159-4.875-.602-7.332-1.147v-1l1.89-.018q9.757-.098 19.515-.244 3.64-.051 7.277-.084c3.493-.034 6.986-.086 10.478-.142l3.271-.02c5.95-.115 10.291-.685 15.569-3.492" id="svg-layer-43" style="pointer-events: all;"/><path fill="#2F343F" d="M181 43h73v1l-1.865.031q-9.61.163-19.223.341-3.586.066-7.172.125-5.157.088-10.314.187l-3.236.05-3.033.06-2.658.048c-2.577.163-4.976.621-7.499 1.158a83 83 0 0 1-4.645.098l-2.548-.01-2.62-.026-2.677-.013q-3.255-.02-6.51-.049z" id="svg-layer-44" style="pointer-events: all;"/><path fill="#F0EEE1" d="m433 477 4 1v3l5 1v6h-12v-4a69 69 0 0 0-1-4h3z" id="svg-layer-45" style="pointer-events: all;"/><path fill="#2E333D" d="m67.855 488.902 2.005.005c2.11.005 4.218.018 6.328.03q2.147.009 4.294.014 5.259.017 10.518.049c-3 2-3 2-6 3l-1 2a1861 1861 0 0 1-11.312-.875l-3.249-.238-3.115-.254-2.872-.222C61 492 61 492 58 490c3.478-1.16 6.188-1.113 9.855-1.098" id="svg-layer-46" style="pointer-events: all;"/><path fill="#556283" d="M239 94h1c2.588 11.752.181 21.068-4 32h-2l.367-2.21c1.226-7.637 2.173-15.264 2.935-22.96.592-5.724.592-5.724 1.698-6.83" id="svg-layer-47" style="pointer-events: all;"/><path fill="#2E333D" d="M481 200h1c.599 7.418 1.132 14.762.938 22.207C483 224 483 224 484 225c.073 2.53.092 5.033.063 7.563l-.014 2.154q-.02 2.64-.049 5.283l-3 1z" id="svg-layer-48" style="pointer-events: all;"/></svg>