<svg xmlns="http://www.w3.org/2000/svg" viewBox="0 0 560 536"><path fill="#E4EEDC" d="M0 0h560v536H0zm56 18c-8.57 12.854-4.242 36.338-1.445 50.886 4.558 21.925 11.118 48.158 25.088 66.24C81 137 81 137 80.918 138.973c-2.102 6.014-5.304 10.7-9.176 15.742C70 157 70 157 69 159l-.41-3.207c-4.364-31.714-14.13-83.409-40.802-104.546L26 50c-12.29 28.145-3.83 69.018 6.734 96.605 3.717 9.396 7.848 18.685 13.043 27.364 4.29 7.236 4.29 7.236 3.973 11.031L48 188l-1.316 2.559C43.84 196.03 40.715 201.083 37 206l-.445-2.5C33.71 188.852 28.46 175.89 21 163c-4.903 4.903-3.122 16.646-3.14 23.394q.003 3.897.015 7.793l.003 2.692c.014 12.191.214 24.346.903 36.52.269 4.868.265 9.727.219 14.601 1.272.23 2.545.461 3.855.7 9.116 1.68 18.152 3.489 27.145 5.738 12.036 2.975 24.23 4.946 36.456 6.967a851 851 0 0 1 10.087 1.763c19.489 3.514 19.489 3.514 28.457 3.832l2.594.121c13.497.338 27.545-.657 38.289-9.707 1.943-2.091 3.077-3.713 3.242-6.601-1.566-2.523-3.55-3.376-6.125-4.813l-1.856-1.994c-2.41-2.256-3.953-2.831-7.132-3.604l-2.944-.723a526 526 0 0 0-15.256-3.117c-7.035-1.368-14.007-2.793-20.937-4.625-7.673-2.005-15.427-3.337-23.249-4.63l-2.864-.475-2.564-.415C84 226 84 226 81 225l2-3-3.073-.076q-5.644-.142-11.289-.296a2409 2409 0 0 0-4.885-.125q-3.511-.088-7.023-.187l-2.206-.05c-3.086-.09-5.576-.283-8.524-1.266 1.329-1.687 2.69-3.35 4.063-5l2.285-2.812c3.48-2.871 5.21-2.43 9.652-2.188q3.417.467 6.809 1.094l3.76.683 3.868.723 3.952.723q4.806.881 9.611 1.777c0 2 0 2-1 5l2.108.26q4.758.586 9.517 1.178l3.316.408 3.223.4 2.952.365L113 223l3.177.422C119 224 119 224 122 226c17.309 6.025 40.983 4.08 57.766-2.895 9.197-4.55 9.197-4.55 12.234-9.105-.25-1.875-.25-1.875-1-4l-.64-2.48C189 205 189 205 186.155 203.629l-3.656-1.066q-2.06-.62-4.117-1.243l-2.183-.643c-2.178-.67-4.315-1.41-6.458-2.185-11.388-4.08-22.818-6.517-34.742-8.492l6-2v-1a6875 6875 0 0 0-15.741-1.709 2762 2762 0 0 1-5.345-.582q-3.86-.423-7.723-.834l-2.378-.265c-5.299-.558-10.484-.684-15.813-.61l2-4c-7.093-1.723-13.71-2.25-21-2a155 155 0 0 1 4-6l1.39-1.992 1.485-1.946 1.367-1.84C85 164 85 164 87.742 164.302c3.172.68 6.088 1.576 9.14 2.668 14.362 5.022 28.722 9.433 43.493 13.094l2.346.585c22.025 5.474 52.5 10.05 73.279-1.648 2.75-2.563 2.75-2.563 5-5l2-2c-.224-2.38-.677-3.642-2.285-5.422-10.227-7.642-21.909-12.594-34.024-16.371-3.699-1.21-7.23-2.634-10.816-4.144-11.603-4.737-23.85-8.213-36.165-10.527L138 135l-1-2c-7.85-2.159-15.92-2.258-24-2 4.156-6.504 9.035-11.506 16-15 4.314-.227 7.212 1.058 11.043 2.805 32.399 14.509 67.965 28.148 103.715 18.46 4.908-1.916 8.989-4.89 13.054-8.202l1.77-1.403c1.815-2.125 1.952-3.944 2.418-6.66-8.064-5.531-16.597-8.553-25.812-11.5q-2.2-.717-4.397-1.437A689 689 0 0 0 197 98l4-3q-7.333-.832-14.667-1.654-2.486-.28-4.971-.562c-9.78-1.108-19.54-2.126-29.362-2.784l8.105-5.86C163 82 163 82 165.613 79.673 168 78 168 78 169.913 78.308c1.975.655 3.923 1.335 5.864 2.087l2.213.852 2.377.921a6543 6543 0 0 0 7.775 2.977C203.24 90.905 218.187 96.513 234 100c1.103.26 2.207.518 3.344.785C254.016 104.17 271.238 102.798 286 94c3.125-2.312 3.125-2.312 5-4-.49-4.582-.49-4.582-2.677-6.375-8.314-3.861-16.928-6.677-25.635-9.5q-2.43-.797-4.859-1.596a4738 4738 0 0 0-9.533-3.122c-4.51-1.474-9.01-2.978-13.508-4.491C204.731 54.809 204.731 54.809 195 55c2.397-2.813 5.09-4.899 8.188-6.875l2.105-1.367c6.456-1.807 14.323 1.979 20.492 4.07l5.012 1.667 2.608.87c68.857 22.921 68.857 22.921 93.072 11.463 5.165-2.957 5.165-2.957 6.347-5.832C333 57 333 57 331.125 54.5 319.257 43.77 297.133 39.904 282 36l-4.121-1.09C265.759 31.75 253.493 29.115 241 28l7-4c-2.621-3.371-5.19-3.67-9.312-4.25C220.675 17.598 209.252 22.353 195 33l-2.223 1.637A310 310 0 0 0 182 43l-.043-1.8c-.4-6.963-1.61-13.57-5.957-19.2-3.54-2.008-6.988-1.933-11-2l-2.642-.062C147.976 19.63 147.976 19.63 143 20c-1 1-1 1-1.02 3.082.875 11.535 4.694 20.883 10.336 30.91 1.658 2.961 3.189 5.963 4.684 9.008q-3.307 3.348-6.625 6.688l-1.871 1.896c-3.68 3.7-7.437 7.144-11.504 10.416l-.043-2.883c-.298-10.27-1.602-20.296-3.27-30.43-.2-1.25-.4-2.5-.608-3.787-1.38-8.11-2.997-16.24-6.079-23.9-4.619-2.31-10.225-1.03-15.062.063-4.37.965-7.58.884-11.938-.063-6.859 24.818 2.95 49.943 14.46 71.812C117 97.692 117 97.692 117 101c-1.758 2.234-1.758 2.234-4.125 4.75-2.84 3.055-5.64 6.11-8.312 9.313C102 118 102 118 100 119l.07-1.733c.162-7.249-.78-14.082-2.07-21.204l-.662-3.673C94.854 79.298 91.16 66.647 87 54l-.817-2.517C82.253 39.57 76.977 26.042 66 19c-2.937.125-2.937.125-5 1v-2c-2.375-.187-2.375-.187-5 0m241 5v3c21.393 11.822 51.159 18.605 75.227 12.047C378.455 35.696 384.66 31.92 388 26c-.414-2.652-.414-2.652-1-5-14.786-.85-29.54-1.215-44.35-1.24-3.476-.01-6.953-.041-10.43-.073-12.1-.055-23.443.357-35.22 3.313m179 23q-1.627 1.31-3.258 2.617C453.352 64.367 441.522 84.808 429 106c0-4 0-4 .488-7.957 2.117-18.328 3.4-43.452-7.738-59.23L420 37c-2.663.36-3.812.806-5.71 2.758C403.994 54.402 398.705 73.148 398 91l-.156 2.715c-.428 13.85 1.659 28.571 5.605 41.848 1.622 7.176-.633 11.568-3.949 17.812l-1.3 2.52A659 659 0 0 1 395 162l-.316-2.24a898 898 0 0 0-8.6-49.99q-.578-2.865-1.145-5.731C379.711 77.699 379.711 77.699 374 68c-2.125-.75-2.125-.75-4-1-15.14 17.613-14.194 45.04-13 67 1.312 16.858 6.226 32.813 14.372 47.612 2.263 4.194 3.68 7.594 3.628 12.388-1.302 3.209-3.064 6.034-4.937 8.938l-1.46 2.36A383 383 0 0 1 365 211l-.547-2.48C346.193 126.023 346.193 126.023 327 105h-2l-2-4-5 1c-5.97 19.544-3.73 41.216 0 61l.374 2.13c3.853 21.488 12.816 46.279 26.481 63.515C347 232 347 232 347.027 235.055c-1.157 3.316-2.624 6.078-4.464 9.07-3.937 6.46-3.937 6.46-5.563 9.875h-2l-.376-1.91C328.704 222.763 317.6 195.965 305 169l-1.518-3.273c-15.28-32.883-15.28-32.883-19.705-34.579L282 131c-11.386 17.08-5.136 51.277-1.5 70.313 2.508 11.822 7.517 22.735 12.5 33.687l1.457 3.233c5.64 12.43 11.64 24.267 19.363 35.537L316 277l1.586 1.973c.639 3.129-1.003 5.005-2.662 7.561l-1.424 2.091-2.812 4.305-1.399 2.108c-1.663 2.532-3.236 5.111-4.789 7.712l-1.344 2.234C302 307 302 307 300.97 309.204 300 311 300 311 298 312l-.118-2.186c-.513-7.69-1.83-14.86-3.757-22.314l-.914-3.588C270.75 197.653 270.75 197.653 251 183c-2.621.41-2.621.41-5 1-11.754 43.024 1.198 94.57 22 133 2.806 4.8 5.868 9.388 9.063 13.938l2 2.937 1.847 2.617c1.09 2.508 1.09 2.508.637 4.832-2.175 3.763-4.715 7.17-7.36 10.613-.26.346-.26.346-1.58 2.092A288 288 0 0 1 263 366c-1.977-1.977-1.8-5.603-2.2-8.312q-.356-2.33-.715-4.66l-.38-2.484c-5.102-33.064-13.664-65.11-25.455-96.419l-1.32-3.524c-3.954-10.246-8.396-19.529-15.93-27.601-2.312.438-2.312.438-5 2-1.576 2.847-2.27 5.844-3 9l-.625 2.605c-3.282 16.887-2.31 35.5.625 52.395l.44 2.551c5.481 30.627 14.419 61.196 29.488 88.479 1.427 2.622 2.759 5.289 4.072 7.97-4.148 5.882-8.727 10.981-13.875 16l-2.086 2.059A1273 1273 0 0 1 222 411l-.136-2.329C219.346 366.58 215.387 305.32 185 273c-5.398-4-5.398-4-8.187-4-2.383 1.314-3.345 2.71-4.813 5-13.13 47.654 4.282 102.548 24.75 145.184 1.695 3.543 3.14 7.038 4.25 10.816q-1.65 1.65-3.305 3.3a814 814 0 0 0-3.89 3.93l-2.368 2.395-2.253 2.29c-1.974 1.884-3.99 3.472-6.184 5.085l-.345-2.684C169.515 343.805 169.515 343.805 143 313c-2.234-.816-2.234-.816-4-1-14.324 24.09-6.226 68.225.246 94.094 4.542 17.265 11.241 33.054 20.337 48.41l1.39 2.398 1.258 2.11c.96 2.483.798 3.552-.231 5.988a82 82 0 0 1-6.375 5.188l-1.79 1.365c-2.587 1.944-4.745 3.417-7.835 4.447l-.445-3.102C132.328 383.69 132.328 383.69 112 360c-2.266-.86-2.266-.86-4-1-8.987 10.202-8.974 24.988-8.254 37.947C101.983 423.794 109.4 449.356 120 474l1.035 2.412Q123.971 483.226 127 490q-1.904 1.69-3.812 3.375l-2.145 1.898C119 497 119 497 116 499l-.47-1.741C93.142 414.555 93.142 414.555 85 405c-2.23-.828-2.23-.828-4-1-11.735 24.909-10.779 53.635-1.928 79.342 4.505 12.363 9.408 23.835 21.24 30.533 7.492 2.286 12.841 1.85 19.938-1.562 3.38-1.811 6.247-3.587 9-6.25C132 504 132 504 135.73 504.253c3.861.602 7.57 1.566 11.333 2.622 16.913 4.394 34.45 5.432 51.812 6.813l2.488.202c15.576 1.252 30.919 1.597 46.512.235l3.16-.238 3.02-.254 2.671-.222C259 513 259 513 262 511l-2.926.07c-17.056.26-34.061-.997-51.074-2.07l3-1v-2l1.688-.375c2.533-.685 4.891-1.616 7.312-2.625-3.496-.998-6.661-1.024-10.295-.935-15.335.366-30.293-1.775-45.323-4.672-2.82-.465-5.53-.547-8.382-.393 3.341-3.39 6.726-6.683 10.313-9.812l2.675-2.395c4.377-2.606 8.16-2.45 12.964-1.343 2.104.622 4.166 1.323 6.236 2.05 9.993 3.343 20.12 6.12 30.287 8.871l3.654.992 3.283.884C228 497 228 497 230 498l-1 2 3.207.262c8.688.782 17.166 1.942 25.721 3.67 22.227 4.474 48.64 6.515 68.927-6.084 3.776-2.808 4.839-5.458 6.145-9.848-19.074-10.835-40.038-14.203-61.444-17.523C269 470 269 470 267 469l7-2v-1l-2.025-.152c-13.364-1.011-26.682-2.13-39.975-3.848v-2c-7.931-2.333-15.74-3.567-23.943-4.353-3.18-.307-6.015-.633-9.057-1.647a300 300 0 0 1 4.563-3.437c.846-.639 1.693-1.277 2.566-1.934 4.287-2.432 8.157-2.933 13.01-2.072l3.185.955 3.587 1.042 3.776 1.134a1259 1259 0 0 0 7.844 2.242l1.954.555c10.091 2.836 20.359 4.705 30.702 6.347l2.545.407q2.397.377 4.8.723c1.834.28 3.654.65 5.468 1.038l1 2c24.527 5.895 65.163.524 86.509-12.535 5.155-3.57 5.155-3.57 6.264-6.527C377 442 377 442 376 440c-9.06-3.798-18.505-6.32-28.164-8.027l-2.852-.511c-10.835-1.874-21.738-3.027-32.671-4.15q-4.548-.474-9.094-.958-2.79-.297-5.582-.581l-2.515-.264-2.2-.226C291 425 291 425 288 424a688 688 0 0 1 10.935-2.53q2.035-.463 4.064-.956c11.932-2.896 23.789-4.104 36.001-5.014 12.897-.968 25.456-2.174 38-5.5l2.182-.57C388.526 406.92 399 404 406 397c.188-3.375.188-3.375-1-7-16.073-13.486-54.246-9.135-74-10l6-4c-3.06-1.02-5.138-1.127-8.342-1.13l-3.307-.009-3.57.006-3.665-.003q-3.837 0-7.676.006-5.886.005-11.772-.007-3.724 0-7.45.004l-3.57-.006-3.306.01-2.913.002C279 375 279 375 276 376q1.18-1.724 2.375-3.437c.44-.639.882-1.277 1.336-1.934C281 369 281 369 283 368v-2c8.661-.116 17.236.208 25.875.813l3.792.26c11.188.822 22.25 2.215 33.333 3.927l-5 2c3.62 1.217 6.565.857 10.32.363l3.786-.494q2.01-.276 4.019-.557l2.047-.28c47.64-6.55 47.64-6.55 60.074-20.563 3.738-5.262 3.738-5.262 3.942-7.906-1.941-4.189-6.02-4.997-10.188-6.563-23.519-7.462-47.592-7.421-72-7l-3.07.042c-11.78.202-22.576 1.796-33.93 4.958a333 333 0 0 1 4.063-5.875l1.123-1.684c2.441-3.406 4.47-5.058 8.517-6.084 5.224-.812 10.532-.574 15.805-.517l6.04.023c2.816.013 5.633.036 8.45.058q9.317.071 18.635.106l2.025.008c60.268.192 60.268.192 78.342-16.035 2.732-3.477 3-4.492 3-9q-3.652-.984-7.312-1.937l-2.034-.553c-10.413-2.69-21.015-2.66-31.709-2.643q-2.025 0-4.049-.003-4.238-.002-8.477.006a3260 3260 0 0 1-10.576-.004c-18.637-.026-37.221.351-55.843 1.134q1.411-1.71 2.836-3.41l1.595-1.918c2.91-3.1 5.777-3.564 9.913-3.813 7.369-.124 14.743.352 22.098.785 10.685.603 21.209.39 31.87-.519l3.127-.238c5.45-.454 10.33-1.218 15.561-2.887a799 799 0 0 1 6.055-1.586l3.363-.883q3.443-.902 6.89-1.789c8.447-2.231 16.31-4.92 23.692-9.68l2.25-1.402c2.215-2.101 2.427-3.677 2.75-6.66-22.662-12.69-50.578-11.876-75.687-10.187l-3.419.212c-7.56.553-14.605 1.898-21.894 3.975v2l-2.187.813c-2.789 1.177-5.254 2.578-7.813 4.187.915-6.68 5.135-10.609 10.172-14.812 9.802-7.441 21.012-5.403 32.828-4.688 63.003 3.645 63.003 3.645 88-12.5 1.906-1.996 1.906-1.996 3-4-.375-3.562-.375-3.562-2-7-16.688-8.498-37.724-6.75-56-7l-3.588-.05c-13.507-.159-26.934.15-40.412 1.05a385 385 0 0 1 2.688-3.75l1.511-2.11c3.712-4.411 3.712-4.411 6.801-6.14 3.904-.2 7.69.274 11.563.75 25.153 2.793 53.74 1.752 76.437-10.75l2.633-1.437c8.647-4.957 14.372-9.294 18.367-18.563-5.107-1.645-9.88-2.392-15.25-2.625l-2.023-.117c-17.964-.902-35.964.004-53.914.742l-7.256.29q-8.78.349-17.557.71c4.742-7.316 4.742-7.316 9-9 3.54-.406 7.065-.41 10.625-.437 26.268-.688 61.933-3.644 82.25-22.688 2.73-3.042 4.31-5.8 5.125-9.875-7.102-4.734-18.246-3.23-26.5-3.25l-2.008-.006c-10.514-.008-20.241.947-30.492 3.256-2.33.353-4.663.693-7 1l2.57-1.984C468.181 111.899 483.407 99.336 496 84l2.262-2.715C511.849 64.37 523.95 43.515 528 22c-17.926-1.63-38.91 13.061-52 24M19 258c-1.435 2.87-1.112 5.335-1.098 8.54l.01 3.944.026 4.141q.008 2.082.013 4.164.018 5.106.049 10.211l2.847 1.25 6.723 2.95c10.883 4.526 21.896 7.878 33.368 10.55l3.822.918c9.942 2.358 19.22 3.533 29.427 3.582l3.213.063c9.73.047 19.096-1.38 27.662-6.25l2.66-1.465c3.696-2.593 5.094-4.586 5.903-9.036C133 288 133 288 130.148 285.528c-4.697-3.135-9.802-4.81-15.148-6.527l-3.196-1.042c-9.823-3.117-19.74-5.395-29.846-7.377-3.065-.602-6.125-1.226-9.185-1.854C59.217 265.958 45.623 263.42 32 261l6-1v-1c-4.353-.84-8.444-1.108-12.875-1.062l-3.492.027zm499-21c-9.729 16.863-1.116 45.32 2.642 63.065 1.555 7.437 2.503 14.762 2.483 22.373l.008 3.058C523 328 523 328 522 330l-1.828-5.486q-.807-2.42-1.622-4.839c-1.385-4.126-2.74-8.256-4.003-12.421-4.042-13.13-9.422-25.472-20.547-34.254l-3-1c-8.886 14.81-6.704 33.83-3 50 3.186 11.38 7.834 22.38 12.335 33.29 3.468 8.452 4.952 15.507 4.79 24.647l-.027 2.94A935 935 0 0 1 505 390h-2c-.115-1.169-.23-2.338-.35-3.542-.522-4.15-1.633-7.846-3.056-11.79l-.729-2.03a833 833 0 0 0-2.365-6.45l-.819-2.226C481.951 326.728 481.951 326.728 472 319c-3.27-.27-3.27-.27-6 0-6.32 9.281-4.941 20.96-2.969 31.548 3.644 17.118 10.875 32.929 18.932 48.37 4.177 8.048 6.883 13.892 4.662 23.02l-.46 2.072A346 346 0 0 1 485 429h-2l-.696-2.006C474.557 404.998 464.51 377.497 444 364c-1.937.188-1.937.188-4 1l-2.54.688C435 367 435 367 434.005 369.582c-3.155 23.092 7.722 44.917 21.058 63.23l1.918 2.52c2.393 3.16 4.648 6.403 6.895 9.668l2.242 3.25q1.96 2.863 3.883 5.75l-6 12-1.477-2.465C451.622 445.757 437.951 427.475 419 418c-2.333-.04-4.667-.043-7 0-2.638 5.276-1.026 11.66.5 17.063 4.723 14.022 12.005 25.61 20.688 37.517C445.6 489.772 445.6 489.772 445 498l-4 1-3.86-4.826a2567 2567 0 0 0-3.307-4.123c-2.388-2.974-4.758-5.951-7.06-8.992-6.19-8.139-14.43-16.656-24.773-19.059-3.562.75-3.562.75-6 2-1.702 13.398 5.429 25.583 13.36 35.828 6.008 7.389 12.976 14.255 22.64 16.172 5.43-.542 8.334-3.162 12-7l1.189-2.3c1.64-3.03 2.988-4.684 5.811-6.7 6.398-1.49 13.313-.658 19.813-.312 19.74.877 42.987-.003 59.062-13.313 2.499-2.304 3.707-3.964 4.125-7.375l-1-3c-12.288-2.916-24.56-3.087-37.125-3.125l-3.344-.014-3.164.006-2.84.004c-2.323.119-4.303.472-6.527 1.129l8-10 1.703-2.614c3.057-3.176 4.835-3.082 9.188-3.241l2.01-.1c2.116-.1 4.232-.168 6.349-.233 22.857-.88 22.857-.88 29.75-6.812 3.784-6.469 2.745-11.094 1-18-10.866-3.851-22.592-3.894-34-3l-2 1c2.08-5.062 4.06-7.101 8.813-9.75a561 561 0 0 0 3.488-2.04l1.83-1.074c3.216-1.955 6.296-4.09 9.369-6.261.575-.395 1.15-.79 1.741-1.198 4.722-3.36 8.956-6.825 10.572-12.564l.187-2.8.25-2.825c-.3-2.982-1.098-3.539-3.25-5.488a3386 3386 0 0 0-7.812 3.375l-2.237.96-2.158.938-1.984.857C519 394 519 394 516 396c2.582-9.174 7.159-15.582 13-23a223 223 0 0 0 3.5-5l1.406-2.062c5.593-9.907 3.297-26.914 3.282-38l-.001-2.185c-.117-68.01-.117-68.01-15.187-87.753-2.187-.797-2.187-.797-4-1M18 304l-1 30c12.81 5.823 12.81 5.823 19.5 7.688l2.219.627c16.853 4.676 33.158 6.325 49.238-1.811C94.5 336.75 94.5 336.75 97 333v-3c-6.96-5.878-15.502-9.115-24-12.062l-3.644-1.288c-10.685-3.655-21.493-6.182-32.555-8.396a82 82 0 0 1-12.874-3.688C22 304 22 304 18 304m0 97c-4.599 9.197-2.091 23.915-2 34 12.79-7.166 22.37-18.96 28.063-32.375C45.7 396.295 45.466 391.164 43 385c-9.956-.66-18.397 9.444-25 16m18.063 34.563c-12.15 12.667-21.302 24.313-21.126 42.312l.014 2.664q.02 3.23.049 6.461c13.262-7.086 23.711-18.133 32.25-30.375l1.338-1.906C53.319 447.595 56.26 439.632 55 431c-1.5-3.562-1.5-3.562-3-6-5.626 0-12.037 6.824-15.937 10.563m20.683 26.886-2.309 2.238-2.617 2.508L49 470l-3.07 2.992c-4.99 4.894-9.817 9.882-14.348 15.207-1.663 1.894-3.41 3.66-5.207 5.426-8.246 8.19-8.246 8.19-8.687 12.25L18 508c6.545 3.025 13.75 3.02 20.719 1.348 11.073-4.083 22.137-12.48 28.61-22.38 2.786-6.18 1.92-13.114-.122-19.413-2.275-5.183-2.275-5.183-5.562-6.496C59 461 59 461 56.746 462.449" id="svg-layer-0" style="pointer-events: all;"/><path fill="#598276" d="M528 22c-7.747 41.156-40.89 77.816-74.346 100.899-2.794 1.86-5.674 3.502-8.654 5.042-2.904 1.538-5.626 3.339-8.371 5.141C435 134 435 134 433 134v2h-4c4.276-11.512 13.653-18.307 23.063-25.625l1.696-1.327C457.753 106 457.753 106 460 106l.125-1.687c1.365-3.607 3.786-5.043 6.875-7.313h2l.75-2.187c2.315-5.209 6.215-8.877 10.25-12.813l2.625-2.75C485 77 485 77 488 76a91 91 0 0 0 2-4c1.983-2.54 4.05-4.998 6.125-7.465C499.054 60.575 500 57.942 500 53a117 117 0 0 1 4-5l1-3h2l.375-2.437L508 40l2-1v-2c-4.551 2.465-8.616 5.157-12.715 8.309-2.617 1.937-5.312 3.718-8.035 5.504-4.35 2.88-8.62 5.835-12.812 8.937l-2.942 2.172c-2.272 1.891-3.753 3.726-5.496 6.078h-2l-.68 1.578c-1.435 2.634-3.172 4.924-5.002 7.295C453.99 85.102 449.368 93.615 445 103c-2.753 5.876-2.753 5.876-5 7l-.41 1.758c-.992 3.77-3.585 6.528-5.899 9.61-1.818 2.83-2.655 5.44-3.691 8.632a143 143 0 0 1-3.687 6.813c-.35.607-.698 1.214-1.057 1.84-3.002 5.123-6.418 9.813-10.256 14.347 2 0 2 0 5-1v-3c2.893-1.446 5.533-1.192 8.766-1.305 9.56-.48 18.785-2.283 28.141-4.231a853 853 0 0 1 8.476-1.698c13.06-2.64 26.622-5.768 38.617-11.766-20.726.305-41.137 4.353-61.187 9.394-5.913 1.467-11.704 2.449-17.813 2.606l2-1v-2h2v-2l2.45-.586 3.238-.789 3.199-.773c2.834-.776 5.456-1.598 8.113-2.852l1-2c1.979-.727 3.98-1.398 6-2v-2q3.28-.722 6.563-1.437l3.69-.81c5.934-1.193 11.621-1.88 17.677-1.886l3.91-.004 2.011.007q3.018.005 6.036-.007c18.856.02 18.856.02 21.847 2.68L516 126c-4.475 10.793-13.382 15.63-23.667 20.061-20.958 8.433-44.28 11.356-66.733 11.524-8.901.139-8.901.139-12.6 3.415a292 292 0 0 0-4 6l1.846-.076q9.664-.396 19.327-.778 3.588-.144 7.177-.292c35.505-1.457 35.505-1.457 52.4-.479.714.03 1.428.062 2.164.094 4.667.256 8.671 1.11 13.086 2.531-5.191 12.329-16.015 18.698-28.062 23.625-23.343 8.47-47.985 9.877-72.465 6.646-7.582-.798-7.582-.798-11.887 1.749A97 97 0 0 0 385 210l3.277-.219c13.582-.845 27.118-.972 40.723-.781l3.967.054c39.534.604 39.534.604 52.033 6.946 1.688 3.375 1.688 3.375 2 7-5.61 8.752-17.338 11.544-27.012 13.734C439.064 241 417.224 240.716 396 239.5l-6.804-.375a542 542 0 0 1-4.416-.269c-7.883-.479-14.459-.846-20.882 4.359L362 245l-2.023 1.816c-3 2.834-5.396 5.32-6.977 9.184v3l1.68-1.094 2.195-1.406 2.18-1.406C361 254 361 254 363 254v-2c8.442-2.405 16.561-3.645 25.313-4.187l3.605-.24c20.687-1.305 53.086-3.346 71.082 9.427.754 2.629.754 2.629 1 5q-1.741 1.386-3.5 2.75c-.65.51-1.3 1.02-1.969 1.547-7.236 4.869-14.832 7.113-23.219 9.328q-3.319.89-6.636 1.79l-2.94.779C423 279 423 279 420.348 280.062c-15.97 6.381-37.526 4.324-54.348 3.438-22.984-1.184-22.984-1.184-29 2.5-1.393 1.496-1.393 1.496-2.691 3.117L332 292l2.142-.089c18.491-.748 36.95-1.1 55.456-1.096q4.185 0 8.369-.02c39.4-.188 39.4-.188 54.033 5.205-.064 3.217-.217 5.901-2.133 8.59-19.662 18.625-56.436 16.537-81.234 16.437l-2.028-.008q-9.37-.04-18.741-.115-4.184-.033-8.367-.048-3.895-.016-7.79-.057c-8.556-.025-15.199.044-21.707 6.201a263 263 0 0 0-4 5l-2.5 2.438C301 337 301 337 298.813 340.313L297 343h-2l-.75 2.117c-1.428 3.292-3.23 6.044-5.25 9.008l-2.125 3.133L285 360l-2 3 1 2-3 1a136 136 0 0 0-3 7l-2 3 3-1c1.48-.093 2.963-.13 4.445-.133l2.73-.006 2.95.014 3.042.01c7.885.053 15.765.225 23.646.49l3.287.093 3.045.118 2.698.095C327 376 327 376 329 378c-6.941 2.545-13.698 3.918-21 5l3.215-.21c11.785-.733 23.54-1.03 35.348-1.04l2.766-.003c11.094.008 22.08.194 33.108 1.503l2.84.331c6.402.897 13.001 2.33 18.723 5.419 1.644 2.464 2.017 3.58 1.898 6.559-1.739 4.725-6.598 6.314-10.898 8.441-27.33 12.422-56.957 11.678-86.145 9.456-3.518-.267-7.037-.52-10.556-.77-11.814-.87-23.536-1.95-35.252-3.73-12.558-1.882-12.558-1.882-16.34.47l-1.894 1.887c-2.508 2.436-4.997 4.613-7.813 6.687l2.899.12c3.62.155 7.24.332 10.858.515q2.33.113 4.66.209c23.294.963 23.294.963 32.583 7.156-12.46 1.806-24.782 3.18-37.375 3.5-7.764.208-15.335.642-23 1.938l-2.197.37c-6.562 1.222-6.562 1.222-9.428 3.192l-1 3h-2v2l2-.937c3.705-1.313 7.093-1.666 11-2.063v2c7.856 3.153 15.778 4.022 24.126 4.88 2.342.242 4.682.498 7.022.757 13.529 1.467 27.11 2.562 40.727 2.488l2.234.012c4.01-.007 7.927-.22 11.914-.645 8.286-.81 16.61-.55 24.923-.471 10.074.085 20.01-.2 30.054-1.021v-2l-1.953-.076q-4.461-.178-8.922-.361l-3.07-.12c-16.547-.69-16.547-.69-20.833-1.977-3.404-.714-6.806-.505-10.265-.443-9.813.086-19.496-.593-29.27-1.398l-7.856-.618q-2.621-.205-5.243-.414c-8.192-.649-16.389-1.225-24.588-1.78l-3.72-.254q-4.14-.281-8.28-.559l1-2c2.8-.454 5.527-.781 8.348-1.035l2.561-.253c2.717-.267 5.435-.521 8.154-.774q4.039-.391 8.078-.785 2.515-.244 5.032-.481c3.685-.349 7.356-.73 11.025-1.214 25.096-3.026 52.796-.2 76.802 7.542l3.52 1.035c6.203 1.9 6.203 1.9 8.48 2.965 1 3 1 3 0 6-7.925 8.082-19.436 10.282-30 13l-3.633.969c-17.283 4.164-40.822 7.248-58.367 3.031l-1-2c-2.759-.65-2.759-.65-6.48-1.227q-2.09-.337-4.177-.677l-2.238-.355c-14.073-2.248-27.75-5.218-41.457-9.113-15.726-4.456-15.726-4.456-20.222-2.519l-2.113 1.641-2.266 1.68L202 452c-4.7 3-4.7 3-7 3l-1 3h-2v2c-1.906 1.734-1.906 1.734-4.5 3.75l-2.742 2.152a249 249 0 0 1-9.36 6.774L174 474v3h-2l1 3c-1.247 3.802-3.69 5.573-6.812 7.938-3.67 2.84-7.018 5.68-10.188 9.062l1.957.113c7.448.52 14.745 1.555 22.103 2.783 9.582 1.587 18.778 2.243 28.502 2.166l3.346-.013q4.047-.018 8.092-.049c-6 4-6 4-9 4v2c-3.162 1.054-5.87 1.313-9.187 1.563l-3.293.253L196 510l1 3c-18.253-.66-36.383-2.233-53.974-7.374-7.556-2.2-7.556-2.2-11.026-1.626-2.648 1.645-2.648 1.645-5.375 3.813-7.458 5.625-13.095 8.295-22.625 7.187-7.843-2.393-13.605-7.42-17.511-14.556l-1.052-2.069-1.142-2.206c-7.897-15.914-11.695-33.54-11.67-51.231l.005-3.572c.183-13.19 2.243-25.55 8.37-37.366 3.534.928 4.824 1.75 6.957 4.781q.963 1.842 1.856 3.719l1.038 2.159c12.087 26.3 17.602 56.514 25.149 84.341q2.474-1.931 4.938-3.875l2.777-2.18C126 491 126 491 127 489a99 99 0 0 0-2.937-6.375C108.18 449.568 90.286 402.6 103 366c1.472-2.702 2.954-4.677 5-7 3.077.27 3.966.962 6.043 3.316C134.467 393.232 142.552 439.44 146 476c2.638-1.249 4.934-2.589 7.234-4.383l1.739-1.347 1.777-1.395 1.824-1.418Q160.79 465.731 163 464c-.542-5.169-3.123-9.043-5.687-13.437C140.379 420.734 134.196 388.917 133 355l-.129-3.387c-.128-6.658.341-13.238.941-19.863l.213-2.51c.544-5.435 1.183-11.452 3.975-16.24 2.105-.747 2.105-.747 4-1 9.838 12.35 16.207 26 21 41l.776 2.367c8.168 25.037 13.709 50.55 17.224 76.633l.684 4.95q.686 5.02 1.316 10.05a5505 5505 0 0 0 5.688-5.187l1.607-1.463c9.265-8.47 9.265-8.47 10.705-11.35-.586-1.746-.586-1.746-1.59-3.867l-1.115-2.401c-.407-.86-.814-1.72-1.232-2.607C177.11 376.735 157.048 319.979 173 272c1.313-2 1.313-2 3-3 4.756 0 7.745 2.835 11 6 1.633 2.155 3.084 4.217 4.5 6.5l2.156 3.344c5.922 10.106 9.731 20.703 12.781 31.969l.57 2.068C215.35 349.256 220.804 379.441 222 411c2.95-2.862 5.883-5.742 8.813-8.625l2.525-2.45c8.866-8.758 8.866-8.758 9.662-12.925-1.347-3.76-3.365-7.037-5.437-10.437a1232 1232 0 0 1-3.422-5.993l-1.67-2.924c-3.14-5.648-5.422-11.523-7.471-17.646l-1.018-3.041c-11.629-35.224-27.267-83.69-12.627-120.354C213 224 213 224 215.188 223.125L217 223c31.316 33.148 38.597 98.61 45 142h2a129 129 0 0 0 5.188-6.375l1.479-1.926a900 900 0 0 0 2.945-3.873 337 337 0 0 1 3.74-4.806l1.96-2.582 1.739-2.254c.949-2.184.949-2.184.281-4.68-1.265-2.378-2.55-4.707-3.957-7.004l-1.61-2.656a323 323 0 0 0-3.656-5.75C248.441 286.194 235.921 234.438 244 191c.612-2.354 1.294-4.671 2-7 2.254-.738 2.254-.738 5-1 6.202 4.648 10.422 12.252 14 19l1.762 3.254C282.3 235.36 297.23 278.204 298 312c3.181-2.12 3.58-2.8 5.063-6.125 2.73-5.729 6.05-11 9.459-16.34l1.271-1.996 1.141-1.775c1.133-1.875 2.11-3.793 3.066-5.764l-1.836-2.613C288.3 237.079 270.38 188.332 279 139c.51-2.464 1.14-4.614 2-7l3-1c27.556 25.67 44.215 86.933 51 123h2l.738-1.566c1.008-1.944 2.11-3.838 3.242-5.711l1.088-1.807q1.122-1.857 2.274-3.695c1.595-2.684 2.667-4.65 2.615-7.81-1.173-2.956-2.695-5.387-4.457-8.036-21.016-32.964-34.452-79.01-26-118 .47-1.8.957-3.596 1.5-5.375l5-1 .75 1.875C325 105 325 105 326.809 105.742c3.14 1.803 4.642 4.504 6.503 7.508l1.069 1.64c6.932 10.955 11.806 22.423 15.557 34.798l.627 2.028c5.1 16.533 8.802 33.38 12.435 50.284q.993 4.5 2 9a504 504 0 0 0 5.063-8.062l1.47-2.28c2.237-3.664 3.459-5.897 3.506-10.26-1.173-3.835-2.803-7.215-4.726-10.71-15.418-29.603-17.456-65.019-9.434-97.215C362.84 76.489 365.908 71.76 370 67c1.82.168 1.82.168 4 1 7.675 11.19 9.07 26.862 11.583 39.85q.661 3.404 1.33 6.804 1.433 7.326 2.837 14.659l.45 2.34c1.935 10.085 3.56 20.152 4.8 30.347 1.562-2.77 3.066-5.569 4.563-8.375l1.326-2.348c3.246-6.185 3.47-10.493 2.111-17.277l-.459-2.501A332 332 0 0 0 401 124c-5.663-26.265-3.558-53.888 9-78a83 83 0 0 1 7-9c1.871.309 1.871.309 4 1 13.098 19.448 10.839 47.91 7 70l1.142-1.997C442.341 82.992 455.56 61.224 477 45l2.793-2.121c6.676-4.845 13.616-8.89 20.894-12.754l2.627-1.407C511.222 24.615 518.982 21.412 528 22M417 44l-.586 3.027-.789 3.91-.773 3.903L414 58l-2 1a107 107 0 0 0-2.062 7.25l-.526 2.027c-2.07 8.076-2.605 15.272-2.6 23.598l.003 3.753c.053 8.093.367 16.121 1.06 24.185l.238 2.813c.483 5.016 1.33 9.58 2.887 14.374l3-1v-2q1.487-1.513 3-3c3.82-7.436 3.403-14.889 3.328-23.086q-.005-2.2-.006-4.4-.007-4.598-.04-9.194c-.029-3.902-.04-7.804-.044-11.706q-.01-5.631-.035-11.262l-.006-2.131c-.076-22.1-.076-22.1-3.197-25.221m-48 33c-1.896 8.413-2.276 16.459-2.187 25.063l.001 3.7c.045 8.955.045 8.955 1.186 11.237h-2c-.298 7.895.82 15.296 2.188 23.063l.683 3.916c1.694 9.359 4.027 18.048 7.129 27.021.97 3.158 1.893 6.328 2.813 9.5l1.269 4.344L381 188c4.432-4.432 6.224-13.054 6.375-19.25-.436-4.363-1.276-8.51-2.375-12.75-.826 2.892-1 4.887-1 8-1.444-4.678-2.364-9.042-2.86-13.934l-.433-4.099-.225-2.172c-1.52-14.608-3.441-29.144-5.607-43.67l-.388-2.648q-.55-3.736-1.12-7.47l-.328-2.236c-.596-3.833-1.423-7.238-3.039-10.771zm-47 29c.343 16.193 1.273 31.852 4.566 47.73.432 2.262.674 4.478.872 6.77.359 3.469 1.028 6.33 2.562 9.5l1-3c.15.856.3 1.712.453 2.594 2.19 10.73 5.706 20.802 9.547 31.031l.797 2.137a950 950 0 0 0 2.328 6.152l1.383 3.624c4.239 9.835 4.239 9.835 7.492 11.462.625 2.063.625 2.063 1 4 3-2 3-2 3.852-5.227.168-4.283-.629-6.315-2.477-10.148-3.535-7.908-5.09-16.04-6.637-24.529A200 200 0 0 0 344 168l-2 1-6-30h-2l-.364-1.63c-2.517-11.096-5.27-21.266-10.636-31.37zm-38 43q.755 6.963 1.544 13.922.265 2.361.52 4.722c.893 8.23 1.879 16.137 4.287 24.09.872 3.046 1.209 6.132 1.649 9.266q1.034 3.343 2.25 6.625l1.363 3.703c1.673 4.43 3.36 8.852 5.075 13.266 1.445 3.75 2.848 7.514 4.25 11.281 2.892 7.76 5.952 15.45 9.062 23.125h2l8 17h2c2.109-3.473 2.109-3.473 1.617-5.854L327 268a421 421 0 0 1-.937-4.59l-.524-2.627-.539-2.72-.54-2.71-.995-5.013q-.73-3.67-1.465-7.34l-3 3-.519-2.216c-.781-3.325-1.569-6.648-2.356-9.971l-.816-3.487-.801-3.369-.73-3.094c-.742-2.73-1.671-5.263-2.778-7.863l-1 4c-1.52-6.494-2.676-12.963-3.625-19.562l-.406-2.768q-.489-3.334-.969-6.67h-1l-1 7h-1l-.32-2.016c-.487-3.038-.99-6.073-1.493-9.109l-.501-3.172c-1.147-6.835-2.814-11.896-6.686-17.703a282 282 0 0 1-2.969-10.371c-.617-2.137-.617-2.137-2.031-5.629-2.088-.718-2.088-.718-4-1m120 21-1.574 2.852-2.113 3.773-1.03 1.871c-1.782 3.165-3.619 6.018-5.99 8.777C391 190 391 190 390 193c2.176-.976 3.761-1.726 5.341-3.54 2.185-1.923 3.504-1.889 6.389-1.997l2.924-.133 3.178-.103q3.379-.15 6.758-.303l3.577-.146c33.079-1.39 33.079-1.39 49.333-4.153l3.378-.56C489.39 178.61 489.39 178.61 495 173c-9.218-.18-18.108.3-27.25 1.438-21.551 2.479-43.077 2.754-64.75 2.562l1.5-2.375C406 172 406 172 406 170zm-154 22c-.568 11.959.99 23.535 2.633 35.355.29 2.089.565 4.18.836 6.27 1.003 7.252 2.519 14.402 4.031 21.563l.648 3.12.633 2.922.565 2.638C260 266 260 266 262 268c.698 2.363.698 2.363 1.332 5.313l.732 3.261q.739 3.378 1.461 6.758c1.416 6.265 3.186 11.684 6.228 17.345 1.95 3.634 3.542 7.418 5.185 11.198 3.142 7.16 6.467 14.18 10.062 21.125 2-3.75 2-3.75 2-6h2v-10h-3c-2.912-12.885-4.48-25.888-6-39-1.777 2.666-2.875 5.028-4 8-.105-.918-.21-1.836-.32-2.782q-.598-5.124-1.224-10.243a737 737 0 0 1-.52-4.429c-.245-2.126-.505-4.25-.768-6.374l-.46-3.872c-.701-3.27-1.473-4.87-3.708-7.3l-1 1-.26-1.956q-.586-4.398-1.178-8.794l-.408-3.078-.4-2.969-.365-2.73A61 61 0 0 0 266 226h-2l-1 3-.848-3.777C259.45 213.608 255.887 202.873 251 192zm125 29v2h-2v2l-1.75.625c-3.064 1.873-4.405 4.345-6.25 7.375 5.75-1.875 5.75-1.875 8-3 2.862-.046 5.702-.047 8.563 0 2.818.046 5.617.047 8.437 0l1-1c2.446-.276 4.857-.48 7.313-.625l2.254-.134c6.143-.301 12.23-.173 18.37.134l2.636.13c6.155.36 6.155.36 8.427 1.495 16.715-.043 34.988-1.04 50-9v-1q-16.992-.035-33.983-.052-7.893-.007-15.785-.023-7.635-.016-15.27-.02-2.895-.003-5.788-.01c-11.438-.032-22.767.215-34.174 1.105m-158 10c-5.914 11.827-1.834 31.742 1.125 43.875.703 2.904.95 5.451.875 8.438-.14 5.632.62 11.227 2 16.687l2 2c.51 1.912.928 3.849 1.297 5.793l.706 3.576.747 3.818c2.012 9.815 4.302 18.65 8.396 27.798 1.843 4.35 3.383 8.82 4.979 13.265l.984 2.726q.958 2.657 1.912 5.315a620 620 0 0 0 2.076 5.652l1.083 2.916.984 2.624c.828 2.493 1.378 4.933 1.836 7.517 1.875-.125 1.875-.125 4-1 2.947-5.681 1.547-10.72.313-16.687l-.53-2.877c-.914-4.628-1.422-7.104-4.783-10.436-.584-1.92-.584-1.92-.879-4.113l-.35-2.502-.333-2.697-.373-2.79c-1.015-7.85-1.769-15.724-2.419-23.612-.369-4.476-.816-8.866-1.646-13.286-2.714 3.97-2.19 8.087-2.062 12.688.061 2.775.083 5.535.062 8.312l-1 1-.136-2.209c-.892-14.098-1.937-27.955-4.864-41.791l-1 2h-2l-.335-2.14c-.507-3.204-1.023-6.407-1.54-9.61l-.527-3.367-.528-3.242-.476-2.984c-.561-2.511-1.332-4.428-2.594-6.657l-1 1-5-25zm143 32c2.723 2.723 4.19 2.253 8 2.259l3.828.019 4.172-.012 4.301.005q4.53.005 9.06-.01c3.816-.011 7.633-.005 11.45.007 37.155.096 37.155.096 49.189-3.268v-2c-3.59-1.626-6.424-2.26-10.356-2.306l-3.183-.049-3.434-.016c-1.191-.01-2.383-.018-3.61-.027q-3.805-.022-7.61-.028c-3.776-.011-7.552-.06-11.328-.111-17.43-.113-33.475 1.868-50.479 5.537m-12 6v2l-2.375.375C343 272 343 272 341 274l2.044-.092q4.665-.206 9.331-.408l3.215-.145c14.88-.639 14.88-.639 19.41-.355l1 1c11.063 2.316 22.848 1.037 34 0-3.16-2.782-5.314-3.42-9.488-3.66l-3.3-.214-3.524-.188a6302 6302 0 0 1-7.293-.465l-3.725-.23c-5.606-.371-11.2-.864-16.795-1.368l-5.695-.508-2.384-.215c-3.503-.296-6.428.868-9.796 1.848m-171 4q.354 11.213.745 22.424.13 3.815.25 7.63c.115 3.654.242 7.308.372 10.962l.101 3.45.121 3.215.095 2.826c.329 2.593 1.057 4.228 2.316 6.493.455 2.191.455 2.191.746 4.563l.344 2.649.347 2.788c2.26 16.874 2.26 16.874 4.563 23l2 1c.654 2.13.654 2.13 1.219 4.918l.636 3.053.645 3.216c3.413 16.726 3.413 16.726 6.5 19.813 2.511 6.075 4.236 12.072 4.719 18.621.578 4.888 2.004 9.634 3.281 14.379l5-2v-3c2-1.687 2-1.687 4-3l-.949-3.42c-1.15-4.611-1.563-9.133-1.867-13.865l-.186-2.606q-.289-4.085-.56-8.171-.283-4.091-.571-8.183-.18-2.535-.348-5.068A160 160 0 0 0 209 365h-1l-2 24-.332-8.04a4639 4639 0 0 0-.358-7.854q-.12-2.693-.23-5.387c-.44-10.892-1.307-21.13-4.08-31.719h-2l-1-3-1 22 .125-7.687c.076-14.941-1.109-29.882-5.125-44.313h-1l-1 9c-.182-1.267-.364-2.534-.55-3.84l-.762-5.098-.358-2.517c-1.33-8.76-3.854-15.936-8.33-23.545-.75-2.437-.75-2.437-1-4zm148 22c-1.902 2.45-1.902 2.45-3.937 5.688-2.003 3.16-3.954 6.178-6.317 9.082C313 312 313 312 313 314c6.875-1.875 6.875-1.875 8-3 2.486-.114 4.944-.165 7.431-.174l2.361-.02q2.553-.021 5.104-.036 4.065-.026 8.132-.065 11.565-.105 23.132-.182 7.072-.049 14.145-.12 2.673-.024 5.345-.037c19.499-.096 39.566-.519 57.35-9.366v-1c-6.01-.106-11.977-.034-17.977.364-7.424.489-14.81.712-22.25.663l-2.587-.016a2252 2252 0 0 1-10.481-.107c-2.602-.03-5.204-.048-7.807-.064l-2.355-.04c-5.17-.024-9.57.77-14.543 2.2v-2l-41 3c.751-3.756 1.24-5.832 3-9zm-182 34c-2.18 4.319-2.103 7.974-1.68 12.668l.177 2.254a793 793 0 0 0 .628 7.265l.216 2.511c1.883 21.83 5.161 43.078 10.659 64.302h1v-6l3 12h-2c1.3 4.026 2.747 7.935 4.383 11.836l1.347 3.223 1.395 3.316 1.418 3.387A6456 6456 0 0 0 167 454l1-2 2 1 1 3h-2v4l6-2a386 386 0 0 0-.375-4.062l-.21-2.286C174 449 174 449 173.062 445.812c-1.269-4.55-1.992-9.082-2.688-13.75l-.406-2.65q-.49-3.205-.969-6.412h-2l-.55-3.89c-.668-4.706-1.345-9.41-2.022-14.115-.416-2.911-.821-5.824-1.225-8.737l-.766-5.383-.346-2.563c-.54-3.728-.973-6.135-3.091-9.312l-1 8-.335-2.551q-.627-4.728-1.264-9.455-.273-2.037-.541-4.076c-.258-1.964-.524-3.927-.79-5.89l-.476-3.571c-1.632-9.495-1.632-9.495-4.594-12.457-.547-1.955-.547-1.955-.965-4.316l-.486-2.565q-.487-2.685-.961-5.375l-.49-2.56-.422-2.358L146 330zm-35 41q-.04 3.813-.062 7.625l-.026 2.102c-.131 29.422 8.534 56.931 18.384 84.313q.698 1.944 1.385 3.893a562 562 0 0 0 1.94 5.38l1.103 3.05c1.38 2.852 3.006 4.464 5.276 6.637l1 3 4-2-1.187-3.812c-4.1-13.778-7.456-27.586-10.025-41.735l-.577-3.066-.49-2.712C128 430 128 430 126.506 427.053c-1.562-3.165-2.226-5.824-2.823-9.291l-.627-3.483-.62-3.591q-.615-3.56-1.253-7.114l-.546-3.169L120 398l-2-1c-.623-1.946-.623-1.946-1.148-4.48l-.61-2.78q-.61-2.897-1.21-5.797c-1.21-5.484-2.455-9.564-6.032-13.943zm162 10c-7.126 6.98-13.855 14.134-20 22l3 1 2.254-1.418c6.946-4.002 18.1-1.7 25.882-.853 13.405 1.43 26.736 1.544 40.205 1.477 3.786-.019 7.572-.02 11.358-.02 10.836-.015 21.666-.093 32.492-.58l2.306-.095c10.868-.576 21.61-2.984 31.503-7.511v-1l-1.711.007c-36.447.136-72.85-.22-109.289-1.007v-2l3.313.5c5.226.666 10.427.587 15.687.5-7.47-4.98-16.324-4.49-25-4l-2 1-1-3-8-1 4-2h-4zM82 417c-3.365 3.365-1.992 15.35-2 20 .525 16.047 3.465 30.675 9.973 45.41 1.253 3.159 1.616 6.23 2.027 9.59 1.438 2.938 1.438 2.938 3 5h2l.75 2.125c1.41 3.245 3.229 5.978 5.25 8.875l3-2v-2l2-1c.75-1.875.75-1.875 1-4l-2-3-2 2c-2.903-6.703-5.075-13.456-6.973-20.508C97 474 97 474 95.587 470.452c-1.873-4.954-2.93-10.012-3.997-15.19l-.646-3.038c-.904-4.26-1.794-8.522-2.685-12.784q-.985-4.684-1.982-9.366l-.603-2.926-.577-2.712-.497-2.383C84 420 84 420 82 417m238.875 33.875-2.047.134c-10.32.681-20.578 1.578-30.828 2.991v1c10.082.69 20.086 1.199 30.188.688l2.278-.106c5.862-.354 12.223-.927 17.534-3.582v-2c-5.717 0-11.422.5-17.125.875" id="svg-layer-1" style="pointer-events: all;"/><path fill="#5B8578" d="M56 18c2.625-.187 2.625-.187 5 0v3h2v6h-3l1 3c.175 2.067.346 4.134.492 6.203C63.438 62.228 70.343 87.178 78 112h2q1.478 3.81 2.938 7.625l.841 2.16c1.548 4.066 2.68 7.868 3.221 12.215h3l-1-3h3l-.496-2.105c-.545-3.13-.601-6.033-.567-9.208l.028-3.238L91 114l-1.906-.633C87 112 87 112 86.094 109.507l-.594-3.382-.341-1.889C83.129 92.546 81.61 80.754 80 69l-1 6-2-1c-.562-2.589-.562-2.589-1-6.012l-.5-3.736-.5-3.94q-.492-3.819-1-7.636l-.437-3.44C73 46.004 72.118 43.079 71 40l-2 1-4-19 4-1c21.196 20.136 29.656 63.028 31.18 91.34.006 2.22-.073 4.442-.18 6.66 7.161-5.637 12.946-12.419 18-20l-1.031-1.52C105.925 80.24 97.83 58.207 97.813 37.625l-.038-2.172c-.013-5.128.817-9.521 2.225-14.453a100 100 0 0 1 5 0c1.757 1.757 1.507 4.31 1.797 6.703l.459 3.63.494 3.917c2.405 18.361 5.369 38.297 13.898 54.973C123 93 123 93 123 96l3-2c.117-2.84.036-5.43-.187-8.25l-.173-2.62q-.195-2.925-.408-5.849a990 990 0 0 1-.685-10.719C123.757 53.653 122.922 40.8 121 28h-1l-2 12h-1l-.367-2.887-.508-3.8-.492-3.762c-.558-3.129-1.323-5.672-2.633-8.551 4.03-1.343 7.798-1.267 12-1 2.707 2.038 3.512 3.94 4.281 7.184l.609 2.53.61 2.724.65 2.83C134.603 50.76 136.444 66.149 137 82q3.6-3.305 7.188-6.625l2.04-1.871c3.918-3.63 7.454-7.317 10.772-11.504l-1.828-3.148C141.335 34.805 141.335 34.805 142 21l1-1c1.525.09 3.047.245 4.563.438l2.503.308L152 21c1 3 1 3 1.438 6.125 2.43 16.743 2.43 16.743 6.562 20.875l3 2 2-1 1 7h-3v4c3.031-1.692 5.631-3.446 8-6 .906-3.295.545-6.263.125-9.625l-.236-2.67C170.263 35.094 169.36 28.498 168 22c3.889.81 5.994 2.38 9 5l1.688 1.313C182.03 32.612 182.096 37.782 182 43l2.02-1.723c6.373-5.34 12.884-9.959 19.98-14.277q3.076-1.975 6.148-3.957C220.318 17.315 234.011 18.061 245 21c1.895 1.578 1.895 1.578 3 3l-7 4 3.96.516c16.768 2.246 32.9 5.465 48.964 10.796 2.204.73 4.411 1.448 6.619 2.165C324.413 49.275 324.413 49.275 330 53v2c-6.74.205-12.784-.51-19.375-1.875l-5.578-1.113-2.658-.538c-2.83-.562-5.67-1.056-8.514-1.536-6.6-1.195-13.102-2.703-19.242-5.438-13.951-5.76-30.776-5.502-45.633-6.5v-1l8-1c-5.299-3.533-11.731-1.416-17.75-.312-4.13 1.667-7.267 4-10.25 7.312l-1 3c-2.687 1.754-2.687 1.754-6 3.563-5.898 3.234-5.898 3.234-7 5.437l2.953-.129c4.47.008 8.504 1.019 12.797 2.191l2.502.67c6.685 1.85 13.15 4.145 19.629 6.612 5.407 2.054 10.842 3.892 16.369 5.594a737 737 0 0 1 21.938 7.187l2.897.984c5.54 1.922 10.9 3.826 15.915 6.891 1 2.75 1 2.75 1 5-14.311 11.052-29.704 13.862-47.467 11.7-21.239-3.316-41.236-10.872-61.123-18.764A118 118 0 0 0 177 81v-2h-2v-4c4.767-1.326 9.15-.878 14-.375l2.585.266c4.925.587 9.096 1.524 13.665 3.546C214.556 82.539 224.98 82.97 235 84l2 7c8.285.808 16.49 1.182 24.813 1.188l3.271.037c5.685.01 10.59-.154 15.916-2.225l2-2c-2.018-2.018-5.907-1.646-8.684-1.937l-2.335-.258q-3.708-.408-7.418-.805-3.706-.398-7.408-.805-2.308-.254-4.618-.497c-5.312-.585-5.312-.585-7.537-1.698l2-4c-8.351-1.748-16.546-2.348-25.056-2.658-4.083-.156-7.957-.351-11.944-1.342v-3l12-2c-7.961-1.268-15.923-1.545-23.97-1.832a404 404 0 0 1-5.45-.248 433 433 0 0 0-7.904-.322l-2.456-.151c-2.297-.052-2.297-.052-6.22.553-4 4.563-4 4.563-4 8l-1.875.25L168 76l-.793 1.79c-1.652 3.026-3.831 4.37-6.644 6.335l-2.934 2.07A500 500 0 0 1 152 90c.81.08 1.619.16 2.452.244C169.972 91.787 185.492 93.34 201 95l-4 3 2.449.683c14.28 4.007 28.51 8.088 42.488 13.067l3.041 1.066c5.863 2.138 10.848 4.69 16.022 8.184-1.9 7.132-5.833 10.234-12 14-36.027 14.552-74.735-1.584-108.262-15.441-.655-.27-1.31-.54-1.986-.817a121 121 0 0 1-4.459-2.02c-2.896-.912-4.422-.676-7.293.278-5.993 3.633-10.28 8.12-14 14l2.203-.07c7.354-.132 14.663.108 21.797 2.07l1 2c2.094.698 2.094.698 4.855 1.332l3.06.724c1.08.25 2.16.5 3.273.756 9.194 2.2 18.025 4.692 26.812 8.188v2c-8.359.835-16.603 1.124-25 1.063l-3.629-.012c-5.066-.016-10.133-.044-15.2-.072q-5.585-.025-11.171-.042l-3.41-.025c-7.248-.022-14.378.368-21.59 1.088 6.52-6.765 15.26-7.812 24.34-8.065 3.278-.028 6.553-.015 9.83.05 1.944.037 3.887.03 5.83.015l1-1-2.738-.184-3.575-.254-3.55-.246C124 140 124 140 121 139c-5.751-.342-11.334.015-17 1l-1 3-5 1-1 3c-1.455 1.202-2.912 2.402-4.43 3.523-2.026 1.906-3.22 4.06-4.57 6.477l3.91-.07 5.153-.055 2.568-.05c6.566-.051 11.77.442 17.369 4.175 4.443 1.28 8.977 2.176 13.5 3.125l1.967.417c9.843 2.062 19.159 3.01 29.201 2.474L165 167l2 2c-3.015 1.005-5.042 1.103-8.187 1.063l-2.731-.028L154 170v3c13.707.648 27.401 1.103 41.125 1.125l3.532.014c5.877-.01 11.533-.244 17.343-1.139v-3c-5.635-2.758-11.843-3.027-17.988-3.768-5.967-.777-11.382-2.104-17.012-4.232l3-3c-2.065-2.065-6.34-1.398-9.191-1.535l-2.485-.13q-3.942-.204-7.887-.398-2.667-.136-5.333-.275-6.552-.338-13.104-.662v-1l11-1v-2c19.12-4.738 37.443-1.13 54.438 8.5 4.19 2.537 7.953 5.192 11.562 8.5-.552 4.964-4.214 7.465-7.805 10.55-2.63 1.737-4.943 2.359-8.007 3.075l-3.02.727c-8.069 1.651-15.81 1.864-24.043 1.898l-3.664.063c-15.459.065-30.113-3.466-44.961-7.438l-2.194-.578c-11.147-2.948-21.97-6.4-32.704-10.641l-2.84-1.101-2.439-.985c-2.819-.692-4.567-.436-7.323.43-2.203 2.215-2.203 2.215-4.25 4.938l-2.078 2.714C76 175 76 175 75 177l2.336-.07 3.039-.055 3.023-.07C86 177 86 177 88 179c-1 2-1 2-2.625 2.625-5.267.832-10.166.3-15.375-.625l-1.863 3.105L58 201l1.74-.016q3.943-.029 7.885-.047l2.738-.025c3.59-.013 6.992-.024 10.535.592 11.434 1.829 22.608-.512 33.852-2.504l5.04-.867q6.106-1.051 12.21-2.133v-1a62307 62307 0 0 0-31.169-.573q-5.704-.106-11.41-.208l-3.523-.067Q74.95 193.96 64 194c1.18-2.657 1.89-4.067 4-6 2.987-1.077 5.914-1.745 9.027-2.36C80 185 80 185 82.334 183.966c2.99-1.082 5.127-1.156 8.295-1.047l3.349.11 3.585.16 3.698.146c13.311.606 26.514 2.052 39.739 3.666-3 2-3 2-6 3l2.073.38c23.646 4.383 23.646 4.383 33.697 8.366a101 101 0 0 0 7.367 2.54l2.109.648c1.953.594 3.91 1.176 5.867 1.757C189 205 189 205 189.98 207.09L190 209c-1.516 1.516-2.9 1.179-5.016 1.246l-2.525.095-2.709.096c-21.264.928-21.264.928-28.75 5.563-2.812.188-2.812.188-5 0v2l-16 3c18.478-.973 37.407-4.136 55-10 2.333-.04 4.667-.044 7 0-.274 3.286-.699 4.699-3.062 7.063-6.31 4.161-12.422 6.612-19.813 8.125l-2.238.498c-9.156 1.96-18.046 2.52-27.387 2.064l-2.645-.082c-6.318-.29-11.886-1.6-17.855-3.668v-1c-20.532-3.383-20.532-3.383-30-4l2-4c-5.676-2.154-11.48-3.104-17.437-4.125l-3.065-.55C59.364 209.391 59.364 209.391 55 210c-2.652 2.187-2.652 2.187-4.937 5l-2.34 2.813L46 220c3.605 1.202 6.973 1.23 10.73 1.316l14.33.377q5.97.16 11.94.307c-.862 2.444-.862 2.444-2 5-2.215.89-2.215.89-4.937 1.25l-2.985.422c-3.84.41-7.682.742-11.531 1.047-2.912.321-5.567 1.018-8.375 1.824-2.789.587-5.514.648-8.36.77-3.877.254-6.282.43-9.062 3.25L34 238c5.75.125 5.75.125 8-1 3.72-.441 7.441-.816 11.172-1.162C64.286 234.714 64.286 234.714 68 231c19.348-6.082 41.958-.86 60.855 4.204 6.392 1.618 12.88 2.827 19.356 4.059 5 .991 9.412 1.98 13.789 4.737l2 3a88 88 0 0 0 5 3c-.58 3.915-2.397 6.085-5 9-8.647 6.1-17.758 7.347-28 8l-2.797.18c-16.971.474-34.167-3.214-50.762-6.274-3.538-.65-7.08-1.287-10.62-1.922-12.68-2.3-25.233-4.894-37.735-8.03-5.026-1.257-9.94-2.35-15.086-2.954v-10h2l.813-2.223c1.156-2.705 2.484-4.826 4.187-7.214 2.38-3.47 3.694-6.558 5-10.563a74 74 0 0 1 2.375-3.312c1.877-2.504 3.234-4.863 4.438-7.75 2.034-4.874 4.659-9.37 7.37-13.89 2.122-3.597 4.015-6.93 4.817-11.048-1.09-2.937-1.09-2.937-2.937-6l-1.997-3.46-1.046-1.781C37.607 159.7 33.104 148.06 29 136l-1.223-3.55C19.667 106.7 19.445 77.253 25 51c3 0 3 0 4.508 1.188C35.618 59.036 39.767 66.918 44 75l1.777 3.316C58.01 102.693 66.193 131.946 69 159c9.775-14.236 9.775-14.236 12-20-1.134-3.978-3.337-7.519-5.325-11.126C64.09 106.714 55.852 83.039 53 59l-.332-2.629C49.538 27.694 49.538 27.694 56 18M29 65c-4.288 31.773 5.767 70.534 20 99q1.544 3.807 3.063 7.625l.853 2.14L55 179h2v-2h2c2.4-3.6 2.128-4.763 1.758-8.98l-.293-3.526-.34-3.681-.316-3.717q-.39-4.55-.809-9.096l-4 1v5c-1.283-6.96-2.227-13.901-2.937-20.937C51.29 125.52 49.945 118.34 48 111h-1l-1 14-.805-5.512-1.07-7.175-.527-3.631-.528-3.506-.476-3.222C42.016 99.078 41.282 96.637 40 94l-2-1c-.638-2.146-.638-2.146-1.184-4.953-.205-1.012-.41-2.024-.623-3.067l-1.25-6.414-.627-3.082-.548-2.82C32.922 69.73 31.723 67.51 30 65zm108 40c-1.665.342-3.33.68-5 1v4l3.008.113c9.084.412 18.316.945 26.992 3.887l2 3a81 81 0 0 0 8.125 2.688l2.418.672c6.853 1.763 13.16 2.031 20.2 1.718C198 122 198 122 202 123l-15 2c14.027 9.351 43.83 6.013 59.984 3.73 3.321-.804 6.026-2.096 9.016-3.73-4.366-2.91-8.369-3.115-13.527-3.316l-3.15-.127-3.26-.12-3.249-.13c-4.942-.193-9.867-.328-14.814-.307v-2h11l1-3c-4.56-1.725-8.85-2.422-13.68-2.746l-4.507-.35q-3.491-.256-6.982-.506c-10.792-.786-21.239-2.173-31.831-4.398l6.688-1.437 3.761-.81A591 591 0 0 1 192 104v-1c-18.14-2.252-37.217-2.516-55 2M99 206l-1 3-3 2 1.836-.035 2.539-.028 2.46-.035c2.666.083 5.232.301 7.88.59 13.186 1.377 26.596.742 39.785-.304l2.91-.213c5.167-.46 9.063-1.221 13.59-3.975v-2q-6.956-.92-13.924-1.748c-1.72-.209-3.438-.44-5.154-.678-15.626-1.772-32.513.546-47.922 3.426m-41 33-1 3-2.687-.25c-4.03.304-5.322 1.661-8.313 4.25a4032.766 4032.766 0 0 1 14.46 1.172q2.453.201 4.907.395C82.102 248.895 82.102 248.895 90 251v2c7.682 1.974 15.221 2.63 23.125 3.125l3.92.253C152.568 258.57 152.568 258.57 162 253v-2c-5.577-1.366-11-2.366-16.75-2.625l-2.292-.115c-15.298-.637-30.65-.338-45.958-.26v-1l3.105-.367 4.082-.508 2.042-.238c3.874-.492 7.222-1.247 10.771-2.887v-4l-2.982-.076q-5.476-.142-10.952-.296-2.37-.066-4.74-.125-3.408-.088-6.814-.187l-2.14-.05c-3.038-.092-5.468-.298-8.372-1.266-7.84-.578-15.32.499-23 2M518 237c1.785.172 1.785.172 4 1 10.789 13.613 12.743 34.233 14 51l.17 2.226c.863 12.014.93 24.047.955 36.087l.008 2.149c.097 33.822.097 33.822-9.996 45.874-4.019 5.01-8.094 10.536-10.137 16.664h-2l-.246 3.516c-.59 4.725-2.417 8.181-4.817 12.234C506 414.494 506 414.494 506 419l3-6h2l.813-1.812c1.186-2.186 2.283-3.601 4.187-5.188h2l1-2c2.063-.625 2.063-.625 4-1v-2l-7 2c-1-3-1-3 .422-5.945 3.227-3.824 6.248-5.15 10.828-6.93l2.258-.93A399 399 0 0 1 535 387c1.496 1.172 1.496 1.172 3 3 .596 5.129-.024 10.473-3.25 14.625-6.332 6.347-14.555 11.144-22.25 15.625-4.758 2.793-8.69 5.322-10.5 10.75l2-1c11.408-.894 23.134-.851 34 3 2.782 11.127 2.782 11.127-.633 17.203-2.86 3.76-6.51 5.41-11.126 6.372-3.584.47-7.109.654-10.721.784q-2.138.096-4.276.196c-2.225.101-4.45.196-6.675.268-2.164.073-4.325.177-6.487.286l-3.9.156C491 459 491 459 489.186 461.388L488 464a220 220 0 0 1-4.187 5.313l-2.168 2.675L480 474l1.678-.49c4.527-.995 9.205-.7 13.822-.697h3.356c11.264.076 23.196.28 34.144 3.187.875 2.063.875 2.063 1 5-3.56 7.053-11 10.268-18 13-11.067 3.643-21.48 6.286-33.168 5.64q-2.699-.099-5.396-.187c-2.81-.092-5.612-.202-8.419-.379-15.246-.925-15.246-.925-19.913 2.192-2.77 2.597-4.883 5.448-6.941 8.624-2.187 3.144-3.725 4.518-7.163 6.11-6.871.213-12.924-3.759-18-8-9.988-9.601-19.885-22.845-21.305-37.047-.006-2.344.068-4.622.305-6.953 2.787-1.43 4.93-2.249 8.05-1.523 11.592 4.735 19.44 13.862 26.95 23.523l1.411 1.81A1116 1116 0 0 1 441 499l4-1c-.23-11.95-9.002-21.516-15.654-30.861-8.681-12.207-18.524-27.28-18.471-42.827l-.008-2.324C411 420 411 420 412 418c7.661-.815 12.548 2.249 18.445 6.95C443.81 436.617 455.254 450.578 464 466l6-12c-7.768-11.786-7.768-11.786-10.937-15.875-13.867-18.264-28.61-42.44-25.438-66.187.414-2.723.414-2.723 1.375-4.938 2.336-1.246 2.336-1.246 5-2l2.016-.86c1.984-.14 1.984-.14 4.28 1.344 6.151 5.68 11.17 11.478 15.704 18.516l1.253 1.927C471.938 399.473 477.612 413.886 483 429h2c2.656-9.826 4.1-16.778-.97-26.074-2.276-4.258-4.316-8.638-6.405-12.988-.48-.996-.96-1.991-1.456-3.016-8.605-18.008-19.691-42.47-13.267-62.774C464 321.938 464 321.938 466 319c3.558-.351 5.357-.5 8.238 1.738 10.724 13.309 16.303 29.225 22.2 45.075l.798 2.111c4.467 11.892 9.025 24.507 4.764 37.076l-2 1-.516-1.906c-.12-.428-.12-.428-.734-2.594l-.703-2.531C497 396 497 396 495.262 392.613c-3.283-6.397-5.656-13.21-8.2-19.925-3.11-8.207-6.286-16.318-9.997-24.278-1.796-4.065-3.03-8.261-4.268-12.527-.514-1.657-1.146-3.275-1.797-4.883l-3-1q1.695 6.948 3.462 13.876c.457 1.806.902 3.615 1.343 5.425 2.958 11.31 7.556 22.028 12.007 32.817q1.548 3.762 3.067 7.534.777 1.894 1.558 3.786l1.31 3.183C492 399 492 399 495 401c1.003 3.008 1.303 5.538 1.563 8.688l.253 3.011L497 415c3.556-4.45 5.563-9.366 7.813-14.562l1.31-2.905 1.209-2.787 1.116-2.541L509 390l-2-3c-.126-2.31-.176-4.624-.187-6.937-.543-14.803-7.556-28.507-13.029-42.043-7.45-18.524-13.242-41.137-5.76-60.696.91-1.818 1.93-3.58 2.976-5.324 13.613 7.013 19.083 21.102 23.505 34.862A902 902 0 0 1 517 315l.76 2.467c2.805 9.188 4.86 18.13 5.88 27.69C524 348 524 348 525 350c6.424-11.972 5.369-27.688 5.625-40.937q.057-2.5.117-4.999.142-6.03.258-12.064h-2l.55 3.734c.653 5.906.169 11.616-.362 17.516l-.283 3.334c-.665 7.53-1.516 14.981-2.905 22.416h-1l-.18-2.461c-1.376-18.077-3.664-35.498-7.515-53.223-1.855-8.685-2.486-17.008-2.492-25.878l-.038-2.71c-.013-6.206.398-12.074 3.225-17.728m-23 49-.437 2.813C494 292 494 292 493 295c.553 2.563 1.17 5.042 1.875 7.563 1.238 4.633 2.347 9.072 2.688 13.875.418 5.791 2.067 10.974 4.78 16.101 2.343 4.894 4.045 9.951 5.782 15.086l1.09 3.082c3.553 10.5 4.36 20.338 2.785 31.293 4.412-4.412 5.94-12.009 6.033-18.162-.494-9.43-2.608-18.437-5.946-27.248-2.644-7.012-4.654-14.088-6.524-21.34-5.627-21.312-5.627-21.312-8.563-28.25zm-56 83c2.66 17.542 8.511 31.664 17.242 47.066 2.93 5.183 5.602 10.472 8.209 15.823 3.421 6.996 3.421 6.996 5.549 10.111h2l.813 2.375C474 447 474 447 477 449l-2 1 1 2h2c2.194-5.047 1.939-7.727.125-12.875l-.683-1.941c-2.596-7.083-6.016-13.765-9.525-20.43-1.342-2.567-2.63-5.16-3.917-7.754l-2 1-.586-1.793c-3.83-11.623-3.83-11.623-6.414-14.207-2.482-3.03-4.136-6.154-5.812-9.687-2.644-5.388-5.502-10.559-9.188-15.313zm-20 58c1.657 5.819 4.429 10.933 7.25 16.25l1.41 2.7c9.143 17.353 9.143 17.353 15.34 23.05a266 266 0 0 1 4.75 5.625l2.36 2.852C452 480 452 480 453 483l-2 1 3 3c2.797-2.068 3.027-3.144 3.688-6.687L458 477h-2l-.816-2.652c-3.21-9.076-8.86-16.45-15.117-23.614-4.739-5.432-9.012-11.139-12.594-17.406-2.135-3.375-4.99-4.586-8.473-6.328m80 7c-3.26 3.61-5.496 7.545-7.754 11.816C490 448 490 448 488.286 450.09L487 452l1 3 3.313-1.875 1.863-1.055c1.644-.964 3.238-2.013 4.824-3.07a92 92 0 0 1 6.285-.93l3.799-.472q3.937-.47 7.875-.922c7.567-.95 14.149-2.358 21.041-5.676l-1-4a526 526 0 0 0-38 3l2-6zm-93 39c-.773 1.59-.773 1.59-1 4a60 60 0 0 0 4.375 6.563l1.378 1.856c1.4 1.872 2.821 3.728 4.247 5.581l1.28 1.693c6.869 9.042 6.869 9.042 12.72 11.307l1 3h2c-.554-4.179-1.913-6.728-4.375-10.125l-1.836-2.57c-1.502-1.936-3.053-3.59-4.789-5.305l-1-2h-2l-.785-1.707c-1.345-2.538-2.903-4.704-4.652-6.98l-1.81-2.387C409 474 409 474 406 473m82.438 9-4.827.29q-5.805.347-11.611.71v3l-1.898.77-2.477 1.043-2.46 1.019C463 490 463 490 461 493c7.873.23 15.453-.637 23.25-1.687l1.985-.266c8.728-1.181 17.37-2.602 25.952-4.61l2.605-.598c4.023-1.004 6.393-1.663 9.208-4.839-11.897-.136-23.69.257-35.562 1" id="svg-layer-2" style="pointer-events: all;"/><path fill="#5C877A" d="M198 456c2.997.207 5.954.479 8.938.813l2.612.282c5.9.664 11.66 1.576 17.45 2.905l-2 2 3.191.148c8.394.424 16.613 1.175 24.938 2.375 6.931.854 13.898 1.153 20.871 1.477-2.62 1.746-4.038 2.387-7 3 5.724 1.536 11.45 2.64 17.29 3.648 34.158 5.94 34.158 5.94 48.71 15.352-1.682 5.605-3.871 8.504-8.863 11.582-22.734 10.277-46.605 8.425-70.324 3.64-8.271-1.659-16.38-2.811-24.813-3.222l1-2c-10.636-3.44-21.348-6.543-32.129-9.5-5.357-1.478-10.645-3.03-15.88-4.895-3.294-1-6.57-1.294-9.991-1.605v-5c8.31-4.029 16.442-1.175 25 .75 12.333 2.694 24.631 4.542 37.184 5.868l3.761.425 3.329.344c2.982.67 3.774 1.372 5.726 3.613l3 1v2l2.759-.02c9.121-.043 18.235.077 27.354.274l3.49.074q7.192.153 14.385.32 5.313.122 10.625.23l3.29.083 3.047.06 2.671.061c2.28-.079 4.198-.436 6.379-1.082-19.261-6.065-39.529-8.32-59.648-8.824-3.22-.09-6.215-.382-9.352-1.176l1-2c2.649-.594 5.292-.742 8-1-9.453-1.848-18.844-2.566-28.437-3.062l-4.512-.25A2999 2999 0 0 0 197 473c3.204-2.136 4.02-2.231 7.688-2.125l2.449.055L209 471v-2l13-2c-4.218-.844-7.579-1.116-11.832-1.098l-3.916.01-4.065.026q-2.06.008-4.123.013-5.032.018-10.064.049v-2c1.934-1.691 1.934-1.691 4.438-3.562 4.55-3.425 4.55-3.425 5.562-4.438" id="svg-layer-3" style="pointer-events: all;"/><path fill="#5B8478" d="M424 341c1.438 2.25 1.438 2.25 1 5-3.411 8.594-12.842 12.434-20.724 16.026-19.701 8.429-42.14 10.316-63.276 11.974 2-2 2-2 5-3-12.347-1.907-24.658-3.329-37.125-4.187l-3.622-.254c-7.428-.48-14.81-.658-22.253-.559v2l-3 1 1-4h3v-3c3.096-4.128 7.08-5.9 12-7 4.88-.336 9.73-.323 14.619-.256 2.502.034 5.003.05 7.505.06 4.434.023 8.867.062 13.3.107 59.863.596 59.863.596 75.951-5.036l2.59-.84A372 372 0 0 0 416 347c-3.225-1-5.793-.99-9.141-.665l-3.215.282-3.562.313c-19.782 1.542-39.575 1.298-59.403 1.207-5.057-.02-10.113-.03-15.17-.04Q310.756 348.067 296 348c4.43-8.065 9.127-12.33 18-15 5.873-1.54 11.565-2.38 17.625-2.625l2.525-.11c66.492-2.537 66.492-2.537 89.85 10.735m-106 0c2.826 2.826 4.748 2.33 8.715 2.45l2.13.066c2.364.07 4.728.121 7.092.171l2.463.062c23.534.572 47.073-.123 70.6-.749v-1c-12.972-3.267-25.6-3.4-38.917-3.281-3.51.03-7.02.04-10.53.047-32.192.11-32.192.11-41.553 2.234M19 258q3.063-.04 6.125-.062l3.445-.036c3.243.093 6.25.484 9.43 1.098v1l-6 1 3.406.595c4.218.738 8.435 1.484 12.652 2.23q2.724.482 5.45.958c17.71 3.094 17.71 3.094 26.185 5.576 3.027.841 6.074 1.382 9.168 1.92 8.874 1.558 17.391 3.851 25.951 6.659l3.054.98c5.801 1.966 10.482 4.05 15.134 8.082.805 4.098.643 6.022-1.656 9.52-2.67 2.825-4.99 4.09-8.531 5.668l-3.231 1.48c-17.342 6.449-37.408 4.381-55.025-.03-2.716-.678-5.441-1.3-8.17-1.923C42.919 299.53 30.526 294.859 18 289a3983 3983 0 0 1-.055-12.28q-.008-2.09-.02-4.179-.018-3-.023-6.002l-.016-3.65C18 260 18 260 19 258m6 16v5l-3 1c1.957 2.708 3.162 3.035 6.504 3.766q2.027.26 4.058.484l2.077.273c5.078.618 5.078.618 7.361-.523l1 5c5.39 1.713 10.564 2.586 16.188 3.125l2.634.255c15.4 1.368 30.78.661 46.178-.38l-3.937.313c-4.203.46-7.878 1.497-11.844 2.921-3.355 1.158-6.766 1.95-10.219 2.766v1c2.791.225 5.582.43 8.375.625l2.348.195c6.072.402 11.382-.382 17.277-1.82.879-.21 1.757-.42 2.663-.635a747 747 0 0 0 7.962-1.99l2.754-.695q3.312-.837 6.621-1.68v-1l-17-2 1-4-1.772-.168q-3.99-.38-7.978-.77l-2.79-.263-2.694-.264-2.476-.238C94 284 94 284 92.123 283.487c-2.956-.678-5.827-.71-8.857-.803l-3.926-.127-4.09-.12-4.137-.13Q66.057 282.149 61 282l17-4v-2q-7.463-.435-14.93-.854-2.527-.144-5.055-.292C46.994 274.21 36.042 273.862 25 274" id="svg-layer-4" style="pointer-events: all;"/><path fill="#80AA96" d="m137 141-1 2-3.48-.07c-25.302-.361-25.302-.361-34.52 6.07l1.74-.217c7.02-.796 13.936-.897 20.994-.845l3.623.011c5.07.016 10.14.044 15.21.072q5.584.025 11.167.042l3.398.025c7 .02 13.875-.34 20.845-1.012 4.134-.104 6.508.832 10.023 2.924v1l-3.586-.035c-8.213-.056-16.253-.018-24.414 1.035v2l-6 1 2.826.168q5.231.312 10.461.632l4.513.27q3.258.194 6.516.395l3.952.238c3.62.288 7.145.743 10.732 1.297v1l-8 2c7.082 2.985 13.804 3.95 21.398 4.816 5.115.643 9.092 1.487 13.602 4.184l-1 4c-7.037 1.088-13.95 1.153-21.062 1.125l-3.703-.008a664 664 0 0 1-24.298-.554l-2.916-.12c-6.636-.315-6.636-.315-10.021-1.443v-3h-6v-1h17v-1c-1.035.07-2.07.14-3.137.21-10.73.473-20.812-.838-31.3-3.023l-3.86-.79c-9.608-2.093-9.608-2.093-13.703-5.397-5.175-1.282-10.565-1.319-15.875-1.562l-2.664-.131Q91.23 157.149 88 157c1.243-3.65 2.407-5.74 5.438-8.125 1.784-1.426 3.491-2.803 5.097-4.43C100 143 100 143 103 141l1-2c11.279-2.4 21.912-.311 33 2M177 273h2l.77 1.977c2.955 7.506 2.955 7.506 4.855 11.086 3.741 7.992 4.219 17.289 5.375 25.937l1-9c2.444 3.666 2.898 7.114 3.563 11.375l.391 2.47c2.22 14.416 2.131 28.59 2.046 43.155l1-27 1 3h2c3 11.457 3.714 22.596 4.188 34.375q.122 2.722.248 5.445c.202 4.393.383 8.786.564 13.18l2-24h1c1.437 12.415 2.474 24.824 3.214 37.302.397 6.144 1.037 11.789 2.786 17.698l-2.5 1.813L210 424v3l-4 1q-.977-3.749-1.937-7.5l-.553-2.11c-.896-3.518-1.624-6.946-2.018-10.558-.45-3.507-1.182-6.353-2.43-9.644l-1.027-2.77C197 393 197 393 195 390a69 69 0 0 1-1.219-4.676l-.636-2.76-.645-2.877c-3.248-14.319-3.248-14.319-5.496-18.57-1.048-2.21-1.564-4.172-2.04-6.566l-.513-2.572-.513-2.666-.526-2.608c-.964-4.9-1.693-9.727-2.066-14.708C181 330 181 330 180.004 328.207c-1.199-2.635-1.318-4.636-1.415-7.526l-.12-3.215-.102-3.45-.126-3.548c-.13-3.74-.248-7.478-.366-11.218q-.13-3.803-.262-7.605A6251 6251 0 0 1 177 273M217 231c1.644 2.974 2.46 5.648 3.07 8.984l.528 2.832.527 2.934.55 2.98q.672 3.634 1.325 7.27l2-1c1.469 6.33 2.648 12.64 3.625 19.063l.406 2.623q.488 3.156.969 6.314h2l1-2c3.08 14.555 4.087 29.171 5 44 1-1 1-1 1.027-4.676q-.058-3.489-.154-6.978l-.033-2.272-.051-2.075c.248-2.354 1.051-3.954 2.211-5.999 1.13 7.324 2.118 14.628 2.781 22.008l.183 2.02q.366 4.095.713 8.195.263 3.05.542 6.097l.31 3.602c.437 2.859 1.005 4.627 2.471 7.078 2.913 5.11 3.938 9.826 4.813 15.563l.443 2.537c1.28 8.123 1.28 8.123-1.256 11.9-2.125.813-2.125.813-4 1l-.629-2.43c-2.753-10.158-6.454-19.81-10.371-29.57-5.587-13.99-10.031-27.687-12.656-42.526l-.45-2.466-.38-2.199C223 302 223 302 221 300c-1.341-5.308-2.16-10.772-1.937-16.25.147-5.054-.905-9.89-1.908-14.815-2.25-11.057-5.398-27.45-.155-37.935" id="svg-layer-5" style="pointer-events: all;"/><path fill="#588074" d="m18 304 3.938.313 2.214.175c2.478.446 4.58 1.066 6.946 1.89 4.384 1.514 8.788 2.561 13.314 3.561 10.197 2.265 20.114 5.01 29.963 8.498l3.037 1.052C84.58 322.11 90.716 325.687 97 330c-.786 4.792-.786 4.792-2.715 6.66-16.04 10.12-31.713 11.238-49.965 7.262-22.837-5.44-22.837-5.44-27.32-9.922-.269-8.194-.269-8.194 1-12l3 1v2c6.66 3.463 13.251 5.77 20.5 7.625l2.473.656C58.265 336.998 74.968 338.407 89 333c-1.05-.182-2.101-.364-3.184-.55-7.51-1.334-14.632-2.816-21.816-5.45a158 158 0 0 0-4-1v-3c-7.961-1.527-15.768-2.345-23.848-2.754C33 320 33 320 30 319v-2l-7 1 2 2h-7z" id="svg-layer-6" style="pointer-events: all;"/><path fill="#80AA96" d="m187 463 2 2c2.702.195 2.702.195 6.11.125 1.23-.015 2.459-.03 3.726-.047l7.781-.156 3.742-.047 3.421-.07c3.387.205 6.064.983 9.22 2.195v1l-14 1v2l-9 1 3.339.152c36.865 1.691 36.865 1.691 49.411 2.848l2.46.214c3.64.368 6.663.81 9.79 2.786-2.047 2.047-6.304 1.7-9 2 2.811.793 5.337 1.131 8.254 1.176A266.2 266.2 0 0 1 326 490c-3.73 3.73-9.808 2.962-14.868 3.05-3.107-.013-6.21-.067-9.316-.136l-3.442-.064q-3.585-.069-7.168-.147c-3.63-.078-7.258-.145-10.888-.21l-7.002-.141-3.246-.06A246 246 0 0 1 250 491v-2l-1.875-.375C246 488 246 488 244 486c-2.613-.499-2.613-.499-5.957-.86l-3.772-.434-2.016-.224a358 358 0 0 1-38.899-6.551c-5.588-1.24-10.631-2.266-16.356-1.931h-4c1.525-4.063 4.06-5.754 7.563-8.187 5.433-3.809 5.433-3.809 6.437-4.813M250 192c7.283 10.924 10.44 24.297 13 37l1-3h2l1.846 11.63A801 801 0 0 1 270 252l2-1c2.167 3.603 2.561 7.032 3.07 11.172l.26 2.068c.272 2.17.534 4.34.795 6.51l.55 4.426q.674 5.41 1.325 10.824l3-8h1l.443 3.257q.815 5.98 1.638 11.96.356 2.587.707 5.176.508 3.72 1.02 7.439l.316 2.34c.426 3.065.895 5.885 1.876 8.828h3v10h-2l-1 6c-2.294-2.88-3.973-5.75-5.559-9.07l-1.42-2.97-1.459-3.085-1.447-3.016c-2.616-5.497-5.034-11.018-7.23-16.695C270 296 270 296 268.41 293.078c-2.105-4.595-2.954-9.394-3.973-14.328q-.615-2.979-1.253-5.953l-.546-2.646C262 268 262 268 260 266c-.65-2.348-1.2-4.646-1.691-7.027l-.455-2.132q-.476-2.242-.94-4.487c-.469-2.254-.951-4.504-1.435-6.754-1.501-7.08-2.799-14.031-3.31-21.264a94 94 0 0 0-.704-6.418c-1.234-8.73-1.713-17.084-1.465-25.918" id="svg-layer-7" style="pointer-events: all;"/><path fill="#81AB97" d="M308 427v1l-2.025.152c-22.474 1.7-22.474 1.7-31.663 2.848-10.08 1.257-20.193 2.122-30.312 3l1.936.136 5.986.423q3.656.259 7.312.515 11.279.796 22.547 1.727 5.109.416 10.219.824l2.576.206c12.415.973 24.693 1.452 37.15 1.146l3.165-.067 2.72-.09c2.635.198 4.06.987 6.389 2.18 2.565.41 2.565.41 5.422.633l3.105.254 3.223.238 3.27.262q3.99.318 7.98.613v2c-10.849 1.766-21.28 2.23-32.25 2.063q-4.383-.056-8.766-.09l-2.114-.017c-4.871-.013-9.638.29-14.477.806-14.235 1.416-28.78-.113-42.959-1.441q-3.568-.333-7.138-.646a1447 1447 0 0 1-11.296-1.05l-3.523-.308c-6.836-.694-12.414-2.037-18.477-5.317v-2l-13 3c0-2 0-2 1.152-3.402 10.52-9.046 26.703-7.865 39.764-8.179 7.597-.214 14.947-.987 22.459-2.106 10.847-1.583 20.826-.973 31.625.687" id="svg-layer-8" style="pointer-events: all;"/><path fill="#80AA96" d="M192 103v1l-3.395.621-4.417.817-2.237.408c-3.064.568-5.99 1.167-8.951 2.154 11.356 2.385 22.559 3.734 34.125 4.563q3.492.25 6.982.52 2.143.165 4.287.31c4.14.32 7.724 1.139 11.606 2.607l-1 3h-11v2l2.5-.035c25.159-.197 25.159-.197 35.5 3.035-3.05 3.946-7.393 4.562-12.047 5.344-18.637 2.313-38.78 1.235-56.953-3.344v-1l15-2c-4.062-1.016-6.967-.935-11.125-.75-6.56.145-12.434-.805-18.75-2.562l-2.36-.646c-5.498-1.641-5.498-1.641-7.765-5.042-9.62-3.263-19.936-3.621-30-4v-4l2.094-.402q2.952-.609 5.875-1.352c16.793-3.845 34.997-3.361 52.031-1.246M510 36l2 1c-1.37 2.95-2.878 5.525-5 8h-2l-.25 1.625c-1.014 3.21-2.822 5.638-4.75 8.375l2 1-2 2-1.062 2.938C496.126 67.822 490.282 74.998 484 79h-2l-.687 1.688C480 83 480 83 477.75 85.188c-2.354 2.407-3.822 4.423-5.562 7.25-2.631 4.117-5.477 6.62-9.551 9.273C461 103 461 103 460 106c-2.117 1.691-2.117 1.691-4.875 3.563-5.248 3.697-9.937 7.753-14.617 12.14C438 124 438 124 435.262 126.156c-2.264 1.846-3.207 3.158-4.262 5.844h-2c1.19-5.43 2.558-9.84 6.188-14.125 3.317-3.953 5.57-8.014 7.812-12.625l1.027-2.104q1.014-2.086 2.022-4.175c4.095-8.484 8.647-16.229 14.264-23.784l1.6-2.16c1.31-1.717 2.692-3.378 4.087-5.027h2l.727-1.766c4.07-7.14 13.527-11.827 20.242-16.214 3.946-2.63 7.754-5.43 11.558-8.258 3.037-2.164 6.138-4.094 9.473-5.762m-12 14c-5.626 2.93-10.612 6.373-15 11v2l-1.73.742C470.335 69.802 460.918 83.803 454 94v2c6.398-1.248 9.16-5.129 13-10 4-5 4-5 5.5-6.437C474 78 474 78 475.813 75.125c2.385-3.408 4.942-5.543 8.187-8.125a451 451 0 0 0 5-5l10-10zM143 329l3 1c.66 1.778.66 1.778 1.063 4.078l.476 2.52.461 2.652c.998 5.64 1.974 9.837 5 14.75.63 2.691 1.145 5.278 1.563 8l.37 2.25c.367 2.248.719 4.499 1.067 6.75q.316 2.003.633 4.004.7 4.495 1.367 8.996l1-5c2.232 3.348 2.492 5.263 3 9.215l.5 3.771.5 3.952a5883 5883 0 0 0 1.492 11.401c.727 5.24 1.595 10.451 2.508 15.661h2l.335 2.108c.508 3.173 1.024 6.345 1.54 9.517l.527 3.316c.852 5.206 1.79 10.085 3.598 15.059.125 2.875.125 2.875 0 5l-6 2v-4h2l-1-3-2-1-1 2q-2.328-5.442-4.645-10.889-1.175-2.76-2.357-5.517l-1.494-3.516-1.38-3.237c-.907-2.292-1.614-4.438-2.124-6.841h2l-3-11v5c-11.048-20.745-10.64-50.09-12.375-73.25l-.294-3.75-.23-3.453-.208-3.036C141 332 141 332 143 329" id="svg-layer-9" style="pointer-events: all;"/><path fill="#81AB97" d="m270 380 1 2c2.063.625 2.063.625 4 1l-4 1 8 1 1 3 2-1c8.822-.624 16.638.133 25 3v1l-3.716-.124q-6.817-.22-13.636-.413-2.953-.088-5.905-.187c-2.827-.094-5.654-.174-8.481-.253l-2.671-.097-2.487-.061-2.187-.068C266 390 266 390 263 392c12.293.173 12.293.173 17.813-.562 4.191-.486 8.146-.31 12.351 0 9.129.625 18.252.91 27.399 1.125l2.623.064c25.267.602 50.542.467 75.814.373-2.716 1.81-4.966 2.871-8 4l-2.625 1c-8.512 2.522-17.054 3.346-25.895 3.613l-3.257.113c-11.18.359-22.36.46-33.545.46-3.375.002-6.75.02-10.125.039-12.354.03-24.494-.45-36.78-1.764-18.636-1.95-18.636-1.95-25.773 2.539l-3-1c6.432-7.496 13.012-15.012 20-22" id="svg-layer-10" style="pointer-events: all;"/><path fill="#547B6F" d="M335.698 19.719c3.466.03 6.931.04 10.398.047 13.659.048 27.268.45 40.904 1.234.621 2.313.621 2.313 1 5-4.52 7-10.803 10.632-18.75 12.813C345.583 43.524 316.4 37.993 296 25l1-2c12.494-3.933 25.76-3.398 38.698-3.281M326 29c9.713 1.64 19.02 2.312 28.875 2.25l3.797.023C365.13 31.26 370.828 30.95 377 29c-2.459-2.459-3.132-2.252-6.51-2.259l-2.831-.019-3.065.012-3.139-.005q-3.288-.003-6.577.01c-3.364.011-6.728 0-10.093-.012q-3.189 0-6.379.007l-3.065-.012-2.831.02c-.825 0-1.65.002-2.499.004C328 27 328 27 326 29" id="svg-layer-11" style="pointer-events: all;"/><path fill="#588175" d="M223 37h3v2h17v1l-13 1c2.758 1.839 4.451 2.536 7.578 3.367l2.75.74 2.922.768 2.973.795Q250.61 47.841 255 49q2.395.639 4.79 1.281Q264.891 51.648 270 53v1c20.603 3.04 41.25 4.495 62 2l1 2c-1.45 3.934-3.46 5.476-7.125 7.188C290.792 79.03 247.343 58.009 214 47v-2h-2c1-3 1-3 3.063-4.187L217 40v-1l6-1z" id="svg-layer-12" style="pointer-events: all;"/><path fill="#80AA96" d="M284 149c1.9.24 1.9.24 4 1 .957 1.81.957 1.81 1.598 4.148l.74 2.547.724 2.68q.724 2.61 1.473 5.21l.637 2.346c.828 2.069.828 2.069 2.349 3.55 1.94 1.993 2.136 3.508 2.612 6.23l.504 2.773c.16.954.322 1.908.488 2.891l.512 2.867q.473 2.655.93 5.31c.44 2.491.928 4.97 1.433 7.448h1l1-7h1l5 32v-3c.306-1.34.635-2.675 1-4 2.595 6.392 4.225 12.766 5.688 19.5l.681 3.07q.823 3.714 1.631 7.43l3-3 .813 4.063.546 2.73a4754 4754 0 0 1 1.806 9.08l1.151 5.807c.389 1.887.81 3.77 1.332 5.625.5 2.404-.41 3.655-1.648 5.695h-2l-8-17h-2c-11.276-27.154-11.276-27.154-14.95-38.773-1.127-3.463-2.41-6.837-3.738-10.227-7.508-19.264-9.214-40.563-11.312-61" id="svg-layer-13" style="pointer-events: all;"/><path fill="#5C8478" d="M53 426c3.034 5.11 2.614 10.825 1.523 16.465C49.115 460.63 31.253 478.043 15 487q-.08-4.5-.125-9c-.017-.84-.034-1.678-.05-2.543-.134-17.223 11.09-28.722 22.355-40.668C47.815 424.272 47.815 424.272 53 426" id="svg-layer-14" style="pointer-events: all;"/><path fill="#80AA96" d="m68 21-2 2c.46 3.258.46 3.258 1.375 7.125l.898 3.883L69 37h2c4.132 12.101 5.58 24.347 7 37l1-7 2 1a141 141 0 0 1 1.438 8.926l.38 2.724c.403 2.887.793 5.774 1.182 8.662.39 2.878.781 5.755 1.182 8.63q.374 2.688.728 5.38l.344 2.476.291 2.171c.51 2.275 1.258 4.033 2.455 6.031l2 1c.379 2.547.379 2.547.563 5.75.232 3.845.594 7.488 1.437 11.25l-3 1v2l-4 1-.297-1.836c-1.15-6.44-3.08-12.179-5.703-18.164h-2c-8.329-26.136-16.322-53.257-17.625-80.812l-.117-2.135A899 899 0 0 1 60 27h3v-6l-2-1c3.486-1.202 3.68-1.213 7 1M25 274c11.875-.148 23.648.306 35.5 1l5.129.29q6.186.348 12.371.71v2l-17 4 5.887.148q2.895.083 5.789.17 2.936.081 5.873.15c7.292.223 14.338.807 21.53 2.055 4.615.753 9.26 1.122 13.921 1.477l-1 4 17 2c-3.526 2.35-6.933 3.092-11 4l-2.33.524q-2.3.513-4.604 1.017c-1.684.374-3.36.78-5.035 1.197-8.343 1.893-16.587.995-25.031.262v-1a2059 2059 0 0 1 7.344-2.203c2.078-.624 4.15-1.269 6.219-1.922 4.13-1.051 8.199-1.51 12.437-1.875l-3.234.219c-15.238.975-30.36 1.38-45.579-.094l-2.478-.238A68.5 68.5 0 0 1 43 289l-1-5-3 1c-2.34-.169-4.675-.43-7-.75l-3.75-.484c-3.185-.75-4.333-1.2-6.25-3.766l3-1z" id="svg-layer-15" style="pointer-events: all;"/><path fill="#7FAA96" d="M29 65c3.61 2.695 4.126 6.46 5.063 10.625.17.717.342 1.434.519 2.173.906 3.824 1.716 7.66 2.48 11.514C38 93 38 93 39.435 94.294c4.505 4.91 4.387 13.84 5.191 20.144l.406 3.084q.491 3.74.969 7.479l1-14c5.544 8.316 5.44 21.896 6.354 31.703l.216 2.313c.06.673.12 1.346.18 2.04.262 2.038.714 3.962 1.25 5.944l.313-1.937L56 149l3-1 .184 3.402q.126 2.268.254 4.536l.13 2.355c.235 4.057.557 8.056 1.12 12.082C61 174 61 174 59 177h-2v2h-2l-1.172-3.219-1.578-4.281-.766-2.11c-1.277-3.45-2.627-6.739-4.363-9.984-2.845-5.546-4.691-11.483-6.64-17.387-.668-2.018-1.35-4.03-2.034-6.042C36.334 129.67 34.434 123.664 34 117h-1c-6.367-34.762-6.367-34.762-4-52" id="svg-layer-16" style="pointer-events: all;"/><path fill="#588074" d="M61.438 460.875c3.455 1.517 4.281 3.29 5.769 6.68 1.984 6.118 2.988 13.252.238 19.285-6.884 10.29-17.733 18.79-29.449 22.855-2.823.431-5.579.476-8.434.493l-3.37.042c-3.158-.228-5.35-.886-8.192-2.23-.383-2.07-.383-2.07 0-5 1.762-2.556 3.938-4.681 6.125-6.875l3.867-4.004 2.015-2.063c2.534-2.617 5.008-5.286 7.48-7.962 19.392-20.987 19.392-20.987 23.95-21.221m-8.301 16.793a582 582 0 0 0-3.45 3.52l-1.724 1.751a1559 1559 0 0 0-3.38 3.446 475 475 0 0 1-8.821 8.783l-2.075 2.02-2.113 2.042C30 501 30 501 30 503c8.569-.536 15.568-9.068 21-15 6.037-6.852 6.037-6.852 8-10l-1-3c-2 0-2 0-4.863 2.668" id="svg-layer-17" style="pointer-events: all;"/><path fill="#80AA96" d="M322 106c6.82 10.23 9.318 21.151 12 33h2l6 30 2-1c2.238 7.69 3.877 15.375 5.313 23.25 1.65 8.78 3.768 16.617 7.648 24.664 1.275 3.786.995 6.237.039 10.086-2.062 1.438-2.062 1.438-4 2l-.312-2.25c-.759-3.033-1.794-4.295-3.688-6.75-3.634-6.746-6.34-13.76-9-20.937l-1.337-3.601c-3.289-9.036-5.878-18.02-7.663-27.462l-1 3c-1.884-3.893-2.387-7.47-2.754-11.719-.267-2.475-.74-4.843-1.246-7.281-2.885-14.975-3.677-29.768-4-45M184.703 65.563l2.537.078q2.655.09 5.305.224c2.682.134 5.362.226 8.045.31q2.587.097 5.176.2l2.396.092c5.445.28 10.555 1.198 15.838 2.533v1l-14 1v3l2.073.06c25.12.765 25.12.765 36.927 2.94l-4 5 15.698 1.6q2.67.275 5.343.54 3.836.384 7.67.79l2.421.234c5.64.608 5.64.608 7.868 2.836-5.096 4.514-8.94 5.125-15.605 5.133l-3.233.004-3.35-.012-3.29.012c-17.998-.022-17.998-.022-22.084-3.012C235 88 235 88 234 85l-1.813-.196C212.49 82.6 212.49 82.6 205.5 79.437c-8.891-3.951-18.908-3.886-28.5-4.437l1 2h-3v2l2 1c-3.821-.53-6.062-1.497-9-4l4-1-1-3c3.738-6.239 6.71-6.845 13.703-6.437" id="svg-layer-18" style="pointer-events: all;"/><path fill="#81AB97" d="M311 325c0 3.396-.522 4.066-2.5 6.688l-1.406 1.886L306 335l3 1-4.98 2.441c-2.057 1.587-3.17 3.04-4.646 5.156l-1.351 1.927L297 347q15.964.07 31.93.104 7.418.014 14.837.047 8.599.038 17.198.044l2.844.002c14.18-.006 28.266-.501 42.4-1.668l3.766-.291 3.257-.283c2.874.047 4.357.538 6.768 2.045a656 656 0 0 1-10.625 3.375l-2.91.96c-24.679 7.546-52.253 4.803-77.745 4.549q-6.573-.063-13.147-.09a1007 1007 0 0 1-7.339-.083c-14.02-.112-14.02-.112-20.234 3.289l-2 3h-2v2l-2-1 1.574-2.344c6.376-9.522 6.376-9.522 9.301-14.406L295 343h2l.688-1.562c2.986-5.546 6.735-10.109 11.312-14.438zM84 238c2.51.153 4.999.257 7.512.316l2.206.063q3.484.097 6.97.184l4.728.13q5.792.16 11.584.307v3c-2.673 2.673-4.597 2.562-8.312 3.063-3.927.541-7.81 1.115-11.688 1.937v1l3.095-.016c34.18-.16 34.18-.16 45.155.391.686.03 1.372.062 2.08.094 5.026.304 9.795 1.337 14.67 2.531l-1 3c-15.258 4.994-32.14 3.152-47.875 2.125l-3.782-.238C102.7 255.424 96.45 254.658 90 253v-2c-8.897-2.371-17.918-2.901-27.062-3.625l-4.936-.406q-6-.493-12.002-.969c4.586-3.969 4.586-3.969 8.313-4.25L57 242l1-3c18.28-3.573 18.28-3.573 26-1" id="svg-layer-19" style="pointer-events: all;"/><path fill="#80AA96" d="M108 370c3.772 3.196 4.883 5.945 6.125 10.688l1 3.742a243 243 0 0 1 2 8.882L118 397l2 1c.638 2.405.638 2.405 1.184 5.574.205 1.143.41 2.286.623 3.463l1.25 7.242.627 3.483.548 3.186C125 424 125 424 126.466 426.865c1.86 3.802 2.615 7.407 3.401 11.541l.996 4.946a3475 3475 0 0 1 1.507 7.686q.736 3.75 1.497 7.493l.498 2.455c1.355 6.365 3.375 12.248 5.882 18.246.753 2.768.753 2.768-.115 5.145L139 486h-2a113 113 0 0 1-3-5l-1.413-1.681c-2.163-3.16-3.306-6.58-4.548-10.17l-.826-2.343q-.865-2.461-1.719-4.927c-.85-2.45-1.714-4.895-2.58-7.34-4.973-14.157-9.477-28.503-12.164-43.289l-.493-2.67c-2.285-12.841-2.399-25.584-2.257-38.58" id="svg-layer-20" style="pointer-events: all;"/><path fill="#81AB97" d="m325 295 3 1-1.5 2.875C325 302 325 302 325 304l41-3v2l3.444-.99c4.546-1.131 8.791-1.25 13.454-1.17l2.527.016c2.65.017 5.3.048 7.95.082q5.199.055 10.398.09l2.581.016c7.268.017 14.488-.336 21.738-.817 5.307-.308 10.595-.32 15.908-.227-6.33 4.22-11.757 6.371-19.25 7.688l-2.055.36c-11.676 1.894-23.355 2.104-35.152 2.151q-4.074.02-8.148.053c-7.713.061-15.427.116-23.14.15q-7.11.032-14.222.1-2.697.021-5.394.026c-2.51.005-5.02.028-7.53.055l-2.228-.009c-4.71.076-7.804 1.13-11.881 3.426h-2c1.32-3.728 2.937-6.446 5.438-9.5 2.45-3.057 4.672-6.054 6.562-9.5" id="svg-layer-21" style="pointer-events: all;"/><path fill="#80AA96" d="m369 77 2 1c.623 2.391.623 2.391 1.148 5.605.2 1.197.398 2.393.602 3.625q.314 1.98.625 3.957l.66 4.075c2.66 16.588 4.812 33.246 6.844 49.922l.415 3.395q.386 3.162.755 6.327l.338 2.801.288 2.452C383 162 383 162 384 163v-7c3.312 4.968 3.84 11.123 3 17-1.381 5.09-3.195 10.048-5 15h-1l-.918-3.156-.605-2.072q-.676-2.314-1.348-4.63c-1.062-3.636-2.16-7.233-3.399-10.814-3.077-8.95-4.915-17.94-6.543-27.266l-.664-3.772c-1.088-6.523-1.773-12.678-1.523-19.29h2l-.49-1.658c-1.026-4.711-.695-9.602-.697-14.404l-.038-3.28c-.012-7.101.694-13.723 2.225-20.658" id="svg-layer-22" style="pointer-events: all;"/><path fill="#5B8477" d="M43 385c2.892 7.231 2.771 12.595.063 19.75C37.728 416.596 29.049 425.958 19 434l-3 1c-.27-29.766-.27-29.766 2.563-34.75L21 398l1.727-1.637C35.673 384.473 35.673 384.473 43 385" id="svg-layer-23" style="pointer-events: all;"/><path fill="#80AA96" d="m411.934 219.902 5.921.005q7.716.006 15.432.024 7.905.014 15.809.02 15.452.016 30.904.049c-10.818 11.526-37.397 9.344-52 10v-1c-12.362-.795-24.662-1.517-37 0l-1 1a283 283 0 0 1-10.479-.215c-5.034-.096-8.03.72-12.521 3.215l-2-1a418 418 0 0 1 2.875-3.5l1.617-1.969L371 225h2v-2h2l1-2c11.743-1.824 24.087-1.131 35.934-1.098" id="svg-layer-24" style="pointer-events: all;"/><path fill="#81AB97" d="M114 22c1.806 2.971 2.499 5.851 3.125 9.25l.508 2.703L118 36l1-8h3c3.274 21.806 4.016 43.993 5 66l-4 2c-7.05-16.502-11.909-32.99-14.875-50.687l-.653-3.87C106.428 34.878 105.755 28.647 106 22c3.07-.841 4.998-1.301 8 0M417 44c5.63 5.63 3.202 19.807 3.238 27.281l.013 2.175q.03 5.687.044 11.375c.011 3.886.046 7.772.085 11.659.027 3.018.035 6.036.038 9.054q.008 2.148.035 4.296c.102 8.297-.054 15.874-4.453 23.16l-2 1v3l-4-1a203 203 0 0 1-3-29l-.103-3.175C405.949 69.577 405.949 69.577 413 59q.255 10.428.482 20.856.08 3.536.166 7.072c.303 12.418.51 24.703-.512 37.092C413 127 413 127 414 129l1-1a65 65 0 0 0-.425-4.212c-.713-6.468-.755-12.895-.778-19.397l-.017-3.893q-.015-4.059-.02-8.118c-.006-3.427-.03-6.853-.058-10.28-.024-3.32-.025-6.64-.03-9.96l-.038-3.662C413.656 59.922 414.917 52.29 417 44" id="svg-layer-25" style="pointer-events: all;"/><path fill="#80AA96" d="M404 170h2c-1.875 4.75-1.875 4.75-3 7 22.827.202 45.458-.163 68.136-2.984 7.988-.96 15.82-1.173 23.864-1.016-7.635 6.208-17.899 7.943-27.375 9.563l-3.717.644c-9.13 1.469-18.251 2.13-27.482 2.602l-3.6.184c-6.02.297-12.037.55-18.06.755l-6.739.283-3.146.073c-7.945.36-7.945.36-11.07 3.457L392 193l-2-1c1.864-2.862 3.651-5.593 5.875-8.187 3.246-4.297 5.625-9.055 8.125-13.813" id="svg-layer-26" style="pointer-events: all;"/><path fill="#81AB97" d="M245.598 38.8c12.214-.56 25.764 2.648 37.015 7.27 6.1 2.377 12.262 3.487 18.7 4.43 5.108.773 10.194 1.546 15.25 2.625C321.34 54.136 326.136 54.607 331 55c-5.332 5.332-17.86 3.245-24.859 3.255-8.652-.068-17.171-.652-25.766-1.63l-3.411-.382c-5.866-.734-5.866-.734-7.964-1.243l-1-2a109 109 0 0 0-7.062-1.687C249.462 48.792 238.249 45.369 227 42c5.441-3.628 12.224-2.71 18.598-3.2" id="svg-layer-27" style="pointer-events: all;"/><path fill="#80AA96" d="M26.563 316.938 30 317l1 2 3.438-.187C42.802 318.786 52.08 320.36 60 323v3l1.828.148 2.422.227c.789.07 1.578.14 2.39.21C69 327 69 327 70.878 327.974c2.208 1.068 4.036 1.499 6.451 1.879l2.422.39 2.5.383 2.547.406c2.067.33 4.135.65 6.203.969-5.64 5.64-15.17 5.33-22.687 5.375-16.578-.113-36.152-2.851-49.028-13.973C18 322 18 322 18 320l1.938-.937c4.036-2.08 4.036-2.08 6.625-2.125" id="svg-layer-28" style="pointer-events: all;"/><path fill="#5E897C" d="M20 163c9.669 8.993 15.81 29.31 16.625 42.25C36 209 36 209 31 214l-5-19c-.268 10.58-.268 10.58 1.063 15.813 1.564 6.346-.146 10.794-2.833 16.55-1.57 2.088-2.737 2.121-5.23 2.637-.91-10.903-1.157-21.734-1.13-32.672q.006-3.98-.007-7.963c-.01-22.072-.01-22.072 2.137-26.365" id="svg-layer-29" style="pointer-events: all;"/><path fill="#80AA96" d="M82 417c1.928 2.891 2.475 4.444 3.173 7.756l.628 2.925.66 3.163 1.43 6.656q1.112 5.235 2.217 10.473 1.076 5.062 2.165 10.12l.648 3.114a117 117 0 0 0 5.162 17.387c1.558 4.088 2.85 8.262 4.16 12.435.941 2.908 1.563 4.777 3.757 6.971l2-2c.934 3.01 1.044 3.867 0 7l-2 1c-1.125 2.063-1.125 2.063-2 4-2.918-2.627-4.945-5.67-7-9v-2l-3-1c-1.722-2.707-2.294-5.17-2.75-8.312-.833-4.55-2.373-8.584-4.187-12.813C79.795 457.507 78.378 436.585 81 418z" id="svg-layer-30" style="pointer-events: all;"/><path fill="#E5EFDD" d="M261.548 407.66c2.737.38 5.476.692 8.222.996q6.557.731 13.109 1.512c7.576.895 15.16 1.713 22.746 2.52l3.739.397q4.318.459 8.636.915v2q-6.42 1.091-12.848 2.136-2.175.356-4.349.728c-16.193 2.754-31.912 2.146-48.24 1.136l-4.854-.29q-5.854-.348-11.709-.71l2.393-2.372C241 414 241 414 242.711 411.945c5.68-6.213 10.937-5.409 18.837-4.285" id="svg-layer-31" style="pointer-events: all;"/><path fill="#81AB97" d="M88 178c2.875-.125 2.875-.125 6 0l2 2-2 3h9v1H81l-1 2c-3.016.82-6.053 1.41-9.117 2.023-3.234 1.096-4.18 2.083-5.883 4.977l3.738-.035c13.38-.083 26.753.088 40.13.353q2.947.057 5.893.104c2.795.045 5.59.103 8.384.164l2.572.035c3.91.099 5.96.164 9.283 2.379-9.03 1.91-18.095 3.604-27.187 5.188l-2.983.541c-9.044 1.544-17.78 1.942-26.83.271-3.455-.262-6.914-.412-10.375-.562l-2.809-.131Q61.408 201.148 58 201c1.675-4.88 4.368-8.992 7.125-13.312l1.418-2.245Q68.267 182.72 70 180l2.703.219 3.547.281 3.516.281c2.407.163 4.821.219 7.234.219z" id="svg-layer-32" style="pointer-events: all;"/><path fill="#80AA96" d="M439 369c7.46 6.63 11.037 16.066 15 25h2c2.65 3.603 3.363 6.635 4 11a88 88 0 0 0 2 5l2-1c15.544 30.983 15.544 30.983 16 38-.95 2.79-.95 2.79-2 5h-2l-1-3 1-1-2-1.875C472 444 472 444 472 442l-3-1c-1.008-1.588-1.008-1.588-1.91-3.656l-1.046-2.323-1.106-2.521c-3.008-6.63-6.247-12.925-10.063-19.125C446.577 399.719 440.813 384.956 439 369M502.125 128.938l2.82.027L507 129c-3.255 2.17-6.554 3.503-10.187 4.875l-1.866.738c-12.107 4.587-25.153 6.99-37.801 9.625q-2.148.45-4.292.916c-9.33 2.026-18.194 3.232-27.756 3.353L422 149c-1.277 1.956-1.277 1.956-2 4-2.625 1.25-2.625 1.25-5 2 0-3.501.545-4.002 2.688-6.625 2.835-3.609 4.992-7.294 7.039-11.395 1.458-2.268 3.046-3.49 5.273-4.98l-1 4 2 1h-2v2h-2v2c7.39-.797 14.477-1.728 21.625-3.812 7.64-2.16 15.366-3.532 23.188-4.875l3.758-.65c8.825-1.486 17.583-2.84 26.554-2.726" id="svg-layer-33" style="pointer-events: all;"/><path fill="#81AB97" d="M495 286c3.448 2.668 4.22 6.217 5.34 10.238l.63 2.174c.666 2.297 1.317 4.599 1.967 6.9l1.303 4.518c1.643 5.7 3.269 11.403 4.862 17.117 2.808 10.003 2.808 10.003 4.535 14.377 5.211 14.052 5.09 26.88-.637 40.676-.965-3.1-.942-5.311-.437-8.5 1.699-15.52-5.767-32.17-12.188-46-1.743-4.436-2.56-8.818-3.375-13.5l-1-5.437-1-5.563-1.125-6.187L493 292h1z" id="svg-layer-34" style="pointer-events: all;"/><path fill="#7BA693" d="M148 20c21.946-.463 21.946-.463 28 2 2.25 3 2.25 3 3 6l-1 2-2.187-2.312c-2.525-2.413-4.81-3.967-7.813-5.688l.621 1.922c1.953 6.764 2.941 13.446 3.504 20.453l.287 2.593c.231 3.636.38 6.011-1.913 8.967C165.909 60 165.909 60 163 60v-4h3l-1-5-2 1-3-3-1.562-1.312c-4.915-5.77-5.404-16.45-6.438-23.688-1-2-1-2-4-4" id="svg-layer-35" style="pointer-events: all;"/><path fill="#81AB97" d="M470 329c2.088 2.088 2.521 3.097 3.41 5.832l.797 2.387.856 2.594c2.801 8.26 6.011 16.244 9.518 24.228 3.143 7.197 5.975 14.485 8.68 21.857 1.707 4.602 3.575 8.974 5.896 13.302.894 1.91 1.396 3.744 1.843 5.8l3-3c-1.54 5.015-3.03 9.615-6 14l-2-1c-.28-2.653-.315-5.28-.363-7.945-.71-3.4-2.164-5.297-4.249-8.019-2.743-4.023-4.386-8.601-6.2-13.099l-1.302-3.18C467.55 342.452 467.55 342.452 468 330zM414.19 257.513c3.826.05 7.65.062 11.476.067q3.681.02 7.361.049l3.434.016 3.183.049 2.78.032c2.82.3 5.003 1.108 7.576 2.274v2c-12.454 2.838-24.806 3.161-37.54 3.168l-4.372.01q-4.542.009-9.082.007c-3.882 0-7.765.014-11.647.031q-4.497.015-8.992.013-2.15 0-4.3.013c-1.99.01-3.981.006-5.972 0-.566.002-.566.002-3.43.005C362 265 362 265 360 263c18.272-3.942 35.46-5.74 54.19-5.487M166 205v2c-5.404 3.287-10.34 3.739-16.5 4.188l-3.044.241c-13.334.969-26.878 1.322-40.183-.206-3.762-.369-7.496-.285-11.273-.223l3-2 1-3q11.489-1.59 23-3l2.159-.272c13.247-1.591 28.95-1.32 41.841 2.272" id="svg-layer-36" style="pointer-events: all;"/><path fill="#80AA96" d="M419 427c1.449.856 2.884 1.736 4.313 2.625l2.425 1.477c2.785 2.337 3.717 4.623 5.262 7.898a157 157 0 0 0 4.688 6.25l1.335 1.719c2.014 2.584 4.06 5.129 6.164 7.64C456 469.924 456 469.924 456 477h2c-.615 6.523-.615 6.523-2.562 8.938-.475.35-.95.7-1.438 1.062l-3-4h2c-3.646-7.133-8.62-13.867-14.458-19.376-6.11-6.436-9.86-15.82-13.917-23.624l-1.652-3.137-1.559-2.988-1.408-2.695C419 429 419 429 419 427" id="svg-layer-37" style="pointer-events: all;"/><path fill="#81AB97" d="M524 481c-3.377 3.81-6.988 4.329-11.812 5.438-.903.21-1.805.422-2.734.639-8.337 1.85-16.745 3.104-25.204 4.236-1.272.17-2.544.342-3.855.519-6.52.828-12.822 1.36-19.395 1.168 2.524-4.575 6.282-5.52 11-7v-3q7.01-.437 14.02-.854 2.372-.144 4.744-.292A450 450 0 0 1 524 481M499 434l1 2c-.937 2.125-.937 2.125-2 4l3.488-.402c11.496-1.288 22.956-2.106 34.512-2.598l1 4c-9.224 4.454-18.478 5.303-28.564 6.334-7.374.87-11.775 1.841-17.436 6.666-2.178.652-2.178.652-4 1 .295-4.722 2.621-7.366 5.438-10.934 2.17-2.871 3.826-5.916 5.562-9.066zM363.048 338.76c3.512-.01 7.024-.041 10.536-.072 12.163-.056 23.58.33 35.416 3.312v1q-11.647.236-23.295.443-5.414.096-10.827.205c-14.615.296-29.208.496-43.823.004l-3.32-.098-3.017-.125-2.63-.103C320 343 320 343 318 341c14.435-3.275 30.338-2.216 45.048-2.24" id="svg-layer-38" style="pointer-events: all;"/><path fill="#80AA96" d="m362.813 267.25 2.242.156c5.869.437 11.703 1.11 17.539 1.865 5.946.746 11.883 1.087 17.875 1.211 4.102.155 6.536.63 9.531 3.518-23.538 2.19-23.538 2.19-34 0l-1-1c-2.698-.103-5.364-.14-8.062-.125l-2.424.006c-7.86.056-15.678.521-23.514 1.119 1.25-1.5 1.25-1.5 3-3h4l1-2c4.686-2.076 8.803-2.159 13.813-1.75" id="svg-layer-39" style="pointer-events: all;"/><path fill="#81AB97" d="m87.875 226.875 3.617.555q4.755.772 9.508 1.57v1l-3.918-.07c-26.576-.336-26.576-.336-30.648 3.574L65 235c-6.35 2.182-13.372 2.357-20.02 2.754C42 238 42 238 39.3 238.59 37 239 37 239 34 238c.898-2.244 1.546-3.693 3.574-5.066 3.413-1.314 6.879-1.623 10.489-1.996 7.592-.823 7.592-.823 10.937-1.938a94 94 0 0 1 4.09-.5l2.377-.25 2.47-.25q2.42-.245 4.84-.5l2.164-.219C77 227 77 227 79.061 226.45c3.037-.705 5.756-.055 8.814.425" id="svg-layer-40" style="pointer-events: all;"/><path fill="#5D897D" d="M498 50c0 3 0 3-1.906 5.234L493.5 57.75l-2.766 2.691a208 208 0 0 1-6.984 6.246C479.341 70.47 474.867 74.399 473 80a139 139 0 0 1-5 5 1189 1189 0 0 0-3.625 3.625L461 92l-1.574 1.668c-1.73 1.616-3.122 1.935-5.426 2.332 3.33-9.274 11.16-16.387 17.75-23.5l1.97-2.142 1.89-2.014 1.686-1.807c1.793-1.617 3.55-2.479 5.704-3.537q1.008-1.996 2-4c2.277-2.105 2.277-2.105 4.938-4.187l2.652-2.106C495 51 495 51 498 50" id="svg-layer-41" style="pointer-events: all;"/><path fill="#81AB97" d="M191 211c-19.043 4.395-19.043 4.395-22.521 5.195a1277 1277 0 0 0-6.962 1.632c-12.838 3.03-25.29 4.58-38.517 4.173v-1q4.342-.757 8.688-1.5l2.474-.434c3.988-.678 7.775-1.265 11.838-1.066v-2c11.151-3.793 21.539-6.045 33.313-6.687l2.744-.182 2.619-.143 2.372-.14C189 209 189 209 191 211" id="svg-layer-42" style="pointer-events: all;"/><path fill="#658D7E" d="M206.438 509.375a3305 3305 0 0 0 9.776.463c7.26.31 14.523.514 21.786.724l4.424.133 7.928.23c3.884.08 7.762.088 11.648.075-3.133 2.088-4.315 2.33-7.945 2.633l-2.989.254-3.191.238-3.277.255c-15.45 1.13-32.396 2.072-47.598-1.38v-2h-10v-1c6.604-.898 12.793-.995 19.438-.625" id="svg-layer-43" style="pointer-events: all;"/><path fill="#81AB97" d="M529 292h2q.074 7.278.11 14.557.015 2.465.04 4.93c.149 14.263.204 28.403-6.15 41.513h-1c-.62-3.745-1.19-7.496-1.75-11.25l-.535-3.223-.45-3.105-.444-2.857C521 330 521 330 522.983 327.661L525 326l1 7c2.31-13.591 2.615-27.242 3-41M406 473c3.562 1.187 4.33 2.365 6.563 5.313l1.816 2.363A40 40 0 0 1 418 487h2l.688 1.688C422 491 422 491 424.313 493.25c3.754 3.842 7.687 8.199 7.687 13.75l-3-1v-2l-2.203-.668C418.294 499.282 409.44 485.219 405 477c.262-2.375.262-2.375 1-4M25 194c2 1 2 1 2.686 2.766l.603 2.27.664 2.45.672 2.577.695 2.587A993 993 0 0 1 32 213c1.743-2.297 3.4-4.599 5-7l1 2c-.89 1.953-.89 1.953-2.25 4.25-1.487 2.565-2.923 5.096-4.25 7.75-3.114 6.227-6.435 12.338-10.5 18h-1v-8l3-1 .313-2.187C24 224 24 224 25.625 221.75c2.042-4.085 1.077-7.354.375-11.75-.62-5.346-1.142-10.61-1-16M332.51 26.741l2.831-.019 3.065.012 3.139-.005q3.288-.003 6.577.01c3.364.011 6.728 0 10.093-.012q3.189 0 6.379.007l3.065-.012 2.831.02 2.499.004C375 27 375 27 377 29c-7.375 2.329-14.435 2.297-22.125 2.25l-3.727.023c-8.572-.018-16.7-.847-25.148-2.273 2.459-2.459 3.132-2.252 6.51-2.259M58 475l1 3c-6.144 9.493-15.59 20.326-26 25h-3c1.438-3.31 3.225-5.439 5.813-7.937l2.019-1.965L40 491a684 684 0 0 0 7.824-7.895l2.864-2.918 1.47-1.521C55.774 475 55.774 475 58 475M311 413c8.514-.313 16.603.627 25 2v1l-3.715.262c-10.457.822-20.68 2.194-30.973 4.238l-3.31.647c-7.746 1.597-7.746 1.597-10.002 3.853-2.496-.172-2.496-.172-5.437-.75-.969-.18-1.937-.36-2.934-.547C277 423 277 423 274 421l3.453-.332c9.703-.963 19.331-2.148 28.958-3.702 3.905-.62 7.619-1.143 11.589-.966v-2h-7zM237 34v3l6 1v1q-4.22.04-8.437.063l-2.432.025c-2.044.009-4.088-.036-6.131-.088l-1-1v1l-2.812.375C219 40 219 40 216 42l-3 1-1 2 2 1-6-1c1.645-4.936 5.664-7.346 10-10 6.43-2.398 12.322-2.077 19-1M338 450v2c-12.749 7.65-35.785 4.045-50 3v-1c10.929-1.506 21.871-2.406 32.875-3.125l2.044-.134C334.287 450 334.287 450 338 450" id="svg-layer-44" style="pointer-events: all;"/><path fill="#5D897D" d="M413 60h1c1.336 12.252 1.08 24.508 1 36.813a4856 4856 0 0 0-.062 12.582l-.026 2.866c-.02 5.346.302 10.45 1.088 15.739l-3 2c-.866-2.94-1.067-5.365-.879-8.418l.147-2.744.17-3.025c.602-12.295.65-24.569.625-36.875l-.006-2.839Q413.038 68.049 413 60" id="svg-layer-45" style="pointer-events: all;"/><path fill="#81AB97" d="m337 376-6 4 20 1v1q-8.636.437-17.273.854-2.923.144-5.847.292c-13.306.673-26.557.985-39.88.854v-1l2.272-.136c3.473-.214 6.944-.445 10.416-.676l3.572-.213c8.159-.56 15.831-1.899 23.74-3.975l-1-2c6.625-1.125 6.625-1.125 10 0" id="svg-layer-46" style="pointer-events: all;"/><path fill="#80AA96" d="M515 392c1.984 2.917 1.988 4.124 1.625 7.75L516 403l7-2v2c-2.17 1.592-4.446 2.957-6.738 4.367-2.307 1.666-3.588 3.365-5.262 5.633h-2l-.875 2.938C507 419 507 419 505 420c.488-5.838 2.231-10.004 5-15.125 4.428-8.284 4.428-8.284 5-12.875M203.621 454.414l3.834.559 3.982.652q1.986.294 3.971.582c5.74.87 11.113 1.829 16.592 3.793v2l3 1c-5.447.097-10.639.129-16-1l2-2c-3.656-.741-7.321-1.383-11-2l-3.121-.602c-7.617-1.145-7.617-1.145-11.414 1.102-1.985 1.736-3.761 3.49-5.465 5.5l-2-1c4.62-6.16 7.589-9.813 15.621-8.586M449 124l2 1-1 1 3 2c-3 2-3 2-6 2l-1 3c-2.617 1.203-2.617 1.203-5.875 2.25l-3.242 1.078C434 137 434 137 431 136h2v-2c1.977-1.367 1.977-1.367 4.625-2.875 3.893-2.256 7.663-4.585 11.375-7.125" id="svg-layer-47" style="pointer-events: all;"/><path fill="#81AB97" d="M506 371h1l1 16h2c-.627 3.662-1.645 6.882-3.062 10.313l-1.098 2.675L505 402h-2v-12h2z" id="svg-layer-48" style="pointer-events: all;"/><path fill="#598276" d="m277.25 389.25 3.125.2q3.815.247 7.625.55c-4.506 4.506-13.653 3.056-19.625 3.063q-3.187-.023-6.375-.063c3.694-5.74 9.244-4.23 15.25-3.75" id="svg-layer-49" style="pointer-events: all;"/></svg>