<svg xmlns="http://www.w3.org/2000/svg" viewBox="0 0 608 536"><path fill="#E1EBDD" d="M298.069 44.865q7.53.003 15.062.001h2.199l4.427-.001q20.53-.004 41.06.006 17.516.006 35.032-.001a66551 66551 0 0 1 45.429-.004h2.18q7.513.002 15.026-.002 10.134-.004 20.267.005 3.686 0 7.371-.002c12.1-.01 24.19.089 36.283.516l3.059.092 2.826.115 2.473.093c2.468.35 4.125 1.004 6.237 2.317 1.643 3.287 1.18 6.94 1.205 10.555l.03 2.729q.047 4.58.081 9.161l.064 6.617q.084 9.114.153 18.228.044 5.741.093 11.482c.369 45.074.482 90.149.496 135.224q.003 7.699.009 15.398.01 13.466.003 26.93-.001 4.516.002 9.032c.004 4.137-.001 8.275-.007 12.412l.007 3.642c-.037 14.708-.037 14.708-1.136 19.59l-2 1-.67-3.865c-.833-4.778-1.679-9.554-2.528-14.33a1793 1793 0 0 1-1.082-6.176c-2.543-14.65-4.887-27.367-13.72-39.629a603 603 0 0 1-2.187-3.5C514 260 514 260 511 259l-.402 2.23-.536 2.957-.527 2.918c-.324 1.752-.676 3.5-1.082 5.235-2.35 13.801.247 27.75 2.892 41.29 1.245 6.407 2.417 12.826 3.592 19.245l.384 2.085c2.739 14.901 5.02 29.862 7.202 44.853q.49 3.256 1.163 6.477L524 389l-2 2-.969-3.215c-3.704-11.642-8.554-22.61-13.843-33.598l-.993-2.09C500.014 339.13 492.363 323.155 481 314h-4l-.586 2.23-.789 2.957-.773 2.918C474 325 474 325 472.968 327.362c-7.325 19.967 2.574 44.995 10.835 63.008a414 414 0 0 1 3.396 7.704c6.732 15.52 14.361 30.481 24.27 44.23 4.215 6 7.882 12.373 11.66 18.652l1.734 2.884 1.64 2.726a137 137 0 0 0 3.915 6C532 475 532 475 532 477h2v2h2c1.591 4.177 2.213 7.532 2 12h-4l-.305-1.73c-2.45-10.56-9.86-18.283-17.07-26.02-4.566-4.945-8.297-10.345-12.113-15.87-2.997-4.314-6.091-8.394-9.512-12.38-4.014-4.678-7.56-9.554-11.062-14.625-4.56-6.586-9.43-12.548-14.938-18.375a727 727 0 0 1-3.562-4.187C459.282 390.796 452.35 385.237 444 381h-2c-6.149 28.763 4.455 53.1 19.734 77.04C469.58 470.09 478.84 480.84 489 491c-15.938 1.033-15.938 1.033-20.125-2.562-1.523-1.672-1.523-1.672-2.875-3.438a575 575 0 0 0-2.75-3.312l-1.48-1.774C451.534 468.843 436.56 459.26 422 455c-3.41.348-3.41.348-6 1l1 1 .063 3.25c.589 5.789 4.102 10.266 7.222 14.992C426 478 426 478 426 480h2l5 5a139 139 0 0 0 3.813 2.688L440 490v2l-2.364-.016-57.52-.375q-13.91-.09-27.82-.182l-24.308-.158-12.815-.084A8809 8809 0 0 0 245 491l-1-3 3.758-.078c15.017-.436 29.701-2.281 44.563-4.403 5.679-.8 11.366-1.536 17.054-2.269L319 480v-1l2.535-.519q4.708-.966 9.416-1.935l4.055-.832c7.035-1.44 14.048-2.889 20.994-4.714v-2l6.813-2.437 1.947-.698c2.74-.98 5.48-1.945 8.24-2.865v-2l2.738-1.023 3.575-1.352 3.55-1.336C386 456 386 456 389 454h4v-4l-6-2 5-6a470 470 0 0 0-9-3l-3.047-.984c-27.59-8.42-56.73-8.353-85.302-8.277-4.29.012-8.578.005-12.868-.007C254.77 429.671 229.39 429.64 204 440l-1-2a90 90 0 0 1 2.93-6.504l.938-1.935q.987-2.026 1.983-4.047c1.02-2.068 2.029-4.141 3.036-6.215a4522 4522 0 0 1 2.84-5.815c2.155-4.366 2.155-4.366 3.273-5.484 8.556-.734 17.151.582 25.634 1.596 27.013 3.187 53.866 4.575 81.066 4.754q3.42.024 6.84.067c53.24.6 53.24.6 66.245-11.01L399 402l3.125-.937L405 400c.875-2.125.875-2.125 1-4l-1.875-1.187C402 393 402 393 401.117 390.605 397.968 383.262 388.08 378.841 381 376c-21.733-7.968-45.144-7.735-68-9v-2l-6.703-.648a252 252 0 0 1-6.844-.829c-10.231-1.345-20.46-1.867-30.765-2.21l-2.058-.075c-8.955-.317-17.712-.132-26.63.762 3.304-7.158 7.553-13.503 12-20l2-3c6.316-1.115 12.517.372 18.563 2.125 9.635 2.612 19.367 4.439 29.187 6.188l2.287.408q6.48 1.152 12.963 2.279v2q3.906.471 7.813.938l2.177.263c2.336.278 4.672.54 7.01.799l2.356.283c8.389.904 16.775.903 25.203.902 2.54.002 5.08.02 7.62.04 15.636.054 30.586-1.603 45.821-5.225v-3l7-2c-3.75-5.875-3.75-5.875-6-7l-1.348-2.293c-7.418-12.154-23.594-17.488-36.714-20.8-8.877-1.881-17.925-2.9-26.938-3.907l2-2c-21.554-7.415-50.587-8.039-73-5v2l-2-1c3.576-5.73 7.472-10.801 12.031-15.781 2.879-3.244 5.438-6.7 7.969-10.219 9.735 1.235 18.728 3.917 28 7v2l3.813.313c9.304.93 18.52 2.604 27.747 4.103 14.39 2.333 28.282 3.82 42.878 3.834l2.285.003c11.661-.01 22.885-.558 34.277-3.253l2.092-.47c11.31-2.6 11.31-2.6 13.28-5.659L453 285h2v-2l-7-2 3-2 2-2c-23.964-14.982-53.124-19.775-81-21 2.986-1.991 5.597-2.941 9-4-18.767-3.79-37.95-3.138-57-3 4.329-9.065 12.316-15.238 21-20l2.154 1.383c2.795 1.588 5.32 2.553 8.389 3.484l3.226.988 3.418 1.02 3.534 1.065q3.517 1.056 7.039 2.1 2.957.875 5.91 1.768A280 280 0 0 0 394 245l2.007.496c11.712 2.745 23.589 2.84 35.555 2.941l2.352.038c14.272.188 28.005-1.488 41.086-7.475l-4-5 7-3v-4c-2.293-2.135-4.006-3.002-7-4v-4c-16.469-4.235-32.758-5.59-49.7-6.457l-2.31-.119-2.335-.12-2.357-.12-4.707-.24c-12.646-.65-25.089-1.879-37.591-3.944v-2a827 827 0 0 1 6-1.937l3.375-1.09c8.366-2.245 16.839-2.205 25.45-2.403l4.051-.108c5.688-.155 11.375-.305 17.063-.436C478.224 200.85 478.224 200.85 497 191l-1-2 6-2c0-3 0-3-1.723-4.754-4.69-3.626-8.424-6.125-14.277-7.246v-2q-3.28-.478-6.562-.937l-3.692-.528c-12.646-1.56-25.42-1.768-38.144-2.087-7.902-.202-15.75-.482-23.602-1.448 2.955-2.288 5.634-3.827 9.125-5.187l2.633-1.043C428 161 428 161 430 161l1-2a146 146 0 0 1 6.688-3.875l2.133-1.182q3.586-1.978 7.179-3.943l5.29-2.91a2274 2274 0 0 1 27.46-14.84l2.437-1.304C487.767 128 487.767 128 490 128v-3l3.375-1.687c2.704-1.532 3.512-2.098 5-4.938L499 116l1-2h-5l9-9c-1.968-1.968-5.348-1.662-8-2l1.875-2.25C500 98 500 98 501 95.938c1-1.938 1-1.938 3.125-3.876C506 90 506 90 505.938 87.439L506 85l2.313-1.375c3.645-2.204 4.198-4.726 5.687-8.625l2-2c1.79-3.953 3.391-7.971 5-12-20.22 4.035-39.792 15.585-56 28q-1.945 1.45-3.895 2.895c-18.034 13.41-37.549 27.958-50.777 46.44-.438.55-.876 1.1-1.328 1.665h-2l-2 5h-3l.549-1.635q1.23-3.681 2.451-7.365l.778-2.344C412.096 114.362 417.103 92.582 409 73l-1-3-3-1c-1.187-2.562-1.187-2.562-2-5a573 573 0 0 0-3.625 4.375l-2.04 2.46c-5.833 7.903-9.718 16.003-13.022 25.228l-1.143 3.103A834 834 0 0 0 380 108l-.864 2.39c-1.942 5.54-3.178 11.083-4.199 16.86l-.514 2.884c-1.987 11.563-3.157 23.215-3.657 34.936l-.109 2.454q-.092 2.265-.14 4.53c-.222 6.075-1.607 10.818-5.704 15.383L363 189l-.044-1.806c-.591-21.93-2.695-43.458-7.449-64.895-.498-2.259-.97-4.522-1.44-6.787C351.822 105.027 349.006 94.01 343 85l-3 3-4-9-3 1c-1.166 2.373-2.045 4.567-2.875 7.063l-.776 2.322c-2.53 8.197-3.868 16.592-5.161 25.052l-.319 2.081c-1.766 11.722-3.028 23.292-3.002 35.154l-.003 2.93q0 3.034.006 6.07.005 4.626-.007 9.254 0 2.967.004 5.933l-.006 2.77c.023 6.257.117 12.333 2.577 18.184 1.628 4.69 2.318 9.406 2.937 14.312l.33 2.316c.968 8.527-2.58 13.951-7.705 20.559h-1l-2-14c-1.55 1.55-1.217 3.1-1.316 5.254l-.127 2.588-.12 2.72-.13 2.733q-.16 3.352-.307 6.705h-1l-.008-3.871c-.256-15.888-2.881-30.945-5.913-46.479-1.014-5.221-1.872-10.45-2.642-15.713-1.508-10.03-3.635-19.926-5.775-29.838-.67-3.137-1.315-6.28-1.955-9.423l-1.27-6.113-.562-2.814c-1.123-5.317-2.67-9.983-5.086-14.859C289 109 289 109 289 106h-3l-2 11-4-8c-4.062 3.428-5.66 7.18-7.562 12l-.92 2.291C261.53 148.735 262.661 180.475 268 207l.538 2.895c3.143 16.784 8.026 32.765 13.587 48.88l.796 2.346q.742 2.187 1.516 4.36c1.314 3.887 1.88 6.587.563 10.519-1.27 2.246-1.27 2.246-2.812 4.438l-1.625 2.335L279 285a709 709 0 0 0-2.312 3.563L275 291h-1l-.086-2.48c-2.015-25.843-15.113-50.605-26.061-73.717-1.26-2.662-2.506-5.328-3.755-7.994a1120 1120 0 0 0-6.019-12.583 1206 1206 0 0 1-3.15-6.562C223.43 163.822 223.43 163.822 213 156l-1-2h-3l-2 5h-4v5l-2-2c-13.162 33.735 8.27 85.677 21.828 117.238 1.702 4.01 3.24 8.078 4.79 12.149 1.307 3.417 2.638 6.824 3.974 10.23A2002 2002 0 0 1 236 313l.8 2.073c.724 1.888 1.431 3.782 2.137 5.677l1.215 3.234c1.145 4.072 1.831 7.064-.143 10.984-1.374 2.23-2.824 4.383-4.321 6.532q-1.5 2.2-2.989 4.406l-1.42 2.102c-1.646 2.564-2.998 5.23-4.279 7.992-2.486-2.486-2.354-3.595-2.758-7.04-1.304-8.479-4.22-16.295-7.117-24.335l-1.758-4.934C206.296 294.368 195.963 269.558 185 245l-1.416-3.173C177.397 228.08 171.097 216.444 160 206l-2.187-2.437C156 202 156 202 152 202l-.953 2.809-1.297 3.629-1.266 3.62L147 215c-2.093.684-2.093.684-4 1-2.249 55.943 24.674 107.11 50.501 155.27a188 188 0 0 1 6.614 13.714 105 105 0 0 0 1.83 3.948c1.884 3.949 2.261 5.905 1.055 10.068-1.212 2.904-2.565 5.732-3.937 8.563l-1.092 2.287c-1.627 3.399-3.28 6.782-4.971 10.15l-1.18-3.637c-3.736-11.232-8.212-21.81-13.43-32.43a188 188 0 0 1-4.87-10.768c-9.054-21.78-21.408-42.918-34.665-62.419a299 299 0 0 1-5.23-8.058A4975 4975 0 0 0 130 297l-1.117-1.763C123.338 286.52 117.63 278.058 110 271h-2l-.402 2.082-.535 2.73-.528 2.708C106 281 106 281 105 284c-2 34.076 3.948 65.647 20 96l1.404 2.668c4.989 9.424 10.037 18.77 15.912 27.676 2.073 3.27 3.939 6.643 5.809 10.031C167.727 455.727 167.727 455.727 175 463c.545 5.992-.915 9.93-3.437 15.188-3.684 7.898-3.684 7.898-4.563 11.812-3.31 1.001-6.3 1.104-9.75 1.063l-2.984-.028L152 491l-1.137-2.824c-2.22-5.174-4.964-10.06-7.675-14.988l-1.542-2.83a422 422 0 0 0-9.188-15.934c-2.382-3.96-4.67-7.972-6.958-11.986l-1.54-2.693a1064 1064 0 0 1-8.464-15.104c-19.17-34.826-19.17-34.826-31.152-46.215-2.514-2.668-2.47-5.502-2.471-8.97l-.009-2.829.007-3.101-.006-3.275q-.004-5.404.002-10.81l-.003-7.607q-.002-8.03.006-16.058c.006-6.722.002-13.444-.004-20.166-.023-31.217.219-62.406 1.134-93.61 3.323.526 6.494 1.132 9.75 2 4.695 1.22 9.425 1.624 14.25 2v-3l7-2v-7l-3-1c0-2 0-2 2-4-.7-1.896-.7-1.896-2-4-2.151-.989-2.151-.989-4.797-1.668l-2.906-.768-3.047-.751-3-.788A164 164 0 0 0 83 188l1-19c5.915 2.366 5.915 2.366 8 5v2c19.874 3.685 38.277 1.84 58-2l-1-5 5-1c-7.223-13.01-23.237-18.761-36.848-22.857a302 302 0 0 0-5.236-1.439C110 143 110 143 109 141a137 137 0 0 0-8.062-2.5l-2.24-.645c-4.875-1.39-9.775-2.648-14.698-3.855v-13c3.945.79 6.987 1.773 10.62 3.374 19.854 8.742 40.666 11 62.184 10.942 2.459-.004 4.917.02 7.376.045 8.424.032 16.06-.44 24.245-2.716C191 132 191 132 195 132v-2h2v-2h-2l-.23-2.777c-1.154-4.83-3.808-5.961-7.825-8.559-4.805-2.715-9.781-4.738-14.945-6.664l-2.61-1.02c-4.711-1.792-9.443-3.289-14.303-4.632-7.739-2.152-14.833-4.913-22.104-8.318-8.69-3.973-17.79-6.497-26.983-9.03 2.677-2.098 4.622-3.397 8-4v-2l-3.516-.367C84.911 77.91 84.911 77.91 83 76c-.1-1.552-.13-3.109-.133-4.664l-.004-2.902.012-3.059-.012-2.988C82.87 57.15 83.09 52.159 84 47c10.383-.148 20.645.298 31 1-4.648 3.91-9.68 6.8-14.941 9.805C96.583 60.299 95.126 62.35 93 66l2.031.266c3.801.94 7.046 2.64 10.469 4.484l1.973 1.016c3.195 1.704 5.46 3.164 7.996 5.812 3.172 3.035 6.42 4.176 10.531 5.422l2.445.758C140.23 87.298 151.73 90.001 164 91l3.508.332c60.467 4.984 60.467 4.984 77.93-9.457C248 79 248 79 249 77l3-2c-5.884-4.907-11.91-8.144-19-11l-3.254-1.316C214.918 57.032 199.678 55.448 184 54c3.169-1.614 6.384-3.1 9.625-4.562 5.18-2.34 5.18-2.34 7.375-3.438a170 170 0 0 1 7.223-.312l2.303-.062q3.879-.098 7.759-.18l2.771-.064c25.668-.575 51.34-.53 77.013-.517" id="svg-layer-0" style="pointer-events: all;"/><path fill="none" d="M0 0h608v536H0zm141.09 24.018c-9.167.018-18.334.053-27.5.125-4.098.031-8.196.056-12.294.06q-5.565.006-11.131.075c-1.965.019-3.93.013-5.894.006-9.443.157-9.443.157-12.51 3.084C70.086 29.872 68.902 32.128 68 35h-2c-2.336 11.614-2.423 23.151-2.59 34.953l-.111 6.432q-.14 8.235-.254 16.472a8230 8230 0 0 1-.132 8.862c-.202 13.344-.35 26.687-.475 40.031l-.032 3.247c-.87 90.855-.932 181.749.032 288.503l.03 3.003c.343 34.463.343 34.463.88 48.403l.061 2.209c.305 6.229 1.541 12.664 5.841 17.322 3.25 1.847 6.117 2.708 9.75 3.563v1c44.654 1.921 89.246 2.302 133.936 2.27a19819 19819 0 0 1 28.915 0q27.368.007 54.735-.011 23.349-.013 46.699.002a59189 59189 0 0 0 60.586.007l2.906-.001q10.017-.003 20.035.006 12.215.009 24.43-.007 6.201-.009 12.402 0c20.535.03 40.88-.66 61.356-2.266v-1l1.953-.028c2.974-.055 5.948-.138 8.922-.222l3.07-.043c6.804-.218 13.147-1.079 19.055-4.707.973-2.919 1.151-4.88 1.203-7.923l.06-3.081.049-3.38.062-3.556q.081-4.85.15-9.7.045-3.08.094-6.157c.451-29.302.531-58.604.517-87.91q-.003-7.614-.001-15.228v-2.246l.001-4.528q.004-20.924-.006-41.847-.005-17.644.001-35.287c.046-120.283.046-120.283-.575-166.34l-.03-2.265c-.99-75.063-.99-75.063-9.832-86.198-2.119-1.695-3.406-1.835-6.098-2.029l-2.705-.195c-5.14-.232-10.273-.31-15.418-.335l-3.741-.03a5473 5473 0 0 0-10.271-.068q-4.466-.029-8.93-.06c-9.984-.07-19.968-.128-29.951-.184l-10.569-.063c-64.646-.386-129.292-.498-193.94-.512l-21.946-.009c-29.02-.016-58.04.003-87.059.102q-8.988.03-17.976.047" id="svg-layer-1" style="pointer-events: all; fill: none;"/><path fill="#303730" d="M250.777 23.871q11.145.006 22.29.008c64.267.015 128.533.137 192.798.527q5.198.032 10.396.061 14.569.083 29.137.186 4.319.031 8.637.056 5.826.036 11.653.086l3.374.017c4.848.046 9.683.165 14.52.513l2.37.17c2.538.626 3.436 1.472 5.048 3.505 3.158 6.594 3.455 12.378 3.477 19.617l.046 3.676c.04 3.455.066 6.91.087 10.365.02 2.995.052 5.99.084 8.986.108 10.334.183 20.669.255 31.004q.08 11.373.166 22.747c.326 43.535.616 87.07.885 130.605l1-14h2q.036 30.581.052 61.162.007 14.205.023 28.411.015 12.41.02 24.82 0 6.544.01 13.09c.038 22.858-.312 45.673-1.105 68.517l-2-1v-17h-1l.013 3.048q.062 14.214.09 28.428.015 7.308.048 14.615.032 7.051.039 14.103.005 2.691.021 5.382c.015 2.512.017 5.023.016 7.534l.022 2.252c-.015 3.811-.413 6.324-2.249 9.638-53.214 1.038-106.423 1.212-159.646 1.27l-10.17.011a107615 107615 0 0 1-81.784.071c-19.653.013-39.306.047-58.96.088q-30.455.063-60.911.071c-11.352.004-22.704.015-34.056.048-9.613.028-19.227.04-28.84.028a2408 2408 0 0 0-14.695.022q-6.72.033-13.438.003a444 444 0 0 0-4.864.018c-2.201.02-4.4.007-6.6-.012l-3.706.004c-4.464-.834-6.138-2.433-9.33-5.622-.55-2.105-.55-2.105-.312-4.187a42.6 42.6 0 0 0-.168-9.395c-.493-4.574-.602-9.055-.553-13.652.094-9.244.046-18.46-.316-27.697-1.062-28.044-.798-56.123-.786-84.182a28232 28232 0 0 0 0-24.33q-.004-23.044.006-46.087.006-19.666-.001-39.333a83553 83553 0 0 1-.004-50.906v-2.446q.002-8.43-.002-16.86-.005-10.302.003-20.603.005-5.23 0-10.461c-.01-14.75.155-29.466.784-44.204.33-7.87.398-15.718.349-23.594-.057-11.386.318-22.699 1-34.063h2v74h2l-.013-3.287q-.061-15.36-.09-30.72a6768 6768 0 0 0-.048-15.792q-.032-7.625-.039-15.25-.005-2.904-.021-5.808c-.015-2.719-.017-5.438-.016-8.157l-.022-2.406c.02-5.171.626-9.65 2.249-14.58 3.374-2.25 4.554-2.266 8.51-2.317l3.505-.059 3.883-.034q2.065-.028 4.13-.057c3.82-.053 7.64-.091 11.459-.127q3.696-.035 7.393-.08c46.63-.533 93.265-.481 139.897-.455M120.075 42.755c-7.056.562-14.154.61-21.23.763l-3.591.103-3.209.076c-3.31.33-5.994.974-9.045 2.303-1.076 3.23-1.123 5.545-1.12 8.941l-.004 3.761.01 4.133v4.346q.001 5.903.013 11.807c.006 4.112.006 8.224.008 12.336q.005 11.682.021 23.363.016 13.3.022 26.597.016 27.358.05 54.716l-2 1-1-9 2-1-1-1c-.233-6.172-.233-6.172.563-9 .437-2 .437-2-.063-4.875-.582-3.507-.368-6.713-.062-10.25.811-9.616.652-19.232.562-28.875h-2v-13l2-1-1-4h-3v-2h2a340 340 0 0 0-.375-4.312c-.07-.801-.14-1.602-.21-2.426C78 104 78 104 76 101h3l-2-6h-2l.007 2.609q.04 16.633.055 33.266l.003 2.718c.02 23.621-.082 47.228-.565 70.845-.97 48.417-.433 96.806.348 145.221l.06 3.826.054 3.317L75 360l.045 3.767C75 367 75 367 74.375 369.25L74 371l2 3h-2v7h2l-1 3c-.097 2.6-.14 5.173-.133 7.773l-.003 2.306q0 2.413.006 4.826.005 3.68-.007 7.36 0 2.348.004 4.696l-.006 2.213c.017 3.743.29 7.182 1.139 10.826.117 2.677.045 5.318 0 8h2v2h-2v30l3-1c.787-4.856 1.128-9.512 1.133-14.43l.003-2.048q0-2.12-.006-4.24-.005-3.258.007-6.516 0-2.067-.004-4.133l-.004-3.785C80 425 80 425 79 424a88 88 0 0 1 1-5h-2l.5-3.937c.75-6.813.884-13.318-.5-20.063h2v-2h-2l.563-1.562c.588-3.28-.069-6.163-.563-9.438l1-1c.386-6.1.052-12.261-.262-18.36a361 361 0 0 1 .004-37.277c.317-6.126.366-12.229.258-18.363h2l-.007 2.713c-.1 42.275-.09 84.545.413 126.817q.048 4.087.091 8.176.07 6.405.156 12.812.03 2.351.056 4.703.037 3.195.086 6.39c.015 1.192.03 2.385.047 3.614C82 475 82 475 83 477c.23 2.204.41 4.414.563 6.625l.253 3.602L84 490c8.862 2.308 17.722 2.443 26.813 2.617l5.036.114c19.358.412 38.719.423 58.08.398q4.705-.006 9.41-.007c33.719-.014 67.432-.284 101.148-.657 31.897-.353 63.79-.577 95.688-.588q4.44-.004 8.883-.01c18.155-.022 36.271.022 54.413.81 7.822.333 15.518.271 23.341-.115 15.75-.629 31.49-.65 47.25-.625l3.745.006q10.597.018 21.193.057c1.305-3.914 1.178-7.656 1.205-11.738l.03-2.725q.047-4.533.081-9.064l.063-6.513q.066-6.93.124-13.86.07-8.452.158-16.906c.787-78.904.3-157.812-.288-236.716l-.063-8.462-.015-2.12c-.086-11.554-.159-23.109-.227-34.663q-.107-18.055-.248-36.109c-.051-6.692-.098-13.383-.132-20.075q-.05-9.323-.136-18.646-.028-3.416-.04-6.832c-.011-3.095-.04-6.19-.075-9.285l.003-2.747-.04-2.5-.015-2.16c-.507-2.473-1.419-3.333-3.385-4.879-7.312-2.604-14.74-2.288-22.419-2.272q-2.204-.007-4.407-.015c-4.024-.014-8.048-.016-12.071-.015-4.345-.002-8.689-.015-13.033-.027q-11.284-.027-22.569-.037c-10.88-.01-21.76-.032-32.64-.057q-26.486-.061-52.972-.1l-3.201-.005-3.205-.005q-22.512-.034-45.024-.074l-3.202-.006q-26.397-.048-52.793-.105-16.287-.035-32.574-.056-11.148-.014-22.296-.038-6.438-.014-12.876-.018-5.886-.005-11.774-.02-2.135-.006-4.27-.005-2.892 0-5.783-.012l-3.251-.005C173 43 173 43 170 42c-2.87-.098-5.716-.14-8.586-.133l-2.584-.003q-2.715 0-5.432.006c-2.728.005-5.455 0-8.183-.007-8.421-.003-16.746.134-25.14.892M376 494v4a98.4 98.4 0 0 0 16 1l1 2h15v1h14l2-5v3h7l1-2c2.563-.625 2.563-.625 5-1l-4-3-1 2-3-2c-2.16-.243-2.16-.243-4.633-.23l-2.691.005-2.801.038-2.824.001c-6.91.046-6.91.046-8.051 1.186l-3-1a81 81 0 0 0-4.687-.062l-2.45.027L396 494l1 2-2.937-.562L391 495l-1 1a159 159 0 0 1-7.062-.937l-3.91-.59z" id="svg-layer-2" style="pointer-events: all;"/><path fill="#568072" d="M152 201q2.514.428 5 1v3l-4-1-1 5 3 1 1-2h3c2.945 4.993 3.635 9.336 4 15l1.813-1.437C167 220 167 220 170 219c-1.812-2-1.812-2-4-4h-3l1-3v-3c16.815 14.989 24.176 39.83 32.462 60.234a817 817 0 0 0 4.276 10.27c5.487 13.064 10.488 26.288 15.304 39.612q1.009 2.788 2.026 5.574c3.53 9.683 6.891 18.993 7.932 29.31 2.033-2.684 3.92-5.383 5.688-8.25.436-.706.873-1.413 1.324-2.14L234 342c1.143 3.428.839 4.113-.375 7.375-.87 2.366-1.612 4.55-2.055 7.035-.694 3.154-1.898 5.754-3.32 8.652l-1.484 3.098C225 371 225 371 222.546 372.871c-3.442 2.878-4.736 6.093-6.546 10.129a529 529 0 0 1-1.93 3.93l-.962 1.956c-3.949 7.99-8.158 15.69-13.108 23.114l-1 3 2 2-5 11h2l.55-1.863c.252-.809.504-1.617.762-2.45l.739-2.425c.99-2.362 2.03-3.6 3.949-5.262-.406 2.912-.816 5.553-1.937 8.281-1.227 3.138-1.958 6.245-2.688 9.531-.26 1.162-.52 2.323-.79 3.52L198 440h-2v2h-2l-.516 1.652a120 120 0 0 1-5.714 14.5C187 460 187 460 187 462l1.39-2.414c5.253-9.07 5.253-9.07 7.86-12.836 2.202-3.46 3.414-6.876 4.75-10.75h2l.75-3c1.587-5.527 3.373-10.748 8.25-14-.65 4.714-2.516 8.577-4.562 12.813A1175.822 1175.822 0 0 1 204 439l1.648-.628c2.49-.942 4.983-1.876 7.476-2.81l2.594-.987c7.27-2.712 13.548-3.71 21.281-3.576v2h-6v2q2.563.04 5.125.063l2.883.035C242 435 242 435 244.612 434.51c4.21-.635 8.332-.723 12.583-.792l2.636-.056c3.702-.078 7.405-.146 11.107-.215q4.066-.08 8.132-.167l2.532-.04c.39-.01.39-.01 2.367-.052l2.072-.038c5.21-.402 5.21-.402 6.959-2.151q-7.92.18-15.839.372-2.683.065-5.367.125c-10.957.25-21.865.654-32.794 1.503l-1-3c10.04-.947 20.02-1.179 30.094-1.203l2.428-.009q6.383-.022 12.764-.028 5.171-.007 10.342-.041c68.178-.444 68.178-.444 98.372 13.281-1.152 2.468-2.048 4.048-4 6v1l-7 2 2 2q-2.654.757-5.312 1.5l-2.989.844C372 456 372 456 369 456l-1 4h8l-3 1v2c-5.625 3.068-10.694 4.89-17 6v2c-8.906 2.996-17.647 5.558-26.945 7.011-4.858.792-4.858.792-7.055 2.989-2.86.493-5.658.874-8.54 1.184l-2.622.303c-2.82.325-5.642.638-8.463.95l-5.763.661q-5.692.655-11.385 1.301c-6.624.757-13.239 1.574-19.852 2.413l-2.971.375q-3.203.405-6.404.813v1l1.809-.016c24.738-.181 49.46.443 74.191 1.016v1a408464 408464 0 0 1-69.664.573l-29.469.242c-40.933.341-40.933.341-60.492-.315l-4.523-.145q-5.427-.173-10.852-.355v-1l10-1-1-3c.89-1.98.89-1.98 2.25-4.187 3.634-6.245 7.025-12.42 5.75-19.813-1.447-2.491-3.1-4.737-4.828-7.043-2.433-3.312-4.629-6.718-6.797-10.207l-1.253-2.012C155.26 434.252 149.64 424.619 144 415l-2.066-3.508a1052 1052 0 0 1-18.809-33.43l-1.119-2.04c-2.589-4.849-4.411-9.765-6.006-15.022 2.792 2.553 3.49 4.224 4 8l3-1-.586-1.687c-1.998-5.856-3.737-11.691-4.875-17.778l-.477-2.473-.402-2.277L116 342l-3-1c-.95-2.066-.95-2.066-1.687-4.562l-.762-2.504L110 332c0 4.462 1.339 8.564 2.441 12.871.52 2.908.568 4.409-.441 7.129-8.076-22.282-8.464-44.58-8-68h1l1 7 6 2q-.172-2.22-.375-4.437c-.07-.824-.14-1.648-.21-2.497L111 284l-2-1 4-1 3 6c.75-3.663 1.238-6.424 0-10 4.755 3.597 7.637 7.067 10.625 12.188q1.295 2.145 2.598 4.289l1.363 2.247c2.39 3.848 4.94 7.587 7.476 11.339 17.237 25.706 31.61 53.358 43.963 81.714a688 688 0 0 0 2.928 6.567l1.86 4.156.842 1.848c2.255 5.082 3.833 10.306 5.345 15.652 1.488-3.058 2.964-6.122 4.438-9.187l1.275-2.62 1.22-2.548 1.127-2.333c2.051-5.046 2.054-7.882-.056-12.986l-.879-2.014-.855-2.048c-1.03-2.453-2.08-4.884-3.27-7.264l3-1a975 975 0 0 0-9.125-21.562l-1.02-2.38-.988-2.25-.871-2.006c-1.087-1.966-2.412-3.227-3.996-4.802-.36-1.661-.69-3.329-1-5a200 200 0 0 0-3-6c-3.06-6.648-5.775-13.406-8.41-20.231-8.16-21.1-8.16-21.1-11.778-28.082-2.792-5.46-4.113-10.526-3.812-16.687h-2l-1.375-7.312-.416-2.212q-1.165-6.201-2.272-12.413a160 160 0 0 0-2.062-9.75c-.704-2.996-.93-5.615-.812-8.688C146 223 146 223 144.5 221.25L143 220v-4l3-1c1.352-2.906 1.352-2.906 2.625-6.5 2.307-6.432 2.307-6.432 3.375-7.5m99 252 1.93.375C255 454 255 454 256.125 456l.875 2c2.492 1.246 3.643.921 6.387.563 5.827-.654 11.568-.64 17.426-.563q3.009.039 6.019.063l2.648.035c2.52-.098 2.52-.098 4.81-.599 2.929-.54 5.606-.605 8.583-.58l3.51.019 3.765.035 5.895.027q7.248.036 14.496.096 4.072.033 8.145.048 3.828.016 7.656.057c5.946.017 11.062-.119 16.66-2.201v-2l3-1c-3.875-.08-7.534.022-11.375.563L351 453l-1-1c-3.14-.032-6.27.069-9.41.16-3.59-.16-3.59-.16-7-1.151-5.808-1.497-11.647-1.314-17.61-1.31l-3.797-.013q-3.975-.008-7.95-.002c-3.994.007-7.987-.02-11.981-.045-14.04-.034-27.487.491-41.252 3.361m-54.734 12.016c-2.505 3.299-4.334 6.557-6.078 10.296l-.944 1.956A538 538 0 0 0 187 482c2.985.995 4.92 1.129 8.035 1.133l3.31.006 3.718-.014 3.924-.012c4.004-.019 8.008-.051 12.012-.087q3.212-.028 6.424-.052 11.67-.09 23.337-.238 3.994-.05 7.99-.082c3.786-.033 7.573-.085 11.36-.142l3.5-.02 3.217-.06 2.819-.033c2.75-.466 3.64-1.254 5.354-3.399-9.437-2.47-18.944-4.499-28.5-6.437l-4.556-.929q-3.382-.69-6.763-1.375-6.129-1.244-12.247-2.532A502 502 0 0 0 216 465l-2.386-.436a275 275 0 0 0-7.052-1.127l-2.1-.37c-3.673-.485-5.182-.273-8.196 1.949m118.629-2.508c-6.021.57-11.978.569-18.02.492-7.062-.09-13.868.068-20.875 1v1c6.991 1.09 13.825 1.096 20.89 1.027l7.524-.037q5.899-.037 11.798-.086c3.81-.03 7.619-.048 11.429-.064l3.573-.04c.547-.003.547-.003 3.318-.011l2.915-.023c2.68.246 4.22.958 6.553 2.234 2.688.188 2.688.188 5 0l1-1 1 2c5.144-.436 8.755-.816 13-4v-1h-5v-2l-1.703.508c-2.477.53-4.518.516-7.043.37-.457-.023-.457-.023-2.768-.146l-2.923-.17c-20.064-1.028-20.064-1.028-29.668-.054" id="svg-layer-3" style="pointer-events: all;"/><path fill="#557F71" d="M517 69c-.581 3.617-1.536 6.424-3.312 9.625l-1.239 2.29C511 83 511 83 508.86 84.59 507 86 507 86 506.563 88.937 505.83 92.92 504.23 93.739 501 96l-1 2 2 1-5 3 8 2c-2.217 4.434-4.777 6.466-9 9h5l-1.062 1.875L499 117l1 2h-2l-.625 1.875c-1.923 2.972-4.04 3.255-7.375 4.125v3c-3.56 1.187-6.438 1.097-10.187 1.063l-3.856-.028L473 129v2l-2.668 1.172-3.52 1.578c-1.148.51-2.297 1.02-3.48 1.547C460 137 460 137 457.656 138.969c-3.68 2.814-7.646 4.191-11.969 5.781l-2.533.957q-3.073 1.16-6.154 2.293c7.514 0 13.817-3.827 20.25-7.375 18.546-9.997 18.546-9.997 27.75-10.625-3.383 2.774-7.083 4.615-11 6.5-6.591 3.235-13.067 6.65-19.5 10.188-.824.45-1.647.902-2.496 1.367-4.553 2.516-8.97 5.145-13.295 8.038C437 157 437 157 434 157l-1 2c-3.937 2.794-8.32 4.403-12.793 6.133C418 166 418 166 416 167c6.979 1.078 13.915 1.228 20.968 1.388 10.72.253 21.408.636 32.094 1.55l2.768.226c4.954.458 9.435 1.3 14.17 2.836v2l3 1c-4.77 1.234-9.425 1.113-14.312 1.063l-2.534-.014q-3.077-.02-6.154-.049v2l2.555.184 3.32.254 3.305.246C478 180 478 180 480 181h2.875c3.125 0 3.125 0 5.25.563 1.875.437 1.875.437 4-.125L494 181l2 2-2.25 1.25C491 186 491 186 489.313 188.063c-3.156 2.643-6.158 2.87-10.168 3.445L477 192l-1 2h-5l1 2c.77-.095 1.542-.19 2.336-.29 1.003-.11 2.006-.22 3.039-.335l3.023-.352L483 195l2 2a2152 2152 0 0 1-8.875 1.938c-.411.09-.411.09-2.492.552l-2.5.537-2.254.492c-8.978 1.5-17.99 1.703-27.074 1.91q-2.04.053-4.08.11c-5.717.154-11.433.305-17.15.435-30.215.698-30.215.698-43.575 4.026-1.665.341-3.331.678-5 1v2l2.578.148c11.12.687 11.12.687 16.535 1.293 8.322.932 16.62 1.631 24.985 2.028l2.477.119q6.173.294 12.345.539c7.996.343 15.854.973 23.76 2.252l2.177.344c4.988.872 9.445 2.389 14.143 4.277v4l2.25.25c3.262.89 4.56 2.235 6.75 4.75-1.096 3.178-1.95 3.972-4.937 5.688-13.13 5.627-27.045 5.723-41.063 5.312 1 1 1 1 4.598 1.098q2.232-.01 4.464-.036l2.3-.013q2.818-.02 5.638-.049l-1 3-12 1c5.217.07 9.901.102 15-1 2.333-.038 4.667-.046 7 0l1 2c-9.568 2.278-18.976 2.397-28.75 2.375h-2.473c-24.34-.05-45.808-5.85-68.964-13l-3.924-1.195-3.744-1.157-3.364-1.033C347 232 347 232 344 230q-3.353 2.551-6.687 5.125l-1.897 1.438c-3.096 2.399-5.794 4.739-8.248 7.804L325 247h-2l1-3h2l.645-1.68c1.811-3.101 4.348-5.138 7.043-7.445 4.742-4.181 8.488-8.419 11.91-13.781 1.327-1.982 2.583-3.556 4.402-5.094h2v-2h2l1-3h2v-2c4.385-3 4.385-3 7-3v-2h2v-2l2-1 .285-1.746c1.09-3.436 3.455-4.991 6.152-7.316 5.382-4.666 5.382-4.666 7.563-7.938h2l.742-1.71c1.485-2.703 3.278-4.663 5.383-6.915 3.093-3.37 6.05-6.778 8.875-10.375 3.455-4.382 7.108-8.53 10.867-12.652 1.806-1.988 3.57-4 5.32-6.036 4.058-4.662 8.304-9.15 12.536-13.653a434 434 0 0 0 12.41-13.804c1.918-1.906 3.466-2.666 5.867-3.855a215 215 0 0 0 6.188-5.187q1.735-1.485 3.472-2.965l1.715-1.465c2.233-1.9 4.475-3.784 6.75-5.633l2.07-1.703L468 97l3 1v-2c1.657-1.238 3.38-2.388 5.125-3.5 3.457-2.234 6.869-4.457 10.156-6.934C508.324 69 508.324 69 517 69m-93 149v3c14.014 1.206 27.926 2.383 42 2l1-2c-10.649-2.205-21.1-2.157-31.93-2.014l-3.46.041-3.127.055C426 219 426 219 424 218m-25 14v2h10v-2q2.188.212 4.375.438l2.46.246C418 233 418 233 420 234q2.004-.485 4-1 2.624-.099 5.25-.062l2.703.027L434 233v-3c-5.501-1.643-11.248-1.225-16.937-1.25l-3.577-.062-3.45-.016-3.145-.028c-3.327.41-5.23 1.344-7.891 3.356M403 73h1q.505 2.155 1 4.313l.563 2.425C406 82 406 82 406 85h-2v3l2 1 1 21h2c1.754-3.913 2.526-7.574 3.125-11.812l.508-3.52L413 92h1c-.433 18.691-4.219 35.881-12 53l7-6c0 3.762-1.27 5.668-3 9l-1.125 3.188c-2.35 5.61-6.614 10.543-10.875 14.812h-3c-2.688 2.5-2.688 2.5-5 5l1-4-2 5h-2l-.75 2.125c-2.446 5.625-4.92 8.9-10.25 11.875a174 174 0 0 0-5.45 4.793C365 192 365 192 363 192c-2.192 2.704-4.24 5.473-6.28 8.291-3.415 4.607-3.415 4.607-6.72 5.709v2h-2l-2 4h-5l-.312 1.688c-.82 2.754-2.147 4.9-3.688 7.312l-2-2-3 2-.375-3.375C331 214 331 214 329 212l.125 2.875C329 218 329 218 327 220c-1.146-2.292-1.36-4.107-1.684-6.648l-.373-2.797q-.379-2.917-.75-5.836l-.377-2.805-.33-2.564C323 197 323 197 322.012 195.13c-2.701-5.69-2.183-12.56-2.214-18.743l-.02-2.787c-.018-2.97-.024-5.942-.027-8.912l-.006-3.055c-.008-15.735.693-31.078 3.256-46.633l.598-3.66L324 109h1q.039 2.906.063 5.813l.035 3.269C325 121 325 121 324 124h3l-1-8 3-1-2-6 2-1.75c2-2.25 2-2.25 2-6.25l4-1c.8-3.287 1.097-4.71 0-8l2-3c.507-4.665-.309-7.187-3-11 3 1 3 1 4.168 2.848l1.02 2.215 1.042 2.222L341 87l3-3c7.127 14.314 10.648 29.066 13.547 44.686.439 2.243.945 4.46 1.469 6.685 1.21 5.373 1.895 10.789 2.546 16.254l.392 3.256c1.258 11.016 1.76 22.04 2.046 33.119 4.048-5.745 5.058-9.317 5.43-16.25l.216-3.754.112-1.977c1.02-17.637 3.223-34.804 7.242-52.019h1c.09 4.474-.143 8.606-1 13l3-3 1 2c.182-.545.364-1.09.55-1.652l1.59-4.766a1352 1352 0 0 0 1.657-5.008c1.288-3.911 2.61-7.773 4.203-11.574h4l1-2-5 1c.398-2.311.65-3.666 2.375-5.312 2.417-2.511 3.331-5.481 4.625-8.688.653-1.34 1.312-2.677 2-4h2l.402-1.898.536-2.477.527-2.46C402 75 402 75 403 73m-13 68a2221 2221 0 0 0-4.562 12.313l-1.327 3.537-1.24 3.388-1.158 3.127C381 166 381 166 382 169v-2h2c2.313-2.062 2.313-2.062 5-5l1.402-1.504c4.072-4.898 4.99-10.186 4.598-16.496l-2-3zM209 153c4.299.478 6.17 2.901 9 6l1.371 1.395c9.306 9.96 14.899 23.86 20.754 36.042l1.102 2.288a3004 3004 0 0 1 6.713 14.046q1.508 3.17 3.027 6.336c6.976 14.601 13.177 29.3 18.345 44.643l.714 2.093C272.734 273.85 274.755 281.5 275 290l3-2c-1.37 2.95-2.878 5.525-5 8h-2l-.75 1.625c-1.548 2.94-3.394 5.62-5.25 8.375l-1.625 2.75C262 311 262 311 260 313a89 89 0 0 0-2 4h-2l-1 4h-2v4h-2v2l-2 2c-.3.91-.598 1.82-.906 2.758-1.153 3.418-2.654 6.083-4.594 9.117l-1.844 2.93L240 346h-2c-.37-4.554-.37-4.554 1.5-6.812L241 338h-3l-2 4c0-3 0-3 2.063-5.625 2.541-4.428 1.973-7.57.937-12.375-1.393-4.513-3.053-8.906-4.75-13.312l-1.305-3.475a479 479 0 0 0-7.908-19.605c-1.388-3.49-2.26-6.937-3.037-10.608 2 1 2 1 2.852 3.066l.773 2.497c.26.826.52 1.652.79 2.503L227 287h2c-1.476-5.014-2.976-10.02-4.562-15l-.692-2.187C223 268 223 268 221 266l-.375-3.375c-.711-4.126-1.629-4.901-4.625-7.625a95 95 0 0 1-2-5l.567 1.697c.84 2.535 1.668 5.075 2.495 7.615l.893 2.67.83 2.569.778 2.364C220 269 220 269 219 272c-3.58-9.399-7.086-18.807-10-28.437l-.665-2.13c-1.012-3.446-1.73-6.024-.335-9.433l.938 2.875C210 238 210 238 211 240c0-8.852-1.112-17.01-3.413-25.561-2.652-10.129-3.935-20.583-5.11-30.974l-.248-2.103c-.215-1.862-.41-3.725-.604-5.589C201 173 201 173 198 171c.408-5.205 1.136-8.357 5-12h4zm21 78c.569 4.96 1.694 9.246 3.375 13.938 3.615 10.687 4.501 21.891 5.625 33.062l2-1v-14h-2v-2l4 2c1.599-5.915.259-11.153-1-17l-4-1 1-3-1-3h-2l1 9-.55-1.941c-1.513-5.203-3.2-10.13-5.45-15.059z" id="svg-layer-4" style="pointer-events: all;"/><path fill="#578173" d="m247 347 2 1-8 13 3.785-.254c22.84-1.394 45.752-.38 68.215 4.254v2h14v1h-5v2l14 3v2l13 1-2 2 1.871.184 2.567.253 2.777.274c2.434.253 4.857.548 7.285.851 3.148.36 6.207.473 9.375.438 6.378-.07 13.04-.029 19.125 2l1-2a480 480 0 0 1 5.5 4.25l3.094 2.39L402 389v4l4 2c0 3 0 3-1 6l-6 1 2-2h3c-1.75-4.875-1.75-4.875-4-6v-2l-2.832.367c-15.354 1.968-30.715 3.675-46.168 4.633 14.795.62 29.33-1.256 44-3l1 2-1 2h-5l-1 3c-8.272 3.84-16.786 4.12-25.793 4.281l-2.476.055q-3.96.086-7.918.164-5.508.118-11.016.242l-2.768.062q-8.664.197-17.326.516l-2.133.078q-4.904.182-9.807.385l-3.447.131-2.986.124C301 407 301 407 299 406l-1 2v-2l-3.336.494c-5.102.635-10.154.632-15.289.604l-2.992-.005c-3.128-.005-6.255-.018-9.383-.03q-3.197-.009-6.395-.014-7.802-.017-15.605-.049c4.824 1.244 9.556 1.144 14.5 1.133l2.768.003q2.889 0 5.779-.006 4.414-.005 8.828.007 2.813 0 5.625-.004l2.658.006c4.078-.016 7.864-.113 11.842-1.139v2l13-1 1 3q2.656.252 5.313.5l2.988.281C322 412 322 412 325 412h43v1c-13 2.56-25.996 2.312-39.187 2.25l-3.563-.01c-28.188-.086-55.925-1.572-83.912-4.919-7.819-.924-15.45-1.53-23.338-1.321l-5 10-3-3v-2l3-1h-2l2-7c-3.4 1.133-4.053 2.125-6 5 .703-9.141 6.733-16.084 12.023-23.168 1.927-2.76 3.494-5.532 5.04-8.52 2.308-4.42 4.961-7.842 8.347-11.48 1.508-1.738 2.572-3.372 3.653-5.394 1.9-3.372 3.987-5.927 6.542-8.793 1.751-2.065 3.1-4.272 4.395-6.645m46 40 7 2-5 1v1l7 2 1.438-1.5C305 390 305 390 306 390v2c9.443 1.047 18.543.941 28.006.319a87 87 0 0 1 15.615.428c3.607.384 7.191.437 10.817.44l2.1.038c3.717.01 5.285-.107 8.462-2.225v-2l-2.527-.113c-7.028-.41-12.912-1.33-19.473-3.887l-1 3v-3a237 237 0 0 0-24.25-1.125l-3.274.01c-24.518.157-24.518.157-27.476 3.115" id="svg-layer-5" style="pointer-events: all;"/><path fill="#547E70" d="M517 265c9.7 7.989 12.18 20.442 14.188 32.25q.371 2.063.748 4.123.727 4.008 1.43 8.02a786 786 0 0 0 2.088 11.332c.525 2.757 1.034 5.516 1.546 8.275l2-30h2a21319 21319 0 0 1 .065 39.326c.028 34.685-.21 69.365-.565 104.049l-.036 3.545q-.221 21.54-.464 43.08l-2 1-2-11h-2v-2h-2c-1.329-1.836-1.329-1.836-2.82-4.375l-1.621-2.734-1.684-2.891-1.707-2.89A1520 1520 0 0 1 520 457l2-1-1-9h-2l-1.125-2.312c-1.538-3.106-3.237-6.107-4.937-9.125C510.39 430.923 508 426.417 508 421l-3-1c-1.187-3.062-1.187-3.062-2-6h-2l-.875-3.437L499 407l-2-1v-2h-3l-1-7-3-1-.113-2.082-.2-2.73-.175-2.708c-.595-2.882-1.395-3.535-3.512-5.48-3.062-5.841-4.537-11.915-5.562-18.387-.402-2.4-.935-4.7-1.563-7.05C478 354 478 354 478 350a69 69 0 0 0-1-4h3c-.596-4.869-1.57-9.328-3-14h2v-7h2v-2h2l1 3h2l3 5 2.625 2.375c2.904 3.21 3.125 5.376 3.375 9.625h2v4l2-3c-.875-3.687-.875-3.687-2-7 3 1 3 1 4.822 4.073q1.023 2.05 2.014 4.118l1.095 2.235a830 830 0 0 1 2.284 4.724 742 742 0 0 0 3.45 7.051C515.4 368.915 519.112 378.586 522 389c1.478-2.957.604-5.031.004-8.258l-.693-3.836q-.558-3.012-1.12-6.022c-2.56-13.815-2.56-13.815-2.191-20.884l.875 1.813C520 354 520 354 522 357c1.672-3.344.9-7.037.688-10.687l-.108-2.397c-.272-4.914-1.123-9.188-2.58-13.916a71 71 0 0 1-.5-4.625c-.406-4.257-1.593-7.562-3.5-11.375h2l-.656-2.379c-1.506-5.682-2.745-10.738-2.344-16.621l-3-1 1.063-2.687c.991-3.505.713-4.866-.063-8.313q.49-3.001 1-6c.09-3.335.06-6.664 0-10h3z" id="svg-layer-6" style="pointer-events: all;"/><path fill="#557F71" d="M286 106h3c5.057 10.006 7.094 20.473 9.276 31.384q.989 4.927 2.003 9.85c3.038 14.787 5.97 29.575 8.365 44.483 1.575 9.801 3.448 19.541 5.356 29.283l3-3 2 15 2.875-4.25 1.617-2.39A56 56 0 0 0 327 220l3 4-2.414 3.078c-5.542 7.166-10.46 14.023-14.285 22.281-1.9 3.856-4.17 7.659-7.301 10.641h-3c-2.94 2.59-4.751 4.254-6 8a283 283 0 0 1-5 5l-2 3h-2l-.75 1.75c-1.433 2.58-3.034 4.311-5.25 6.25h-2l-1 4-2-1q1.436-2.408 2.875-4.812l1.617-2.708A156 156 0 0 1 285 274c-1.067-7.155-3.54-13.957-5.783-20.815-4.146-12.68-8.01-25.311-10.78-38.372l-.686-3.226c-2.978-14.798-4.042-29.046-3.876-44.087q.016-2.42.027-4.84.034-5.83.098-11.66h1l1 27c.438-8.562.438-8.562.568-11.217.248-4.647.74-9.177 1.432-13.783.273-3.108.498-6.216.719-9.328C269 141 269 141 270 138c-2.764 2.764-3.364 7.29-4 11h-1c-.336-10.686 3.617-20.447 7.5-30.25l.862-2.24c2.119-5.163 2.119-5.163 4.857-6.994L280 109l3 4zm5 67-2 23-3-1c-1.054 3.982-.841 6.982 0 11h1v-7l2 1-.035 2.3c-.01.995-.018 1.989-.027 3.012l-.036 2.989C289 211 289 211 290 214c.061 2.636.068 5.244.027 7.879l-.037 4.728q-.037 3.727-.086 7.453c-.03 2.398-.048 4.796-.064 7.194l-.04 2.26c-.01 1.83.086 3.66.2 5.486l2 2c1.14-4.515 1.111-8.932 1.063-13.555l-.012-2.484c-.016-3.49-.044-6.981-.072-10.472q-.026-3.834-.041-7.669l-.026-2.361c-.015-3.456.116-6.652.613-10.085.497-3.53.413-6.633.135-10.183l-.283-3.76-.315-3.869-.302-3.95q-.37-4.808-.76-9.612z" id="svg-layer-7" style="pointer-events: all;"/><path fill="#547E70" d="M282 297c0 3.576-1.088 5.053-3 8l1-1c11.81-3.346 24.131-2.028 36.256-1.31 2.11.122 4.22.229 6.33.335 11.277.626 22.812 1.839 33.414 5.975l1 2c1.85.439 1.85.439 4.27.71l2.675.328 2.868.337c8.145 1.067 15.541 2.528 23.187 5.625l3.41 1.203c9.18 3.477 16.222 8.368 22.59 15.797v3l-5 1 4 2v1l-13 2 1 1 1 3 2.117-.07 2.758-.055 2.742-.07C414 348 414 348 416 350c-4.356 1.54-8.659 2.651-13.187 3.563l-3.668.753c-11.194 1.976-22.504 1.921-33.832 1.934l-2.602.006c-15.302.009-30.817-.364-45.711-4.256v-2l-1.627-.118c-7.488-.638-14.82-1.955-22.195-3.356q-3.161-.598-6.324-1.178c-6.96-1.301-13.796-2.798-20.609-4.745-2.639-.709-5.208-1.093-7.933-1.29l-2.511-.2L254 339l2-1v-2h2l1-3a605 605 0 0 1 30.875-4.687l3.15-.398c4.043-.496 7.895-.915 11.975-.915v-2l-2.254.184c-8.765.672-17.525 1.096-26.309 1.423-6.504.257-12.96.744-19.437 1.393 1.152-3.064 2.336-5.748 4.242-8.41l1.293-1.81 1.34-1.842 1.316-1.854c2.366-3.285 4.69-6.467 7.809-9.084h3l.75-1.75c1.417-2.55 3.126-4.268 5.25-6.25m-10 16c-1.824 1.898-1.824 1.898-3.687 4.375l-1.887 2.46C265 322 265 322 265 324l19-3-1-3c-2.062-.687-2.062-.687-4-1v2h-2l-2-6zm37 16v2c6.636 1.08 13.298 1.528 20 2l3.824.285c7.073.508 14.085.865 21.176.715v1l36 1c-18.866-12.578-59.66-9.575-81-7m51 10v2l-2 1 2.994.06q5.546.117 11.093.257 2.391.057 4.783.105c2.304.046 4.608.104 6.911.164l2.129.035c4.949.145 9.32 1.046 14.09 2.379l-1-4c-8.348-2.36-17.44-2.105-26.062-2.187l-2.2-.04c-3.745-.006-6.562.14-9.738 2.227zm10.863 11.121-3.047.072c-3.168.075-6.336.16-9.503.245l-6.499.158q-7.907.192-15.814.404l-1 2c10.584 1.067 21.131 1.218 31.76 1.24 2.894.01 5.788.041 8.681.072q2.767.01 5.536.016l2.613.038 2.42-.01 2.122.011c2.406-.473 3.311-1.528 4.868-3.367-7.426-.822-14.672-1.091-22.137-.879" id="svg-layer-8" style="pointer-events: all;"/><path fill="#557F71" d="m323 247 1 2 3.48-.488c4.279-.53 8.523-.704 12.832-.7h2.396c13.245.12 27.321.363 40.292 3.188-2.463 2.463-4.707 2.998-8 4l2.053.196c15.338 1.507 30.086 3.703 44.947 7.804l2.209.585c10.44 2.793 19.469 7.017 28.791 12.415v3a210 210 0 0 1-5 4v2q-4.374.504-8.75 1c-.825.095-1.65.19-2.5.29l-2.422.272-2.222.254c-2.028.177-4.07.184-6.106.184v5h10l1 2c-36.682 8.13-74.786 1.21-111-6v-2a712 712 0 0 0-13.883-3.49 722 722 0 0 1-5.676-1.397c-7.5-1.62-7.5-1.62-10.289-.117-1.402 1.379-1.402 1.379-3.152 4.004.506-2.169 1-4 2-6h2v-2c4.46-.726 8.865-1.141 13.375-1.437 4.68-.339 9.07-.953 13.617-2.094 2.005-.468 3.964-.737 6.008-.969l3-.5 1-2-1.703.219c-9.749 1.076-19.505.867-29.297.781 1.273-2.734 2.643-4.959 4.61-7.242l1.538-1.793 1.602-1.84 1.555-1.816c3.407-3.947 6.97-7.662 10.695-11.309m26 27 1 2c2.555.379 2.555.379 5.875.563 4.101.248 8.168.537 12.25 1 6.19.598 12.38.489 18.59.4 2.095-.022 4.19.003 6.285.037l1 1c1.853.072 3.708.084 5.563.063l3.066-.028L405 279l-4-2 4-1-2-1v-2l-2.676.035c-1.2.01-2.4.018-3.637.027l-3.55.036c-3.152-.026-6.243-.277-9.38-.59-5.864-.567-11.68-.692-17.57-.695l-3.021-.038c-5.125-.01-9.373.166-14.166 2.225" id="svg-layer-9" style="pointer-events: all;"/><path fill="#4B675A" d="M522 61c-2.764 7.305-2.764 7.305-6.148 9.208l-2.657 1.175-2.94 1.335-3.13 1.407C498.12 78.295 490.656 82.673 483 89a327 327 0 0 1-5.625 4.063l-2.414 1.722C473 96 473 96 471 96v2l-1.68.246c-3.099 1.007-4.965 2.71-7.445 4.817l-2.926 2.453L456 108a843 843 0 0 1-5.312 4.313c-.76.614-1.519 1.23-2.301 1.863C446 116 446 116 443.02 117.898c-3.174 2.21-5.46 4.523-8.02 7.415q-1.438 1.609-2.879 3.214c-.504.565-1.008 1.13-1.528 1.71-2.215 2.451-4.483 4.85-6.751 7.252-11.116 11.785-21.448 24.172-31.713 36.698-4.928 6.01-9.737 11.871-15.633 16.985l-2.746 2.39-2.64 2.254c-2.101 2.175-2.762 3.236-3.11 6.184h-2v2h-2v2c-4.385 3-4.385 3-7 3v2c-1.375 1.625-1.375 1.625-3 3h-2v2l-2.562 2c-2.906 2.305-4.81 4.8-6.875 7.875-3.707 5.499-7.821 10-13.063 14.063-3.616 2.983-6.48 6.488-9.5 10.062l-2.684 3.129C312.338 258.948 307.5 264.798 303 271l1.796-.217c6.468-.72 12.825-.905 19.329-.846l2.898.014q3.489.018 6.977.049l-1 3-2.746.367c-11.146 1.533-11.146 1.533-15.817 2.758-5.728 1.389-11.583 1.038-17.437.875v2h-2l-.375 1.652c-2.73 9.982-9.935 15.914-17.625 22.348l-1 2h-3l-2 4h-2l-.715 1.586c-1.698 3.19-3.766 6.092-5.848 9.039-4.317 6.135-4.317 6.135-5.437 8.375l2.563-.437L263 327l2.98-.5c5.23-.74 10.498-.863 15.77-1.062l3.094-.131A422 422 0 0 1 305 325v2c-26.899 4.169-26.899 4.169-37.266 5.605L265 333l-3.297.426L259 334l-1 2h-2v2h-2l-.312 1.688c-.835 2.807-2.006 4.918-3.688 7.312l-3 1c-1.43 1.855-1.43 1.855-2.875 4.188-1.788 2.801-3.557 5.44-5.75 7.937-2.141 2.592-3.688 5.16-5.285 8.105-1.161 1.886-2.468 3.39-3.965 5.02-3.223 3.61-5.257 7.574-7.484 11.848-1.726 3.052-3.665 5.784-5.766 8.59C208 404.218 208 404.218 208 409l1.875-2.5L212 404h2l-.5 2.375c-.776 4.073-.776 4.073.5 6.625l-2 2-2-1 2 5-1.336 1.121c-2.16 2.44-3.091 4.918-4.289 7.942C204 434 204 434 203 436h-2l-.25 2c-2.365 9.461-8.875 18.357-14.75 26 .695-8.16 4.3-14.786 8-22h2v-2h2l.332-2.527c.961-6.821 2.261-13.018 4.668-19.473l-5 10h-2c.783-3.916 2.392-7.364 4-11l-2-2c1.221-3.299 2.575-6.023 4.625-8.875 5.373-7.875 9.9-16.478 13.625-25.25 2.028-4.743 4.418-7.987 8.75-10.875 1.352-2.426 1.352-2.426 2.625-5.312.425-.945.85-1.89 1.29-2.864 1.013-2.636 1.588-5.053 2.085-7.824 1.619-5.835 3.822-10.85 7-16h3l-.937 2.313A111 111 0 0 0 238 346c5.752-4.93 8.152-12.165 11-19h2v-2h2v-4l2-1a201 201 0 0 0 3-6l2-3h2l.781-2.168c1.293-3.004 2.847-5.467 4.719-8.144l1.844-2.676L271 296h2l.75-1.687C275 292 275 292 277.063 289.438 279 287 279 287 280 284a525 525 0 0 1 4.953-4.105c3.207-2.969 5.73-6.432 8.348-9.918L295 268h2l.188-1.687c1.173-3.34 3.156-5.028 5.812-7.313l2.03-.449c2.994-.837 3.828-3.066 5.325-5.63l1.145-2.046 1.145-1.977a351 351 0 0 0 4.358-7.74c2.865-5.201 6.47-9.556 10.267-14.095 2.195-3.886 1.725-5.797.73-10.063-.25-3.312-.25-3.312 0-6l3-2 2 11 3-3 1 3 .664-1.68c2.634-6.017 2.634-6.017 6.524-7.695L347 210l1-2h2v-2c1.11-1.11 2.228-2.215 3.371-3.293 2.85-2.986 5.217-6.376 7.664-9.695L363 191h4l1-3c5.349-5 5.349-5 9-5l.75-2.125c1.422-3.27 3.122-6.016 5.25-8.875h2l1-5h3l-1 2 1.875-2c2.125-2 2.125-2 4.125-2a119 119 0 0 0 5.063-6.25l1.392-1.777C402.73 154 404.253 151.649 405 148l1-4h2l.762-2.684C413.67 128.17 429.322 115.758 440 107l1.633-1.34c6.794-5.552 13.61-11.034 20.875-15.965a234 234 0 0 0 5.36-3.765C508.831 56.61 508.831 56.61 522 61" id="svg-layer-10" style="pointer-events: all;"/><path fill="#5D8577" d="m82 374 1.563 2a156 156 0 0 0 5.617 6.508c4.233 4.836 7.825 10.021 11.382 15.367l2.093 3.136c6.366 9.718 11.835 19.83 17.228 30.11 2.817 5.365 5.822 10.57 8.991 15.733 3.121 5.091 6.043 10.282 8.95 15.498 2.564 4.59 5.232 9.105 7.965 13.597 1.545 2.617 2.88 5.321 4.211 8.051l2 3v4h5v1c-21.042 1.339-41.95.733-63 0v-1l17-1-4.625-3.5c-4.678-3.74-8.071-7.544-11.375-12.5l-2.125-2.75C89.101 464.708 87.096 457.442 86 450h-2l.035 2.168c.07 7.661-.346 15.203-1.035 22.832h-1q-.231-19.31-.443-38.62-.098-8.967-.205-17.932-.104-8.646-.195-17.292-.036-3.306-.078-6.61-.056-4.615-.1-9.231l-.04-2.783c-.053-6.304-.053-6.304 1.061-8.532" id="svg-layer-11" style="pointer-events: all;"/><path fill="#547E70" d="M447 389c1.206 2.332 2.165 4.496 3 7 1.672 1.21 1.672 1.21 3.75 2.375 3.626 2.14 6.307 4.598 9.25 7.625l3 1 2.5 2.563C471 412 471 412 474 412c1.563 1.375 1.563 1.375 3 3l2 2-1-5c3.418 3.184 6.046 6.738 8.688 10.563 3.064 4.368 6.189 8.599 9.625 12.687 3.972 4.745 7.55 9.705 11.125 14.75 4.428 6.236 9.02 11.91 14.269 17.477C527.965 474.363 534 481.324 534 491l6-1-1 2h-54l2-2-1.687-1.617C474.993 478.307 467.035 466.905 459 455l1-2 3 4 2-3h-2c-2-5-2-5-2.875-7.25-2.192-5.358-4.571-10.621-7.094-15.832l-1.072-2.23a553 553 0 0 0-2.141-4.396c-2.261-4.706-3.704-9.188-4.818-14.292h2q-.214-3.094-.437-6.187l-.247-3.481C446 397 446 397 445.34 394.262 445 392 445 392 447 389" id="svg-layer-12" style="pointer-events: all;"/><path fill="#537E70" d="m139.766 43.902 2.695.01 2.789.026L155 44v2h27v-1l19 1c-3.982 3.982-7.744 5.02-13 7l15 2v1l-3.312.438C196 57 196 57 193 58l-3-1v2l3 1 2 3-2 2 2.027.078c7.072.418 13.604 1.686 20.443 3.4 7.121 1.75 14.245 2.716 21.53 3.522l-2 2h-4v2l9 2v1l-1.677.044c-18.744.552-18.744.552-25.948 3.22-8.61 2.669-18.524 1.929-27.437 1.924h-3.846C170.142 84.12 158.626 84 148 81v-2l-3.375.563C141 80 141 80 139 79a324 324 0 0 0-8.625-1.062l-2.43-.276Q124.973 77.327 122 77v-1h17l-4.875-.437c-4.875-.438-4.875-.438-7.125-1.563l2-5-17-1v-2h-5v2l-1.812-1C103 66 103 66 100 66l1.68.77 4.375 2.062C108 70 108 70 110 73c-4.233-.62-7.523-2.105-11.312-4.062l-3.239-1.66L93 66c2.132-6.978 7.868-9.67 13.813-13.25L113 49l-29-2-1 27h-1q-.041-6.156-.062-12.312l-.026-3.538-.01-3.388-.016-3.127C82 49 82 49 83 46l2.038.016c12.121.081 24.225.089 36.337-.453l2.768-.12c6.365-.315 6.365-.315 8.827-.957 2.329-.558 4.402-.599 6.796-.584m7.984 6.535-3.828.872L141 52v2c7.016 1.135 13.941 1.186 21.035 1.185 2.223.003 4.445.02 6.668.04q2.125.005 4.25.005l3.88.013C180 55 180 55 183 53l-13-2v-1l-2.266.035-2.984.028-2.953.035C159 50 159 50 157.094 49.406c-3.29-.638-6.107.282-9.344 1.032" id="svg-layer-13" style="pointer-events: all;"/><path fill="#517869" d="m83 76 31 5v2l-6 3 3.5 1.125c10.397 3.477 20.612 7.459 30.75 11.625l2.166.89A148 148 0 0 1 154 104l-10 2 14 3c-3.767 1.883-5.03 2.22-9 2l3.945.55 5.18.763 2.594.357c4.952.743 8.89 1.76 13.281 4.33l-1 3 11 1-2 2 7 1c-3.525 2.35-5.375 2.346-9.562 2.563-4.066.231-8.086.486-12.125 1-18.218 1.872-38.407 1.186-56.313-2.563l-1-3-3.29-.586-4.335-.789-2.16-.383C96 119.47 92.04 118.466 88 117c2.518 3.123 3.726 3.945 7.75 4.75L99 122v2l2.063.313C104 125 104 125 107.25 126.437c14.984 6.61 33.674 6.27 49.75 7.563v2c-25.783.923-49.724-3.996-73-15v13h-1z" id="svg-layer-14" style="pointer-events: all;"/><path fill="#4D6B5C" d="M195 56c18.675-1.05 39.934 4.49 55 16 1.766 2.18 1.766 2.18 3 4l-1.875.25c-2.125.75-2.125.75-3 2.5-2.303 4.606-6.068 6.873-10.754 8.543q-1.96.476-3.934.894l-2.146.486c-2.093.462-4.19.896-6.291 1.327l-3.09.691C210.767 92.831 199.29 92.24 188 92l-2.999-.059C171.147 91.627 157.671 90.243 144 88l2-2-3-1v2h-2v-2l-1.984-.008c-7.082-.3-12.083-2.131-18.282-5.512A50.6 50.6 0 0 0 114 76.437c-3.444-1.65-4.645-3.494-7-6.437a161 161 0 0 0-7-3c-1.937-1.687-1.937-1.687-3-3 4.22.48 6.797 1.166 10 4v-2h5v2l2.703-.035 3.547-.028 3.516-.035c2.644.08 4.732.312 7.234 1.098l-2 5 16 2v1h-15l8.105.684C139 78 139 78 141.613 78.535 144 79 144 79 148 79v2c52.883 6.1 52.883 6.1 69.387-1.031 3.621-1.343 7.092-1.43 10.926-1.594l2.244-.117A785 785 0 0 1 236 78l-5-2v-2l4-1-3.77-.55c-15.136-2.269-15.136-2.269-21.167-4.075-5.65-1.674-11.205-2.026-17.063-2.375q-3.375-.273-6.75-.562l-3.047-.254L181 65v-1l13-1-4-4v-2h5z" id="svg-layer-15" style="pointer-events: all;"/><path fill="#51776A" d="m81.979 504.866 2.627.007 2.77-.005c3.087-.004 6.174 0 9.261.003l6.612-.006a13996 13996 0 0 1 18.027 0c6.288.003 12.575 0 18.863 0q16.88-.004 33.76.006 15.271.006 30.542-.001 17.74-.01 35.481-.005 9.387.003 18.774-.001 8.846-.004 17.692.005 3.235 0 6.47-.002c10.109-.01 20.126.06 30.205.902 4.233.333 8.452.405 12.696.436l2.637.03q4.22.045 8.44.081l5.926.063q7.728.082 15.456.153 7.915.077 15.829.161 15.476.16 30.953.307l-2 3c-2.782.4-5.348.602-8.144.678l-2.557.1c-10.66.377-21.328.37-31.994.367l-6.958.01q-9.385.014-18.77.012-6.915.002-13.828.007-18.713.012-37.424.011h-4.278q-16.995.002-33.989.023-17.636.023-35.272.02-9.825-.001-19.65.014c-27.524.042-55.028-.187-82.54-1.01q-3.01-.087-6.02-.164c-3.71-.1-7.418-.22-11.127-.346l-3.348-.083c-1.014-.04-2.028-.078-3.072-.118l-2.666-.086C78.565 508.92 77.124 507.85 75 506c1.858-1.858 4.507-1.125 6.979-1.134" id="svg-layer-16" style="pointer-events: all;"/><path fill="#4D6D5D" d="M477 313c5.873.598 8.048 3.815 11.715 8.125 6.652 8.37 10.362 15.084 11.285 25.875h-3v-4h-2l-.48-1.793c-1.59-5.381-3.25-8.387-7.52-12.207l-1-3-2 6h-1v-9h-2v2h-2v10q.229 2.283.5 4.563c.257 2.17.5 4.252.5 6.437l-2 1 2 7h-2l.84 2.125c3.32 8.697 3.32 8.697 3.66 12.938.556 4.38 1.91 7.812 3.66 11.835C487 383 487 383 487 385l3-1-.062 3.375C490 391 490 391 491 393v3l2 1c1.188 2.438 1.188 2.438 2 5l-1 2h3v2l3 1 1 7h2l1.313 2.813C506 420 506 420 507.539 421.41c1.855 2.02 2.074 3.534 2.524 6.215.41 2.414.41 2.414.937 4.375l2 1c2.67 4.37 4.532 9.107 6 14h2l1 9h-3c-1.24-1.494-1.24-1.494-2.453-3.586l-1.379-2.324-1.418-2.465c-2.92-5-5.88-9.879-9.258-14.586-3.473-4.898-6.365-9.958-9.117-15.289l-1.52-2.936c-4.228-8.317-8.103-16.774-11.855-25.314l-.828-1.86c-6.56-14.8-10.342-29.164-10.422-45.39l-.062-3.133c-.049-9.599 2.36-17.46 6.312-26.117" id="svg-layer-17" style="pointer-events: all;"/><path fill="#517869" d="M83 134c6.549.728 11.847 1.552 18 3.375l2.309.633c1.929.564 3.816 1.268 5.691 1.992l1 3 3.05.332c6.677.961 12.804 4.001 18.95 6.668l3.29 1.414c7.2 3.33 13.493 7.527 18.71 13.586v3l-4 1 1 5c-13.25 4.216-26.231 4.252-40 4v-3l-2-1v2l-2-1 1-2-2.812.188C99.994 173.177 94.769 172.035 90 170c-1.828-2.11-1.828-2.11-3-4 3.717.49 7.182 1.323 10.75 2.438 12.271 3.76 24.457 4.785 37.25 4.562l-7-1v-2c3.094-1.777 5.58-2.314 9.125-2.562 4.68-.34 4.68-.34 6.875-1.438l-16-4 1-2-2.117-.402-2.758-.536-2.742-.527C119 158 119 158 117 157h-3.437C110 157 110 157 107 156a99 99 0 0 0-5.187-.062l-2.731.027L97 156l-1 3-1.5-.437c-3.478-.783-6.96-1.15-10.5-1.563.75 4.75.75 4.75 3 7h-3l-1 4zm1 8v9c6.825 1.56 13.007 2.268 20 2l1-3 2-1-7-1v-2l-2.3-.184-3.013-.254c-.986-.08-1.972-.162-2.988-.246C89 145 89 145 86 144v-2z" id="svg-layer-18" style="pointer-events: all;"/><path fill="#E2ECDE" d="m204.469 463.3 3.366.452 3.665.56 3.827.555c12.1 1.819 24.022 4.457 35.935 7.226l2.176.506q2.124.495 4.25.992c5.738 1.326 11.51 2.417 17.322 3.367 4.775.827 4.775.827 6.99 3.042-3.293 2.195-4.34 2.264-8.173 2.319l-3.218.06-3.5.035-3.639.06c-3.906.06-7.813.106-11.72.151l-7.979.11c-6.45.088-12.899.161-19.348.229q-4.575.048-9.151.107-6.604.079-13.21.116l-3.717.04-3.31.003-2.77.013C190 483 190 483 187 481a931 931 0 0 1 3.75-7.312l1.055-2.092 1.054-2.022.953-1.856c2.997-4.332 5.542-5.119 10.657-4.417" id="svg-layer-19" style="pointer-events: all;"/><path fill="#1A2721" d="M75 95h2l2 6h-3l2 3c.414 2.262.414 2.262.625 4.688l.227 2.449L79 113h-2v2h4v5h-2v13l2 1c.03 4.146.047 8.292.063 12.438l.025 3.529c.014 5.076-.005 10.06-.623 15.103-.376 3.174-.4 5.29.035 8.368C81 177 81 177 80 179c-.233 6.533-.233 6.533 1 9h-2q.173 2.22.375 4.438c.07.823.14 1.647.21 2.496L80 197l2 1-1 3a65 65 0 0 0-.062 4.21l.025 2.504.037 2.661c.054 6.898-.154 13.66-.773 20.535-.616 8.394-.557 16.774.773 25.09h-2l.5 2.625c.893 6.073.576 12.255.5 18.375h-2l1 3c.081 1.627.108 3.258.098 4.887l-.01 2.842-.025 2.959-.014 2.994Q79.03 297.342 79 301h-2c1 2 1 2 3 3l-.184 2.664C78.87 321.43 78.452 336.213 78 351l-2 1c-1.098-7.2-1.22-14.327-1.316-21.602l-.064-4.024q-.082-5.382-.153-10.764l-.093-6.744c-.5-35.794-.525-71.542.197-107.334.466-23.553.514-47.1.492-70.657l-.003-2.721Q75.043 111.576 75 95" id="svg-layer-20" style="pointer-events: all;"/><path fill="#4D6D5E" d="m179 112 2.563 1.188c5.095 2.426 9.382 4.86 13.437 8.812 1 3 1 3 0 6h2v2h-2v2c-12.841 3.77-24.655 4.47-38 4v-2l-1.794-.044c-10.757-.293-21.427-.747-32.081-2.331l-2.388-.345c-8.188-1.307-15.805-3.659-22.737-8.28l-2.875-.312c-3.974-.875-5.496-2.672-8.125-5.688 3.352-1.117 3.85-.931 7 .25 4.543 1.636 9.126 2.852 13.813 4.004C110 122 110 122 111 124c22.03 6.879 52.444 4.49 75 1l-10-2 3-2-6-1-1-3c-6.351-3.176-12.926-3.751-19.902-4.473L149 112l-1-2h8l-2.59-.586-3.347-.789-3.34-.773L144 107l-1-2c12.149-4.05 25.102 1.707 36 7" id="svg-layer-21" style="pointer-events: all;"/><path fill="#4E6F60" d="M144 219c1.894 2.15 2.946 3.438 3.223 6.332l-.16 2.48c-.138 4.487.577 7.88 1.937 12.188.545 2.708 1.019 5.423 1.488 8.145.647 3.61 1.435 7.184 2.242 10.761C153 261 153 261 152 264l2 1-1 2h2l.125 3.188c.655 5.307 2.97 9.705 5.273 14.48 2.416 5.025 4.508 10.166 6.602 15.332l.947 2.33q1.594 3.926 3.178 7.858l1.021 2.52c1.897 4.73 3.619 9.466 5.12 14.339.757 2.015 1.688 3.57 2.922 5.328C182 335 182 335 182 338l2 1 1 3a337 337 0 0 0 2.363 5.156l1.44 3.102q1.488 3.197 2.984 6.39c3.093 6.678 5.824 13.39 8.213 20.352-4.6-.527-4.6-.527-6.359-2.604l-1.036-2.087-1.192-2.335-1.226-2.536-1.325-2.636a702 702 0 0 1-2.648-5.336 342 342 0 0 0-3.112-6.161c-2.089-4.077-4.104-8.184-6.102-12.305l-1.614-3.315C163.148 312.468 150.84 286.56 145 259l-.479-2.078C141.71 244.627 141.658 232.57 142 220z" id="svg-layer-22" style="pointer-events: all;"/><path fill="#547F71" d="M96 155c5.796-.093 11.286-.088 17 1h5l1 1c1.846.395 3.702.742 5.563 1.063l3.066.535L130 159l-1 2 3.246.805 4.191 1.07 2.143.527c1.824.472 3.624 1.03 5.42 1.598l1 2-2.703.402-3.547.536-3.516.527c-2.465.408-4.828.874-7.234 1.535v2h7l1 2c-13.278.453-31.04.016-43.172-6.094C91 167 91 167 88 167c4.742 4.742 13.537 5.157 20 6l1 1q1.987 1.025 4 2h-2v2h15v1c-29.612.527-29.612.527-36.625-5.562Q87.684 171.722 86 170l-2-1v14h-1a748 748 0 0 1-.125-7.187l-.05-2.042c-.04-4.06.375-7.121 2.175-10.771l-1-1a100 100 0 0 1 0-5l2.371.035 3.067.028 3.058.035C95 157 95 157 96 156z" id="svg-layer-23" style="pointer-events: all;"/><path fill="#4D6D5E" d="M442 379c10.306 5.497 19.052 12.466 27 21l1.973 2.031c4.266 4.566 6.848 9.121 9.027 14.969l-2 2-.312-1.937L477 415c-3-1-3-1-5-1-3.125-2.375-3.125-2.375-6-5v-2l-1.687-.187c-3.253-1.143-4.88-3.38-7.313-5.813a112 112 0 0 0-6.328-3.691c-2.068-1.619-2.305-2.759-2.672-5.309l-2 1 .219 1.688c.626 5.151.87 10.123.781 15.312 0 6.617 2.884 12.139 5.875 17.875q1.08 2.122 2.156 4.246l1.035 2.035c3.309 6.535 5.635 12.615 6.934 19.844h2l-2 4c-16.277-15.63-23.265-37.507-24.012-59.594-.081-6.344.132-13.645 3.012-19.406" id="svg-layer-24" style="pointer-events: all;"/><path fill="#4C6A5C" d="M403 63c2 2 2 2 2.375 3.875C406 69 406 69 407.875 70.688c5.357 5.83 5.543 13.296 5.355 20.882-.977 14.551-.977 14.551-4.23 19.43l-3-1q-.29-4.437-.562-8.875l-.17-2.55-.147-2.442-.143-2.254C405 92 405 92 406 90l-2-1v-4h2c-.95-3.354-1.897-6.692-3-10l-3 9h-2l-.34 1.672c-.774 2.729-1.928 5.056-3.223 7.578l-1.378 2.703L392 98h-2v3h4l-2 4v-2h-3l-.312 1.938c-.744 3.311-1.759 6.436-2.872 9.64q-.829 2.465-1.539 4.969l-.714 2.453-.622 2.25C382 126 382 126 380.027 126.625L378 127l-2 2q.18-2.157.375-4.312c.07-.801.14-1.602.21-2.426 1.176-9.257 3.329-17.605 6.665-26.324l1.121-3.065c3.398-9.006 7.794-16.999 13.942-24.436l2.05-2.503c.85-1.004 1.707-2.004 2.637-2.934" id="svg-layer-25" style="pointer-events: all;"/><path fill="#537D6F" d="M427 464c3 1 3 1 5.313 3.563 2.687 2.437 2.687 2.437 6 2.75L441 470v-2c4.128.585 6.743 2.825 10 5.313l3.125 2.363c2.469 1.996 4.647 4.072 6.875 6.324l3 2 2-1 2.125 2.875c2.571 3.124 4.892 4.199 8.875 5.125v1q-7.337.363-14.679.647-2.496.102-4.99.228c-2.395.118-4.79.21-7.186.297l-2.242.129c-3.697.107-5.642-.128-8.758-2.196L437 489c-2.4-1.808-4.8-3.616-7.207-5.414L428 482v-2h-2c-1.762-2.555-1.762-2.555-3.687-5.875l-1.95-3.305L419 468l1-2 2 1c2.063-.312 2.063-.312 4-1z" id="svg-layer-26" style="pointer-events: all;"/><path fill="#4D6C5D" d="M396 392h4v2l4 2v4l-2.375.25L399 401l-.812 1.875c-1.97 3.526-5.52 4.029-9.188 5.125l-3.266 1.04c-19.881 5.879-41.198 4.073-61.734 3.96h-1c-1.98-.085-3.96-.193-5.937-.312l-3.278-.176c-.919-.17-1.838-.338-2.785-.512l-2-3-12 1v-2h2v-2l3.471-.076q18.404-.406 36.806-.858l7.51-.18c4.05-.096 8.1-.208 12.15-.324l3.52-.081c8.89-.273 18.387-.596 26.543-4.481l1-2h5l-.062-2.437C395 393 395 393 396 392" id="svg-layer-27" style="pointer-events: all;"/><path fill="#E1EBDD" d="M296.037 449.664q3.984.026 7.97.02a206228571344608.97 206228571344608.97 0 0 1 15.24.012c6.277.054 12.142.535 18.284 1.871 3.448.605 6.79.538 10.278.406 2.191.027 2.191.027 4.261.55 3.046.753 5.861-.038 8.93-.523a97 97 0 0 1 5 0l-3 1v2c-6.811 2.549-13.47 2.237-20.668 2.16l-6.015-.023c-2.793-.013-5.585-.036-8.378-.058q-7.35-.056-14.701-.088-3.909-.018-7.816-.053l-3.571-.02-3.14-.025c-2.427.096-4.385.466-6.711 1.107-2.1.07-4.203.084-6.305.063l-3.707-.024-7.703-.078-3.715-.024-3.382-.035c-3.188.098-3.188.098-6.481.684-2.707.414-2.707.414-4.582-.899C255 456 255 456 255 454l-4-1c15.013-3.123 29.737-3.434 45.037-3.336" id="svg-layer-28" style="pointer-events: all;"/><path fill="#4E6E5F" d="M511 259c1.813.063 1.813.063 4 1 1.813 3.375 1.813 3.375 3 7l-1 3-1-3h-2l1 2c.13 3.88.125 7.307-.562 11.125-.438 2.875-.438 2.875.125 5.938.497 3.343-.072 4.956-1.563 7.937l2 1a90 90 0 0 1 1.688 7.25l.431 2.027c.778 3.941.71 6.838-.119 10.723l2 2c1.811 5.493 2.32 11.294 2.754 17.031C522 336 522 336 523 337c.265 2.964.47 5.905.625 8.875l.156 2.512.133 2.418.124 2.218c-.061 3.188-.794 4.733-3.038 6.977-1.316-3.62-2-6.096-2-10h-2q-1.9-10.033-3.79-20.068-.644-3.41-1.29-6.82-.93-4.916-1.854-9.83l-.58-3.057c-3.28-17.492-4.178-34.15 1.514-51.225" id="svg-layer-29" style="pointer-events: all;"/><path fill="#4D6D5E" d="M83 188c6.704.213 12.97 1.575 19.438 3.25l2.404.583c3.81 1.037 5.687 1.595 8.256 4.714L114 199l-1 2h-2l1.375 1.125c2.095 2.418 2.745 4.83 3.625 7.875-1.125 1.5-1.125 1.5-3 3-3.187.188-3.187.188-6 0v3c-7.11.408-13.38-.225-20-3l-2-2v-4c4.901-2.45 11.752-.875 17 0-3.326-4.514-5.627-6.226-10.875-7.937-3.217-1.094-6.118-2.488-9.125-4.063-.043-2-.04-4 0-6z" id="svg-layer-30" style="pointer-events: all;"/><path fill="#4E6F5F" d="M322 368c23.648-.612 46.447.224 68 11v3l-2.965-.219c-12.019-.85-12.019-.85-16.598-.781-8.948.102-17.842-.421-26.437-3v-1l-2.809-.367-3.628-.508-3.622-.492L331 375l-1-2c-2.285-.633-2.285-.633-5.062-1.125l-2.786-.508L320 371l2-1z" id="svg-layer-31" style="pointer-events: all;"/><path fill="#4B645B" d="M554 53h1l1 27 2-4c.731 5.803 1.161 11.515 1.221 17.362l.035 2.369q.053 3.828.096 7.656l.07 5.366q.072 5.601.136 11.203.084 7.167.185 14.334.074 5.532.139 11.064a2799 2799 0 0 0 .07 5.286q.048 3.693.086 7.386l.034 2.187c.033 4.043-.283 7.822-1.072 11.787h-1l-2 63h-1q-.198-25.627-.391-51.256-.09-11.909-.182-23.817C554.15 124.285 553.906 88.644 554 53" id="svg-layer-32" style="pointer-events: all;"/><path fill="#E2ECDE" d="M84 450h2l1.172 3.727q.788 2.449 1.578 4.898l.766 2.45c1.583 4.869 3.406 8.767 6.484 12.925l1.57 2.309c3.87 5.298 7.974 8.828 13.489 12.378L113 490v1c-4.083.029-8.167.047-12.25.063l-3.512.025-3.379.01-3.11.016c-2.425-.1-4.436-.415-6.749-1.114-1.266-13.404-1.397-26.602 0-40" id="svg-layer-33" style="pointer-events: all;"/><path fill="#DFE9DB" d="m325.438 383.875 3.624-.014c6.398.011 12.596.284 18.938 1.139v3l2-3 1.8.621c6.408 2.083 12.482 3.009 19.2 3.379v2c-3.224 2.15-4.078 2.248-7.79 2.23l-2.855-.005-2.98-.038-2.91-.001c-4.398-.027-8.696-.16-13.059-.729-4.815-.6-9.454-.303-14.281.043-7.146.444-14.015.56-21.125-.5l-1-3v2c-1.625 1.125-1.625 1.125-4 2-3.25-.875-3.25-.875-6-2v-1l5-1-7-2c5.865-5.865 24.636-3.104 32.438-3.125" id="svg-layer-34" style="pointer-events: all;"/><path fill="#4B655B" d="M186 43a232224 232224 0 0 1 148.772.325q24.795.059 49.588.102 25.44.047 50.878.116 15.7.042 31.397.064 10.763.016 21.527.052 6.21.022 12.422.025 5.689.003 11.378.03 3.027.008 6.054.002c6.994.043 13.598.091 19.984 3.284l-1 2-1.718-.974c-2.446-1.1-4.133-1.332-6.8-1.437l-2.74-.116-2.996-.092-3.2-.114c-13.406-.429-26.817-.395-40.227-.368q-5.832.008-11.662.008-10.06.005-20.12.018-14.55.017-29.103.023a108313 108313 0 0 0-70.122.052l-22.962.02-2.86.003q-23.587.02-47.174.03-14.525.007-29.048.026-9.93.012-19.857.015-5.728 0-11.455.012c-4.135.008-8.27.008-12.406.008l-3.667.01-3.353-.004-2.891.003C189.999 46 187.573 45.588 185 45z" id="svg-layer-35" style="pointer-events: all;"/><path fill="#688E80" d="M445.063 506.875h2.59c25.792.005 51.57.182 77.347 1.125v1c-24.106 1.932-48.09 2.284-72.265 2.196-3.784-.011-7.568-.01-11.353-.01q-5.516-.001-11.033-.013-2.607-.005-5.216-.006-3.613-.004-7.227-.022l-2.123.002c-4.347-.028-8.49-.498-12.783-1.147a128 128 0 0 0-5.2-.205l-2.911-.06-3.073-.051-3.198-.063q-5.028-.097-10.055-.183l-6.842-.131q-8.36-.16-16.721-.307v-1c30.02-.826 60.032-1.125 90.063-1.125" id="svg-layer-36" style="pointer-events: all;"/><path fill="#485C54" d="M558 403h1q.034 18.892.052 37.786.007 8.772.023 17.545.016 8.46.02 16.923.003 3.233.01 6.465.01 4.518.009 9.036l.01 2.716-.004 2.486.003 2.159C559 500 559 500 558 503h-4q-.106-16.35-.155-32.701-.022-7.593-.071-15.184c-.033-4.882-.05-9.765-.059-14.647a983 983 0 0 0-.032-5.594 883 883 0 0 1-.024-7.822l-.032-2.348c.026-4.461.064-5.395 3.373-8.704v21z" id="svg-layer-37" style="pointer-events: all;"/><path fill="#496057" d="M70 30h1c.126 31.018-.066 61.995-1 93h-2V49h-2l.007 1.679c.198 51.985.198 51.985-1.007 74.321h-1q-.07-14.722-.104-29.445-.014-6.839-.047-13.676-.032-6.614-.039-13.228-.005-2.508-.021-5.016C63.727 53.862 64.122 44.626 66 35h2z" id="svg-layer-38" style="pointer-events: all;"/><path fill="#4E6E5F" d="M430.846 457.626c.67.35 1.34.7 2.029 1.062l2.142 1.104c8.246 4.311 15.351 9.375 22.483 15.333.625.515 1.25 1.03 1.893 1.562 3.084 2.639 4.898 4.299 5.607 8.313-4.84-2.562-8.151-5.06-12-9-7.972-6.657-7.972-6.657-12-8l1 3h-8v-2l-1.812-.812c-2.16-1.173-3.546-2.382-5.188-4.188l-1 3c-2.881.88-4.428 1.238-7.25.063-2.665-3.141-2.427-5.989-2.75-10.063l-1-2c5.74-1.913 10.67.039 15.846 2.626" id="svg-layer-39" style="pointer-events: all;"/><path fill="#343D36" d="M80 198h2v172h-1l-.025-2.372q-.116-11.058-.263-22.115-.076-5.685-.134-11.37-.056-5.486-.136-10.97a845 845 0 0 1-.045-4.188 823 823 0 0 0-.078-5.861l-.04-3.372C80 307 80 307 78 304l-1-3h2l-1-24h2l-1-2a67 67 0 0 1-.133-4.316l-.004-2.565.012-2.682-.012-2.693.004-2.56.004-2.358C79 256 79 256 80 255a64 64 0 0 0-.437-4.062c-1.24-11.314-.582-22.626.214-33.942.4-6.327.305-12.66.223-18.996" id="svg-layer-40" style="pointer-events: all;"/><path fill="#4D6E5F" d="m485.938 175.688 3.714-.114c3.981.507 5.46 1.72 8.348 4.426l3 2 2 2c-.062 2-.062 2-1 4-2.562 1.25-2.562 1.25-5 2l1 2c-8.501 4.394-16.637 4.768-26 5l-1-3a317 317 0 0 1 9.176-2.965l3.137-.972 3.175-.965L489 188l1-3c2.563-1.187 2.563-1.187 5-2-2.847-1.424-4.928-.523-8 0l-1-1h-7l-1-1a164 164 0 0 0-6.062-1.062l-3.348-.536L466 179v-2a258 258 0 0 1 19.938-1.312" id="svg-layer-41" style="pointer-events: all;"/><path fill="#E1EBDD" d="m367.438 330.375 2.378.336C383.659 332.7 383.659 332.7 390 335c-3.786 1.239-7.331 1.038-11.285.914l-2.114-.064q-2.205-.069-4.41-.147c-2.249-.078-4.498-.145-6.748-.21a4670 4670 0 0 1-8.228-.272C354 335 354 335 351 334a85 85 0 0 0-4.625 0c-30.804.286-30.804.286-37.375-3l1-2c18.974-3.034 38.539-1.317 57.438 1.375" id="svg-layer-42" style="pointer-events: all;"/><path fill="#4D6C5C" d="M199 171c3 2 3 2 3.625 4.738l.375 3.575q.237 2.043.477 4.085l.25 2.238c1.237 10.732 2.576 21.422 5.398 31.864 1.627 6.05 2.428 11.77 2.7 18.023C212 238 212 238 213 240l-3 1c-3.744-13.389-7.064-26.787-9.693-40.437l-.475-2.458-.415-2.182C199 194 199 194 198 191a65 65 0 0 1-.133-4.16l-.004-2.404.012-2.499-.012-2.51.004-2.4.004-2.195C198 173 198 173 199 171M327.313 461.875l2.004.004c6.717.05 13.418.42 20.12.853l2.458.147 2.182.143C356 463 356 463 359 462v2h5c-2.542 3.107-5.137 4.073-9 5-2.812-.375-2.812-.375-5-1h-1a681 681 0 0 1-4.562-.5l-2.504-.281L340 467v-1l-2.072.007q-10.707.032-21.414.048-3.992.007-7.985.02c-3.832.013-7.665.018-11.498.023l-3.587.015c-5.914 0-11.597-.206-17.444-1.113v-1c9.179-.864 18.237-1.093 27.45-.963 4.892.048 9.599-.202 14.453-.806 3.14-.346 6.251-.363 9.41-.356" id="svg-layer-43" style="pointer-events: all;"/><path fill="#4B655B" d="m139.523 41.867 2.63-.003q2.725 0 5.451.006c2.784.005 5.569 0 8.353-.007q2.658 0 5.316.004l2.52-.006c3.321.014 6.034.081 9.207 1.139 2.809-.047 5.602-.193 8.406-.355C184 43 184 43 185.662 45.022L187 47c-3.646.03-7.292.047-10.937.063l-3.096.025c-6.08.02-11.94-.29-17.967-1.088v-2q-4.687.213-9.375.438l-2.637.119c-4.334.208-8.64.484-12.957.94C115.37 47.035 100.68 47.384 86 46c3.669-2.446 5.599-2.292 9.977-2.379l2.074-.051c2.191-.053 4.383-.094 6.574-.133q3.255-.065 6.51-.142 2.976-.067 5.953-.121c2.821-.126 5.51-.34 8.303-.681 4.722-.557 9.381-.638 14.132-.626" id="svg-layer-44" style="pointer-events: all;"/><path fill="#1B2721" d="m376 494 3.21.473 4.165.59 2.117.314c5.281.736 5.281.736 7.508-.377h3v-1q2.125-.04 4.25-.062l2.39-.036c2.267.094 4.189.466 6.36 1.098v-1c3.27-.058 6.541-.094 9.813-.125.928-.017 1.857-.034 2.814-.05l2.705-.02 2.491-.032C429 494 429 494 432 496l1-2 4 3-2.437.375L432 498l-1 2h-7v-3l-2 5h-14v-1h-15l-1-2-2.23.035c-.976.01-1.952.018-2.957.027l-2.918.036c-2.75-.093-5.22-.477-7.895-1.098z" id="svg-layer-45" style="pointer-events: all;"/><path fill="#4B645B" d="M559 252h1v187h-1c-.944-38.461-1.16-76.9-1.129-115.37q.006-9.249-.003-18.498-.007-9.051-.003-18.102.003-5.35-.001-10.697c-.004-3.915.001-7.83.007-11.744l-.007-3.538.009-3.194.001-2.786C558 253 558 253 559 252" id="svg-layer-46" style="pointer-events: all;"/><path fill="#4C695B" d="M333 79h2c2.338 2.338 2.967 3.682 3.313 7-.306 2.93-1.027 4.428-2.313 7a70 70 0 0 0 1 4c-.437 2.25-.437 2.25-1 4h-5l.75 1.75.25 2.25-2 1.875-2 2.125c.25 3.25.25 3.25 1 6l-2 1v8h-3c.328-15.99 1.747-30.494 9-45" id="svg-layer-47" style="pointer-events: all;"/><path fill="#E1EBDD" d="m361.648 271.77 3.797.005 3.93.038 3.906.001c6.343.03 12.445.294 18.719 1.186 2 .061 4 .087 6 .063l2.875-.028L403 273v2l2 1-4 1 4 2q-2.656.039-5.312.063l-2.989.035C394 279 394 279 391 278c-2.716-.047-5.41-.043-8.125 0-6.371.051-12.702-.057-19.062-.437l-2.065-.12c-4.295-.275-8.499-.787-12.748-1.443v-2c4.373-1.668 7.977-2.247 12.648-2.23" id="svg-layer-48" style="pointer-events: all;"/><path fill="#527A6C" d="M82 196h5l2 2c2.19.614 4.402 1.146 6.625 1.625 1.189.26 2.377.52 3.602.79.915.192 1.83.386 2.773.585l-2 2 2 4H87v3l-4 2v44h-1z" id="svg-layer-49" style="pointer-events: all;"/><path fill="#4E6E62" d="M63 96h1c2.074 61.638 1.038 123.35 0 185l-2-1q-.046-21.25-.062-42.5l-.003-3.227a7689 7689 0 0 1 .601-103.213Q62.754 113.53 63 96" id="svg-layer-50" style="pointer-events: all;"/><path fill="#4D6D5D" d="M476 240c-2.853 4.28-6.067 4.984-11 6-3.088.152-6.114.13-9.203.008-2.797-.008-2.797-.008-5.137.48-3.656.704-7.267.618-10.973.575l-2.244-.014q-2.722-.02-5.443-.049v-1l18-2c-1-1-1-1-4.379-1.098q-2.091.01-4.183.036l-2.155.013q-2.64.02-5.283.049v-2l3.594-.113c9.596-.371 18.556-1.255 27.89-3.559 4.5-.42 6.553.62 10.516 2.672" id="svg-layer-51" style="pointer-events: all;"/><path fill="#4D6B5C" d="M108 270c3.944 1.69 7.057 3.686 8.73 7.793 1.365 4.735 1.27 8.406.27 13.207-1.777-2.666-2.875-5.028-4-8l-2 1 1 9c-5.875-.875-5.875-.875-7-2-.59-6.784.187-13.449 2-20z" id="svg-layer-52" style="pointer-events: all;"/><path fill="#4E6F5F" d="M447 282c5.75-.125 5.75-.125 8 1v4c-7.232 6.857-17.568 6.323-26.852 6.105L425 293l1-6c2.807-.78 5.42-1.171 8.328-1.316l2.422-.127 2.5-.12 2.547-.13q3.1-.158 6.203-.307z" id="svg-layer-53" style="pointer-events: all;"/><path fill="#E2ECDE" d="M291 173h1q.468 6.03.91 12.06.15 2.05.31 4.097c.154 1.97.297 3.942.44 5.913l.27 3.587c.07 3.343.07 3.343-.403 6.165-.719 4.332-.65 8.568-.625 12.951l.005 2.8c.005 2.934.018 5.868.03 8.802q.008 2.994.014 5.988.017 7.32.049 14.637l-2 1c-1.535-3.07-1.1-6.276-1.062-9.64l.011-2.303c.016-3.254.044-6.507.072-9.76q.026-3.562.041-7.125l.026-2.207c.02-4.107-.32-7.934-1.088-11.965-.112-2.678-.046-5.317 0-8l-2-1v7h-1a491 491 0 0 1-.562-4.375l-.317-2.46C285 197 285 197 286 195l3 1z" id="svg-layer-54" style="pointer-events: all;"/><path fill="#4D6C5C" d="m237 431 3 1c1.975-.089 3.946-.245 5.914-.434 9.488-.76 18.949-.675 28.461-.628q2.722.008 5.445.013 6.59.017 13.18.049l-1 2c-2.717.906-4.392 1.142-7.193 1.19l-2.549.05-2.746.041-2.837.056q-4.492.088-8.988.163-5.9.103-11.8.219l-2.728.04c-4.495.09-8.727.413-13.159 1.241-2.555-.121-2.555-.121-4.875-.437l-2.367-.31L231 435v-2h6z" id="svg-layer-55" style="pointer-events: all;"/><path fill="#D9E5D7" d="M230 231c2.408 2.408 3.008 4.422 4.125 7.625l1.07 3.04L236 244v-5h2c1.125 3.75 1.125 3.75 0 6l4 1c2.48 11.522 2.48 11.522 1 17l-4-2v2h2v14l-2 1-.228-2.029a2172 2172 0 0 0-1.084-9.284l-.358-3.189c-1.038-8.647-2.845-16.814-6.018-24.935C230 235 230 235 230 231" id="svg-layer-56" style="pointer-events: all;"/><path fill="#4D6D5D" d="m108 331 3 1c.563 1.938.563 1.938 1 4l2 2v3l2 1c2.554 5.766 4.392 11.91 6 18l.633 2.098c.556 1.941.97 3.922 1.367 5.902l-2 3v-2h-2l-1.375-3.437C117 362 117 362 115 361c-2.12-5.172-3.016-10.659-4.062-16.125l-1.036-5.32-.453-2.36A124 124 0 0 0 108 331" id="svg-layer-57" style="pointer-events: all;"/><path fill="#4D6C5C" d="M393 351c-1.557 1.84-2.462 2.894-4.868 3.367l-2.122-.01c-.4 0-.4 0-2.42.009l-2.613-.038-2.72-.006a788 788 0 0 1-5.714-.04c-2.872-.032-5.744-.042-8.617-.048-9.685-.041-19.283-.262-28.926-1.234l1-2q9.525-.255 19.05-.482 3.233-.08 6.467-.166 4.672-.123 9.346-.23l2.877-.083c6.487-.141 12.813.247 19.26.961" id="svg-layer-58" style="pointer-events: all;"/><path fill="#496157" d="M383 505c34.68-.152 69.329.251 104 1v1H382z" id="svg-layer-59" style="pointer-events: all;"/><path fill="#E2ECDE" d="M390 141c1.938.375 1.938.375 4 1 1.997 3.994.936 8.772 0 13-1.633 3.05-3.64 5.486-6 8l-2.25 2.5C384 167 384 167 382 167l-1 2c1.324-6.629 3.217-12.753 5.625-19.062l.984-2.624q1.188-3.16 2.391-6.314M162.816 49.676C165 50 165 50 167.527 49.918c2.745.091 4.072.825 6.473 2.082 2.36.414 2.36.414 4.75.625l2.422.227L183 53c-3.76 2.507-6.712 2.271-11.062 2.23h-2.387a888 888 0 0 1-4.993-.024c-2.548-.018-5.096-.02-7.644-.02l-4.851-.018-2.311-.003c-3.178-.029-5.715-.153-8.752-1.165v-2c7.432-1.895 14.164-3.558 21.816-2.324" id="svg-layer-60" style="pointer-events: all;"/><path fill="#4D6E5E" d="M393 450v4a869 869 0 0 1-5.02 2.137c-1.77.771-3.503 1.625-5.23 2.488-4.807 1.763-9.617 2.554-14.75 2.375l-2-2c2.586-3.239 5.226-3.793 9.188-4.687l3.292-.762L381 453l-3-3c4.631-1.158 10.616-2.192 15 0" id="svg-layer-61" style="pointer-events: all;"/><path fill="#547F71" d="M116 77a74.5 74.5 0 0 1 10.25 4c4.783 2.184 9.578 3.18 14.75 4v2h2v-2l9 1-2 2c15.462 2.708 31.545 3.344 47.219 2.898C200 91 200 91 202 93c-20.757.38-41.763.095-62-5l-2.618-.642a553 553 0 0 1-8.632-2.233l-2.784-.704c-6.484-1.805-6.484-1.805-9.075-5.116z" id="svg-layer-62" style="pointer-events: all;"/><path fill="#4D6C5D" d="M250.206 405.773h3.215l3.466.032 3.552.008c3.75.011 7.499.037 11.248.062q3.81.016 7.62.027 9.346.034 18.693.098l-1 2c-5.778 1.35-12.005 1.149-17.91 1.133l-2.46.003q-2.553 0-5.105-.006-3.876-.005-7.754.007-2.496 0-4.994-.004l-2.308.006c-4.904-.021-9.613-.447-14.469-1.139 3.326-2.217 4.336-2.245 8.206-2.227" id="svg-layer-63" style="pointer-events: all;"/><path fill="#4D6C5C" d="m487 128-1 2a110 110 0 0 1-6.437 1.813c-7.659 2.063-14.09 5.093-20.868 9.18-7.346 4.407-14.16 7.506-22.695 9.007l-1-2 3.07-1.207 4.055-1.606 2.016-.79c10.299-4.09 10.299-4.09 14.171-7.334 4.26-3.27 9.241-6.063 14.688-6.063v-2c4.672-1.206 9.215-1.094 14-1" id="svg-layer-64" style="pointer-events: all;"/><path fill="#4D6C5D" d="M212 243c1.658 2.486 2.466 4.127 3.375 6.875 1.013 2.83 1.81 4.353 3.75 6.75 2.235 2.831 2.415 4.85 2.875 8.375l2 3a70 70 0 0 1 1.438 4.063l.765 2.375c1.3 4.177 2.562 8.365 3.797 12.562h-4l-.55-1.828-.762-2.422-.739-2.39C223 278 223 278 221.537 276.15c-1.658-2.32-2.328-4.182-3.072-6.923l-.764-2.75-.763-2.852-1.536-5.586-.723-2.655c-.556-1.952-1.198-3.88-1.863-5.798C212 247 212 247 212 243" id="svg-layer-65" style="pointer-events: all;"/><path fill="#4E6E62" d="M63 428h2q.219 7.995.427 15.991.072 2.706.146 5.41c.293 10.714.497 21.411.365 32.129-.03 3.996.19 7.55 1.062 11.47-.437 2.813-.437 2.813-1 5h-1c-1.156-5.297-1.36-10.47-1.562-15.875l-.13-3.328c-.57-16.924-.393-33.866-.308-50.797" id="svg-layer-66" style="pointer-events: all;"/><path fill="#1A2721" d="M76 384h2c1.125 6.75 1.125 6.75 0 9h2v2h-2l.492 2.52c.55 3.768.64 7.36.633 11.168l.008 3.949C79 416 79 416 78 419l2 1-1 4h-2c-2.109-4.293-2.278-8.2-2.23-12.89v-2.259q.006-2.35.024-4.7c.019-2.407.02-4.814.02-7.221q.007-2.286.018-4.57l.003-2.191c.049-5.053.049-5.053 1.165-6.169" id="svg-layer-67" style="pointer-events: all;"/><path fill="#4B645B" d="M558 172h2v80c-2.083-4.167-2.273-6.94-2.227-11.43v-2.249c0-2.445.016-4.89.032-7.337l.008-5.094c.008-4.465.028-8.93.05-13.395.02-4.558.03-9.117.04-13.675.02-8.94.055-17.88.097-26.82" id="svg-layer-68" style="pointer-events: all;"/><path fill="#4D6C5E" d="M411 337c6.367.367 6.367.367 9.438 3.438C422 343 422 343 422 345c-11.753 4.952-11.753 4.952-18 3-1.937-1.562-1.937-1.562-3-3l1-2c2.723-.633 2.723-.633 6.063-1.125l3.347-.508L414 341l-7-1 4-1z" id="svg-layer-69" style="pointer-events: all;"/><path fill="#303730" d="M557 161h1q.266 15.399.495 30.797.104 7.15.229 14.3.119 6.896.214 13.79.039 2.636.088 5.271c.046 2.454.08 4.908.11 7.363l.05 2.217c.014 1.755-.076 3.51-.186 5.262l-2 2c-.823-5.023-1.147-9.891-1.133-14.984l-.004-2.309a1994 1994 0 0 1 .012-7.457l.003-2.574c.021-17.903.489-35.786 1.122-53.676" id="svg-layer-70" style="pointer-events: all;"/><path fill="#1A2721" d="m77 424 3 1q.037 6.43.055 12.86.008 2.184.02 4.367a562472240006682.44 562472240006682.44 0 0 1 .038 10.132c-.112 3.618-.532 7.072-1.113 10.641l-3 1v-30h2v-2h-2q-.061-3.5 0-7z" id="svg-layer-71" style="pointer-events: all;"/><path fill="#537E70" d="M84 142h2v2q2.937.502 5.875 1l3.305.563C98 146 98 146 100 146v2l7 1-2 1-1 3c-6.993.268-13.175-.44-20-2z" id="svg-layer-72" style="pointer-events: all;"/><path fill="#496157" d="m550 504 1 2c-3.229 1.076-5.545 1.12-8.94 1.114h-3.7l-3.997-.016-4.09-.005q-5.377-.006-10.756-.024-5.49-.014-10.98-.02Q497.77 507.033 487 507l1-2 32.27-.573 11.773-.208 3.7-.067 3.457-.06 3.035-.054c2.589-.036 5.176-.045 7.765-.038" id="svg-layer-73" style="pointer-events: all;"/><path fill="#4E6E62" d="M63 281h1v64c-2-2-2-2-2.247-4.55l.004-3.26-.01-3.691.023-4.003v-4.087q.003-4.284.024-8.567c.017-3.668.021-7.335.02-11.003q.001-4.22.013-8.439l.006-4.058c.002-1.887.012-3.774.022-5.66l.011-3.26C62 282 62 282 63 281" id="svg-layer-74" style="pointer-events: all;"/><path fill="#547E70" d="M539 174h1v125h-1z" id="svg-layer-75" style="pointer-events: all;"/><path fill="#4B655B" d="M537 49h2v118h-1z" id="svg-layer-76" style="pointer-events: all;"/><path fill="#E0EBDD" d="m410.445 228.734 3.762-.007 3.918.023 3.941-.023 3.754.007 3.446.007C432 229 432 229 434 231v2l-2.52-.035-3.293-.028-3.269-.035C422 233 422 233 419 234l-3-1a353 353 0 0 0-7-1v2h-10c1-3 1-3 2.66-4.17 3.02-1.07 5.582-1.09 8.785-1.096" id="svg-layer-77" style="pointer-events: all;"/><path fill="#4E6E62" d="M63 345h1q.266 15.79.495 31.58.104 7.331.229 14.662.119 7.071.214 14.142.039 2.7.088 5.404c.046 2.516.08 5.033.11 7.55l.05 2.273c.014 1.797-.076 3.595-.186 5.389l-2 2c-1.096-52.456-1.096-52.456-1.125-70.75l-.014-3.538.006-3.134.004-2.643C62 346 62 346 63 345" id="svg-layer-78" style="pointer-events: all;"/><path fill="#4D6C5C" d="m424 218 2.172.498c2.783.494 5.253.586 8.074.53l3.02-.042 3.171-.048c9.07-.083 17.64.303 26.563 2.062l-1 2c-14.074.383-27.986-.794-42-2z" id="svg-layer-79" style="pointer-events: all;"/><path fill="#4D6E5E" d="M153 203c7.351 2.205 7.351 2.205 10.5 6.063C165 212 165 212 165 214a159 159 0 0 0 6 5c-2.914 1.943-5.858 3.464-9 5l-.148-1.977c-.424-4.956-1.009-9.353-2.852-14.023h-3l-1 3-4-4z" id="svg-layer-80" style="pointer-events: all;"/><path fill="#4D6C5C" d="M269 136c2 3 2 3 1.758 5.2l-.633 2.488c-.74 3.245-1.259 6.17-1.187 9.5.062 3.812.062 3.812-.399 7.023-.58 4.08-.872 8.115-1.101 12.226l-.131 2.217q-.157 2.673-.307 5.346c-2.767-2.767-2.258-4.423-2.266-8.293l-.007-3.85.012-2.013c.01-2.006 0-4.012-.012-6.018l.007-3.869.007-3.532c.434-5.741 2.408-11.005 4.259-16.425" id="svg-layer-81" style="pointer-events: all;"/><path fill="#1A2721" d="M76 352h2c.558 7.763 1.074 15.53 1.25 23.313l.078 3.113C79 381 79 381 77.484 382.856L76 384v-3h-2v-7h2l-2-3c.29-1.343.634-2.675 1-4 .044-2.395.04-4.792 0-7.187-.037-2.271-.047-4.543 0-6.813z" id="svg-layer-82" style="pointer-events: all;"/><path fill="#547F71" d="M554 41c7.075 10.612 4.711 32.02 3 44l-2-1z" id="svg-layer-83" style="pointer-events: all;"/><path fill="#4D6C5C" d="m360 339 1 2 1.504-.988c3.461-1.403 6.761-1.266 10.433-1.2l2.275.024c18.357.277 18.357.277 24.788 3.164l-1 3-2.992-.974c-4.023-1.145-7.965-1.372-12.13-1.44l-2.256-.059c-2.353-.059-4.706-.106-7.06-.152l-4.818-.117q-5.872-.142-11.744-.258l2-1z" id="svg-layer-84" style="pointer-events: all;"/><path fill="#E0EADC" d="m272 313 4 1 1 5h2v-2l5 2v2l-19 3c1.98-4.95 3.588-7.14 7-11" id="svg-layer-85" style="pointer-events: all;"/><path fill="#4D6C5D" d="M395 393v2c-19.275 2.292-37.615 3.859-57 2v-1l2.516-.06c27.995-.703 27.995-.703 39.402-2.53 5.024-.668 10.025-.58 15.082-.41" id="svg-layer-86" style="pointer-events: all;"/><path fill="#496157" d="M312 505c23.342-.211 46.667.426 70 1v1q-12.804.07-25.609.104-5.945.014-11.891.047-5.738.032-11.476.039-2.19.005-4.378.021c-2.045.015-4.089.017-6.133.016l-3.526.014c-2.894-.233-4.545-.73-6.987-2.241" id="svg-layer-87" style="pointer-events: all;"/><path fill="#557F71" d="M198 171c1.89 3.78.988 8.72.873 12.908-.08 5.67.739 10.613 2.127 16.092q.742 3.212 1.473 6.426l2.404 10.42.783 3.392.707 3.064C207 226 207 226 207.71 228.235L208 230l-2 2c-5.949-19.748-10.336-39.256-9-60z" id="svg-layer-88" style="pointer-events: all;"/><path fill="#4B645B" d="M555 235h2c.206 32.72.206 32.72-1 45h-1z" id="svg-layer-89" style="pointer-events: all;"/></svg>