<svg xmlns="http://www.w3.org/2000/svg" viewBox="0 0 720 536"><path fill="none" d="M0 0h720v536H0zm611.877 14.728-3.06.49-3.32.548-3.52.573a3507 3507 0 0 0-9.543 1.578l-3.998.665c-27.178 4.512-54.156 9.836-81.15 15.342-12.309 2.503-24.646 4.833-37.002 7.091l-5.182.948-2.726.498q-8.102 1.484-16.196 3.003a3459 3459 0 0 1-73.106 12.903l-2.062.342a30524 30524 0 0 1-35.635 5.875q-11.673 1.918-23.343 3.85-6.859 1.134-13.72 2.255l-7.163 1.186-3.206.519c-20.02 3.34-20.02 3.34-24.695 7.293-7.128 10.165-1.022 31.215.63 42.498.498 3.4.978 6.804 1.456 10.208q.467 3.275.937 6.548l.433 3.053c.76 5.153 1.717 10.04 3.294 15.006l-3.879.8c-5.137 1.145-10.077 2.7-15.058 4.387l-2.754.928c-31.723 10.805-56.946 23.262-76.996 50.822l-1.834 2.504c-4.38 5.999-8.67 12.057-12.937 18.136C135.462 264.548 113.006 295.35 83 317l-1.655 1.2C73.47 323.876 65.298 328.976 57 334q-2.19 1.37-4.375 2.75a190 190 0 0 1-7.562 4.5C42 343 42 343 41 344c-.125 3-.125 3 0 6l1 1c33.091-2.348 68.42-38.67 89-62 8-9.417 8-9.417 8-12h2a164 164 0 0 0 5.313-7.375q1.629-2.35 3.261-4.7l1.709-2.466c2.734-3.916 5.537-7.781 8.342-11.647a2865 2865 0 0 0 11.563-16.062l1.215-1.7q3.064-4.286 6.085-8.605c13.816-19.69 13.816-19.69 19.801-24.152L200 199v-2l1.717-.328c2.627-.773 4.512-1.942 6.814-3.422 5.447-3.342 11.059-5.845 16.969-8.25l3.17-1.303c13.505-5.484 27.278-9.856 41.33-13.697 1.007 4.39 1.379 8.786 1.719 13.266l.19 2.402q.3 3.791.591 7.582l.59 7.539q.186 2.34.365 4.678c.407 5.192.949 10.36 1.545 15.533l-9 1-1 3-1.59.297a295 295 0 0 0-13.877 3.02c-9.566 2.328-19.196 4.193-28.887 5.932l-3.263.603-2.925.525C212 236 212 236 209 238c-.405 4.114-.262 7.032.813 11 3.179 2.907 5.922 2.517 10.105 2.469 3.197-.487 5.92-1.53 8.928-2.683 3.257-1.188 6.588-2.076 9.94-2.95l2.198-.586q2.33-.62 4.66-1.236c12.922-3.415 25.79-6.968 38.606-10.764 12.478-3.687 25.026-6.873 37.72-9.729C324 223 324 223 326 222v2h9l1-2a122 122 0 0 1 8.063-1.625l2.298-.406c1.879-.331 3.759-.651 5.639-.969-1.177 5.892-3.223 8.844-7.937 12.625l-1.853 1.533C326.752 245.688 309.143 257.713 291 266v-3h-6l.5 2.688c-.5 3.312-.5 3.312-2.281 4.753a97 97 0 0 1-4.469 2.48c-.577.357-1.155.712-1.75 1.079v2l-1.781.82c-6.354 3.378-11.402 9.27-16.469 14.305l-1.537 1.523C249 300.896 249 300.896 249 304h-2a80 80 0 0 0-3.75 4.563c-2.508 3.226-5.037 6.382-7.75 9.437-2.5 3-2.5 3-2.5 5l-1.687.688c-2.971 1.686-4.921 3.866-7.313 6.312-6.485 6.469-14.023 10.68-22 15l-3.348 1.84A1174 1174 0 0 1 191 351c-.125 3.375-.125 3.375 0 7l2 2c6.57-.195 11.448-2.237 17.188-5.312l2.526-1.35c7.195-4.003 12.927-8.762 18.637-14.646a332 332 0 0 1 5.532-5.508c5.653-5.554 11.262-11.12 16.39-17.168 3.678-4.294 7.529-8.436 11.382-12.572a870 870 0 0 0 3.665-3.967c4.635-4.868 9.428-8.521 15.2-11.97 2.278-1.384 4.378-2.87 6.48-4.507l.148 1.977c.662 7.738 2.783 13.951 5.852 21.023l1 3-3.75.688c-6.07 1.347-11.594 3.776-17.25 6.312l-2.121.898c-18.726 8.487-31.439 25.836-43.192 41.977l-1.933 2.652a114 114 0 0 0-3.227 4.79c-5.253 7.945-12.614 9.216-21.464 11.495C176.977 384.838 154.96 397.533 135 417l-1.521 1.475c-5.121 4.984-10.092 10.064-14.737 15.498-2.043 2.377-4.14 4.702-6.242 7.027a701 701 0 0 0-9.797 11.059 184 184 0 0 1-3.656 4.039l-1.922 2.09-1.742 1.855c-1.627 2.303-2.01 4.187-2.383 6.957 3 2 3 2 5.336 1.93 3.484-1.216 5.694-3.282 8.289-5.805l1.642-1.557A593 593 0 0 0 114 456l2.394-2.348q3.844-3.785 7.668-7.59l2.49-2.474c3.708-3.72 7.261-7.4 10.448-11.588a279 279 0 0 1 5-5l1.898-2c19.376-20.145 42.717-28.956 69.281-35.465 10.252-2.605 14.27-6.728 20.196-15.223q1.737-2.444 3.477-4.886l1.66-2.342c4.729-6.626 9.865-12.733 15.363-18.732 1.798-1.99 3.5-4.02 5.188-6.102C269.248 330.472 285.22 324.51 300 321l.162 1.886a152 152 0 0 0 2.463 16.676c2.048 10.41 3.849 20.855 5.625 31.313l.443 2.603q2.467 14.492 4.893 28.992 1.069 6.37 2.143 12.74.515 3.07 1.026 6.14c5.345 32.174 5.345 32.174 13.058 38.025 7.598 2.171 16.098-.213 23.656-1.55q2.074-.36 4.147-.717 4.53-.783 9.056-1.576 7.428-1.299 14.861-2.582l2.618-.452 5.372-.928q4.202-.727 8.405-1.455c14.936-2.585 29.88-5.123 44.826-7.646l17.577-2.969c41.924-7.08 83.823-14.285 125.69-21.695q6.771-1.199 13.542-2.395l2.596-.459a3346 3346 0 0 1 50.745-8.57c8.196-1.325 16.363-2.756 24.502-4.397l2.393-.464c5.624-1.17 9.57-2.712 13.514-7.082 3.493-7.117 1.579-15.662.386-23.27l-.448-2.956c-.511-3.343-1.037-6.684-1.563-10.024l-.562-3.606c-3.013-19.315-6.31-38.58-9.673-57.836l-.616-3.527c-2.063-11.812-4.137-23.621-6.23-35.427-4.229-23.856-8.315-47.722-11.986-71.67l-.488-3.183c-2.164-14.156-4.194-28.33-6.163-42.515-2.705-19.485-5.77-38.9-9.033-58.299l-.611-3.678c-2.194-13.146-4.587-26.236-7.385-39.267l-.707-3.396c-1.509-6.818-3.3-14.388-9.234-18.784-6.214-3.107-10.409-3.36-17.123-2.272M261.563 205.875l-2.372.492C257 207 257 207 254 209c-.582 2.68-.582 2.68-.812 5.875l-.27 3.18c.082 2.96.531 4.466 2.082 6.945h4v-13l6.152.879L267 213c1-1 1-1 1.063-4.562L268 205c-2.264 0-4.223.402-6.437.875" id="svg-layer-0" style="pointer-events: all; fill: none;"/><path fill="#B67E64" d="M453 104c5.305 1.477 8.304 4.962 12 8.813l1.828 1.869q1.776 1.816 3.544 3.642c2.185 2.25 4.408 4.46 6.628 6.676l2.07 2.14c5.623 5.773 11.604 10.877 17.93 15.86l2.957 2.367c23.377 18.408 48.941 31.984 76.072 43.971C591.22 196.07 605.685 203.568 620 212q2.163 1.249 4.328 2.496 1.806 1.061 3.61 2.129c.999.59 1.998 1.18 3.027 1.79L633 220c0 3 0 3-2.344 5.453q-1.567 1.41-3.156 2.797l-1.678 1.5a823 823 0 0 1-8.635 7.563C604.42 248.4 591.95 260.102 581 273l-2.418 2.754C548.672 310.058 526.962 350.474 509 392c-3 0-3 0-5.016-1.906l-2.234-2.594-2.422-2.777L497 382c-8.61-10.027-17.677-18.705-28.222-26.658a540 540 0 0 1-4.876-3.737c-25.926-19.372-56.694-33.447-85.87-47.218-7.073-3.34-14.052-6.86-21.032-10.387-27.897-14.093-27.897-14.093-34.246-15.95-3.144-1.199-4.021-2.122-5.692-4.988l-1.277-2.09C315 269 315 269 316 266c2.186-1.635 2.186-1.635 5.074-3.406l3.194-1.989 1.694-1.041c31.741-19.567 31.741-19.567 36.886-31.959 3.74-7.582 10.005-12.953 16.027-18.73q3.471-3.373 6.93-6.758l1.674-1.632c4.065-3.982 7.89-8.099 11.521-12.485l1.536-1.82c20.395-24.302 36.524-50.313 50.272-78.83C452 105 452 105 453 104" id="svg-layer-1" style="pointer-events: all;"/><path fill="#302522" d="m626 15.625 1.938.914c6.95 4.924 8.375 10.874 10.101 18.856l.762 3.35c2.514 11.256 4.615 22.579 6.574 33.943l.57 3.26c4.889 28.04 8.956 56.202 12.954 84.38 6.005 42.304 13.316 84.355 20.708 126.434 9.306 52.982 9.306 52.982 12.956 76.863l.39 2.513c3.413 22.08 3.413 22.08.36 28.3-3.956 4.382-7.84 5.921-13.567 7.035l-3.922.769q-2.193.412-4.386.82l-2.344.447c-16.418 3.129-32.907 5.833-49.398 8.543-23.526 3.868-47.007 7.967-70.483 12.122a11647 11647 0 0 1-107.09 18.429l-10.889 1.823-2.688.45a6259 6259 0 0 0-36.865 6.288q-3.76.653-7.522 1.305a8265 8265 0 0 0-20.94 3.65q-3.16.554-6.32 1.101-3.798.659-7.592 1.333c-15.024 2.588-15.024 2.588-20.557-.178-6.283-5.426-7.584-10.699-8.898-18.633l-.54-3.042a1561 1561 0 0 1-1.687-9.825l-1.19-6.817A3973 3973 0 0 1 313 400l-.474-2.798a5301 5301 0 0 1-4.52-27.111c-1.219-7.411-2.482-14.814-3.756-22.216l-.603-3.52c-.995-5.768-2.053-11.508-3.289-17.23C300 325 300 325 300 321c-20.297 5.713-35.296 13.538-49 30l-2.445 2.855c-4.302 5.048-8.324 10.138-11.934 15.711a236 236 0 0 1-6.559 9.309l-1.197 1.697c-5.888 7.855-15.678 8.78-24.678 11.115-24.982 6.65-46.632 17.46-63.558 37.461-1.99 2.263-4.273 3.98-6.629 5.852a158 158 0 0 0-2.996 3.453c-4.6 5.311-9.539 10.266-14.504 15.235l-2.762 2.798C109.095 461.14 104.632 465.57 99 469c-2.937-.187-2.937-.187-5-1-.687-1.73-.687-1.73-1-4 1.188-2.113 1.188-2.113 3-4.312l1.969-2.391c2.33-2.636 4.763-5.115 7.289-7.563 2.42-2.41 4.629-4.98 6.86-7.566 2.856-3.29 5.788-6.51 8.71-9.742a325 325 0 0 0 5.422-6.238c24.16-27.556 52.725-41.958 87.867-51.231 4.506-1.496 7.825-3.364 10.57-7.27l1.536-2.136a4336 4336 0 0 0 3.96-5.696C236.3 351.108 242.862 342.935 250 335l2.082-2.34c8.208-8.726 17.87-14.521 28.793-19.16l2.413-1.025c4.602-1.864 8.768-3 13.712-3.475q-.676-2.19-1.375-4.375l-.773-2.46C294 300 294 300 292 298c-.633-1.953-.633-1.953-1.125-4.25l-.508-2.266c-.422-2.854-.425-5.602-.367-8.484-13.999 9.41-26.144 20.037-37.156 32.867-13.759 15.916-27.518 31.301-46.656 40.57l-2.213 1.076c-6.833 3.168-6.833 3.168-10.975 2.487-2-2-2-2-2.125-5.625L191 351l1.877-.99c2.858-1.516 5.71-3.044 8.56-4.572l2.952-1.557c6.381-3.436 12.034-7.26 17.611-11.881l1.773-1.403c2.876-2.305 5.043-4.65 7.227-7.597h2l.652-1.586c1.888-3.382 4.373-6.127 6.91-9.039 5.318-6.135 5.318-6.135 6.438-8.375h2l.754-1.715c5.004-9.177 16.476-20.52 25.246-26.285h2v-2a64 64 0 0 1 4-2.25c2.219-1.309 2.219-1.309 4-2.75.5-3.312.5-3.312 0-6h6v3c8.662-4.416 16.879-9.338 25.023-14.647 3.966-2.56 7.92-4.876 12.168-6.939 4.067-1.98 7.487-4.142 11.059-6.914l3.04-2.352L345 233l2.023-1.586c3.853-3.101 5.993-5.771 7.102-10.601L355 217c-3.817.477-7.467 1.078-11.187 2.063C340 220 340 220 336 220l-1 4h-9v-2l-2.813.752a4028 4028 0 0 1-18.738 4.967c-16.973 4.462-33.856 9.204-50.718 14.068l-5.133 1.479-2.483.715c-6.455 1.852-12.937 3.58-19.441 5.248C224 250 224 250 223 251c-3.71.423-7.295.476-11 0-2.983-2.727-3.17-5.312-3.375-9.187L209 238c4.058-2.706 8.003-3.182 12.75-4.062l2.888-.55c5.218-.952 10.236-1.578 15.55-1.7 11.573-.49 22.755-4.478 33.812-7.688l4.281-1.223L281 222h-4l-.402-1.934-.536-2.504-.527-2.496C275 213 275 213 274 212c-.29-2.675-.524-5.333-.719-8.016l-.19-2.448q-.3-3.892-.591-7.786-.292-3.871-.59-7.743-.188-2.412-.365-4.825c-.292-3.794-.686-7.472-1.545-11.182-17.623 5.175-34.898 10.789-51.75 18.125l-2.202.947c-3.583 1.6-6.723 3.324-9.876 5.67C203 197 203 197 200 197l-.687 1.75C198 201 198 201 195.797 202.66c-3.548 2.968-6.101 6.336-8.86 10.028l-1.714 2.269C179.3 222.844 173.639 230.91 168 239a3515 3515 0 0 1-5.875 8.375l-1.46 2.076c-4.64 6.566-9.41 13.033-14.21 19.482l-1.717 2.313-1.53 2.053C142 275 142 275 141 277h-2l-.746 1.68C132.609 289.125 122.57 298.847 114 307l-1.82 1.77c-16.215 15.225-44.696 40.449-68.055 42.48C42 351 42 351 41 350c-.375-2.812-.375-2.812 0-6 2.573-2.734 5.155-4.075 8.531-5.71C69.928 328.17 88.73 313.837 105 298l1.676-1.614C114.003 289.313 120.7 282.017 127 274q1.379-1.696 2.762-3.387c7.218-8.854 13.96-18 20.588-27.301 2.744-3.844 5.51-7.672 8.275-11.5l1.63-2.255L165 223l1.51-2.084c21.92-30.229 43.387-43.965 78.303-56.603l3.18-1.154C265.16 157 265.16 157 270 157c-.18-.685-.36-1.37-.544-2.077-2.436-9.85-3.883-19.777-5.246-29.824-.396-2.897-.81-5.792-1.224-8.687-1.177-8.42-2.26-16.857-2.537-25.361l-.134-3.647c.937-4.655 3.153-7.288 6.685-10.404 2.788-1.086 4.852-1.691 7.732-2.16l2.345-.45c2.636-.495 5.278-.944 7.923-1.39l5.907-1.045c5.568-.971 11.144-1.895 16.722-2.807a5520 5520 0 0 0 11.298-1.86 20586 20586 0 0 1 22.113-3.643C378.762 57.448 416.435 51.095 454 44l2.93-.553c13.416-2.529 26.826-5.085 40.234-7.654q5.756-1.102 11.512-2.2 7.068-1.35 14.137-2.702l2.743-.525a2692 2692 0 0 0 31.022-6.112c11.279-2.288 22.607-4.217 33.968-6.05 3.274-.528 6.546-1.066 9.817-1.604l6.309-1.026 2.932-.483 2.727-.436 2.376-.385c4.205-.495 7.465-.544 11.293 1.355m-10.904 10.182-3.12.539-3.41.595-3.538.615q-5.733 1-11.466 2.006l-3.94.69c-18.58 3.26-37.106 6.71-55.583 10.513-47.096 9.68-94.526 17.653-141.906 25.79l-7.708 1.325q-7.383 1.27-14.766 2.531a2623 2623 0 0 0-37.937 6.789c-9.58 1.785-19.174 3.479-28.782 5.113q-3.947.674-7.893 1.355l-5.149.879-2.32.4c-5.18.876-10.353 1.51-15.578 2.053-.142 6.883.372 13.488 1.25 20.313l.398 3.152c1.21 9.189 2.92 18.238 4.919 27.285 1.364 7.085 1.624 13.926 1.714 21.133l.056 3.431c.078 4.826.146 9.651.215 14.477q.08 5.295.167 10.592l.04 3.302c.01.509.01.509.052 3.085l.038 2.702c.155 2.588.583 5 1.151 7.528h1l1-13c1.89 5.787 2.593 11.386 3.125 17.438l.262 2.794q.315 3.384.613 6.768h-2l1 3c7.343-1.6 14.653-3.327 21.96-5.087q2.996-.72 5.995-1.434l3.822-.92 3.477-.835C325 212 325 212 327 211c5.214-.83 9.837-1.192 15 0q2.25-.002 4.5-.062c3.656-.055 6.157.489 9.5 2.062h3c.713 2.991 1.368 5.99 2 9l.496 2.168c.648 3.455.632 5.546-.808 8.77C352.458 243.205 340.93 250.003 330 257l-2.266 1.462q-3.204 2.061-6.421 4.1l-1.923 1.229c-3.017 1.887-5.76 3.355-9.097 4.674-3.712 1.73-5.272 2.984-7.293 6.535-.277 3.207-.277 3.207.063 6.813l.182 1.97c.988 9.685 2.657 19.245 5.817 28.467 4.863 15.07 4.34 32.06 4.938 47.75h1l1-5c.654 3.123 1.297 6.249 1.938 9.375.09.435.09.435.552 2.637 2.039 10.006 2.677 19.923 3.072 30.113l.131 3.188q.157 3.843.307 7.687h1l1-8 .351 1.728q.789 3.855 1.587 7.71l.552 2.72.537 2.588.492 2.396C328 419 328 419 329 420c.357 1.812.66 3.635.938 5.46l.523 3.368.539 3.547q.528 3.45 1.063 6.898l.472 3.107C333 445 333 445 334 448c7.828.32 15.018-.902 22.691-2.379l4.008-.75a2831 2831 0 0 0 8.476-1.6q6.63-1.259 13.263-2.496l2.221-.415 4.428-.827q3.304-.617 6.607-1.237A2868 2868 0 0 1 430.375 432l2.433-.425a995 995 0 0 1 30.987-4.882c29.031-4.213 57.949-9.545 86.725-15.228 28.172-5.555 56.46-10.46 84.82-14.944l10.227-1.62q6.782-1.076 13.565-2.135l6.302-.996c.962-.15 1.924-.298 2.916-.451 5.017-.8 9.8-1.8 14.65-3.319.149-6.459-.355-12.444-1.434-18.805l-.464-2.837c-.505-3.08-1.022-6.156-1.54-9.233l-1.079-6.512c-4.779-28.73-9.79-57.427-15.17-86.05-5.978-31.835-10.859-63.892-15.745-95.91a6228 6228 0 0 0-14.683-91.485 3536 3536 0 0 1-1.118-6.713C625.332 31.664 625.332 31.664 622 25c-2.383 0-4.553.4-6.904.807" id="svg-layer-2" style="pointer-events: all;"/><path fill="#EAE5D8" d="M622 25c4.07 12.247 6.14 24.867 8.354 37.554.637 3.647 1.285 7.293 1.935 10.938 2.643 14.914 5.046 29.855 7.305 44.831.845 5.566 1.75 11.121 2.656 16.677l1.622 10.016c1.488 9.2 2.958 18.402 4.43 27.605l1.545 9.643c1.569 9.79 3.132 19.581 4.667 29.377 3.547 22.64 7.289 45.215 11.554 67.732 3.395 17.934 6.478 35.915 9.479 53.918q.715 4.27 1.436 8.537a5359 5359 0 0 1 2.478 14.812q.471 2.826.948 5.652c.443 2.62.875 5.242 1.306 7.864l.396 2.315c.846 5.232.997 10.228.889 15.529-10.92 2.832-21.98 4.52-33.116 6.244a2278 2278 0 0 0-61.41 10.396c-6.391 1.17-12.787 2.306-19.185 3.434l-3.023.534q-5.88 1.039-11.76 2.072c-9.55 1.677-19.082 3.408-28.584 5.34-9.128 1.853-18.282 3.498-27.465 5.053q-3.744.636-7.486 1.282c-9.63 1.647-19.272 3.138-28.94 4.536-13.265 1.93-26.446 4.242-39.63 6.656q-5.913 1.082-11.828 2.151a7047 7047 0 0 0-33.81 6.204q-6.097 1.135-12.195 2.261c-2.744.51-5.487 1.03-8.23 1.55q-2.49.464-4.979.924l-2.188.424c-5.117.933-9.97 1.05-15.171.939-2.27-9.138-3.874-18.244-5.187-27.562-3.9-26.87-9.015-53.566-14.229-80.208-1-5.117-1.936-10.237-2.788-15.38-.912-5.497-1.994-10.746-3.796-16.038-3.38-10.231-5.69-22.984-5-33.812 1.875-2.312 1.875-2.312 4-4h2l.81 3.273q1.487 6 2.98 11.998l1.29 5.197q.923 3.732 1.854 7.462l.58 2.355c1.372 5.487 1.372 5.487 2.486 7.715 1.844 1.046 1.844 1.046 4.285 2.18l2.759 1.296 3.019 1.399a930 930 0 0 1 24.625 12c8.857 4.47 17.802 8.724 26.812 12.875 84.733 39.095 84.733 39.095 98.5 70.25.403 2.322.75 4.656 1 7q4.282-.68 8.563-1.375l2.423-.383c4.797-.783 9.369-1.808 14.014-3.242-1.493-5.55-4.196-9.795-7.375-14.5l-1.609-2.39c-15.04-21.953-34.965-37.779-57.936-50.916a803 803 0 0 1-6.908-4.026c-15.024-8.768-30.471-16.518-46.174-23.986A3617 3617 0 0 1 370 308l-1.985-.953a1720 1720 0 0 1-13.28-6.453 667 667 0 0 0-4.388-2.128C324.501 286.04 324.501 286.04 318 276c8.105 1.648 15.077 4.856 22.36 8.625 5.32 2.751 10.729 5.308 16.14 7.875a1217 1217 0 0 1 25.679 12.583c2.342 1.18 4.693 2.34 7.044 3.504C429.706 328.684 429.706 328.684 448 340l2.86 1.703c13.922 8.485 26.452 18.985 38.14 30.297l2.262 2.14c4.709 4.553 8.798 9.499 12.855 14.637C506 391 506 391 508 392l1.066-2.408C528.292 346.245 550.948 305.39 583 270l1.539-1.71c8.977-9.951 18.187-19.811 28.399-28.513 2.588-2.23 5.103-4.534 7.625-6.84A432 432 0 0 1 633 222c-2.957-3.221-5.913-5.282-9.734-7.39l-3.434-1.903-1.79-.978a908 908 0 0 1-5.233-2.89C598.498 200.955 583.806 193.902 569 187c-31.73-14.79-31.73-14.79-42.5-21.75l-2.385-1.525C516.113 158.54 508.492 152.892 501 147l-3.016-2.367c-5.951-4.778-11.583-9.85-17.16-15.055a141 141 0 0 0-5.969-5.168c-2.35-1.983-4.278-3.87-6.23-6.222-2.531-2.953-5.11-5.828-7.812-8.626l-1.918-1.996c-2.033-1.68-3.362-2.025-5.895-2.566l-1.187 2.452c-14.924 30.71-32.335 58.652-55.477 83.966a200 200 0 0 0-3.783 4.276c-5.197 6.07-10.817 11.684-16.49 17.306l-2.94 2.926q-3.558 3.54-7.123 7.074c-1.993-2.99-2.809-4.463-3-8 1.484-2.29 1.484-2.29 3.75-4.625l2.516-2.637c2.733-2.737 5.481-5.458 8.234-8.175 5.265-5.222 9.905-10.753 14.5-16.563q1.383-1.699 2.77-3.395c22.041-27.04 41.49-56.578 53.3-89.597C449 88 449 88 452 86c5.422 5.807 10.769 11.618 15.75 17.813 3.014 3.743 6.124 7.187 9.582 10.519 1.77 1.77 3.368 3.63 4.98 5.543 25.862 29.726 64.906 47.657 99.938 63.688C625.446 203.446 625.446 203.446 639 217c1.666.04 3.334.043 5 0 .253-7.643-.718-14.838-1.937-22.375l-.553-3.559c-1.36-8.619-1.36-8.619-2.51-12.066-2.099-.9-2.099-.9-4.953-1.71-5.314-1.656-10.374-3.61-15.469-5.83l-2.26-.983q-2.333-1.02-4.664-2.045c-4.107-1.806-8.22-3.595-12.334-5.385l-2.454-1.07a1123 1123 0 0 0-19.741-8.352C526.404 132.607 526.404 132.607 507 116l-1.508-1.284C490.355 101.695 475.294 84.306 469 65v-3c-32.534 4.767-32.534 4.767-41 9-.469 1.984-.847 3.99-1.187 6-1.642 8.103-4.508 15.336-7.866 22.87a448 448 0 0 0-2.619 6.04c-10.574 24.099-25.475 47.319-42.762 67.121-2.356 2.726-4.589 5.513-6.816 8.344-21.353 26.193-21.353 26.193-30.848 28.031-1.964.031-1.964.031-4.902-.406 3.766-5.538 8.046-10.146 12.813-14.812C349.668 188.44 354.926 182.455 360 176q2.185-2.627 4.375-5.25c17.881-21.965 33.162-46.555 44.563-72.5.353-.79.707-1.58 1.07-2.395 3.266-7.7 5.098-15.733 6.992-23.855q-11.622 2.019-23.244 4.044l-10.803 1.88C364.28 81.166 345.627 84.496 327 88l-2.257.423q-5.624 1.057-11.243 2.14l-3.183.612C300.854 93.006 291.42 94.968 282 97c1.126 14.964 2.965 29.796 4.965 44.662 1.903 14.168 3.646 28.352 5.335 42.546q.292 2.445.587 4.89l.282 2.348a359 359 0 0 0 2.475 16.79c.38 2.95.416 5.794.356 8.764l-6 1c-1.95-6.126-2.947-12.27-3.875-18.625l-.52-3.507c-1.463-10.202-2.55-20.43-3.605-30.68-1.312-12.737-3.006-25.26-5.534-37.82-2.34-11.887-4.493-23.892-4.473-36.034l.003-2.458L272 87l3.78-.52c13.493-1.878 26.92-4.046 40.345-6.355l6.28-1.074c11.57-1.984 23.127-4.032 34.665-6.203 9.07-1.702 18.153-3.32 27.243-4.91l2.432-.427a6770 6770 0 0 1 34.546-5.94c39.563-6.712 79.1-13.497 118.36-21.835 20.642-4.363 41.447-7.964 62.224-11.611l2.708-.477q3.798-.666 7.597-1.328l2.312-.406C619.769 25 619.769 25 622 25m-17.46 10.371-2.564.477a1707 1707 0 0 0-8.351 1.59l-5.824 1.1c-16.553 3.147-33.037 6.597-49.512 10.127-6.563 1.403-13.142 2.725-19.726 4.023-8.163 1.612-16.306 3.3-24.438 5.062l-2.959.64-2.72.594-2.39.523C484 60 484 60 481 61c.44 13.172 7.94 23.07 16 33l1.98 2.52c20.09 24.052 51.753 36.323 80.145 47.23l6.032 2.337q4.548 1.765 9.098 3.525a2647 2647 0 0 1 19.038 7.443l2.365.935q4.397 1.74 8.792 3.483l5.85 2.316 3.287 1.303C636 166 636 166 637 166c-.424-15.831-2.624-31.361-5-47l-.415-2.742C627.448 89.012 622.962 61.912 617 35c-4.362-1.314-8.076-.478-12.46.371m38.253 191.676c-10.891 7.12-21.019 15.11-30.582 23.93-1.944 1.779-3.935 3.464-5.961 5.148C563.415 293.497 526.843 353.237 516 409c7.88-.356 15.953-1.293 23-5 3.044-3.73 4.62-7.772 6.313-12.25q1.491-3.563 2.988-7.125l1.405-3.477c1.6-3.891 3.379-7.654 5.294-11.398l.938-1.848A776 776 0 0 1 559 362l1.262-2.432c20.201-38.707 47.041-76.372 79.988-105.38l1.918-1.692C644 251 644 251 645.863 249.848c1.7-1.098 1.7-1.098 4.137-3.848.274-3.774-.339-7.29-1-11a416 416 0 0 1-.562-4.687L648 227c-3-1-3-1-5.207.047M649 262c-13.235 8.777-13.235 8.777-18.414 14.348-1.66 1.729-3.42 3.197-5.274 4.714-6.14 5.31-11.181 11.679-16.312 17.938l-2.43 2.953C597.98 312.771 590.505 324.416 583 336l-1.372 2.117C569.075 357.719 557.461 379.286 552 402a711 711 0 0 0 39.061-6.024 1518 1518 0 0 1 25.564-4.413 3468 3468 0 0 0 31.544-5.355l4.489-.779q3.138-.544 6.276-1.097l3.626-.634c3.561-.723 6.962-1.655 10.44-2.698-.55-11.117-1.823-22.002-3.5-33l-.383-2.542c-2.258-14.9-4.919-29.718-7.742-44.52l-.569-3.002c-1.763-9.264-3.573-18.524-5.83-27.682l-.864-3.549C653 264 653 264 650.876 262.61zm-328 61c2.462 18.813 5.784 37.475 9.057 56.16q1.54 8.798 3.072 17.598.81 4.653 1.626 9.306l1.128 6.453q1 5.745 1.938 11.5l.409 2.505q.39 2.394.77 4.79c.89 5.467.89 5.467 2 7.688 6.909.195 13.271-.519 20.066-1.723l3.2-.547q5.15-.887 10.296-1.793l7.155-1.239a8425 8425 0 0 0 10.847-1.885q11.037-1.925 22.088-3.758c43.713-7.298 43.713-7.298 52.348-13.055-.266-10.458-4.806-16.385-12.091-23.65-18.282-17.242-43.02-27.513-65.557-37.81a1025 1025 0 0 1-14.164-6.665l-2.523-1.203c-4.475-2.136-8.941-4.29-13.403-6.453-9.281-4.49-18.575-8.893-28.074-12.906l-2.427-1.028C323.261 323 323.261 323 321 323" id="svg-layer-3" style="pointer-events: all;"/><path fill="#B67E64" d="M617 35c5.657 27.18 10.771 54.337 14.688 81.824.403 2.807.819 5.613 1.235 8.419 2.01 13.576 3.71 27.03 4.077 40.757-12.68-4.666-25.25-9.602-37.815-14.566-4.41-1.74-8.829-3.463-13.25-5.177-54.2-21.023-54.2-21.023-76.935-40.257l-2.258-1.816C495.782 95.037 484.735 80.918 481 67c-.125-3.375-.125-3.375 0-6 11.157-2.783 22.32-5.323 33.625-7.437a669 669 0 0 0 25.938-5.376c11.811-2.683 23.673-5.06 35.562-7.374l2.614-.51q7.427-1.448 14.863-2.85 2.427-.458 4.85-.926c2.346-.45 4.692-.89 7.04-1.328l2.124-.414c3.488-.637 5.998-.783 9.384.215M417 72c-2.23 24.27-16.329 46.772-29 67l-1.562 2.495c-9.819 15.504-20.95 30.06-33.438 43.505a835 835 0 0 0-3.375 3.938c-4.6 5.286-9.64 10.143-14.625 15.062l-1.996 2.625c-4.85 3.834-10.47 4.49-16.442 5.688l-3.681.798c-5.398 1.139-10.346 2.04-15.881 1.889-1.623-2.924-2.385-5.42-2.86-8.723l-.433-2.994-.457-3.345-.502-3.579c-2.082-15.235-3.81-30.518-5.554-45.795-1.251-10.906-2.58-21.786-4.216-32.642-1.038-6.96-1.635-13.892-1.978-20.922 4.214-1.476 8.387-2.607 12.75-3.55.641-.14 1.282-.278 1.943-.421q3.152-.677 6.307-1.341l2.225-.472a682 682 0 0 1 33.296-6.154c14.886-2.4 29.701-5.19 44.526-7.94 17.495-3.244 17.495-3.244 24.039-4.392l2.525-.444c2.812-.337 5.56-.334 8.389-.286" id="svg-layer-4" style="pointer-events: all;"/><path fill="#625B6B" d="m469 62 .742 2.063C474.864 77.345 482.705 89.254 492 100l2.04 2.441c8.882 10.321 19.222 18.69 30.96 25.559l3.27 1.957c12.462 7.369 25.596 13.061 38.937 18.621 6.583 2.745 13.147 5.536 19.712 8.324q3.213 1.365 6.428 2.728 9.22 3.911 18.438 7.83 4.387 1.865 8.778 3.727c1.044.446 2.09.89 3.166 1.35l2.962 1.256 2.75 1.18c2.364.949 4.719 1.674 7.157 2.402C640 179 640 179 641.368 182.082l.507 3.73.302 2.005q.304 2.064.563 4.136c.248 1.95.559 3.892.873 5.832 1.034 6.462 1.72 12.672 1.387 19.215-1 1-1 1-3.133 1.371-4.09-.53-6.607-2.815-9.742-5.309-7.397-5.64-15.021-10.506-23.125-15.062l-1.862-1.052c-9.225-5.16-18.725-9.658-28.326-14.073-27.772-12.805-54.451-25.871-78.184-45.527q-1.65-1.365-3.315-2.711c-13.175-10.651-24.805-22.933-35.34-36.188C458.795 94.504 455.4 90.753 452 87c-3.55 2.367-3.758 3.435-5.125 7.375C435.945 123.832 419.352 149.43 400 174l-1.977 2.531c-8.585 10.883-17.543 21.265-27.479 30.939l-1.708 1.667-1.514 1.46c-2.192 2.327-3.337 3.749-3.263 6.997l.378 2.906c.664 5.197.664 5.197-.437 8.5h-2c-1.242-5.318-2.308-10.582-3-16l-2.312-.437C354 212 354 212 351 211a163 163 0 0 0-6.687-.062l-3.575.027L338 211v-3a87 87 0 0 1 5.75-4.937c9.569-7.839 18.157-16.333 25.848-26.04a302 302 0 0 1 5.46-6.671c7.814-9.327 14.62-18.962 20.942-29.352l1.645-2.671c6.969-11.376 13.354-22.915 18.98-35.017l1.469-3.144c3.745-8.273 7.618-17.152 8.344-26.293C427 71 427 71 429.035 69.449c3.557-1.739 7.122-2.668 10.965-3.511l2.265-.513c8.803-1.949 17.68-3.846 26.735-3.425" id="svg-layer-5" style="pointer-events: all;"/><path fill="#B67E64" d="M321 323c7.58 2.02 14.532 4.86 21.625 8.188l3.205 1.486a644 644 0 0 1 19.105 9.275c5.61 2.842 11.267 5.584 16.94 8.301l2.92 1.4a837 837 0 0 0 15.861 7.37c12.558 5.676 24.775 11.46 36.344 18.98l1.872 1.209C449.636 386.262 463.869 395.772 467 409c.25 3.563.25 3.563 0 6-6.569 3.218-13.075 5.282-20.187 6.938l-3.318.78c-11.018 2.516-22.118 4.343-33.276 6.11-6.877 1.098-13.737 2.29-20.598 3.485l-7.192 1.244q-5.408.935-10.812 1.883c-3.399.596-6.799 1.182-10.199 1.767l-3.084.548c-5.871 1-11.378 1.421-17.334 1.245-2.194-9.037-3.968-18.085-5.488-27.258q-.338-2.017-.68-4.035a6809 6809 0 0 1-1.78-10.647q-.918-5.496-1.842-10.992l-.737-4.388-.366-2.18-1.088-6.487a4578 4578 0 0 0-4.074-23.966l-.44-2.548q-.78-4.514-1.57-9.026-.507-2.904-1.01-5.809c-.18-1.037-.362-2.074-.549-3.142C321 326 321 326 321 323M651.001 262.544c2.942 2.143 3.127 4.24 3.98 7.745l.49 1.997c2.234 9.3 4.05 18.696 5.841 28.089l.582 3.025c3.151 16.494 5.808 33.038 8.168 49.663l.46 3.225q.641 4.529 1.263 9.06l.378 2.702c.584 4.353.977 8.545.837 12.95-8.402 2.233-16.801 3.95-25.375 5.375-1.265.214-2.53.428-3.833.65q-5.894.994-11.792 1.975l-3.508.585c-4.643.775-9.287 1.55-13.932 2.315a2495 2495 0 0 0-21.57 3.666q-6.472 1.127-12.945 2.247-3.225.56-6.447 1.13-4.538.798-9.078 1.58l-2.78.498-2.561.437-2.236.392C555 402 555 402 552 401c12.093-41.53 37.71-79.741 66-112l2.484-2.863c22.649-25.733 22.649-25.733 30.517-23.593" id="svg-layer-6" style="pointer-events: all;"/><path fill="#635B6B" d="M314 267c2.972 2.548 4.415 5.453 6 9v2c11.889 11.67 28.72 18.51 43.446 25.826q4.435 2.206 8.865 4.422c10.881 5.43 21.802 10.767 32.803 15.952 9.53 4.514 18.753 9.533 27.886 14.8l2.307 1.327c25.274 14.663 61.808 38.476 70.312 68.885L506 411c-8.59 3.5-16.702 5.344-26 5l-.594-2.02c-10.225-31.514-46.32-48.12-73.668-62.101-7.332-3.703-14.74-7.24-22.164-10.754-7.426-3.518-14.819-7.104-22.21-10.695l-6.681-3.241c-8.968-4.353-17.92-8.74-26.805-13.257a132 132 0 0 0-4.058-1.923L321.644 311l-1.986-.892c-3.232-2.16-3.665-5.677-4.408-9.296l-.571-2.38q-.585-2.464-1.128-4.938a291 291 0 0 0-1.742-7.353C309 274.718 309 274.718 309 271l-2-1z" id="svg-layer-7" style="pointer-events: all;"/><path fill="#625B6B" d="M648 227q.506 3.343 1 6.688l.563 3.761c.768 6.233.768 6.233.437 8.551-1.766 2.07-1.766 2.07-4.25 4.125l-2.766 2.355L640 255a472 472 0 0 0-6 5.438l-1.53 1.404c-7.67 7.079-14.803 14.344-21.322 22.51-1.979 2.44-4.03 4.767-6.148 7.086-25.633 28.66-44.425 64.791-60.285 99.527l-1.466 3.196c-1.02 2.318-1.893 4.624-2.741 7.007C539 404 539 404 536.215 405.523l-3.278.852-3.484.914c-4.477.922-8.888 1.505-13.453 1.711 10.164-52.273 41.616-100.862 77.577-139.459 1.41-1.527 2.8-3.07 4.185-4.62 12.853-14.351 27.608-26.296 43.664-36.933l1.876-1.245C645 226 645 226 648 227" id="svg-layer-8" style="pointer-events: all;"/><path fill="#967268" d="M268 205v7c-3.678 1.226-4.784.843-9 0v13h-4c-2.143-3.46-2.212-6.042-1.937-10.062l.16-3.16C254 209 254 209 256.328 207.171 260.118 205.51 263.874 205 268 205" id="svg-layer-9" style="pointer-events: all;"/><path fill="#746267" d="M275 213h1l1 9 6-1-1 2c-2.873.885-5.709 1.66-8.625 2.375l-5.223 1.316-2.637.661a223 223 0 0 0-6.761 1.863c-7.08 2.036-13.372 3.41-20.754 2.785v-1c18.34-4.383 18.34-4.383 27-6l1-3 9-1z" id="svg-layer-10" style="pointer-events: all;"/><path fill="#6A5F6C" d="M336 209v1l-3.562.25c-6.3.699-12.304 2.504-18.393 4.193-3.46.943-6.94 1.815-10.42 2.682l-2.03.506A473 473 0 0 1 287 221l-1-3h2v-7h1l1 6h6v-5l1 3 2.934-.658c3.61-.807 7.222-1.6 10.836-2.388q2.34-.513 4.678-1.039c2.247-.504 4.497-.994 6.747-1.481l2.094-.48c4.208-.894 7.523-.937 11.711.046" id="svg-layer-11" style="pointer-events: all;"/><path fill="#665D6B" d="M281 155h1q.648 6.001 1.282 12.006.217 2.037.436 4.076.317 2.945.626 5.89l.38 3.571c.28 3.501.323 6.946.276 10.457h-1l-1 13h-1c-.869-5.964-1.134-11.728-1.098-17.75l.005-2.723c.005-2.843.018-5.685.03-8.527q.008-2.909.014-5.816.017-7.092.049-14.184" id="svg-layer-12" style="pointer-events: all;"/><path fill="#73626A" d="M355 217c-.247 7.032-2.033 10.13-7 15-2.957 2.49-6.04 4.758-9.187 7l-2.444 1.809-2.35 1.691-2.121 1.531L330 245l-3-1 1.984-1.398A497 497 0 0 0 338 236l1.667-1.248a290 290 0 0 0 4.896-3.815l3.003-2.347c3.018-3.211 3.554-5.334 4.434-9.59l-2.23.438-2.957.562-2.918.563c-2.688.406-5.183.516-7.895.437 2.913-1.54 5.796-2.695 8.938-3.687l2.527-.825c2.83-.545 4.77-.225 7.535.512" id="svg-layer-13" style="pointer-events: all;"/><path fill="#6B5E69" d="M313 332h1q1.694 8.64 3.363 17.285.568 2.933 1.144 5.865c4.084 20.833 4.084 20.833 4.493 30.85l-2-1c-.406-2.193-.696-4.408-.937-6.625-.922-7.897-2.409-15.6-4.063-23.375l-1 5h-1q-.254-5.031-.5-10.062l-.145-2.858c-.245-5.034-.41-10.04-.355-15.08" id="svg-layer-14" style="pointer-events: all;"/><path fill="#6B5E69" d="M322 386h2c.842 4.373 1.672 8.749 2.5 13.125l.723 3.75.683 3.633.635 3.332c.45 3.104.541 6.03.459 9.16h-1l-4-19-1 8h-1z" id="svg-layer-15" style="pointer-events: all;"/></svg>