<svg xmlns="http://www.w3.org/2000/svg" viewBox="0 0 408 316"><path fill="none" d="M0 0h408v316H0zm45.313 17.375c-3.81 4.324-3.473 8.5-3.518 14.071l-.03 2.302q-.046 3.867-.081 7.732l-.064 5.658a7972 7972 0 0 0-.153 15.722q-.045 4.99-.093 9.98c-.416 44.473-.483 88.947-.496 133.42q-.003 8.254-.009 16.507-.01 14.483-.003 28.965.001 4.886-.002 9.773-.004 5.68.005 11.36.002 3.039-.005 6.078c.015 6.115.184 12.014 1.136 18.057 4.981.815 9.803 1.143 14.853 1.127l2.31.005c2.54.004 5.082 0 7.623-.003l5.496.006q7.492.005 14.986 0c5.326-.003 10.652 0 15.978 0q13.553.004 27.105-.005 13.608-.007 27.217 0c46.197.025 92.395-.02 138.59-.402q6.102-.05 12.204-.081 7.068-.038 14.137-.115 2.577-.025 5.154-.033c2.338-.01 4.675-.037 7.013-.069l3.952-.032c4.574-.538 7.218-1.985 10.132-5.523 2.902-6.674 2.395-14.51 2.377-21.68l.005-2.867c.004-3.15 0-6.3-.003-9.45l.006-6.803q.005-9.225 0-18.449c-.003-6.459 0-12.918 0-19.377q.004-17.335-.006-34.671-.006-15.644.001-31.286.01-18.224.005-36.446-.003-9.624.001-19.248.004-9.075-.005-18.15 0-3.301.002-6.602c.006-6.95-.035-13.897-.133-20.846l-.04-3.27c-.05-3.287-.13-6.573-.218-9.859l-.041-3.036c-.192-5.696-.657-9.48-4.701-13.835-5.321-3.867-10.92-3.418-17.233-3.374l-3.442-.012c-3.81-.01-7.618.002-11.427.014q-4.095-.003-8.19-.011c-6.65-.01-13.298-.003-19.947.009-7.75.014-15.499.012-23.249.01q-20.753-.003-41.507.028-20.114.029-40.228.02a36776 36776 0 0 0-48.513.01l-2.327.001q-8.091.005-16.182.002a7842 7842 0 0 0-19.751.017q-5.033.012-10.067.007c-3.647-.003-7.295.006-10.942.018l-3.172-.011c-18.68.11-18.68.11-24.51 4.647" id="svg-layer-0" style="pointer-events: all; fill: none;"/><path fill="#050609" d="M72.995 12.74c1.145-.005 2.29-.008 3.47-.012 3.805-.01 7.609-.007 11.413-.003q4.112-.006 8.223-.015 9.975-.018 19.95-.012 8.106.002 16.213-.005l2.336-.001 4.7-.004q21.99-.014 43.98-.003c13.41.006 26.82-.006 40.23-.025q20.677-.03 41.353-.024 11.6.005 23.2-.014 9.865-.019 19.732-.002 5.031.01 10.064-.005c3.636-.01 7.272-.002 10.908.01l3.212-.022c5.366.04 9.527.131 14.021 3.397 4.768 5.137 4.65 10.204 4.74 16.86.03 1.059.058 2.118.087 3.209.082 3.31.132 6.62.173 9.931l.044 3.016c.093 7.077.103 14.153.101 21.23l.01 6.942q.014 9.302.012 18.604l.006 11.65q.013 19.308.012 38.616v4.178q.002 16.837.023 33.675.023 17.363.02 34.727-.001 9.718.014 19.438.014 9.117.003 18.234-.003 3.34.007 6.68c.008 3.043.003 6.086-.005 9.13l.016 2.653c-.038 6.785-.453 13.424-4.2 19.227-3.67 3.558-7.275 3.147-12.17 3.203l-2.212.03q-3.69.045-7.379.079l-5.298.062q-7.26.082-14.518.151-4.61.045-9.217.093c-47.34.486-94.68.536-142.021.51-9.121-.004-18.242 0-27.363.004q-13.446.007-26.892.003-7.92-.003-15.84.001-7.329.004-14.658-.005-2.673 0-5.346.002-3.648.002-7.296-.006l-2.118.007C50.383 298.116 46.282 297.7 42 297c-1.181-7.449-1.141-14.834-1.13-22.36q0-2.183-.005-4.365-.005-5.942 0-11.885.003-5.046 0-10.091c-.006-9.952-.001-19.903.006-29.854l.008-14.045c.017-45.55.066-91.098.469-136.645q.04-4.785.073-9.57.054-7.35.137-14.703.028-2.62.045-5.24c.017-2.336.046-4.67.078-7.005l.04-3.905c.366-4.373 1.301-7.191 4.154-10.52 7.899-4.58 18.212-4.105 27.12-4.073M53 27a66 66 0 0 0-.12 4.372l-.004 2.86.01 3.163v3.31c0 3.631.009 7.262.016 10.893l.005 7.529q.005 8.913.021 17.828.017 11.14.023 22.281Q52.967 119.12 53 139l4-2v-2l1.809-.809c2.237-1.216 3.535-2.395 5.254-4.254 2.75-2.86 5.628-5.317 8.757-7.753 8.255-6.699 15.508-14.42 22.91-22.031 21.337-21.89 44.286-38.677 75.958-39.528 16.434.453 29.218 5.797 40.515 17.695 8.669 10.29 15.763 23.778 14.672 37.618-.764 4.471-2.012 8.475-5.562 11.5-7.404 1.8-13.138-1.605-19.481-5.063-2.739-1.33-4.803-2.142-7.832-2.375-6.365 2.423-11.168 7.371-14.191 13.36-2.443 5.617-4.121 10.523-2.184 16.6 3.263 7.606 9.765 12.996 17.375 16.04 12.123 2.83 22.689.376 33.27-5.993 9.536-6.024 17.524-13.39 24.894-21.904C265.049 124.49 277.013 111.776 293 103l2.898-1.61c8.72-4.252 18.853-5.425 28.278-2.78 3.376 1.175 6.613 2.562 9.847 4.078C337 104 337 104 340 104q-.16-15.034-.34-30.067-.083-6.98-.157-13.96-.072-6.73-.156-13.46-.031-2.574-.056-5.147-.037-3.593-.086-7.184l-.017-2.171c-.074-4.897-.074-4.897-1.188-6.011a71 71 0 0 0-4.556-.126l-3.002-.008-3.337.007-3.515-.005q-4.851-.004-9.702.001-5.223.003-10.446-.004-10.24-.005-20.48 0-8.319.003-16.638.001h-2.387l-4.8-.001q-22.533-.004-45.067.006-19.356.006-38.712-.001a79813 79813 0 0 0-49.682-.004h-2.378q-8.313.002-16.627-.002-10.125-.005-20.25.003-5.17.005-10.34 0-5.593-.002-11.186.006l-3.337-.007-3.002.008h-2.612C54 26 54 26 53 27m70 60-3.285 2.137c-9.04 6.08-16.812 13.294-24.627 20.851-3.54 3.411-7.13 6.77-10.713 10.137l-2.122 2.003a853 853 0 0 1-10.437 9.7l-1.983 1.816a651 651 0 0 1-3.72 3.372c-1.409 1.288-2.767 2.631-4.113 3.984v2l-3 1c-3.393 2.614-5.7 5.367-6.483 9.636-.106 2.955-.042 5.849.108 8.802l.082 3.083c.07 2.496.169 4.986.293 7.479a1000 1000 0 0 0 3.781-2.785l2.127-1.567c2.659-2.095 4.962-4.434 7.31-6.863 1.856-1.86 3.79-3.573 5.782-5.285a123 123 0 0 0 7.5-7c2.39-2.434 4.85-4.714 7.438-6.937A134 134 0 0 0 95 135c3.132-3.174 6.375-6.133 9.758-9.035 2.164-1.897 4.268-3.85 6.368-5.816 6.47-6.038 13.228-11.6 20.281-16.941a434 434 0 0 0 4.21-3.243C144.766 93.14 155.592 88.25 167 87l2.156-.25C180.344 86.101 191.425 91.114 200 98a99 99 0 0 1 4 5l-1.879-.281c-6.673-.544-11.228.852-16.996 3.969l-1.908 1.027C172.17 114.02 166.665 124.195 163 136l-.687 2.055c-2.866 9.59-2.074 18.16 2.57 26.994 5.67 9.892 14.651 15.775 25.441 18.92 19.058 4.528 33.39.307 49.7-9.716 12.685-8.044 24.173-17.56 35.132-27.8 5.086-4.733 10.4-9.136 15.844-13.453l2.473-2.004c6.276-5.019 11.259-8.651 19.55-8.426 5.005.723 9.654 2.482 14.391 4.184 4.172 1.45 8.256 2.41 12.586 3.246.08-5.621-.362-9.922-4-14.375-6.184-6.147-12.08-7.994-20.75-8.125-21.172.316-34.62 13.675-48.71 27.969l-1.705 1.728c-2.32 2.356-4.637 4.714-6.943 7.083-9.397 9.632-18.93 18.758-31.204 24.658l-3.364 1.652c-10.226 4.338-21.355 5.169-31.945 1.453-6.985-3.063-13.211-6.53-17.379-13.043-3.83-10.76-2.542-21.627 2-32 6.988-11.08 17.838-15.059 30-18l2.336 2.406 3.039 3.094 1.54 1.59c1.323 1.342 2.701 2.63 4.085 3.91h2c2.474-8.865-1.653-17.692-5.562-25.625-6.922-11.883-16.94-19.191-29.817-23.508C162.646 65.844 140.293 75.724 123 87m-10.324 41.508a219 219 0 0 1-6.864 6.117c-3.634 3.146-6.997 6.52-10.343 9.969-1.977 1.926-3.976 3.713-6.07 5.504-5.879 5.099-11.25 10.72-16.685 16.284-5.66 5.784-11.369 11.165-17.82 16.062C53 184 53 184 52 186a97 97 0 0 0-.098 5.227l.01 3.125.026 3.273.013 3.297Q51.97 204.96 52 209c4.181-1.31 8.038-2.889 11.965-4.828l3.403-1.667 3.57-1.755c23.886-11.65 42.397-18.938 68.625-10.875 4.092 1.45 7.333 3.135 10.718 5.832 2.686 2.02 5.64 3.513 8.606 5.082C161 202 161 202 163.145 203.65 165 205 165 205 167 205v2c-5.885.626-9.082-.808-14.082-3.906C151 202 151 202 149 202v-2c-4.23-2.417-7.123-3.348-12-3v-2q-3.747-.763-7.5-1.5l-2.11-.434c-7.313-1.422-13.823-1.46-21.14.309l-3.297.773c-2.54.733-4.655 1.57-6.953 2.852v2l-3.562 1c-7.24 2.378-13.8 6.318-20.438 10v2l-1.73.352c-2.473.706-4.366 1.724-6.582 3.023-3.814 2.178-7.618 3.98-11.688 5.625v9h3l-1 4 3 2c2.7-.68 2.7-.68 5.688-1.875l3.011-1.18L68 232v2h-2l-1.875 2.875c-2.153 3.166-2.903 3.566-6.125 5.125a99 99 0 0 0-3 5l-1.687 1.375c-2.135 2.643-1.497 5.367-1.313 8.625h3l-1 6 5-2v-2l14-7c-2.209 2.31-4.126 3.61-7 5l-2 2c-2.825 1.582-5.694 3.068-8.566 4.563C53 265 53 265 52 267a61 61 0 0 0-.098 4.133l.01 2.441.026 2.551.013 2.574q.02 3.15.049 6.301c3.937.03 7.875.047 11.813.063l3.216.025c6.97.02 13.904-.15 20.866-.444 17.024-.714 34.023-.8 51.059-.773q3.792.006 7.585.007c33.587.017 67.17.357 100.755.729 30.904.34 61.8.539 92.706.393.652-10.369 1.135-20.668 1-31.062a1392 1392 0 0 1-.062-6.223l-.036-2.684C341 243 341 243 342 242c.073-2.186.084-4.375.063-6.562l-.028-3.63L342 229h-2v-5l-7-3 2.875.063C339 221 339 221 341 220c1.075-14.515 1.075-14.515-1.523-18.105-1.914-1.27-1.914-1.27-5.477-2.895l-1-2 7 1c-1.188-6.265-3.205-8.674-8.375-12.25l-1.75-1.273c-2.318-1.683-4.617-3.326-7.09-4.774-2.826-2.696-3.726-6.063-4.973-9.703l-.787-2.195c-3.165-8.868-3.66-15.007-.775-23.93l.621-2.09c1.36-4.311 2.97-7.436 6.129-10.785l2-1v-2c-3.796-.978-6.5-.927-10.312-.062l-2.676.59L310 129v2l-2.566.676c-4.105 1.583-6.987 3.755-10.372 6.512l-1.873 1.499c-3.762 3.045-7.293 6.204-10.634 9.711-2.992 3.083-6.279 5.83-9.555 8.602l-2.46 2.09c-18.724 15.62-43.52 35.494-69.22 34.812-15.593-1.67-29.703-6.61-40.695-18.214-7.838-9.861-9.291-20.513-8.625-32.688 1.488-11.518 7.67-27.484 17-35 5.704-4.07 11.65-8.015 18-11v-2c-30.596-7.735-55.203 12.712-76.324 32.508M329 138c-5.648 5.648-5.387 12.394-5.458 19.968.12 5.386 1.07 8.635 4.74 12.548C334.631 176 334.631 176 340 176q.075-6.03.11-12.06.015-2.05.04-4.097c.025-1.971.035-3.942.045-5.913l.032-3.587c-.236-3.473-.872-6.143-2.227-9.343-3.341-2.638-4.654-3-9-3" id="svg-layer-1" style="pointer-events: all;"/><path fill="#F8F5E3" d="m58.556 25.874 3.002-.008 3.337.007 3.515-.005q4.851-.004 9.702.001 5.223.003 10.446-.004 10.24-.005 20.48 0 8.319.003 16.638.001h2.387l4.8-.001q22.533-.004 45.067.006 19.356.006 38.712-.001a79813 79813 0 0 1 49.682-.004h2.378q8.313.002 16.627-.002 10.125-.005 20.25.003 5.17.005 10.34 0 5.593-.002 11.186.006l3.337-.007 3.002.008h2.612C338 26 338 26 339 27c.125 2.403.186 4.778.205 7.182l.03 2.276q.047 3.742.081 7.483l.063 5.175q.082 6.824.153 13.647.077 6.957.161 13.915.162 13.661.307 27.322c-4.283-.643-7.453-1.602-11.312-3.562-9.615-4.097-20.399-4.169-30.125-.313A132 132 0 0 0 293 103l-2.57 1.352c-14.346 8.05-25.82 20.28-36.43 32.648-11.869 13.754-26.745 28.36-45.75 30.277-10.152.353-17.702-2.516-25.25-9.277-3.81-4.11-5.719-7.608-6.375-13.187.876-8.906 4.849-15.789 11.375-21.813 2.813-2.188 2.813-2.188 6-3 5.552.801 10.3 3.102 15.188 5.75 3.427 1.79 4.747 2.25 8.75 2.25 3.11-1.016 4.008-1.6 6.062-4 4.507-9.014 2.94-16.718-.125-26.062C221.432 91.514 218.298 86.332 214 81l-1.582-2.11C205.462 70.158 195.918 64.23 185 62l-3.312-.687C155.918 59.129 133.972 66.675 114 83c-6.476 5.559-12.538 11.513-18.55 17.566l-1.505 1.513q-3.744 3.767-7.46 7.56c-5.406 5.492-10.97 10.578-17.033 15.344-3.21 2.64-6.053 5.554-8.893 8.583C59 135 59 135 57 135v2l-4 2q-.034-21.878-.052-43.757-.007-10.158-.023-20.316-.016-9.794-.02-19.588-.003-3.745-.01-7.491-.01-5.227-.009-10.453l-.01-3.163.004-2.86-.003-2.5c.244-3.72 2.484-2.997 5.679-2.998" id="svg-layer-2" style="pointer-events: all;"/><path fill="#374972" d="M189 96v2l-2.816 1.54c-16.496 9.124-24.883 19.446-30.934 37.726-3.404 12.763-1.442 24.73 5.102 36.078 9.348 13.579 24.065 17.961 39.347 21.234C221.302 197.863 243.41 182.171 260 170a263 263 0 0 0 20.93-17.754c23.175-21.801 23.175-21.801 32.382-22.496C316 130 316 130 317 131c-.335 4.023-1.085 7.315-2.562 11.063-3.32 9.711-2.103 19.031 2.078 28.218 3.125 5.724 6.058 9.5 11.421 13.281 10.485 7.436 10.485 7.436 11.875 12.25L340 198q-2.126-.556-4.25-1.125l-3.055-.809a153 153 0 0 1-8.14-2.601c-18.52-6.32-35.253-6.451-53.555.535l-2.257.86c-4.988 1.93-9.939 3.948-14.889 5.975-29.064 11.862-49.058 17.773-78.854 5.352-5.052-2.228-9.963-4.672-14.875-7.187-18.722-9.557-38.405-17.21-59.3-11.066-14.482 4.917-28.415 11.653-41.977 18.679C54.203 209 54.203 209 52 209a620 620 0 0 1-.312-11.187l-.127-3.198c-.124-7.851-.124-7.851 2.544-11.47L57 181q1.567-1.423 3.102-2.883l1.706-1.57c7.706-7.093 15.146-14.423 22.493-21.885 4.182-4.229 8.444-8.265 12.955-12.14 2.188-1.91 4.223-3.939 6.244-6.022 4.008-4.049 8.166-7.807 12.5-11.5l2.863-2.527C138.693 105.102 161.665 89.089 189 96M290 242l.438 2.5c4.259 9.541 16.132 16.073 25.25 20.563l2.096 1.039C324.82 269.514 332.082 273 340 273v12c-32.3.154-64.588-.08-96.885-.429-33.45-.36-66.897-.68-100.35-.694q-3.61-.003-7.223-.01c-16.943-.025-33.843.2-50.774.91-6.988.287-13.961.34-20.955.286l-3.534-.014q-4.14-.02-8.279-.049l1-11h2v-2l5-3v-2c3-1 3-1 5-1v-4h2l1 3v-2l5-1v-2h2l2-2 3 1 1-5c5.875.875 5.875.875 7 2l2-3h2v2h2l1-2 2 1 1-3c4.628.524 9.22 1.162 13.813 1.938l2.769.464C117 254 117 254 120 256l-.625-1.687c-.482-2.973.36-4.633 1.625-7.313l6 2v2l2.875-.625L133 250l2 2h3v2l7 1v2l1.695-.14c9.411-.424 19.48 1.71 27.305 7.14l1 2c2.563.625 2.563.625 5 1l.875 2.938C182 273 182 273 184 274v-3c6.11-.113 11.952.104 18 1l-1 2 2 1v-3h9l-2 1c-.625 2.562-.625 2.562-1 5h3l2-6 5 2-1-4h5l1 3h9a104 104 0 0 0 5-2l-2-2.875C234 265 234 265 234 263l1.933-.516c16.446-4.442 31.6-9.67 46.208-18.574 2.464-1.206 5.094-1.91 7.859-1.91M97 265v4q2-.653 4-1.312l2.516-.825c2.135-.742 4.163-1.59 6.234-2.488 4.472-1.702 8.908-1.855 13.652-2.133 3.931-.264 7.816-.682 11.723-1.18l3.758-.464C142 260 142 260 145 258c-17.393-4.226-31.89-.32-48 7" id="svg-layer-3" style="pointer-events: all;"/><path fill="#384971" d="M198.836 78.234C208.24 85.908 213.919 92.924 216 105l-1.75-.562c-2.25-.438-2.25-.438-4.18.253-2.07.309-2.07.309-4.515-1.351l-2.68-2.403c-9.758-8.321-20.22-14.784-33.516-14.218C153.332 88.629 140.141 95.79 128 106q-1.623 1.336-3.246 2.668c-6.768 5.603-13.257 11.484-19.68 17.477a503 503 0 0 1-8.449 7.668c-3.424 3.065-6.696 6.228-9.914 9.507-2.477 2.432-5.114 4.665-7.742 6.93-1.9 1.688-3.69 3.438-5.469 5.25-3.02 3.067-6.177 5.915-9.437 8.723-2.861 2.465-5.676 4.98-8.497 7.492C54 173 54 173 53 173c-.205-3.5-.328-6.997-.437-10.5-.06-.982-.118-1.965-.178-2.977-.131-5.605.315-8.888 4.017-13.242C58.29 144.346 58.29 144.346 60 143h2l.82-1.82c1.173-2.167 2.25-3.425 4.059-5.07l1.766-1.626 1.918-1.734q2.048-1.88 4.093-3.762l2.16-1.978c2.89-2.66 5.748-5.353 8.604-8.05a2767 2767 0 0 1 6.455-6.07 627 627 0 0 0 7.75-7.406c23.851-23.013 67.327-50.206 99.21-27.25" id="svg-layer-4" style="pointer-events: all;"/><path fill="#F0F0EE" d="m311.813 222.813 3.54.79q3.524.788 7.044 1.587c5.858 1.317 11.73 2.563 17.603 3.81.828 3.711 1.127 6.311 0 10-3.413 1.707-7.026-.159-10.559-1.125q-2.649-.697-5.298-1.39-4.17-1.104-8.333-2.233c-25.443-6.883-40.515.85-63.157 12.452-23.59 12.062-45.465 21.987-72.072 13.682-9.829-3.289-18.869-8.36-28.018-13.166-26.834-14.032-26.834-14.032-41.125-13.782l-3.817-.004C95.223 234.513 84.357 239.32 73.5 245q-1.83.936-3.664 1.867C64.146 249.781 58.51 252.758 53 256c-.812-2.687-.812-2.687-1-6 12.967-15.006 40.668-26.273 60-28 20.657-.6 42.312 12.548 59.125 23.25 13.42 8.179 29.14 10.714 44.54 8.137 14.313-3.735 26.97-11.688 39.672-19.014 19.743-11.358 33.623-16.84 56.476-11.56" id="svg-layer-5" style="pointer-events: all;"/><path fill="#384971" d="M204 103c1.824 1.402 1.824 1.402 3 3v2l-2.965.883c-11.228 3.46-21.491 7.741-28.035 18.117-4.502 10.283-5.832 20.977-2.156 31.715 3.921 7.75 12.343 11.459 20.156 14.285 13.657 3.425 26.346.164 38.203-6.909 5.42-3.362 10.266-7.212 14.91-11.571l1.682-1.565c6.858-6.434 13.426-13.163 19.98-19.902C287.714 113.617 287.714 113.617 298 113l2.375-1.562c3.78-2.07 7.394-1.87 11.625-1.438l2 1 3-.687c5.06-.842 9.636 1.23 14 3.687l2 3-1 3a429 429 0 0 1-5.312-1.312l-2.989-.739c-2.765-.972-3.72-1.906-5.699-3.949-3.125.188-3.125.188-6 1l-1 2-3-1-.25 1.875C307 120 307 120 305 121.063l-2 .937-1 3c-1.68 1.254-1.68 1.254-3.875 2.563-5.983 3.823-10.945 8.612-16.125 13.437a676 676 0 0 1-6.004 5.242 196 196 0 0 0-4.148 3.766c-17.612 16.351-42.432 36.75-67.567 36.242-12.958-.987-24.613-4.737-34.164-13.762-6.16-7.24-10.26-15.775-9.605-25.425 2.088-13.1 6.426-27.458 17.52-35.543 2.282-1.583 4.603-3.064 6.968-4.52l1.973-1.27c5.347-3.107 10.922-3.825 17.027-2.73" id="svg-layer-6" style="pointer-events: all;"/><path fill="#5B6D93" d="M302 197h3a104 104 0 0 1 5 2l-3 1-1 2v-3l-2 3c-2.125.688-2.125.688-4 1l2 1-2.727.523c-11.887 2.597-22.363 7.315-33.28 12.623C264 218 264 218 262 218v2l-1.977.77c-3.92 1.543-7.752 3.094-11.523 4.98C246 227 246 227 244 227v2l-10 2v2a768 768 0 0 1-17 4l-2.64.594c-10.52 1.766-21.738-2.726-31.36-6.594v-2l-2.687-.875A140 140 0 0 1 172 225v-2l-1.77-.391c-2.154-.588-3.924-1.341-5.91-2.351l-2.066-1.043-2.129-1.09-2.105-1.066q-2.046-1.037-4.09-2.078c-2.636-1.34-5.283-2.661-7.93-3.981l6-2v-3c-4.033-3.45-8.918-5.602-14-7v-2c4.056.468 7.466.88 11 3v2l2.633.814c3.276 1.154 6.18 2.53 9.246 4.155l3.29 1.73 3.393 1.801q3.344 1.77 6.692 3.531l2.979 1.58c14.754 7.404 31.011 8.36 46.572 3.295 7.998-2.809 15.76-6.324 23.486-9.803l3.498-1.556 3.116-1.411c3.372-1.238 6.533-1.746 10.095-2.136v-2l3.543-1.023 4.644-1.352 2.33-.672c3.15-.919 6.196-1.833 9.225-3.101 5.974-2.253 12.467-1.112 18.258 1.148" id="svg-layer-7" style="pointer-events: all;"/><path fill="#141A31" d="M109 203c13.707-.765 24.379.507 37 6v2l2.457.715c4.32 1.567 8.204 3.649 12.23 5.847q2.255 1.224 4.512 2.442l1.995 1.088C169 222 169 222 172 223v2l2.125.313c3.266.78 5.922 2.108 8.875 3.687v2l2.633.375c4.248.788 8.119 2.218 12.172 3.688 6.822 2.001 12.231 2.103 19.132.562 5.684-1.173 11.28-2.109 17.063-2.625v-2c3.508-1.604 6.144-2.22 10-2v-2a948 948 0 0 1 6.75-3.5l1.922-1.012c3.448-1.76 5.376-2.488 9.328-2.488v-2a1089 1089 0 0 1 7-3.375l1.965-.96c4.628-2.2 9.022-3.584 14.035-4.665l2.538-.678c5.114-.475 9.732.65 14.732 1.698l3.262.662q3.402.695 6.8 1.405c3.483.726 6.968 1.431 10.455 2.134q3.304.678 6.608 1.361l3.175.641 2.914.616 2.576.534L340 218l1 2c-2.763.597-5.16 1-8 1l7 3v5c-8.133-.541-15.884-2.166-23.812-4l-7.145-1.625-3.156-.727c-12.69-2.85-21.789-1.129-33.887 3.352a719 719 0 0 1-6 2l-1-3 5-1v-1c-13.16 3.51-25.073 9.153-37 15.629-5.033 2.693-8.181 3.688-14 3.371a99 99 0 0 0-4.312 1.063c-20.94 4.805-46.478-12.876-64.45-21.962l-1.875-.946q-2.558-1.292-5.114-2.591c-5.998-2.887-12.315-5.802-18.87-7.072C122 210 122 210 120.047 208.977c-2.623-1.252-4.908-1.396-7.797-1.602l-2.984-.227L107 207z" id="svg-layer-8" style="pointer-events: all;"/><path fill="#161D35" d="m305 232 1 3c1.855.625 1.855.625 4.188 1 3.175.59 5.185 1.19 8.125 2.688 3.024 1.476 3.632 1.26 6.687.312l3 2v2l5 1-4-3h2v-2h8c.778-3.406 1.1-6.508 1-10h2q.039 3.219.063 6.438l.035 3.62C342 242 342 242 341 243a153 153 0 0 0-.062 6.563l.027 3.628L341 256l-1-4-1.973-.258c-4.1-1.005-7.676-2.78-11.464-4.617l-2.237-1.066c-3.228-1.544-6.43-3.113-9.603-4.766-7.493-3.558-15.954-2.566-23.723-.293-4.762 1.97-9.284 4.448-13.831 6.864-3.787 1.984-7.628 3.849-11.481 5.698l-2.193 1.087c-5.15 2.466-5.15 2.466-8.495 1.351l2-2v-2l-2.64 1.137q-3.736 1.605-7.477 3.199a516 516 0 0 0-7.203 3.14c-5.66 2.476-10.496 4.167-16.68 4.524v2c-9.913 2.643-19.824 2.193-30 2 2.997.87 5.65 1.118 8.766 1.098l2.695-.01 2.789-.026 2.836-.013q3.458-.018 6.914-.049c-3.83 2.553-6.997 2.343-11.437 2.313l-2.445-.013c-9.166-.172-17.225-1.967-25.294-6.382-2.84-1.43-5.746-2.148-8.824-2.918l1-2a669 669 0 0 0-4.812-2.5l-2.708-1.406C160 255 160 255 157 255v-2l-2.75-.75c-3.457-1.33-4.682-2.682-7.25-5.25-2.33-1.14-4.586-2.072-7-3l-2.746-1.227c-11.44-4.884-23.908-7.018-36.254-4.773l-1 4h-2v-6l-4-1c11.41-3.32 23.131-3.457 34.363.43l2.33.792c9.26 3.288 17.875 7.842 26.557 12.403 20.043 10.526 39.623 18.36 62.367 11.832 11.431-3.636 22.062-9.264 32.723-14.684l2.242-1.135a1135 1135 0 0 0 11.113-5.697C293.754 224.503 293.754 224.503 305 232" id="svg-layer-9" style="pointer-events: all;"/><path fill="#0D1227" d="M329 194q2.998 1.006 6 2l-2 1 2.313 2.313L341 205a222 222 0 0 1-17.566-4.723c-.995-.31-1.99-.622-3.016-.943a727 727 0 0 1-5.967-1.908c-12.397-3.904-24.018-4.545-36.139 1.137-4.624 2.006-9.35 2.674-14.312 3.437v2l-2.133.664c-7.07 2.27-13.794 4.97-20.543 8.066-3.49 1.334-6.632 1.761-10.324 2.27a206 206 0 0 0-5.438 1.919c-16.627 6.064-31.358 1.58-47.562-3.919l-3.582-1.191L172 211v-3c-3 1-3 1-4 3l-6-2c3-2 3-2 5-2v-2l-2.062-.687c-2.965-1.325-5.358-3.01-7.958-4.938-3.487-2.421-7.237-4.38-10.98-6.375l2-1c1.813.633 1.813.633 4 1.695l2.422 1.163 2.578 1.267 2.636 1.269a391 391 0 0 1 12.489 6.293c18.678 9.438 35.62 12.194 55.875 6.313 4.057-1.43 8.027-3.04 12-4.687l3.271-1.33c4.2-1.706 8.393-3.43 12.582-5.164C281.76 188.097 301.98 184.325 329 194" id="svg-layer-10" style="pointer-events: all;"/><path fill="#020306" d="M177.367 237.73c3.561 1.785 7.084 3.295 10.883 4.52l2.89.953c18.578 5.177 34.71-1.611 50.979-10.227 4.865-2.523 9.888-4.722 14.881-6.976l2.113-1c3.926-1.81 7.595-2.562 11.887-3l-1 3c-2.062.688-2.062.688-4 1v2c-.699.1-1.397.199-2.117.3-3.385.822-5.965 2.194-9.008 3.887l-3.445 1.895a1665 1665 0 0 0-6.547 3.68L242 239.375l-2.562 1.46c-2.495 1.192-4.715 1.747-7.438 2.165v2l-2.809 1.059-3.629 1.379-3.62 1.37C219 250 219 250 218 251c-6.006 1.866-12.132 2.232-18.375 2.313l-2.09.052c-4.28-.004-6.286-.675-9.535-3.365-1.937-.082-1.937-.082-4 .188-9.001.31-19.306-6.455-26-12.188l-.888-1.969c-1.308-2.39-2.195-2.912-4.643-4.023l-2.164-1L148 230l-2.305-1.032a482 482 0 0 0-7.195-3.093c-.803-.347-1.606-.694-2.434-1.05-14.265-6.035-27.269-6.194-41.921-1.7C91 224 91 224 87 224v-2c34.098-14.286 59.007-.226 90.367 15.73" id="svg-layer-11" style="pointer-events: all;"/><path fill="#374972" d="M297.813 240.5c3.187.5 3.187.5 5.597-.012 10.274-1.937 22.682 4.84 31.496 9.461C337 251 337 251 340 252c1.365 3.347 1.167 6.931 1.188 10.5l.042 3.406c-.22 2.964-.684 4.6-2.23 7.094-13.646-7.206-26.694-15.526-38.738-25.2-2.262-1.8-2.262-1.8-5.074-3.425L293 243v-2c2-1 2-1 4.813-.5" id="svg-layer-12" style="pointer-events: all;"/><path fill="#F1F1EF" d="M148 202c2.242 1.54 4.043 3.098 6 5l-1 3c-3.253 1.42-5.352.806-8.59-.398l-2.627-.954-2.72-1.023q-2.67-.985-5.34-1.96l-2.383-.893c-18.286-6.032-37.242.485-53.625 8.708-6.04 3.153-11.79 6.732-17.492 10.454-2.384 1.528-4.658 2.89-7.223 4.066v-5l3-1v-2c2.082-1.437 2.082-1.437 4.813-3 2.788-1.61 5.506-3.213 8.187-5h3v-2c11.395-6.413 22.313-11.694 35-15l2.066-.605c13.268-2.708 27.164 1.65 38.934 7.605" id="svg-layer-13" style="pointer-events: all;"/><path fill="#374567" d="M125 210c1.288.43 2.58.844 3.875 1.25 10.22 3.412 19.834 7.462 29.313 12.563C198.087 245.247 198.087 245.247 217 242l3.367-.555L223 241c-5.514 5.054-12.888 5.413-20.023 5.246-14.29-1.181-26.696-7.43-39.102-14.121C150.973 225.181 137.338 219.237 123 216l-2.062-.55c-12.387-2.873-24.712 3.548-35.683 8.532a756 756 0 0 1-12.442 5.456l-2.43 1.072c-3.916 1.678-7.029 2.987-11.383 2.49l2-3h3v-2a222 222 0 0 1 15.438-6.437 118 118 0 0 0 14.539-6.645C96 214 96 214 99 214l1-2h3v-2c7.301-2.54 14.86-3.478 22 0" id="svg-layer-14" style="pointer-events: all;"/><path fill="#020307" d="M94 236h4v6h2l1-5c17.259-2.453 31.767 2.101 47 10v2l2.75.813C154 251 154 251 155.813 252.438c2.255 1.61 3.992 2.2 6.625 3 3.887 1.205 6.552 2.746 9.562 5.562-12.403-.664-23.932-5.482-35.312-10.125-18.756-7.645-30.136-7.072-49.188-1.187-3.836 1.18-7.512 1.878-11.5 2.312l-1-2c6.593-2.959 13.121-5.76 20-8l1-5z" id="svg-layer-15" style="pointer-events: all;"/><path fill="#F1F1EF" d="M329 138c4.219.48 6.902 1.034 10 4 .607 2.27.607 2.27.746 4.926l.168 2.963c.141 5.102.191 10.195.149 15.298l-.014 3.174q-.018 3.82-.049 7.639c-4.05-.48-6.64-.994-9.687-3.75l-1.7-1.484c-4.257-4.66-5.07-8.505-4.925-14.703l-.01-2.092c.065-6.277 1.242-11.149 5.322-15.971" id="svg-layer-16" style="pointer-events: all;"/><path fill="#1C233C" d="m116.313 201.938 2.244.013q2.722.02 5.443.049v1l-3.246.148-4.192.227c-.707.03-1.414.062-2.142.094-1.812.104-3.618.31-5.42.531l-1 2 10 1v1l-1.809.262c-17.95 2.907-34.228 9.261-49.962 18.26C62.555 228.62 59.002 230.576 55 232v-2h-3v-9l4-1v2l-2 1v4l2.395-1.617C71.007 215.665 85.894 207.327 103 203l2.426-.617c3.628-.54 7.229-.488 10.886-.446" id="svg-layer-17" style="pointer-events: all;"/><path fill="#35415F" d="M330.941 111.46c4.249 3.177 7.475 5.86 8.641 11.212.26 2.457.408 4.859.418 7.328q-3.752-.897-7.5-1.812l-2.237-.546c-3.668-.917-7.16-1.884-10.638-3.392-5.835-2.012-11.694-1.937-17.625-.25l1-3 2-.937c2-1.063 2-1.063 2.75-3.188L308 115l1 2h2l1-3 7-1 .71 1.953C321 117 321 117 323.165 117.61l2.461.141 2.477.172L330 118v2h2c-.215-2.352-.215-2.352-1-5-4.251-2.967-9.23-4.434-14.375-3.687L313 112a498 498 0 0 1-4-1c-2.254.05-2.254.05-4.562.313l-2.317.238C300 112 300 112 297 114c-2.187-.375-2.187-.375-4-1q2.09-.977 4.188-1.937l2.355-1.09c9.498-3.76 22.564-3.846 31.398 1.488M123.25 245l2.012.65c9.073 3.01 17.91 6.695 26.738 10.35l-2 2c-2.625-.375-2.625-.375-5-1v-2l-7-1v-2l-4 1-1-3-6 1-1-2c-2.062-.625-2.062-.625-4-1v3l-2 2v3l-3.797-.875L111.25 254l-2.5-.578-2.422-.547-2.222-.508C102 252 102 252 98 252l-1 2c-2.562.625-2.562.625-5 1v-2l-5 4v-2l-6-1c9.142-10.589 29.677-13.066 42.25-9" id="svg-layer-18" style="pointer-events: all;"/><path fill="#141A33" d="M96 237c-.125 2.313-.125 2.313-1 5-2.715 1.666-5.421 2.772-8.375 3.938-3.649 1.476-7.122 3.271-10.625 5.062 4.03-.553 8.02-1.156 12-2-3.586 2.968-7.53 4.857-11.687 6.875C56.103 265.847 56.103 265.847 52 272c-.062-3.187-.062-3.187 1-7 2.774-2.168 5.8-3.564 9-5 3.88-1.76 3.88-1.76 5-4a134 134 0 0 1 6-3c-2.457 0-3.699.75-5.875 1.875l-2.055 1.055L63 257q-1.998 1.004-4 2v2l-5 2 1-6h-3l1-3h3c2.078-1.108 2.078-1.108 4.473-2.637 5.5-3.4 11.169-6.315 16.965-9.175l2.966-1.483C90.536 235.671 90.536 235.671 96 237" id="svg-layer-19" style="pointer-events: all;"/><path fill="#35415E" d="M316.852 241.578 318 243l-2.344-.473c-6.324-1.182-11.332-1.526-17.656-.527-3-.437-3-.437-5-1 2.367 3.55 4.224 4.137 8 6a122 122 0 0 1 5.188 4.25c5.334 4.456 10.88 8.147 16.812 11.75q1.74 1.087 3.477 2.176c9.098 5.682 9.098 5.682 12.523 6.824v2c-18.333-3.34-36.441-13.167-49-27a75 75 0 0 1-1-4l-3-1c8.73-3.65 22.754-7.323 30.852-.422" id="svg-layer-20" style="pointer-events: all;"/><path fill="#3A4B73" d="M304 199c4.858.442 6.753 1.429 10 5 2.214 1.302 3.433 2 6 2l1 3 2.75.438L327 210l2.188.313c2.494.946 3.394 2.489 4.812 4.687-1 1-1 1-4.562 1.16-4.265-.056-8.298-.778-12.446-1.726l-4.488-.971a2581 2581 0 0 1-6.964-1.548c-2.264-.503-4.53-.993-6.798-1.481l-2.084-.48c-4.212-.903-7.468-.914-11.658.046l-6 1c6.46-4.307 13.301-6.43 21-7l1-3 3-1z" id="svg-layer-21" style="pointer-events: all;"/><path fill="#222A45" d="M264.153 227.943 266 229c-51.74 30.743-51.74 30.743-77.937 24.625-4.725-1.287-4.725-1.287-7.063-3.625 3.25-.687 3.25-.687 7-1l1.758 1.46c3.173 2.179 6.158 1.948 9.867 1.852l2.167-.036c9.026-.24 16.056-1.786 23.981-6.253C228 245 228 245 232 245v-2l1.617-.664C239.76 239.72 245.31 236.47 251 233a348 348 0 0 1 5.875-3.5l2.68-1.594c2.445-.906 2.445-.906 4.598.037" id="svg-layer-22" style="pointer-events: all;"/><path fill="#06080F" d="M169 208h3v3l3.438.688c3.89.84 7.628 1.966 11.414 3.192 12.58 3.996 25.575 6.4 38.148 1.12 7.83-3 7.83-3 11-3v2c-3.06 1.152-6.124 2.295-9.187 3.438l-2.62.986-2.548.947-2.333.873c-16.534 5.407-33.29-.16-48.12-7.6L168 212z" id="svg-layer-23" style="pointer-events: all;"/><path fill="#1E253F" d="M104 221c-2.565 2.565-4.477 2.54-8 3v2l-2.013.899c-23.129 10.363-23.129 10.363-32.01 15.956C60 244 60 244 58 244l1-3 1.875-.875c2.793-1.479 3.569-3.437 5.125-6.125h2v-2l-2-1c3.034-1.351 6.078-2.678 9.125-4l2.594-1.156c4.651-2.004 8.13-3.22 13.281-2.844l2.938-1c3.493-1.14 6.41-1.146 10.062-1" id="svg-layer-24" style="pointer-events: all;"/><path fill="#232B47" d="M129.25 221.188c6.45 2.165 12.683 4.735 18.75 7.812l2.637 1.32c6.224 3.264 6.224 3.264 7.363 6.68-3.821-1.136-7.346-2.608-10.937-4.312-6.838-3.153-13.878-5.485-21.063-7.688l-2.535-.793c-6.241-1.688-12.111-.98-18.465-.207l-5.25.563L96 225c2.918-1.945 4.625-2.453 8-3v-2c7.15-3.575 17.96-1.145 25.25 1.188" id="svg-layer-25" style="pointer-events: all;"/><path fill="#27314C" d="M145 258c-3.625 2.417-6.784 2.636-11 3.063l-2.326.262c-4.103.454-8.174.744-12.299.925-5.544.426-10.313 2.503-15.338 4.755-4.745 2.092-4.745 2.092-8.037.995 1-3 1-3 3.703-4.5 15.248-6.448 28.929-9.477 45.297-5.5" id="svg-layer-26" style="pointer-events: all;"/><path fill="#03050B" d="m257 251 2 1v3l-4 1v2l-2.029.58c-3.095.885-6.19 1.778-9.284 2.67l-3.189.91c-6.111 1.768-12.078 3.713-18.007 6.024-9.116 2.987-21.206 2.943-30.491.816l1-2 1.848.016q4.17.029 8.34.046l2.908.026 2.822.01 2.587.016c2.59-.118 4.958-.599 7.495-1.114h4v-2l1.783-.494c6.773-1.944 13.22-4.416 19.717-7.131l2.992-1.234c7.106-2.94 7.106-2.94 9.508-4.141" id="svg-layer-27" style="pointer-events: all;"/><path fill="#5D6F95" d="m319 201 3.5.5c5.805.83 10.603 2.235 15.5 5.5l-1 6-3.312-1C330 211 330 211 327 211h-3v-2l-3 1-2-2 1-2-3 1c-2.687-1.937-2.687-1.937-5-4l-2 1v-4c3.175-1.587 5.678.02 9 1" id="svg-layer-28" style="pointer-events: all;"/><path fill="#35415E" d="M235 265c1.933 1.836 3.37 3.873 5 6-6.131 2.776-10.343 3-17 3v-3c-3 1-3 1-4 3l-5-2-2 6h-3c.34-2.895.557-4.537 2-7 3.087-1.953 6.396-2.941 9.875-4l2.762-.941c7.546-2.464 7.546-2.464 11.363-1.059" id="svg-layer-29" style="pointer-events: all;"/><path fill="#35415F" d="M214 98c3.99 4.787 6.062 11.013 5.965 17.273-.278 1.915-.278 1.915-.965 4.727-3.68-1.536-5.988-3.782-8.75-6.625l-2.422-2.477L206 109l1-3-3-1 2-3 2 2c2.625-.375 2.625-.375 5-1v2l2-1z" id="svg-layer-30" style="pointer-events: all;"/><path fill="#3B4766" d="m304 231 3.262.77c8.907 2.1 17.818 4.182 26.738 6.23l-3 1 .938 1.875L334 245c-5.644-1.63-5.644-1.63-7.625-3.687L325 240l-1.812.5c-3.318.758-5.196-.976-8.188-2.5a103 103 0 0 0-7.047-1.18C306 236 306 236 304.734 233.43z" id="svg-layer-31" style="pointer-events: all;"/><path fill="#0F142C" d="M325 128v2l-2.25 1.5c-6.214 5.65-8.08 15.617-9.187 23.688.572 4.992 2.337 9.196 4.246 13.824.936 2.348 1.67 4.524 2.191 6.988-5.265-4.616-7.573-11.741-8.46-18.516-.202-7.011.738-12.667 3.585-19.082.955-2.62 1.033-4.635.875-7.402l-6-1v-1a348 348 0 0 1 4.688-1.062l2.636-.598c2.836-.36 4.924-.05 7.676.66" id="svg-layer-32" style="pointer-events: all;"/><path fill="#35415E" d="M103 212h-3l-1 3-2 .25c-3.139.785-5.708 2.088-8.566 3.574-7.822 3.78-16.177 6.517-24.434 9.176v2l-4 2 1 2-5 2-2-3c38.5-24.259 38.5-24.259 49-21" id="svg-layer-33" style="pointer-events: all;"/><path fill="#37476D" d="m321.188 198.5 3.117.936 2.925.908 2.638.818C332 202 332 202 334 204c-3.491 1.164-4.414.763-7.812-.375-3.736-1.197-7.308-2.021-11.188-2.625-3.125-.862-6.23-1.75-9.312-2.75L304 198l-2 2-1-3-12-2v-1c10.915-2.538 21.782 1.368 32.188 4.5" id="svg-layer-34" style="pointer-events: all;"/><path fill="#35415E" d="M173 263c3.756.597 6.614 1.74 10 3.438 8.853 3.848 18.47 3.99 28 4.562v1h-8v3c-3-1-3-1-5-3l-1 2v-2l-2.082.035c-.901.01-1.802.018-2.73.027l-2.708.036C187 272 187 272 184 271v3l-3-1-.187-2.375L180 268c-2.562-1.312-2.562-1.312-5-2l-1 3z" id="svg-layer-35" style="pointer-events: all;"/><path fill="#37476D" d="m334 203 7 2v13c-2.722 1.361-4.183.704-7.125.063l-2.758-.59L329 217l4-3-1-2 5-1v-4l-3-2z" id="svg-layer-36" style="pointer-events: all;"/><path fill="#35415F" d="M64 261c1.063 1.813 1.063 1.813 2 4l-1 3-5-1 1 3-6 2v2h-2v6h-1c-.459-9.017-.459-9.017 3-13 2.907-2.16 5.91-4.115 9-6" id="svg-layer-37" style="pointer-events: all;"/><path fill="#5B6D93" d="m129.5 193.5 2.203.434q2.65.524 5.297 1.066l1 3-2.605-.656c-11.96-2.817-22.093-3.474-33.934.097C99 198 99 198 96 197c11.685-4.47 21.212-6.026 33.5-3.5" id="svg-layer-38" style="pointer-events: all;"/><path fill="#35415F" d="M80 253c1 3 1 3 0 6h-3l-2 2-2-1v2l-5 1 1 6c-2-2-2-2-2.125-4.625L67 262l-2-1q2.903-1.724 5.813-3.437c1.078-.639 2.157-1.277 3.269-1.934C77 254 77 254 80 253" id="svg-layer-39" style="pointer-events: all;"/></svg>