<svg xmlns="http://www.w3.org/2000/svg" viewBox="0 0 560 536"><path fill="#E4D7C6" d="M75 52c10.286-.545 19.94 1.122 30 3v2l3 2c.188 2.625.188 2.625 0 5h-8v-2l-7 1v3h3v3H85l1 8c-7.625 1-7.625 1-11 1v-7c-1 1-1 1-1.12 2.79l.006 2.363v2.669l.016 2.9.005 2.956c.005 3.128.018 6.256.03 9.385q.008 3.172.014 6.345.017 7.796.049 15.592l3-3 1 1q.039-2.47.063-4.937l.035-2.778C78 104 78 104 77 103c-.273-1.89-.273-1.89-.375-4.25l-.148-2.328C77 94 77 94 82 89v24h4v6h3l-1 3h-2c.125 1.875.125 1.875 1 4 3.063 1.25 3.063 1.25 6 2l-1-2 2.176.875q2.707 1.08 5.43 2.125l2.582 1 2.605 1c2.207 1 2.207 1 4.207 3h-5l-1 3 6 2v2h8c-.25-2.875-.25-2.875-1-6l-4-2h11l-1 2h-3v6a501 501 0 0 0 7.25-1.25l2.066-.332c4.43-.817 6.854-1.888 9.684-5.418l-5-1v3h-3v-2l-3-1c1-2 1-2 3.434-2.816.99-.247 1.982-.493 3.004-.746 5.41-1.362 5.41-1.362 7.562-2.438 2.125.438 2.125.438 4 1l2-3-3-1c1.375-1.5 1.375-1.5 3-3h2v-2l-2-1v-6h5v-8h2v6c2.9-2.395 3.502-4.312 4-8l-6 1-1-7c4.75-1.125 4.75-1.125 7 0v-9h-3v2c-1.75.75-1.75.75-4 1-2.25-1.812-2.25-1.812-4-4v-2h2l-1.562-1.875c-2.073-4.506-1.21-8.331-.438-13.125l-2.875-.437C141 68 141 68 139 67l1 5h-2v-2l-3-1v-4h-3l-1-3c-1.812-1.062-1.812-1.062-4-2s-2.188-.938-4-2l-1-3c9.971-1.705 19.558-2.286 29.672-2.23h4.374q4.544.003 9.086.024c3.855.017 7.71.021 11.565.02q4.502.001 9.003.013 2.131.005 4.262.006c18.113.02 18.113.02 23.038 1.167l1 2c-.937 2.125-.937 2.125-2 4l7 1v-2l-3-1v-1h9l1 4h10l-2-1c-.625-3.062-.625-3.062-1-6 8.204-1.14 16.363-1.164 24.629-1.168l4.555-.01q4.761-.009 9.523-.007c4.022 0 8.043-.014 12.065-.031q4.704-.015 9.408-.013 2.22 0 4.44-.013c12.931-.062 25.89.599 38.38 4.242l-2 4 3-2v-2l5.762-1.367C345 55 345 55 347.102 53.976c3.841-1.294 7.489-1.247 11.493-1.219l2.589-.006c2.819-.003 5.638.007 8.457.019h5.9q6.183.003 12.367.024c5.266.017 10.533.021 15.8.02q6.094.001 12.189.013 2.91.005 5.822.006 4.085.004 8.169.022l2.4-.002c4.621.027 9.104.35 13.685.97 3.395.296 6.681-.31 10.027-.823 7.275-.966 14.608-1.242 21.938-1.437l2.801-.141c2.553-.041 4.773-.001 7.261.578 2.608 2.724 3.83 4.447 4.242 8.21l-.367 2.165-.387 2.563L491 68a453 453 0 0 0-.457 4.063l-.48 4.312-.226 2.091c-.426 3.55-.955 6.464-2.837 9.534l-5-1-1-4 2-1c-.65-1.673-1.32-3.339-2-5l-.687-2.187c-2.098-2.898-4.949-3.065-8.313-3.813v-4h-8l-1-3-29 1-1 4-2.773-.035-3.602-.028-3.586-.035C420 69 420 69 418 70c-.414 1.848-.414 1.848-.625 4.063L417 78l1-2h2c.25 2.262.25 2.262 0 5-1.75 2.02-1.75 2.02-4 3.813l-2.25 1.832L412 88v-5l-3-1c-.795 3.066-1.45 6.143-2.062 9.25l-.536 2.703L406 96c5.75-1.875 5.75-1.875 8-3l-1 9-6-1 2 11 7-2c.195 1.457.38 2.916.563 4.375l.316 2.46C417 119 417 119 416 121h-2a141 141 0 0 0 5 5h2l2-2 2.063 1.875c3.396 2.457 5.897 3.174 9.937 4.125l-1 5h-5v-3h3-4a69 69 0 0 0-4 1c6.664 4.919 11.912 5.13 19.926 4.938C446 138 446 138 447 139c6.479.553 12.79-.062 19-2l1-1-11-1v-2l7-1v-2c2.434-1.217 4.418-1.32 7.125-1.562l2.758-.254L475 128l-3-2c1.498-2.772 2.562-4.7 5.188-6.5L479 118c.25-2.687.25-2.687 0-5l2.438-.687L484 111c.813-2.625.813-2.625 1-5h4l-.035 2.371c-.01 1.012-.018 2.024-.027 3.067l-.036 3.058C489 117 489 117 490 118c1.138 6.953 1.16 14.02 1.168 21.047l.01 3.075q.007 3.192.007 6.383c.003 3.25.02 6.5.04 9.749q.005 3.116.005 6.23l.022 2.927c-.017 4.964-.374 8.918-2.252 13.589a81 81 0 0 0-.625 5.375l-.227 2.648L488 191h-5v-5l-5-2 1-2c.454-5.34.454-5.34-1.16-7.687-2.592-1.85-4.38-1.54-7.527-1.375-3.659.104-6.708.147-10.188-1-5.877-1.777-12.119-.503-18.125.062h-3l-1.906.96c-2.294 1.14-4.055 1.43-6.594 1.665l-2.281.227c-2.07.138-4.145.148-6.219.148l-2 3-1-1 1 5 3-1v-2l3 1a622 622 0 0 1-3.375 4.5l-1.898 2.531L419 189h-2l-.312 3.375c-.627 5.003-1.783 9.948-3.688 14.625l-2 1-1-3-3-1q.214 2.156.438 4.313c.08.8.162 1.6.246 2.425C408 213 408 213 409 216c1.875-.312 1.875-.312 4-1l2-3 2 14h-4c1.37 3.161 1.99 3.993 5 6h5l2 2c2.318.72 4.651 1.391 7 2v6h-2v-3l-6-1 2 5 12 1v3h7v-2h5v3l9-1-2-2 2.414-.078c6.378-.342 10.743-.603 15.586-4.922l1-2-7 1c.125-1.75.125-1.75 1-4 2.586-1.926 5.118-3.56 8-5v2l4-2-.562-3.25c-.368-3.154-.483-4.848.562-7.75h4l.375-2.312C487 214 487 214 489 211c.597 5.823-1.472 9.92-4 15l4-2c2.002 13.174 2.341 26.199 2.316 39.51-.003 3.419.02 6.836.045 10.254.035 12.722-.701 24.782-3.361 37.236l-3-1 1 7 3 1q.08 4.313.125 8.625c.017.808.034 1.616.05 2.45.04 4.726-.348 8.479-2.175 12.925h3c1.122 10.067 1.22 20.117 1.24 30.233.01 2.8.041 5.598.072 8.398.07 12.074-1.044 23.512-3.312 35.369h-1v14l-3 1v-19l-6-3 2-1c-1.998-7.991-1.998-7.991-5-11-2.629-.355-2.629-.355-5.562-.187-5.293.26-5.293.26-7.438-.813-3.932-.27-7.873-.232-11.812-.25l-3.315-.062-3.205-.016-2.929-.028c-3.21.417-5.027 1.646-7.739 3.356-3.332.074-3.332.074-6.812-.312l-3.52-.364L420 398l-1 7h4l1-4 3 1c-2.735 4.787-5.366 8.91-10 12-.625 1.848-.625 1.848-1 4.063-.922 4.812-2.364 9.325-4 13.937l-2-3-4-1 2 10c3 1 3 1 7 0v9l-4 1c1.498 3.813 3.626 5.725 7 8 1.661.36 3.329.69 5 1 2.725 1.225 5.365 2.594 8 4l-4 3 2 1-8-2v2l9 3v2l3 1v2c6.185.966 12.15 1.021 18.375.625l2.09-.13c3.271-.235 6.389-.543 9.535-1.495l-2-3h2v-2l6-2-1 2 3 3v-2l3.438-1.375C478 465 478 465 479 463h-5l1-5h7l-.29-1.863c-.11-.809-.22-1.617-.335-2.45l-.352-2.425C481 449 481 449 483 446v-3l1-3 4 1-2 9h3l1 34-9.746-.035q-4.706-.011-9.413-.02-3.255-.008-6.509-.02c-3.13-.013-6.26-.018-9.39-.023l-2.909-.015c-5.061 0-9.974.247-14.996.874-2.924.343-5.841.456-8.783.555l-3.75.128-3.942.118-2.034.064c-9.717.298-19.43.476-29.153.499l-3.263.014-3.026-.006-2.624-.004C378 486 378 486 375.835 485.502c-3.56-.63-7.048-.655-10.65-.66l-2.363-.015q-3.915-.022-7.831-.032l-5.618-.03q-7.623-.04-15.246-.068c-5.312-.022-10.624-.05-15.936-.076a45015 45015 0 0 0-30.174-.138q-17.176-.076-34.353-.16-35.332-.17-70.664-.323v2c-3.797.08-7.367-.005-11.125-.562-3.413-.386-5.615-.327-8.875.562h-28v-1l-2.39-.018q-11.166-.086-22.333-.218a2461 2461 0 0 0-11.48-.11q-5.545-.041-11.088-.117a573 573 0 0 0-4.222-.035 562 562 0 0 1-5.93-.07l-3.406-.033c-3.65-.462-6.052-1.427-9.151-3.399-1.375-3.688-1.375-3.688-2-7h-2a221103 221103 0 0 1-.165-175.104l-.002-3.717c-.013-19.87-.037-39.738-.064-59.607a56778 56778 0 0 1-.051-61.153q-.005-18.87-.042-37.74-.023-12.936-.017-25.873c.002-4.978 0-9.955-.017-14.932q-.02-6.837-.005-13.674.003-2.471-.012-4.943C60.581 69 60.708 61.702 64 54l5-1 1 3h3zm247 9-.75 2.375c-1.47 3.087-2.148 3.412-5.25 4.625q-2.526.358-5.062.625c-4.525.814-4.525.814-6.29 3.21C303.84 73.93 303.246 75.77 303 78l1 2 2-3 3 1c-.75 2.938-.75 2.938-2 6-2.125.875-2.125.875-4 1v-2c-3.875.875-3.875.875-5 2-.439 3.19-.564 6.41-.75 9.625l-.207 2.7c-.33 5.744.026 9.66 2.957 14.675l3 1v-5h2l.375 2.75c.553 2.876 1.306 4.7 2.625 7.25v3l-1-4h-4c-.25 2.313-.25 2.313 0 5 1.75 1.875 1.75 1.875 4 3 2.125-.437 2.125-.437 4-1 2 2 2 2 2 5 2 2.188 2 2.188 4 4l1-4h2l1 3 7 1-2 6 7 2v1c6.152.098 6.152.098 8 0l1-1c1.33-.134 2.665-.231 4-.312 5.198-.501 9.382-2.34 14-4.688-1-2-1-2-2.848-2.633l-2.214-.492-2.223-.508L351 132l2.117-.586 2.758-.789 2.742-.773C361 129 361 129 363 127c2.625.375 2.625.375 5 1 3-5.625 3-5.625 3-9l-2-2 .938-2.562c1.077-3.488 1.628-6.82 2.062-10.438 1 1 1 1 1.063 4.563L373 112h2l1-5h3l1-4-5-2v-5h4l2 2q-.212-2.437-.437-4.875l-.247-2.742C380 88 380 88 379 86h-2v2c-4.034-2.071-5.929-3.966-8-8l2-3c-.566-6.566-.566-6.566-2-8-2-.04-4-.043-6 0l-1 2-4-3 2-3q-6.243-.43-12.488-.854l-4.242-.292q-3.06-.21-6.122-.416l-3.713-.254C330 63 330 63 326.678 63.098 324 63 324 63 322 61m-111 2-1 4-8 1v-2c-7.505 2.217-7.505 2.217-10 5-.25 3.688-.25 3.688 0 7l2-1-1 8h-5v-2h3v-2c-2.875.31-4.566.612-6.75 2.563-1.777 3.465-1.927 6.562-2.25 10.437 2.892.826 4.887 1 8 1l-1 5h-7c.714 8.571.714 8.571 4 12l5-2q.251 2.188.5 4.375l.281 2.46C192 119 192 119 192 121l-3-1c1.487 3.726 3.52 5.488 6.75 7.813l2.547 1.894c3.402 1.627 5.094 1.157 8.703.293h4l-1.5 1.313C208 133 208 133 208 136l-3-2 1-2-5 2v2l1.758.586 2.367.789 2.52.82C210 139 210 139 212.812 140.25c5.082 1.196 10.046.366 15.188-.25v1c6.701.487 11.066-.923 17-4v-2l-7-1v-2l1.828-.297C248 130.174 248 130.174 251 126v-2h2l.938-1.875L256 118v-2.562c0-2.438 0-2.438 1-3.438.4-2.689.751-5.364 1.063-8.062l.275-2.3q.336-2.817.662-5.638l2.375.063C264 96 264 96 266 95c.178-4.548-.002-7.88-2-12h-4v5h-3l.063-3.25c-.049-2.898-.195-5.036-1.063-7.75h3c-1.491-4.723-1.491-4.723-4.062-6.125L253 70l-1-3-8-1v2h-5c2-2 2-2 4-3-3.733-3.733-16.676-2.055-22.062-2.068q-4.969.013-9.938.068m223 101v2c6.068 1.084 10.101.79 16-1v2q2.219.039 4.438.063l2.496.035C459 167 459 167 460 166c2.655-.455 5.322-.702 8-1-4.32-4.32-13.255-3.183-19.125-3.187l-2.34-.038c-4.58-.011-8.223.482-12.535 2.225m-222 0v4h3l1 4v-2h2l1-2h11l1 3 4-1v-2l3-1v-2c-7.037-3.519-18.453-2.192-26-1m-101 6-1 3-2.09.184C90.241 174.759 90.241 174.759 89 176c-.04 2-.043 4 0 6l7-2-1 2-3 1-1.5 2.5C89 188 89 188 86 189l-2-2-1 5-2-3h-2l-1 7h-2l-2-2c-1.22 4.783-1.184 9.474-1.187 14.375l-.038 2.5c-.012 5.103.577 9.29 2.225 14.125l4-1 1-5h-3v-4h4v-10h-5l2-7h2l1-5h2l-.5 3.688c-1.04 9.453-.69 18.892.5 28.312l-4 1c1.496 4.488 5.008 6.801 9 9 3.438.813 3.438.813 6 1l1 3-6-1v3c2.768 2.614 5.14 4.626 9 5a70 70 0 0 0 4-1h4v5h4v2h5v-4c3.917-1.16 7.512-1.036 11.563-.937 2.314-.06 4.225-.408 6.437-1.063v-3h2v-2h4l.195-2.34C140 236 140 236 142.18 234.56l2.695-1.121c3.787-1.596 6.023-2.829 8.125-6.438-.312-2.312-.312-2.312-1-5a98 98 0 0 1 0-7l1-1a80 80 0 0 0-.121-4.91l-.147-2.998-.17-3.155-.158-3.166q-.195-3.885-.404-7.771l-6-3h2l-.5-2.312c-.662-3.561-.5-7.075-.5-10.688q-2.437-.251-4.875-.5l-2.742-.281C137 175 137 175 135 175l-1-2-1.547.527c-3.323.64-6.336.316-9.703.036l-3.828-.31L116 173l-1-3zm220 1-1 2c-6.625.125-6.625.125-10-1-2.437.813-2.437.813-5 2l-2.25.875C311 176 311 176 310.125 178l-.125 2 2 2 2-1c-1.699 4.828-1.699 4.828-3 7l-2.562.875L306 190c-.801 2.229-1.202 4.4-1.598 6.734-.46 2.597-1.319 4.867-2.402 7.266h-5c-.369 9.41-.369 9.41 2 14l4-3 2 7-5 1 1 5 5-2-3 3 2 4 3-1 1-2 2.25 2.875c2.028 2.45 3.708 3.998 6.75 5.125h-7v3c3.534 2.12 6.944 2.532 11 3l-2 1 1 3 1.625-.437c2.774-.658 5.56-1.115 8.375-1.563l-1 5c2.875.188 2.875.188 6 0l2-3c3.117-.73 3.117-.73 6.875-1.187 1.235-.16 2.47-.318 3.742-.481C352 246 352 246 356 246a78 78 0 0 0 5-2v-3h-2l1-5c6.848-1.975 6.848-1.975 9.313-2.375 1.687-.625 1.687-.625 3-2.5C373 229 373 229 372 226l-1 2-1-4h3l-1-10 4 1 1-4h2v5h2v-13l-1 4-5-1-1-6 2-1q.062-3.5 0-7c-1-1-1-1-3.562-1.062L370 191v-5h-3c-1.671-.31-3.339-.64-5-1l-1-4h2l1 3 4-1c.625-2.875.625-2.875 1-6-2-2-2-2-4.562-2.062L362 175l-1-1c-2.02-.072-4.042-.084-6.062-.062l-3.348.027L349 174v-3h-5v1h-6v-1zm-120.863 2.535c-2.407.524-4.495.464-6.95.34-3.516-.112-4.099.067-7.25 2.125L194 178l1 5 3 1-3.809 4.395C193 190 193 190 192 193l-1-2-4 1v-2l4-1v-2c-3.558.962-4.78 1.659-6.812 4.813-1.13 3.032-1.47 4.998-1.188 8.187l3 1 1-4 3 1-2 8-3-2-3 1c-.362 7.37-.362 7.37 1.188 10.063 2.55 1.318 4.13.735 6.812-.063v7l-5 1c.901 3.966 1.624 5.69 4.813 8.313 2.917 1.544 5 2.1 8.187 2.687 2.313 1.563 2.313 1.563 4 3l-5 1c.063 1.813.063 1.813 1 4 3.375 1.625 3.375 1.625 7 3l3 2h4l1 3 7 1 1-3 3.035-.078c8.79-.332 14.5-1.045 21.34-6.984C247 239 247 239 248 236c2.629-1.519 4.997-2.808 7.996-3.383 3.747-1.154 5.94-4.413 8.004-7.617.375-2.937.375-2.937 0-5h-3l-2 8h-2l2-13 2 2c3.125.125 3.125.125 6 0v-5l-1 2h-2l1.125-3.562c1.576-6.828.039-13.645-1.125-20.438-3.42-.73-6.499-1.1-10-1v-5h-2l2-3c.125-2.688.125-2.688 0-5-3.648-1.61-7.03-2.559-11-3l-2 1a83 83 0 0 1-4-1c-8.914-1.036-18.13-1.797-26.863.535M430 282l1 2 5-1 1 2 1.793-.473 2.394-.59 2.356-.597c2.457-.34 2.457-.34 4.644.098 4.2.84 8.355.666 12.625.625l2.678-.014q3.255-.02 6.51-.049v-2c-7.407-3.584-16.123-3.201-24.187-3.25l-2.616-.062c-5.188-.032-8.663.492-13.197 3.312m-222 0 1 2c4.547 1.18 8.283.86 12.875.063l3.492-.59L228 283v2c5.407.106 9.88-.293 15-2-4.6-4.6-14.565-3.183-20.75-3.187l-2.824-.038-2.723-.005-2.448-.013c-2.48.267-4.109 1.003-6.255 2.243m118-2 1 4h4l1 3c2.438-.375 2.438-.375 5-1l1-2h11v3h3v-2l4 1v-2l3-1-1-2a89 89 0 0 0-7.437-1.125l-2.2-.255c-7.562-.83-14.866-1.198-22.363.38m116.75 7.188-2.042.054c-4.97.286-7.762 1.836-11.708 4.758-2.875.75-2.875.75-5 1v-2h-6v2h2l1 2h-2l-1 4h-2l2 4 4-2a564 564 0 0 1-3.375 4l-1.898 2.25L415 309h-2l1-3h-5c-1.998 4.12-2.178 7.452-2 12h3c1.34.306 2.675.635 4 1l-1 6-6-1c-.32 4.576-.036 7.44 3 11 2.688.313 2.688.313 5 0 1.563 2.813 1.563 2.813 3 6-1 3-1 3-3 4v2c2.313 2.188 2.313 2.188 5 4l3-1c1 0 1 0 4.375 1.5C431 353 431 353 434 353l1 3c10.028.324 19.754-.542 29.697-1.739q2.385-.27 4.778-.471l2.416-.216 2.172-.173c3.422-.709 4.951-2.67 6.937-5.401.813-2.812.813-2.812 1-5h-2c.25-2.875.25-2.875 1-6 2.063-1.375 2.063-1.375 4-2l-3-1 1-2 4 1 1-9-4-1 .105-3.613q.043-2.35.082-4.7l.077-2.38.029-2.295.048-2.11c-.44-2.46-1.551-3.225-3.341-4.902a90 90 0 0 1-1-6c-.605-2.355-1.301-4.67-2-7a249 249 0 0 0-14.418-1.742c-1.63-.163-3.26-.352-4.883-.578-5.332-.7-10.582-.727-15.949-.493m-344.806 4.097C94.998 292.368 92.11 292.67 89 293v2h-2v7l2-1v4h-2v2l-4-2c-5.875 3.75-5.875 3.75-7 6l-.488-5.957C75 303 75 303 72 300v43l5-1v-6h2c.054-2.125.093-4.25.125-6.375l.07-3.586C79 323 79 323 77 321l1.5-1.75C80 317 80 317 80 313h2l-.219 1.66c-.913 7.8-.875 15.498-.781 23.34h3v3h2c-.375 2.438-.375 2.438-1 5l-2 1 2 4h4c3.132.595 5.856 1.743 8.75 3.063l2.422 1.097L102 356v2h-8c.563 1.938.563 1.938 2 4 3.625.75 3.625.75 7 1l-2-1v-2c3 2 3 2 4.625 4.125 3.562 2.812 6.996 2.212 11.375 1.875v-2h2v2q2.187.079 4.375.125l2.46.07C128 366 128 366 130 364q3.491-.562 7-1l2-1-1-3h-4l-1-4 2.188.063c5.447-.122 10.86-1.112 14.812-5.063l-1-3-2 2v-4l4-1v-2h-2c1.875-4.875 1.875-4.875 3-6 .883-6.32 1.1-12.75 1.25-19.125l.078-3.258L153 311l-3-2-.937-2.062C148 305 148 305 145.875 304.25L144 304l1-2 4 1c.307-6.756.307-6.756-2-10-2.348-.574-2.348-.574-5.062-.687-4.87-.245-4.87-.245-5.938-1.313l-3.5-.5c-3.5-.5-3.5-.5-4.5-1.5-3.659-.283-7.332-.232-11-.25l-3.082-.062c-5.79-.03-10.57.465-15.974 2.597m108.119.851C204 293 204 293 201 293l3-2c-7.284.597-7.284.597-10 2.125-1.556 2.917-1.183 5.641-1 8.875l4-1v-2h2c-.985 2.198-1.813 3.82-3.562 5.5-1.701 1.775-2.026 3.11-2.438 5.5l-4-1 1-3-5 1c-1.591 4.177-2.213 7.532-2 12h3v-2l4 1-2 8-1-2h-5c.114 1.46.242 2.917.375 4.375.07.812.14 1.624.21 2.46C183 333 183 333 185 335c2.625.125 2.625.125 5 0v-2h2l1 10h-2l-3 1c.75 1.938.75 1.938 2 4 2.125.75 2.125.75 4 1v2h4v-3c1.708 1.634 2.935 2.87 4 5l2.938.313L208 354c1.375 2.563 1.375 2.563 2 5h-8v2l7.52 2.148C212 364 212 364 215 366c10.918 1.78 22.336.428 32-5 1.844-1.668 1.844-1.668 3-3q-2.188.212-4.375.438c-.812.08-1.624.162-2.46.246C241 359 241 359 239 360l1-3-3-1 2.16-.332c14.149-2.342 14.149-2.342 17.34-6.73C257 347 257 347 256 345l3-2-2-1 .219-1.844C260.4 310.102 260.4 310.102 255 302c.031-2.74.555-5.284 1-8l-2-1-2 1v-2l2-1c-3.383-1.128-4.768-.818-8.187-.062l-2.731.59L241 292v-2c-4.985-1.437-9.973-1.264-15.125-1.312l-3.016-.088c-6.318-.054-11.06.848-16.796 3.536M320 292v-2c-6.357.489-6.357.489-9.437 2.938C309 295 309 295 309 297l-2 1v2l-1 2c3.875-.875 3.875-.875 5-2-.25 2.875-.25 2.875-1 6-2.062 1.375-2.062 1.375-4 2l-1-3-4 1 .688 1.75L302 310l-1.5 1.875C299 314 299 314 299.313 317.25L300 320l4-1 1-6c1 1 1 1 1.114 3.041l-.016 2.65-.01 2.862-.026 3.01-.013 3.021A2110 2110 0 0 1 306 335l3 1v6h-5c.726 4.212 2.544 5.912 5.902 8.422l2.036 1.328 2.027 1.36c2.497 1.092 3.482.594 6.035-.11l2 2-5 3c2.32 3.479 3.053 3.564 6.938 4.563 3.28.855 5.19 1.522 8.062 3.437 2.043.195 2.043.195 4.188.125L340 366l1-6 2 6c3.375.188 3.375.188 7 0l2-3c2.32-.45 4.547-.502 6.906-.594L361 362l2-3c-1-1-1-1-4.562-1.062L355 358v-4l1.934-.184 2.503-.253 2.497-.247C364 353 364 353 365 352a100 100 0 0 1 5 0v-2h-2c.75-1.938.75-1.938 2-4 2.125-.75 2.125-.75 4-1v-2h-3c.25-2.875.25-2.875 1-6 2.047-1.195 2.047-1.195 4-2 .145-4.229.234-8.457.313-12.687l.126-3.631c.122-8.754.122-8.754-1.574-11.56-1.385-1.329-1.385-1.329-3.865-3.122v-2h2c.125-3.375.125-3.375 0-7l-2-2 1-2c-.592.095-1.183.19-1.793.29-.395.054-.395.054-2.394.335l-2.356.352c-2.948.028-4.728-.876-7.457-1.977a147 147 0 0 0-8.187-1.125l-2.298-.249c-10.392-1.072-17.732-.792-27.515 3.374m-61 16c.087 1.626.195 3.25.313 4.875l.175 2.742C260 318 260 318 263 320l1 3-4 1v14c4-1 4-1 5.27-2.906 1.081-4.58.716-8.923.418-13.594l-.147-2.84c-.242-4.321-.622-8.423-1.541-12.66-2 0-2 0-5 2m121-2v2l-3 1 1 8 4 1c-1.75 5.75-1.75 5.75-4 8-.195 2.383-.195 2.383-.125 5.125l.055 2.758L378 336h3c4.128-9.081 3.908-20.448 1-30zm69 52-1.625 1.5C446 361 446 361 446 363c6.796 2.265 14.272 1.147 21-1 3.063-1.625 3.063-1.625 5-3-3.092-1.546-5.685-.603-9 0l-1 1-2-4a293 293 0 0 0-4.375-.125l-2.46-.07C451 356 451 356 449 358m-240 30v3q3.125.039 6.25.063l3.516.035c2.659-.08 4.699-.428 7.234-1.098l1 1c2.186.073 4.375.084 6.563.063l3.628-.028L240 391v-4c-5.352-.892-10.642-1.138-16.062-1.187l-2.038-.04c-4.707-.009-8.48.773-12.9 2.227m118-2-2 3c6.546 3.095 10.157 3.055 17 1 1.665-.34 3.331-.677 5-1l1 3c3.492.1 6.594-.222 10-1l-1-4c-6.12-1.13-12.044-1.22-18.25-1.25l-3.336-.062-3.18-.016-2.899-.028zm108 2-1 3c4.77 1.136 7.442.649 12-1 2.875-.125 2.875-.125 5 0v2l5 1v-3l1.688.563c2.711.513 4.656.101 7.312-.563v-2c-8.645-4.323-21.056-2.091-30 0m-329 0 2 4 14-1 1 2h2v2l3-1 1-2 3-2c-3.656-3.656-8.48-3.128-13.385-3.137l-2.302.012-2.338-.012c-5.722.01-5.722.01-7.975 1.137m101 10c-2.728.325-4.469.177-7.062-.687C198 397 198 397 195.75 398c-1.75 2-1.75 2-2 5.688L194 407l2-1c-.547 3.375-1.055 5.082-3 8l-3 1v-3h-5c-1.802 3.83-2.196 6.781-2 11h3l1-2 3 2-2 8h-2v-3l-4 1c-.125 6.625-.125 6.625 1 10 4.75 1.125 4.75 1.125 7 0v8h-3c.828 3.104 1.475 5.436 3.688 7.813 3.053 1.568 5.919 1.86 9.312 2.187l1 3-4 2c3.065 3.448 6.43 5.582 10.39 7.852L209 471v2c3.094 1.547 6.41 1.428 9.813 1.625l2.297.134c7.59.378 15.616.666 22.89-1.759.688-2.062.688-2.062 1-4l3.375-.75C252 467 252 467 253.438 464.875c.185-.619.37-1.238.562-1.875l-8-1c3.19-3.921 7.488-4.464 12.188-5.742 3.436-1.537 4.323-2.845 5.812-6.258.188-3.813.188-3.813 0-7h-3v2h2v2h-4l1 5-4 2 .93-3.777c1.235-5.56 1.737-11.117 2.195-16.786l.262-3.056q.315-3.69.613-7.381l6 2-1-13-9 1c-1.323-4.96-1.089-9.911-1-15-3.188-1.594-6.629-1.102-10.125-1.062l-2.285.013q-2.795.02-5.59.049l-1-3a762 762 0 0 0-11.125-.25l-3.172-.102c-6.348-.08-9.789.286-14.703 4.352m115-2c-2.417.081-4.709-.05-7.117-.223L313 396c-2.43 3.644-2.162 5.712-2 10h2v-3h2l-4 9-2-1c-3-.187-3-.187-6 0-3.099 3.099-2.99 5.391-3.062 9.75L300 424l4-1 1-8h2q-.212 2.438-.437 4.875l-.247 2.742C306 425 306 425 305 427c-3.062.625-3.062.625-6 1-.51 10.804-.51 10.804 3 16 .545 2.675.769 5.272 1 8l5 2 1-2h-2l2-4c1.858 3.135 2.201 5.375 2 9l2.125.813c3.04 1.255 5.948 2.69 8.875 4.187h-7c.246 1.86.246 1.86 1 4 1.848 1.266 1.848 1.266 4.063 2.25l2.222 1.016c.283.12.283.12 1.715.734l-1 2c5.635 2.385 10.927 2.333 16.938 2.313l2.92.048c5.883.004 9.933-.607 15.142-3.361l2.652-1.387 2.286-1.3 2.34-1.325L367 466v-3l-6-1c2.346-2.771 4.148-3.52 7.688-4.187.808-.16 1.616-.318 2.449-.481L373 457l-1-3-2 1c.602-2.02 1.273-4.021 2-6l2-1-1 5c3.275-.974 4.762-1.69 6.875-4.437C381 446 381 446 380 443l-1 4-4-1-1-6 3-1c.185-16.708.185-16.708-1-25l-1.89-.277C372 413 372 413 370.25 409.437L369 406h3c.362-5.426.362-5.426-1.062-7.687-2.978-2.017-5.586-1.598-9.125-1.5l-3.856.082L355 397v-3c-4-.059-8-.094-12-.125l-3.41-.05c-6.288-.038-11.555.467-17.59 2.175m-205 0c-2.268.203-4.54.364-6.812.5-3.547.213-6.953.457-10.45 1.094C97 398 97 398 94 397c-2.687.438-2.687.438-5 1-.93 2.606-1.15 3.642-.062 6.25L90 406l2-1a101 101 0 0 1-2 6l-2 1-2-2v4l-2-1-3-1c-3 2-3 2-3.687 4.625L77 419h-3c-.341 3.145-.671 6.291-1 9.438-.095.878-.19 1.756-.29 2.662-.511 4.958-.749 9.793-.679 14.775-.04 2.71-.427 5.351-.804 8.031-.436 4.02-.33 8.055-.29 12.094l.014 2.637q.02 3.18.049 6.363l3-1c-.01-.589-.02-1.178-.032-1.785-.042-2.717-.067-5.435-.093-8.152l-.05-2.807c-.043-6.075.643-11.374 2.175-17.256h2l-.25-3.312L78 437l4-3 1 12-4 2 2 3h2v-3h2l1 5-3-1 2 5h4c2.483 1.13 4.668 2.565 7 4l-7 1v2c5.68 2.491 8.945 3.388 15 2v3l-4 1v2h3v2c5.145 1.51 10.369 1.184 15.688 1.188l3.185.037c13.888.026 13.888.026 18.127-2.225l2-5-11 1c9.5-3.125 9.5-3.125 14-2l3-2v-2l-11-1a158 158 0 0 1 10.563-4.937c4.627-2.057 8.3-3.997 10.812-8.563.66-2.643.56-3.975-.375-6.5l-.812 2.438L156 447l-3 1c-.098-6.152-.098-6.152 0-8l1-1c.59-7.965-.36-16.065-1-24l-5-2 1-3-3-1-1-2h2l1-8c-5.834-.796-11.62-1.27-17.5-1.562l-2.492-.131q-3.004-.156-6.008-.307v-2c-2 0-2 0-5 1m261 17 1 9h2c.188 2.875.188 2.875 0 6l-3 2 1 9 4 1c3.469-6.938.745-18.496 0-26zm-224 1c.466 5.707 1.938 9.16 5 14l-4 1a758 758 0 0 0-.062 4.938l-.036 2.777C155 439 155 439 156 440c1.666.04 3.334.043 5 0 .914-5.729.952-10.648.125-16.375l-.277-2.152c-.697-5.17-.697-5.17-1.848-7.473z" id="svg-layer-0" style="pointer-events: all;"/><path fill="none" d="M0 0h560v536H0zm50.063 31.125-2.153 2.133C41.78 42.06 42.58 52.072 42.633 62.3l-.01 5.311c-.009 4.852.001 9.703.014 14.555.011 5.237.005 10.475 0 15.712-.005 10.255.005 20.51.02 30.765.018 11.945.02 23.89.02 35.833q.005 31.971.042 63.941.035 31.017.04 62.033l.001 3.86.002 7.695v3.835l.001 3.825q.007 29.565.028 59.13l.01 21.424q.006 16.994.027 33.987.011 7.764.012 15.528.002 7.11.016 14.221.003 2.569.002 5.138c-.011 23.769-.011 23.769 3.892 31.344l1.484 2.996c1.972 2.865 3.646 4.081 6.766 5.566h2l1 3c4.264 5.116 8.221 6.599 14.687 7.664l2.27.383c8.187 1.28 16.285 1.371 24.554 1.334q2.542.005 5.086.014c4.607.013 9.215.007 13.822-.003 4.989-.007 9.977.004 14.965.012 9.75.013 19.5.01 29.25.002q11.885-.01 23.77-.005l3.426.002 6.889.003c21.494.008 42.989-.002 64.483-.018q27.654-.018 55.31.003a54539 54539 0 0 0 71.154.01l3.406-.001q11.876-.003 23.75.009 14.467.013 28.932-.01 7.377-.013 14.755-.001 6.756.013 13.512-.012 2.441-.005 4.882.006c8.208.034 15.44-.133 23.097-3.392l-1-2c-2.562-.625-2.562-.625-5-1l2.746-.883c17.49-5.885 17.49-5.885 22.254-13.18 1.755-5.156 2.126-9.753 2.129-15.2l.005-2.196c.005-2.434.002-4.869 0-7.303l.007-5.282q.008-7.265.004-14.53c0-5.222.006-10.444.01-15.665q.012-15.351.012-30.702 0-12.48.006-24.961.014-35.384.012-70.767v-7.715q.002-30.948.023-61.896.023-31.778.02-63.554-.001-17.84.014-35.68.014-15.195.005-30.389-.007-7.749.005-15.498.011-7.102-.002-14.205-.003-2.562.005-5.122c.084-27.3.084-27.3-6.255-34.272-9.82-9.703-16.933-12.118-30.625-12.131l-2.204-.007q-3.637-.006-7.276-.002l-5.284-.01q-7.246-.01-14.493-.01c-5.213-.002-10.427-.01-15.64-.016q-17.093-.02-34.184-.024l-21.345-.012q-29.555-.019-59.11-.026h-7.647l-7.68-.002h-3.848q-30.879-.009-61.756-.046-31.708-.035-63.415-.037-17.801.001-35.602-.025-15.153-.023-30.307-.012-7.73.008-15.46-.011-7.08-.019-14.16 0a817 817 0 0 1-5.116-.01c-22.46-.107-22.46-.107-29.785 7.506" id="svg-layer-1" style="pointer-events: all; fill: none;"/><path fill="#2F251A" d="m82.34 23.626 5.285-.012c4.825-.01 9.65-.003 14.474.008 5.21.01 10.42 0 15.63-.005 10.2-.01 20.4-.003 30.6.009 11.882.014 23.764.012 35.646.01q31.804-.003 63.61.028 30.85.029 61.7.02a86425 86425 0 0 1 77.942.011q12.418.006 24.837.002 15.138-.003 30.277.017 7.721.013 15.443.007 7.074-.006 14.147.014 2.553.004 5.107-.002c24.606-.054 24.606-.054 32.18 7.474L511 33q1.644 1.267 3.313 2.5c5.835 5.429 6.235 11.988 6.687 19.5.144 5.797.144 11.592.14 17.39l.01 5.303q.01 7.26.01 14.52c.002 5.226.01 10.453.016 15.68q.02 17.124.024 34.25l.012 21.39q.019 29.617.026 59.235v7.66l.003 11.548q.008 30.942.045 61.884.035 31.777.037 63.554-.001 17.838.025 35.676.023 15.183.012 30.364-.008 7.745.011 15.491.019 7.092 0 14.184-.004 2.563.01 5.127c.092 19.403.092 19.403-5.631 26.557-6.828 5.431-12.414 7.338-21.08 7.327l-2.255.009q-3.76.01-7.52.012-2.715.007-5.429.015-7.476.02-14.953.028-6.41.01-12.818.027a39685 39685 0 0 1-42.234.073l-10.996.015a109357 109357 0 0 1-84.096.086l-3.971.003c-21.228.017-42.455.058-63.683.11q-32.687.076-65.374.087c-12.236.005-24.472.02-36.708.06q-15.632.052-31.264.036a2357 2357 0 0 0-15.947.028q-7.306.04-14.613.004a433 433 0 0 0-5.273.022c-10.322.1-18.826-.41-27.536-6.755-2.037-2.333-2.82-4.052-4-7l-1.187-2.312c-2.889-9.555-1.96-20.227-1.953-30.116l-.01-5.316q-.01-7.276-.01-14.554c-.002-5.238-.01-10.477-.016-15.716q-.02-17.165-.024-34.331-.005-10.72-.012-21.44-.019-29.686-.026-59.374v-7.679l-.003-11.574a66388 66388 0 0 0-.045-62.03q-.035-31.85-.037-63.703.001-17.88-.025-35.76-.023-15.218-.012-30.435c.004-5.176.003-10.352-.011-15.528q-.019-7.108 0-14.217.004-2.57-.01-5.14c-.089-18.794-.089-18.794 5.291-26.517l2.153-2.133 2.097-2.18c8.987-6.156 19.748-5.368 30.18-5.32M495 37v2c-8.366.86-16.565 1.08-24.969.879l-3.735-.072c-3.932-.075-7.864-.16-11.796-.245-40.222-.855-80.426-.56-120.653-.17-52.522.505-105.043.72-157.568.73q-9.13.004-18.261.01-12.357.01-24.715.002-4.567-.001-9.134.002-6.281.004-12.562-.007l-3.667.007c-6.488-.017-12.878-.288-19.337-.912-3.789-.326-7.553-.335-11.353-.286l-2.148.013Q72.55 38.971 70 39c2.644 2.644 4.254 2.415 7.938 2.688l3.214.261C84 42 84 42 87 41v2l-2.117.148-2.758.227-2.742.21C77 44 77 44 75 46a113043 113043 0 0 0 127.727.167c14.196.013 28.392.037 42.588.064q21.835.042 43.67.051 13.483.005 26.966.042 9.235.023 18.47.017c3.556-.002 7.113 0 10.67.017 3.848.017 7.696.011 11.545.003l3.437.026 3.105-.018 2.695.004L368 46l2-3c2.098-.38 2.098-.38 4.742-.385l3.033-.03 3.34.014 3.51-.02c3.846-.02 7.692-.02 11.54-.02q4.001-.018 8.004-.04c7.764-.041 15.529-.06 23.293-.077q14.79-.032 29.583-.107c4.601-.023 9.202-.03 13.804-.033l7.259-.03 3.303.007c5.868-.04 10.998-.434 16.589-2.279 2-2.125 2-2.125 3-4-3 0-3 0-6 1m-68.437 7-5.432.29q-6.566.349-13.131.71v1q14.982.266 29.963.495 6.956.104 13.913.229 6.71.119 13.421.214 2.563.039 5.126.088 3.584.067 7.168.11l2.15.05c3.673.031 5.108-.085 8.259-2.186-2.926-.823-5.642-1.178-8.676-1.316l-2.763-.127-2.873-.12-2.745-.13c-14.85-.651-29.555-.123-44.38.693M61 54c-1.245 3.63-1.131 7.188-1.14 10.998l-.009 2.145q-.01 3.577-.012 7.153l-.015 5.166q-.02 7.112-.028 14.224-.01 6.097-.027 12.193c-.033 13.39-.054 26.78-.073 40.169l-.015 10.456a98884 98884 0 0 0-.086 79.947l-.003 3.775c-.017 20.19-.058 40.379-.11 60.568q-.076 31.08-.087 62.16c-.005 11.637-.02 23.274-.06 34.91a6274 6274 0 0 0-.036 29.725c.006 5.056.002 10.112-.028 15.168q-.04 6.944-.004 13.887.005 2.51-.022 5.023c-.153 15.06-.153 15.06 5.023 21.028 6.596 4.97 17.073 3.578 24.857 3.493l3.418-.002c9.059-.048 9.059-.048 13.45-.694 5.634-.822 11.326-.597 17.007-.555l12 .063v1h28l3.438-.562c4.259-.555 8.212-.211 12.46.308C181 486 181 486 183 486v-2q37.03.16 74.06.34 17.193.083 34.386.157 14.984.065 29.967.14 7.935.04 15.871.072 7.467.03 14.934.071 2.742.015 5.485.023 3.74.014 7.483.039l2.196.003c3.673.03 7.037.355 10.618 1.155 2.507.093 4.985.14 7.492.133l2.216.004c2.389.002 4.778-.005 7.167-.012l2.465-.003c16.234-.02 32.44-.463 48.66-1.122v1q9.151.149 18.304.22 3.11.03 6.218.082c2.992.049 5.982.071 8.974.089l2.776.062c7.377.003 13.525-1.66 19.166-6.578 4.44-8.172 3.834-17.866 3.773-26.905q-.004-2.187-.005-4.375c-.005-4.107-.023-8.214-.042-12.32-.02-4.609-.028-9.217-.037-13.825q-.03-13.044-.077-26.09-.056-16.491-.093-32.982l-.005-2.318-.027-11.898a123557 123557 0 0 0-.297-110.02l-.009-2.728q-.066-22.194-.124-44.39-.06-23.061-.132-46.122-.04-12.844-.072-25.687-.026-10.836-.064-21.674-.02-5.51-.03-11.02-.013-5.972-.039-11.945l-.003-3.492c-.03-6.1-.142-12.06-1.155-18.084-5.832-5.548-13.808-6.25-21.53-6.254l-2.172-.01c-2.39-.008-4.78-.003-7.171.003l-5.207-.011c-4.761-.01-9.522-.008-14.283-.004-5.138.002-10.276-.007-15.413-.014q-15.09-.018-30.182-.012-12.26.002-24.523-.005l-3.524-.001-7.089-.004q-33.233-.013-66.467-.003c-20.281.006-40.563-.006-60.845-.025q-31.228-.03-62.455-.024c-11.69.002-23.382 0-35.073-.014q-14.922-.019-29.846-.002-7.617.011-15.234-.005-6.968-.014-13.935.007-2.526.004-5.051-.008c-2.283-.01-4.565-.002-6.848.011h-3.847C67.574 48.162 63.979 50.275 61 54" id="svg-layer-2" style="pointer-events: all;"/><path fill="#AD886A" d="m437 170 2.602.535c3.463.474 6.31.3 9.773-.097 4.656-.421 8.093-.332 12.504 1.082 4.597 1.04 9.434.62 14.121.48l1 3 3 1c.125 5.75.125 5.75-1 8l5 2v4h3l.148-1.758c.448-4.681 1.15-8.817 2.852-13.242h2l1 2 3-1q.035 34.856.052 69.71.007 16.188.023 32.374.015 14.123.02 28.245 0 7.466.01 14.93c.057 39.846.057 39.846-1.105 56.741h-1l-.168-2.766a6755 6755 0 0 0-.632-10.204l-.27-4.408q-.193-3.177-.395-6.352l-.238-3.857c-.251-2.885-.654-5.594-1.297-8.413h-4a100 100 0 0 1 0-5l1-1c.156-1.34.25-2.688.316-4.035l.127-2.451.12-2.577.13-2.587q.159-3.175.307-6.35l-4-1v-7h2l2-10h2v-5h2q.038-9.47.055-18.94.008-3.212.02-6.426c.091-22.83.091-22.83-1.075-33.634h-1v-7h-2l-1-4-3 1c.563-3.375 1.48-5.959 3-9v-3l-2 5h-4v12l-2 2-3-1-3 2c-2.187.625-2.187.625-4 1l1 3h5c-.98 2.585-1.907 3.924-4.062 5.688-3.424 1.53-6.333 1.8-10.047 2.003L460 246l-1 2h-9l-1-2c-2.062-.625-2.062-.625-4-1l1 3h-8l-1-2 1-2-1.863.035-2.45.028-2.425.035C429 244 429 244 426 243c-1.187-2.563-1.187-2.563-2-5l6 1v3l2-6-3.312-.375C425 235 425 235 422 233l-2.437-.375c-3.218-.785-4.49-2.091-6.563-4.625v-2l3-1-1-9c-2.156 0-3.924.447-6 1a278 278 0 0 1-1.562-4.25l-.88-2.39c-.603-2.551-.405-3.913.442-6.36 1.938.375 1.938.375 4 1l1 2 5-18h2l.75-1.687c1.466-2.713 3.28-4.949 5.25-7.313l-2-1v2l-4 2-1-6c1.897-1.98 3.326-2.958 6.094-3.129q2.357.067 4.715.149c2.779-.025 4.776-.661 7.191-2.02z" id="svg-layer-3" style="pointer-events: all;"/><path fill="#AD8768" d="m443.492 394.672 3.137.015 3.246.063 3.223.016c5.406.053 10.57.365 15.902 1.234l3.313-.062c3.468.08 4.003 1.351 6.312 3.75C480 402 480 402 479.875 405.563L480 409l2.488 1.14C485 412 485 412 485.412 413.923c.08 2.438.023 4.83-.1 7.265l-.068 2.561A356 356 0 0 1 485 430c1-1 1-1 1.098-4.16l-.036-3.902-.027-3.91L486 415l2 2 .262-2.484.425-3.266.387-3.234c1.143-3.724 2.737-4.893 5.926-7.016.03 3.812.047 7.625.063 11.438l.025 3.24.01 3.193.016 2.904c-.09 2.562-.3 5.001-.605 7.54-.54 4.598-.693 9.145-.755 13.77l-.1 5.067q-.072 3.94-.13 7.88c-.04 2.56-.092 5.12-.145 7.679l-.026 2.386c-.086 3.81-.19 5.66-2.353 8.903l-.168-1.88q-.38-4.216-.77-8.433l-.263-2.958-.264-2.842-.238-2.619C489 454 489 454 488 451l-3-1 2-9-3-1 .688 2.813L485 446c-1.375 1.5-1.375 1.5-3 3-.687 3.188-.687 3.188-1 6l2 1-1 2c-2.322.407-4.657.744-7 1l-1 4 6-1c-.562 1.875-.562 1.875-2 4-3.625 1.25-3.625 1.25-7 2v2l-4-2v-2c-1.938.313-1.938.313-4 1l-1 3 4 2c-9.425 2.995-23.388 5.23-33 2-3-3.28-3-3.28-3-6l-2.25-.375c-2.551-.58-4.477-1.362-6.75-2.625v-2l6 1 1-2 1-1c-2.98-1.56-5.765-2.931-9-3.875-3.939-1.477-6.014-3.14-9-6.125-.875-2.812-.875-2.812-1-5l4 1v-8l-5 1c-1.904-1.904-2.935-3.334-3.2-6.047.011-1.985.1-3.97.2-5.953l6 1c1.65-4.087 2.935-7.35 3.375-11.75.806-4.192 2.238-4.786 5.625-7.25 1.81-2.256 3.383-4.598 5-7l-2-2-1 5h-5c.875-5.75.875-5.75 2-8l2.668.105 3.52.082 3.48.106C433 398 433 398 435.365 396.503c3.006-1.714 4.7-1.865 8.127-1.831" id="svg-layer-4" style="pointer-events: all;"/><path fill="#AE896B" d="M120 395h2v2l1.848.076q4.17.176 8.34.361l2.908.12 2.822.127 2.587.11c2.56.211 4.988.654 7.495 1.206l-1 8h-2l1 2 3 1-1 3 5 2q.253 4.313.5 8.625l.145 2.45c.507 8.914.507 8.914.355 12.925l-1 1a59 59 0 0 0-.062 4.063L153 448l3-1c1.188-2.562 1.188-2.562 2-5 1.195 2.824 1.005 3.986 0 6.938-3.732 5.714-8.552 8.141-15 10.062a199 199 0 0 0-6 3l11 1-1 3c-3.153.7-5.727 1-9 1-2.345.625-4.68 1.286-7 2l11-1c-2 5-2 5-3.731 5.92-6.548 1.175-12.938 1.345-19.582 1.267l-3.244-.001c-8.57-.049-8.57-.049-12.443-1.186v-2h-3v-2l4-1v-3l-3 .688c-4.61.697-7.8-.846-12-2.688v-2l7-1-3.25-2-1.828-1.125C89 457 89 457 85 457l-2-5 3 1-1-5h-2v3h-2l-2-4 4-1-1-12-4 3c-.25 3.688-.25 3.688 0 7h-2c-2.313 10.346-2.198 20.469-2 31h-3c-.106-11.061.06-21.97 1-33q.254-3.656.5-7.312c.373-5.25.87-10.463 1.5-15.688h3l2-6 5-1v2h2l1-4 1 2c2.5-2.174 3.436-3.73 4-7l-3 1c-.8-3.287-1.097-4.71 0-8 7.75-1.125 7.75-1.125 10 0a118 118 0 0 0 6.188-.937c4.715-.784 9.052-1.171 13.812-1.063z" id="svg-layer-5" style="pointer-events: all;"/><path fill="#AD8869" d="m224.875 393.75 3.242.055q3.942.07 7.883.195l1 3 3.43-.035q2.222-.015 4.445-.027l2.262-.026c5.636-.025 5.636-.025 7.863 1.088l-.035 2.266-.028 2.984-.035 2.953C255 409 255 409 256 413l9-1 1 13-6-2-.152 1.877c-.234 2.854-.479 5.707-.723 8.56l-.238 2.952c-.525 6.03-1.44 11.732-2.887 17.611l4-2-1-5h4v-2h-2v-2h3c.297 5.041.18 8.004-3 12-2.99 1.362-5.949 2.325-9.082 3.291A130 130 0 0 0 247 460l-1 2 8 1c-.625 1.938-.625 1.938-2 4-3.125.75-3.125.75-6 1v-2l-3.937.375c-.731.07-1.462.14-2.215.21-.305.07-.305.07-1.848.415l-1 2 4 1v2c-6.144.91-12.235 1.166-18.437 1.25l-2.441.064c-2.306.014-2.306.014-6.122-.314l-2-3 4-1-3.14-.516q-2.055-.365-4.11-.734l-2.066-.332c-4.43-.817-6.854-1.888-9.684-5.418l4-3-1-2c-1.926-.422-1.926-.422-4.312-.75-3.9-.77-4.514-1.046-7.25-4.25-1.438-3-1.438-3-1.438-5h3v-8l-2.375.563C185 440 185 440 183 439c-1.158-3.473-1.069-6.36-1-10l4-1v3h2l2-9-3-1-3 3-1-1c.064-1.67.2-3.338.375-5l.273-2.75C184 413 184 413 185 412a100 100 0 0 1 5 0v3c3-1 3-1 4.688-3.375C196 409 196 409 196 406l-2 1c-.478-6.335-.478-6.335 1.438-9 3.352-1.308 5.69-.722 9.148.066C207 398 207 398 209.546 396.043c4.545-3.314 9.952-2.465 15.329-2.293" id="svg-layer-6" style="pointer-events: all;"/><path fill="#AD8769" d="m336.055 393.805 3.36.02 3.46.05 3.531.027q4.298.036 8.594.098v3l2.957-.105 3.856-.082 3.832-.106c3.355.293 3.355.293 5.293 1.606 1.593 2.531 1.256 4.773 1.062 7.687h-3c1.25 3.437 1.25 3.437 3 7 2.11.723 2.11.723 4 1 1.148 16.708 1.148 16.708 1 25l-3 1 2 7h3l2-4c-.478 4.306-1.66 6.249-5 9l-3 1 1-5c-3 2-3 2-3.687 4.625L370 455l3-1v3l-2.371.586-3.067.789-3.058.773C362 460 362 460 361 462l7 2c-4.209 4.94-9.588 8.552-16.076 9.404-3.342.086-6.646.034-9.986-.091l-3.49-.069q-4.226-.087-8.448-.244l-1-2 4-1v-2h-6v-5l-5 1-1-3c-2.031-.844-2.031-.844-4.5-1.5s-2.469-.656-4.5-1.5c-1-3-1-3-1.5-5.562C310 450 310 450 309 448l-2 4 2 1-3 1-3-2 1-4h2c1.126-5.506 1.126-5.506.535-7.82-1.946-7.926-.549-17.16.465-25.18h-2l-1 8-4 1c-.178-4.537-.046-7.908 2-12 1-1 1-1 3.938-1.125C309 411 309 411 311 412l4-9h-2v3h-2c-.25-6.625-.25-6.625 2-10 2.39-.223 2.39-.223 5.25-.062 3.252.175 5.465.163 8.554-.931 3.294-1.038 5.813-1.238 9.25-1.202" id="svg-layer-7" style="pointer-events: all;"/><path fill="#AD886A" d="M211 63c24.876-.234 24.876-.234 31 1l1 2h-3l-1 2h5v-2l3.875.313 2.18.175C252 67 252 67 254 70l2.625 2.563C259 75 259 75 259 77h-3l.5 1.563c.65 3.17.562 6.21.5 9.437h3v-5l5 1c1.176 3.674 1.074 7.17 1 11l-7 1-.402 3.465-.536 4.472-.263 2.288c-.686 5.662-.686 5.662-1.799 6.775q-.061 3.5 0 7l-2 1-1 3h-2l-1 3c-2.243 2.85-4.171 3.525-7.687 4.188l-2.45.48L238 132v2l7 1-1 3c-6.387 3.025-12.095 4.302-19 2a81 81 0 0 0-4.875.563c-4.096.455-6.403.346-10.125-1.563q-2.398-.839-4.812-1.625c-.79-.26-1.58-.52-2.395-.79-.592-.192-1.183-.386-1.793-.585v-2l5-2-1 3 3 1 .375-1.875C209 132 209 132 211 130l-3.875-.062-2.18-.036C203 130 203 130 201 131a486 486 0 0 1-4.875-3.25l-2.742-1.828c-2.346-1.892-3.316-3.15-4.383-5.922l3 1 .063-3.812.035-2.145C192 113 192 113 191 110l-5 2c-3.538-3.692-3.591-7.094-4-12h7l1-5h-4a69 69 0 0 1-4-1c.376-5.55.693-9.062 5-13h4v2h-3v2h5l1-8-2 1c-.5-3.187-.5-3.187 0-7 2.768-2.554 6.139-5 10-5v2c3.044.082 5.072-.024 8-1 .688-2.062.688-2.062 1-4" id="svg-layer-8" style="pointer-events: all;"/><path fill="#AD8769" d="M239.95 173.605C242 174 242 174 244 173c2.129.305 2.129.305 4.563.875l2.44.555C253 175 253 175 254 176c.294 3.722.148 4.778-2 8h2v5l4 1c.852 12.915 1.44 25.233-1 38h2l3-9 2 1c.285 3.069.254 4.6-1.426 7.238l-1.887 2.075-1.863 2.113C257 233 257 233 254 233c-4.816 1.906-6.483 3.595-9 8-5.17 5.142-9.601 6.159-16.687 6.563l-2.127.13q-2.593.158-5.186.307l-1 3-7-1-1-3-2.687-.312c-3.42-.71-5.422-1.786-8.313-3.688a174 174 0 0 0-4-2v-3l5-1c-5.625-4-5.625-4-9-4-3.743-1.92-6.586-3.757-7.937-7.812L185 223l5-1v-7l-2.312.688c-2.688.312-2.688.312-4.5-.625-1.897-3.295-1.373-6.305-1.188-10.063 1.875-.625 1.875-.625 4-1l2 2 2-8-3-1-1 4-3-1c.367-7.221.367-7.221 3.438-11 2.562-2 2.562-2 4.562-2l-1 3h-3v2l4-1 1 2 1.313-2.187L198 183h-3l-1-5c2.131-2.2 3.84-3.886 6.984-4.195q2.3.075 4.598.191c2.482.004 4.403-.42 6.793-1.059 8.63-1.936 18.937-1.105 27.574.668M331 171h7v1h6v-1h5v3l2.52-.035 3.293-.028 3.269-.035C361 174 361 174 364 175q1.996.515 4 1c.93 2.606 1.15 3.642.063 6.25L367 184l-4-1v-2h-2l1 4c2.763.597 5.16 1 8 1v5l2.438-.062C375 191 375 191 376 192q.062 3.5 0 7l-2 1 1 6 5 1 1-4v13h-2v-5h-2l-1 4-4-1c-.08 3.522-.04 6.62 1 10h-3l1 4 2-2c-.353 2.611-.696 4.552-2.187 6.75-2.493 1.719-4.84 1.825-7.813 2.25-2.375 1.062-2.375 1.062-4 2v4h2l-1 4c-2.892.826-4.887 1-8 1-2.379.234-4.754.508-7.125.813l-3.758.457C338 248 338 248 336 251c-3.125.188-3.125.188-6 0l1-5c-3.377.537-6.697 1.11-10 2l-1-3 2-1-1.863-.332-2.45-.48-2.425-.458c-2.496-.806-3.586-1.75-5.262-3.73 1-1 1-1 3.438-1.062L316 238h2l-2.812-1.75c-2.786-1.966-4.375-3.43-6.188-6.25l-2 3-4-2c0-2 0-2 1.5-3.625L306 226l-5 2-1-5 5-1-2-7-4 3c-2.4-4.648-2.2-8.91-2-14h5c1.457-3.227 2.225-6.22 2.813-9.687.492-2.38.492-2.38 1.187-4.313 2.438-1.125 2.438-1.125 5-2 1.36-2.27 2.115-4.485 3-7l-3 1c-.687-2.312-.687-2.312-1-5 1.399-2.061 2.467-2.816 4.813-3.625L317 173l3.25-.562L323 172v1h7z" id="svg-layer-9" style="pointer-events: all;"/><path fill="#AD886A" d="m322 61 2 2c1.904.16 1.904.16 4.273.063 6.491-.131 12.887.404 19.352.937l3.621.29q4.377.35 8.754.71l-2 3 4 3 1-2h6c1.86 3.831 2.078 5.904 1 10 0 3 0 3 2.375 5.625C375 87 375 87 377 88v-2h2c2.277 8.036 2.277 8.036 1 12l-2-3-3 1v5l5 2-1 4h-3l-1 5h-2v-9c-1.513 1.513-1.56 3.176-2 5.25l-.523 2.45A570 570 0 0 0 369 118l2 1c-.7 3.147-1.76 6.026-3 9l-2.187-.687c-3.649-.406-4.767.729-7.813 2.687-2.317.722-4.648 1.4-7 2l9 3c-2.965 2.965-4.037 3.585-7.875 4.688-.843.25-1.686.502-2.555.761-2.6.558-4.921.574-7.57.551l-1 1c-2.67.141-5.324.042-8 0v-1l-7-2 2-6-7-1-1-3h-2l-2 4-4-5 1-2-2-2-1.875.563C307 125 307 125 304.75 123.875c-1.75-1.875-1.75-1.875-2-4.562L303 117h4l1 4c-.498-3.735-.875-5.812-3-9-.46-2.495-.831-4.924-1.125-7.437l-.262-2.026A76 76 0 0 1 303 93l-1 2-4-1a293 293 0 0 1-.125-4.375l-.07-2.46C298 85 298 85 300 83h3v2c1.875-.125 1.875-.125 4-1 1.25-3.062 1.25-3.062 2-6l-3-1-3 3a241 241 0 0 1 .813-4.375l.457-2.46C305 71 305 71 308 69c2.826-.53 5.651-.886 8.504-1.242C319 67 319 67 320.277 65.055L321 63z" id="svg-layer-10" style="pointer-events: all;"/><path fill="#AD8769" d="M100 62v2l2.352-.016q5.323-.029 10.648-.047l3.7-.025c6.2-.017 12.173.115 18.3 1.088l.375 1.938L136 69l2 1v2h2l-1-5 8 2-.07 2.117-.055 2.758-.07 2.742C147 79 147 79 149 81v3h-2l2 1.875C151 88 151 88 151 90l4-1v-2h3c.222 1.623.427 3.249.625 4.875l.352 2.742L159 97l-2 2-1-3-4 1v6l6-1-1 7-3 1v-6h-2v8h-5v6l3 1-1 3h-3l-1 2 2 1-2 4-2.062-.687c-3.983-.424-6.345 1.019-9.938 2.687-2.937.688-2.937.688-5 1l2 4h3v-3l5 1c-.672 1.89-.672 1.89-2 4-5.294 2.318-11.23 3.468-17 3v-6l3-1h-6l1 1c.04 2 .043 4 0 6h-8v-2l-8-1c2.625-3.875 2.625-3.875 6-5q-2.406-.97-4.812-1.937l-2.708-1.09A112 112 0 0 0 94 128l-2 1c-3-.975-4.753-1.753-7-4 .375-2.125.375-2.125 1-4h2l1-2h-3v-6h-4c-.972-7.686-1.11-15.259-1-23-2.584 2.972-3.38 4.751-3.25 8.688.015.787.03 1.575.047 2.386C78 103 78 103 79 104c.073 2.186.084 4.375.063 6.563l-.028 3.628L79 117l-2-3-3-1c-.03-3.167-.047-6.333-.062-9.5l-.026-2.687c-.02-5.371.3-10.5 1.088-15.813l2.875.5C81 86 81 86 83 86c1.851-3.929 2.22-6.988 2.125-11.312l-.055-3.239L85 69c4.018-.841 7.018-1.054 11 0v-3h-3v-3c2.49-.687 4.379-1 7-1M363.262 291.625c2.964.64 5.789-.115 8.738-.625v3l1 1q.062 3.5 0 7l-3-1c1.08 2.519 1.948 3.955 4.054 5.76 2.54 2.922 2.412 4.492 2.337 8.318l-.04 3.516-.101 3.656-.055 3.703A774 774 0 0 1 376 335l-1.953.805L372 337c-.75 3.125-.75 3.125-1 6h3v2l-2.437.813L369 347l-1 3h2v2l-2.187-.125C365 352 365 352 362.5 353c-2.693 1.077-4.63 1.164-7.5 1v4h7v3c-2.628 1.617-3.974 2-7.125 1.938L352 363l-2 3c-3.625.188-3.625.188-7 0l-2-5-1 5c-5.736.41-9.091-.184-14.102-2.977-2.527-1.362-5.155-2.2-7.898-3.023v-3l4-2-3-2-3 1c-2.41-1.11-2.41-1.11-5.062-2.75l-2.66-1.61C306 348 306 348 304 345l1-3h4v-6l-3-1 .016-1.912q.029-4.263.046-8.526l.026-3.01.01-2.86.016-2.65C306 314 306 314 305 313l-2 7h-3c-.687-3.312-.687-3.312-1-7 1.5-1.687 1.5-1.687 3-3-.312-2.187-.312-2.187-1-4l4-1 1 3c1.938-.625 1.938-.625 4-2 .75-3.125.75-3.125 1-6l-2 2h-3l1-2v-3h2l.063-1.812C310 293 310 293 313.375 291.25 317 290 317 290 320 290v2l1.95-.875c13.38-5.497 27.659-3.273 41.312.5M225.688 288.75l3.126.016c8.233.085 8.233.085 12.186 1.234v2l2.082-.508 2.73-.617 2.708-.633C251 290 251 290 254 292h-2v2l3-1c1.432 2.865.608 5.046.059 8.125L255 303l2 2c2.477 10.889 1.514 23.998.023 34.96L257 342l2 2-3 1 1 3c-1.14 2.606-2.407 3.736-4.996 4.887-4.278 1.479-8.505 2.536-13.004 3.113l1 2v2l2.188-1c2.829-1.006 4.841-1.17 7.812-1-4.508 5.193-11.698 7.51-18.387 8.272-2.543.155-5.065.22-7.613.228l-2.463.018c-4.752-.1-7.555-.734-11.537-3.518-2.238-.73-2.238-.73-4.312-1.187L202 361v-2h8c-.625-2.437-.625-2.437-2-5a150 150 0 0 0-6-1c-1.25-2-1.25-2-2-4l-2-1v3h-4v-2l-1.875-.187C190 348 190 348 188.75 345.438L188 343l6 1-1-3.25c-1-3.75-1-3.75-1-7.75h-2v2c-2.312.313-2.312.313-5 0-3.036-3.56-3.32-6.424-3-11h5l1 2 2-8-4-1-1 3-2-1c.114-1.605.242-3.209.375-4.812l.21-2.708C184 309 184 309 186 306h4l-1 3 4 1 .813-2.875C195 304 195 304 198 302l1-3h-2l-1 3h-3c-.358-6.328-.358-6.328 1-8.875 3.195-1.797 6.365-1.827 10-2.125l-3 2c3.39-.413 5.924-.961 8.984-2.527 5.066-2.227 10.267-1.833 15.703-1.723M111 170h4l2 3c2.735.413 5.253.65 8 .75l2.234.129c5.47.27 5.47.27 7.766-.879v2l3.188-.062c3.139.051 5.78.327 8.812 1.062v8l.563 2.625L148 189l-1 1 5 2c.196 3.645.38 7.291.563 10.938l.17 3.154.146 2.998.143 2.777C153 214 153 214 152 215c-.13 3.398-.188 6.342.75 9.625.25 2.375.25 2.375-1.125 4.938-2.544 2.362-4.158 3.184-7.312 4.437-2.383.953-2.383.953-4.313 2-1.062 2.75-1.062 2.75-1 5h-4v2h-2v3c-3.266.988-6.16 1.074-9.562 1-3.25-.07-5.33-.036-8.438 1v4h-5v-2h-4v-5c-3.343-.074-5.804-.065-9 1-2.5-1.312-2.5-1.312-5-3l-3-2v-3l6 1-1-3a511 511 0 0 0-7-2c-3.84-2.173-6.484-3.755-8-8l4-2-.5-3.687c-1.153-10.539-1.105-21.834.5-32.313l2-1 2 2c2.335-2.257 4.187-4.28 6-7h2l1-2-7 2v-6c3.267-1.955 5.598-2.195 9.375-2.062 4.014.08 7.68-.085 11.625-.938z" id="svg-layer-11" style="pointer-events: all;"/><path fill="#AD8768" d="m110.387 288.77 3.092.005 3.209.038 3.244.001c7.928.046 7.928.046 9.068 1.186l3.5.5c3.5.5 3.5.5 4.5 1.5 2.55.202 5.097.32 7.652.426C147 293 147 293 148.31 294.84c.89 2.783.823 5.258.691 8.16l-4-1-1 2 2.438.813L149 306l1 3 1.547 1.277c4.005 4.749 1.546 15.53 1.078 21.473-.356 3.98-.356 3.98-2.625 6.25-.625 2.125-.625 2.125-1 4h2v2l-4 1v4l3-2c-.187 1.813-.187 1.813-1 4-3.421 2.661-5.728 3.237-10 3l-1 1c-1.666.04-3.334.043-5 0 .75 1.938.75 1.938 2 4 2.125.75 2.125.75 4 1v2c-3.402 2.094-6.053 2.18-10 2l-1 2h-9v-2h-2v2c-8.2.63-8.2.63-11.375-1.875L104 362l-3-2v2l2 1c-3.375-.25-3.375-.25-7-1-1.437-2.062-1.437-2.062-2-4h8v-2c-9.696-5.538-9.696-5.538-16-4-1.875-1.312-1.875-1.312-3-3v-2l2-1c.625-2.562.625-2.562 1-5h-2v-3h-3v-29l6-2v-2h2v-4l-2 1v-7h2v-2l2.484-.367 3.266-.508 3.234-.492C101 291 101 291 102.852 289.975c2.652-1.204 4.628-1.218 7.535-1.205M461.867 288.527c2.812.425 5.361.553 8.195.473 6.188 0 6.188 0 8.938 2 1.522 3.565 2.021 7.018 1.938 10.875L481 304l3 2c.22 2.95.28 5.684.188 8.625l-.042 2.43A539 539 0 0 1 484 323l4 1-1 9-4-1-1 2 3 1-1.937.625C481 337 481 337 480.25 340.125L480 343h2c-.29 3.394-.935 4.92-3.113 7.598-3.455 2.875-5.452 3.22-9.887 3.652l-1.994.208c-2 .203-4.003.373-6.006.542l-3.414.336c-7.535.678-15.024.775-22.586.664l-1-3-3.187-.25c-4.083-.803-5.825-1.943-8.813-4.75l1 3c-3.342-.597-5.464-1.736-8-4v-2l3-2c-1.125-2.972-2.223-5.334-4-8l-2.5-.437c-2.5-.563-2.5-.563-3.812-2.25-.847-2.848-.822-5.359-.688-8.313l6 1 1-7-2.937.563L408 319c-1-1-1-1-1.187-4.25.174-3.482.685-5.652 2.187-8.75h5l-1 3c4.274-1.583 6.265-4.506 9-8l-4 2-2-4h2l1-4h2l-1-2h-2v-2h6v2c3.024-.914 5.617-1.74 8.242-3.523 8.398-4.497 20.636-2.496 29.625-.95M440.637 63.805l3.935.02 4.115.05q2.076.016 4.15.027 5.082.036 10.163.098l1 2h8l1 3-1 2h3.188c4.791 1.257 5.643 2.895 8.062 6.992C484 80 484 80 483 83h-2c.813 1.938.813 1.938 2 4l3 1 1 8h-5l.035 2.012c.09 8.77.09 8.77-1.035 12.988l2 1-3 1v7l-2.375.75c-2.948 1.404-3.527 2.257-4.625 5.25l3 2c-1.811 1.811-4.613 1.382-7.062 1.563l-3.348.253L463 130v2q-2.466.54-4.937 1.063l-2.778.597L453 134l-1-1a254 254 0 0 0-8.562-.562l-2.444-.131A1763 1763 0 0 0 435 132v-2l-1.863-.332-2.45-.48-2.425-.458c-2.496-.806-3.586-1.75-5.262-3.73l-4 2a105 105 0 0 1-5-4v-2h2v-11l-3 2h-4a211 211 0 0 1-1.562-3.75l-.88-2.11c-.636-2.44-.36-3.78.442-6.14l6 2v-8l-2 2c-2.625.125-2.625.125-5 0-.293-5.673-.006-8.99 3-14l5 1-1 3c5.785-4.308 5.785-4.308 6.875-7.812L420 76h-2l-1 3-1-1c.368-5.792.368-5.792 1-8 3.632-2.421 5.383-2.21 9.688-2.125l3.574.055L433 68l-2-2c3.633-2.422 5.318-2.233 9.637-2.195" id="svg-layer-12" style="pointer-events: all;"/><path fill="#B8A99D" d="m57 500 2.033.491c3.498.6 6.903.653 10.438.648l2.264.008c2.51.009 5.022.01 7.532.011l5.446.015q7.491.02 14.982.028 8.075.013 16.149.034 13.992.033 27.986.056 20.23.035 40.463.08 32.822.071 65.645.132 31.888.058 63.776.125l3.97.008 19.714.041q81.801.17 163.602.323c-2.332 1.206-4.496 2.165-7 3l6 2c-4.287 4.287-10.436 4.25-16.201 4.254l-2.102.01c-2.317.008-4.634.003-6.952-.003l-5.043.011c-4.614.01-9.229.008-13.843.004-4.98-.002-9.959.007-14.938.014q-14.632.018-29.265.012a31256 31256 0 0 0-34.105.01q-32.286.014-64.57.003c-19.669-.006-39.338.006-59.007.025q-30.312.03-60.625.024-17.01-.005-34.02.014-14.49.019-28.98.002c-4.923-.006-9.847-.008-14.77.005q-6.777.014-13.554-.007-2.436-.004-4.872.008c-8.28.038-16.29-.34-24.467-1.718l-2.139-.35c-5.765-1.08-8.782-2.894-12.547-7.318z" id="svg-layer-13" style="pointer-events: all;"/><path fill="#CFC3B5" d="M499 55h2c1.137 3.41 1.08 5.94 1.032 9.535-.048 5.764.014 11.513.182 17.275l.067 2.32.139 4.806c.586 20.449.73 40.883.714 61.34q-.002 5.575.002 11.152c.006 12.123 0 24.245-.009 36.368q-.005 6.307-.006 12.614c-.014 31.53-.057 63.06-.121 94.59l-.006 3.226c-.057 28.231-.143 56.463-.271 84.694a12182 12182 0 0 0-.069 19.582q-.032 11.85-.103 23.699c-.023 4.01-.042 8.019-.049 12.028a1602 1602 0 0 1-.056 10.957c-.013 1.95-.011 3.9-.01 5.85l-.037 3.48-.014 3.012C502 474 502 474 500.6 475.843 499 477 499 477 497 477c-6.923-13.847-1.754-40.36-1.302-55.863 1.27-43.823 1.492-87.631 1.464-131.468l-.004-7.136q-.019-29.042-.07-58.083-.03-17.487-.054-34.973l-.003-2.52q-.026-20.815-.044-41.63-.01-12.696-.036-25.391-.018-8.623-.025-17.245-.006-4.95-.018-9.899c-.076-28.51-.076-28.51 1.092-36.792z" id="svg-layer-14" style="pointer-events: all;"/><path fill="#B8ACA1" d="M75 50q42.462-.07 84.924-.104 19.725-.014 39.45-.047 17.235-.03 34.47-.037 9.087-.003 18.174-.023c33.042-.079 65.975.69 98.982 2.211-3.435 3.613-6.257 4.934-11.312 5.125L337 57l1 3-5 2 1-5c-19.943-3.838-39.92-3.357-60.132-3.206-4.62.031-9.24.044-13.86.06Q246.504 53.902 233 54l1.063 1.875L235 58l-1 2 4 2a560 560 0 0 1-4.312.063l-2.426.035C229 62 229 62 226 61l-1-3h-8l2 1v2h-8l2-6c-8.38-1.084-16.703-1.147-25.14-1.133q-2.183 0-4.364-.003-4.553-.002-9.107.006-5.775.006-11.55-.004-4.502-.005-9.004 0-2.126 0-4.252-.002c-9.25-.012-18.368.35-27.583 1.136l1 4-3.125-.187c-4.11.198-6.364 1.132-9.875 3.187l2 2h-4l-.25-2.375C107 59 107 59 104.938 57.688L103 57h2v-2c-9.99-1.143-19.97-2.253-30-3z" id="svg-layer-15" style="pointer-events: all;"/><path fill="#A17C5F" d="M70 39q4.063-.04 8.125-.062l2.246-.026c4.694-.02 9.315.202 13.993.589 7.713.564 15.386.62 23.115.58l4.48-.009q4.774-.01 9.549-.027c5.034-.019 10.069-.028 15.103-.036q21.458-.037 42.915-.105 11.888-.037 23.774-.052 7.507-.01 15.015-.044 4.657-.016 9.316-.016 2.16-.003 4.32-.017a815 815 0 0 1 5.892-.009l3.33-.01c2.802.242 4.448.793 6.827 2.244h-4c3.046 1.015 5.198 1.154 8.39 1.205l3.336.06c.593.01.593.01 3.598.051l3.687.063q5.838.097 11.676.184l7.909.13q9.702.162 19.404.307v1c-46.041 1.285-92.086 1.121-138.141 1.072a54551 54551 0 0 0-32.426-.022Q108.216 46.035 75 46c2.495-2.495 3.673-2.36 7.125-2.625l2.758-.227L87 43v-2l-1.648.52c-2.791.57-5.143.423-7.977.167l-2.914-.238C72 41 72 41 70 39" id="svg-layer-16" style="pointer-events: all;"/><path fill="#B29883" d="M503 305h1c.582 40.836 1.107 81.674 1.177 122.515q.01 5.09.031 10.183.025 5.995.021 11.991.001 2.182.013 4.366c.101 20.462.101 20.462-4.742 26.507-2.945 2.872-3.544 3.419-7.625 3.5L490 484c-1.33-9.977-1.095-19.956-1-30h1l2 18 .184-7.996.188-7.745q.065-2.672.125-5.345.089-3.86.187-7.723l.05-2.378c.14-5.32.62-10.53 1.266-15.813h2l-.016 2.975q-.026 5.577-.039 11.155-.008 2.392-.02 4.785c-.056 10.413.221 20.704 1.075 31.085l3 1c1.443-2.887 1.138-5.385 1.151-8.612l.013-2.082q.019-3.47.025-6.94l.026-4.96q.027-5.35.045-10.7.032-8.45.077-16.9c.065-12.974.12-25.949.176-38.923q.074-17.836.165-35.673.042-8.409.071-16.818.021-5.22.05-10.44.012-2.43.018-4.86.01-3.304.032-6.607l.015-3.744C502 306 502 306 503 305" id="svg-layer-17" style="pointer-events: all;"/><path fill="#AD886A" d="m498 51 2 2h-2c-.958 11.351-1.32 22.678-1.562 34.063l-.067 2.898c-.295 13.184-.4 26.364-.363 39.55l.005 2.11c.016 6.943.041 13.886.097 20.829.024 3.21.035 6.419.05 9.628l.041 3.57.01 3.255.023 2.85C496 174 496 174 494 176l-1-55-2 1v-4l-3-1c.303-17.867.842-35.361 4-53h1l-.437-3.625-.247-2.04c-.377-2.787-.854-5.56-1.316-8.335h-21v-1c9.086-2.118 19.527-2.316 28 2" id="svg-layer-18" style="pointer-events: all;"/><path fill="#B9ADA2" d="M491 50c2.48 6.243 3.32 11.283 3 18l-2 1c-.414 2.504-.414 2.504-.625 5.563l-.227 3.066L491 80l-2-2c.21-2.453.515-4.77.938-7.187C491.026 64.277 491.81 58.715 488 53c-2.363-.372-2.363-.372-5.312-.363l-3.262.002-3.426.048-3.332-.01c-6.034.04-11.646.484-17.522 1.878-4.303.892-8.512.748-12.833-.054-4.048-.612-7.984-.677-12.072-.706l-2.604-.03a3588 3588 0 0 0-8.473-.081l-5.893-.063q-7.739-.082-15.476-.153-7.904-.077-15.807-.161Q366.493 53.145 351 53l1-2c19.32-.752 38.604-1.064 57.938-1 15.985.053 31.939-.084 47.915-.645 22.57-.79 22.57-.79 33.147.645" id="svg-layer-19" style="pointer-events: all;"/><path fill="#AC8566" d="M501 37c-2.705 3.72-6.71 4.276-11 5-3.873.29-7.733.311-11.615.319l-3.459.03c-3.768.031-7.537.048-11.305.065q-3.975.028-7.949.059-8.347.062-16.697.105c-7.733.041-15.467.094-23.2.15-26.259.187-52.516.298-78.775.272l1-3c42.983-1.41 85.972-1.44 128.962-.268 9.42.243 18.667.46 28.038-.732v-2c3-1 3-1 6 0" id="svg-layer-20" style="pointer-events: all;"/><path fill="#B8ACA2" d="m490 342 .938 1.938C492 346 492 346 493 347c.235 2.183.414 4.372.563 6.563l.253 3.628L494 360l3-3c.847 2.925 1.104 5.46 1.038 8.499l-.052 2.684-.072 2.891-.064 3.022a2638 2638 0 0 1-.147 6.352c-.077 3.182-.144 6.364-.21 9.546-.258 11.688-.692 23.342-1.493 35.006h-1l-1-23c-3.503 3.503-3.572 4.903-4.187 9.688-.16 1.179-.318 2.358-.481 3.574L489 418l-2-2c.36-2.655.829-5.211 1.363-7.832 2.383-13.222 1.963-26.47 1.825-39.856q-.024-3.844-.042-7.689A3698 3698 0 0 0 490 342" id="svg-layer-21" style="pointer-events: all;"/><path fill="#B7A99D" d="m66.602 50.805 3.023.07 3.04.055L75 51c-.547 3.375-1.055 5.082-3 8v-3h-2l-1-2-5 1c-1.858 6.315-2.292 12.005-2.278 18.567l-.018 3.151c-.017 3.472-.02 6.943-.023 10.415l-.03 7.481q-.033 8.043-.048 16.086c-.014 7.753-.04 15.506-.068 23.258q-.067 18.87-.113 37.739-.045 18.324-.105 36.65l-.007 2.283-.037 11.342Q61.118 268.986 61 316h-1a130820 130820 0 0 1-.111-112.289q-.015-18.716-.043-37.431-.028-19.2-.034-38.4-.004-11.85-.028-23.699a7582 7582 0 0 1-.01-18.164q0-3.729-.012-7.458c-.01-3.388-.008-6.775-.003-10.163l-.017-2.998c.062-14.083.062-14.083 6.86-14.593" id="svg-layer-22" style="pointer-events: all;"/><path fill="#AD8667" d="m78.092 47.918 2.854.01q4.755.02 9.508.05l6.8.03q9.246.04 18.494.093c6.438.034 12.876.062 19.315.092q16.215.075 32.43.159 16.703.087 33.405.166l2.08.01 10.327.048Q256.152 48.78 299 49c-4 2.666-7.488 2.27-12.13 2.24l-2.867.006c-3.183.003-6.366-.008-9.549-.019h-6.828c-6.192.002-12.384-.01-18.576-.024-6.466-.013-12.932-.014-19.399-.016a28702 28702 0 0 1-32.571-.036q-16.776-.028-33.55-.041l-2.09-.002-10.372-.007Q108.033 51.069 65 51c2.291-4.582 8.634-3.117 13.092-3.082" id="svg-layer-23" style="pointer-events: all;"/><path fill="#B5A191" d="M60 316h1v158h2l1.855 5.273c1.687 2.545 3.22 2.83 6.145 3.727 3.004.324 6 .372 9.02.414l2.601.059c2.73.06 5.46.106 8.192.152l5.568.117q6.81.142 13.619.258v1c-6.972 1.065-13.83 1.183-20.875 1.188l-3.395.037c-17.417.03-17.417.03-22.23-4.663L62 479l-2-3c-.246-2.868-.246-2.868-.24-6.435l-.006-1.988c-.003-2.202.008-4.403.019-6.605v-4.73c-.002-4.285.01-8.57.024-12.855.013-4.476.014-8.952.016-13.429.006-8.478.023-16.957.043-25.435.022-9.652.033-19.304.043-28.955Q59.931 345.784 60 316" id="svg-layer-24" style="pointer-events: all;"/><path fill="#B59C88" d="m431 130 1 2h-3v3c2.438-.375 2.438-.375 5-1l1-2q4.125-.04 8.25-.062l2.355-.026 2.286-.01 2.094-.016c2.115.12 3.981.538 6.015 1.114v2h13c-4.887 4.887-10.704 5.11-17.437 5.188-4.255-.034-4.255-.034-6.563-1.188a78 78 0 0 0-4.187.063c-7.074.056-12.24-1.85-17.813-6.063v-1z" id="svg-layer-25" style="pointer-events: all;"/><path fill="#B5A08F" d="M72 300c3.904 3.904 3.562 5.662 4 11l2.25-2.437c2.503-2.333 3.468-3.198 6.75-3.563l-1 4h-3l1 4h-2l-.375 2.813C79 319 79 319 77 322l2 1v13h-2v6l-5 1z" id="svg-layer-26" style="pointer-events: all;"/><path fill="#AD8667" d="M299 49h112v1c-80.628 2.959-80.628 2.959-112 1z" id="svg-layer-27" style="pointer-events: all;"/><path fill="#BBA089" d="M259 189q2.514.428 5 1c1.437 8.39 2.623 15.693 0 24h2l1-2v5c-5.625.25-5.625.25-9-2-.356-2.506-.356-2.506-.328-5.629l.015-3.385.063-3.548.016-3.561c.08-8.723.08-8.723 1.234-9.877" id="svg-layer-28" style="pointer-events: all;"/><path fill="#B9ADA3" d="M490 229h3c.978 13.432 1.111 26.851 1.125 40.313l.008 2.628q.008 3.774 0 7.547l.006 2.284c-.02 4.508-.402 8.78-1.139 13.228h-2v5h-1z" id="svg-layer-29" style="pointer-events: all;"/><path fill="#B1937C" d="m79 189 3 1 1 3h-2l-1 5h-2l-2 7h5v10h-4v4h3l-2 6h-3c-1.763-6.722-2.219-13.085-2.25-20l-.027-2.573.011-2.427.007-2.187C73 196 73 196 75 194l1 2h2z" id="svg-layer-30" style="pointer-events: all;"/><path fill="#B9ADA3" d="m490 118 2 3 2-3q.07 11.291.104 22.583.014 5.242.047 10.486c.026 4.016.035 8.032.044 12.048l.032 3.813v3.519l.014 3.109C494 176 494 176 492 178c-1.033-3.098-1.155-5.323-1.205-8.573l-.06-3.457-.051-3.732-.063-3.82q-.082-5.024-.153-10.047-.077-5.128-.161-10.256-.162-10.058-.307-20.115" id="svg-layer-31" style="pointer-events: all;"/><path fill="#B29883" d="M503 185h1v120l-2-1q-.035-23.052-.052-46.104-.007-10.702-.023-21.406-.016-10.318-.02-20.638-.003-3.946-.01-7.893-.01-5.506-.009-11.013l-.01-3.333.004-3.013-.003-2.634C502 186 502 186 503 185" id="svg-layer-32" style="pointer-events: all;"/><path fill="#B8ACA2" d="M496 128h2q.038 11.414.055 22.827.008 3.87.02 7.738c.05 15.18-.095 30.284-1.075 45.435l-2-1c-.205-25.011.39-49.998 1-75" id="svg-layer-33" style="pointer-events: all;"/><path fill="#AD8667" d="M488 46c-3.783 1.228-7.504 1.095-11.43 1.022l-2.249-.03a2386 2386 0 0 1-7.337-.113l-5.094-.072q-6.697-.094-13.395-.202-6.838-.104-13.675-.2Q421.41 46.21 408 46v-1c71.557-4.066 71.557-4.066 80 1" id="svg-layer-34" style="pointer-events: all;"/><path fill="#AC8566" d="M259 40h79v1l-18 1v1h-62z" id="svg-layer-35" style="pointer-events: all;"/><path fill="#B1937C" d="M358 281v3h-2l-1 2-3-1v2h-3v-3a286 286 0 0 0-5.312-.187l-2.989-.106c-3.136.34-3.67 1.026-5.699 3.293h-3l-1-3h-5v-4c10.713-2.255 21.31-.485 32 1" id="svg-layer-36" style="pointer-events: all;"/><path fill="#BFB1A4" d="M73 71h2l1 7 9-2c1.12 3.461 1.079 4.804-.312 8.25C83 87 83 87 81 88v-2l-6-1-1 28 2 1-2 3c-1-1-1-1-1.12-2.829l.006-2.415v-2.73l.016-2.967.005-3.023c.005-3.2.018-6.399.03-9.599q.008-3.244.014-6.49Q72.968 78.973 73 71" id="svg-layer-37" style="pointer-events: all;"/><path fill="#B29680" d="m445.75 278.813 2.594.001c15.288.105 15.288.105 21.656 3.186v2q-4.594.04-9.187.063l-2.62.025c-6.633.025-6.633.025-9.974-.65-2.768-.546-4.793-.121-7.531.5l-2.676.59L436 285v-2l-5 1v-3c4.831-2.525 9.444-2.262 14.75-2.187" id="svg-layer-38" style="pointer-events: all;"/><path fill="#AF8E74" d="M327 386c2.32-.372 2.32-.372 5.2-.363l3.165.002 3.322.048 3.264-.01c5.726.04 10.648.384 16.049 2.323v3l-10 1-1-3c-4.147.437-7.613.864-11.562 2.25-4.598 1.003-6.355-.084-10.438-2.25z" id="svg-layer-39" style="pointer-events: all;"/><path fill="#B09178" d="m223.938 385.813 2.119.019c4.722.07 9.288.392 13.943 1.168v4q-3.187.039-6.375.063l-3.586.035C227 391 227 391 225 390l-3 1c-2.228.07-4.458.085-6.687.063l-3.575-.028L209 391v-3c5.073-1.67 9.58-2.29 14.938-2.187" id="svg-layer-40" style="pointer-events: all;"/><path fill="#B1937B" d="M154 414h5c2.055 7.945 4.648 18.055 2 26-1.666.043-3.334.04-5 0-1-1-1-1-1.098-3.285l.036-2.777.027-2.786L155 429l4-1-1.094-2.047-1.406-2.703-1.406-2.672C154 418 154 418 154 414" id="svg-layer-41" style="pointer-events: all;"/><path fill="#B29883" d="M503 63h1v122h-1q-.236-15.665-.443-31.33-.095-7.282-.205-14.563c-.384-25.4-.286-50.719.648-76.107" id="svg-layer-42" style="pointer-events: all;"/><path fill="#BEA792" d="M305 427c1.56 3.122 1.739 6.512 2.188 9.938l.326 2.208c.72 5.502.72 5.502-1.514 8.854h-2l-1 2c-1-3-1-3-1.437-5.5C301 442 301 442 299 439c-.195-2.7-.195-2.7-.125-5.687l.055-3.012L299 428c2.076-.553 3.844-1 6-1" id="svg-layer-43" style="pointer-events: all;"/><path fill="#B0927A" d="M465 388v2c-5.625 1.125-5.625 1.125-9 0v3l-5-1v-2c-3.201-.149-5.524-.202-8.5 1.063-3.173 1.19-5.248.693-8.5-.063l1-3c8.944-2.091 21.355-4.323 30 0" id="svg-layer-44" style="pointer-events: all;"/><path fill="#C7BBAF" d="M489 80h1l-1 26-4 2c-.75 2.125-.75 2.125-1 4l-3-1 1-15h5l-1-2c-.353-6.47-.353-6.47 2-10 .625-2.187.625-2.187 1-4" id="svg-layer-45" style="pointer-events: all;"/><path fill="#AF8E74" d="m453.164 355.805 2.461.07 2.477.055L460 356l2 4 1-1a86 86 0 0 1 4.563-.562l2.503-.254L472 358c-4.832 4.968-9.431 5.818-16.348 6.094-3.555.046-6.246.041-9.652-1.094 0-2 0-2 1.375-3.5L449 358c2-2 2-2 4.164-2.195" id="svg-layer-46" style="pointer-events: all;"/><path fill="#B8ACA2" d="M496 239h2q.037 11.825.055 23.651.006 4.023.02 8.046c.013 3.855.018 7.71.023 11.565l.015 3.633v3.397l.007 2.98c-.118 2.677-.52 5.121-1.12 7.728l-2-1z" id="svg-layer-47" style="pointer-events: all;"/><path fill="#BAAB9D" d="m315 462 2.082.219 2.73.281 2.708.281C325 463 325 463 328 463l-1 5h6v2h5v1l-8 1 21 1v1c-3.542.058-7.083.094-10.625.125l-3.027.05c-5.189.035-9.497-.072-14.348-2.175v-3l-8-4z" id="svg-layer-48" style="pointer-events: all;"/><path fill="#B09279" d="m448.688 161.813 2.415-.002c5.81.052 11.283.61 16.897 2.189v1l-6.152.684C460 166 460 166 459 167c-1.52.072-3.042.084-4.562.063l-2.504-.028L450 167v-2l-3.5 1.063c-4.483 1.144-7.972.746-12.5-.063l1-3c4.576-1.142 9.002-1.191 13.688-1.187" id="svg-layer-49" style="pointer-events: all;"/><path fill="#B1937B" d="m238 165-1 3h-2l-1 2c-2.062.625-2.062.625-4 1v-3h-11l-1 2h-2l-1 2v-4l-4-1 1-3c7.547-1.192 18.963-2.519 26 1" id="svg-layer-50" style="pointer-events: all;"/><path fill="#B09279" d="M380 306h2q.549 3.748 1.063 7.5l.314 2.11c1.054 7.85.05 14.238-3.377 21.39l-2-1c-.081-1.603-.14-3.208-.187-4.812l-.106-2.708c.35-2.956 1.116-3.57 3.293-5.48.688-2.687.688-2.687 1-5l-4-1-1-8 3-2z" id="svg-layer-51" style="pointer-events: all;"/><path fill="#AF8E73" d="m216.605 279.867 2.733-.004 2.85.012 2.79-.012c5.42.008 10.696.087 16.022 1.137l2 3-3.187-.062c-3.158.051-5.76.383-8.813 1.062h-3v-2l-2.887.473-3.8.59-3.762.597c-3.212.308-5.469.183-8.551-.66v-3c2.853-.951 4.646-1.129 7.605-1.133" id="svg-layer-52" style="pointer-events: all;"/><path fill="#B8ACA2" d="M496 300h1v57l-2-1q-.037-11.722-.055-23.444-.008-3.99-.02-7.982c-.013-3.815-.018-7.63-.023-11.445l-.015-3.63v-3.337l-.007-2.954C495 301 495 301 496 300" id="svg-layer-53" style="pointer-events: all;"/><path fill="#AF8E73" d="m378 413 5 1c2.154 21.692 2.154 21.692 0 26l-4-1c-.25-1.434-.474-2.873-.687-4.312l-.387-2.426C378 430 378 430 379.469 428.375L381 427c.188-2.687.188-2.687 0-5h-2z" id="svg-layer-54" style="pointer-events: all;"/><path fill="#BDA692" d="M303 87h1l-.035 2.563c-.05 6.253.066 12.257 1.035 18.437h-2v5c-2.893-.964-3.85-1.72-5.312-4.437-.96-4.976-.345-9.57.312-14.563l4 1z" id="svg-layer-55" style="pointer-events: all;"/><path fill="#D1C4B6" d="M127.129 58.902c1.673.95 3.28 2.015 4.871 3.098v3c-3.272-.08-6.542-.194-9.812-.312l-2.815-.069-2.705-.107-2.491-.08c-2.603-.517-3.516-1.414-5.177-3.432 5.862-2.993 11.77-4.793 18.129-2.098" id="svg-layer-56" style="pointer-events: all;"/><path fill="#B39985" d="m116.25 386.813 2.277-.038c4.526-.011 8.26.36 12.473 2.225l1 2-3 1-2 3h-2v-2h-2l-1-2-14 1-2-4c3.222-1.61 6.714-1.185 10.25-1.187" id="svg-layer-57" style="pointer-events: all;"/><path fill="#AE8A6E" d="m444 483 49 1c-3.111 2.074-3.815 2.253-7.348 2.275l-2.65.029-2.85-.003-2.932.013q-3.067.009-6.135.002c-3.139-.003-6.277.02-9.415.045q-2.978.004-5.955.002l-2.857.028-2.64-.019-2.327.002L446 486z" id="svg-layer-58" style="pointer-events: all;"/><path fill="#A17C5F" d="M312 44h57l-1 2h-56z" id="svg-layer-59" style="pointer-events: all;"/><path fill="#2F251A" d="M308 41h31l1 3h-38v-1l6-1zM254 42h47l1 2h-48z" id="svg-layer-60" style="pointer-events: all;"/><path fill="#AD8667" d="M411 49h58v1c-19.337.623-38.65 1.179-58 1z" id="svg-layer-61" style="pointer-events: all;"/><path fill="#BDB0A5" d="M203 466c10.558.779 10.558.779 15 3l-2 3 1.863-.07 2.45-.055 2.425-.07C225 472 225 472 228 474l-1 1a177 177 0 0 1-7.937-.375l-2.249-.133c-5.555-.362-5.555-.362-7.814-1.492v-2a250 250 0 0 0-6-4zM247 466v3h-2l-1 4q-2.874.505-5.75 1l-3.234.563C232 475 232 475 228 475v-2c2.995-.872 5.636-1.108 8.75-1.062l2.422.027L241 472v-2h-9v-1h5l1-3c5.625-1.125 5.625-1.125 9 0" id="svg-layer-62" style="pointer-events: all;"/><path fill="#2F251A" d="M341 42h27l1 2c-5.786 1.254-11.489 1.112-17.375 1.063l-3.098-.014Q344.764 45.03 341 45z" id="svg-layer-63" style="pointer-events: all;"/><path fill="#B8ACA2" d="M497 67c1.061 3.184 1.087 5.325 1.022 8.665l-.061 3.518-.082 3.797-.072 3.889q-.094 5.112-.202 10.224-.104 5.217-.2 10.436Q497.21 117.765 497 128h-1c-1.098-13.936-.984-27.789-.625-41.75l.065-2.701q.096-3.83.208-7.658l.06-2.368c.176-5.407.176-5.407 1.292-6.523" id="svg-layer-64" style="pointer-events: all;"/><path fill="#B8ACA2" d="m498 53 5 1v46h-1c-.599-15.002-1.193-29.984-1-45l-2 1c-.414 2.504-.414 2.504-.625 5.563l-.227 3.066L498 67h-1q-.04-2.937-.062-5.875l-.036-3.305C497 55 497 55 498 53" id="svg-layer-65" style="pointer-events: all;"/><path fill="#AF8D73" d="M265 322a305 305 0 0 1 .688 5.75l.386 3.234C266 334 266 334 264.707 336.391 263 338 263 338 260 338v-14c4-2 4-2 5-2" id="svg-layer-66" style="pointer-events: all;"/><path fill="#B8ACA2" d="M496 204h1c1.053 11.352 1.103 22.61 1 34l-2 1c-.84-8.093-1.108-16.118-1.125-24.25l-.014-2.852.006-2.664.004-2.399C495 205 495 205 496 204" id="svg-layer-67" style="pointer-events: all;"/><path fill="#AF8D73" d="M264 306c.853 3.674 1.108 7.045 1.063 10.813l-.028 2.957L265 322c-2.437-1.375-2.437-1.375-5-4-.74-3.326-.929-6.6-1-10 3-2 3-2 5-2" id="svg-layer-68" style="pointer-events: all;"/></svg>