<svg xmlns="http://www.w3.org/2000/svg" viewBox="0 0 536 552"><path fill="#F2ECD2" d="M50 60a664065 664065 0 0 1 175.616-.055h3.734q29.872-.008 59.743-.022 30.682-.015 61.363-.017 18.912-.002 37.823-.014 12.992-.008 25.985-.006 7.48.002 14.96-.005c34.411-.036 34.411-.036 48.752.564l2.83.117c6.061.305 6.061.305 7.194 1.438.393 3.806.436 7.646.563 11.469l.128 3.86c.566 18.711.38 37.437.327 56.155-.034 12.315-.044 24.63-.05 36.946v3.862c-.006 22.252.151 44.5.383 66.75l.184 17.936c.488 46.707.528 93.41.501 140.12q-.008 14.922-.01 29.843-.01 30.53-.026 61.059a755078 755078 0 0 1-187.024.482l-3.968.01q-31.842.08-63.684.167-32.65.088-65.3.166-20.16.048-40.324.106-13.808.039-27.615.069-7.979.016-15.956.042-7.293.023-14.586.035-2.648.005-5.297.016-3.58.014-7.16.014l-2.113.013c-4.745-.006-4.745-.006-6.973-1.12-1.69-77.623-2.299-155.199-2.203-232.837a25148 25148 0 0 0 .018-34.438v-2.168q0-20.178.014-40.358.004-6.912.004-13.823c.006-26.966.146-53.923.615-80.885l.059-3.594q.084-4.966.182-9.933l.05-2.988.058-2.715.046-2.362C49 62 49 62 50 60m21 21a87 87 0 0 0-.625 7.313l-.11 2.166C69.303 110.72 69.303 110.72 72 118c2.714 2.901 5.187 3.3 9 4 .088 4.125.14 8.25.188 12.375l.076 3.504c.054 6.428-.377 11.893-2.547 17.967C75.702 164.904 76.902 175.573 77 185l2.617.076c18.798.549 37.592 1.158 56.383 1.924l1 2-3 1 2.2.766c3.004 1.324 5.095 2.886 7.613 4.984 2.954 2.43 5.905 4.814 9 7.063 4.462 3.29 8.628 6.93 12.796 10.58C169.784 217 169.784 217 172 217l2 4h2l1 3a136 136 0 0 0 6.75 5.5l1.883 1.473c2.692 2.084 5.327 4.003 8.258 5.746C196 238 196 238 197 240l-1.77.502c-6.826 1.987-13.46 4.353-20.105 6.873l-3.216 1.212c-6.132 2.322-12.2 4.738-18.23 7.315-3.028 1.24-6.09 2.33-9.179 3.41-6.12 2.153-12.16 4.477-18.187 6.875l-2.649 1.047-2.488.996-2.222.888C117 270 117 270 114 272a77 77 0 0 1-4.012 1.508l-2.295.8-2.38.817-2.417.84Q99.95 276.987 97 278v3l2.491 1.054q4.6 1.95 9.197 3.908 1.985.845 3.972 1.685 2.865 1.213 5.727 2.435l3.475 1.476c2.862 1.315 5.457 2.797 8.138 4.442q2.115 1.046 4.266 2.016l2.42 1.092 2.564 1.142 2.68 1.196c16.51 7.33 33.107 14.66 51.07 17.554-3.925 4.076-8.104 7.69-12.5 11.25l-2.143 1.738c-5.178 4.158-10.488 7.976-15.994 11.692-5.316 3.619-10.41 7.548-15.539 11.425l-1.815 1.343C143 358 143 358 141.32 359.562c-5.917 5.213-11.298 5.348-18.958 5.391l-3.629.095c-3.807.094-7.613.15-11.421.202q-5.728.109-11.454.245-3.555.082-7.112.127l-3.257.063-2.855.039C80 366 80 366 75 368v30h2l1-9 .402 3.14.535 4.11.264 2.066c.355 2.706.716 5.358 1.393 8.004.579 2.395-.033 4.313-.594 6.68v2l-4-1v-6c-1.938.75-1.938.75-4 2-3.907 10.667-2.12 24.986-2.176 36.21a910 910 0 0 1-.032 4.19c-.018 1.987-.02 3.975-.022 5.963l-.013 3.51c.245 3.152.791 5.329 2.243 8.127 7.562 4.32 17.776 3.314 26.243 3.405q2.258.033 4.514.103c14.118.432 14.118.432 18.56-3.051 2.985-3.313 4.672-7.029 6.12-11.207l.772-2.035C130 450.397 130 450.397 130 448c2.812.313 2.812.313 6 2 1.116 2.696 1.752 5.324 2.36 8.176.648 2.86 1.236 5.243 2.64 7.824 5.26 3.026 11.132 2.236 17 2l2.453-.09c3.238-.246 5.112-.489 7.484-2.785 2.165-4.329 2.299-8.354 2.5-13.09q.135-2.433.278-4.865c.148-2.54.284-5.078.38-7.621C171.58 427.085 173.44 420.43 182 411a68 68 0 0 0 2.426-3.707c5.106-8.405 10.908-16.003 17.163-23.583a725 725 0 0 0 3.79-4.644 583 583 0 0 1 9.48-11.421l1.486-1.742a748 748 0 0 1 2.85-3.314C227 353.474 227 353.474 227 350h2l.262 1.879c1.217 7.672 3.498 14.817 6.052 22.127.877 2.55 1.695 5.119 2.519 7.686 3.02 9.314 6.34 18.528 9.694 27.726q.834 2.295 1.656 4.595c3.286 9.186 6.973 17.59 12.074 25.92 2.185 3.845 3.577 7.739 4.856 11.958C267 454 267 454 270 456l1.066-2.79c3.497-9.013 7.543-17.59 11.934-26.21 4.885-9.67 8.7-19.407 12.072-29.705 1.838-5.528 4.005-10.607 6.688-15.775 2.143-4.355 3.762-8.903 5.428-13.457q1.016-2.766 2.042-5.528l.888-2.425C311 358 311 358 313 355l.82 1.441c4.843 7.874 11.267 14.241 17.61 20.897 2.39 2.53 4.67 5.145 6.937 7.783 1.987 2.286 4.03 4.516 6.07 6.754C354.033 402.536 359.79 410.925 363 425h1l1-4 .044 2.595q.094 4.837.218 9.673.05 2.08.084 4.16c.152 8.956.579 17.421 4.654 25.572h2v2c5.032 2.516 13.99 2.001 19.3.234 4.517-2.948 7.175-7.587 9.927-12.125 2.155-2.563 3.5-2.819 6.773-3.109l.77 2.52 1.043 3.293 1.019 3.269c1.686 4.211 1.686 4.211 4.168 5.918 5.994 2.167 11.526 2.292 17.86 2.266l3.11.005q3.236.002 6.474-.01c3.31-.011 6.618 0 9.927.012q3.15 0 6.3-.007l3.003.012 2.782-.02c.807 0 1.614-.002 2.446-.004C469 467 469 467 472 465c.374-2.24.374-2.24.372-5.06l.02-3.196-.029-3.463.002-3.542q-.004-3.712-.029-7.424c-.023-3.8-.02-7.598-.014-11.397q-.007-3.6-.021-7.2l.003-3.462-.03-3.195-.013-2.822C472 412 472 412 470 410h-3l1 4c-3.478 1.16-5.459.708-9 0v-2l3-1v-4l-4-1c1.75-2 1.75-2 4-4h4c4.836-6.09 4.182-13.797 4.188-21.187l.037-2.733.005-2.623.013-2.376C470 371 470 371 468 368c-8.518-2.71-17.571-2.606-26.437-3-25.286-1.125-25.286-1.125-34.5-6.625l-1.79-1.064C399.6 353.88 394.256 350.036 389 346l-2.258-1.707C380.335 339.39 374.161 334.206 368 329l-2.191-1.844C350.754 314.261 350.754 314.261 349 309c4.03-1.815 7.833-2.573 12.195-3.227l4.317-.674 2.28-.355c24.801-3.92 47.635-11.097 70.804-20.77A104 104 0 0 1 447 281v-2l-1.664-.62a5731 5731 0 0 1-38.02-14.334q-2.235-.852-4.472-1.7c-14.094-5.352-14.094-5.352-20.824-8.427-3.742-1.702-7.542-3.268-11.332-4.857l-2.488-1.044A5261 5261 0 0 0 349 240c3.299-4.226 6.808-7.665 10.883-11.14 3.545-3.114 6.812-6.496 10.117-9.86l2.328-2.32a517 517 0 0 0 5.8-5.914c6.478-6.655 12.822-12.588 20.544-17.801 2.608-2.201 3.195-3.812 4.328-6.965l1.954-.025c6.7-.085 13.399-.185 20.098-.292q3.753-.058 7.505-.105c3.592-.045 7.183-.103 10.775-.164l3.4-.035 3.154-.06 2.78-.04C455 185 455 185 458 183c.92-6.803.08-13.597-1.426-20.246-2.656-12.737-3.07-25.795-3.574-38.754l3.375-.812C460 122 460 122 462 119c.125-3.188.125-3.188 0-6h-2l1-2c.358-2.988.467-5.996.625-9l.156-2.523.133-2.415.124-2.214C462 93 462 93 461 91c-6.633-2.269-13.53-1.202-20 1l1-3h-7v4l-8-2 1-2c11.789-2.327 25.125-1.066 37-1v34c4-2 4-2 5-3 .357-4.037.47-8.086.613-12.136.074-2.026.164-4.051.256-6.077l.143-3.892.14-3.568c-.163-3.572-.584-6.107-2.152-9.327-4.013-2.577-8.473-2.275-13.098-2.23h-2.371c-2.531.004-5.062.023-7.594.043l-5.223.017c-9.433.045-18.828.244-28.24.889-5.445.34-10.727.076-16.161-.344-8.067-.59-13.727-.181-20.188 4.875-4.042 5.23-5.548 10.944-7 17.313-5.339 21.91-16.42 39.106-29.53 57.214-2.307 3.215-4.558 6.469-6.814 9.72-6.713 9.668-13.644 19.144-20.781 28.503-1.858-2.787-2.705-5.119-3.649-8.292-3.161-10.517-7.744-20.171-12.68-29.964-3.145-6.298-5.718-12.406-7.63-19.19-1.204-2.953-2.754-4.366-5.041-6.554-1.324-2.223-1.324-2.223-2.473-4.633l-1.287-2.695-1.303-2.797-1.314-2.727c-2.795-5.921-4.932-11.823-6.623-18.148l-2 1c-.49 1.9-.89 3.822-1.25 5.75-1.573 7.359-4.36 13.547-7.75 20.25l-1-7c-1.871 3.462-3.1 7.032-4.355 10.758l-1.377 4.058-.72 2.134c-3.993 11.81-8.134 23.52-12.772 35.094A480 480 0 0 0 228 207c-1.36-1.36-2.419-2.889-3.562-4.437-4.716-6.306-9.561-12.506-14.813-18.375-3.37-3.803-6.439-7.806-9.513-11.85-3.432-4.496-6.97-8.896-10.55-13.275-4.262-5.224-8.506-10.461-12.687-15.75l-1.361-1.71A250 250 0 0 1 172 137l-1.615-2.097c-1.969-4.126-1.807-7.817-1.791-12.333l-.033-2.753c-.034-2.897-.05-5.794-.061-8.692q-.024-5.715-.094-11.43l.01-2.627c-.067-5.398-.563-9.41-3.416-14.068-4.476-2.38-9.067-2.254-14.031-2.16l-2.286.016c-2.394.017-4.788.048-7.183.082q-3.591.042-7.183.07-2.227.019-4.455.054c-4.083.04-7.852-.333-11.862-1.062a161 161 0 0 0-5.605-.316l-3.206-.128c-1.114-.04-2.228-.078-3.376-.118l-3.475-.125c-7.112-.239-14.223-.438-21.338-.5l-2.387-.04C73.236 78.764 73.236 78.764 71 81m12.75 106.438-2.703.308L79 188v3c11.406 5.703 30.856 1.475 43 0v-1c-7.032-1.177-14.054-1.354-21.17-1.605-.474-.02-.474-.02-2.873-.114l-2.594-.092c-10.71-.858-10.71-.858-11.613-.751" id="svg-layer-0" style="pointer-events: all;"/><path fill="#BB9B5B" d="m78.525 78.861 2.412.014 2.501.008c7.462.054 14.917.283 22.374.555l3.377.118 3.206.128 2.839.11C118 80 118 80 120.946 80.519c3.238.511 6.243.563 9.519.51l3.674-.038q3.792-.052 7.586-.117c6.146-.055 11.495-.07 17.275 2.127v3h-7v2l2.875.813C158 90 158 90 160 93c.536 6.726.05 13.351-1 20-.382 4.663-.696 9.33-1 14q-4.375.04-8.75.063l-2.5.025-2.422.01-2.222.016c-2.152-.116-4.037-.523-6.106-1.114l-.367-2.773-.508-3.602-.492-3.586C134 113 134 113 132 111a90 90 0 0 0-6-1v5l5-1v13l1 1c.358 5.377.358 5.377-1.187 8.063L130 138c1.375 2.75 1.375 2.75 3 5 1.423-3.823 2.24-6.913 2-11 5.77-1.403 11.181-.673 17 0l1 3c3.375.125 3.375.125 7 0 2.645-2.645 2.941-4.614 3.098-8.296l-.036-2.528-.025-2.846-.037-3.017A357 357 0 0 1 164 89l2 1q.26 4.624.5 9.25l.156 2.848c.24 4.85.367 9.649.2 14.504l-.079 2.686a159 159 0 0 1-.254 5.049c-.14 4.444.256 6.927 3.204 10.35A452 452 0 0 0 173 138q2.367 3.044 4.688 6.125a273 273 0 0 0 10.625 13.125c4.306 5.001 8.34 10.168 12.312 15.438 4.145 5.492 8.406 10.712 13.098 15.753 4.705 5.286 8.958 10.957 13.277 16.559l-1 2h2l.547-1.69c3.779-11.618 7.797-23.012 12.453-34.31 6.196-15.06 11.139-30.47 16-46h1l1 7c3.987-7.899 7.601-15.113 8.613-24.023L268 106l2-1 .523 1.887c2.245 7.381 5.255 14.265 8.54 21.238l1.32 2.839 1.277 2.669 1.145 2.403C284 138 284 138 287 140a139 139 0 0 1 3 8.25c2.63 7.592 5.838 14.635 9.563 21.75 5.056 9.71 8.552 19.458 11.437 30 3.636-3.525 6.607-7.078 9.473-11.23 1.527-1.77 1.527-1.77 3.4-2.567 2.832-1.602 3.942-3.497 5.701-6.226l2.01-3.077 2.103-3.275q2.163-3.305 4.333-6.605l2.092-3.186c3.41-5.12 7.1-9.988 10.888-14.834q1.348-1.762 2.691-3.527 1.372-1.8 2.747-3.598l1.29-1.69c1.675-2.178 3.327-4.24 5.272-6.185 2.625-.125 2.625-.125 5 0l-.488-1.742c-1.627-7.176-.109-14.217 1.488-21.258q.507-2.498 1-5h2l.113-1.828c.653-7.938.653-7.938 3.887-11.172v8l.813-1.875C378 97 378 97 381 95h3v-2l4-2c-.7 3.147-1.76 6.026-3 9l4 1v2l1 2h3l2-2c.934 3.01 1.044 3.867 0 7h-2v2l4-1c1.125 6.75 1.125 6.75 0 9h3l2 2c-.367 2.935-.864 3.864-3 6 3-1 3-1 4.168-3.285l1.02-2.778 1.042-2.785L406 117l1.625.563c3.025.557 5.33-.055 8.375-.563 3.563-.152 7.122-.14 10.688-.125l2.876-.012 2.76.004 2.503.004C437 117 437 117 440 118l-2 5 3 1c2.251 6.872 3.266 13.264 0 20l3 1v5l-1.937.813C440 152 440 152 439 155l4 1c-4.87 1.89-9.224 2.401-14.375 2.625l-2.23.117c-1.798.094-3.597.177-5.395.258v3l2.875-.062c3.934-.008 7.781.412 11.688.847 2.177.192 4.255.22 6.437.153 3 .062 3 .062 5 2.062h-2l-.312 2.813c-.695 3.22-1.165 4.213-3.688 6.187 3.334 2.191 6.042 3.435 10 4l1-4v2h3v2h3c.188 2.375.188 2.375 0 5-3.278 2.185-4.305 2.264-8.114 2.319l-3.154.06-3.4.035-3.485.059c-3.678.06-7.356.106-11.034.152q-3.738.057-7.475.117-9.169.143-18.338.258l-.825 2.348c-1.618 3.653-4.337 5.383-7.488 7.652-7.059 5.297-13.197 11.221-19.306 17.571-2.099 2.172-4.243 4.297-6.381 6.429l-3.121 3.156-3.317 3.344-1.658 1.684c-2.656 2.671-5.329 5.218-8.252 7.597C350 238 350 238 349 240l2.535 1.038q4.71 1.93 9.416 3.87 2.027.833 4.055 1.663a2659 2659 0 0 1 5.869 2.413l3.555 1.46a132 132 0 0 1 7.525 3.558c3.87 1.961 7.807 3.517 11.885 4.986l2.197.807q3.45 1.264 6.9 2.517c9.899 3.604 19.735 7.288 29.448 11.369A159 159 0 0 0 447 279v2c-27.404 10.783-53.987 19.974-83.219 24.405l-3.644.552-3.228.468c-2.838.56-5.269 1.409-7.909 2.575 2.455 4.64 5.684 8.03 9.375 11.688l1.868 1.861c4.985 4.88 10.265 9.147 15.87 13.283a91 91 0 0 1 6.95 5.793c4.035 3.64 8.518 6.485 13.105 9.383 4.427 3.114 7.431 6.19 9.832 10.992 13.703 4.568 27.116 5.522 41.448 5.672l3.915.055 3.51.018c3.108.253 5.321.932 8.127 2.255v1l-37 1-1 4 3 2-2 4h-5l1-4h-2l-1 4h-2v3l1.938.313L421 386c1 3 1 3 1 6h2l1-2h2c1 3 1 3 .313 5.625C426 398 426 398 423.875 398.813L422 399v-2h-2v3h2l2 3c-1 3-1 3-4 5l1 2c4.875-2.625 4.875-2.625 6-6h5c-2.145 4.692-4.999 6.477-9.355 8.887L421 414v2h-3v2h2l.375 1.938L421 422l2 1v2l-7 1-1 4-.687-3.875c-.536-2.21-.536-2.21-1.313-4.125-2.625-1.5-2.625-1.5-5-2v5l-3-2 1-2-2-1v-4l1.688 1.125c2.312.875 2.312.875 5.062 0L413 416v-5l-2 3c-3.125.188-3.125.188-6 0l.063-2.75c-.063-3.25-.063-3.25-.625-5.437C404 404 404 404 405 401h-2l-1-4h-3l1.063 1.75c1.086 2.608.868 3.644-.063 6.25h2v2c-2.312.188-2.312.188-5 0-1.688-1.438-1.688-1.438-3-3l-2-1v2h2v2c-3.161-1.37-3.993-1.99-6-5l-4 2-1-3h2l-1-4-1.312 2.938C381 403 381 403 378 404v2h-2l-1-5h-2v3h2v4h-2l-.375-2.437L372 403l-2-1 3-3-3-1v-3h-2l-1-5h-3v-2l-4 1c-1.16-3.478-.708-5.459 0-9h-2l-.75-2.375c-1.404-2.948-2.257-3.527-5.25-4.625v-2h-8l-1 2c-5.45 1.275-5.45 1.275-8 0v2h3l-1 3c-5.273-1.438-8.494-5.004-12-9l-1-2-1.867-.875c-2.552-1.346-3.61-2.777-5.258-5.125-1.555-2.191-2.97-4.096-4.875-6l-1.066 2.902c-2.747 7.43-5.573 14.823-8.559 22.16l-.838 2.088c-4.979 12.117-4.979 12.117-8.662 13.85-1.875 0-1.875 0-3.875-1l1-3-2-1-1 3h-7v2h-2v-2c-1.46.114-2.917.242-4.375.375-.812.07-1.624.14-2.46.21C269 395 269 395 267 397v-2h-3v-5l-3 1-1-5-4-1v-4h-2v-3l2-1-5-1-1 5-4 1v2l-5-2 2-1-4-1v-2h-2c-7.574-18.964-7.574-18.964-7-27l1-2-2-1 1-1-3-1-.738 2.137c-1.448 3.286-3.275 5.82-5.45 8.676l-1.21 1.59a184 184 0 0 1-9.028 10.84c-2.263 2.527-4.415 5.14-6.574 7.757l-2-2-2 1-2.562.875L195 378l-1 3h-2v-2h-2v-2h3l1-4h-2v-2l-2.312-.375C187 370 187 370 184 368h7l-.562-2.312C190 363 190 363 191 360h-3l-1 2c-2 2-2 2-5.5 2.188C178 364 178 364 176 363v-4l-2 1-1 3-2.187-.625c-3.26-.435-4.896.208-7.813 1.625-2.248-2.052-3.002-3.007-4-6l-1.375 2-1.625 2h-2v2l2 1-2 3-2.437-.5c-4.222-.592-8.31-.585-12.563-.5l-1-3h5l.125-1.875L144 360c3-1.125 3-1.125 6-2l1-2c2.062-1.125 2.062-1.125 4-2v-3c2.062-1.621 2.062-1.621 5-3.437 5.261-3.377 10.316-6.93 15.313-10.688l1.99-1.486a200 200 0 0 0 11.198-9.1c1.769-1.521 3.606-2.926 5.499-4.289l-1-3 1.531-1.277 1.969-1.66 1.969-1.653L200 313v-1l-1.734-.12c-19.022-1.375-35.741-4.272-53.221-11.986-3.303-1.444-6.64-2.798-9.982-4.144l-3.403-1.39a113 113 0 0 0-8.406-2.739c-5.661-1.66-10.986-3.934-16.379-6.308l-2.898-1.26A1777 1777 0 0 1 97 281v-3q3.966-1.447 7.938-2.875l2.228-.816c3.695-1.324 7.288-2.45 11.143-3.204 5.884-1.23 11.283-3.615 16.816-5.918C150.171 259.058 165.32 254.222 181 250l-10 1v-2l2.965-.516C192.6 245.098 192.6 245.098 198 239l1-2-4-1v-2h-3v-3h-4v-2l-2.375-.75c-3.04-1.447-3.324-2.276-4.625-5.25l-3-2v-2l-4-1v-3l-5-1v-2h-2v-2l-2.437-.812L162 208l-1-3c-2.469-1.719-2.469-1.719-5.5-3.5-5.389-3.167-5.389-3.167-6.5-6.5-1.748-1.017-3.5-2.032-5.309-2.937C142 191 142 191 140 188c-6.511-4.34-16.122-3.17-23.75-3.281l-6.027-.114-9.395-.157a4558 4558 0 0 1-9.14-.167l-2.857-.04-2.632-.052-2.317-.038C82 184 82 184 80 183q-.04-4.594-.062-9.187l-.026-2.62c-.016-4.205.044-8.089 1.088-12.193v-1c.295-3.543 1.019-5.024 3.25-7.875C87 148 87 148 89.688 147.875c3.061 1.49 3.217 2.997 4.312 6.125l3 1a159 159 0 0 1 3 5c2.682 1.341 4.818 1.169 7.813 1.188l3.144.042c3.81-.288 6.705-1.19 9.73-3.542 1.628-2.094 2.42-4.201 3.313-6.688l1-2-1.68 1.094-2.195 1.406-2.18 1.406C117 154 117 154 115 154v2c-3.686 1.843-7.967 1.357-12 1-2.875-1.25-2.875-1.25-5-3l-2.375-1.75C94 150 94 150 94.25 146.25L95 143l-2.875.063C89 143 89 143 87 142l1 4-4 2q-.506-3.344-1-6.687l-.562-3.762c-.528-4.285-.807-7.445.562-11.551-.121-2.262-.121-2.262-.437-4.687l-.31-2.45L82 117c2-1 2-1 4.066-.441l2.496.879c5.03 1.61 9.182 1.816 14.438 1.562l-4-2 8-4v-6h-1V94l2 1c3.859-.912 6.687-1.791 10-4l2 3 2.688-.437c5.738-.83 11.532-1.154 17.312-1.563l1-3h8l1-3-21 1-2 4-3 2-1-5h-9l-2 4-2-1v-2h-3l-1 3c-4.75-.875-4.75-.875-7-2l.621 1.547C102.01 97.993 102.664 104.16 103 111c-8.396 4.112-15.087 3.008-24 1-.766-3.42-1.16-6.62-1.187-10.125l-.043-2.57C78 97 78 97 80 94h2l2-6c-1.968-1.968-5.348-1.662-8-2q-.041 6.875-.062 13.75l-.026 3.945-.01 3.79-.016 3.49c.096 2.544.365 4.609 1.114 7.025-3.875-1.75-3.875-1.75-5-4-.099-2.542-.14-5.056-.133-7.598l-.003-2.27q0-2.378.006-4.754.005-3.651-.007-7.302 0-2.305.004-4.611l-.006-2.22c.03-6.259.432-6.367 6.664-6.384" id="svg-layer-1" style="pointer-events: all;"/><path fill="none" d="M0 0h536v552H0zm32 36v2l-1.75.688C26.235 41.03 23.78 44.773 22 49c-1.572 10.04-1.142 20.432-1.127 30.573l-.005 5.252q-.005 7.17.001 14.34.003 7.75-.004 15.5-.005 15.165 0 30.33.003 12.33.001 24.657v3.55l-.001 7.138q-.004 33.445.006 66.889.006 28.676-.001 57.352a175800 175800 0 0 0-.004 73.767v3.534q.002 12.309-.002 24.618-.005 15.008.003 30.014.005 7.652 0 15.304-.004 7.013.004 14.027.001 2.527-.002 5.056c-.04 30.925-.04 30.925 8.444 42.161 9.797 7.064 26.095 5.09 37.582 5.07l22.044.002c3.277.004 6.554.001 9.83-.001l3.663.006 3.45-.01 3.004-.002c3.114-.127 3.114-.127 6.632-.6 20.321-2.588 41.23-1.656 61.687-1.6 4.237.012 8.473.016 12.71.021q10.965.015 21.932.038c11.56.024 23.12.036 34.68.048l14.909.015q16.845.018 33.692.04l3.105.004q24.986.036 49.971.084 25.719.049 51.437.065 15.833.01 31.667.052 10.83.029 21.659.027c4.163 0 8.326.005 12.49.023q5.717.025 11.435.01c2.028 0 4.056.014 6.084.029 8.112-.036 14.363-.436 20.887-5.688l2.45-2.57 2.488-2.555c7.64-8.93 6.4-19.58 6.55-30.765l.072-4.764c.078-5.389.141-10.777.202-16.166l.033-2.898c.73-64.184.01-128.373-.581-192.555l-.183-20.364q-.345-39.111-.74-78.222-.108-10.707-.205-21.414-.12-13.083-.264-26.164-.074-6.714-.134-13.426-.054-6.2-.13-12.397-.026-2.233-.041-4.465c-.055-7.557-.332-15.083-1.092-22.604l-.376-3.848C510.768 51.105 509.08 49.307 506 46l-1-2h-2l-.625-1.687c-2.43-4.088-5.889-6.818-10.375-8.313-11.095-1.18-22.242-1.147-33.385-1.14l-5.444-.01q-7.42-.01-14.84-.01c-5.349-.002-10.698-.01-16.048-.016q-17.51-.02-35.018-.024-10.936-.004-21.871-.012a139202 139202 0 0 0-80.213-.029q-31.643-.008-63.284-.045-32.505-.035-65.012-.037-18.244.001-36.488-.025-15.519-.023-31.038-.012c-5.278.004-10.557.003-15.836-.011q-7.245-.019-14.492 0-2.622.004-5.246-.01c-2.375-.01-4.75-.003-7.125.01-1.32-.002-2.64-.002-4-.003-4.191.428-6.9 1.536-10.66 3.374" id="svg-layer-2" style="pointer-events: all; fill: none;"/><path fill="#3B3523" d="m46.414 32.382 2.245-.018c2.49-.015 4.979.007 7.47.028q2.7-.005 5.4-.015c4.954-.013 9.907.005 14.861.028 5.34.02 10.681.01 16.021.004 10.468-.006 20.935.013 31.402.042 12.193.031 24.386.036 36.58.039 21.764.006 43.53.035 65.294.078a45404 45404 0 0 0 67.257.084l15.66.009a123095 123095 0 0 1 78.595.073q19.17.018 38.338.055 7.926.016 15.852.025 7.267.006 14.535.026 2.618.006 5.235.007c8.043.003 16.082.065 24.116.475l3.505.172c5.862.921 10.405 3.672 14.161 8.19 2.203 4.819.898 10.243.059 15.316l-4 1a744715 744715 0 0 0-.055 185.315v3.931q-.008 31.552-.022 63.103-.014 32.351-.017 64.703a79108 79108 0 0 1-.014 39.956q-.007 13.68-.006 27.363.002 7.905-.005 15.81-.007 7.225-.002 14.452.001 2.625-.004 5.249-.005 3.548.002 7.094l-.001 3.993C499 492 499 492 500 494l-2 3c.875 2.688.875 2.688 2 5l7-2a187 187 0 0 1-1.25 4.438l-.703 2.496C504 509 504 509 501.89 509.785L500 510v2c-7.013 2.142-13.608 2.336-20.912 2.394l-4.026.054c-3.754.05-7.508.086-11.263.12q-3.682.034-7.366.076c-53.26.596-106.525.691-159.787.866a78891 78891 0 0 0-38.032.134l-2.224.008-2.222.009-2.22.008c-35.65.132-71.298.245-106.948.331l-3.744.01q-21.982.053-43.966.074-5.89.005-11.78.017-6.72.012-13.44.011-2.396 0-4.793.007c-27.898.067-27.898.067-36.277-8.119l-2.875-2.437c-6.099-7.355-5.594-15.831-5.632-24.92l-.053-4.342c-.048-3.93-.077-7.86-.102-11.792-.023-3.349-.057-6.697-.091-10.046-.117-11.487-.19-22.975-.247-34.463l-.013-2.536c-.114-23.317-.131-46.634-.122-69.951q.003-9.515.001-19.028v-2.796l-.001-5.63q-.004-25.97.006-51.937.006-22.147-.001-44.293a107028 107028 0 0 1-.004-57.603v-2.76q.002-9.51-.002-19.017-.005-11.572.003-23.146.005-5.873 0-11.744c-.011-14.735.065-29.462.516-44.19l.092-3.485C22.762 53.818 23.103 47.066 29 41a264 264 0 0 1 5-3l2.197-2.555c3.439-3 5.862-3.145 10.217-3.063M489 45v4q-21.266.034-42.532.052-9.874.007-19.747.023-9.522.016-19.043.02-3.64.003-7.28.01-5.083.01-10.165.009l-3.067.01-2.787-.004-2.43.003C380 49 380 49 378 48l-2.155.436c-3.48.69-6.831.652-10.358.586l-2.255-.03c-2.472-.032-4.944-.073-7.416-.113l-5.253-.072q-5.592-.075-11.182-.159a13567 13567 0 0 0-32.147-.432c-17.316-.22-34.626-.271-51.943-.203-15.235.055-30.438-.203-45.666-.638-12.123-.346-24.036-.551-36.113.833-6.902.752-13.68.897-20.617.827a1472 1472 0 0 0-31.313.184l-2.084.033q-6.279.103-12.556.212-5.433.091-10.866.18Q85.54 49.82 75 50v1l8 1c-3.458.029-6.917.047-10.375.063l-2.984.025-2.852.01-2.634.016C62 52 62 52 60 51l6-1v-1H51c2 4 2 4 4.174 4.742 3.363.307 6.665.385 10.043.387l2.18.005c2.419.005 4.836.002 7.254 0l5.245.007q7.213.008 14.428.004c5.185 0 10.37.006 15.554.01q15.24.012 30.48.012 12.385 0 24.769.006 35.097.013 70.194.012h7.652q30.721.002 61.443.023 31.53.023 63.059.02 17.707-.001 35.415.014 15.075.015 30.149.005 7.694-.007 15.387.005 7.041.011 14.082-.002 2.55-.003 5.097.005c2.309.007 4.617.002 6.926-.006h3.887c3.906-.272 6.905-.931 10.582-2.249l1-2h8l-1-3-2 1-1-2-4 1zM129.926 57.407l-11.516.06q-16.19.082-32.379.186-4.808.031-9.617.056-5.452.03-10.906.072-2.898.018-5.797.031l-3.429.03-2.968.02C51 58 51 58 49 59a5197 5197 0 0 0-1.134 111.428v14.052l-.001 4.157q-.004 19.243.006 38.486.006 16.048-.001 32.098c-.025 59.829.05 119.657.486 179.485q.04 5.824.073 11.648.053 9.018.134 18.037.027 3.294.044 6.588c.016 2.983.045 5.966.076 8.95l.006 2.635.033 2.413.017 2.077C49 493 49 493 51 497h441l-2-9c-.165-2.5-.246-5.007-.243-7.513l-.006-2.13c-.005-2.337.005-4.674.015-7.01l-.003-5.1c-.002-4.658.008-9.316.02-13.973.01-5.03.01-10.058.01-15.087q.004-13.068.026-26.135.029-18.92.035-37.84.015-30.732.05-61.465l.004-3.714.005-3.72q.03-26.073.053-52.148l.003-3.703q.026-30.606.044-61.212.011-18.862.036-37.726.018-12.936.025-25.872.005-7.455.018-14.91.013-6.839.013-13.678.002-2.46.009-4.92A403 403 0 0 0 489 59c-3.143-1.379-5.665-2.25-9.1-2.249l-2.39-.014-2.594.016-2.787-.008c-3.094-.005-6.187.003-9.28.012q-3.341-.002-6.683-.006c-6.106-.004-12.212.003-18.318.013-6.516.01-13.033.007-19.55.006q-18.936.002-37.873.027-15.251.019-30.503.027c-73.332.042-146.664.185-219.996.583M36 68c-.876 21.934-1.143 43.83-1.116 65.78q.005 6.756.002 13.512 0 11.646.008 23.292.011 16.84.012 33.68.004 27.337.019 54.673.014 26.52.02 53.037v3.313l.005 16.461A507930 507930 0 0 0 35 471h2l-.254 2.336-.309 3.039-.316 3.023C36 482 36 482 37 484l-2 1 3 2c2.114-3.171 2.26-4.004 2.317-7.643l.059-2.89.034-3.168.057-3.334c.06-3.663.106-7.326.15-10.988l.114-7.752c.369-26.342.426-52.686.398-79.031q-.006-5.85-.007-11.7c-.011-34.022-.179-68.038-.622-102.057l-.035-2.703-.238-18.226-.033-2.47c-.406-31.26-.33-62.51.068-93.768l.036-2.885c.121-9.579.246-19.158.392-28.736q.08-5.362.153-10.726.035-2.507.078-5.013c.14-8.375.159-16.582-.921-24.91z" id="svg-layer-3" style="pointer-events: all;"/><path fill="#C9AE75" d="M324 366c1.763 1.763 3.255 3.56 4.813 5.5 2.465 2.914 4.407 4.5 8.187 5.5l1-2h-3v-2l2.25.125C340 373 340 373 341.813 372c3.383-1.547 6.492-1.123 10.187-1l1 2 2.563 1.375L358 376v4h2v8h4v2h3l1 5h2v3l4 1-3 1 2 8h2v-4h-2v-3h2l1 5h2v-2l3-2c1.188-3.625 1.188-3.625 2-7l2 2c-.375 2.625-.375 2.625-1 5l3 1 1-2 6 6v-2h-2v-2l5 2v2h5v-2h-2l.125-2.875C400 399 400 399 398 397l2-3v3l3-1v5l4-1-1.062 2.813C405 406 405 406 406 409c-.437 2.688-.437 2.688-1 5h6l1-4 2 2c-.375 2.625-.375 2.625-1 5l-6 2-3-3v4l3 1v3l1-4c2.313.188 2.313.188 5 1 1.813 2.563 1.813 2.563 3 5l7-1v-2l-3-1v-4h-2v-2h3l-1-3 1.898-.988 2.477-1.325 2.46-1.3C429 408 429 408 431 405l-4-1-.25 1.875c-.75 2.125-.75 2.125-2.687 3.25L422 410l-2 2-1-4 4-3-1-5h-2v-3h2v2l4-1 1-8h-2l-1 3-2-1-.937-3-1.063-3-3-1v-3h2l1-4h2v3c2.438-.375 2.438-.375 5-1l1-2-4-2c.75-1.937.75-1.937 2-4 2.869-.996 5.529-1.118 8.547-1.098l2.558.01 2.645.026 2.691.013q3.28.018 6.559.049v1h-9l1 4 3.688-.437 2.214-.262C449 375 449 375 451.75 374.25c2.25-.25 2.25-.25 4.563 1.063C458 377 458 377 458 379l4-2c.669 14.643.669 14.643-3 21-1.93 1.812-3.612 2.78-6 4 3 1 3 1 6 0l-1 4 4 1-1 5h-2v2c5.625 1.125 5.625 1.125 9 0l-1-4c3.875.875 3.875.875 5 2 .089 2.594.115 5.16.098 7.754l-.005 2.35c-.005 2.486-.018 4.972-.03 7.459q-.009 2.522-.014 5.044-.017 6.197-.049 12.393h-1l-1-16c-1.832 1.832-1.239 4.757-1.316 7.223l-.127 3.818-.12 4.022-.13 4.033q-.16 4.951-.307 9.904c-5.095 1.89-9.493 3.385-15 3.125-3.491-.145-6.786-.068-10.246.363-4.952.597-9.834.625-14.817.575l-2.623-.014q-3.157-.02-6.314-.049l2 2c-5.47-.608-5.47-.608-7.562-2.156-1.952-2.503-2.684-5.01-3.625-8.031l-1.043-3.293L408 450c-2.219.133-2.219.133-5 1-2.281 2.617-2.281 2.617-4.5 5.875-4.944 7.225-4.944 7.225-9.5 9.125-2.696.21-5.135.287-7.812.188l-2.1-.042A384 384 0 0 1 374 466l1-2 2.23.105c10.133.282 10.133.282 13.77-3.105v-3a70 70 0 0 1 1.5-4.187l.844-2.168L394 450c-3.161 1.37-3.993 1.99-6 5-3.285 1.095-5.737 1.1-9.187 1.063l-3.293-.028L373 456v-2h2l-1.062-3.625c-.947-3.827-.906-6.503.062-10.375l.52-2.148c.476-1.955.976-3.904 1.48-5.852l-6-1-1-9h-2v10h-1l-1-14-1 7c-1.977-2.965-2.493-4.717-3.25-8.125-2.733-10.296-9.64-17.24-16.75-24.875q-2.565-2.81-5.125-5.625l-2.516-2.766c-4.6-5.087-9.135-10.203-13.359-15.609zm133 53 .105 1.863.082 2.45.106 2.425C457 428 457 428 455.906 429.808c-2.918 1.825-5.217 1.278-8.594.942l-3.773-.352c-2.789-.314-5.57-.649-8.351-1.023L432 429l-1 1c.093 1.795.251 3.587.438 5.375 1.406 15.304 1.406 15.304-.438 21.625l-5 1c3 1 3 1 6 1 2.12-3.534 2.532-6.944 3-11l3 11q6.188.04 12.375.063l3.563.025 3.398.01 3.142.016C463 459 463 459 465 458l-1-4-2 1c-2.415.098-4.833.13-7.25.125l-3.953.008L447 455l-3.273-.102C441 454 441 454 439.102 451.156l-1.477-3.656-.772-1.909c-1.948-5.116-2.411-9.196-1.853-14.591l1.8.656c7.349 2.469 14.945 4.13 22.325 1.031C461 431 461 431 462 428h-2l-.375-3.375C459 421 459 421 457 419" id="svg-layer-4" style="pointer-events: all;"/><path fill="#CBB079" d="m227 346 4 1-1 6-1-3h-2l-.754 2.188c-1.371 3.095-3.003 5.226-5.184 7.812l-2.453 2.934a1656 1656 0 0 1-5.156 6.039c-10.373 12.121-20.549 24.476-29 38.035L183 409h-2c1.002-3.793 1.81-6.715 4-10l-4 2-.687-1.812c-1.651-2.752-3.51-3.713-6.313-5.188l1 8-2.875-.125C169 402 169 402 167 404c-2.125-.375-2.125-.375-4-1l-1.25 3.375c-1.456 3.452-1.456 3.452-3.875 4.875L156 412l-1 3c-2.375 1.25-2.375 1.25-5 2l-3-1 1 1 3 3-1 3c-3.594-1.335-6.755-2.96-10-5l3-3-2-5-2 1 .125 2.375C139 416 139 416 137 418c-.195 2.164-.195 2.164-.125 4.625l.055 2.477L137 427l5-1 1 2h10v-2l2-1 1-3 2 2-1 2 1.938.875C161 428 161 428 162 430l-1 3h2c2.32 6.959.837 14.84 0 22h2v5l-3-2a192 192 0 0 0-7-2l1-8h-2c-.187-2.312-.187-2.312 0-5l3-3c.094-2.594.094-2.594 0-5l-1.977.254c-7.404.863-7.404.863-11.335.121-2.688-.375-2.688-.375-5.5.563-2.792 2.631-2.92 4.411-3.243 8.125C135 446 135 446 136 449l-6-1-2 4v-10h-3l2-5h1c1.39-9.088 2.309-17.784 2-27h2v-2l-3 1-1-4c-7.5-.125-7.5-.125-10.25.563-1.75.437-1.75.437-3.75-.125-2.625-.575-3.757.2-6 1.562l1 3c2.063.688 2.063.688 4 1l-1 3-8-2 1.063 3.875c1.062 3.875 1.062 3.875-.063 6.125h3l.313 1.938L109 426l3 1 .367 2.152.508 2.786.492 2.777L114 437l2 1 1 3a88 88 0 0 1-5 1l-1-1-1.375 1.5C108 444 108 444 106 444v4h5l1-5h5l1 5-3-1 2 2c.978 4 1.053 7.023 0 11h-2v4l-3 1c-1.784-3.062-2.229-5.22-2.125-8.75l.055-2.422L110 452l-6 2-1 8-1.125-1.5c-2.622-2.097-4.584-1.567-7.875-1.5-2.375-1-2.375-1-4-2l-2 2-3-3 1.898-.621 2.477-.817 2.46-.808C94 453 94 453 96 452c.625-2.562.625-2.562 1-5l-8-1c.563-2.812.563-2.812 2-6 2.285-1.44 4.407-2.136 7-3v7c3-2 3-2 3.75-4.562L102 437c-1.84-1.84-4.72-1.174-7.187-1.187l-3.418-.043c-3.454.234-6.176.994-9.395 2.23v3l-3-1 1-2-3-1-.375 3.938c-.21 2.214-.21 2.214-.625 4.062l-2 1v-18c-.547 4.375-1.002 8.72-1.219 13.125l-.111 2.182a388 388 0 0 0-.19 4.37c-.088 1.78-.276 3.553-.48 5.323l-2 1c-.098-10.692-.154-21.38.375-32.062.03-.73.062-1.46.094-2.213.221-3.917.609-7.267 2.531-10.725l3-1v6l4 1-.062-2.875C80 409 80 409 81 407c-.121-1.945-.121-1.945-.437-4.125L80 399l2 1 .75-2.75c2.16-5.617 6.205-8.18 11.25-11.25h2v-2c4.685-2.489 7.944-1.857 13-1v-5h-5l-1-2h8c-1.89-1.89-5.125-1.51-7.66-1.754l-2.014-.197q-3.194-.31-6.388-.611l-4.323-.42Q85.308 372.502 80 372v-1h52v-3l-1.804.048c-2.69.062-5.38.101-8.071.14l-2.84.076-2.715.029-2.507.048L112 368l-2-3 2.025.115c14.005.609 24.048.146 34.846-9.366a128 128 0 0 0 3.511-3.344c1.759-1.527 3.502-2.45 5.618-3.405 0 4.676-.88 5.696-4 9h-2l-1 2-2-1-1 2h-2l-1 3-2 2 2.336-.035c1.003-.01 2.006-.018 3.039-.027l3.023-.036C152 366 152 366 154 367v-3c.306-1.34.635-2.675 1-4h3l2-4 2 6c4 0 4 0 6.625-.562C171 361 171 361 173 362v-3h3v4l9 1 1-3c3.062-1.187 3.062-1.187 6-2l-.562 2.25c-.43 2.7-.29 4.196.562 6.75l-5 1 5 2v2h2l-1 4h-3v2h2v2c2-2 2-2 4-5a70 70 0 0 1 4-1l2-2 2 3c17.09-19.805 17.09-19.805 23-30M86 413l-1 4h2c-1.75 3.875-1.75 3.875-4 5v3c4.783 2.916 7.557 3.31 13 2 2.438-1.062 2.438-1.062 4-2l-1-5-10 1v-8z" id="svg-layer-5" style="pointer-events: all;"/><path fill="#A5A294" d="m504 44 4 5 1.676 1.41c7.78 9.341 3.478 34.384 3.324 45.59l-2-1 .016-1.905c.221-30.669.221-30.669-3.016-40.095l.423 3.438c2.254 20.463 1.93 41.027 1.982 61.585.016 5.643.043 11.286.068 16.929q.07 16.408.117 32.816.04 13.266.09 26.531c.123 33.429.22 66.857.302 100.286l.045 18.18c.072 27.994.125 55.988.15 83.983q.012 10.252.032 20.506.024 12.404.02 24.809-.002 6.249.013 12.499c.078 31.675.078 31.675-2.242 45.438l2-1c.563-2.687.563-2.687 1-6 .438-3.312.438-3.312 1-6l2-1c-.025 7.37-.516 12.622-5.332 18.379-1.779 1.729-3.65 3.181-5.668 4.621l2-8-7 2v-5l-3-1 3-3-1-2a67 67 0 0 1-.126-4.317l-.008-2.764.007-3.057-.005-3.231c-.004-3.598 0-7.196.003-10.794l-.006-7.711q-.005-9.411 0-18.822.003-7.656.001-15.311v-2.2l-.001-4.424q-.004-20.77.006-41.541.006-17.796-.001-35.591a67602 67602 0 0 1-.004-45.758v-2.195q.002-7.632-.002-15.264-.004-10.302.005-20.603 0-3.773-.002-7.545c-.018-22.5-.018-22.5.903-32.299.355-3.97.397-7.928.42-11.912l.025-2.537q.025-2.682.045-5.364.034-4.243.077-8.486c.07-7.01.13-14.019.19-21.028q.075-8.937.165-17.875.038-4.182.068-8.366l.05-5.09.013-2.353c.063-5.334.063-5.334 1.177-7.562h-2v-2h2l-.43-2.376c-1.363-8.049-1.84-15.772-1.765-23.925l.008-3.643c.011-3.79.036-7.58.062-11.368q.016-3.886.027-7.772.034-9.457.098-18.916l3-1z" id="svg-layer-6" style="pointer-events: all;"/><path fill="#CAAF78" d="m393.754 82.156 3.342.16q3.425.182 6.851.368c6.317.3 12.35.188 18.64-.426 6.73-.509 13.478-.483 20.224-.498 2.58-.01 5.16-.041 7.74-.073q2.486-.009 4.972-.015l2.311-.038c4.808.02 8.045.898 12.166 3.366v5l-2 1-2 3-1-6c-30.698-.244-30.698-.244-37 1l-1 2 8 2v-4h7l-1 3 2.938-1c5.467-1.567 11.625-1.86 17.062 0 1.162 2.325 1.059 3.457.914 6.027l-.133 2.4-.156 2.51-.133 2.499c-.201 3.44-.394 6.271-1.492 9.564l2-1c.323 3.555.456 5.376-1.687 8.313-2.528 1.844-4.272 2.178-7.313 2.687.576 14.795 1.478 29.297 4.625 43.805.586 3.432.504 6.72.375 10.195h-3v-2h-3l-1 2c-4.557-.438-7.577-.85-11-4l1.375-1.625c1.842-2.692 2.705-5.26 3.625-8.375l-2.203.07c-7.486.135-14.459-.613-21.797-2.07l-1-3c2.02-2.02 6.026-1.368 8.813-1.5 8.76-.42 8.76-.42 12.187-1.5l-2-1 1-5h3v-5l-3-1 1-2.062c2.11-6.2.885-11.864-1-17.938l-2-1 2-5c-4.375-.03-8.75-.047-13.125-.062l-3.75-.026-3.633-.01-3.332-.016c-3.162.114-6.077.402-9.16 1.114-1.504 2.031-1.504 2.031-2.562 4.5-1.067 2.469-1.067 2.469-2.438 4.5-2.652.781-2.652.781-5 1l2.063-1.687L401 125c-.25-2.75-.25-2.75-1-5h-3l.125-2.875C397 114 397 114 395 112h-2v-2h2v-6l-2 2c-2.125-.375-2.125-.375-4-1v-2l-2-1 1-1h-4l1-2.875C386 95 386 95 386 93h-2v2l-2.937 1.25C378 98 378 98 377.125 100.188L377 102h-2v-7l-3 11h-2c.349-7.204 1.806-13.02 6-19 5.183-4.497 11.143-5.202 17.754-4.844M444 124l.492 3.836c.584 5.273.656 10.488.633 15.789l.012 2.734c-.008 4.989-.288 9.724-1.137 14.641 2.438-.75 2.438-.75 5-2 2.812-7.853 2.092-17.089 1.258-25.219-.335-3.615-.328-7.154-.258-10.781-2.156 0-3.924.447-6 1" id="svg-layer-7" style="pointer-events: all;"/><path fill="#A8A69B" d="M49 441h1v49l16.22-.045a679756 679756 0 0 1 166.52-.437l3.88-.01q31.1-.08 62.203-.167 31.91-.089 63.821-.166 19.692-.048 39.385-.106 13.5-.039 27.003-.069 7.791-.016 15.582-.042 7.136-.023 14.272-.035 2.578-.005 5.157-.016c8.38-.034 16.626.038 24.957 1.093l3 7H51c-1.93-3.86-2.247-5.133-2.227-9.228v-3.153l.032-3.385.008-3.48c.011-3.668.037-7.336.062-11.004q.016-3.73.027-7.46.034-9.146.098-18.29" id="svg-layer-8" style="pointer-events: all;"/><path fill="#BA9A5C" d="M113.688 404.375 117 405c2.695-.192 5.323-.611 8-1h4l1 4h2v2h-2l.563 2.688c.832 5.77.014 11.546-.563 17.312l-.223 2.477c-.366 3.552-.867 6.467-2.777 9.523l2-1c-.32 7.87-.684 14.791-4 22l-4-1v-1l-.727 2.387C119 466 119 466 117.102 467.145 107.512 469.73 97.846 469.26 88 469v-1l-2.992-.078-3.883-.172-3.867-.14C74 467 74 467 72.598 465.206c-1.945-7.18-1.633-14.4-1.285-21.77l.104-2.396C71.73 435.533 72.65 430.346 74 425h1l-.016 2.551q-.025 4.728-.039 9.455-.008 2.037-.02 4.076c-.013 1.963-.018 3.927-.023 5.89l-.016 3.571c.117 3.55.548 6.952 1.114 10.457 4.8-3.323 4.8-3.323 5.813-6.75L82 452l-3-1 .563-1.625c.551-2.995.043-5.412-.563-8.375h3l-1-4c6.618-2.463 13.004-2.19 20-2 1.946 3.475 2.076 5.125 1 9l-3-1-1 2c-1-4.75-1-4.75-1-7l-3 2h-3l-1 5 7 2v5c-3.668 1.962-6.872 3.393-11 4l2 2 3-2 1.563.938c3.104 1.353 6.088 1.676 9.437 2.062l1-6 7-1 .184 1.863.5 4.875C111 461 111 461 112 464h3v-4h2a1013 1013 0 0 0-.437-4.812l-.247-2.708C116 450 116 450 115 447l1-1 1-3c-2.438.813-2.438.813-5 2l-1 3h-5v-4l1.938-.312L110 443l1-3 3 2 1-2 2 1v-2h-5l2-2v-3l-2-1v-6l-1.937-.375L108 426l-1-2 1-2h-3l-1-10 8 1 1-2-6-1c1.33-3.993 2.161-6.257 6.688-5.625" id="svg-layer-9" style="pointer-events: all;"/><path fill="#BB9B5C" d="M174 394c2.867.573 3.861.861 6 3l1 3 6-3c-1 3-1 3-3 5l-.867 2.293c-1.324 3.164-3.077 5.38-5.258 8.02l-2.195 2.675L174 417l-3-3-1 3 3 1-.996 2.766c-1.502 5.266-1.178 10.555-1.066 15.984.382 22.41.382 22.41-3.938 29.25-3.45 3.45-13.611 2.165-18.168 2.23-3.094-.251-5.134-.684-7.832-2.23-1.258-2.25-1.258-2.25-2.125-5l-.957-2.988L137 455l-.95-2.668c-1.917-5.598-2.233-9.525-1.05-15.332 7.923-3.301 7.923-3.301 10.828-2.488 2.492.56 4.341.354 6.86-.012A70 70 0 0 1 157 434c1 1 1 1 1.25 3.313-.296 3.184-1.278 4.242-3.25 6.687-.687 2.25-.687 2.25-1 4h2c.934 3.01 1.044 3.867 0 7l-5 1-1 3-5-1 2-2c.398-1.988.738-3.99 1-6-3.483 3.019-4.792 5.57-6 10 3.976 2.715 8.139 2.224 12.75 2.125l2.402-.027c1.95-.024 3.899-.06 5.848-.098v-2h2v-5h-2v-22h-2l-.312-2.375C160 428 160 428 157 426l-1-1-3 1 1 4a853 853 0 0 1-4.312-.437l-2.426-.247c-4.587-.641-4.587-.641-6.262-2.316h-4c-1.51-3.019-1.175-5.673-1-9l2-3c.125-3.187.125-3.187 0-6l3 1 1-2 2 8-3 2 9 5v-4l-5-1 3-3 3 1c5.423-1.988 8.994-6.851 11.375-11.937L163 402l1.875.625L167 403l2-2c3.125.375 3.125.375 6 1z" id="svg-layer-10" style="pointer-events: all;"/><path fill="#A5A190" d="M38 124h2l-.007 3.704q-.04 23.679-.056 47.359l-.002 3.89c-.02 33.027.066 66.046.53 99.07.47 33.587.649 67.17.658 100.76q.003 5.357.01 10.715c.023 23.482-.035 46.964-.405 70.444q-.049 3.194-.081 6.387c-.032 2.92-.083 5.84-.14 8.761l-.018 2.619c-.145 5.898-.145 5.898-2.016 8.035L37 487l-2-3h2l-1-3c.085-1.733.236-3.464.438-5.187l.308-2.731L37 471h-2c0-2 0-2 1-3h-1V176h2l-.219-1.984c-.715-7.029-.892-13.954-.781-21.016h1z" id="svg-layer-11" style="pointer-events: all;"/><path fill="#C9AE75" d="M251 376h5v3l-2-1v3h2l2 3 2.125 2.063C262 388 262 388 262 390h2l1 3-1 2 1.938-.5c4.038-.66 7.98-.58 12.062-.5v2h2v-2l3.438-.375L287 393l1-2 3 1-2 1v2h3l2-3c1.943 5.293-.273 9.682-2.125 14.688l-.975 2.702c-6.147 16.733-6.147 16.733-9.9 18.61l-2-2-4 2-2-4v5l2 1-2 2h-3l-1 6h-3c-.702-4.386-1.108-8.558-1-13l-3-1 2-4-3-1-1-3h2v-3l-3-2c-.562-1.875-.562-1.875-1-4a88 88 0 0 0-2-4l-1 2-3-3 1-2-2-1c-.997-3.989-1.05-7.032 0-11h6v-2l-5-1 2-2-4-2z" id="svg-layer-12" style="pointer-events: all;"/><path fill="#3B3522" d="M510 108h2l.031 3.51q.151 16.902.308 33.802.081 8.676.158 17.35.09 10.12.187 20.24l.033 3.54c.126 13.261.287 26.52.535 39.778.907 49.27.936 98.535.933 147.812 0 9.632.012 19.264.026 28.896q.019 14.133.018 28.265-.002 8.356.013 16.713.014 7.787.003 15.575-.003 2.836.007 5.673c.03 10.164-.259 19.84-2.252 29.846l-3 1 .215-3.146c.656-10.057.927-20.057.905-30.135l.003-4.684q.002-6.356-.007-12.712-.005-6.885-.002-13.768 0-11.9-.008-23.8-.011-17.207-.012-34.412-.004-27.921-.019-55.843a198034 198034 0 0 1-.025-74.39q-.016-69.555-.05-139.11" id="svg-layer-13" style="pointer-events: all;"/><path fill="#A5A294" d="M326.782 57.267q11.362.054 22.725.097 15.32.061 30.64.154 5.66.034 11.318.055 6.512.025 13.025.076 2.367.016 4.735.022c2.135.005 4.27.023 6.405.044l3.607.02C422 58 422 58 424 60H50l-1 2v-3c2.667-1.333 4.711-1.143 7.7-1.165l3.7-.034 4.104-.022 4.334-.035q5.985-.047 11.97-.08 5.14-.032 10.281-.069c11.335-.078 22.67-.143 34.005-.204l8.867-.05c64.275-.365 128.546-.379 192.821-.074" id="svg-layer-14" style="pointer-events: all;"/><path fill="#BB9B5B" d="m249 381 6 2v2l2 1v2h-2l-1 2v-2h-3v11l4 1-2 2 5 1c2 5.75 2 5.75 2 8 2 1.625 2 1.625 4 3h-2l-1 5 4 1-2 4 2 1c.414 2.941.414 2.941.625 6.563l.227 3.628L266 438h3l.25-2.875c.75-3.125.75-3.125 2.813-4.5L274 430l-2-3c.375-2.187.375-2.187 1-4l2 4 5-2 1 1c-.413 4.996-1.609 8.833-3.812 13.313A222 222 0 0 0 270 456c-3.154-2.82-4.594-4.966-5.812-9-1.422-4.22-3.13-7.734-5.5-11.5C251.274 423.23 246 408.42 246 394a74 74 0 0 0-1-4.25l-1-3.75h3z" id="svg-layer-15" style="pointer-events: all;"/><path fill="#CFB682" d="M71 81c2.453 3.68 2.196 5.375 2.09 9.75l-.06 4.031a1312 1312 0 0 1-.146 6.34 620 620 0 0 0-.107 6.129l-.086 3.703C73 114 73 114 74.514 115.922L76 117l-1-3a79 79 0 0 1-.133-4.64l-.004-2.747.012-2.863-.012-2.816C74.87 95.847 75.128 91.012 76 86l13 1v1h-5l-.812 2.813C82 94 82 94 80.438 95.25c-2.286 2.783-1.722 5.427-1.626 8.938l.083 3.855L79 111c8.2 1.654 14.926 2.691 23 0V95l3-1 2 11h1v9l-8 3 4 1c-2 2-2 2-5.437 2.313-5.403-.11-10.435-1.73-15.563-3.313l.563 5.438.316 3.058L84 128l-1 1a153 153 0 0 0-.062 6.563l.027 3.628L83 142h-1c-.883-4.518-1.106-8.775-1.062-13.375l.027-3.773L81 122l-3.312-.75c-3.829-1.298-4.925-1.723-6.688-5.25-2.318-11.43-.83-23.45 0-35" id="svg-layer-16" style="pointer-events: all;"/><path fill="#A49A82" d="m288 48 85 1v1l-5 1 9 1v2q-11.694.037-23.389.055-3.981.008-7.962.02-5.711.017-11.422.023l-3.615.015h-3.336l-2.947.007C322 54 322 54 320 53c-2.551-.156-5.08-.258-7.633-.316l-2.278-.063q-3.608-.097-7.214-.184l-4.887-.13Q291.994 52.146 286 52z" id="svg-layer-17" style="pointer-events: all;"/><path fill="#CBB078" d="M163 107h1c.058 3.562.094 7.125.125 10.688.017 1.007.034 2.014.05 3.052l.02 2.96.032 2.713c-.253 2.883-.96 4.993-2.227 7.587-2.458 1.865-3.603 2.037-6.687 1.75L153 135l-1-2-17-1 1 7c-1.437 2.938-1.437 2.938-3 5l-.875-1.875C131 140 131 140 129 138c.375-2.625.375-2.625 1-5h1c.22-3.856-.396-6.492-2-10h1l1-9-5 1-1-5c2-1 2-1 5-.187 3 1.187 3 1.187 5 3.187.589 4.323.744 8.64 1 13l21 1v5h3c1.086-5.684 1.344-11.31 1.605-17.074.292-5.72.292-5.72 1.395-7.926" id="svg-layer-18" style="pointer-events: all;"/><path fill="#CFB682" d="M82 142h2v6c1.5-1.312 1.5-1.312 3-3v-3l8 1-.312 3.188C95 150 95 150 97.312 152.875c4.023 3.18 6.892 3.241 11.876 3.188l3.292-.028L115 156v-2c2.117-1.473 2.117-1.473 4.875-3.062l2.742-1.598c1.444-.812 2.902-1.6 4.383-2.34l-2 4-1.375 3c-1.831 3.381-3.588 6.325-7.383 7.582-4.741.884-9.456.984-14.242.418-2.875-2-2.875-2-5-5l-3.312-4.312Q92.336 150.848 91 149c-3.186.354-4.79.83-7.312 2.875C82 154 82 154 82 157l4 1-5 1 .035 2.457c.06 7.249-.227 14.34-1.035 21.543l2 1-5 1c-.284-12.894-.334-25.68 4-38 .361-1.66.705-3.326 1-5" id="svg-layer-19" style="pointer-events: all;"/><path fill="#CBB078" d="M402 356c2.462.927 4.755 1.851 7.008 3.219 12.005 7.265 28.408 6.015 41.987 6.352 11.845.365 11.845.365 17.005 2.429 2.072 3.109 2.255 3.82 2.266 7.352 0 .426 0 .426.007 2.582l-.023 2.691.023 2.621c-.04 13.798-.04 13.798-3.596 18.506C465 403 465 403 461 403l-2-1 1.875-3.312c4.188-8.436 4.447-17.43 4.125-26.688l-2 1a117 117 0 0 1-6.125-.437l-3.32-.31L451 372v-1l11-1c-3.745-.936-6.67-1.139-10.504-1.176-38.395-.616-38.395-.616-45.973-6.867-1.51-1.95-2.609-3.675-3.523-5.957" id="svg-layer-20" style="pointer-events: all;"/><path fill="#AD925E" d="M469 420h1c2.188 26.129 2.188 26.129 2.313 37.563l.052 2.23c-.002 2.023-.002 2.023-.365 5.207-3.164 2.11-3.968 2.257-7.592 2.29l-2.811.04-3.03.006-3.12.02q-3.267.015-6.534.015c-3.334.004-6.667.04-10 .078q-3.173.009-6.347.012l-3.024.043c-6.94-.045-6.94-.045-10.202-2.533L418 463l2.108.016q4.759.029 9.517.046l3.316.026 3.223.01 2.952.016c3.034-.12 5.897-.586 8.884-1.114 2.682-.027 5.343.061 8.023.16 3.86-.208 7.249-1.142 10.977-2.16l.076-2.38q.178-5.435.361-10.87l.12-3.742c.263-7.695.719-15.342 1.443-23.008" id="svg-layer-21" style="pointer-events: all;"/><path fill="#CBB078" d="M125 292c7.278 1.33 13.426 3.785 20.125 6.875 17.104 7.637 33.73 10.87 52.46 11.781L200 311l1 2c-2.283 2.283-4.287 4.223-7 6-20.73-.132-43.764-13.46-62-22l-3.3-1.542C126 294 126 294 125 292" id="svg-layer-22" style="pointer-events: all;"/><path fill="#BC9C5D" d="M83 376c2.934-.328 2.934-.328 6.438-.25 1.153.015 2.307.03 3.496.047C96 376 96 376 99 377c1.708.044 3.417.04 5.125 0a94 94 0 0 1 4.875 0c1 1 1 1 1.063 3.563L110 383c-2.453.818-3.872 1.026-6.437.5-2.846-.555-4.779-.216-7.563.5v2h-2l-1 2c-4.5 3-4.5 3-7 3l-.586 1.934-.789 2.503-.773 2.497C83 400 83 400 81 401c-.625-3.375-.625-3.375-1-7l2-2v-2l-2-1v-7h2l-1-3z" id="svg-layer-23" style="pointer-events: all;"/><path fill="#A29576" d="M211.33 47.297c3.491.078 6.982.145 10.473.21l6.717.141 3.131.06c5.522.131 10.883.496 16.349 1.292v1h30v2c-28.11.15-56.207-.097-84.312-.5l-2.529-.036Q175.579 51.24 160 51v-1q3.593-.475 7.188-.937l1.982-.264c2.274-.291 4.55-.549 6.83-.799l2.544-.303c10.909-1.082 21.844-.648 32.787-.4" id="svg-layer-24" style="pointer-events: all;"/><path fill="#A5A191" d="M21 89h2l-1 285h-1z" id="svg-layer-25" style="pointer-events: all;"/><path fill="#CBB078" d="m130.133 85.886 8.93.052 3.166.013q3.885.018 7.771.049l-1 4-8-1-1 4-2.598.184-3.464.254-3.59.261c-2.554.23-4.965.558-7.473 1.051C120 95 120 95 118.063 93.563L117 92l-1.062 1.438c-2.78 2.24-5.452 2.233-8.938 2.562l-1 5h-1l-1-6h-2l1 7c-2.786-4.18-4-6.934-4-12l7 1 1-2h3l2 2 1-4h11l-1 3 2 1 .938-1.937c1.563-3.036 1.563-3.036 4.195-3.177" id="svg-layer-26" style="pointer-events: all;"/><path fill="#CAAF77" d="m136 185 1.75.938c2.093.988 3.995 1.579 6.25 2.062h-3c2.808 2.964 5.183 5.445 9 7v3l2.063.75c3.506 1.492 6.653 3.318 9.937 5.25v3a159 159 0 0 0 5 3v2h2l1 2 1.938.438C174 215 174 215 176 218c2.625.688 2.625.688 5 1l-2 2 1.938 1.313C183 224 183 224 184 227h2v2h2v2h4v3h3v2l4 1c-.593 2.668-1.278 4.472-3.527 6.117-6.352 3.351-14.364 6.913-21.473 4.883q5.184-2.007 10.375-4l2.984-1.156 2.852-1.094 2.634-1.016C195 240 195 240 197 240c-2.651-2.86-5.679-5.065-8.812-7.375-8.958-6.664-8.958-6.664-12.188-9.625v-2l-4-2v-2l-1.637-.691c-3.07-1.7-5.556-3.94-8.175-6.246-5.57-4.821-11.355-9.24-17.338-13.533-2.428-1.745-4.731-3.411-6.85-5.53a89 89 0 0 0-4-2h3z" id="svg-layer-27" style="pointer-events: all;"/><path fill="#A58F65" d="M51 49h15v1l-6 1c2.453 1.226 4.05 1.114 6.79 1.098l2.85-.01 2.985-.026 3.008-.013Q79.316 52.03 83 52l-8-1v-1q12.27-.106 24.539-.155c3.798-.016 7.596-.037 11.394-.071 3.663-.033 7.326-.05 10.99-.059q2.1-.008 4.198-.032c1.956-.022 3.913-.023 5.869-.024l3.378-.02L138 50l2 3c-3.03 1.515-6.168 1.139-9.491 1.13l-2.342.005q-3.843.004-7.687-.002l-5.336.003q-5.6.002-11.2-.006-7.173-.006-14.345.004-5.514.005-11.028 0-2.644 0-5.288.002-3.701.003-7.403-.007l-2.203.007C60.01 54.12 56.529 54.052 53 53z" id="svg-layer-28" style="pointer-events: all;"/><path fill="#A88D59" d="M498 110c2.693 4.04 3.133 6.955 3.063 11.75l-.028 2.422L501 126h-2v2h2q-.161 17.981-.34 35.963-.082 8.35-.157 16.7-.072 8.063-.156 16.125-.03 3.071-.056 6.143-.037 4.313-.086 8.624l-.017 2.548c-.062 5.043-.475 9.903-1.188 14.897h-1z" id="svg-layer-29" style="pointer-events: all;"/><path fill="#A5A191" d="M23 498c1.683 1.53 2.875 2.704 3.77 4.816 1.697 3.013 3.849 4.713 6.543 6.872l2.863 2.386c8.657 5.371 22.801 3.124 32.75 3.242l4.45.063q5.788.082 11.575.153 5.934.077 11.867.161 11.592.16 23.182.307v1c-7.092 1.099-14.063 1.145-21.23 1.133l-3.841.003q-4.012.001-8.026-.006-5.085-.006-10.172.004c-3.279.004-6.558.001-9.836-.001l-3.632.006c-27.069-.074-27.069-.074-35.138-6.389C24.712 507.334 23 503.601 23 498" id="svg-layer-30" style="pointer-events: all;"/><path fill="#AE9159" d="M113 367q2.238.082 4.477.027l2.53-.037q2.63-.053 5.259-.117l2.523-.033 2.303-.051C132 367 132 367 134 369h-2v2c-6.893.818-13.663 1.137-20.602 1.098l-2.916-.005c-3.036-.005-6.071-.018-9.107-.03q-3.11-.009-6.223-.014Q85.577 372.032 78 372v-3c2.407-1.204 4.073-1.187 6.762-1.281l2.892-.114 3.034-.105c11.055-.392 11.055-.392 15.269-1.094 2.972-.396 4.235-.114 7.043.594" id="svg-layer-31" style="pointer-events: all;"/><path fill="#A59F8C" d="m489 45 1 2 5-1v2l3-1v3l-3.812-.187c-3.952-.014-3.952-.014-5.875 1.624L487 53c-4.715 1.4-9.587 1.127-14.457 1.098l-2.736-.005c-2.873-.005-5.746-.018-8.62-.03q-2.928-.008-5.857-.014A7152 7152 0 0 1 441 54l-1-2 1-2 48-1z" id="svg-layer-32" style="pointer-events: all;"/><path fill="#F3EDD3" d="M460.84 371.844C464 372 464 372 466 371c.436 10.916.306 21.655-6 31-2.382 1.69-3.355 2.108-6.25 1.625L452 403c2-3 2-3 4.5-4.187 2.958-2.145 3.525-3.873 4.23-7.407.5-4.465.418-8.92.27-13.406l-3 1-1.562-2.062C454 375 454 375 450.625 375.188L447 376l-3.437.563L441 377l-1-5c7.088-1.12 13.728-.783 20.84-.156" id="svg-layer-33" style="pointer-events: all;"/><path fill="#A69063" d="M35 105c1.938.313 1.938.313 4 1 1.206 3.619 1.108 6.925 1.063 10.688l-.014 2.126q-.02 2.594-.049 5.186h-2v35h-1v17c-2.1-4.2-2.244-6.019-2.227-10.604v-1.983c0-2.153.016-4.306.032-6.46l.008-4.49c.008-3.932.028-7.864.05-11.796.02-4.015.03-8.03.04-12.046q.032-11.81.097-23.621" id="svg-layer-34" style="pointer-events: all;"/><path fill="#A59C84" d="M382 49c2.863.06 5.7.068 8.563.027l5.101-.037q4.01-.037 8.019-.086c2.585-.03 5.17-.048 7.755-.064l2.418-.04c3.86-.018 6.878-.007 10.144 2.2l-1 2-46 1v-2h-10l1-2c2.145-.668 2.145-.668 4.813-1.187l2.644-.543c2.594-.275 4.052.106 6.543.73" id="svg-layer-35" style="pointer-events: all;"/><path fill="#CBB079" d="M70 454h2l.184 1.828.254 2.422.246 2.39c.292 2.184.737 4.237 1.316 6.36l2.313-.562c4.99-.593 9.713-.013 14.687.562v1c9.807.31 18.632.4 28-3l.402-1.89c.697-2.46 1.695-3.455 3.598-5.11l-1 4 2 1c-1.51 3.845-3.563 5.745-7 8-3.438.486-3.438.486-7.355.46-.702 0-1.404 0-2.127-.002a351 351 0 0 1-4.445-.046 408 408 0 0 0-6.708-.04C77.418 471.278 77.418 471.278 71 467c-1.089-2.912-1.108-5.665-1.062-8.75l.027-2.422z" id="svg-layer-36" style="pointer-events: all;"/><path fill="#F3EDD3" d="M432 429q2.514.428 5 1l-2 1c-.633 6.119.326 10.815 2.625 16.5l1.477 3.656C441 454 441 454 443.73 454.902c3.658.11 7.298.193 10.957.16l3.95-.027L462 455h3v3c-2.662 1.33-4.687 1.113-7.664 1.098l-3.399-.01-3.562-.026-3.586-.013q-4.395-.02-8.789-.049l-3-11-.875 4.375c-.875 4.375-.875 4.375-3.125 6.625-2.625.125-2.625.125-5 0l2-2h3c2.3-7.886.958-16.624.121-24.664L431 430z" id="svg-layer-37" style="pointer-events: all;"/><path fill="#CBB079" d="m86.832 365.805 3.916.02 4.064.05q2.063.016 4.124.027 5.033.036 10.064.098v1c-6.458 1.103-12.898 1.326-19.437 1.563l-3.374.13q-4.095.159-8.189.307l.496 2.293c.55 2.954.574 5.709.504 8.707l3-3v5h-2c.468 4.056.88 7.466 3 11l-3 1v5h-1l-1-10-1 9h-2v-30c4.707-1.883 6.934-2.238 11.832-2.195" id="svg-layer-38" style="pointer-events: all;"/><path fill="#F3EDD3" d="M163 87c.329 36.232.329 36.232-3 45h-3c-.562-1.937-.562-1.937-1-4l1-1c.213-2.588.377-5.158.5-7.75.219-4.505.606-8.825 1.5-13.25q.207-3.31.25-6.625l.078-3.414C159 93 159 93 157.59 91.207L156 90l-3-3c6.625-1.125 6.625-1.125 10 0" id="svg-layer-39" style="pointer-events: all;"/><path fill="#9A8457" d="m138 49 54 2-1 3h-51v-2h-12v-1h10z" id="svg-layer-40" style="pointer-events: all;"/><path fill="#A5A08E" d="M278 49h10l-1 2 33 1v2H213c3.967-1.983 5.561-2.267 9.838-2.335l3.56-.07 3.829-.044 3.936-.066q4.119-.067 8.236-.118 5.284-.068 10.566-.162c3.358-.057 6.716-.105 10.074-.154l3.842-.063 3.54-.041 3.126-.043C276 51 276 51 278 52z" id="svg-layer-41" style="pointer-events: all;"/><path fill="#9D8961" d="m36 68 4 1c1.077 13.424.834 26.564 0 40l-1-3c-2.063-1.187-2.063-1.187-4-2-.151-12.037.31-23.984 1-36" id="svg-layer-42" style="pointer-events: all;"/><path fill="#F1EACF" d="m450 123-.035 2.71c-.083 11.08-.083 11.08.598 16.54 1.398 12.265 1.398 12.265-1.922 16.473C447 160 447 160 444 161l.492-2.852c.688-4.837.654-9.646.633-14.523l.012-2.71c-.009-5.716-.41-11.246-1.137-16.915 2.076-.553 3.844-1 6-1" id="svg-layer-43" style="pointer-events: all;"/><path fill="#C9AE75" d="m368 110 2 1-.437 1.73c-1.636 7.146-1.77 13.962-1.563 21.27l-2.758.723c-3.629 1.43-4.815 2.627-7.117 5.714l-2.031 2.676a728 728 0 0 0-8.43 11.832L346 157h-2c1.355-2.82 2.864-5.435 4.574-8.055C364.561 124.213 364.561 124.213 368 110" id="svg-layer-44" style="pointer-events: all;"/><path fill="#A69A7F" d="M489 180h1v138h-1q-.231-26.767-.443-53.536-.098-12.427-.205-24.856-.094-10.829-.177-21.656-.043-5.738-.096-11.474-.049-5.394-.086-10.788-.022-2.935-.054-5.871l-.021-3.498-.025-3.058C488 181 488 181 489 180" id="svg-layer-45" style="pointer-events: all;"/><path fill="#A5A294" d="M512 152h2v98h-1c-.85-23.459-1.092-46.903-1.062-70.375l.002-2.076q.018-12.775.06-25.549M513 250h2v126h-1q-.198-18.662-.391-37.325-.09-8.67-.182-17.34c-.53-49.832-.53-49.832-.427-71.335" id="svg-layer-46" style="pointer-events: all;"/><path fill="#B6975C" d="M367 422h2c1.478 2.957 1.06 5.742 1 9l6 1c-.461 3.82-.924 7.591-1.625 11.375C374 446 374 446 375 448c.04 2 .043 4 0 6h-2l-1 3-2-1-.148-3.98-.227-5.207c-.03-.865-.062-1.73-.094-2.62-.209-4.546-.694-7.987-2.531-12.193-.195-2.676-.195-2.676-.125-5.312l.055-2.676z" id="svg-layer-47" style="pointer-events: all;"/><path fill="#A78E5D" d="M464.25 56.938q2.899.008 5.797.013 6.976.017 13.953.049v3q-11.683.07-23.365.104-5.425.014-10.85.047-5.232.032-10.464.039-2.973.01-5.946.037h-3.64l-3.217.014C424 60 424 60 422 58c14.098-.85 28.129-1.128 42.25-1.062" id="svg-layer-48" style="pointer-events: all;"/><path fill="#BCA16B" d="M468 90h3q-.104 6.113-.262 12.225a548 548 0 0 0-.084 4.159 572 572 0 0 1-.142 5.98l-.08 3.633C470 119 470 119 468.593 120.915 467 122 467 122 465 122V94h2z" id="svg-layer-49" style="pointer-events: all;"/><path fill="#D5C08F" d="M146 450h2v7l-2 1c2.867-.573 3.861-.861 6-3 2.602.242 2.602.242 5.625.875l3.04.617L163 457l1 3-1 2c-7.208 1.287-15.282 2.467-22-1q.676-2.19 1.375-4.375l.773-2.46C144 452 144 452 146 450" id="svg-layer-50" style="pointer-events: all;"/><path fill="#CBB078" d="M152 81c4.764-.19 8.721-.237 13 2 3.2 5.748 3.467 10.818 3.512 17.309l.054 2.93c.054 3.065.088 6.132.121 9.198q.05 3.132.104 6.264c.085 5.1.152 10.2.209 15.299-2.96-2.675-2.96-2.675-3.325-5.597l.067-3.11.045-3.45.088-3.656q.048-3.675.086-7.351l.038-3.571c.002-5.797-.456-11.493-.999-17.265l-1 16h-1l-1-19-10 1v-2h7l-1-3-6-1z" id="svg-layer-51" style="pointer-events: all;"/><path fill="#A7946E" d="M422 49q3.906-.04 7.813-.062l2.236-.026c3.25-.015 5.845.053 8.951 1.088v4h-51v-1l14-1v-1l18-1z" id="svg-layer-52" style="pointer-events: all;"/><path fill="#F3EDD3" d="M79 372c7.64-.243 15.092.072 22.688.875l2.394.238c5.675.644 5.675.644 7.918 2.887-2.944 1.472-5.734 1-9 1l-2.625.563c-2.8.515-4.58-.004-7.375-.563a115 115 0 0 0-5.125-.25l-2.57-.078c-2.804.4-3.54 1.176-5.305 3.328l-2 2c-.125-7.75-.125-7.75 1-10" id="svg-layer-53" style="pointer-events: all;"/><path fill="#C0A56E" d="M90.85 187.477c2.41.586 4.629.717 7.107.804l2.873.114 2.983.105c6.13.22 12.131.486 18.187 1.5v1c-37.688 3.683-37.688 3.683-42.914-.55L78 189c1.628-1.628 3.573-1.395 5.813-1.625.872-.095 1.745-.19 2.644-.29C89 187 89 187 90.849 187.478" id="svg-layer-54" style="pointer-events: all;"/><path fill="#E0D0A9" d="M76 436c1.957.66 1.957.66 4 2 .574 2.496.574 2.496.688 5.438.148 3.176.3 5.528 1.312 8.562.438 2.375.438 2.375 0 5-1.844 2.026-3.745 3.39-6 5h-1c-.991-9.056-.975-17.089 1-26" id="svg-layer-55" style="pointer-events: all;"/><path fill="#A5A193" d="M489 59c1.067 13.176 1.118 26.288 1.063 39.5q-.009 3.142-.014 6.285-.017 7.607-.049 15.215c-1.795-3.354-2.229-5.52-2.16-9.348l.035-3.237.063-3.478c.137-14.004-.32-27.948-.938-41.937l-23-1v-1c16.708-1.148 16.708-1.148 25-1" id="svg-layer-56" style="pointer-events: all;"/><path fill="#A5A191" d="M22 434h1l1 64-2-1c-2.056-11.48-1.153-23.892-1.13-35.509q.006-5.012-.007-10.024 0-3.18.004-6.362l-.006-3.032.01-2.775.002-2.45C21 435 21 435 22 434" id="svg-layer-57" style="pointer-events: all;"/><path fill="#BC9B5B" d="M86 413h3v8l10-1 1 5c-4.851 2.426-7.585 3.564-13 2-2.375-1.062-2.375-1.062-4-2v-3l3-2 1-3h-2z" id="svg-layer-58" style="pointer-events: all;"/><path fill="#F3EDD3" d="m391 449 3 1c-.226 3.916-.464 6.326-2.937 9.438C386.7 461.663 382.8 461.952 378 461c-2.277-1.462-3.348-2.797-5-5 3.088-1.544 6.187-1.018 9.59-.937C385 455 385 455 388 454c1.688-2.562 1.688-2.562 3-5" id="svg-layer-59" style="pointer-events: all;"/><path fill="#C9AD74" d="m238 378 3 1 2-1 .375 2.438L244 383l2 1v-2h2l1-2c-.75 5.75-.75 5.75-3 8v-2h-2l4 12h-2l2 9c-3.446-3.446-4.49-8.288-6.125-12.812l-1.129-3.026-1.066-2.932-.977-2.675c-.726-2.637-.834-4.834-.703-7.555" id="svg-layer-60" style="pointer-events: all;"/><path fill="#A5A191" d="m502 509 2 1c-5.897 5.203-11.122 6.316-18.841 6.135l-2.308-.028c-2.5-.034-5-.082-7.5-.13q-2.61-.04-5.22-.076a4143 4143 0 0 1-13.7-.227c-4.666-.081-9.332-.15-13.997-.22Q428.716 515.242 415 515v-1l2.87-.031q13.417-.147 26.834-.308 6.897-.084 13.795-.158 6.662-.072 13.324-.156 2.535-.03 5.071-.056 3.565-.037 7.13-.086l2.094-.017c4.703-.07 9.232-.541 13.882-1.188v-2z" id="svg-layer-61" style="pointer-events: all;"/><path fill="#C9AE75" d="m366 432 3 1c1.06 7.69 1.1 15.245 1 23h2l2 9h-2v-2h-2c-3.39-7.517-4.142-13.592-4.062-21.812l.013-2.678q.02-3.255.049-6.51" id="svg-layer-62" style="pointer-events: all;"/><path fill="#867248" d="M213.625 50.938q2.84.008 5.68.013 6.847.017 13.695.049v1l-3.36.184-4.39.254-2.21.119c-5.613.331-5.613.331-7.995.954-2.281.545-4.307.618-6.65.622l-2.709.006-2.874-.014-2.943-.006C191.22 54.07 182.622 53.64 174 53v-1c13.223-.901 26.374-1.125 39.625-1.062" id="svg-layer-63" style="pointer-events: all;"/><path fill="#A5A191" d="M21 374h2v60c-1.977-3.953-2.246-5.362-2.227-9.595v-3.396l.032-3.65.008-3.75q.016-4.92.05-9.843c.02-3.352.03-6.703.04-10.055q.033-9.855.097-19.711" id="svg-layer-64" style="pointer-events: all;"/><path fill="#3B3522" d="M507 52c2 1 2 1 3.086 3.727C514.52 71.61 512.994 91.76 511 108h-1l-.06-2.557C509.5 87.566 508.762 69.806 507 52" id="svg-layer-65" style="pointer-events: all;"/><path fill="#A5A191" d="m35 34 2 1c-2.013 2.758-3.593 4.762-6.562 6.5-3.498 2.153-4.974 4.707-5.996 8.655-.569 3.66-.675 7.294-.758 10.99l-.063 2.332q-.097 3.667-.183 7.336l-.131 4.99Q23.147 81.9 23 88l-2 1c-.03-4.23-.047-8.458-.062-12.687l-.026-3.573c-.068-24.896-.068-24.896 7.627-33.45C30 38 30 38 32 38l1-3z" id="svg-layer-66" style="pointer-events: all;"/><path fill="#CBB079" d="m192 320 3 2q-3.92 3.208-7.844 6.414a1206 1206 0 0 0-6.125 5.047c-4.549 3.761-9.03 7.387-14.031 10.539q-2.44 1.62-4.875 3.25L158 350l-2-1c6.217-5.194 12.499-10.154 19.078-14.879a533 533 0 0 0 10.047-7.496l1.724-1.3c4.034-3.091 4.034-3.091 5.151-5.325" id="svg-layer-67" style="pointer-events: all;"/><path fill="#A69A7F" d="M489 120h1v60h-1c-1.136-6.35-1.145-12.584-1.133-19.023l-.003-3.46q0-3.604.006-7.207.005-5.54-.007-11.08 0-3.502.004-7.003l-.006-3.365.01-3.086.002-2.729C488 121 488 121 489 120" id="svg-layer-68" style="pointer-events: all;"/><path fill="#A5A294" d="M514 376h2c.195 21.346-.405 42.665-1 64h-1c-.871-21.405-1.04-42.596 0-64" id="svg-layer-69" style="pointer-events: all;"/><path fill="#CAAF77" d="M156 256v2l-2.228.854-10.147 3.896-3.504 1.344-3.457 1.328-3.413 1.307c-3.784 1.48-7.524 3.056-11.25 4.678C120 272 120 272 117 271c2.333-2.333 4.254-3.054 7.313-4.277l3.261-1.307 3.426-1.353 3.332-1.342C151.219 256 151.219 256 156 256" id="svg-layer-70" style="pointer-events: all;"/><path fill="#F3EDD3" d="M457 419c2.097 2.36 2.97 3.546 3.188 6.75L460 428l2 1c-2.048 3.071-2.689 3.755-6 5-6.613.698-12.672-.09-19-2v-2l3.613.324q2.35.183 4.7.363l2.38.221 2.295.166 2.11.175c2.538-.332 3.36-1.257 4.902-3.249.293-2.262.293-2.262.188-4.687l-.083-2.45z" id="svg-layer-71" style="pointer-events: all;"/><path fill="#B6975C" d="m372 457 6 3c2.207.07 4.417.084 6.625.063l3.602-.028L391 460l1 2h-2l-1 2c-4.806 1.55-10.008 1.087-15 1-1.765-3.088-2-4.233-2-8" id="svg-layer-72" style="pointer-events: all;"/><path fill="#A5A08E" d="M240 48q6.189-.037 12.378-.055 2.1-.008 4.201-.02C270.9 47.838 270.9 47.838 278 49v1l-32 1v-1l-6-1z" id="svg-layer-73" style="pointer-events: all;"/><path fill="#CAAF77" d="M85 184q8.725-.037 17.45-.055 2.963-.008 5.927-.02c2.852-.013 5.704-.018 8.557-.023l2.643-.015c5.552 0 10.915.41 16.423 1.113v1c-17.03.136-33.99-.17-51-1z" id="svg-layer-74" style="pointer-events: all;"/><path fill="#A5A294" d="M512 96h1v56h-1q-.251-11.721-.482-23.444-.08-3.99-.166-7.982-.122-5.722-.23-11.445l-.083-3.63-.06-3.337-.061-2.954C511 97 511 97 512 96M514 440h1v46h-1c-1.096-24.904-1.096-24.904-1.125-37.062l-.014-2.412c.015-5.402.015-5.402 1.139-6.526" id="svg-layer-75" style="pointer-events: all;"/><path fill="#CBB079" d="M181 409c0 3.562-.717 4.274-2.875 7-3.868 4.933-5.398 7.797-5.75 14.188l-.227 3.855L172 437h-1a577 577 0 0 1-.625-6.687l-.352-3.762c-.023-3.48.436-5.476 1.977-8.551l-2-1-1 2 1-6 4 3z" id="svg-layer-76" style="pointer-events: all;"/><path fill="#C9AE75" d="M344 157c0 3.277-.35 3.872-2.16 6.441l-1.397 2.006-1.505 2.115-1.518 2.16a1566 1566 0 0 1-3.022 4.287c-1.215 1.73-2.4 3.48-3.582 5.233L329 181.938l-1.562 2.34C326 186 326 186 323 187a56 56 0 0 1 4.355-7.574l1.378-2.012 1.454-2.101 1.486-2.155c8.69-12.521 8.69-12.521 12.327-16.158" id="svg-layer-77" style="pointer-events: all;"/><path fill="#CAAF77" d="M184 250c-3.912 1.204-7.83 2.385-11.75 3.563l-3.367 1.037-3.242.966-2.984.905c-2.678.533-4.118.438-6.657-.471 6.9-3.864 12.03-6.712 20-6l2.25-.562c2.2-.55 3.593-.04 5.75.562" id="svg-layer-78" style="pointer-events: all;"/></svg>