<svg xmlns="http://www.w3.org/2000/svg" viewBox="0 0 600 536"><path fill="#FCF5DA" d="M0 0h600v536H0zm235 38c-.676 1.785-.676 1.785-1.312 4.063-1.297 4.15-3.085 7.402-5.481 11.007-1.781 2.848-2.973 5.811-4.207 8.93 6.83-.493 13.146-1.674 19.75-3.437C254.741 55.764 265.702 54.698 277 54l.313 2.926c.66 4.615 2.153 8.874 3.687 13.261q.815 2.365 1.625 4.731l.727 2.087c.644 1.982 1.167 3.967 1.648 5.995h2l.113 1.828c.286 3.473.609 6.5 1.95 9.734 3.154 2.34 6.09 1.69 9.937 1.438l.734-2.527 1.016-3.41.984-3.34a81 81 0 0 1 3.204-8.016c2.23-4.905 3.803-9.916 5.312-15.082l.813-2.691C313 54.399 313 54.399 313 51c14.127 2.774 27.737 6.84 41.445 11.216 3.725 1.143 6.9 1.912 10.805 1.846L369 64c-1.343-3.582-2.78-7.128-4.624-10.484C363 51 363 51 361.492 47.541 359.354 43.27 357.022 39.693 353 37c-8.358-2.611-17.646-1.649-26.281-1.402q-3.873.034-7.745.052c-6.084.043-12.163.149-18.245.285-6.922.151-13.843.216-20.766.275-10.75.096-21.498.236-32.246.454l-3.218.056-2.922.066-2.547.052C237 37 237 37 235 38m304-1v2l-3.375.375C532 40 532 40 530 42c-.125 2.625-.125 2.625 0 5l-1.867.68c-2.846 1.761-3.215 3.3-4.258 6.445l-.992 2.965A156 156 0 0 0 520 68c6.441.495 11.442-1.264 17.438-3.5l2.794-1.012q3.39-1.23 6.768-2.488v-2l5-1c1.913-4.745 2.104-8.303 1.625-13.375l-.336-3.773L553 38c-3.338-.753-6.393-1.114-9.812-1.062l-2.395.027zM36 40c-.1 2.802-.139 5.573-.125 8.375l-.012 2.367C35.87 54.077 35.94 56.816 37 60a107 107 0 0 0 7.563 4.563l2.095 1.208C52.81 69.205 58.836 71.35 66 71.125l2.313-.055L70 71c.496-7.31.496-7.31-1.75-10.437L66 58c-2.396-4.55-4.116-8.926-5-14-21.185-7.815-21.185-7.815-25-4m410 5c-4.137 8.08-8.177 16.18-11.812 24.5l-.84 1.918C431.414 75.893 429.684 80.426 428 85c-5.087-.656-9.397-2.87-14-5q-3.131-1.403-6.27-2.79-2.305-1.02-4.606-2.053-3.185-1.428-6.374-2.844l-2.078-.94C388.494 68.639 383.729 67.869 377 68c.58 5.178 2.25 9.192 4.5 13.813l1.061 2.224c2.94 6.096 6.087 12.078 9.38 17.99 2.64 4.83 4.47 9.706 6.059 14.973l-1.87.592c-15.388 4.904-30.654 10.17-45.13 17.408.183 2.344.183 2.344 1 5 2.186 1.406 2.186 1.406 5.074 2.5l3.194 1.242 3.42 1.258 3.45 1.32A935 935 0 0 0 377 150l2.44.91c6.13 2.284 12.263 4.331 18.56 6.09-2.893 6.943-6.096 13.566-10 20-12 20.104-12 20.104-12 26 15.462 1.438 32.967-9.125 46.152-16.146 2.363-1.092 4.277-.997 6.848-.854.095 1.285.19 2.57.29 3.895.587 5.268 2.175 9.872 4.085 14.792l.922 2.471c1.674 4.425 3.584 8.61 5.703 12.842.829 2.65 1.391 5.285 2 8l6 1c4.253-4.478 5.762-9.38 7.625-15.125q.889-2.694 1.79-5.383l.779-2.395C459 204 459 204 461 201c1.984-5.287 3.45-10.303 3-16 5.956 1.702 11.263 4.054 16.75 6.875A168.4 168.4 0 0 0 502 201l3.125 1.125c3.394 1.033 6.348 1.016 9.875.875-.55-4.473-1.686-7.803-3.8-11.773l-1.714-3.25-1.798-3.352q-1.746-3.292-3.489-6.586c-.55-1.04-1.102-2.079-1.67-3.15L501 172l-1.284-2.413c-2.474-4.766-3.34-8.315-3.716-13.587l2.605-.7A220 220 0 0 0 523 147l5.004-1.922q2.625-1.037 5.246-2.078l2.567-.97c2.194-.89 4.202-1.734 6.183-3.03 1.047-2.75 1.047-2.75 1-5-6.995-3.249-14.126-5.999-21.375-8.625l-3.21-1.195c-6.747-2.447-13.311-4.153-20.415-5.18 2.281-7.246 5.36-13.82 8.938-20.5C517.11 79.475 517.11 79.475 519 69c-4.592-.24-7.77.426-12 2.195l-3.42 1.413-3.58 1.517-3.665 1.519c-7.267 3.021-14.496 6.117-21.636 9.43-3.041 1.043-5.505 1.1-8.699.926l-.594-2.395c-2.209-8.33-5.118-16.063-8.588-23.942-1.974-4.509-3.586-8.895-4.818-13.663zm-306 2-.516 1.688c-1.263 3.978-2.608 7.734-4.547 11.437-1.844 3.536-2.874 7.022-3.937 10.875q-.976 2.51-2 5a93 93 0 0 0-4 12c-4.54-.588-8.28-1.795-12.473-3.617l-3.728-1.59q-2.881-1.242-5.758-2.495C94.516 76.596 86.174 73.745 77 72c-.851 2.405-1.104 3.667-.335 6.135l1.1 2.271 1.2 2.504 1.285 2.59 1.238 2.59C83.401 92.032 85.338 95.513 88 99a93 93 0 0 1 2.188 4.75l1.042 2.422L92 108h2l.375 2.125c.663 3.052 1.618 5.92 2.625 8.875l-2.402.777c-9.713 3.188-19.33 6.615-28.94 10.1l-3.13 1.135-2.79 1.014A400 400 0 0 1 51 135v6l1.753.747a10153 10153 0 0 1 10.982 4.689c4.869 2.086 9.714 4.2 14.515 6.439C84.063 155.545 89.546 158 96 158c-.436 6.368-2.741 10.906-5.812 16.438l-2.645 4.87-1.302 2.389c-2.957 5.488-5.63 11.03-7.991 16.803l-1.297 3.156L76 204c4.54 1.057 7.074.982 11.313-.937l3.144-1.407L94 200l4.137-1.906c7.559-3.507 15.044-7.134 22.445-10.965 2.156-1.007 4.094-1.658 6.418-2.129l.078 1.984c.529 8.507 2.467 16.34 6.445 23.918 2.143 4.495 2.98 9.201 4.024 14.051C139 228 139 228 142.39 229.484c5.453.78 5.453.78 7.609-.484a52 52 0 0 0 3.375-6.625l.897-2.026c.925-2.11 1.827-4.229 2.728-6.349l1.75-3.98c2.99-6.961 5.214-13.377 5.25-21.02 5.834 2.21 11.499 4.683 17.125 7.375a212 212 0 0 0 16.5 7l2.008.76c6.011 2.212 10.966 2.99 17.367 2.865-2.484-8.573-6.635-15.658-11.174-23.297-4.682-8.039-8.813-16.331-9.826-25.703l1.703-.559C211.93 152.531 225.651 145.92 239 139v-5l-2.304-.763q-5.255-1.741-10.508-3.487l-3.624-1.2c-6.467-2.15-12.903-4.36-19.296-6.72A234 234 0 0 0 195 119c.468-6.036 1.767-10.324 4.625-15.625l2.18-4.203 1.112-2.111C213.874 76.214 213.874 76.214 216 67c-7.268 1.232-13.292 3.765-19.9 6.983a911 911 0 0 1-7.393 3.529 4717 4717 0 0 0-10.984 5.218l-2.48 1.18a191 191 0 0 0-5.692 2.91c-3.01 1.393-4.443 1.186-7.551.18l-.695-3.285c-1.416-5.654-3.808-10.846-6.18-16.153l-1.316-2.986Q151.913 60.283 150 56l-4-9zm150 131-.734 2.309c-2.343 7.217-5.079 14.036-8.301 20.894C278.447 206.68 276.6 212.191 275 218c-3.644-.364-6.492-1.142-9.691-2.852-4.143-2.122-8.35-3.756-12.747-5.273l-2.257-.781c-8.06-2.747-14.763-4.647-23.305-3.094-.33 9.754 3.495 16.884 8.025 25.196 3.645 6.744 6.84 13.177 7.975 20.804a54339 54339 0 0 1-21.885 7.868l-7.998 2.874-2.491.897A477 477 0 0 1 198 268v6c.984.4 1.967.802 2.98 1.215l6.483 2.653a591 591 0 0 1 13.025 5.53l2.779 1.216q2.672 1.172 5.335 2.364c5.426 2.374 10.577 3.913 16.398 5.022-3.677 10.473-7.998 20.316-13.075 30.18a255 255 0 0 0-3.925 8.132l-1.187 2.551C226 335 226 335 226 338c14.653-.528 26.392-5.418 39.486-11.558l2.768-1.297 2.479-1.177c2.085-.89 4.054-1.493 6.267-1.968l.227 1.922c.998 7.088 2.724 13.79 4.773 20.64l.792 2.67c1.128 3.69 2.046 6.526 4.208 9.768a98 98 0 0 1 1.125 6.188l.508 3.292L289 369h8l.655-1.646q1.515-3.803 3.033-7.604l1.104-2.77a631 631 0 0 1 6.083-14.73c2.674-6.392 4.477-12.22 4.125-19.25 4.765 1.484 9.259 3.073 13.75 5.25 5.505 2.55 11.144 4.59 16.875 6.563l2.675.952c5.803 1.953 10.58 2.552 16.7 2.235-.525-9.1-4.304-16.831-8.5-24.812-3.312-6.425-5.345-13.31-7.5-20.188l1.844-.445c13.825-3.538 26.541-8.96 39.156-15.555 1.1-.51 2.202-1.02 3.336-1.547C393 274 393 274 394 271.438V269c-2.564-2.564-4.82-3.102-8.266-4.242l-1.908-.635q-2.012-.667-4.025-1.327-3.005-.985-6.004-1.987c-8.54-2.83-17.127-5.408-25.797-7.809.65-11.275 6.231-20.61 11.752-30.188C367 210.138 367 210.138 367 204q-2.22-.04-4.437-.062l-2.497-.036C358 204 358 204 357 205c-2 .04-4 .043-6 0v2l-1.832.297c-6.493 1.16-12.24 3.12-18.293 5.703-5.917 2.5-11.595 4.608-17.875 6l-.262-2.492c-.841-6.684-2.097-11.885-5.375-17.754-2.01-4.063-3.285-8.327-4.575-12.666-1.911-6.18-1.911-6.18-4.788-8.088-2.043-.293-2.043-.293-4.187-.187zm229 27c-1.466 4.398.73 7.198 2.688 11.125l2.25 4.652 1.093 2.238c1.767 3.62 3.43 7.262 4.969 10.985l1.488 3.473q.76 1.887 1.512 3.777l1.438 3.516c.562 3.234.562 3.234-.75 5.949-3.616 3.074-7.199 4.208-11.688 5.597q-2.691.885-5.379 1.782l-2.797.93c-4.65 1.607-9.204 3.439-13.761 5.288-.417.17-.417.17-2.526 1.023q-2.286.93-4.572 1.863c-2.317.946-4.64 1.877-6.965 2.802v5c7.927 4.86 16.459 8.192 25.063 11.625l4.298 1.734c6.518 2.626 13.053 5.19 19.639 7.641q-.68 3.096-1.375 6.188l-.773 3.48c-.747 2.923-1.728 5.543-2.852 8.332-.125 2.813-.125 2.813 0 5l-3 1a99 99 0 0 0-3.687 7.875l-.971 2.223C520 335.58 520 335.58 520 339l32-1c1.577-3.154 1.244-6.555 1.316-10.023l.064-2.597c.067-2.918.125-5.837.183-8.755.02-1.009.042-2.018.064-3.058.692-33.848.462-67.713.373-101.567q-2.581-.974-5.168-1.935l-2.907-1.088c-4.39-1.466-8.787-2.133-13.362-2.727l-2.64-.379c-3.709-.518-7.164-.871-10.923-.871m-453.062 1.707-2.915.53-3.023.576-3.023.54c-4.364.81-8.041 1.572-11.977 3.647l-7 3v117c7.24 2.633 13.208 4.7 20.625 5.75l2.367.379c5.384.811 10.565.98 16.008.871-.153-8.877-3.847-15.377-8-23h-2c-1.775-5.073-3.322-10.108-4.605-15.328l-.798-3.232L61 295l1.822-.652C104.748 279.252 104.748 279.252 110 274c.188-2.437.188-2.437 0-5-2.344-2.344-3.79-2.676-6.96-3.55l-3.092-.862-3.323-.9-3.381-.93a1182 1182 0 0 0-21.619-5.695l-2.517-.64C66.003 255.653 63.212 255 60 255c-1.599-17.09 7.942-33.006 15-48-3.3-1.066-5.67-.913-9.062-.293M444 318c-3.805 8.615-7.577 17.224-11 26l-1.066 2.531c-1.18 3.118-1.546 6.17-1.934 9.469-5.613-1.674-10.843-3.791-16.125-6.312C401.727 343.944 390.556 339.21 377 338c1.565 10.956 7.515 20.46 12.75 30.047l1.385 2.56a385 385 0 0 0 2.715 4.922l1.244 2.291 1.115 2.009c1.017 2.793.92 5.223.791 8.171l-2.26.687a9123 9123 0 0 0-10.24 3.125l-3.555 1.08C374.878 394.75 368.92 396.72 363 399l-3.152 1.027-2.786.91c-.468.15-.468.15-2.84.903C352 403 352 403 351.185 405.129L351 407c3.366 2.831 7.03 4.42 11.074 6.031l2.07.84q2.167.877 4.335 1.745c2.186.875 4.369 1.76 6.55 2.646 6.923 2.8 13.842 5.498 20.971 7.738-1.963 6.872-4.873 12.995-8.13 19.326-1.805 3.51-3.45 6.986-4.87 10.674l-3 6-1.062 2.688C378 467 378 467 376 470c-.125 2.688-.125 2.688 0 5 7.683-1.377 14.288-4.09 21.375-7.312l3.21-1.436c4.168-1.867 8.325-3.754 12.478-5.652l2.914-1.33 2.572-1.18A183 183 0 0 1 426 455l-.09 3.137c.146 6.29 2.185 11.914 4.09 17.863l.992 3.168a949 949 0 0 0 3.445 10.644l1.125 3.564 1.122 3.331.986 3.015C439 502 439 502 441.457 502.893 444 503 444 503 447 502c2.176-4.334 3.47-9.144 3-14h2l.988-3.254 1.325-4.308.646-2.135c1.06-3.434 2.19-6.743 3.666-10.022 1.224-2.921 1.822-5.096 2.063-8.219l.199-2.34L461 456c8.23 2.67 16.1 5.956 23.75 10 7.107 3.648 14.599 5.806 22.25 8 1-2 1-2 .55-3.964l-.808-2.403-.89-2.667-.977-2.841-.978-2.89a232 232 0 0 0-6.83-17.637c-1.686-4.105-2.881-8.328-4.067-12.598l3.633-.672c6.669-1.486 12.907-4.061 19.242-6.578l3.645-1.41c18.388-7.248 18.388-7.248 23.48-12.34v-4c-14.818-5.069-29.673-9.721-45-13 .53-5.405 2.468-9.226 5.063-13.875a2807 2807 0 0 0 2.449-4.523l1.255-2.312C519 347.568 519 347.568 519 340c-7.057-.528-12.059 1.229-18.5 4l-2.781 1.156A659 659 0 0 0 491 348v2l-3.875.688c-4.687 1.024-8.531 2.902-12.75 5.136-3.075 1.522-6.046 2.38-9.375 3.176l-.008-1.809c-.387-8.685-3.227-16.04-6.23-24.084-1.797-4.967-3.265-10.043-4.762-15.107zm-298 3-.883 2.387c-2.207 5.865-4.51 11.534-7.242 17.176-2.836 5.993-4.544 11.955-5.875 18.437a825 825 0 0 1-8.648-4.36c-30.785-15.7-30.785-15.7-38.649-14.202L83 341c2.451 10.73 7.054 20.193 11.992 29.965a361 361 0 0 1 3.695 7.723l1.262 2.699c1.023 2.544 1.608 4.913 2.051 7.613l-3.621.277c-6.642.738-13.002 2.557-19.442 4.286l-3.779.998Q70.577 395.77 66 397v2l-5.957.684C58 400 58 400 55 401v5c7.8 3.698 15.602 7.33 23.594 10.602 4.564 1.874 9.11 3.793 13.656 5.71L101 426c-3.597 11.024-8.113 21.379-13.352 31.719C82 468.962 82 468.962 82 473c5.811-.547 10.49-2.22 15.813-4.562l2.468-1.063c2.578-1.114 5.15-2.242 7.719-3.375l2.636-1.16Q118.33 459.447 126 456c1.938 2.907 2.375 4.215 2.938 7.535 1.006 5.421 2.483 10.624 4.062 15.902 1.933 6.564 3.68 12.997 4.578 19.797L138 501c2.74 1.37 4.97 1.126 8 1 2-1 2-1 3.184-4.203q.637-2.02 1.254-4.047c1.407-4.609 2.99-8.652 5.562-12.75 2.682-6.214 4.475-12.418 5.508-19.102L162 460l2-1a138 138 0 0 1 8 4l2.053 1.097q2.045 1.096 4.085 2.202C199.31 477.716 199.31 477.716 211 478c-1.402-9.508-5.028-18.24-8.766-27.043-2.744-6.573-5.203-12.885-6.234-19.957l2.07-.375c7.622-1.56 14.81-3.856 22.118-6.5l2.768-.992c6.244-2.302 12.153-5.04 18.044-8.133-.217-2.36-.217-2.36-1-5-1.955-1.299-1.955-1.299-4.531-2.246l-2.874-1.09-3.095-1.101-3.134-1.166A972 972 0 0 0 217 401q-2.603-.955-5.203-1.914-2.272-.827-4.547-1.649l-2.107-.761c-2.858-1.002-5.09-1.676-8.143-1.676 3.282-12.37 9.503-23.605 15.898-34.625C214 358 214 358 214 354h2a345 345 0 0 0 1.5-3.75l.844-2.11C219 346 219 346 219 342c-8.048.41-14.632 2.89-22 6l-2.557 1.067a1943 1943 0 0 0-8.443 3.558l-2.753 1.164c-3.531 1.515-6.89 2.996-10.185 4.984C171 360 171 360 168 360l-.402-2.336-.536-3.039-.527-3.023C166 349 166 349 165 347h-2l-.687-3.687c-1.703-7.719-4.65-15.31-8.313-22.313zm145 135c-.809 1.883-.809 1.883-1.437 4.125-1.201 3.937-2.761 7.406-4.66 11.047-1.246 2.523-2.03 5.156-2.903 7.828-1.576 3.75-3.185 7.489-5.117 11.07-1.224 2.676-1.015 5.028-.883 7.93-7.852-.42-14.111-2.76-21.312-5.812-22.755-9.501-22.755-9.501-30.688-9.188.697 8.02 3.627 15.258 8 22a470 470 0 0 1 2.188 3.813L236 512h2l.375 2.438L239 517c2.385 1.192 3.831 1.123 6.492 1.12l2.865.004 3.151-.01h3.311c3.626 0 7.251-.009 10.876-.016l7.525-.005q8.904-.005 17.807-.021 11.13-.017 22.258-.023 19.857-.016 39.715-.049l1.669-3.132 2.186-4.102 1.098-2.06c1.46-2.74 2.923-5.478 4.407-8.205 3.201-5.886 5.64-12.765 5.64-19.501-10.12.92-19.052 4.893-27.969 9.55-4.03 1.927-8.159 3.234-12.437 4.493C325 496 325 496 323.03 497.676 321 499 321 499 317.75 498.688L315 498l-.988-3.656-1.325-4.844-.646-2.398c-1.907-6.945-4.356-13.538-7.166-20.164-1.634-4.035-2.499-7.61-2.875-11.938l-3.812-.625-2.145-.352C294 454 294 454 291 456m223 23c1.735 7.321 4.677 13.484 8.379 20.02 1.43 2.628 2.543 5.196 3.621 7.98 2.043 4.323 4.037 8.024 8.563 10 5.252 1.544 11.038 1.816 16.437 1 1.646-1.192 1.646-1.192 3-3 .34-2.452.34-2.452.293-5.324l-.03-3.115c-.024-1.072-.05-2.144-.076-3.248l-.04-3.284A815 815 0 0 0 554 492l-2.203-.918-3.047-1.27-3.32-1.378a709 709 0 0 1-6.547-2.774c-17.037-7.28-17.037-7.28-24.883-6.66m-461 7v2l-1.898.367-2.477.508-2.46.492C44 490 44 490 42 492c-2.125.625-2.125.625-4 1-.805 8.488-1.123 16.534 0 25 4.04 1.948 6.989 2.174 11.438 1.813l3.308-.231c4.695-.84 8.102-1.974 10.941-5.937a303 303 0 0 0 7.626-17.895l.771-1.966c1.712-4.598 2.455-8.898 2.916-13.784-7.547 0-15.242 2.775-22 6" id="svg-layer-0" style="pointer-events: all;"/><path fill="#C9A45A" d="M290 178c7.544-.371 7.544-.371 9.52 1.238 1.707 2.032 2.375 3.736 3.199 6.254l.886 2.637.895 2.746c3.122 9.503 3.122 9.503 5.145 12.832 1.77 2.995 2.092 5.671 2.543 9.106l.48 3.519L313 219c8.437-2.4 16.54-5.274 24.642-8.625 3.465-1.4 6.61-2.522 10.335-2.957L351 207l1-2 2.438.063C357 205 357 205 358 204a75 75 0 0 1 4.563-.062l2.503.027L367 204c-1.276 8.365-4.894 14.68-9 22-10.135 19.312-10.135 19.312-10 27 .729.21 1.458.422 2.209.64 24.56 7.13 24.56 7.13 34.854 10.735l2.085.721c2.827 1.015 4.7 1.753 6.852 3.904.074 2.379.074 2.379-1 5a50.6 50.6 0 0 1-7.187 3.938c-.722.34-1.444.682-2.188 1.034-2.199 1.03-4.41 2.032-6.625 3.028l-1.886.865C352.967 293 352.967 293 346 293c3.213 9.726 6.76 19.09 11.283 28.289 2.682 5.472 5.084 10.477 4.717 16.711-7.167.37-12.645-.792-19.375-3.187l-2.8-.964c-5.65-1.978-11.126-4.17-16.516-6.783-3.669-1.694-7.454-2.865-11.309-4.066l-.078 1.8c-.32 4.68-.983 8.833-2.64 13.231l-1.088 2.89a1337 1337 0 0 1-6.444 16.267c-.23.57-.23.57-1.39 3.462A7922 7922 0 0 1 297 369h-8l-.297-2.309c-.847-5.846-1.98-10.72-4.555-16.015-3.853-8.978-6.616-18.918-7.148-28.676-4.763 1.819-9.464 3.728-14.074 5.906-11.62 5.452-23.838 10.582-36.926 10.094.592-3.55 1.535-6.464 3.11-9.695l1.28-2.654c.45-.916.898-1.832 1.36-2.776l2.738-5.68 1.323-2.733c3.566-7.383 6.75-14.63 9.189-22.462l-3.875-.738c-5.348-1.192-10.139-3.216-15.125-5.45l-5.512-2.414-2.767-1.215c-4.154-1.806-8.34-3.531-12.534-5.245-.728-.3-1.457-.598-2.208-.906L198 274v-6l2.085-.715c14.367-4.933 28.69-9.955 42.915-15.285-1.052-6.917-3.52-12.188-6.875-18.25-5.105-9.319-8.895-16.954-9.125-27.75 14.604-2.453 30.471 4.449 43.297 11.21C272 218 272 218 275 218l.48-1.8c1.604-5.696 3.673-10.913 6.188-16.262C284.9 192.81 287.566 185.434 290 178" id="svg-layer-1" style="pointer-events: all;"/><path fill="#C8A35A" d="M446 45q3.012.43 6 1l.594 1.922c2.494 7.785 5.45 15.323 8.588 22.87C463.24 75.817 464.815 80.698 466 86c4.532.235 7.603-.376 11.746-2.195l3.267-1.413 3.425-1.517q3.505-1.515 7.011-3.027l3.412-1.484c3.95-1.716 7.907-3.41 11.889-5.052l3.297-1.386c3.143-.986 5.68-1.107 8.953-.926-1.672 10.738-6.62 19.388-11.792 28.791-7.506 13.722-7.506 13.722-9.208 21.209l1.903.264c8.173 1.293 15.66 3.827 23.41 6.674l3.744 1.341c5.488 1.988 10.753 4.033 15.943 6.721-.174 2.33-.174 2.33-1 5-2.246 1.498-2.246 1.498-5.223 2.719l-3.3 1.38c-.584.23-.584.23-3.54 1.401l-3.57 1.46c-9.939 4.008-19.94 7.523-30.367 10.04.5 10.314 5.67 18.1 10.72 26.765 1.902 3.32 3.676 6.697 5.405 10.11l1.695 3.305C515 199 515 199 515 203c-15.032 1.367-32.281-9.407-45.202-16.186-1.908-.864-3.755-1.366-5.798-1.814l-.113 2.125C462.92 201.08 462.92 201.08 458 206c-.714 1.8-.714 1.8-1.367 3.957l-.746 2.373q-.756 2.463-1.5 4.93c-1.477 4.67-2.966 8.09-6.387 11.74l-6-1-.77-2.598c-1.796-5.97-3.686-11.704-6.23-17.402-3.11-7.377-5.591-13.966-6-22-6.013.465-10.186 1.742-15.437 4.625-5.817 3.049-11.676 5.816-17.75 8.313l-2.14.89c-6.154 2.5-11.049 3.302-17.673 3.172.545-4.775 1.918-8.188 4.25-12.375l1.918-3.457a177 177 0 0 1 4.394-7.23C391.188 172.733 394.68 164.87 398 157l-2.621-.742c-12.234-3.631-23.968-8.357-35.77-13.192a112 112 0 0 0-5.395-2.04L352 140c-.812-2.625-.812-2.625-1-5 15.286-7.031 30.766-13.476 47-18-1.912-6.43-4.46-12.132-7.687-18-3.448-6.418-6.8-12.862-9.938-19.437l-1.038-2.131C377.705 73.972 377 71.9 377 68c10.285-.67 18.891 3.744 27.96 8.082 4.233 2.022 8.501 3.956 12.79 5.856l2.06.928C422.716 84.148 424.784 85 428 85l.926-2.437c3.352-8.611 7.038-17.037 10.887-25.438l1.491-3.262c3.565-7.732 3.565-7.732 4.696-8.863M444 318h10l.664 2.246c1.522 5.055 3.057 10.07 4.902 15.016 2.961 7.947 5.397 15.13 5.434 23.738 4.323-1.034 7.941-2.416 11.875-4.5 4.674-2.43 8.95-3.582 14.125-4.5v-2a869 869 0 0 1 9.5-4l2.688-1.156c5.57-2.294 9.79-3.294 15.812-2.844-2.08 11.282-7.452 20.891-12.85 30.863a523 523 0 0 0-5.212 9.95l-1.723 3.332C498 387 498 387 498 391l2.48.559c14.388 3.41 28.431 7.979 42.52 12.441-.187 2.313-.187 2.313-1 5-2.22 1.634-2.22 1.634-5 3l-2.643 1.419c-7.42 3.762-14.956 6.943-22.732 9.894l-3.441 1.337c-5.089 1.948-9.768 3.589-15.184 4.35q1.117 3.471 2.25 6.938l.621 1.939a96 96 0 0 0 4.098 10.467c2.246 4.941 3.783 10.01 5.281 15.219l.813 2.767q.976 3.333 1.937 6.67c-2 1-2 1-5.316.066q-2.13-.736-4.247-1.503c-.752-.27-1.504-.538-2.279-.814-7.677-2.816-15.002-6.291-22.346-9.871C463.744 456 463.744 456 461 456l-.297 2.309c-.863 5.962-2.032 10.976-4.683 16.378-1.88 4.264-2.907 8.8-4.02 13.313h-2l-.375 3.625c-.448 3.651-1.33 6.92-2.625 10.375-2.813.688-2.813.688-6 1-3.572-2.382-4.413-6.444-5.664-10.336l-.72-2.17q-.75-2.271-1.487-4.545c-.75-2.312-1.512-4.619-2.277-6.926q-.729-2.21-1.454-4.421l-.685-2.081c-1.963-6.068-2.838-11.135-2.713-17.521-14.08 5.424-14.08 5.424-20.687 8.875-5.5 2.832-11.142 5.192-16.875 7.5l-2.673 1.085-2.519 1-2.26.9C379 475 379 475 376 475c.75-6.75.75-6.75 3-9a71 71 0 0 0 1.5-4.5c.885-2.963 1.278-4.278 3.5-6.5.721-1.613 1.435-3.23 2.108-4.865 1.002-2.398 2.072-4.76 3.154-7.123l1.2-2.639q1.24-2.715 2.485-5.43l1.19-2.619 1.084-2.372C396 428 396 428 396 426l-3.312-1.18a659 659 0 0 1-28.75-11.132l-3.19-1.31-2.97-1.241-2.65-1.103C353 409 353 409 351 407c.14-2.025.14-2.025 1-4 1.639-.957 1.639-.957 3.754-1.598l2.342-.74 2.466-.724q2.379-.734 4.754-1.473l2.392-.732a116 116 0 0 0 6.257-2.217c4.615-1.77 9.316-3.236 14.035-4.704l2.637-.826q3.18-.996 6.363-1.986c.527-5.633-1.177-9.116-3.75-13.937l-1.055-2.053a246 246 0 0 0-5.23-9.576A266 266 0 0 1 381.313 352l-1.825-3.5c-1.572-3.699-2.109-6.536-2.488-10.5 15.128 1.175 27.567 7.342 41.105 13.71 3.894 1.735 7.82 3.047 11.895 4.29l.367-2.336.508-3.039.492-3.023C432 345 432 345 434 343c.443-1.6.882-3.202 1.305-4.809 1.158-3.65 2.837-7.057 4.453-10.523 1.487-3.194 2.872-6.422 4.242-9.668M140 47h6c6.39 13.342 12.624 26.844 17 41 4.797-.576 8.529-1.975 12.875-4.062l1.948-.93c4.88-2.34 9.716-4.766 14.552-7.195C208.696 67.622 208.696 67.622 216 67c-2.03 7.508-4.4 14.235-8.285 20.977-2.088 3.68-4.004 7.43-5.903 11.21l-1.008 1.98C195 112.744 195 112.744 195 119l2.402.777c9.775 3.208 19.45 6.662 29.115 10.188l3.151 1.144 2.821 1.03A64 64 0 0 0 239 134v5c-9.273 4.818-18.667 9.265-28.25 13.438l-3.03 1.323c-7.829 3.38-7.829 3.38-11.72 4.239 2.438 12.595 7.929 22.718 14.398 33.697 2.928 5.052 5.369 9.577 6.602 15.303-15.438.445-32.723-7.463-45.879-15.219-2.513-1.434-4.307-2.33-7.121-2.781l-.008 1.66c-.377 7.731-3.028 14.32-6.11 21.323a387 387 0 0 0-2.66 6.279q-.888 2.058-1.785 4.113l-.812 1.966c-1.28 2.836-2.067 4.411-4.965 5.698-3.5-.051-5.561-.333-8.66-2.039-1.2-2.831-1.957-5.171-2.625-8.125q-.6-2.344-1.219-4.684l-.586-2.237c-.649-2.224-1.533-4.14-2.695-6.142C128.301 200.436 127 192.23 127 185c-6.78 2.094-12.92 4.921-19.125 8.313-5.915 3.207-11.87 6.177-18.062 8.812l-2.105.93c-4.307 1.78-7.199 2.165-11.708.945 4.638-11.774 10.16-23.077 16.438-34.062 2.278-4.088 3.355-7.27 3.562-11.938l-3.027-.336c-4.035-.581-7.743-1.827-11.535-3.289l-2.09-.792c-5.955-2.314-11.592-5.104-17.262-8.036-3.629-1.82-7.247-3.242-11.086-4.547v-6a24801 24801 0 0 1 18.568-6.571c9.117-3.23 18.24-6.419 27.432-9.429l-.96-2.82A58.5 58.5 0 0 1 94 108h-2l-.734-1.723-1.016-2.34-.984-2.285c-1.272-2.664-2.704-5.2-4.183-7.754-1.891-3.314-3.652-6.691-5.395-10.085l-1.127-2.116c-2.653-5.191-2.653-5.191-2.155-7.925L77 72c11.708 2.21 22.168 6.376 33.037 11.202l3.252 1.435 2.897 1.303c2.941 1.108 5.705 1.646 8.814 2.06l1.023-3.395 1.352-4.418.672-2.236.664-2.158.603-1.984C130 72 130 72 132 69c.52-1.403.995-2.821 1.438-4.25.924-2.88 1.904-5.67 3.125-8.437 1.33-3.068 2.427-6.128 3.437-9.313" id="svg-layer-2" style="pointer-events: all;"/><path fill="#C8A45A" d="M146 321h8c9 20.476 9 20.476 9 26h2c1.583 4.326 2.451 8.429 3 13 3.825-.742 7.065-2.377 10.563-4.062a500 500 0 0 1 18.375-8.25l2.363-1.022c6.328-2.673 12.714-5.103 19.699-4.666-.508 4.318-1.197 8.033-3 12h-2l-.336 2.684c-.665 3.32-1.605 5.466-3.289 8.378l-1.617 2.856L207 371q-1.885 3.432-3.75 6.875l-1.734 3.18c-2.397 4.657-3.791 8.749-4.516 13.945l3.86.762c5.34 1.189 10.31 3.044 15.39 5.05l5.531 2.165 2.692 1.055a187 187 0 0 0 6.746 2.429l3.531 1.226 3.047 1.012L240 410c.638 2.581.638 2.581 1 5-8.395 4.491-16.822 7.89-25.875 10.813l-3.586 1.193c-5.183 1.701-10.13 3.201-15.539 3.994 1.907 9.918 5.098 18.751 9 28q1.132 2.81 2.25 5.625l.89 2.227L209 469l1.11 2.523C211 474 211 474 211 478c-7.46-.29-13.237-1.967-19.937-5.187l-2.64-1.228a236 236 0 0 1-16.212-8.366c-2.99-1.648-6.044-2.952-9.211-4.219a231 231 0 0 0-3.375 10.75c-1.887 6.322-4.394 12.333-6.957 18.406l-1.356 3.219-1.261 2.96C149 497 149 497 148.48 499.29c-.16.565-.318 1.13-.481 1.711-2.74 1.37-4.97 1.126-8 1l-2-1c-.623-2.05-.623-2.05-1.148-4.742l-.61-2.985-1.21-6.18a111 111 0 0 0-5.154-17.678c-1.588-4.368-2.166-8.846-2.878-13.415-6.747 2.631-13.358 5.478-19.937 8.5C88.336 473 88.336 473 82 473c.592-3.451 1.476-6.398 2.926-9.582l1.166-2.576 1.22-2.654 1.186-2.62c1.807-3.971 3.655-7.912 5.623-11.806 1.681-3.326 3.196-6.695 4.629-10.137l1.297-3.086C101 428 101 428 101 426q-4.374-1.845-8.75-3.687l-2.635-1.111q-7.046-2.971-14.115-5.89c-6.932-2.881-13.802-5.917-20.5-9.312v-5c3.877-1.193 6.916-2 11-2v-2q6.482-1.72 12.97-3.418 2.206-.579 4.408-1.164a1479 1479 0 0 1 6.352-1.668l3.857-1.016C96.539 389.1 99 388.84 102 389c-2.282-8.282-5.158-15.854-9.437-23.312C88.158 357.912 84.85 349.744 83 341c3.977-1.589 7.249-.332 11.125.938l2.1.673c5.549 1.847 10.925 4.033 16.275 6.389l2.208.969c4.423 2.006 8.493 4.305 12.548 6.98C129 358 129 358 132 359l.305-1.852c1.806-8.784 5.393-16.5 9.202-24.58l1.313-2.787 1.196-2.498c.902-2.092 1.509-4.06 1.984-6.283" id="svg-layer-3" style="pointer-events: all;"/><path fill="#C3A05B" d="m75 207-1.054 2.32q-1.962 4.33-3.908 8.666-.839 1.864-1.685 3.724c-8.882 19.548-8.882 19.548-8.54 28.415L60 255l1.97.262c8.94 1.328 17.521 3.611 26.206 6.051 2.477.695 4.957 1.375 7.437 2.054l4.739 1.32 2.24.613c5.178 1.47 5.178 1.47 7.408 3.7.125 2.625.125 2.625 0 5-15.855 8.223-32.082 15.26-49 21l.805 2.816L67 316h2a934 934 0 0 1 4 8.125l1.156 2.305c2.11 4.37 3.352 7.597 2.844 12.57-6.278.125-12.18-.258-18.375-1.25l-2.344-.332C49.603 336.371 44.63 334.411 38 332V215l7-3 2.121-1.118c4.002-1.878 8.556-2.296 12.879-3.07l3.023-.576 2.914-.529 2.653-.485c2.432-.224 4.102.032 6.41.778" id="svg-layer-4" style="pointer-events: all;"/><path fill="#BC9B5D" d="m302 455 .297 1.8c1.372 7.605 3.771 14.576 6.746 21.696 2.662 6.374 4.43 12.77 5.957 19.504 4.854 1.05 6.745.878 10.973-1.832 2.32-1.337 4.62-2.172 7.152-3.043 4.243-1.474 8.257-3.192 12.313-5.125 14.888-7 14.888-7 22.562-7-2.66 13.234-7.476 25.713-15 37-1.987.375-1.987.375-4.472.374l-2.851.021-3.138-.023-3.296.011c-3.611.009-7.222-.005-10.833-.02q-3.75 0-7.503.002-7.872 0-15.745-.029a4033 4033 0 0 0-18.206-.018q-8.752.006-17.505-.011-3.726-.006-7.453-.004-5.205-.002-10.408-.028c-.517 0-.517 0-3.131.007l-2.86-.021-2.486-.007C241 518 241 518 238 516v-4l-3-1c-1.246-2.004-1.246-2.004-2.437-4.562l-1.297-2.735L230 501a760 760 0 0 0-2.187-4.312c-2.36-4.759-3.92-8.303-3.813-13.688 7.323.356 13.362 1.923 20.125 4.688l5.508 2.167L255 492c2.994 1.182 5.995 2.346 9 3.5l1.938.772c3.482 1.339 6.33 2.01 10.062 1.728l-.187-2.687c.214-3.792 1.16-5.16 3.187-8.313.787-1.92 1.478-3.864 2.18-5.816 1.151-3.065 2.5-6.03 3.855-9.008 1.433-3.23 2.714-6.512 3.965-9.817l1-2.609 1-2.64c2.235-4.716 6.645-2.742 11-2.11" id="svg-layer-5" style="pointer-events: all;"/><path fill="#BB9A5D" d="M519 205c2.585.182 5.118.433 7.688.75l2.305.28c17.96 2.29 17.96 2.29 25.007 5.97.196 74.464.196 74.464-.437 104.625l-.06 3.045q-.085 4.154-.187 8.307l-.05 2.419c-.15 5.37-.15 5.37-1.266 7.604l-32 1c.879-4.395 2.138-8.166 3.875-12.25l.777-1.93c.697-1.645 1.516-3.238 2.348-4.82l3-1 .25-3.187c.628-5.217 2.287-10.075 3.91-15.055C535 298 535 298 535 296l-2.332-.915c-9.863-3.868-9.863-3.868-14.612-5.738l-1.931-.76-3.831-1.508a1507 1507 0 0 0-10.282-4.005l-2.053-.798q-2.536-.985-5.076-1.96c-3.298-1.506-6.076-3.007-8.883-5.316-.164-2.635-.164-2.635 0-5q5.497-2.186 10.998-4.359l3.87-1.531c8.298-3.286 16.603-6.517 25.155-9.095 2.958-.96 5.144-2.143 7.618-4.035 1.887-4.137.815-6.282-.729-10.432l-1.162-2.86-1.133-2.947c-2.922-7.434-6.3-14.577-10.05-21.624-1.233-2.452-2.211-4.412-2.567-7.117z" id="svg-layer-6" style="pointer-events: all;"/><path fill="#B8995E" d="m241.564 36.765 2.913-.078 3.208-.07 3.371-.083c10.285-.24 20.573-.386 30.86-.497 6.911-.076 13.819-.185 20.728-.374a922 922 0 0 1 20.042-.315q3.813-.043 7.624-.176c19.296-.646 19.296-.646 24.916 3.45 4.378 4.51 7.152 9.722 9.774 15.378q1.14 2.217 2.287 4.43C369 62 369 62 369 64c-6.773.395-12.04-.995-18.437-3.125C338.19 56.919 325.659 53.884 313 51l-.374 1.73c-2.298 10.506-5.154 20.552-9.454 30.426-1.725 4.187-2.984 8.479-4.172 12.844-7.35.482-7.35.482-9.937-1.437-1.56-3.76-1.813-7.525-2.063-11.563h-2l-.519-1.649-2.356-7.476-.816-2.594-.801-2.539-.78-2.481c-.608-1.887-1.26-3.76-1.923-5.628C277 58 277 58 277 54c-13.29.765-25.808 2.572-38.697 5.967-9.282 2.429-9.282 2.429-14.303 2.033l1.426-2.816 1.887-3.746.935-1.846c2.555-5.083 4.95-10.186 6.752-15.592 2.375-1.187 3.912-1.168 6.564-1.235" id="svg-layer-7" style="pointer-events: all;"/><path fill="#B7985E" d="M75 480c-.759 10.05-4.796 18.946-9 28l-.93 2.23c-1.475 3.347-2.612 5.406-5.507 7.707-7.098 2.117-14.72 3.363-21.563.063-.805-8.488-1.123-16.534 0-25a619 619 0 0 1 9.188-3.625c.674-.26 1.348-.52 2.042-.79C51 488 51 488 53 488v-2c7.073-3.042 14.195-6 22-6M514 479c12.121.808 22.683 5.593 33.629 10.512C551 491 551 491 554 492c.087 3.77.14 7.541.188 11.313l.076 3.248.029 3.115.048 2.872C554 515 554 515 552.644 516.806c-3.776 2.743-9.236 1.67-13.644 1.194-5.313-1.263-8.857-3.2-11.875-7.812-1.67-3-2.967-6.14-4.304-9.3a173 173 0 0 0-2.61-5.677l-.914-1.914q-.93-1.936-1.867-3.867c-1.644-3.458-2.891-6.63-3.43-10.43M40.625 38.625c4.631.067 8.901 1.11 13.313 2.438l2.008.543c1.894.617 1.894.617 5.054 2.394 1.32 3.422 1.32 3.422 2 7 .965 2.293.965 2.293 1.938 4.188l1.042 2.042C67 59 67 59 68.75 61c2.013 3.221 1.437 6.26 1.25 10-10.205.494-17.742-2.067-26.562-7l-1.88-1.043C37.124 60.373 37.124 60.373 36 57a224 224 0 0 1-.125-8.625l-.012-2.39c.012-6.869.012-6.869 4.762-7.36" id="svg-layer-8" style="pointer-events: all;"/><path fill="#B7985F" d="M539 37q3.219-.04 6.438-.062l3.62-.036C552 37 552 37 553 38c.293 2.425.516 4.816.688 7.25l.181 2.027c.292 4.077.184 7.139-1.869 10.723-2.625.813-2.625.813-5 1v2c-3.181 1.185-6.37 2.345-9.562 3.5l-2.713 1.012C529.582 67.358 525.465 68.42 520 68c1.466-6.93 3.628-13.746 7-20l3-1-.125-2.375C530 42 530 42 532 40c2.323-.4 4.657-.74 7-1z" id="svg-layer-9" style="pointer-events: all;"/></svg>