<svg xmlns="http://www.w3.org/2000/svg" viewBox="0 0 608 536"><path fill="#F5EED8" d="m80.324 19.753 2.615-.008c2.917-.005 5.832.003 8.749.012q3.15-.002 6.298-.006c5.782-.004 11.563.004 17.345.013 6.208.009 12.416.006 18.624.005 14.235 0 28.47.016 42.705.035q10.523.014 21.043.023c23.78.022 47.56.048 71.339.089l2.216.004 17.737.03q34.57.059 69.14.06 35.051.003 70.103.075c12.565.026 25.13.043 37.696.034q15.983-.012 31.965.047c5.417.02 10.833.03 16.25.014q7.405-.02 14.812.035 2.682.012 5.364-.008c2.42-.016 4.838.004 7.258.034l2.125-.042c1.953.047 1.953.047 5.292.801 3.828 4.116 4.499 7.397 4.488 12.909l.012 2.045c.01 2.264-.01 4.526-.03 6.79q0 2.465.007 4.93c.005 4.531-.015 9.063-.039 13.594-.021 4.925-.02 9.85-.02 14.776-.007 9.735-.035 19.471-.07 29.207-.042 11.432-.061 22.865-.08 34.297-.04 22.36-.104 44.72-.178 67.08q-.1 30.39-.168 60.78-.106 46.016-.251 92.03-.047 15.023-.086 30.042-.05 19.47-.127 38.94-.04 9.462-.061 18.922-.02 8.707-.064 17.414a1912 1912 0 0 0-.017 6.319q-.008 4.3-.038 8.6l.006 2.485c-.051 5.321-.321 10.838-2.284 15.84-3.707 2.471-6.522 2.28-10.81 2.254l-2.448.01c-2.73.009-5.461.003-8.191-.003l-5.904.011c-5.426.01-10.852.008-16.278.004-5.845-.002-11.69.007-17.534.014q-17.186.018-34.37.012a42995 42995 0 0 0-37.97.01q-28.083.013-56.165.008h-2.14l-17.205-.005q-33.563-.007-67.127.021a76594 76594 0 0 1-83.4.027l-3.99-.001q-13.953 0-27.904.016-16.993.019-33.985.002-8.678-.011-17.354.005-7.932.014-15.865-.007-2.88-.004-5.76.008c-2.597.01-5.193.002-7.79-.011l-2.292.022c-5.02-.053-5.02-.053-7.48-1.75-1.62-2.569-1.478-4.804-1.545-7.821l-.053-1.979a634 634 0 0 1-.12-6.823q-.049-2.562-.1-5.124c-.51-28.728-.366-57.473-.355-86.205q.003-9.52.001-19.04v-2.777l-.001-5.593q-.004-26.074.006-52.149.006-22.05-.001-44.1a105660 105660 0 0 1-.004-57.401v-2.785q.001-9.4-.002-18.797c-.013-37.6.091-75.198.463-112.796q.057-5.75.102-11.5.054-6.718.134-13.435.027-2.464.044-4.927c.119-16.4.119-16.4 2.393-23.395 3.822-2.548 6.896-2.275 11.324-2.247M310 28c-9.647 14.187-14.403 31.254-20 47.313q-1.26 3.6-2.522 7.198a5265 5265 0 0 0-17.113 49.684c-2.7 7.968-5.432 15.918-8.365 23.805-4.552-1.464-8.987-3.148-13.414-4.95l-2.167-.876q-3.523-1.429-7.044-2.862l-4.954-2.008c-8.375-3.4-16.733-6.838-25.062-10.35-25.67-10.826-51.53-19.769-78.195-27.829l-2.15-.652C124.12 105 124.12 105 123 105c.402 6.59 2.96 11.256 6.188 16.938l1.617 2.896c1.72 3.063 3.456 6.115 5.195 9.166l1.696 3.012a483 483 0 0 0 25.434 40.321c1.88 2.682 3.748 5.373 5.612 8.065 9.348 13.47 18.947 26.69 29.488 39.262C200 227 200 227 200 229c-1.759 1.364-3.587 2.638-5.437 3.875q-1.793 1.21-3.583 2.422l-1.947 1.314c-2.85 1.948-5.659 3.952-8.47 5.955-6.227 4.437-12.484 8.756-18.973 12.805-3.844 2.418-7.608 4.95-11.38 7.48a862 862 0 0 1-6.67 4.422C125.33 279.246 107.944 292.306 91 306l1 4c6.071 1.617 12.113 2.747 18.32 3.7l3.02.471c3.261.51 6.523 1.013 9.785 1.517l6.828 1.063A8983 8983 0 0 0 164 321.977l3.123.473q7.305 1.108 14.612 2.203c8.328 1.252 16.647 2.542 24.945 3.984.357.06.357.06 2.163.37 4.915.872 4.915.872 7.157 1.993-4.609 26.694-9.865 53.199-15.621 79.669a1887 1887 0 0 0-10.813 53.46c-.457 2.317-.99 4.584-1.566 6.871-.272 2.77-.181 5.19 0 8 3 2 3 2 5.563 2 9.649-2.807 16.606-9.584 23.7-16.374 2.06-1.928 4.17-3.792 6.281-5.663 5.522-4.964 10.77-10.167 15.995-15.44l2.926-2.937a8621 8621 0 0 0 9.16-9.211q5.324-5.361 10.657-10.713 2.106-2.116 4.207-4.239c4.45-4.467 8.957-8.775 13.743-12.882 2.57-2.24 4.957-4.618 7.362-7.037l1.445-1.45q2.234-2.243 4.461-4.491l3.07-3.084q3.72-3.736 7.43-7.479c3.733 1.244 4.599 2.727 7 5.813a217 217 0 0 0 10.625 12.375l1.43 1.544 1.394 1.506c4.224 4.574 8.285 9.279 12.328 14.012l4.669 5.463a616 616 0 0 0 11.542 13.06A450 450 0 0 1 358.5 440c6.015 6.89 12.074 13.672 18.613 20.07 1.856 1.898 3.519 3.878 5.2 5.93 4.958 5.794 11.389 9.801 17.687 14h4c6.825-20.474-.136-51.434-1.723-72.63a9092 9092 0 0 1-1.867-25.526l-.198-2.742A946 946 0 0 1 398 332l1.859.027c5.88.048 11.635-.226 17.485-.797l5.402-.5 2.839-.268c15.543-1.465 31.085-2.76 46.663-3.788 43.827-2.898 43.827-2.898 57.752-6.674.742-2.746.742-2.746 1-6-1.492-2.098-1.492-2.098-3.875-4.062l-2.805-2.336A582 582 0 0 0 521 305l-1.856-1.45a889 889 0 0 0-10.613-8.109 409 409 0 0 1-8.75-6.789c-9.54-7.598-19.385-14.583-29.51-21.383-6.472-4.349-12.853-8.79-19.146-13.394-6.227-4.547-12.512-8.898-19.125-12.875l-2.148-1.305C425.297 237 425.297 237 423 237l1.084-1.794c3.286-5.456 6.517-10.94 9.71-16.45 5.41-9.333 10.897-18.612 16.519-27.818l1.778-2.917c2.466-4.038 4.938-8.072 7.436-12.091 5.693-9.223 10.534-18.79 15.288-28.526a432 432 0 0 1 3.35-6.638c3.56-6.94 6.853-13.93 9.835-21.141l.919-2.22C491 112.264 491 112.264 491 110c-5.957.47-11.303 1.462-16.937 3.438l-2.309.792c-28.844 10.056-56.87 22.288-84.729 34.771A493 493 0 0 1 363 159l-2.695 1.148C358 161 358 161 355 161l-.078-1.737c-.52-7.452-2.534-14.028-4.922-21.076q-.923-2.788-1.842-5.577l-1.27-3.844c-2.214-6.702-4.265-13.453-6.325-20.203-4.15-13.493-8.698-26.832-13.37-40.152q-1.726-4.94-3.427-9.888Q320.915 50.251 318 42l-.777-2.222a555 555 0 0 0-2.036-5.653l-1.082-2.992C313 29 313 29 310 28" id="svg-layer-0" style="pointer-events: all;"/><path fill="#CEA85C" d="M310 28c3 1 3 1 4.084 3.084l1.01 2.795 1.166 3.181 1.24 3.502 1.316 3.644c1.414 3.924 2.8 7.859 4.184 11.794l1.395 3.948c5.425 15.381 10.555 30.829 15.319 46.43 2.927 9.568 6.052 19.06 9.28 28.531 6.553 19.345 6.553 19.345 6.006 26.091 4.295-.572 7.803-1.606 11.75-3.375q1.847-.816 3.695-1.629l2.134-.942c3.876-1.687 7.777-3.314 11.674-4.95 8.845-3.715 17.653-7.477 26.372-11.479 21.274-9.7 43.118-18.455 65.375-25.625l2.673-.874 2.647-.837 2.36-.751c2.51-.582 4.752-.632 7.32-.538-2.009 7.5-4.782 14.41-8.062 21.438l-1.467 3.166c-4.507 9.64-9.358 19.065-14.471 28.396l-1.147 2.107c-4.835 8.85-10.004 17.446-15.388 25.971-6.463 10.245-12.547 20.72-18.572 31.226A391 391 0 0 1 423 237l2.39.605c4.936 1.907 9.001 4.738 13.36 7.708l2.793 1.88c6.856 4.647 13.593 9.448 20.28 14.334 3.98 2.904 7.987 5.718 12.115 8.41 14.173 9.326 27.666 19.81 40.934 30.373a584 584 0 0 0 4.287 3.373 431 431 0 0 1 6.029 4.817l1.839 1.418c1.641 1.363 1.641 1.363 3.973 4.082-.137 3.344-.137 3.344-1 6-10.473 2-20.956 3.4-31.566 4.441l-3.926.389c-14.707 1.436-29.44 2.542-44.175 3.636q-8.628.642-17.255 1.295-2.959.221-5.918.44c-4.984.374-9.952.75-14.913 1.367-4.748.567-9.472.522-14.247.432.365 16.652 1.21 33.233 2.41 49.844l.2 2.77q.923 12.812 1.881 25.62c4.531 60.699 4.531 60.699 1.509 69.766-12.264-1.572-21.506-13.059-29.117-21.898-2.05-2.289-4.196-4.445-6.383-6.602-4.048-4.007-7.81-8.163-11.5-12.5a8066 8066 0 0 0-5.875-6.875l-1.57-1.837A628 628 0 0 0 338 417.21c-4.003-4.425-7.91-8.932-11.785-13.469l-3.09-3.617-1.56-1.826a518 518 0 0 0-11.823-13.31C308 383 308 383 306 380c-4.087 1.616-6.79 4.552-9.797 7.637l-1.674 1.69a1749 1749 0 0 0-5.279 5.36q-2.614 2.658-5.236 5.308a845 845 0 0 0-3.246 3.3 140 140 0 0 1-8.503 7.943c-4.681 4.051-9.029 8.412-13.385 12.807q-2.22 2.237-4.445 4.469-4.721 4.74-9.435 9.486a9533 9533 0 0 1-10.952 11.008q-2.17 2.18-4.333 4.365C224.642 458.464 219.48 463.351 214 468l-2.871 2.512C200.568 479.465 200.568 479.465 194 481c-2.283-.377-3.93-.965-6-2-.47-7.855 1.291-15.17 2.938-22.812q.473-2.241.943-4.482 1.015-4.82 2.04-9.637c1.86-8.727 3.687-17.46 5.517-26.194l.57-2.72C211.603 357.843 211.603 357.843 216 331c-7.969-1.863-16-3.303-24.062-4.687l-2.24-.387c-13.97-2.398-27.981-4.471-42.01-6.488-28.666-4.134-28.666-4.134-41.5-6.188l-3.699-.565-3.321-.544-2.835-.453C93.76 310.93 92.686 310.046 91 308c1.323-3.036 2.6-4.763 5.246-6.742l2.008-1.52 2.183-1.613 2.284-1.713q2.407-1.8 4.822-3.59c2.4-1.78 4.788-3.57 7.176-5.365 9.8-7.33 19.799-14.274 30.034-20.98 3.825-2.514 7.629-5.06 11.435-7.602 4.207-2.81 8.415-5.618 12.644-8.395 7.937-5.224 15.684-10.67 23.356-16.279l2.207-1.611 1.964-1.442C198 230 198 230 200 229c-1.286-3.699-2.726-6.068-5.437-8.875C188.805 213.83 183.94 206.94 179 200l-1.57-2.199A1303 1303 0 0 1 165 180l-2.14-3.112c-11.094-16.211-21.327-32.7-30.86-49.888l-1.515-2.7a745 745 0 0 1-3.923-7.112c-.185-.335-.185-.335-1.127-2.028-1.926-3.618-2.594-6.1-2.435-10.16 29.008 7.717 56.664 17.387 84.235 29.138 8.653 3.68 17.371 7.198 26.093 10.711 8.03 3.236 16.004 6.562 23.928 10.047C260 156 260 156 262 156q3.255-9.248 6.5-18.5l.98-2.795c3.565-10.168 7.108-20.338 10.457-30.58 3.394-10.322 6.994-20.57 10.627-30.81q.981-2.766 1.956-5.534c3.17-8.993 6.41-17.932 10.195-26.687l.823-1.922c1.797-4.05 3.927-7.56 6.462-11.172" id="svg-layer-1" style="pointer-events: all;"/><path fill="none" d="M0 0h608v536H0zm93.478 3.018c-4.729.036-9.456.096-14.184.194q-2.1.04-4.201.062c-8.905.097-15.345.698-22.335 6.628-8.925 11.124-7.158 27.145-7.374 40.718l-.114 6.005c-.354 19.52-.42 39.04-.415 58.563 0 5.044-.006 10.089-.01 15.133q-.012 14.704-.012 29.407 0 11.952-.006 23.904a162221 162221 0 0 0-.012 75.41q-.002 29.673-.023 59.345-.023 30.604-.02 61.208.001 17.13-.014 34.259-.015 14.541-.005 29.082.007 7.406-.005 14.813-.011 6.787.002 13.577.003 2.445-.005 4.888C44.65 505.317 44.65 505.317 52 513c7.032 5.88 14.32 6.153 23.253 6.129l2.447.005c2.704.005 5.408.002 8.112 0l5.876.007q8.074.008 16.147.004c5.805 0 11.61.006 17.416.01q17.063.012 34.124.012a95179 95179 0 0 1 35.733.008l2.007.001q27.935.01 55.87.01h19.232q33.334-.001 66.667.02 37.464.024 74.93.023 19.83-.002 39.66.013 16.89.014 33.777.005 8.612-.007 17.224.005 7.896.011 15.79-.002 2.846-.003 5.691.005c31.108.086 31.108.086 40.231-8.255 4.848-8.023 5.258-17.65 5.245-26.801l.031-3.37c.03-3.643.04-7.285.049-10.927l.054-7.681c.043-6.04.072-12.08.095-18.12.027-6.806.071-13.611.117-20.416q.106-15.99.178-31.978l.015-3.376q.035-8.393.011-16.786c-.025-9.42.154-18.83.374-28.248.561-24.182.73-48.352.707-72.54l-.003-2.372a30506 30506 0 0 0-.06-36.26c-.022-10.605-.043-21.21-.053-31.816q-.005-5.714-.022-11.428c-.05-16.273.124-32.5.71-48.764.432-12.169.511-24.324.498-36.5l.003-6.759q.002-6.964-.006-13.928-.006-8.918.004-17.837.005-6.925 0-13.851 0-3.292.002-6.586.003-4.562-.007-9.125l.007-2.717C574.1 22.651 574.1 22.651 571 18l-.625-2.25c-2.12-4.24-5.38-7.232-9.375-9.75-5.423-1.604-10.366-2.292-16.03-2.265l-2.335-.013c-2.575-.011-5.15-.01-7.724-.007l-5.606-.02c-5.128-.018-10.257-.023-15.386-.026-5.535-.006-11.07-.023-16.605-.039a24865 24865 0 0 0-32.544-.062c-12.656-.018-25.313-.046-37.969-.074q-34.947-.077-69.893-.13a92882 92882 0 0 1-67.68-.131l-2.034-.005-10.142-.023-2.022-.004c-21.59-.049-43.18-.089-64.77-.129q-13.19-.024-26.38-.054-16.136-.034-32.27-.057-8.212-.01-16.423-.03c-13.904-.033-27.806-.01-41.71.087" id="svg-layer-2" style="pointer-events: all; fill: none;"/><path fill="#373122" d="M98.526 2.981c13.274-.093 26.548-.075 39.823-.042q8.352.018 16.704.027 16.28.024 32.559.06 13.227.03 26.455.053 31.493.059 62.985.126l2.024.005 16.264.037q31.809.07 63.618.12 35.842.055 71.683.135 18.944.043 37.887.07 16.094.023 32.188.068 8.206.024 16.414.03 7.51.007 15.02.036 2.718.009 5.435.007c2.462-.002 4.924.009 7.386.022l2.13-.01c8.169.076 14.224 1.701 20.208 7.345 2.505 2.859 3.506 5.31 4.691 8.93l1.055 2.612c1.231 4.414 1.217 8.472 1.188 13.032l.006 2.896c.003 3.163-.007 6.325-.019 9.487v6.68q-.003 7.024-.024 14.05a5978 5978 0 0 0-.02 17.72q-.001 6.92-.013 13.84l-.006 6.514a1055 1055 0 0 1-.674 37.204c-.549 15.52-.61 31.025-.561 46.552q.013 5.736.017 11.472c.012 10.513.034 21.025.056 31.538a28500 28500 0 0 1 .06 38.066c.025 26.944-.235 53.878-.71 80.818-.26 14.865-.395 29.719-.359 44.585.017 13.972-.117 27.945-.232 41.916q-.07 8.235-.11 16.47-.041 8.087-.117 16.173-.025 3.045-.035 6.092c-.096 28.207-.096 28.207-7.783 35.951-10.435 8.087-27.611 5.477-40.052 5.466l-5.9.007q-8.077.008-16.154.004c-5.815 0-11.63.006-17.444.01q-17.074.012-34.149.012a95317 95317 0 0 0-35.749.008l-2.008.001q-27.945.01-55.888.01h-19.223q-33.354-.001-66.708.02-37.493.024-74.985.023-19.845-.002-39.69.013-16.89.014-33.779.005-8.618-.007-17.234.005-7.89.011-15.777-.002-2.854-.003-5.707.005c-2.587.008-5.174.002-7.761-.006l-2.233.015C65.52 519.21 58.027 518.205 52 513c-9.107-10.018-7.29-26.488-7.247-39.174q-.002-2.544-.008-5.088c-.006-4.624 0-9.249.008-13.873.007-5.004.002-10.007-.002-15.01q-.006-14.695.01-29.39c.01-11.45.01-22.9.01-34.35q.001-30.717.023-61.434a79825 79825 0 0 0 .02-62.998v-3.671q0-33.917.015-67.833.004-11.904.004-23.808 0-14.59.014-29.183.008-7.413.007-14.824c-.004-19.593.1-39.182.474-58.772q.055-2.923.102-5.848c.482-29.31.482-29.31 7.328-37.842 7.551-6.407 14.873-6.554 24.394-6.649q2.178-.042 4.357-.087c5.672-.105 11.344-.143 17.017-.185M69.535 21.593c-3.124 4.9-2.67 11.117-2.738 16.777l-.03 2.146q-.044 3.528-.079 7.057-.03 2.532-.062 5.065-.082 6.862-.15 13.727-.046 4.341-.094 8.682c-.426 38.99-.532 77.977-.517 116.969q.003 9.682.001 19.366v2.854l-.001 5.75q-.004 26.457.006 52.915.006 22.54-.001 45.08a111213 111213 0 0 0-.004 58.73v2.815q.002 9.675-.002 19.35-.004 11.779.003 23.558.005 5.97 0 11.94c-.011 15.287.054 30.575.405 45.858q.049 2.2.082 4.4c.032 2.02.085 4.04.139 6.06l.077 3.481C67 497 67 497 68.044 498.87c3.1 1.79 6.282 1.541 9.763 1.51l2.448.014c2.73.012 5.458.003 8.188-.006q2.95.007 5.901.016c5.425.015 10.848.01 16.273.003 5.842-.005 11.685.008 17.527.018 11.454.017 22.907.018 34.36.013a27666 27666 0 0 1 37.96.008c18.718.01 37.436.016 56.154.008l2.14-.001 17.202-.008q33.553-.014 67.107.022a57061 57061 0 0 0 83.38.03l3.99-.002q13.947 0 27.893.02 16.989.022 33.978-.002c5.782-.009 11.565-.011 17.347.004q7.933.02 15.864-.01 2.879-.006 5.756.01c2.598.013 5.194.001 7.792-.016l2.284.029c3.43-.049 5.318-.282 8.099-2.363 3.627-5.07 2.701-12.357 2.708-18.386l.015-2.76q.022-4.577.032-9.154l.03-6.613q.04-9.063.068-18.126.035-9.708.077-19.415.088-22.142.16-44.283l.052-15.246q.18-52.02.327-104.037.062-22.255.135-44.51l.013-3.997.027-7.899c.079-23.237.143-46.475.18-69.712.02-11.206.044-22.413.085-33.619q.053-14.166.059-28.332c.002-4.768.01-9.535.035-14.302q.034-6.49.018-12.98 0-2.34.02-4.68c.017-2.114.01-4.227-.003-6.341 0-.586 0-.586.007-3.553-.63-4.095-1.675-6.18-4.495-9.222-2.755-.622-4.659-.813-7.417-.76l-2.283-.027c-2.543-.024-5.083-.005-7.625.014q-2.754-.012-5.51-.032a1771 1771 0 0 0-15.198-.005c-5.478.01-10.957-.016-16.435-.037-10.78-.035-21.56-.039-32.341-.032-12.594.008-25.187-.016-37.78-.04-17.248-.033-34.496-.057-51.744-.06h-2.063l-10.384-.001a31383 31383 0 0 1-93.366-.162 50513 50513 0 0 0-66.99-.14l-2.105-.003q-14.726-.024-29.453-.07c-12.687-.037-25.374-.061-38.061-.063-6.145-.002-12.29-.01-18.434-.035a2861 2861 0 0 0-16.905-.018q-3.071 0-6.142-.02c-2.774-.017-5.546-.01-8.32.003l-2.443-.033c-3.377.04-5.6.262-8.466 2.114" id="svg-layer-3" style="pointer-events: all;"/></svg>