<svg xmlns="http://www.w3.org/2000/svg" viewBox="0 0 648 536"><path fill="none" d="M0 0h648v536H0zm114.313 46.438-1.762 1.746c-6.07 7.109-4.704 17.934-4.756 26.745l-.03 3.206a5274 5274 0 0 0-.081 10.6l-.064 7.664c-.062 7.715-.115 15.43-.167 23.144q-.03 4.425-.063 8.849c-.572 80.178-.76 160.365.047 289.983l.03 3.383c.125 14.081.276 28.162.533 42.242l.038 2.095q.114 6.067.31 12.132l.061 2.69c.406 10.112 3.05 17.695 10.126 25.013 7.409 6.222 17.764 6.194 27.03 6.199l2.184.005c2.404.005 4.808.002 7.211 0l5.236.007q7.181.008 14.362.004c5.167 0 10.333.006 15.5.01q15.176.012 30.353.012 12.336 0 24.67.006a170674 170674 0 0 0 73.753.012h3.813q30.598.002 61.195.023 31.417.023 62.836.02 17.639-.001 35.277.014 15.015.014 30.03.005 7.66-.007 15.32.005 7.014.011 14.029-.002 2.535-.003 5.07.005c20.775.064 20.775.064 26.409-4.567L575 505l2.188-2.375c5.276-7.642 4.948-18.242 5.017-27.237l.03-2.497q.047-4.14.081-8.278l.064-6.044q.084-8.352.153-16.704.045-5.382.093-10.762c.61-70.803.555-141.608.38-212.412l-.019-8.165c-.054-22.93-.128-45.858-.239-68.788l-.012-2.642-.013-2.63q-.042-9.112-.069-18.226-.033-11.032-.103-22.066c-.023-3.749-.042-7.497-.049-11.246-.007-4.07-.037-8.138-.07-12.207l.005-3.582c-.094-8.15-1.23-14.725-6.187-21.451l-1.36-1.926c-6.657-6.204-15.26-5.234-23.79-5.267q-2.28-.025-4.56-.052a2282 2282 0 0 0-12.416-.1c-3.53-.024-7.06-.058-10.589-.092A8065 8065 0 0 0 487 40l-2.714-.014c-26.211-.134-52.422-.174-78.634-.186l-17.747-.012a94608 94608 0 0 0-49.513-.026h-6.288l-6.307-.002h-3.159c-17.102-.005-34.204-.023-51.306-.046q-26.573-.035-53.147-.037-14.83.001-29.66-.025-12.532-.023-25.065-.012c-4.254.004-8.508.003-12.763-.011q-5.833-.019-11.667 0-2.111.004-4.223-.01c-1.909-.01-3.818-.001-5.728.01-1.06-.002-2.122-.002-3.215-.003-4.923.643-8.14 3.37-11.552 6.812" id="svg-layer-0" style="pointer-events: all; fill: none;"/><path fill="#F7EEDA" d="M128 60a370642 370642 0 0 1 184.888-.11l3.922-.001q31.48-.015 62.957-.043 32.277-.028 64.554-.034 19.932-.004 39.863-.028 13.65-.015 27.3-.011c5.258.001 10.516 0 15.774-.011q7.21-.014 14.419-.004 2.618.001 5.237-.008c2.36-.008 4.718-.004 7.078.004l3.983-.002C561 60 561 60 563 62c.248 3.006.248 3.006.246 6.962l.007 2.207c.005 2.465-.004 4.93-.012 7.396q0 2.662.005 5.326c.004 4.898-.004 9.796-.014 14.695-.008 5.274-.006 10.55-.004 15.824q.001 13.717-.017 27.436c-.016 13.222-.021 26.445-.024 39.668q-.007 32.176-.036 64.353-.028 31.264-.041 62.527l-.002 3.89-.007 19.322Q563.068 411.804 563 492a464457 464457 0 0 1-148.462.055h-3.176q-25.18.008-50.357.022-25.999.014-51.998.017-14.535 0-29.068.012c-37.02.027-74.042.005-111.06-.376q-4.921-.05-9.842-.082-5.681-.038-11.363-.115a555 555 0 0 0-4.142-.034c-1.88-.009-3.76-.038-5.639-.068l-3.177-.033c-3.104-.455-4.5-1.201-6.716-3.398-.518-2.823-.518-2.823-.544-6.336l-.03-1.964c-.03-2.184-.03-4.368-.031-6.552a1864.38 1864.38 0 0 1-.126-17.695c-.015-3.702-.045-7.404-.075-11.107-.097-12.08-.146-24.16-.184-36.24q-.015-4.612-.032-9.223c-.105-28.754-.122-57.507-.107-86.26q.006-11.462-.001-22.925c-.042-76.57.477-153.131 1.13-229.698m32 30-2.07 1.863c-13.221 12.543-19.817 28.733-21.215 46.828-.519 21.635 6.57 40.613 21.285 56.309 12.994 13.173 32.533 20.828 50.938 21.5 18.008-.616 33.975-7.018 47.062-19.5 2.922-3.175 5.512-6.476 8-10l1.648-2.293c10.905-16.522 12.133-36.613 8.317-55.539-4.045-18.323-14.63-36.011-30.387-46.547C216.951 66.018 183.184 68.911 160 90m277.275 11.345C425.72 116.338 419.423 135.118 421 154c2.797 17.684 10.838 32.97 25.156 44.004C460.09 207.784 475.914 213.323 493 212c21.108-4.037 38.95-14.084 51.574-31.755 10.585-15.705 12.821-33.932 10.092-52.52-.81-4.083-2.09-7.881-3.666-11.725l-1.062-2.676c-3.14-7.01-7.97-12.538-12.938-18.324l-1.969-2.578c-9.972-11.89-26.731-18.173-41.8-19.703-22.831-.802-41.878 11.586-55.956 28.626M322 89l-1.941 1.625c-7.35 6.604-10.648 15.686-11.973 25.324-.276 9.809 3.861 20.277 10.375 27.61 7.45 6.976 17.72 11.94 28.066 11.785 11.888-1.653 21.418-8.277 28.938-17.27 6.432-8.69 8.594-18.375 7.535-29.074-2.342-10.293-8.091-19.867-16.922-25.816C351.228 74.726 334.283 78.02 322 89m-37 139c-14.867 18.446-20.742 40.644-19 64 2.667 19.069 12.588 37.248 27 50 18.781 13.8 40.646 20.18 63.73 16.781 20.992-3.566 38.672-15.157 51.465-32.011 12.511-19.2 17.274-41.953 12.84-64.36C416.554 242.014 404.4 222.64 387 211c-33.391-20.303-76.437-12.433-102 17m194.281 28.95c-6.202 7.737-7.916 14.503-7.703 24.437.917 7.854 4.127 14.761 9.422 20.613 9.996 7.825 18.336 10.974 31 10 8.718-1.2 14.925-5.801 21-12 6.328-8.411 9.08-16.488 8-27-2.202-10.457-6.766-17.198-15.437-23.312-16.267-10.034-33.703-7.004-46.282 7.261M158 260c-6.437 7.036-10.228 15.348-10 25 1.456 10.445 5.627 20.13 14.07 26.754 9.06 5.85 18.788 7.745 29.434 5.785 10.986-3.248 17.016-10.834 22.598-20.434 3.35-7.185 3.06-16.558 1.136-24.085A58 58 0 0 0 212 266l-1.75-3.25c-2.99-3.655-6.31-6.179-10.25-8.75l-1.875-1.23c-13.724-7.92-29.494-3.325-40.125 7.23m275 102c-14.074 16.22-20.124 36.746-19 58 1.669 15.738 8.346 29.352 19 41l1.707 1.95c8.203 8.856 21.195 16.062 33.293 17.05l2.25.625C472 481 472 481 475 480v2c13.074.459 25.085-1.538 37-7l2.832-1.273c18.207-9.013 30.24-26.133 37.3-44.707 5.117-16.813 3.433-35.95-4.444-51.633-10.287-17.974-24.98-29.661-44.813-35.762-25.466-6.587-51.158 2.35-69.875 20.375m-269 3-1.863 1.273C150.072 375.444 141.545 391.225 139 406c-2.018 19.433 1.552 36.531 13.839 52.038C162.74 470.048 177.38 479.498 193 482c18.865 1.542 36.104-.201 51.586-11.965 14.564-12.39 24.11-29.612 25.73-48.777.751-17.215-4.553-35.422-15.753-48.758A133 133 0 0 0 251 369l-1.945-2.004C224.939 343.548 189.998 347.18 164 365m148.965 48.14C304.47 423.458 301.94 433.79 303 447c1.192 4.568 2.892 8.784 5 13h2l.805 1.781c3.45 6.405 9.42 10.851 16.195 13.219 12.806 3.687 21.558 3.962 33.375-2.398 3.094-1.888 5.303-3.816 7.625-6.602l1.703-1.738c6.187-6.486 9.814-14.347 10.547-23.324-.718-11.314-5-21.49-12.734-29.754-16.242-14.098-39.633-13.734-54.551 1.957" id="svg-layer-1" style="pointer-events: all;"/><path fill="#3C2E23" d="m128.87 39.874 3.738-.008 4.13.007 4.372-.005q6.026-.005 12.052.001 6.5.002 12.998-.004 12.771-.005 25.542 0a43400 43400 0 0 0 29.95 0q28.483-.004 56.967.006 24.183.005 48.365-.001a125565 125565 0 0 1 62.529-.004h3.03q10.312.001 20.626-.002c38.072-.012 76.145.031 114.216.408q5.096.05 10.193.082 5.895.038 11.792.114 2.145.025 4.291.034c15.694.072 15.694.072 21.484 5.514l1.668 2.234 1.707 2.203c4.088 7.033 3.784 14.23 3.799 22.155l.03 3.855c.028 3.52.043 7.04.056 10.56.016 3.797.043 7.594.068 11.39.048 7.445.084 14.888.117 22.332q.04 9.149.09 18.296c.452 83.404.625 166.81-.028 295.457q-.04 5.282-.073 10.563-.054 8.1-.137 16.2-.027 2.9-.045 5.8c-.194 29.96-.194 29.96-8.897 39.752-5.93 5.189-12.121 5.311-19.808 5.316l-2.173.005c-2.404.005-4.808.002-7.212 0l-5.222.007q-7.176.008-14.353.004c-5.16 0-10.319.006-15.479.01q-15.165.012-30.33.012-12.33 0-24.66.006-34.959.014-69.918.012h-7.621q-30.574.002-61.15.023-31.396.023-62.794.02-17.625-.001-35.251.014-15.01.014-30.02.005-7.656-.007-15.31.005-7.017.011-14.033-.002-2.53-.003-5.06.005c-27.34.085-27.34.085-35.907-7.942-7.154-7.347-8.622-16.099-8.851-26.086l-.098-3.06c-.107-3.722-.183-7.444-.25-11.167l-.04-2.228c-.258-14.465-.395-28.93-.522-43.397l-.032-3.436c-.764-83.884-.709-167.781 0-288.77q.032-4.413.061-8.825.083-12.417.186-24.833.03-3.723.056-7.446.037-5.067.086-10.136l.017-2.937c.14-12.968 1.12-20.105 10.504-29.574 3.263-2.748 6.476-2.543 10.554-2.544M128 60c-.663 77.645-1.172 155.285-1.129 232.934q.006 11.508-.001 23.016c-.015 28.661.014 57.322.12 85.983l.03 9.296c.038 11.979.1 23.957.197 35.936q.044 5.5.06 11 .023 6.328.096 12.656.022 2.302.023 4.603c.001 2.08.028 4.16.06 6.24l.026 3.513C128 488 128 488 129.887 489.85c2.304 1.254 4.29 1.846 6.863 2.337.8.16 1.598.318 2.422.481L141 493l-6 2v2l-3 1 429-1c2.172-4.344 2.251-6.433 2.254-11.218l.01-2.217c.009-2.465.003-4.93-.003-7.395l.011-5.34c.01-4.9.008-9.802.004-14.703-.002-5.282.007-10.563.014-15.845q.018-15.525.012-31.05-.002-12.612.005-25.224l.001-3.621.004-7.283q.014-34.169.003-68.336c-.006-20.863.006-41.726.025-62.588q.03-32.1.024-64.201c-.002-12.024 0-24.047.014-36.07q.019-15.35.002-30.7-.011-7.837.005-15.676.014-7.164-.007-14.33-.004-2.601.008-5.203c.01-2.345.002-4.69-.011-7.034v-3.959L563 62c-3.738-2.492-5.646-2.249-10.116-2.246l-2.22-.007c-2.476-.005-4.95.004-7.425.012q-2.678 0-5.354-.005c-4.918-.004-9.837.004-14.756.014-5.298.008-10.597.006-15.895.004q-13.778-.001-27.556.017c-13.28.016-26.56.021-39.84.024q-32.317.007-64.635.036a133539 133539 0 0 1-86.113.05Q208.545 59.931 128 60" id="svg-layer-2" style="pointer-events: all;"/><path fill="#B38160" d="M389.984 213.055A117 117 0 0 1 397 219l1.879 1.602c15.53 14.105 23.072 37.883 24.371 58.335-.385 22.688-10.237 44.359-26.25 60.063-14.932 14.194-35.56 21.186-56 21-20.58-1.302-40.945-10.003-55.062-25.187C270.474 316.552 264.508 296.685 266 273c2.184-22.058 13.424-41.026 29.848-55.512 27.263-21.612 65.213-24.347 94.136-4.433M246.984 85.242c2.464 2.158 4.754 4.39 7.016 6.758.608.59 1.217 1.178 1.844 1.785 13.788 14.259 19.87 34.681 20.469 54.09-.407 19.278-7.814 35.805-20.762 49.766-13.758 13.026-30.848 18.846-49.649 18.629-19.294-1.333-38.58-10.292-51.328-24.904C141.477 175.404 135.137 155.655 137 135c3.045-20 12.12-37.536 28.523-49.902 25.111-16.827 56.78-18.4 81.461.144M525 352l2.516 1.773c14.786 11.113 24.098 26.97 26.949 45.2 2.25 20.41-3.58 38.323-15.84 54.652-12.512 15.517-29.741 25.805-49.75 28.063-4.633.37-9.23.387-13.875.312v-2l-3.25.625c-3.827.383-4.634.245-7.75-1.625l-2.137-.352c-11-2.49-21.3-9.525-28.863-17.648l-2.102-2.23c-11.985-13.814-17.704-30.796-17.25-49.032 1.768-18.796 8-36.822 22.352-49.738l1.59-1.566c23.824-22.515 60.58-25.43 87.41-6.434M530.125 87.563C542.652 98.11 552.93 113.595 555 130c1.566 20.718-.67 38.18-14.168 54.645-13.167 15.115-30.237 26.112-50.707 27.558-19.605.294-37.596-7.439-51.93-20.797-12.015-13.17-17.67-29.762-17.465-47.5 1.097-15.886 7.816-31.879 18.27-43.906l1.984-2.414c24.053-28.232 59.759-31.598 89.141-10.023M251.813 369.063c9.394 9.915 14.175 21.766 17.187 34.937l.578 2.438c2.96 17.983-2.332 35.89-12.75 50.636C246.35 470.316 233.68 478.681 217 482c-3.97.407-7.886.479-11.875.438l-3.197-.028c-7.892-.175-14.698-1.071-21.928-4.41l-1.837-.846C161.134 469.144 148.686 456.935 142 439l-.965-2.36c-5.123-14.825-3.211-32.483 2.965-46.64 9.044-18.518 23.966-30.245 43.156-37.133A83 83 0 0 1 195 351l2.215-.426c20.186-3.03 39.918 4.918 54.598 18.488M365 409c9.592 8.172 13.988 19.058 15.375 31.313-1.002 9.856-4.78 17.418-11.375 24.687l-2.437 2.75c-7.504 6.588-15.489 10.357-25.563 10.25-13.363-1.8-22.285-5.55-31-16v-2h-2q-.97-2.406-1.937-4.812l-1.09-2.708c-3.572-9.108-2.998-18.969.765-27.949 5.46-10.953 12.71-18.106 24.278-22.254 12.55-3.51 24.397-.304 34.984 6.723M369.188 85.563C376.19 91.176 381.372 100.177 383 109c1.234 11.217-1.714 20.736-8.25 29.871-6.72 8.175-15.26 13.997-25.75 16.129-11.624.802-20.028-3.668-29.187-10.312-7.232-6.91-11.044-16.315-11.875-26.239.312-12.264 5.987-22.18 14.664-30.437 13.8-11.576 31.683-12.28 46.586-2.45" id="svg-layer-3" style="pointer-events: all;"/><path fill="#B2805F" d="M525.664 249.8c8.46 6.427 13.33 12.646 15.336 23.2 1.125 9.605-1.226 17.277-6.687 25.188-5.938 7.35-12.904 12.287-22.313 13.812-7.233.664-13.532.436-20-3l-2.723-1.441c-6.635-3.85-10.77-7.735-14.277-14.559l-1.023-1.86c-3.56-7.642-3.24-17.535-.54-25.39 4.61-9.886 12.814-16.97 22.75-21.062 10.963-1.977 20.17-1.179 29.477 5.113M205.25 257.188c7.138 7.3 11.018 15.846 11.125 26.062-.181 10.9-3.765 18.93-11.375 26.75-7.644 6.318-14.999 8.51-24.875 8.313-9.336-.934-17.836-5.147-23.844-12.383-5.504-7.744-9.233-17.182-7.879-26.782 2.305-10.773 7.552-18.804 16.598-25.148 14.05-7.848 27.3-5.529 40.25 3.188" id="svg-layer-4" style="pointer-events: all;"/><path fill="#B38160" d="M136 491c50.601-.032 101.202.04 151.803.194l28.725.084q25.584.073 51.169.15l49.514.145 3.117.009 15.489.045q63.592.184 127.183.373l-1 3-2.482-.001a588444 588444 0 0 0-163.363-.054h-3.526q-28.209-.008-56.418-.022-28.974-.014-57.95-.017-17.858-.002-35.717-.014-12.27-.007-24.54-.006-7.063.002-14.128-.005c-18.317-.02-36.585-.015-54.876 1.119v1l-17 1 3-1 1-3 5-1-5-1z" id="svg-layer-5" style="pointer-events: all;"/><path fill="#F7EEDA" d="M207.686 493.968q7.144.024 14.289.04 12.317.03 24.635.071 17.808.059 35.616.105 28.907.078 57.814.168 28.046.087 56.092.166l3.504.01 17.41.048q71.978.203 143.954.424v2a665911 665911 0 0 1-175.476.055h-3.726q-29.865.008-59.73.022-30.643.014-61.286.017-18.909.002-37.818.014-12.966.007-25.93.006-7.482-.002-14.963.005-6.853.007-13.706.002-2.475-.001-4.95.004c-8.2.015-16.263-.108-24.415-1.125v-1c22.904-.906 45.766-1.12 68.686-1.032" id="svg-layer-6" style="pointer-events: all;"/></svg>