<svg xmlns="http://www.w3.org/2000/svg" viewBox="0 0 584 536"><path fill="#FCF2DC" d="M0 0h584v536H0zm288.75 20.875-2.008.068q-6.63.229-13.258.487l-3.437.126-3.134.131-2.742.11C262 22 262 22 260 23c-6.33 21.258-4.297 43.796 5.793 63.401 8.666 15.97 21.871 26.193 39.207 31.599 18.206 4.156 33.343.767 49-9 12.192-8.036 20.618-24.788 23.844-38.617C380.458 54.115 377.739 38.844 374 23c-5.325-1.746-10.086-2.357-15.672-2.484l-2.581-.076c-2.832-.076-5.664-.135-8.497-.19l-2.961-.065c-18.532-.385-37.02.046-55.539.69M479 23c-3.61 18.447 1.853 34.911 11.54 50.473 1.393 1.958 2.853 3.74 4.46 5.527l2.02 2.262c12.98 13.753 30.133 19.079 48.703 19.851 1.76.01 3.519-.041 5.277-.113 1.307-11.781 1.152-23.592 1.13-35.428q-.005-5.247.007-10.492 0-3.398-.004-6.795l.006-3.104c-.025-7.76-.51-15.449-1.139-23.181q-13.86-.034-27.72-.052-6.435-.007-12.87-.023-6.205-.016-12.41-.02-2.373-.003-4.745-.01-3.312-.01-6.624-.009l-3.815-.006C480 22 480 22 479 23M29 24c-.8 7.49-1.148 14.876-1.133 22.406l-.003 3.17q0 3.293.006 6.585.006 4.995-.007 9.991 0 3.221.004 6.442l-.006 2.971C27.883 82.092 28.307 88.511 29 95c23.152.396 42.422-1.922 60.313-18.09 12.203-12.799 18.976-30.254 20.238-47.7l.259-3.529L110 23q-13.628-.035-27.254-.052-6.329-.007-12.657-.023-6.118-.016-12.235-.02-2.325-.003-4.648-.01C45.075 22.866 37.085 22.993 29 24m103 73-2.672 1.063c-6.88 3.076-12.02 7.658-17.328 12.937l-1.68 1.574c-10.317 10.624-15.279 26.965-15.695 41.364.515 17.935 7.19 36.483 20.375 49.062 11.819 9.824 26.495 16.937 42.207 16.348 17.776-2.213 30.854-9.693 42.48-23.473 10.836-14.653 15.976-33.375 13.688-51.437C211.455 133.93 207.55 124.442 201 116c-.55-.737-1.1-1.475-1.668-2.234C190.215 102.49 176.33 94.912 162 93c-10.714-.664-19.915-.099-30 4m266.688 32.313c-12.337 14.824-16.04 30.444-14.911 49.297 1.508 16.152 11.292 32.05 22.848 43.015 12.873 10.615 27.871 16.285 44.676 15.758C466.5 235.81 479.637 229.168 490 218c12.703-15.662 18.434-32.862 17-53-1.767-15.027-9.149-28.627-20-39l-1.562-1.656c-10.036-9.827-26.097-15.289-39.813-15.719-18.57.49-34.191 7.128-46.937 20.688m-156.875 74.312C230.139 219.031 226.304 235.933 228 255c2.994 16.967 13.255 31.753 26.938 41.938 13.877 8.953 31.343 13.257 47.687 10 16.51-3.77 29.757-13.1 39.375-26.938 9.245-15.372 13.347-31.614 10-49.375-4.583-17.622-15.155-33.042-30.918-42.348-26.736-14.077-59.48-7.822-79.27 15.348m299.062 27.813-2 1.094c-17.225 9.708-28.256 24.344-33.687 43.343-.99 4.03-1.812 7.985-2.188 12.125l-.195 2.086c-.772 15.491 5.86 31.304 15.382 43.289 9.188 9.63 20.714 15.988 33.813 17.625l1-123c-5.121 0-7.812 1.063-12.125 3.438M28 233c-.958 25.113-1.113 50.223-1.123 75.35q-.003 3.782-.01 7.563-.008 6.053-.001 12.105 0 2.258-.002 4.514c-.01 7.553.089 14.975 1.136 22.468l1.947.668 4.596 1.578C47.336 361.171 63.956 360.821 76 355l2.363-1.062C84.82 350.727 89.888 346.018 95 341l1.941-1.867c12.356-12.881 16.694-30.775 16.532-48.086-.24-7.538-1.45-14.093-4.473-21.047l-1.215-2.992c-6.599-14.729-17.082-25.011-31.914-31.344-2.608-.98-5.2-1.875-7.871-2.664l-1.693-.535c-3.206-.646-6.288-.595-9.557-.598l-2.106-.003q-2.199 0-4.398.006-3.357.005-6.715-.007-2.14 0-4.281.004l-3.922.004c-2.666.103-4.806.327-7.328 1.129m333 87-1.805 1.738c-11.299 11.819-15.72 27.765-15.615 43.64.511 17.476 7.351 32.574 19.596 44.962 11.628 10.952 26.125 17.168 42.137 18.098 17.494-.78 34.417-8.034 46.33-20.865C461.876 395.71 467.53 381.556 469 366l.219-2.29c.745-16.571-6.408-33.139-17.102-45.538-11.61-11.91-26.099-19.018-42.805-19.61C389.826 299.059 374.56 306.3 361 320m-208.375 28.938C140.346 362.03 135.186 378.313 135 396c.81 13.67 5.354 25.71 13 37l1.55 2.336C159.337 449.02 174.93 455.85 191 459c14.743 1.838 29.496-3.405 41.063-12.375 13.206-11.069 22.554-27.706 24.158-45.01.513-10.78.094-20.58-4.221-30.615l-.797-1.905c-6.826-15.989-16.846-27.4-32.766-34.845-23.147-9.088-48.078-2.205-65.812 14.688M489 433l-1.898 1.828c-13.202 13.74-18.501 33.556-18.391 52.133.3 6.26 2.04 12.215 4.289 18.039l1.074 2.836c2.51 2.82 4.52 2.686 8.156 3.009 5.423.304 10.843.297 16.274.288l3.872.003q4.035.001 8.071-.006 5.142-.006 10.284.004c3.3.004 6.599.001 9.898-.001l3.7.006 3.49-.01 3.04-.002c3.762-.152 7.41-.62 11.141-1.127q.034-17.055.052-34.11.007-7.92.023-15.84.016-7.644.02-15.289.003-2.914.01-5.83.01-4.086.009-8.172l.01-2.428c-.007-4.223-.288-8.17-1.124-12.331-24.8-1.694-43.46-1.476-62 17M29 419c-1.325 5.697-1.142 11.819-1.114 17.64v2.458c0 2.646.008 5.291.016 7.937l.005 5.544q.006 7.257.024 14.515.014 7.42.02 14.842.016 14.532.049 29.064 14.121.07 28.243.104 6.558.014 13.115.047 6.332.032 12.663.039 2.413.005 4.825.021c2.258.015 4.514.017 6.772.016l3.89.014c3.55-.245 6.244-.793 9.492-2.241 2.721-4.744 3.669-9.452 4.25-14.875l.24-2.224c1.793-18.97-1.559-37.925-14.002-53.034C92.358 432.912 87.041 427.623 80 424l-2.957-1.687C66.059 417.08 40.509 413.246 29 419m252 58-2.117 2.016c-4.423 4.509-7.414 9.397-10.258 14.984l-1.012 1.977c-2.48 5.124-3.32 9.207-4.613 15.023h122c-1.428-15.713-6.704-27.99-18.156-39.09-5.683-4.705-12.113-7.96-18.844-10.91l-2.285-1.04c-22.13-8.351-48.901 1.066-64.715 17.04" id="svg-layer-0" style="pointer-events: all;"/><path fill="#AF7452" d="M442 309c14.79 11.158 23.42 26.41 26.531 44.582 2.35 17.127-2.785 34.76-12.781 48.73-12.85 16.079-28.334 23.028-48.23 26.067-15.223.913-31.071-6.387-42.532-15.871-13.037-12.512-20.796-28.715-21.393-46.822-.222-17.85 5.593-33.4 18.096-46.409L364 317l2.152-2.184C386.858 295.01 418.364 294.547 442 309M325.543 191.129 328 193l2.426 1.84c5.96 4.898 9.83 10.462 13.574 17.16l1.66 2.914c8.145 15.17 9.568 30.871 4.652 47.36-6.765 19.21-17.939 32.017-36.039 41.093-15.782 6.864-32.686 5.477-48.436-.605-17.16-7.12-27.283-20.478-34.794-36.961-5.856-15.725-4.33-33.538 2.242-48.781 7.43-14.674 19.171-26.223 34.668-32.024 19.977-6.53 39.865-6.224 57.59 6.133M482.855 122.172c2.493 2.187 4.832 4.453 7.145 6.828l1.922 1.824c10.614 10.826 15.272 27.397 15.453 42.176-.244 18.241-7.642 34.97-20.375 48-11.956 11.297-26.706 16.73-43.094 16.348-17.22-1.533-31.89-9.535-43.594-22.098-13.43-16.244-17.691-34.685-16.312-55.25 1.964-14.914 10.972-28.97 22.607-38.287 22.912-17.084 53.318-16.982 76.248.459M237.563 347.063c13.582 14.368 18.918 32.684 18.64 51.925-.533 17.523-9.861 34.099-22.265 46.137-10.926 9.31-25.38 14.654-39.739 14.223-16.782-1.824-32.86-9.206-43.676-22.36-11.535-15.99-17.53-32.843-14.835-52.675 3.485-18.837 12.567-33.573 28.414-44.56 7.09-4.29 14.781-7.156 22.898-8.753l1.926-.406c17.832-2.955 35.59 4.565 48.637 16.469M188.66 103.781c9.901 7.468 17.03 16.593 21.34 28.219l.93 2.457c5.985 17.643 2.339 35.004-5.274 51.445C198.808 199.466 187.212 210.457 173 216c-15.433 4.733-30.456 3.736-44.875-3.75-15.926-9.575-25.798-23.195-31.227-40.828-4.244-17.69-1.983-34.73 7.114-50.45 3.208-4.796 6.885-8.928 10.988-12.972l1.707-1.738c19.903-18.74 50.48-16.86 71.953-2.48M347.25 20.25l2.927.057c2.718.057 5.434.13 8.151.209l2.372.054c4.745.17 8.784.95 13.3 2.43 5.932 25.136 7.644 47.64-6.11 70.617-8.24 13.024-20.278 21.117-35.015 25.262-17.483 3.472-33.873-.967-48.5-10.61-14.755-10.892-23.15-27.441-26.988-45.09C255.785 50.013 256.199 35.763 260 23c2.445-1.222 4.179-1.203 6.913-1.313l3.134-.13c.567-.022.567-.022 3.437-.127l3.586-.14q5.84-.217 11.68-.415l1.999-.07c18.842-.652 37.647-.971 56.501-.555M45.26 231.705q2.153-.018 4.307-.062c16.842-.348 32.127 3.939 44.788 15.584 14.008 15.105 19.607 31.951 19.06 52.175-1.06 19.483-10.677 34.806-24.74 47.735-10.298 8.524-22.08 12.25-35.3 12.176l-2.936-.007C32.05 359.05 32.05 359.05 28 355c-1.269-8.2-1.145-16.42-1.133-24.695q0-2.313-.004-4.626-.002-6.14.008-12.28.006-3.787.007-7.575C26.89 281.54 27.074 257.27 28 233c5.553-1.72 11.5-1.263 17.26-1.295M71.482 419.741C89.619 427.012 100.512 440.594 108 458c4.784 11.24 4.574 24.161 3.25 36.125l-.223 2.078c-.628 4.794-1.636 8.628-4.027 12.797-4.507 2.009-8.49 2.244-13.382 2.227h-2.16c-2.338 0-4.675-.016-7.013-.032l-4.884-.008a3759 3759 0 0 1-12.813-.05c-4.364-.02-8.728-.03-13.092-.04-8.552-.02-17.104-.055-25.656-.097q-.035-16-.052-32-.007-7.43-.023-14.86-.016-7.178-.02-14.355-.003-2.73-.01-5.462-.01-3.84-.009-7.682l-.01-2.254c.02-10.642.02-10.642 1.124-15.387 9.412-4.706 32.755-2.386 42.482.741M539.25 415.375l3.45.172q4.15.21 8.3.453c1 4.978 1.136 9.71 1.114 14.76v2.603c0 2.824-.008 5.649-.016 8.473l-.005 5.893q-.006 7.739-.024 15.476-.014 7.904-.02 15.807-.016 15.495-.049 30.988c-4.766.649-9.364 1.126-14.181 1.13l-3.49.009-3.7-.006-3.87.003q-4.038.001-8.076-.006a3017 3017 0 0 0-10.28.004c-3.3.004-6.6.001-9.9-.001l-3.693.006c-12.833-.035-12.833-.035-18.81-1.139-2.114-2.455-3.019-4.933-4-8l-.898-2.45c-5.317-16.316-1.737-34.016 5.71-49.05 3.125-6.011 6.62-11.468 11.188-16.5l1.863-2.105c13.429-14.344 30.425-17.64 49.387-16.52M363 469l2.07 1.445c9.06 7.07 15.551 18.715 18.93 29.555l1 11H263c3.653-14.612 8.336-24.48 19-35l2.152-2.184C305.36 453.53 339.54 452.218 363 469M55.508 22.902l4.732.005q6.18.006 12.36.024 6.324.014 12.65.02 12.375.016 24.75.049a2309 2309 0 0 1-.895 8.574c-.08.802-.162 1.603-.246 2.429-1.926 17.953-10.12 34.448-23.68 46.505C78.59 85.72 71.917 89.239 64 92l-2.852 1.066C53.844 95.232 46.551 95.13 39 95.062l-2.926-.013A2033 2033 0 0 1 29 95c-.8-7.49-1.148-14.876-1.133-22.406l-.003-3.17q0-3.292.006-6.585.006-4.995-.007-9.991 0-3.221.004-6.442l-.006-2.971C27.883 36.908 28.307 30.489 29 24c8.85-1.101 17.61-1.129 26.508-1.098M482.816 21.88l3.815.006h2.099c2.3 0 4.6.009 6.899.016l4.771.005q6.291.006 12.582.024 6.414.014 12.829.02 12.594.016 25.189.049c.714 8.776 1.15 17.48 1.133 26.285l.003 3.344q0 3.465-.006 6.93-.005 5.249.007 10.498c.005 21.646.005 21.646-1.137 31.943-21.133-.681-38.666-4.224-54-20l-1.887-1.824C486.773 70.536 481.323 58.673 479 47l-.687-3c-.73-7.01-.668-14.075.687-21 1-1 1-1 3.816-1.12M553 228l-1 123c-13.365-1.67-25.267-8.29-34.18-18.496C508.2 319.998 501.318 304.038 503 288c2.61-18.286 10.008-36.68 24.98-48.316C544.094 228 544.094 228 553 228" id="svg-layer-1" style="pointer-events: all;"/></svg>