<svg xmlns="http://www.w3.org/2000/svg" viewBox="0 0 536 544"><path fill="#DADDD3" d="M337.463 52.877q14.01-.001 28.017-.009 21.607-.01 43.213-.002 7.642.001 15.285-.002 8.878-.004 17.756.005 3.221 0 6.443-.002c10.657-.01 21.211.035 31.823 1.133 1.519 3.598 2.22 6.05 1.977 9.965l-.157 2.885-.195 3.088a2166 2166 0 0 0-.328 6.578l-.162 3.33c-.495 11.591-.213 23.196.158 34.787.73 22.97.863 45.924.837 68.903q-.006 7.762.004 15.526.005 6.108 0 12.218 0 2.862.002 5.725c.01 9.402-.088 18.779-.582 28.17l-.117 2.309c-.312 5.265-.312 5.265-1.437 7.516h-5l-1-3-2-.187c-4.187-1.134-7.426-3.41-11-5.813l2-1v-2l-1.941-.55c-5.942-1.727-11.517-3.679-17.059-6.45v-2l-2.125-.375c-3.052-.663-5.928-1.597-8.875-2.625l2-2c-3.302-2.394-6.184-4.157-10.062-5.437-3.968-1.376-6.003-3.553-8.938-6.563-2.292-1.218-4.559-2.09-7-3l2-1v-2l-2.375-.562c-7.39-2.931-15.035-8.464-20.375-14.375-2.205-2.022-4.106-3.086-6.75-4.438-5.341-2.846-7.57-5.832-9.5-11.625-1.89-1.14-1.89-1.14-4.25-2.25-5.237-2.756-8.415-6.241-10.527-11.793-1.753-2.805-3.833-3.445-6.848-4.707l-3.04-1.297L345 159l1-2-1.875-2.75C342 151 342 151 341.063 148.75 340 147 340 147 337.688 146.125c-5.872-2.458-9.026-9.054-12.258-14.27C324 130 324 130 321 129c-1.5-2.25-1.5-2.25-3-5-2.355-4.037-4.94-7.877-7.598-11.719C309 110 309 110 307.934 107.273 307 105 307 105 305.125 104.125c-5.906-3.127-7.843-12.392-9.977-18.234C294 83 294 83 292 80h-3l-.734-1.645-1.016-2.168-.984-2.144c-2.172-3.506-4.263-4.799-8.262-5.773-12.406-1.648-23.711-1.75-36.004.73l-.297 1.871C240.197 79.4 236.845 86.31 233 94a564 564 0 0 0-2.191 5.098 478 478 0 0 1-3.711 8.445 582 582 0 0 0-2.29 5.195c-2.924 6.63-6.3 12.553-10.351 18.543l-1.582 2.344-1.547 2.277C210 138 210 138 208.625 141.188c-2.016 3.489-4.44 5.085-7.695 7.375-3.28 2.442-5.366 5.308-7.18 8.937-1.796 2.566-2.782 3.212-5.437 4.688-3.658 2.102-5.744 4.428-8.25 7.812-3.286 4.38-6.236 6.501-11.11 8.863-2.91 1.694-4.132 4.348-5.953 7.137-4.932 3.905-10.507 6.961-16 10l1 2-2.195 1.137c-8.862 4.69-8.862 4.69-12.055 7.613-3.296 2.697-5.64 3.346-9.75 4.25v2l2 1-10 6-2.633 1.594C105.95 226 105.95 226 103 226l1 4-13 6v2l-1.863.586-2.45.789-2.425.773C82 241 82 241 79 243l2 2-2.52.988-3.293 1.325-3.269 1.3c-2.697 1.282-3.894 2.318-5.918 4.387-2.191.879-2.191.879-4.562 1.563-4.23 1.229-4.23 1.229-6.438 3.437-2.452 7.463-2.219 15.242-2 23l2.367.832c2.971 1.318 4.046 2.937 5.996 5.453 4.605 4.825 11.076 8.054 17.075 10.84 3.535 1.671 5.116 3.817 7.562 6.875 2.052 1.178 4.125 2.16 6.293 3.105C94 309 94 309 95 311c1.848.852 1.848.852 4.063 1.625l2.222.79c.566.192 1.132.386 1.715.585v2c5.472 4.553 11.564 8.02 18 11v2l2.25.25c3.293.898 4.61 2.134 6.75 4.75v2l1.75.313c2.612.798 4.11 2.002 6.25 3.687l2.5 1.5c2.5 1.5 2.5 1.5 4.563 3.063 1.905 1.413 3.79 2.44 5.937 3.437h-2c3.034 3.268 6.275 5.567 10 8l2.563 2.063C164 360 164 360 166.688 361.5c2.558 1.66 3.058 2.812 4.312 5.5l3 1c2.188 1.938 2.188 1.938 4 4v2l1.781.723c2.675 1.54 3.917 3.22 5.719 5.714 2.274 3.138 4.409 5.258 7.5 7.563l1 2.563c1.225 2.986 2.207 3.085 5 4.437l.438 1.875c.832 3.144 3.046 4.136 5.562 6.125 2.249 3.067 4.149 6.25 6 9.563 2 3.437 2 3.437 4.188 6.062 1.938 2.54 2.453 4.236 2.812 7.375l3 1c1.281 2.074 1.281 2.074 2.5 4.688l1.305 2.734L226 437c2.69 5.69 2.69 5.69 4.438 7.438 3.968 3.968 6.013 9.268 7.562 14.562h2l.75 2.375c1.49 3.13 2.244 3.165 5.25 4.625 2.813 2.75 2.813 2.75 5 6-.363 3.203-.363 3.203-1 6-16.812.85-33.574 1.137-50.406 1.098l-7.296-.005q-9.469-.006-18.938-.024-9.715-.014-19.43-.02-18.966-.016-37.93-.049c.962-8.836.962-8.836 3.875-12.437l1.555-1.997C123 463 123 463 126 462c1.387-2.18 1.387-2.18 2.688-4.875l1.324-2.68C131 452 131 452 131 449l1.813-.562c3.185-2.094 3.745-4.99 5.187-8.438l3-1c2.874-4.49 4.91-9.094 7-14l1.5-2.312c1.877-3.364 2.719-6.759 3.656-10.481C154 410 154 410 157 408c5.494-7.184 4.288-18.09 4.605-26.75l.114-2.742.092-2.48C162 374 162 374 163 372q-3.47.21-6.937.438c-1.288.08-2.576.162-3.903.246C149 373 149 373 148 374c-3.52.501-7.049.902-10.582 1.305-3.409.693-5.03 1.21-7.418 3.695l-.348 2.027L129 383c-2.871 1.379-2.871 1.379-6.437 2.563-6.357 2.128-6.357 2.128-8.563 5.437a118 118 0 0 1-7 3v4l-2.992 1.645-3.883 2.168-1.973 1.08C94.934 404.7 93.08 405.88 91 409h-2v2.188c-1.369 3.85-3.58 4.848-6.992 6.894C80 419 80 419 77 419l-.312 2.188c-.765 3.126-1.95 5.109-3.688 7.812a451 451 0 0 0-2.187 3.813c-.3.525-.3.525-1.813 3.187h-2a550 550 0 0 0-.562 4.813l-.317 2.707C66 446 66 446 67 449l-3 1-.184-3.21-.254-4.165-.119-2.117c-.33-5.281-.33-5.281-1.443-7.508-2.329 4.667-2.437 9.078-2.625 14.188l-.115 2.637c-.348 8.725-.355 17.445-.26 26.175 5.33 2.181 10.093 2.31 15.754 2.344l2.84.044c2.99.046 5.979.08 8.969.112 22.31.237 22.31.237 32.166 1.997 7.406 1.14 14.918 1.355 22.396 1.69l2.846.133c21.26.939 42.508.67 63.779.368l2.54-.035q7.329-.1 14.658-.227 2.253-.038 4.506-.074c7.084-.115 14.093-.339 21.138-1.134 4.78-.433 9.57-.364 14.365-.343l3.509.008c14.665.076 29.32.567 43.978 1.044q8.97.29 17.94.569 3.065.096 6.128.2c8 .25 15.984.339 23.987.298 4.638.008 9.248.221 13.876.506 10.194.61 20.082.61 30.25-.437l2.695-.264c2.562-.254 5.12-.526 7.68-.799l2.358-.22c5.417-.555 5.417-.555 7.642-2.78 1.933-.234 1.933-.234 4.323-.211l2.712.01 2.942.04 3.027.017c3.207.017 6.414.049 9.621.082q4.777.042 9.556.07 2.976.019 5.95.054c5.395.039 10.532-.263 15.869-1.062.771 4.372 1.005 7.689 0 12q-37.93.07-75.86.104-17.611.014-35.223.047-15.352.03-30.703.037-8.127.003-16.255.023-7.653.02-15.306.015-2.805 0-5.611.012c-2.56.01-5.118.008-7.677.003l-2.229.017c-5-.028-9.321-.894-14.136-2.258l1-4-17 1-1 4c-2.077 2.077-6.574 1.186-9.437 1.205l-2.713.03q-4.532.047-9.065.081l-6.464.064q-8.794.083-17.59.152-5.483.045-10.964.095c-53.255.469-106.51.482-159.767.373l.038-3.82a69977 69977 0 0 0 .498-52.555c.258-27.876.511-55.751.495-83.629l-.001-2.852q-.008-13.05-.058-26.098a7168 7168 0 0 1-.04-13.655c-.015-10.826.266-21.594 1.068-32.391l2-1v-16l-1 6h-1c-.727-13.504-1.116-26.998-1.281-40.52l-.03-2.352q-.1-8.47-.189-16.94-.102-9.636-.219-19.27l-.028-2.38c-.118-9.452-.345-18.884-.776-28.327-.719-16.136-.628-32.282-.607-48.43q.006-6.744-.004-13.488-.005-5.265 0-10.53 0-2.487-.002-4.976-.003-3.462.007-6.926l.002-3.955C42.014 62.563 42.455 58.31 43 54c86.628-.689 173.256-1.075 294.463-1.123M62 71c-2.23 3.345-2.247 4.43-2.23 8.332l.005 3.17.038 3.31.001 3.276C59.843 94.19 60.068 98.97 61 104h1l1 5 3 1c1.535 2.363 1.535 2.363 3.063 5.313l1.535 2.925c.82 1.616 1.615 3.245 2.347 4.903 1.302 2.295 2.839 3.617 4.868 5.296 3.981 3.377 7.804 6.721 10.953 10.915 2.495 2.958 5.133 5.088 8.234 7.398l3.125 2.36c2.456 1.614 4.015 2.478 6.875 2.89v2h2v2a764 764 0 0 0 7.5 3.938l2.11 1.13c4.878 2.507 8.914 3.543 14.39 3.932v3c3.162 2.108 4.507 2.338 8.188 2.625l2.73.227L146 171l-1-3-5-2h22l-.437-9.937-.131-3.074c-.714-15.553-.714-15.553-2.432-18.989l-2.367-.14L154 133a51.4 51.4 0 0 1-3.125-7.75c-1.585-4.765-3.115-9.007-5.875-13.25a398 398 0 0 1-3-6h-2v4h-2l.145-2.215c-.162-3.122-.883-4.676-2.458-7.347l-1.3-2.254C133 96 133 96 131.383 93.859 130 92 130 92 129.187 89.813 128 88 128 88 124.876 87.25L122 87l-.187-1.687C120.666 82.05 118.46 80.403 116 78l-2-3.25c-2-2.75-2-2.75-4.333-3.412a62 62 0 0 0-7.334-.5l-2.71-.028-2.885-.013-2.99-.017q-3.12-.015-6.241-.02c-3.194-.01-6.386-.041-9.58-.073q-3.03-.009-6.064-.015l-2.904-.038-2.68.01-2.364-.011zm359 0-.988 1.863-1.325 2.45-1.3 2.425c-1.802 2.94-3.384 4.79-6.512 6.262C409 85 409 85 408 88h-2l-.734 1.61C403.28 93.792 401.46 96.852 398 100c-3.677 4.054-6.284 8.082-8.79 12.95-1.208 2.047-2.497 3.42-4.21 5.05-1.62 2.43-2.864 4.39-3.5 7.25L381 127l-3 1c-2.164 3.194-2.437 6.374-2.816 10.156-.125 1.187-.25 2.375-.377 3.598l-.37 3.746q-.373 3.672-.753 7.344l-.327 3.287c-.296 2.376-.706 4.57-1.357 6.869 12.599 4.2 33.667-.14 46-5 2.879-1.504 2.879-1.504 5-3v-2h2l1-2 3.5-1.375c3.5-1.625 3.5-1.625 4.438-3.812L434 144h2l1 2 7-4v-2l2.875-1.875C450 136 450 136 450.957 134.004c1.283-2.465 2.4-2.966 4.856-4.191 5.752-3.358 8.136-8.661 10.187-14.813.15-1.876.248-3.756.316-5.637l.128-3.418.118-3.632.127-3.68c.649-19.897.649-19.897.311-26.633-1-1-1-1-2.829-1.12l-2.415.006h-2.73l-2.967.016-3.023.005c-3.2.005-6.399.018-9.599.03q-3.244.008-6.49.014-7.973.017-15.947.049" id="svg-layer-0" style="pointer-events: all;"/><path fill="#729285" d="M488 55h3c1.153 61.984 1.124 123.965 1.072 185.958q-.011 14.452-.017 28.905v2.085l-.005 10.368q-.015 42.342-.05 84.684h-3l-1-16 .108 3.925q.195 7.293.374 14.587.08 3.141.166 6.281c.28 10.167.552 20.187-.437 30.325-.384 5.24-.057 10.454.226 15.695l.159 3.29q.19 3.95.404 7.897c1-1 1-1 1.098-2.848l-.036-2.214L490 424l2-1v62l-5 1-1 3-5 1 .035-2.027a230 230 0 0 0-.531-17.828c-.511-8.118-.658-16.205-.634-24.337q.005-3.263-.007-6.527c-.002-6.524.086-13.02.498-19.534.792-12.663.785-25.313.772-37.997q0-3.59.003-7.18.002-7.479-.006-14.957-.006-9.505.004-19.01.005-7.4 0-14.8 0-3.502.002-7.003c.009-10.817-.02-21.632-.457-32.44l-.066-2.276c-.252-5.083-1.545-8.542-3.613-13.084-.074-3.746-.074-3.746.313-7.437l.363-3.747L478 257c-3.172 2.925-3.61 4.632-4 9 .016 2.807.062 5.608.16 8.414-.173 2.79-.604 4.28-2.16 6.586-1.734 1.027-3.472 2.051-5.254 2.992-2.31 1.334-3.97 3.034-5.746 5.008-5.67 5.67-12.386 9.692-19.875 12.5-3.125 1.5-3.125 1.5-4.29 3.844-3.048 4.41-7.838 5.63-12.675 7.617-4.649 2.014-6.828 3.353-9.16 8.039-2.64 2.052-5.583 4-9 4l-1.5 2-1.5 2h-2v2c-1.812 1.063-1.812 1.063-4 2l-3-1v2l2 1-5.371 2.93C389 339 389 339 388 341h-3l-1 3c-2.66 1.994-5.612 4-9 4l1 3c-1.87 3.623-4.648 5.036-8.152 6.934-2.99 1.725-5.342 3.68-7.848 6.066a278 278 0 0 0-1 4c-2.563 1.25-2.563 1.25-5 2v2a237 237 0 0 1-4.48 3.715c-2.803 2.37-4.491 5.238-6.395 8.348C341 387 341 387 338.625 388.375c-5.658 3.503-8.658 9.557-11.687 15.313-2.242 4.243-4.323 7.186-7.938 10.312-2.482 2.214-3.685 4.176-4.937 7.25-1.749 4.124-3.772 7.904-6.063 11.75l-2-1-.55 1.863c-.252.809-.504 1.617-.762 2.45l-.739 2.425c-.997 2.376-2.113 3.508-3.949 5.262v2h-2l-.297 1.723c-1.066 5.506-2.686 9.55-5.703 14.277l-2-1-1.25 3.5A1200 1200 0 0 1 287 469l-.773 2.172c-1.617 3.944-3.155 6.202-7.069 8.038-5.953 2.451-11.715 2.294-18.068 2.18l-3.66-.017c-3.832-.022-7.662-.072-11.493-.123q-3.912-.03-7.826-.055-9.555-.067-19.111-.195v-1l31-2v-7c-2-1.812-2-1.812-4-3v-2l-2.437-.687L241 464c-.812-2.625-.812-2.625-1-5h-2l-.883-1.941c-2.01-4.243-3.882-8.06-7.117-11.497-3.909-4.23-5.783-9.317-8-14.562-1.767-3.777-1.767-3.777-3.437-5.375C217 424 217 424 215.625 421.188 214 418 214 418 211.5 415s-2.5-3-4-6.062c-2.047-4.01-4.996-6.59-8.312-9.563C198 398 198 398 198 395l-1.812-.625c-3-1.886-3.641-4.22-5.188-7.375a141 141 0 0 0-5-5 297 297 0 0 1-4.668-5.547C180 375 180 375 178 374v-2l-4-2v-2l-1.875-.25L170 367l-.895-1.89c-1.317-2.514-2.472-3.226-4.917-4.61-3.303-1.946-6.213-4.073-9.188-6.5l-3.312-2.125L149 350v-2c-2.771-1.998-5.615-3.775-8.562-5.5-2.438-1.5-2.438-1.5-5.063-3.625C133 337 133 337 130 336c-2.188-1.938-2.188-1.938-4-4v-2l-5-1v-2l-2.125-.812C104.027 320.055 104.027 320.055 101 314l-3.5-1.5C94 311 94 311 93 309c-1.953-1.081-3.962-1.977-5.992-2.902-2.096-1.146-3.485-2.263-5.008-4.098v-2l-2.125-.812c-7.504-3.1-15.55-6.952-20.687-13.438-2.078-2.611-3.223-3.48-6.188-4.75-2.892-5.784-1.145-14.796.25-20.898 1.174-3.291 2.673-4.53 5.75-6.102 3.812-.75 3.812-.75 7-1l1-3c2.777-1.441 5.629-2.552 8.531-3.719C78 245 78 245 79 242c1.742-1.098 1.742-1.098 3.875-2.062 2.587-1.19 4.732-2.343 7.125-3.938a566 566 0 0 1 6.688-3.625l1.837-.984q2.237-1.198 4.475-2.391v-3l2.309-1.102c14.355-6.99 14.355-6.99 18.691-10.898v-3l2.012-.953c4.774-2.314 8.954-4.559 12.988-8.047q1.773-1.262 3.563-2.5c2.024-1.422 3.61-2.684 5.312-4.5 2.703-2.544 5.692-4.03 8.945-5.785 3.951-2.202 6.604-4.247 8.93-8.153 2.265-3.083 3.212-3.719 6.5-5.312 4.98-2.51 7.492-5.967 10.766-10.387 2.448-2.916 5.02-4.465 8.308-6.297 2.44-1.552 3.35-3.533 4.676-6.066a95 95 0 0 1 2.875-3.625l1.43-1.727C202 146 202 146 204.508 144.652c3.157-2.093 3.97-4.025 5.492-7.464 3.12-6.664 3.12-6.664 5.625-9.438 5.07-5.87 7.473-13.297 10.181-20.47 1.364-3.534 2.894-6.298 5.194-9.28.844-2.219.844-2.219 1.5-4.5.72-2.502 1.282-4.23 2.926-6.266 2.276-3.23 3.16-6.717 4.262-10.484l.681-2.258Q241.194 71.75 242 69c12.653-3.103 28.774-6 41.117.035 3.469 2.683 5.035 6.094 6.883 9.965l3 1c1.246 1.934 1.246 1.934 2.438 4.438l1.304 2.722c1.2 2.711 2.274 5.442 3.32 8.215 1.436 3.698 2.793 6.088 5.938 8.625 2.35 2.123 3.678 4.067 5 6.938 1.426 2.97 2.947 5.473 5 8.062l1.563 2.625C319 124 319 124 321 126v3l1.813.234c2.927 1.025 3.59 2.394 5.187 5.016l1.559 2.46c.475.756.95 1.512 1.441 2.29 2.024 2.82 3.343 4.637 6.375 6.313 4.58 2.944 7.586 7.609 10 12.437 1.805 2.5 2.67 2.802 5.438 3.938 3.835 1.705 5.125 3.495 7.062 7.187 2.756 5.178 5.824 7.056 10.914 9.754 4.02 2.493 4.791 6.111 6.211 10.371 1.652.701 3.324 1.358 5 2 5.08 2.78 8.905 5.905 13 10 5.061 3.858 10.183 7.397 16 10v3l2.688 1.25C417 217 417 217 419.32 218.922c3.711 2.878 7.777 4.583 12.035 6.516 2.925 1.727 3.215 2.643 4.645 5.562 2.348 1.195 2.348 1.195 5.063 2.125 4.84 1.68 4.84 1.68 5.937 3.875a159 159 0 0 0 8.063 3.125l2.298.84c1.878.685 3.758 1.36 5.639 2.035l-1 3 2.59 1.242 3.348 1.633 3.34 1.617C474 252 474 252 475 254c2.563.625 2.563.625 5 1 1.102-17.465 1.307-34.939 1.532-52.432q.078-5.865.161-11.728.16-11.42.307-22.84h1q.234 12.26.443 24.52.096 5.699.205 11.396c.354 18.403.392 36.694-.648 55.084h-1l-2 14h2v-8h1l2 28c1.077-23.12 1.117-46.184 1.068-69.324-.01-5.44-.013-10.88-.017-16.319q-.018-20.648-.051-41.294c-.022-14.922-.043-29.842-.053-44.764q-.008-9.67-.029-19.34-.01-6.015-.013-12.028-.003-2.772-.01-5.544c-.06-20.75-.06-20.75 1.105-28.387zm-226 69a4816 4816 0 0 0-3.875 7.688l-1.105 2.185c-1.511 3.008-2.943 5.915-4.09 9.084L252 145l-3 1c-1.168 2.723-1.168 2.723-2.187 6.063l-1.043 3.347L245 158l-2-1-1.426 2.957-1.887 3.856-.935 1.947c-1.599 3.247-3.106 5.78-5.752 8.24l-1 3-1.95.96c-2.493 1.264-2.833 2.119-3.863 4.665-3.217 6.98-8.82 12.007-14.187 17.375a981 981 0 0 0-6.719 7.598c-2.278 2.399-4.697 4.345-7.281 6.402a97 97 0 0 0-3.437 3.938c-3.91 4.564-7.926 8.677-13.563 11.062v2c-5.322 4.995-11.539 8.685-18 12l1 3-2.055.691c-3.72 1.653-6.792 3.855-10.07 6.246l-1.879 1.342c-4.588 3.31-4.588 3.31-6.534 5.269-6.116 6.076-15.748 9.748-23.462 13.452 2.514 3.012 5.006 3.848 8.688 5.063 5.767 2.126 10.846 4.815 16.062 8.062l2.132 1.309c4.99 3.183 4.99 3.183 6.118 6.566 2.18 1.098 2.18 1.098 4.875 2.063 3.084 1.119 5.369 2.1 8.125 3.937l1 3 2.375.188L172 304l.813 2.25c1.583 3.667 3.724 4.545 7.093 6.504 5.377 3.2 8.628 7.048 12.094 12.246 1.938 1.063 1.938 1.063 4 2 2.719 2.447 4.802 4.67 6.688 7.813 2.273 3.133 4.32 4.863 7.375 7.187 3.966 3.044 5.97 5.343 7.937 10a141 141 0 0 0 5 5c2.797 3.057 4.754 5.217 6 9.188 1 2.812 1 2.812 3.309 4.015 3.691 2.465 4.894 5.421 6.754 9.36 3.582 7.54 3.582 7.54 7.937 9.437 1.344 2.172 1.344 2.172 2.5 4.75 1.369 2.93 2.647 5.461 4.5 8.125 3.03 4.733 4.941 9.91 7 15.125l3-1c1.21-2.766 1.21-2.766 2.375-6.25 1.858-5.123 3.474-8.131 7.625-11.75.917-1.605 1.83-3.213 2.703-4.844 2.377-3.952 5.274-7.537 8.078-11.191a98 98 0 0 0 4.375-6.336L291 373h2c2.653-3.42 4.82-6.654 6.813-10.5 2.073-3.8 5.069-6.089 8.37-8.812 2.404-2.233 3.436-4.738 4.817-7.688 3.285-4.048 6.173-6.07 11-8a69 69 0 0 0 1-4c3.257-4.467 6.336-6.982 11-10 2.724-2.27 5.37-4.623 8-7l-1-3 2.563-.687c6.24-2.383 10.498-5.915 14.437-11.313 4.097-4.097 8.067-5.968 13.348-8.367C376 292 376 292 376.715 289.875L377 288c2.5-1.125 2.5-1.125 5-2l1-2a194 194 0 0 1 8.063-3.312c6.034-2.412 11.74-4.707 16.937-8.688v-3l-2.125-1.102C393.643 261.417 393.643 261.417 389 257v-2l-2.133-.926c-8.422-3.903-15.166-8.918-22.295-14.79-2.113-1.726-4.278-3.38-6.447-5.034-3.433-2.663-6.702-5.465-9.941-8.36-3.487-3.018-7.133-5.84-10.766-8.68-2.453-2.242-3.772-4.354-5.418-7.21a187 187 0 0 0-6-4 281 281 0 0 1-5-5l-2-1-.75-2.25c-1.668-3.669-4.097-5.29-7.25-7.75l-2.25-2.312C307 186 307 186 305 186l-.937-2.375C303 181 303 181 302 179h-2l-.75-2.187c-1.394-3.136-3.038-5.183-5.25-7.813a1149 1149 0 0 1-3.375-4.375 153 153 0 0 0-6.875-8.312c-2.524-2.885-4.064-5.865-5.75-9.313a181 181 0 0 0-4-4 177 177 0 0 1-2-4l-2-1a78 78 0 0 1-2-5h-2l-2-9z" id="svg-layer-1" style="pointer-events: all;"/><path fill="none" d="M0 0h536v544H0zm49.362 25.32-2.383.067c-6.203.305-10.9 1.781-15.604 5.926L29 34l-2.5 2.688c-8.918 11.006-8.625 22.575-9 36.125l-.123 4.134c-.245 8.4-.444 16.8-.627 25.201l-.064 2.894q-.154 7.044-.293 14.088l-.112 5.32-.04 2.28c-.091 4.195-.24 8.383-.462 12.573-.77 14.654-1.094 29.3-1.304 43.974l-.093 6.334c-.511 34.734-.535 69.468-.51 104.205.004 6.855 0 13.71-.004 20.566q-.007 10.166-.003 20.33.003 5.966-.001 11.93c-.022 28.639.64 57.179 3.399 85.699 1.996 20.637 1.996 20.637 1.174 26.346-.656 5.056-.154 9.895.375 14.938l.25 2.425c.585 5.125 1.588 9.97 2.938 14.95h2l.332 2.195C26.075 503.821 26.075 503.821 29 508c4.9 3 4.9 3 8 3l.707 1.863c2.588 4.277 7.7 4.939 12.293 6.137 13.166 1.705 26.674 1.142 39.917 1.13q3.752.001 7.505.005 9.121.005 18.243 0a22295 22295 0 0 1 21.557 0q20.586.004 41.17-.006 17.303-.005 34.607.001c59.132.023 118.262.03 177.392-.575l2.966-.03a6763 6763 0 0 0 37.821-.481q4.508-.07 9.014-.134 7.948-.119 15.896-.265 3.038-.054 6.074-.098c2.81-.042 5.62-.096 8.43-.152l2.488-.03c6.663-.154 13.276-.602 18.92-4.365.688-2.625.688-2.625 1-5h2v-2l2.188-.687c5.057-2.36 8.388-6.345 10.812-11.313 4.444-20.73 2.146-44.074 2.13-65.218q-.001-7.04.005-14.08.005-13.746 0-27.49-.003-11.19-.001-22.38v-3.235l.001-6.509q.004-30.427-.006-60.854-.006-26.008.001-52.015a145293 145293 0 0 0 .004-67.114v-3.223q-.002-11.148.002-22.297.005-13.627-.003-27.255-.005-6.93 0-13.859c.01-16.31 0-32.624-.405-48.931-.047-1.96-.081-3.921-.115-5.882-.186-6.253-.496-11.17-3.613-16.658-1.719-1.602-1.719-1.602-3.5-2.625-3.232-2.053-4.599-4.025-6.5-7.375-4.99-3.441-11.47-3.125-17.301-3.126l-2.172-.004c-2.401-.004-4.802 0-7.204.003l-5.217-.005q-7.17-.005-14.34.001-7.735.003-15.468-.004-15.157-.005-30.315 0-12.33.003-24.66.001h-3.545l-7.13-.001q-33.457-.004-66.915.006-28.663.006-57.326-.001a175487 175487 0 0 0-73.723-.004h-3.537q-12.293.002-24.587-.002-15.015-.005-30.03.003-7.65.005-15.3 0c-35.167-.02-35.167-.02-47.868.454" id="svg-layer-2" style="pointer-events: all; fill: none;"/><path fill="#31322A" d="M100.181 24.855q7.76-.002 15.52-.01 15.158-.012 30.313-.012 12.315 0 24.631-.006a170765 170765 0 0 1 73.707-.012h3.801q30.564-.002 61.13-.023 31.421-.023 62.842-.02 17.628.001 35.254-.014 14.985-.015 29.972-.005 7.645.007 15.29-.005 6.996-.011 13.991.002 2.532.003 5.064-.005c2.293-.007 4.586-.002 6.88.006h3.86c4.872.34 9.032 1.177 13.064 3.999C497 31 497 31 496.594 34.14L496 37l-2.91-.001a807131 807131 0 0 0-191.102-.054h-2.059q-33.03-.008-66.058-.021-34.901-.015-69.802-.018-20.91-.002-41.822-.014-14.33-.008-28.66-.006-8.273.002-16.547-.005-7.57-.007-15.143-.002-2.742.001-5.483-.004-3.724-.005-7.447.002l-2.156-.008c-4.379.015-8.503.425-12.811 1.131.5 1.938.5 1.938 2 4 2.697.688 5.202.82 8 1v8h-2c-.06 11.854.017 23.701.217 35.554l.066 3.986.105 6.236c.653 39.041.734 78.075.684 117.121-.012 9.136-.016 18.272-.02 27.408q-.01 24.435-.031 48.871l-.003 2.916-.039 44.293-.002 2.965q-.02 24.487-.03 48.973-.007 14.998-.026 29.997-.012 10.219-.015 20.437 0 5.879-.012 11.756-.01 5.387-.007 10.775-.002 2.848-.011 5.695c.007 6.615.303 13.1 1.007 19.68C44 490 44 490 43 492q17.219.036 34.437.052 8.003.007 16.007.023 7.791.017 15.581.02 2.905.003 5.809.01c10.409.03 20.81-.053 31.215-.33 33.473-.887 66.933-.908 100.415-.879q12.752.011 25.503.01 22.724.004 45.447.019a128864 128864 0 0 0 60.519.025q56.534.016 113.067.05l.184-1.863.253-2.45.247-2.425C492 482 492 482 493 479c1.277-11.688 1.131-23.452 1.098-35.191l-.005-5.964q-.005-6.375-.018-12.752-.019-10.103-.024-20.205-.018-21.444-.051-42.888c-.022-15.439-.043-30.877-.053-46.316q-.008-10.023-.029-20.046-.01-6.255-.013-12.51-.003-2.879-.01-5.757c-.03-10.84.2-21.565 1.105-32.371l-2-1h2l-1-25h-1a585 585 0 0 1-.062-4.375l-.036-2.46C493 210 493 210 494 208a114 114 0 0 0-.43-5.829c-.568-6.655-.712-13.236-.7-19.912l-.005-3.637q-.005-4.88 0-9.757c.003-3.438 0-6.875 0-10.312q-.004-8.662.005-17.323.006-9.936-.002-19.871-.007-8.601-.003-17.202.003-5.106-.001-10.21c-.01-13.369.05-26.685.922-40.028a96 96 0 0 0 .092-8.314L494 42c2.438-1.875 2.438-1.875 5-3l1-2c3.353 1.178 5.755 2.194 8 5 1.056 3.169 1.201 5.594 1.312 8.926l.125 3.735q.06 2.049.117 4.097l.064 2.132c.511 17.424.525 34.846.513 52.275q-.003 7.035.004 14.07.005 13.704 0 27.41-.003 11.152-.001 22.303v3.23l.001 6.497q.004 30.317-.006 60.635-.006 25.932.001 51.866a144656 144656 0 0 1 .004 66.946v3.211q-.002 11.126.002 22.252.005 13.575-.003 27.15-.005 6.906 0 13.813c.02 31.644.02 31.644-.516 46.317l-.092 2.828c-.312 7.044-.924 14.667-5.525 20.307-6.255 5.287-11.224 6.88-19.312 6.769l-3.047.031c-3.368.027-6.734.011-10.102-.004q-3.66.016-7.322.04-7.958.041-15.917.03c-7.88-.01-15.76.013-23.64.043-13.274.05-26.548.07-39.823.077q-19.93.007-39.862.064l-2.523.007-10.147.029a38981 38981 0 0 1-112.482.154h-2.653c-14.51.005-29.018.023-43.527.046q-22.766.035-45.53.037-12.622-.002-25.243.025-10.593.023-21.187.012-5.378-.008-10.754.011c-3.883.015-7.766.007-11.649-.004l-3.401.025C49.377 509.35 44.014 508.517 38 506v-2l-2.437-.937C33 502 33 502 32 501q-.062-3.5 0-7h-3c-1.05-3.148-1.186-5.54-1.281-8.848l-.114-3.525-.105-3.69q-.105-3.58-.219-7.16l-.092-3.21a140 140 0 0 0-.688-8.16c-.523-5.173-.673-10.295-.706-15.492l-.03-2.969q-.046-4.983-.081-9.966l-.065-7.432c-.25-29.988-.382-59.978-.51-89.967a26893 26893 0 0 0-.235-45.781 30677 30677 0 0 1-.435-102.034l-.007-2.313c-.037-12.36-.104-24.72-.183-37.08a7106 7106 0 0 1-.137-37.82A2868 2868 0 0 0 24 85.67c-.05-5.774-.052-11.548-.036-17.322q-.001-3.522-.05-7.043c-.283-21.224-.283-21.224 7.47-30.224 5.557-4.423 11.034-5.567 17.979-5.76l2.689-.1c16.032-.508 32.09-.371 48.129-.367" id="svg-layer-3" style="pointer-events: all;"/><path fill="#DADDD3" d="M476 257h2c.701 3.817 1.026 6.83.438 10.688-.438 3.312-.438 3.312.51 5.12 1.407 2.932 1.374 5.337 1.46 8.587l.057 1.946c.06 2.157.105 4.314.148 6.471l.113 4.661c.43 18.803.461 37.611.46 56.418q0 6.13.02 12.26c.129 39.576.129 39.576-1.49 57.81-1 11.41-.937 22.782-.841 34.226q.016 3.213.027 6.424.034 7.695.098 15.389l-3.812-.375c-.708-.07-1.416-.14-2.145-.21C471 476 471 476 468 474c-3.094-.319-3.094-.319-6.855-.414l-2.005-.059c-2.11-.06-4.218-.106-6.327-.152l-4.295-.117q-5.259-.142-10.518-.258v2l-2.266.402-2.984.536-2.953.527C427 477 427 477 425.329 477.514c-3.441.718-6.885.727-10.388.802l-2.582.064a2361 2361 0 0 1-8.796.183c-1.024.02-2.048.042-3.103.064-40.143.8-80.312.458-120.46.373l1.41-1.305c1.878-2.002 2.745-4.118 3.762-6.644.95-2.355 1.979-4.67 3.015-6.988l1.043-2.34L290 460l2 1c2.679-5.163 4.715-10.427 6.719-15.879 1.202-2.928 2.617-5.438 4.281-8.121a86 86 0 0 0 1.688-3.812L306 430l2 2 1.207-2.45 1.606-3.238 1.582-3.199c2.005-3.89 3.77-7.3 6.918-10.363 4.245-4.345 7.544-9.314 10.125-14.812 2.442-4.593 5.91-9.634 10.675-11.977 2.945-1.5 3.612-4.03 4.887-6.961h2l.813-1.812c1.186-2.186 2.283-3.601 4.187-5.188h2v-2l2.438-1.375L359 367l.36-1.844c.94-3.163 2.87-4.293 5.452-6.281l2.645-2.07C370 355 370 355 372.262 354.07L374 353l.469-2.457C375 348 375 348 377.03 346.488l2.469-1.175c4.416-2.146 4.416-2.146 5.5-4.313h3l1-3 2.563-1.5L394 335v-3l7-1v-2c3.278-3.84 5.185-5.037 10-6 2.412-2.177 4.535-4.458 6.648-6.922 3.703-3.272 8.114-4.988 12.596-6.99 4.46-2.1 6.387-3.629 8.756-8.088 1.91-1.152 1.91-1.152 4.063-1.937 6.49-2.614 13.144-5.855 17.937-11.063 3.443-3.723 6.495-5.747 11-8 1.07-3.212 1.036-5.386.938-8.75-.048-4.882.34-8.692 2.062-13.25zM375 372l.473 1.918c.842 4.922.883 9.884 1.045 14.87.225 5.336 1.02 10.07 2.482 15.212h3l.25 2c.989 3.954 2.603 7.532 4.75 11l2 1c.746 1.926.746 1.926 1.438 4.313 1.078 3.454 2.204 5.9 4.562 8.687l1 3 3 2a237 237 0 0 1 3 6 163 163 0 0 0 4.063 5.813l2.097 2.894C410 453 410 453 412 454l1.375 3c1.625 3 1.625 3 3.813 3.875L419 461v3c15.7 3.011 31.161 2.027 47 1 2.353-5.576 2.308-10.744 2.25-16.687l-.018-2.984c-.32-23.417-.32-23.417-7.232-30.329h-4l-.422-1.746c-2.393-9.329-2.393-9.329-6.14-12.254-2.438-1-2.438-1-4.438-1l-1-2h-3l2-1c-2.662-6.533-7.97-9.932-14-13-1.981-.72-3.977-1.408-6-2l1-3q-2.495-1.425-4.992-2.848a281 281 0 0 1-3.89-2.273c-7.69-4.544-14.328-4.062-23.118-4.067l-3.89-.037-3.735-.005-3.414-.013c-2.88.236-4.527.745-6.961 2.243" id="svg-layer-4" style="pointer-events: all;"/><path fill="#749588" d="M262 172c5.62 4.283 9.46 9.235 13.395 15.066 1.831 2.206 3.643 3.356 6.105 4.809 4.064 2.598 5.518 4.689 7.5 9.125 2.726 2.548 5.274 4.61 8.563 6.375 2.887 1.925 4.215 4.023 6.132 6.863 2.545 3.437 5.973 5.822 9.43 8.262l2.188 1.563 2.05 1.41c1.943 1.813 2.073 2.99 2.637 5.527 1.975 1.445 3.925 2.718 6 4 7.67 5.053 7.67 5.053 9 8.875V246l1.746.32c2.59.781 4.183 1.902 6.317 3.555l2.035 1.555C347 253 347 253 348.578 254.59c1.91 1.894 4.093 3.088 6.422 4.41l-1 8 3 1v5l-1.937.875C353 275 353 275 352 277l-2.875 1.813C346 281 346 281 344.625 283.375c-2.019 3.261-4.414 4.878-7.508 7.082-2.014 1.468-3.874 3.02-5.742 4.668-2.178 1.917-4.343 3.541-6.812 5.063L322 302v3c-3.333 3-3.333 3-6 3l-.75 1.875C314 312 314 312 312 312.938c-2 1.062-2 1.062-2.75 3.25-1.65 3.713-4.13 5.475-7.219 8.039-1.832 1.6-3.328 3.191-4.844 5.086C295 332 295 332 292 334v3a70 70 0 0 1-4 3c-4.452 3.958-7.652 8.587-11.035 13.477-1.844 2.368-3.424 3.949-5.965 5.523h-2l-.867 1.734L263 371l-3-1-.812-2.187c-1.411-3.342-3.266-5.012-5.946-7.383C252 359 252 359 252 356l-1.781-.762c-2.496-1.392-3.884-2.87-5.719-5.05l-1.816-2.157L241 346l-2.437-2.812C237 341 237 341 237 338l-1.848-.262c-2.78-.953-3.22-1.997-4.59-4.55-2.104-3.619-4.202-5.648-7.562-8.188-2.609-2.802-5.008-5.78-7.422-8.75-3.401-4.162-3.401-4.162-5.578-5.25v-2h-2v-2h-2v-2h-2c-5-5.476-5-5.476-5-8l-2.375-.75c-3.064-1.46-3.242-2.3-4.625-5.25-2.125-1.25-2.125-1.25-4-2v-3l-2.437-.75C183 284 183 284 182.188 281.875L182 280l-2.25-.125c-3.846-1.224-4.793-3.468-6.75-6.875l2.313-2.687c2.202-2.64 3.948-5.342 5.687-8.313 4.758-7.652 4.758-7.652 10-9v-2c1.15-1.183 2.307-2.36 3.504-3.496 2.182-2.193 4.06-4.619 5.969-7.05C202 239 202 239 204.059 238.546 206 238 206 238 207.012 236.289L208 234c1.233-1.9 2.508-3.774 3.813-5.625l2.019-2.914c2.341-2.658 3.907-3.28 7.168-4.461 1.512-1.55 1.512-1.55 2.688-3.312l1.273-1.887C226 214 226 214 226.812 211.375c1.39-2.78 2.193-3.035 4.875-4.437 5.077-2.86 7.02-7.11 9.575-12.196 1.933-3.05 3.64-4.006 6.738-5.742l1-3a128 128 0 0 1 3.39-3.395c3.378-3.369 6.464-7.021 9.61-10.605" id="svg-layer-5" style="pointer-events: all;"/><path fill="#D9DDD3" d="M262 124h2l2 9h2l.813 2.313c1.172 2.654 2.144 3.726 4.187 5.687l3 5 1.438 1.375c1.947 2.025 3.119 4.325 4.402 6.809 1.447 2.266 3.243 3.935 5.16 5.816 2.417 2.936 4.697 5.974 7 9l1.785 2.293 1.652 2.144 1.497 1.934C300 177 300 177 300 179h2c3 4.385 3 4.385 3 7l2.188.625c3.623 1.771 5.33 4.24 7.812 7.375l3 2 .375 1.938c.919 3.031 2.94 3.501 5.625 5.062l4 5 2.5 1.438c2.5 1.562 2.5 1.562 4.215 4.304 2.683 3.825 5.631 6.186 9.348 8.946q1.863 1.409 3.722 2.824l1.653 1.233c1.642 1.32 3.085 2.755 4.562 4.255a191 191 0 0 0 4.063 3.188c2.463 1.888 4.903 3.784 7.292 5.765 6.526 5.408 13.386 9.71 20.645 14.047 3 2 3 2 4.625 3.75 5.352 5.07 11.952 8.697 18.375 12.25-4.083 4.727-8.342 6.819-14.062 9.188l-4.786 2.042-2.125.888c-2.049.891-4.032 1.877-6.027 2.882l-2.125.875c-2.323 1.394-2.87 2.65-3.875 5.125-1.583 3.165-4.397 3.711-7.562 5.125l-3.63 1.633L362 299v2a207 207 0 0 1-5 4l-2.375 2.5c-3.112 2.964-7.125 6.5-11.625 6.5l1 3c-9.728 8.997-9.728 8.997-13.375 11.188-4.03 2.783-6.092 6.212-7.625 10.812l-2.187.813c-4.802 2.027-7.988 5.425-10.188 10.125-1.636 3.082-2.847 4.226-5.5 6.375-3.82 3.148-5.823 6.3-8.043 10.68-1.338 2.482-2.963 4.161-5.082 6.007-3.266 3.062-5.522 6.276-8 10a868 868 0 0 1-6.879 9.098C275 395 275 395 273.473 397.558 272 400 272 400 269.984 402.419c-2.192 2.852-3.413 5.556-4.734 8.894l-1.297 3.239L263 417h-2l-1.137-2.816c-4.628-11.255-4.628-11.255-7.55-15.122-1.887-2.498-2.77-4-3.813-6.812-1.5-3.25-1.5-3.25-3.875-4.516-3.947-2.607-5.145-6.445-6.941-10.64-1.93-4.235-3.621-5.935-7.684-8.094-.72-1.638-1.433-3.282-2.055-4.96-2.194-4.735-5.891-9.015-9.593-12.665C217 350 217 350 215.875 347.75c-1.906-2.795-3.554-4.135-6.25-6.125-4.246-3.159-6.722-6.23-9.625-10.625-2.091-2.353-3.74-3.857-6.5-5.375C191 324 191 324 189.25 321.25c-3.632-5.247-8.717-8.825-14.25-11.937-2-1.313-2-1.313-2.812-3.5L172 304l-5-1-1-3c-3.51-2.553-7.232-3.863-11.328-5.156C153 294 153 294 152 291c-2.66-1.902-2.66-1.902-6.062-3.937l-1.797-1.076c-7.475-4.433-15.037-7.865-23.141-10.987v-3l2.746-1.355c10.963-5.43 10.963-5.43 16.317-8.27l1.972-1.04C144 260 144 260 146.328 257.653c2.922-2.9 5.969-5.157 9.36-7.464.58-.407 1.16-.814 1.76-1.233C161.742 246 161.742 246 164 246l-1-3 2.379-1.32c6.093-3.454 11.495-6.903 16.621-11.68l-1-2 2.152-.7c3.419-1.56 5.658-3.56 8.41-6.113l2.817-2.582c2.43-2.415 4.487-4.932 6.621-7.605a96 96 0 0 1 3.875-3.312c3.48-2.959 6.001-6.071 8.625-9.786 1.538-1.95 3.123-3.36 5.063-4.902 4.383-3.55 7.147-8.037 9.386-13.18C229 178 229 178 232 177q1.01-2.495 2-5l1.895-1.809c2.394-2.492 3.498-4.775 4.855-7.941l1.297-2.984L243 157l2 1 .77-2.59 1.042-3.347 1.02-3.34L249 146l3-1c.93-2.043.93-2.043 2-5 1.323-2.796 2.729-5.552 4.125-8.312l1.129-2.245q1.37-2.723 2.746-5.443m0 48-2.082 2.3-2.73 3.012-1.37 1.514c-1.823 2.01-3.643 4.003-5.584 5.9C249 186 249 186 248.062 188.064 247 190 247 190 245.169 190.727c-3.162 1.857-4.17 4.397-5.918 7.585-2.863 5.01-5.478 8.065-10.633 10.723-2.453 1.463-2.836 3.297-3.617 5.965-3.148 5.621-3.148 5.621-6.812 7.25-5.228 2.87-8.84 8.432-11.079 13.941C206 238 206 238 203.637 238.934c-3.4 1.374-4.652 3.208-6.824 6.129-3.64 4.85-3.64 4.85-5.813 5.937v2l-2.273.73c-3.117 1.451-4.33 2.836-6.352 5.583l-1.805 2.437A95 95 0 0 0 176 269a163 163 0 0 1-3 4c3.323 5.785 3.323 5.785 6.75 6.875L182 280l.188 1.875L183 284l2.5 1 2.5 1c.625 2.063.625 2.063 1 4l3 1 .875 1.938C194 295 194 295 196.563 296l2.437 1c.563 1.875.563 1.875 1 4 1.938 2.25 1.938 2.25 4 4h2v2h2v2h2v2a375 375 0 0 0 4.484 3.645c2.047 1.83 3.153 3.985 4.516 6.355 2.369 2.556 4.678 4.766 7.5 6.813 2.913 2.549 4.454 5.203 6.29 8.578L234 338h3l.227 2.215c.974 3.51 2.498 4.882 5.148 7.348 2.306 2.167 4.42 4.157 6.29 6.714L250 356h2l.316 1.816c.787 2.513 1.67 3.398 3.621 5.122 2.627 2.475 4.026 4.536 5.063 8.062 3-1 3-1 4.133-2.742l.992-2.133 1.008-2.117C268 362 268 362 269 359l4-2c4.654-4.315 8.152-9.204 11.816-14.355 2.094-2.536 3.282-3.35 6.184-4.645 2-3 2-3 2-5a168 168 0 0 1 4.355-3.652A74.5 74.5 0 0 0 310 316v-2l1.875-.75C314 312 314 312 315 310c1.26-2.521 2.47-2.893 5-4 2-2 2-2 3-5a393 393 0 0 1 5-3l2.438-2.437c2.661-2.662 5.438-4.48 8.562-6.563a142 142 0 0 0 5-5c5.197-5.45 5.197-5.45 9-7v-2l4-2v-5l-3-1 1-8-3.187-1.687c-3.502-1.994-6.03-4.384-8.813-7.313-4.54-4-4.54-4-8-4v-2.125c-1.893-5.442-7.638-8.042-12.375-10.937C320 231 320 231 319.137 228.598c-1.424-3.255-2.977-4.208-5.95-6.098-4.746-3.16-8.81-6.09-11.687-11.125-1.818-2.88-3.545-3.726-6.5-5.375-5.626-4.163-5.626-4.163-7.312-7.937-2.137-3.878-4.67-5.276-8.434-7.473-2.679-1.89-4.298-3.966-6.254-6.59q-2.028-2.596-4.062-5.187l-2.036-2.606C265 174 265 174 262 172" id="svg-layer-6" style="pointer-events: all;"/><path fill="#BDBDB1" d="M29 34c0 3 0 3-1.477 4.594-2.392 3.779-1.93 7.525-1.89 11.908l-.01 2.96c-.008 3.293.007 6.584.02 9.877q0 3.55-.006 7.1-.004 8.718.02 17.435c.018 6.888.019 13.776.02 20.664 0 13.318.018 26.636.043 39.954a34707 34707 0 0 1 .054 39.222l.002 2.307.003 2.307.002 2.308c.036 37.774.116 75.549.214 113.323l.025 9.913c.076 29.432.173 58.863.315 88.294q.04 8.457.075 16.915.051 13.202.132 26.404.039 5.88.061 11.76c.016 4.176.046 8.351.078 12.527l.007 3.617c.07 7.067.762 13.712 2.312 20.611l.315 2.183C30 502 30 502 31.693 502.983c11.367 5.013 21.702 5.584 33.878 5.498q2.789.003 5.578.01c5.078.01 10.156-.007 15.235-.027 5.488-.017 10.976-.011 16.464-.008q14.247.002 28.494-.033c13.733-.033 27.465-.043 41.198-.048q33.423-.015 66.847-.073 32.46-.056 64.92-.082l2.024-.002 22.11-.017c55.52-.041 111.04-.112 166.559-.201l-2 1-.812 2.938C491 515 491 515 488.75 516.313c-6.166 1.541-12.067 1.863-18.387 1.968l-2.84.049a17681 17681 0 0 1-45.776.703c-71.262 1.05-142.52 1.156-213.789 1.152q-18.818.002-37.637.023-19.63.023-39.259.02-10.902-.001-21.805.014-10.145.014-20.29.003-3.7-.003-7.4.007C47.783 520.33 47.783 520.33 38 514l-1-3a253 253 0 0 0-6-2c-5.124-4.157-6.201-11.768-7-18h-2c-1.849-7.988-3.258-15.81-3.75-24l-.135-2.1c-.154-3.127-.101-5.98.424-9.072.692-5.745.07-11.327-.414-17.078l-.277-3.527c-.624-7.85-1.258-15.706-2.095-23.537-.89-8.69-1.096-17.392-1.307-26.118l-.064-2.509c-.432-17.257-.53-34.509-.516-51.77q.002-6.186-.002-12.37-.003-10.394.006-20.787.006-10.46 0-20.917c-.023-33.587-.028-67.171.575-100.754l.06-3.355a1342 1342 0 0 1 1.268-38.914c.357-7.756.511-15.518.672-23.28.095-4.52.203-9.038.309-13.557l.063-2.694c.185-7.846.378-15.691.62-23.536l.083-3.249c.64-19.253.64-19.253 5.418-26.439l1.527-2.378A37 37 0 0 1 29 34" id="svg-layer-7" style="pointer-events: all;"/><path fill="#749588" d="m63.915 70.753 2.364.004 2.68-.01 2.904.023h2.983q3.127.006 6.256.024c3.187.018 6.373.02 9.56.02q3.038.007 6.076.018l2.886.003 2.71.02 2.37.011c2.532.148 4.843.485 7.296 1.134 1.66 1.926 1.66 1.926 3.063 4.313 2.053 3.342 4.1 5.959 6.937 8.687v2h2.688c4.262 1.287 4.993 2.906 7.078 6.676L133 96l1.422 2.355c2.472 4.146 3.88 6.711 3.578 11.645h2v-4c3 1 3 1 4.027 2.75l.91 2.25 1.028 2.469L147 116a665 665 0 0 0 2 4.5l6 13.5h4c3.08 6.159 2.273 15.256 2.563 22.063L162 166h-22l6 3v2c-9.173-.35-9.173-.35-12.625-3.062L132 166l1-1-1.95-.191c-8.534-1.157-14.735-4.46-22.05-8.809v-2h-2v-2l-1.79-.354c-3.684-1.077-6.304-3.535-9.272-5.896-.625-.478-1.25-.956-1.893-1.45-3.586-2.823-5.766-5.299-8.045-9.3-2.121-1.844-2.121-1.844-4.437-3.5-7.12-5.363-12.72-12.969-15.563-21.5l-3-1-1-5h-1c-1.171-6.283-1.184-12.377-1.187-18.75l-.038-3.48-.005-3.317-.013-3.026c.303-3.03 1.03-4.27 4.158-4.674" id="svg-layer-8" style="pointer-events: all;"/><path fill="#45564E" d="M495 28c3 2 3 2 4.375 4.438 1.852 2.92 3.584 4 6.625 5.562l-1 2-5-3-.535 1.926C498 41 498 41 494.629 41.793q-2.031.224-4.067.395c-7.36.745-7.36.745-10.562 1.812l4 2-2 2c.375 2.125.375 2.125 1 4a494164 494164 0 0 1-152.954.055h-3.27q-25.95.008-51.898.022-26.778.015-53.557.017-14.976 0-29.953.012a32068 32068 0 0 1-36.428.007c-19.952 0-39.898-.086-59.847-.413l-2.528-.04c-7.914-.128-15.827-.265-23.74-.438q-3.202-.068-6.406-.127-3.871-.072-7.743-.172l-3.406-.06-2.958-.066C46 51 46 51 44 53c-.41 1.971-.41 1.971-.633 4.352l-.254 2.578-.238 2.695-.262 2.719A954 954 0 0 0 42 72h-1q-.04-3.562-.062-7.125l-.026-2.016c-.02-4.066.3-7.871 1.088-11.859h2v-8h-8l-2-5c6.891-2.588 13.775-2.276 21.048-2.247q2.165-.002 4.328-.008c3.959-.006 7.917 0 11.876.008 4.277.007 8.554.002 12.831-.002q12.6-.006 25.201.01c9.869.01 19.737.01 29.606.01q26.578.001 53.157.023 25.478.021 50.955.02h6.263q29.29 0 58.583.015 8.751.004 17.503.004C382.24 35.837 439.116 36.268 496 37c.074-3.343.065-5.804-1-9M46 45l-1 4q18.255.034 36.51.052 8.475.007 16.952.023 8.18.016 16.359.02 3.12.003 6.242.01 4.37.01 8.74.009l2.61.01c4.009-.006 7.668-.17 11.587-1.124a70 70 0 0 1 4.18-.133l2.316-.004 2.379.012 2.355-.012c3.607.006 6.95.164 10.528.707 3.242.43 3.242.43 5.44-.041 3.638-.687 7.192-.614 10.876-.556l4.71.037q3.693.037 7.386.086c2.385.03 4.77.048 7.154.064l2.241.04c1.813.01 3.626-.086 5.435-.2l2-2zm195 1v3q8.73.037 17.462.055 2.973.008 5.945.02 4.264.017 8.527.023l2.702.015c2.121 0 4.243-.05 6.364-.113l1-1v1h6l1-3z" id="svg-layer-9" style="pointer-events: all;"/><path fill="#739486" d="m152.16 371.902 3.903.036 3.91.027L163 372q-.212 5.5-.437 11l-.12 3.121c-.688 16.622-.688 16.622-4.443 21.879l-2 3-1-1-.48 1.906c-1.458 5.349-3.234 9.631-6.329 14.223-1.774 2.787-2.899 5.837-4.191 8.871-3.52 5.76-3.52 5.76-6 7l-1.375 3c-1.625 3-1.625 3-3.812 3.875L131 449l.672 1.672c.464 3.29-.706 4.783-2.422 7.578l-1.61 2.703c-.54.676-1.082 1.351-1.64 2.047h-3l-.687 1.813c-1.65 2.748-3.587 3.58-6.313 5.187-1 3-1 3-1 7-4.99 1.023-9.664 1.083-14.723.95l-2.494-.058q-2.598-.062-5.196-.134c-2.644-.07-5.288-.125-7.933-.178l-5.064-.13-2.384-.045c-4.143-.13-7.472-.556-11.206-2.405 2.421-2.421 3.801-2.528 7.125-3.125l2.758-.508L78 471l-1.934-.586-2.504-.789-2.496-.773C69 468 69 468 68 466c-.306-4.117-.357-8.236-.405-12.364a217 217 0 0 0-.103-4.099C67.152 439.571 68.598 433.33 74 425l1.25-3.375c2.428-3.642 5.476-4.652 9.473-6.254 2.859-1.721 3.352-3.23 4.277-6.371h2l.59-1.75c2.288-3.65 6.11-5.23 9.799-7.25 4.465-2.566 4.465-2.566 5.326-5.125L107 393c3-2 3-2 7-2l.691-1.86c1.706-2.79 3.21-3.266 6.246-4.39l2.653-1.016C126 383 126 383 129 383l.25-2.312c.942-3.377 1.75-3.936 4.75-5.688 3.418-.695 3.418-.695 7.188-1.125 3.964-.465 7.257-1.858 10.972-1.973" id="svg-layer-10" style="pointer-events: all;"/><path fill="#718F82" d="m392.75 369.75 3.79-.062c9.56-.04 15.788 1.392 23.96 6.5l2.594 1.605L425 379l-1 3 2.45.918c10.499 4.116 10.499 4.116 14.55 9.082l1.813 1.688C444 395 444 395 444 397l-2 1h4v2l2.313.813c4.256 1.88 5.332 3.451 7.375 7.687C457 412 457 412 457 415l2.313.125c2.687.875 2.687.875 4.375 3.5 3.812 9.804 4.492 19.106 4.5 29.5l.037 2.918c.01 5.058-.208 9.221-2.225 13.957-15.839 1.027-31.3 2.011-47-1v-3l-1.812-.125c-3.282-1.313-3.687-3.753-5.188-6.875l-2.25-2.25c-4.323-4.323-8.17-9.468-10.832-14.996C398 435 398 435 396 434a133 133 0 0 1-3-6l-1.562-3.062C390 422 390 422 389 419.375c-1.049-2.49-2.374-4.228-4-6.375-3-5.444-3-5.444-3-9h-3c-1.69-5.954-2.362-11.452-2.562-17.625-.193-5.21-.433-10.242-1.438-15.375 5.73-1.734 11.823-1.226 17.75-1.25" id="svg-layer-11" style="pointer-events: all;"/><path fill="#719082" d="m421 71 3 1h-2v2l3.176-.254 4.137-.308 2.091-.17c3.221-.234 5.5-.3 8.596.732 2.228.07 4.458.085 6.688.063l3.574-.028L453 74v2l10-1c-2.565-2.565-4.477-2.54-8-3v-1h11c.781 3.126 1.128 5.2 1.133 8.316 0 .42 0 .42.007 2.538l-.015 2.709-.015 2.805c-.024 2.878-.064 5.755-.11 8.632l-.038 2.697c-.367 19.883-.367 19.883-7.4 28.178C457 129 457 129 454.376 130.5c-2.85 1.8-3.69 3.62-5.375 6.5a105 105 0 0 1-5 4l-1.5 1.625c-1.958 1.795-4.015 2.502-6.5 3.375v-2h-2l-.062 1.813C433 148 433 148 429.5 149.625L426 151l-1 2h-2l-1 3c-1.969 1.098-1.969 1.098-4.5 2.063l-2.469.972c-8.89 2.83-17.677 3.558-26.969 4.153q-2.009.142-4.017.287c-9.786.655-9.786.655-12.045-.475l.367-2.21c.828-5.159 1.606-10.286 2.106-15.485l.236-2.413q.226-2.353.417-4.71c.425-4.4 1.04-7.602 3.874-11.182h2l.336-1.781c.734-2.451 1.674-3.75 3.289-5.719 3.409-4.361 6.072-9.034 8.762-13.863 1.402-2.292 2.624-3.873 4.613-5.637 4.188-3.769 6.07-6.819 8-12h2l.813-1.937C410 84 410 84 413 83c4.04-3.258 5.892-7.38 8-12" id="svg-layer-12" style="pointer-events: all;"/><path fill="#44544C" d="M492 127h2l-.007 2.787q-.03 13.042-.045 26.083-.007 6.704-.023 13.408-.016 6.477-.02 12.954-.003 2.464-.01 4.927c-.026 8.006-.042 15.897 1.105 23.841h-1v7h1a240495 240495 0 0 1 .056 107.693q.007 17.933.021 35.865.014 18.426.017 36.853.002 11.353.014 22.705.008 8.734.005 17.467 0 3.563.006 7.124c.02 12.804-.156 25.522-1.119 38.293-2.777-2.777-2.26-4.426-2.278-8.319l-.018-1.995c-.017-2.225-.02-4.45-.023-6.676l-.03-4.803c-.028-4.407-.043-8.814-.056-13.22-.016-4.725-.043-9.45-.068-14.174-.048-9.213-.084-18.425-.117-27.638q-.04-11.183-.09-22.365c-.264-58.96-.417-117.92-.441-176.882l-.01-16.14q-.011-13.92-.003-27.842.001-4.597-.002-9.196-.003-6.222.007-12.446l-.007-3.687.009-3.34.001-2.89C491 130 491 130 492 127" id="svg-layer-13" style="pointer-events: all;"/><path fill="#4A6057" d="M485 88h1c.876 19.859 1.152 39.673 1.134 59.548q-.002 5.968.002 11.935.003 10.04-.006 20.08-.006 10.133 0 20.267c.027 38.069-.06 76.113-1.13 114.17h-1l-.168-3.225q-.31-5.94-.632-11.881l-.27-5.136q-.193-3.697-.395-7.395l-.117-2.308c-.209-3.768-.55-7.379-1.418-11.055h-2l1-15h1c.933-18.403 1.138-36.777 1.101-55.2-.006-3.772-.006-7.545-.008-11.318q-.005-10.65-.021-21.3-.016-12.153-.022-24.306Q483.034 120.94 483 96h1z" id="svg-layer-14" style="pointer-events: all;"/><path fill="#BEBEB2" d="M117 468h2a1126 1126 0 0 1-.937 4.375l-.528 2.46C117 477 117 477 116 479l3-1a99 99 0 0 1 5.22-.12l3.276-.004 3.595.01h3.784q5.137.001 10.276.013c3.58.006 7.159.006 10.738.008q10.169.005 20.336.021 11.576.016 23.15.022 23.813.016 47.625.05v1l-9 1 15 1v1c-8.654 1.093-17.31 1.252-26.02 1.387l-4.704.08q-7.545.121-15.089.22l-2.582.037c-21.365.296-42.692.483-64.042-.536l-2.688-.125c-9.744-.47-19.265-1.327-28.875-3.063l1-3 5-1-.687-1.75c-.313-2.25-.313-2.25 1-4.5z" id="svg-layer-15" style="pointer-events: all;"/><path fill="#C3C1B5" d="m284.214 477.88 3.348-.004 3.69.01h3.873q5.265.001 10.53.013c3.667.006 7.333.006 11 .008q10.417.005 20.834.021 11.859.016 23.717.022 24.398.016 48.794.05v1l-21 1 7.332-.07q3.514-.023 7.03-.04 2.442-.016 4.885-.04c2.341-.025 4.682-.036 7.023-.045l2.206-.032c3.737 0 5.33.098 8.524 2.227l-2.152.168q-4.893.383-9.786.77l-3.384.263c-4.88.387-9.75.786-14.612 1.358-7.98.921-15.949.563-23.941-.059-6.073-.447-12.073-.525-18.16-.473-13.487.054-26.956-.368-40.433-.827q-5.184-.174-10.37-.336-5.022-.16-10.04-.329l-3.732-.117-3.474-.12c-.5-.018-.5-.018-3.033-.102-3.012-.205-5.916-.653-8.883-1.196 3.904-2.603 5.584-3.125 10.214-3.12" id="svg-layer-16" style="pointer-events: all;"/><path fill="#6D887A" d="m49.052 49.557 3.825.08 2.129.028c2.354.036 4.707.1 7.06.163q2.517.045 5.032.085 5.403.09 10.805.212c8.587.194 17.176.327 25.764.467q4.424.074 8.847.151c12.849.218 25.694.32 38.545.304l2.52-.003q10.735-.016 21.472-.063 6.49-.03 12.98-.044l2.053-.004c13.989-.02 27.942.438 41.916 1.067v1c-4.21 1.024-8.279 1.138-12.587 1.12l-2.29.003q-3.79 0-7.581-.01l-5.44.001q-7.383-.001-14.764-.013c-5.144-.006-10.287-.006-15.43-.008q-14.61-.005-29.218-.021a59922 59922 0 0 0-33.265-.022Q77.213 54.034 43 54c2.619-3.945 2.619-3.945 6.052-4.443M292 50.866q7.651.002 15.301-.002 12.847-.003 25.695.006 14.741.007 29.483-.002 12.762-.007 25.526-.003 7.575.003 15.15-.001C424.46 50.85 445.717 50.939 467 52v1a1722470 1722470 0 0 1-120.337.573l-50.89.242-22.67.108c-13.7.067-27.402.089-41.103.077v-2c19.977-1.372 39.99-1.148 60-1.134M467 52h16c1.672 8.714 2.284 16.928 2.23 25.79v3.834q-.005 3.975-.024 7.952-.024 5.097-.02 10.195c0 3.256-.01 6.512-.018 9.768l-.003 3.7-.02 3.4-.011 3C485 122 485 122 484 124a68 68 0 0 0-.205 4.266l-.06 2.67c-.01.475-.01.475-.051 2.884l-.063 2.951q-.097 4.677-.183 9.354l-.131 6.332q-.162 7.77-.307 15.543h-1q-.398-11.75-.782-23.503-.179-5.46-.364-10.92c-.763-22.532-1.304-44.972-.122-67.5l.147-3.089.143-2.702C481 58 481 58 480 55l-13-1z" id="svg-layer-17" style="pointer-events: all;"/><path fill="#2E2E26" d="m46 45 116 1-1 2-1.74-.016q-3.943-.029-7.885-.047l-2.738-.025-2.676-.01-2.444-.016C141 48 141 48 138.402 48.5c-4.148.61-8.16.632-12.345.614h-2.663c-2.889 0-5.778-.008-8.667-.016l-6.028-.005q-7.915-.006-15.832-.024-8.083-.014-16.168-.02Q60.85 49.033 45 49z" id="svg-layer-18" style="pointer-events: all;"/><path fill="#749689" d="m450.813 473.75 3.427-.062 3.28-.016 2.971-.028c2.882.409 3.746 1.102 5.509 3.356a41.5 41.5 0 0 1-8.082 1.389l-2.46.182-2.7.183-2.909.198q-4.86.318-9.724.61l-3.391.208c-35.2 2.075-70.491 1.503-105.734 1.23v-1l1.973-.025c55.607-.703 55.607-.703 76.214-1.913l2.063-.113c6.554-.371 12.467-.954 18.75-2.949 6.922-1.16 13.804-1.217 20.813-1.25" id="svg-layer-19" style="pointer-events: all;"/><path fill="#50645B" d="M302 490h137v1c-6.575 1.198-13.06 1.134-19.728 1.114h-3.846q-5.193-.001-10.387-.013c-3.624-.006-7.25-.006-10.874-.008q-10.285-.005-20.569-.021-11.714-.016-23.427-.022-24.084-.016-48.169-.05z" id="svg-layer-20" style="pointer-events: all;"/><path fill="#BEBEB2" d="M61 431c2.934 3.01 3.347 5.416 3.366 9.56l-.038 2.163-.006 2.248q-.01 2.346-.04 4.692a680 680 0 0 0-.048 7.183l-.03 4.564-.014 2.169c-.044 3.07-.211 5.485-1.19 8.421h9l-4 3 4 2v1c-8.52 1.444-8.52 1.444-13-1-1.915-1.915-1.133-4.74-1.14-7.286.006-.875.01-1.75.015-2.651l.01-2.708c.046-6.062.195-12.113.49-18.168l.093-2.185C58.73 439.367 59.59 435.386 61 431" id="svg-layer-21" style="pointer-events: all;"/><path fill="#44544C" d="M493 43h2c.12 5.736-.01 11.428-.358 17.154-.829 14.027-.7 28.051-.605 42.096l.013 2.712q.011 2.52.038 5.038c.024 5.72-.425 11.32-1.088 17-2.234-3.583-2.243-6.525-2.227-10.696v-2.012c0-2.186.016-4.372.032-6.558l.008-4.556c.008-3.992.028-7.983.05-11.975.02-4.075.03-8.15.04-12.226.02-7.993.055-15.985.097-23.977l-3-1c.313-2.875.313-2.875 1-6l3-2z" id="svg-layer-22" style="pointer-events: all;"/><path fill="#50645B" d="M182.633 489.899c4.216.006 8.432.006 12.648.008q11.903.005 23.807.021 13.583.016 27.165.022 27.874.016 55.747.05v1l-1.706.013q-27.273.206-54.544.425l-2.084.016c-40.559.326-81.114.692-121.666 1.546v-2c20.222-.958 40.394-1.137 60.633-1.101" id="svg-layer-23" style="pointer-events: all;"/><path fill="#C3C1B5" d="M480 278h1c.983 14.927 1.148 29.802 1.133 44.758l.003 7.33q.002 7.63-.006 15.263-.006 9.714.004 19.428.005 7.553 0 15.104 0 3.579.002 7.158c.03 37.847.03 37.847-3.136 42.959q-.04-3.094-.062-6.187l-.036-3.481c.027-3.452.297-6.855.597-10.293.523-6.676.636-13.296.615-19.99v-3.7q-.001-4.954-.013-9.908c-.006-3.469-.006-6.938-.008-10.406q-.005-9.822-.021-19.644-.016-11.195-.022-22.39-.016-23-.05-46.001" id="svg-layer-24" style="pointer-events: all;"/><path fill="#CAC9BE" d="M67 436h1c1.074 10.684 1.102 21.273 1 32l11 2c-2 2-2 2-5.477 2.195a267 267 0 0 1-4.148-.07L63 472l1-22 3-1-2-2c-.012-2.094-.012-2.094.313-4.5l.3-2.406C66 438 66 438 67 436" id="svg-layer-25" style="pointer-events: all;"/><path fill="#BDBDB1" d="M43 377h2q-.126 19.31-.288 38.62-.076 8.966-.134 17.932a6113 6113 0 0 1-.136 17.292q-.028 3.306-.045 6.61c-.017 3.077-.046 6.154-.078 9.231l-.007 2.783c-.01.836-.022 1.672-.034 2.533l-.016 2.207C44 476 44 476 42 478c-.086-21.259.15-42.507.464-63.763q.09-6.328.18-12.655Q42.82 389.291 43 377" id="svg-layer-26" style="pointer-events: all;"/><path fill="#2E2E26" d="M241 46h49l-1 3h-48z" id="svg-layer-27" style="pointer-events: all;"/><path fill="#BDBDB1" d="M43 246h2l1 13 1-5h1v21l-3 1v19l-2 1z" id="svg-layer-28" style="pointer-events: all;"/><path fill="#AFB6AA" d="M490 394h2q.037 6.168.055 12.335.008 2.1.02 4.2c.013 2.007.018 4.016.023 6.024l.016 3.665C492 423 492 423 491 424c-.031 2.296.068 4.577.16 6.871C491 433 491 433 489 435c-1.675-5.026-1.428-10.297-1.625-15.562l-.156-3.463c-.263-6.76-.126-13.268.781-19.975h2z" id="svg-layer-29" style="pointer-events: all;"/><path fill="#A5B1A5" d="M488 346h1l1 20 2 1v27h-2l-1 2c-1.143-2.286-1.16-3.659-1.221-6.203l-.07-2.63-.06-2.847-.07-2.922a2675 2675 0 0 1-.137-6.128c-.067-3.125-.144-6.25-.223-9.375q-.068-2.976-.133-5.95l-.072-2.835-.052-2.649-.051-2.323c.09-2.176.486-4.051 1.089-6.138" id="svg-layer-30" style="pointer-events: all;"/><path fill="#4D665C" d="m430.695 70.867 2.02-.003q2.12 0 4.241.006 3.21.005 6.419-.007c6.614-.003 13.087.067 19.625 1.137v3l-10 1v-2l-3 .5c-4.535.644-9.467 1.212-13.918-.04-2.56-.566-4.613-.3-7.207.04-4.659.608-4.659.608-6.875-.5v-2c2.905-1.452 5.454-1.13 8.695-1.133" id="svg-layer-31" style="pointer-events: all;"/><path fill="#50645B" d="m486 484 1 2 5-1-1 6c-5.877 1.021-11.57 1.13-17.527 1.098l-2.997-.005c-3.138-.005-6.276-.018-9.413-.03q-3.205-.009-6.409-.014-7.827-.017-15.654-.049v-2l47-1z" id="svg-layer-32" style="pointer-events: all;"/><path fill="#C3C1B5" d="M479 430h1l.076 2.576q.178 5.931.361 11.861l.067 2.153c.254 8.06.53 16.113 1.058 24.16.399 6.095.557 12.143.438 18.25l-3 1v-12l-2-1h2l-.219-2.445c-.751-9.83-.893-19.638-.906-29.493l-.008-2.075q-.006-2.944 0-5.89l.004-3.483C478 431 478 431 479 430M260 484h17l-1 4 8 1v1h-26z" id="svg-layer-33" style="pointer-events: all;"/><path fill="#31322A" d="m494 43-2 7-2-1-1 5h-4v-2h-2l-.375-1.937L482 48l-2-1 2-1-4-2c4.628-2.24 12.01-4.99 16-1" id="svg-layer-34" style="pointer-events: all;"/><path fill="#50645B" d="M43 491h79v1q-10.662.219-21.326.427-3.61.072-7.22.146Q81.23 492.824 69 493l-3.54.054c-3.361.046-6.723.077-10.085.102l-3.09.045-2.824.012-2.475.022C45 493 45 493 43 491" id="svg-layer-35" style="pointer-events: all;"/><path fill="#C3C1B5" d="M438 473q6.162-.149 12.323-.22 2.09-.03 4.18-.082c8.237-.2 15.27-.102 22.497 4.302l-1 2c-6.539 1.276-12.879.94-19.5.563l-3.07-.159q-3.716-.192-7.43-.404v-1l3.43-.184 4.445-.253 2.262-.12c5.636-.33 5.636-.33 7.863-1.443-1.745-1.745-4.19-1.233-6.566-1.316l-3.409-.127-3.587-.12-3.6-.13q-4.419-.16-8.838-.307z" id="svg-layer-36" style="pointer-events: all;"/><path fill="#596D63" d="M26 454h1c1.035 8.522 1.313 17.052 1.563 25.625l.13 4.2q.159 5.087.307 10.175h3c.03.536.03.536.188 3.25C33 501 33 501 35.562 503.438c.805.515 1.61 1.03 2.438 1.562-3.035-.337-4.747-.805-7.187-2.687-5.09-6.493-4.97-15.298-4.91-23.215 0-.723.002-1.445.004-2.19.005-2.282.018-4.564.03-6.846q.009-2.336.014-4.673.017-5.695.049-11.389" id="svg-layer-37" style="pointer-events: all;"/><path fill="#BDBDB1" d="M43 168h1q.266 14.811.495 29.624.104 6.878.229 13.754.119 6.633.214 13.266.039 2.535.088 5.07.067 3.54.11 7.082l.05 2.132c.014 1.692-.077 3.384-.186 5.072l-2 2zM43 296h2q.037 8.566.055 17.133.008 2.91.02 5.822.017 4.196.023 8.393l.015 2.608c0 4.791-.307 9.319-1.113 14.044h-1z" id="svg-layer-38" style="pointer-events: all;"/><path fill="#44544C" d="M483 52h2v2h3l-2 34h-1l-.06-2.029c-.097-3.095-.206-6.189-.315-9.284l-.094-3.189c-.233-6.304-.892-12.268-2.213-18.44L482 53z" id="svg-layer-39" style="pointer-events: all;"/><path fill="#BEBEB2" d="M72 477c4.292-.03 8.583-.047 12.875-.062l3.648-.026c6.894-.019 13.636.212 20.477 1.088v1H72z" id="svg-layer-40" style="pointer-events: all;"/><path fill="#BDBDB1" d="M43 344h2v32l-2 1z" id="svg-layer-41" style="pointer-events: all;"/><path fill="#2E2E26" d="M162 46h49c-3.86 2.573-6.999 2.235-11.465 2.16l-2.514-.016c-2.653-.017-5.306-.049-7.958-.081q-3.975-.043-7.948-.072-2.473-.018-4.945-.053c-5.728-.05-5.728-.05-8.273.594-2.281.563-3.687.178-5.897-.532z" id="svg-layer-42" style="pointer-events: all;"/></svg>